<?xml version="1.0" encoding="UTF-8"?>
<svg id="Discord.gg-_x40_marazm" xmlns="http://www.w3.org/2000/svg" version="1.1" viewBox="0 0 1066.02 567.55">
  <!-- Generator: Adobe Illustrator 29.8.3, SVG Export Plug-In . SVG Version: 2.1.1 Build 3)  -->
  <defs>
    <style>
      .st0 {
        fill: none;
        stroke: #333;
        stroke-miterlimit: 8.46;
        stroke-width: .85px;
      }

      .st1 {
        fill: #987f00;
      }

      .st2 {
        fill: #666;
      }

      .st3 {
        fill: #333;
      }

      .st4 {
        stroke-width: .5px;
      }

      .st4, .st5 {
        fill: #212121;
        stroke: #000;
        stroke-miterlimit: 3.39;
      }

      .st5 {
        stroke-width: .25px;
      }
    </style>
  </defs>
  <g id="_4">
    <polygon class="st2" points="624.5 267.34 637.25 270.04 629.68 304.82 616.99 302.09 624.5 267.34"/>
    <polygon class="st1" points="631.54 272.32 632.15 269.44 628.62 268.66 628.06 271.57 631.54 272.32"/>
    <path class="st3" d="M627.12,285.07c-1.39,0-2.54-1.15-2.54-2.57s1.13-2.57,2.54-2.57,2.54,1.15,2.54,2.57-1.15,2.57-2.54,2.57Z"/>
    <path class="st3" d="M625.45,293.09c-1.39,0-2.54-1.15-2.54-2.57s1.13-2.57,2.54-2.57,2.54,1.15,2.54,2.57-1.13,2.57-2.54,2.57Z"/>
    <path class="st3" d="M623.84,300.7c-1.39,0-2.54-1.15-2.54-2.57s1.13-2.57,2.54-2.57,2.54,1.15,2.54,2.57-1.15,2.57-2.54,2.57Z"/>
    <path class="st2" d="M645.4,320.31c-5.85-1.29-11.72-2.56-17.57-3.85l-4.92,23.47c5.85,1.21,11.71,2.41,17.57,3.62l4.92-23.24Z"/>
    <polygon class="st1" points="643.32 321.26 643.59 319.84 638.55 318.8 637.91 321.8 644.94 323.33 645.4 320.88 644.02 320.64 643.82 321.72 640.7 321.2 640.77 320.82 643.32 321.26"/>
    <polyline class="st0" points="644.25 325.54 639.99 324.66 639.86 325.51"/>
    <path class="st0" d="M639.5,326.86c-.28,1.39-.55,2.79-.83,4.18l4.18.86"/>
    <path class="st0" d="M637.73,330.76c.31.09.63.18.95.28"/>
    <path class="st0" d="M636.96,330.59c-.28-.08-.55-.14-.83-.21l-2.53,11.69"/>
    <path class="st0" d="M637.39,337.83c1.35.26,2.71.54,4.06.8"/>
    <polygon class="st3" points="631.58 340.39 635.99 319.79 629.94 318.54 625.54 339.11 631.58 340.39"/>
  </g>
  <path class="st4" d="M560.69,567.29c.27-.06.48-.39.4-.67-.08-.27-.42-.38-.66-.25-.18.09-.34.33-.28.58.06.26.33.39.54.34Z"/>
  <path class="st4" d="M.8,359.58c.27-.06.48-.39.4-.67-.08-.27-.42-.38-.66-.25-.18.09-.34.33-.28.58.06.26.33.39.54.34Z"/>
  <path class="st4" d="M1065.35,301.36c.27-.06.48-.39.4-.67-.08-.27-.42-.38-.66-.25-.18.09-.34.33-.28.58.06.26.33.39.54.34Z"/>
  <path class="st4" d="M594.1,1.22c.27-.06.48-.39.4-.67-.08-.27-.42-.38-.66-.25-.18.09-.34.33-.28.58.06.26.33.39.54.34Z"/>
  <path class="st5" d="M560.69,567.29c.27-.06.48-.39.4-.67-.08-.27-.42-.38-.66-.25-.18.09-.34.33-.28.58.06.26.33.39.54.34Z"/>
  <path class="st5" d="M560.69,567.29c.27-.06.48-.39.4-.67-.08-.27-.42-.38-.66-.25-.18.09-.34.33-.28.58.06.26.33.39.54.34Z"/>
  <path class="st5" d="M.8,359.58c.27-.06.48-.39.4-.67-.08-.27-.42-.38-.66-.25-.18.09-.34.33-.28.58.06.26.33.39.54.34Z"/>
  <path class="st5" d="M1065.35,301.36c.27-.06.48-.39.4-.67-.08-.27-.42-.38-.66-.25-.18.09-.34.33-.28.58.06.26.33.39.54.34Z"/>
  <path class="st5" d="M594.1,1.22c.27-.06.48-.39.4-.67-.08-.27-.42-.38-.66-.25-.18.09-.34.33-.28.58.06.26.33.39.54.34Z"/>
</svg>