<?xml version="1.0" encoding="UTF-8"?>
<svg id="Discord.gg-_x40_marazm" xmlns="http://www.w3.org/2000/svg" version="1.1" viewBox="0 0 1065.77 567.3">
  <!-- Generator: Adobe Illustrator 29.8.3, SVG Export Plug-In . SVG Version: 2.1.1 Build 3)  -->
  <defs>
    <style>
      .st0, .st1 {
        font-family: FranklinGothic-Heavy, 'FranklinGothic Heavy';
        font-size: 2.13px;
        font-weight: 800;
      }

      .st2 {
        fill: #37414c;
      }

      .st3 {
        fill: #987f00;
      }

      .st1 {
        fill: #5d0000;
      }

      .st4 {
        fill: none;
        stroke: #333;
        stroke-miterlimit: 10;
      }

      .st4, .st5 {
        stroke-width: .25px;
      }

      .st6 {
        fill: #666;
      }

      .st7 {
        fill: #333;
      }

      .st5 {
        fill: #212121;
        stroke: #000;
        stroke-miterlimit: 3.39;
      }
    </style>
  </defs>
  <g id="First_Floor">
    <path class="st3" d="M581.72,417.47l1.33-.25-1.23-6.62-1.32.25,1.21,6.62Z"/>
    <path id="ladder-11" class="st3" d="M987.48,400.42l-3.4-.35.15-1.44,3.4.35-.15,1.44Z"/>
    <path id="ladder-12" class="st3" d="M975.98,392.59l-3.19-.35.29-2.83,3.19.35-.29,2.83Z"/>
    <path id="ladder-13" class="st3" d="M932.74,386.01l-2.34-.29.61-4.86,2.34.29-.61,4.86Z"/>
    <path id="ladder-14" class="st3" d="M918.86,384.1l-2.28-.29.6-4.73,2.28.29-.6,4.73Z"/>
    <path id="ladder-15" class="st3" d="M927.58,338.71l5.75.77-.37,2.71-5.75-.77.37-2.71Z"/>
    <path id="ladder-16" class="st3" d="M929.48,326.25l5.29.72.37-2.65-5.29-.72-.37,2.65Z"/>
    <path id="ladder-17" class="st3" d="M697.45,323.39l-.75,5.03-5.65-.86.75-5.03,5.65.86Z"/>
    <path id="ladder-18" class="st3" d="M698.17,318.71l-.64,4.23-5.65-.86.64-4.23,5.65.86Z"/>
    <path id="ladder-19" class="st3" d="M570.56,400.62l-6.45,1.26.64,3.57,6.45-1.26-.64-3.57Z"/>
    <path id="ladder-20" class="st3" d="M575.94,366.65l4.84-.98.66,3.66-4.84.98-.66-3.66Z"/>
    <path id="ladder-21" class="st3" d="M460.36,426.7l4.17-.87.63,3.06-4.17.87-.63-3.06Z"/>
    <path id="ladder-22" class="st3" d="M475.58,353.01l-.32-1.53-3,.63.32,1.53,3-.63Z"/>
    <path id="ladder-23" class="st3" d="M173.16,375.26l-5.95-.2-.08,3,5.95.2.08-3Z"/>
    <path id="ladder-29" class="st3" d="M598.05,281.65l5.12-.93.81,4.41-5.12.93-.81-4.41Z"/>
    <path id="ladder-30" class="st3" d="M447.36,271.06l-3.51-.23-.31,4.73,3.51.23.31-4.73Z"/>
    <path id="ladder-31" class="st3" d="M950.73,317.26l-.7,4.64-2.6-.38.7-4.64,2.6.38Z"/>
    <path id="ladder-32" class="st3" d="M718.34,298.3l-1.49-.23-.51,3.26,1.49.23.51-3.26h0Z"/>
    <path id="ladder-33" class="st3" d="M1001.31,400.42l-2.13-.29.97-7.08,2.13.29-.97,7.08Z"/>
    <path id="ladder-34" class="st3" d="M839.93,385.49l-2.48-.31.86-7.28,2.48.31-.86,7.28Z"/>
    <path id="ladder-35" class="st3" d="M714.26,307.59c.25,2.25-1.79,2.94-1.03,7.34.25,1.44-3.57.69-3.42-.48.29-2.19,1.07-4.69,1.03-7.34-.02-1.26,3.28-.84,3.42.48Z"/>
    <path id="ladder-36" class="st3" d="M703.61,349.62c-.83-.25-.98-3.22-.29-5.15.7-1.93,2.53-1.35,3.08-.17.97,2.1,1.15,4.58.29,5.15-.67.43-1.58.6-3.08.17Z"/>
    <path id="ladder-37" class="st3" d="M452.12,407.45l4.73-.97-.29-1.43-4.73.97.29,1.43Z"/>
    <path id="ladder-38" class="st3" d="M588.69,410.7l-10.94,2.08.32,1.73,10.94-2.08-.32-1.73Z"/>
    <path id="ladder-39" class="st3" d="M682.28,447.12l1.78-.41-1.33-5.72-1.78.41,1.33,5.72h0Z"/>
    <g id="Buildings-1">
      <path class="st6" d="M713.86,362.45l.02-.14.02-.14.52.08.54.08,1.81-12.17-4.03-.61.02-.14.02-.14,4.01.61.18-1.21.18-1.21-5.01-.72.29-1.87.29-1.87.14.02.14.02-.26,1.75-.26,1.75,4.75.67.78-5.15,1.07-6.68-2.7-.41-2.04-.26-.29,1.81-.29,1.81h-.25l.29-1.96.31-1.96,2.18.29,2.83.43.18-1.16.18-1.16-2.01-.31-2.01-.31.02-.14.02-.14,2.01.31,2.01.31.78-5.72-6.08-.93-2.16-.32.05-.26.05-.26,1.47.21.52-3.39.35-2.24,1.7.28,1.7.28v.25l-1.59-.25-1.59-.25-.34,2.1-.49,3.25,3.25.49,3.25.49.49-3.25.34-2.1-.48-.08-.48-.08.02-.14.02-.14.48.08.48.08,2.3-14.76-3.13-.48-3.13-.48.55-3.39-1.53-.25.14-.86-.61-.09-.66-.11.11-.66.11-.66.66.11.61.09.17-1.09,1.52.23.03-.15.31.05-.11.7,1.46.21,1.64.26.11-.7.26.05-.11.7.46.06-.05.26-.66-.09-3.19-.49-.58,3.62-.34,1.95,2.99.46,2.99.46.34-1.95.58-3.63-.72-.11.05-.26.7.11.05-.25h.12l.11.03.2-1.3-.14-.02-.14-.02.09-.64.03-.21-1.39-.21-1.21-.18-.08.54-.26-.05.08-.54-1.64-.25-1.46-.21-.08.54-.26-.05.08-.54-2.37-.37-3.31-.52.02-.14.02-.14-2.77-.43-2.77-.43-.02.14-.02.14-5.07-.75-6.01-.92-2.01,13.15-1.82,11.29,3.34.52,3.17.51-.03.32-.37-.06-.54-.08-.31,2.07-.89-.12-.89-.12-.11.63-.23,1.5,2.88.44,3.08.51.18-1.36.12.03.12.03-.15,1.35,3.13.46.95.14-.03.12-.05.26-.95-.14-.95-.15-.75,4.93-.75,4.93-.14-.02-.14-.02.31-2.1.31-2.1-.52-.09-1.78-.29.02-.14.05-.43,1.79.28.54.08.38-2.39.41-2.7-1.98-.31-4.35-.69-.21,1.36-.21,1.38-.89-.12-.89-.12-.21,1.3-.18,1,4.29.61-.08.46v.12l-8.15-1.16-2.45,16.56-2.04,13.25,4.81.74,7.25,1.1.32-2.07.31-2.07.12.03.12.03-.29,2.05-.29,2.05,4.89.75,7.32,1.12-.02.14-.02.14,1.49.23,1.53.34h0ZM696.71,354.31l-.12-.02-.14-.02,1.47-9.64,1.47-9.64.09.02.09.02.03.05.03.05-1.47,9.59-1.46,9.59h0ZM705.07,349.87c-.41-.02-.89-.09-1.46-.26-.83-.25-.98-3.22-.29-5.13.7-1.93,2.53-1.35,3.08-.17.97,2.1,1.15,4.58.29,5.15-.43.26-.93.43-1.62.41h0ZM702.25,320l-.12-.02-.14-.02.05-.35.05-.35-.52-.09-.23-.05.02-.12.02-.14.34.05.63.09.03.05.03.05-.08.46-.06.44h0ZM720.16,318.07l-2.7-.41,1.26-8.18,2.62.4.03.05.03.05-1.24,8.11h0ZM719.93,317.78l1.16-7.59-.03-.05-.03-.05-2.1-.32-1.18,7.66,2.18.34h0ZM713.91,317.6l-.66-.11-.66-.11.11-.66.11-.66.66.11.66.11-.11.66-.11.66h0ZM702.49,315.86l-.66-.11-.66-.11.11-.66.11-.66.66.11.66.11-.11.66-.11.66ZM712.22,315.73c-.89.03-2.53-.54-2.41-1.27.44-2.47,1.13-5.61,1.03-7.34-.08-1.15,3.34-.67,3.42.48.12,1.98-1.82,3.48-1.03,7.34.12.63-.58.78-1.01.8h0ZM714.78,311.9l-.66-.11-.66-.11.11-.66.11-.66.66.11.66.11-.11.66-.11.66ZM703.36,310.16l-.66-.11-.66-.11.11-.66.11-.66.66.11.66.11-.11.66-.11.66h0ZM715.65,306.19l-.66-.11-.66-.11.11-.66.11-.66.66.11.66.11-.11.66-.11.66h0ZM704.24,304.46l-.66-.11-.66-.11.11-.66.11-.66.66.11.66.11-.11.66-.11.66h0ZM705.11,298.75l-.66-.11-.66-.11.11-.66.11-.66.66.11.66.11-.11.66-.11.66h0Z"/>
      <path class="st6" d="M895.79,220.52c-1.9-.2-3.82-.41-5.72-.61-.08.7-.15,1.41-.23,2.13,1.9.2,3.82.41,5.72.61.09-.7.15-1.43.23-2.13Z"/>
      <path class="st6" d="M594.47,203.79h-6.44v2.67h6.44v-2.67Z"/>
      <path class="st6" d="M575.44,195.42c0-.81,0-1.62-.02-2.44-2.02.02-4.03.02-6.04.03v2.44c2.02-.02,4.05-.03,6.05-.03h0Z"/>
      <path class="st6" d="M549.66,135.92c-1.85-.25-3.72-.49-5.58-.74-.34,2.54-.67,5.1-1.01,7.65,1.85.25,3.72.49,5.58.74.34-2.54.67-5.09,1.01-7.65Z"/>
      <path class="st6" d="M400.44,147.78c-.87-.03-1.73-.06-2.6-.11l-.28,6.14c.87.03,1.73.06,2.6.11.09-2.05.18-4.09.28-6.14h0Z"/>
      <path class="st6" d="M391.54,226.48l-7.71-2.02c-.48,1.92-.97,3.83-1.44,5.75,2.57.67,5.13,1.35,7.71,2.01l1.44-5.73Z"/>
      <path class="st6" d="M474.35,238.82c-1.88-.31-3.78-.6-5.68-.9-.12.77-.25,1.53-.37,2.28l5.68.9c.12-.75.25-1.52.37-2.28Z"/>
      <path class="st6" d="M444.02,438.13l-1.24-6.21c-.87.15-1.75.32-2.62.48.43,2.07.86,4.12,1.29,6.19.84-.14,1.72-.31,2.57-.46h0Z"/>
      <path class="st6" d="M683.17,451.03l1.81-.44-.08-.31.37-.09.08.31,4.57-1.1-1.65-7.08-4.57,1.1,1.35,5.78-.37.09-.61-2.6-1.81.44.92,3.91h0Z"/>
      <path class="st6" d="M537.01,297.02c-.11-.69-.21-1.38-.32-2.07-1.92.31-3.85.61-5.76.92.11.69.21,1.38.32,2.07,1.92-.31,3.83-.61,5.76-.92Z"/>
      <path class="st6" d="M552.28,252.69h-5.65v1.98h5.65v-1.98Z"/>
      <path class="st6" d="M873,171.87c-.66-.46-1.32-.92-1.98-1.38-1.18,1.58-2.34,3.16-3.52,4.75.66.46,1.32.92,1.98,1.38,1.18-1.59,2.34-3.17,3.52-4.75Z"/>
      <g id="Streamers-1f">
        <g id="Streamers-1f-locked">
          <path class="st6" d="M933.82,320.77l-.44,3.16-2.77-.38-1.46-.2.44-3.16.41-2.93,1.46.2,2.77.38-.41,2.93Z"/>
          <path class="st6" d="M935.95,314.93l-.41,2.96-3.02-.41-2.51-.35.41-2.96.38-2.73,2.51.35,3.02.41-.38,2.73h0Z"/>
        </g>
        <path class="st6" d="M947.74,313.7v.06l.34.06.34.06-1.06,7.65.2.03.05-.29.05-.31.84.12.51.09.2-1.41.2-1.39-.51-.09-.86-.12.12-.84.06-.37,1.64.23.95.15-.03.23.06.02.06.02-.09.72-.09.72-.06-.02-.06-.02-.32,2.27-.34,2.48-1.06-.17-1.73-.25-2.27,16.43-2.27,16.43-2.99-.41-2.99-.41.83-5.99.83-5.99-.06-.02-.06-.02-.83,5.99-.83,5.99-6.01-.83-5.5-.77,1.46-10.57,1.46-10.57-.06-.02-.06-.02.15-1.13.15-1.13.06.02.06.02.48-3.4.48-3.42.46.06.97.14-.25,1.73-.12.93,2.25.31,2.25.31.02-.12.15-1.15-1.12-.15-1.12-.15.08-.58.11-.83.98.14.98.14.09-.61.09-.61h-.06l-.06-.02-.08.55-.08.55-1.01-.14-.18-.03.2-1.39.26-1.88.18.03,1.01.14-.12.89-.06.41h.05l.09.02.09-.63.09-.63.6-4.34.6-4.34,2.91.4,2.91.4-.83,6.01-.83,6.01.06.02.06.02.83-6.01.83-6.01,1.7.23,1.7.23.02-.06.06-.29,1.87.26-.06.26h0ZM929.27,332.81l-.37,2.67.06.02.06.02.37-2.67.37-2.67-.06-.02-.06-.02-.37,2.67h0ZM928.27,340.24l-.18,1.29,1.13.15,1.13.15.06-.37.12-.86,1.12.15,1.12.15.12-.92.09-.57-2.24-.31-2.25-.31-.23,1.43h0Z"/>
      </g>
      <g id="Gas_Station">
        <g id="Gas_Station-locked">
          <path class="st6" d="M786.14,230.27l-1.78-.21.17-1.33,1.78.21-.17,1.33Z"/>
          <path class="st6" d="M788.83,224.52l-.55,4.49-3.72-.44.55-4.49,3.72.44Z"/>
        </g>
        <path class="st6" d="M781.8,247.26l.25-1.99,1.73.2v.06l-.03.23,1.26.15.03-.21.02-.08,1.24.15.26-2.18.18-1.59-.31-.03.02-.06.02-.08.31.03.61-5.09.55-4.51-2.3-.28.02-.06.02-.06,2.3.28.15-1.49-.43-.05.02-.12.43.05.17-1.33-1.81-.21-.17,1.33.41.05-.02.12-2.73-.32.02-.06.02-.06.14.02.12.02.75-5.98-1.62-.2-.49,3.86-.06-.02-.06-.02.49-3.86-3.77-.49-.75,5.98,3.77.49.12-1,.06.02.06.02-.12,1,.12.02.12.02-.02.06-.02.06-4.17-.54-.2,1.82-.26,2.11-.06-.02-.06-.02-.14,1.13-.14,1.13h.06l.06.02-.26,2.22-.34,2.79,5.82.74-.02.08v.06l-5.82-.74-.31,2.59-.38,3.17,2.57.34,2.56.32h0ZM785.37,241.82l-1.15-.14.02-.06.02-.08,1.15.14-.02.09-.02.05h0Z"/>
      </g>
      <path class="st6" d="M460.85,407.65l.17,1.2.08-.02.38-.08.25,1.26-.38.08-.08.02.03.18-2.53.52-3.46.74.4,1.95.4,1.95h.15l-.38-1.88-.38-1.88,3.39-.72,2.45-.51,1.15,5.59.92,4.58-.32.06-1.01.21-.15-.77-.15-.77-.06.02-.06.02.15.77.15.77-.64.14-.64.12-.15-.77-.15-.77-.08.02-.08.02.15.77.15.77-.6.12-.6.12-.05.03-.05.03-.15-.78-.15-.78-.08.02-.08.02.15.77.15.77-.64.14-.87.15-.34-1.64-.51-2.39,2.76-.55,2.11-.43-.03-.06-.03-.06-2.1.41-2.74.54-.06-.29-.06-.29-.06.03-.06.03,1.1,5.35.93,4.6,1.56-.29.92-.18.31,1.55,2.15-.44.29,1.53-7.63,1.59-1.7-8-.08.02-.08.02.44,2.21.23,1.24-3.19.64-2.37.49-.49-2.56-.77-3.91,2.37-.49,3.19-.64.09.46.09.46.08-.02.08-.02-.4-1.95-.4-1.95-2.08.43-1.62.34.02.08.02.08,1.55-.31,2.01-.41.28,1.33.28,1.33-3.19.64-2.37.49-.28-1.33-.28-1.33.32-.06.32-.06-.02-.08-.02-.08-.32.06-.32.06-.09-.38-.2-.89h-.08l-.32.08-.32-1.62.34-.09.08-.02-.06-.31-.26-1.39,2.45-.51,3.32-.69-.29-1.46-.29-1.46-.08.02-.08.02.28,1.38.28,1.38-3.23.67-2.37.49-.32-1.56-.41-2.41,2.37-.49,3.23-.67.11.44h.15l-.09-.48,4.12-.83,4.93-1,.25,1.43h0Z"/>
      <path class="st6" d="M989.84,402.29l1.65-15.12-11.58-1.24-6.86-.77.03-.28-2.01-.18-.03.28-2.71-.29-1.65,15.12,5.85.64-.03.23,2.05.25.03-.21,15.26,1.58h0ZM987.48,400.42l-3.4-.35.15-1.44,3.4.35-.15,1.44ZM975.98,392.59l-3.19-.35.29-2.83,3.19.35-.29,2.83Z"/>
      <path class="st6" d="M945.87,377.02l.11.02.11.02-.18,1.43-.11-.02-.11-.02-2.47,19.52-41.43-5.15.61-5.5-.12-.03-.12-.03.74-5.95.14.02.14.02,1.04-8.06-.12-.03-.12-.03.15-1.36.14.02.14.02.26-1.96,34.95,4.35-.12,1-.12,1,.14.02.14.02.12-1,.12-1,6.25.78-.26,1.93h0ZM930.78,382.72l-.38,3,1.46.18,1.46.18.15-1.24.15-1.24-.21-.03-.21-.03.23-1.76.08-.63-1.24-.15-1.24-.15-.23,1.87h0ZM916.96,380.82l-.38,3,1.46.18,1.46.18.15-1.24.15-1.24-.21-.03-.21-.03.23-1.76.06-.51-1.24-.15-1.24-.15-.21,1.75h0ZM942.24,381.46l-.17,1.36-1.39-.18-1.39-.17-.02.15-.02.15,1.53.2,1.53.2.2-1.53.2-1.53-.14-.02-.14-.02-.2,1.38h0Z"/>
      <path class="st6" d="M487.81,353.01l.83,4,.14-.03.14-.03.28,1.29.17.78-.14.03-.14.03.12.63.03.14-8.9,1.85-8.9,1.85-.81-3.92-1.09-5.3-.14.03-.14.03-.05-.14-.26-1.26.14-.03.14-.03-.05-.23-.05-.23c.38-.08.77-.15,1.15-.25-.03-.12-.05-.26-.08-.38.54-.11,1.07-.21,1.59-.32.03.14.06.26.09.4.11-.02.21-.05.32-.06.12.6.26,1.21.38,1.81l3-.63-.38-1.82,5.99-1.24,5.75-1.2.86,4.23h0ZM475.89,356.81l.28,1.29,3.14-.64,3.14-.64-.28-1.29-.32-1.55-3.14.64-3.14.64.32,1.55Z"/>
      <path class="st6" d="M783.01,349.47l-.02.14,5.76.86-4.26,28.36-37.26-5.56-.02.14-.06.4-1.85-.26.06-.4.02-.14-13.1-1.99,3.49-23.49-.14-.02-.26-.05.31-1.88.26.05.14.02.43-3.02,5.52.81.02-.14.06-.35,5.87.92-.06.35-.02.14,3.71.54-.89,5.67,4.4.66.02-.14.02-.14-4.14-.61.84-5.39,6.37.97-.87,5.38-.38-.06-.05.17-.02.12.35.05.35.05.89-5.67,18.16,2.71.03-.12.09-.29,6.28.9-.05.34h0Z"/>
      <path class="st6" d="M849.73,308.16l-.03.15,2.77.48,5.79.89-.54,3.45-.41,2.57.15.03.15.03-.49,3.26-.32,2.16-.15-.03-.15-.03-2.27,14.56-2.39,15.52.15.03.15.03-.84,5.41-.15-.03-.15-.03-.06.32-10.85-1.72-12.64-1.95.31-1.99.69-4.37-.15-.03-.15-.03.83-5.5.15.03.15.03,1.04-6.28-.15-.03-.15-.03.81-5.47.15.03.15.03.38-2.22,2.13.31,2.13.31.32-2.05.32-2.05-.18-.03-.18-.03-.29,1.9-.29,1.9-1.96-.31-1.96-.31.51-3.59-.15-.03-.15-.03.87-5.47.15.03.15.03.87-5.5,1.01-6.51,1.55.23,1.78.26.03-.15.03-.15,5.3.83,6.3.98-.06.17h0Z"/>
      <path class="st6" d="M174.35,294.66l.05.02.97,2.21.97,2.21-2.9,1.27-2.9,1.27-.98-2.24-.98-2.24,2.87-1.26,2.87-1.26.05.02h0Z"/>
      <path class="st6" d="M162.4,356.06v.08l3.62.11,7.89.21-.28,9.7-.26,9.1-2.44-.06-2.44-.06-.03,1.56,1.78.05-.03,1.44,1.55.05,1.55.05-.05,1.82-.02.66.21.03-.15,5.18h-.23l-.43,15-.41,14.6-14.82-.43-9.02-.28.83-29.34.84-29.73,3.94.11,3.65.09v-.18l2.38.06,2.37.06v.12h0Z"/>
      <path class="st6" d="M567.73,422.88l12-2.19-1.7-9.29,6.14-1.12,1.76,9.62,1.84-.34-1.76-9.67,2.16-.4,1.72,9.39.46-.08-3.26-17.84.8-.15-1.12-5.93-.77.14-3.17-17.36.8-.12-.95-5.93-.93.15-2.11-11.62-11.05,2.01,2.13,11.69-.66.12-1.1-6.01-2.02.37-.11-.58,2.05-.37-.95-5.19-11.02,2.01.95,5.19,7.69-1.39.11.55-7.51,1.36,1.1,6.07-1.12.2,1.03,5.64.93-.17,2.15,11.72-.89.18,1.09,5.93.93-.18.38,2.05,7.39-1.35,1.09,6.01-.54.09-.98-5.5-3.43.63.32,1.78-1.7.31.29,1.62-1.73.31-.61-3.4,1.52,8.44,6.86-1.24-.26-1.41.49-.09.25,1.36.87-.17.15.8-8.17,1.49,2.18,11.84h0ZM576.48,409.41l-5.38-29.93,6.42-1.15.44,2.45-.72.12-.35-1.95-4.67.84,2.01,11.17,4.8-.86-1.3-7.23.6-.11,1.41,7.86-5.39.97,3.17,17.62-1.03.18h0Z"/>
      <path class="st6" d="M191.44,447.17l.05.03.05,2.54.05,2.54-3.37.06-3.37.06-.05-2.57-.05-2.57,3.34-.06,3.34-.06.02.03h0Z"/>
      <path class="st6" d="M447.85,285.77l.35-4.67.35-4.67,1.07.08,2.18.17.29-3.92.29-3.92.03-.48.03-.48-2.48-.18-1.35-.11-.02.29-.02.29-.89-.06-.89-.06.03-.29.02-.29-3.16-.23-3.75-.28-.03.31-.03.32-.29-.03-.29-.02-.09,1.29-.09,1.29-.18,2.5-.18,2.51.32.03.25.02-.06.89-.06.89-.25-.02-.32-.03-.23,2.97-.23,2.97-.06.81-.06.81.38.03.2.02-.02.29-.02.29,3.75.28,3.16.25.03-.29.02-.29.89.06.89.06-.03.29-.02.29.29.03h.28ZM447.05,275.79l-3.51-.23.31-4.73,3.51.23-.31,4.73Z"/>
      <path class="st6" d="M222.24,269.14c-2.15-.12-4.31-.26-6.45-.38-.11,2.08-.23,4.17-.34,6.25,2.15.12,4.31.26,6.45.38.11-2.08.21-4.17.34-6.25h0Z"/>
      <path class="st6" d="M115.97,432.21l.17-4.14,5.87.21-.17,4.14-5.87-.21Z"/>
      <path class="st6" d="M107.41,435.23l-7.54-.28.12-4.08,7.54.28-.12,4.08h0Z"/>
      <path class="st6" d="M109.28,378.51l-7.28-.23-.11,3.94,7.28.23.11-3.94Z"/>
      <path class="st6" d="M92.96,417.03l7.08.23-.12,4.11-7.08-.26.12-4.08h0Z"/>
      <path class="st6" d="M83.45,438.45l-7.16-.2.11-3.75,7.16.2-.11,3.75h0Z"/>
      <path class="st6" d="M84.47,403.62l-7.31-.26-.14,4.06,7.31.26.14-4.06Z"/>
      <path class="st6" d="M61.07,426.16l-6.34-.21-.14,4.05,6.34.21.14-4.05Z"/>
      <path class="st6" d="M85.41,381.56l-7.37-.21.11-3.72,7.37.21-.11,3.72h0Z"/>
      <path class="st6" d="M77.65,376.68l-6.94-.31.14-4.12,6.94.31-.14,4.12Z"/>
      <path class="st6" d="M117.74,378.63l5.81.23.14-3.86-5.81-.23-.14,3.86h0Z"/>
      <path class="st6" d="M118.46,356.58l5.96.2.11-4.03-5.96-.2-.11,4.03h0Z"/>
      <path class="st6" d="M116.5,445.78c-.86-.06-1.72-.12-2.56-.18-.17,2.01-.32,4.03-.49,6.04.86.06,1.72.12,2.56.18.15-2.02.32-4.03.49-6.04h0Z"/>
      <path class="st6" d="M121.71,493.77l-2.36-1.46c-1.18,1.96-2.36,3.92-3.54,5.88.78.49,1.56.97,2.36,1.46,1.18-1.96,2.36-3.92,3.54-5.88h0Z"/>
      <path class="st6" d="M123.85,326.33c-1.18-.8-2.37-1.59-3.55-2.39-1.36,2.16-2.73,4.32-4.09,6.47,1.18.8,2.37,1.59,3.55,2.39l4.09-6.47h0Z"/>
      <path class="st6" d="M253.42,262.28c-2.11-.08-4.23-.15-6.36-.23-.06,2.01-.14,4.01-.2,6.02,2.11.08,4.23.15,6.36.23.08-2.01.14-4.01.2-6.02h0Z"/>
      <path class="st6" d="M393.83,286.98c-.8-.34-1.61-.67-2.42-1-.87,1.93-1.73,3.85-2.6,5.78.8.34,1.61.67,2.41,1,.89-1.93,1.75-3.85,2.62-5.78h0Z"/>
      <g id="Locked-1">
        <path class="st2" d="M576.17,251.08l-5.7-.83-.32,2.25,5.7.83.32-2.25Z"/>
        <path class="st2" d="M950.32,265.76c.95-1.12,1.92-2.25,2.87-3.37-1.81-1.53-3.63-3.05-5.44-4.58-.97,1.12-1.92,2.25-2.87,3.37l5.44,4.58h0Z"/>
        <path class="st2" d="M739.65,311.86c-.89-.12-1.76-.23-2.65-.35-.31,2.04-.61,4.09-.93,6.13.89.12,1.76.23,2.65.35.32-2.04.63-4.09.93-6.13Z"/>
        <path class="st2" d="M731.37,274.03c-1.84-.26-3.66-.51-5.5-.77-.28,2.02-.57,4.05-.84,6.07,1.84.26,3.66.51,5.5.77.28-2.02.57-4.05.84-6.07h0Z"/>
        <path class="st6" d="M126.03,481.95c-.83-.05-1.65-.09-2.5-.14-.12,2.04-.25,4.06-.37,6.1.83.05,1.65.09,2.5.14.12-2.04.25-4.06.37-6.1Z"/>
        <path class="st6" d="M182.24,467.47c-.83-.05-1.65-.09-2.48-.14-.12,2.02-.23,4.06-.35,6.08l2.48.14c.12-2.02.23-4.05.35-6.08h0Z"/>
      </g>
    </g>
  </g>
  <path class="st6" d="M60.61,439.35l-6.34-.21-.14,4.05,6.34.21.14-4.05Z"/>
  <path class="st6" d="M90.66,497.25l2.42.48.4-6.11-2.42-.48-.4,6.11Z"/>
  <path class="st6" d="M123.42,481.88l-2.6-.52-.47,6.14,2.6.52.47-6.14Z"/>
  <path class="st6" d="M122.35,475.32l-5.98-.14-.14,2.5,5.98.14.14-2.5Z"/>
  <path class="st6" d="M931.89,322.96l-.12.87-.75-.11-.4-.06.12-.87.11-.81.4.06.75.11-.11.81Z"/>
  <path class="st6" d="M936.22,315.96l-.12.87-.75-.11-.4-.06.12-.87.11-.81.4.06.75.11-.11.81Z"/>
  <path class="st6" d="M443.57,328.74c.25,1.13.51,2.25.75,3.39-1.65.37-3.31.75-4.98,1.12-.18-.81-.37-1.62-.55-2.44-.09.02-.17.03-.26.06.05.21.08.41.12.63-1.33.31-2.68.6-4.01.9l-.37-1.84-.15.05s-.05.06-.08.09c.02.14.05.29.06.43l-1.41.31c.02.08.03.17.06.25.44-.09.87-.17,1.32-.26.25.97.48,1.95.72,2.91l-1.41.31c-.06-.41-.11-.83-.17-1.26-.09.03-.18.05-.28.08l.18,1.21c-.29.06-.58.11-.87.17-.05-.38-.11-.77-.15-1.15-.09.02-.18.03-.29.05.06.4.11.78.17,1.18-.37.06-.72.12-1.09.18-.15-.97-.32-1.93-.48-2.9.43-.11.87-.2,1.3-.31-.02-.06-.03-.14-.03-.2-2.34.54-4.69,1.07-7.03,1.62-.15-.81-.32-1.62-.48-2.44.81-.18,1.62-.35,2.45-.54-.03-.15-.06-.29-.09-.44-.84.18-1.69.37-2.51.55-.08-.35-.14-.69-.21-1.04-.09.02-.2.03-.29.05.06.38.12.75.17,1.13-1.16.21-2.33.43-3.51.64l.54,3.28c.11-.03.21-.05.32-.08-.15-.97-.31-1.93-.46-2.88,1.09-.2,2.19-.38,3.28-.57.35,1.79.7,3.59,1.07,5.38-1.13.28-2.25.55-3.39.83-.08-.57-.15-1.12-.23-1.69-.12.03-.26.08-.38.11.09.54.2,1.07.29,1.59l-5.73,1.18c.03.17.08.35.11.52-.29.06-.6.12-.89.18,0-.17-.02-.32-.02-.49-.93.18-1.85.35-2.79.54.06.15.14.32.2.48-.32.06-.64.11-.97.17.02-.18.03-.37.05-.55-1.07.23-2.15.48-3.2.7-.8-3.85-1.59-7.71-2.39-11.55l16.98-3.4c.2,1,.41,1.99.61,2.97.11-.02.2-.05.31-.06-.54-2.99-1.09-5.99-1.62-8.98,1.5-.31,2.99-.61,4.49-.92-.58-2.94-1.18-5.88-1.76-8.84-.12.03-.23.05-.35.08.58,2.85,1.16,5.7,1.75,8.55-1.41.28-2.8.55-4.21.81-.25-1.36-.48-2.73-.72-4.09l1.88-.4c-.21-1.16-.44-2.31-.66-3.48-.69.15-1.38.32-2.07.48-.28-1.35-.57-2.71-.84-4.06,1.44-.28,2.87-.55,4.31-.83l.29,1.96c.14-.02.28-.05.41-.06-.11-.66-.21-1.32-.32-1.98,1.09-.18,2.18-.38,3.25-.57-.15-.37-.31-.74-.48-1.1.54-.12,1.07-.25,1.61-.37.02.41.03.84.05,1.26,3.34-.64,6.7-1.3,10.04-1.96.26,1.26.51,2.53.77,3.78.17-.11.35-.21.52-.32.08.35.15.7.23,1.04-.2-.02-.41-.03-.61-.06,1.32,6.54,2.64,13.09,3.95,19.63.21-.05.41-.09.63-.14.08.4.17.8.25,1.21-.26.08-.46.14-.67.2h0Z"/>
  <path class="st7" d="M427.51,330.08c3.49-.67,6.97-1.33,10.47-2.01.09.44.2.87.29,1.32.11-.03.21-.06.32-.08-.11-.44-.2-.87-.31-1.32.58-.11,1.18-.21,1.76-.32-.02-.09-.05-.18-.06-.28-4.15.81-8.32,1.62-12.47,2.44v.25h0Z"/>
  <polygon class="st7" points="434.42 314.13 431.59 316.97 430.04 315.56 433.78 311.27 434.42 311.86 433.89 312.4 434.42 312.86 434.84 312.48 435.53 312.52 435.53 312.89 437.09 312.86 436.63 325.75 433.99 325.62 434.42 314.13"/>
  <path class="st7" d="M434.48,306.96c.09.03.57.2,1.03-.06.29-.17.43-.41.48-.54.05-.09.32-.63.05-1.2-.18-.4-.58-.69-1.04-.72-.49-.05-.93.18-1.2.57-.02.03-.4.6-.12,1.24.23.49.7.67.81.7h0Z"/>
  <path class="st7" d="M438.01,303.97c.14.08.4.23.58.54.25.41.32,1.09-.11,1.58-.35.4-.93.51-1.43.32-.74-.28-.84-1.09-.84-1.12-.05-.44.11-1.06.63-1.33.54-.28,1.1-.02,1.16.02h0Z"/>
  <polygon class="st7" points="158.94 414.79 159.4 405.66 160.84 405.66 160.38 414.79 158.94 414.79"/>
  <polygon class="st7" points="153.33 413.8 153.22 415.01 148.4 414.87 148.43 413.8 153.33 413.8"/>
  <rect class="st7" x="148.63" y="406.92" width="4.55" height="1.13"/>
  <rect class="st7" x="148.81" y="400.02" width="4.54" height="1.16"/>
  <polygon class="st7" points="153.48 394.23 153.48 393.02 149.01 393.02 148.98 394.23 153.48 394.23"/>
  <rect class="st7" x="149.21" y="386.01" width="4.47" height="1.29"/>
  <polygon class="st7" points="153.02 390.96 154.83 389.54 157.01 392.39 155.61 393.49 153.02 390.96"/>
  <rect class="st7" x="159.69" y="398.78" width="1.46" height="4.49"/>
  <polygon class="st7" points="159.89 398.35 161.3 398.35 161.5 394.23 160.06 394.1 159.89 398.35"/>
  <rect class="st7" x="167.23" y="414.25" width="4.57" height="1.5"/>
  <polygon class="st7" points="167.23 413.03 171.79 413.21 171.79 410.88 167.23 410.75 167.23 413.03"/>
  <polygon class="st7" points="167.72 401.72 172.18 401.72 172.18 400.6 167.72 400.42 167.72 401.72"/>
  <rect class="st7" x="167.87" y="393.4" width="4.49" height="1.5"/>
  <polygon class="st7" points="159.89 387.81 161.85 386.44 158.2 381.42 156.24 382.64 159.89 387.81"/>
  <polygon class="st7" points="165.53 386.32 165.53 384.08 171.57 383.93 171.57 386.21 165.53 386.32"/>
  <polygon class="st7" points="153.91 380.38 153.91 379.32 149.41 379.03 149.41 380.38 153.91 380.38"/>
  <polygon class="st7" points="154.14 373.48 154.14 372.18 149.61 372.05 149.56 373.48 154.14 373.48"/>
  <polygon class="st7" points="154.14 364.22 155.69 362.42 152.55 360.49 151.35 361.8 154.14 364.22"/>
  <polygon class="st7" points="159.37 364.65 159.84 363.73 162.36 365.16 161.8 366.17 159.37 364.65"/>
  <path id="ladder-22-2" class="st3" d="M439.25,333.5l-.38-2.02-3.54.83.38,2.02,3.54-.83Z"/>
  <path id="ladder-22-3" class="st3" d="M408.91,327.72l-.35-1.53-3.36.63.35,1.53,3.36-.63Z"/>
  <path id="ladder-22-4" class="st3" d="M406.81,326.67l-1.53.21.52,2.59,1.53-.21-.52-2.59Z"/>
  <path id="ladder-22-5" class="st3" d="M422.18,310.65l-1.53.35.61,3.36,1.53-.35-.61-3.36Z"/>
  <path id="ladder-22-6" class="st3" d="M424.83,321.78l1.72-.34-.64-3.36-1.72.34.64,3.36Z"/>
  <path class="st7" d="M443.37,326.68c.03.11.06.23.09.34-.74.12-1.47.26-2.21.38-.02-.11-.05-.2-.06-.31.72-.14,1.44-.28,2.18-.41Z"/>
  <path class="st6" d="M459.03,314.15l.34-.09-1.39-6.59,29.94-6.08.83,4.49.4-.09-.87-4.47,4.63-1,1.15,5.5-.64.14.11.43.66-.12.14.55.51-.14.23.98-.49.08,3.06,15.34-24.36,5.18c.03.17.06.34.11.51,12.18-2.54,24.35-5.1,36.53-7.65-.05-.18-.09-.35-.15-.54.49-.11.98-.21,1.46-.31.03.18.06.37.11.55,2.97-.63,5.95-1.24,8.92-1.87l2.36,10.94c-17.05,3.54-34.09,7.06-51.15,10.6.02.17.05.32.06.49.46-.09.92-.17,1.38-.26.7,3.42,1.41,6.83,2.1,10.25-1.76.37-3.52.74-5.29,1.1-.7-3.43-1.41-6.86-2.11-10.3l1.24-.26c-.03-.17-.05-.32-.08-.49-1.2.26-2.41.51-3.6.77-.05-.2-1.65-8.2-2.22-11,3.08-.6,6.14-1.18,9.22-1.78-.03-.17-.06-.34-.11-.51l-3.13.66c-.05-.2-.09-.4-.14-.6-.11.02-.2.05-.31.06.03.2.08.4.11.61l-5.75,1.12-1.47-6.45-.29.08-.17-.92.34-.05-.2-1.04c.52-.12,1.04-.25,1.56-.35-.02-.09-.05-.18-.06-.26-.52.12-1.06.23-1.58.35l-1.46-6.77-.31.08-.15-.87h0Z"/>
  <polygon class="st7" points="463.58 321.43 463.51 321.12 467.08 320.38 468.52 327.66 468.26 327.72 466.83 320.8 463.58 321.43"/>
  <polygon class="st7" points="475.46 321.84 479.61 320.98 477 309.37 472.91 310.27 475.46 321.84"/>
  <path class="st7" d="M490.63,319.08l3.94-.78-2.41-11.62c-1.3.26-2.6.52-3.91.78.8,3.86,1.58,7.74,2.37,11.62Z"/>
  <path class="st7" d="M492.48,306.59c-.03-.14-.05-.26-.08-.4-1,.2-1.98.4-2.97.6l-.06-.26-.48.12.17.6,3.42-.66Z"/>
  <path class="st7" d="M482.03,335.22c1.03-.18,1.62-.87,1.76-1.06.11-.14.8-1.03.63-2.25-.14-.97-.74-1.55-.97-1.78-.25-.23-.84-.8-1.81-.89-.23-.02-1.04-.08-1.82.46-.72.48-.98,1.15-1.09,1.44-.32.84-.18,1.55-.15,1.73.14.72.51,1.18.58,1.27.38.48.83.69,1.04.78.26.14.93.44,1.82.29h0Z"/>
  <path class="st7" d="M497.37,332.4c.14-.03.86-.17,1.52-.75.2-.17.55-.49.8-1.07.08-.17.26-.67.2-1.32-.06-.67-.34-1.12-.48-1.35-.4-.63-.9-.93-1-1-.6-.37-1.16-.41-1.41-.43-.28-.02-.74-.05-1.27.15-.8.31-1.21.9-1.36,1.15-.14.21-.54.83-.52,1.72,0,.15.03.95.58,1.72.49.67,1.1.95,1.23,1,.14.06.83.34,1.72.18Z"/>
  <path class="st7" d="M486.03,333.06c.49-.06.7-.57.7-.6.03-.06.18-.49-.06-.87-.23-.35-.63-.4-.69-.4-.05,0-.44-.03-.75.26-.02.02-.34.34-.26.78.08.49.57.9,1.06.83h0Z"/>
  <path class="st7" d="M492.85,331.45c-.35.12-.74,0-.97-.25-.35-.35-.26-.84-.25-.93.02-.09.11-.51.49-.69.34-.17.66-.05.74-.03.37.14.61.49.63.87.03.43-.2.89-.64,1.03h0Z"/>
  <polygon class="st3" points="490.98 324.37 490.72 323.19 495.51 322.15 495.81 323.33 490.98 324.37"/>
  <polygon class="st3" points="489.17 319.17 490.49 318.85 489.83 315.8 488.5 316.11 489.17 319.17"/>
  <polygon class="st3" points="473.91 322.28 475.44 321.9 474.77 319.05 473.27 319.37 473.91 322.28"/>
  <polygon class="st3" points="485.66 320.69 488.27 320.14 488.86 322.94 486.21 323.53 485.66 320.69"/>
  <polygon class="st7" points="464.3 337.71 471.98 336.09 472.3 337.47 464.56 339 464.3 337.71"/>
  <polygon class="st7" points="463.81 335.32 471.58 333.64 471.57 333.55 471.29 332.24 463.55 333.98 463.81 335.32"/>
  <polygon class="st7" points="472.5 333.38 471.57 333.55 471.37 332.57 472.36 332.4 472.5 333.38"/>
  <polygon class="st7" points="472.01 336.26 473.05 336.03 473.25 337.06 472.24 337.22 472.01 336.26"/>
  <polygon class="st7" points="564.17 393.81 570.17 390.23 571.48 392.28 565.39 395.9 564.17 393.81"/>
  <polygon class="st7" points="566.18 379.92 566.4 377.05 565.35 377.05 565.06 379.92 566.18 379.92"/>
  <polygon class="st7" points="573.64 372.38 573.64 371.04 577.18 371.14 577.18 372.47 573.64 372.38"/>
  <path id="ladder-20-2" class="st3" d="M575.94,366.65l4.84-.98.66,3.66-4.84.98-.66-3.66Z"/>
  <polygon class="st7" points="579.36 402.33 582.39 400.62 583.05 401.6 579.97 403.33 579.36 402.33"/>
  <polygon class="st7" points="464.93 327.66 466.02 327.43 465.22 323.37 464.06 323.6 464.93 327.66"/>
  <polygon class="st6" points="629.62 305.08 617.22 302.5 625.04 267.06 637.13 269.88 629.62 305.08"/>
  <polygon class="st3" points="626.17 303.45 627.66 303.73 628.1 301.35 626.63 301.11 626.17 303.45"/>
  <path class="st3" d="M632.16,275.4l.44-2.38,1.42.29c-.17.8-.32,1.58-.49,2.38l-1.38-.29h0Z"/>
  <path class="st3" d="M631.32,272.07l.54-2.6c-.93-.21-1.87-.43-2.79-.63l-.58,2.67,2.83.57h0Z"/>
  <path class="st7" d="M628.62,277.17c.89.17,1.78.35,2.67.52.31-1.5.61-3,.93-4.51-.9-.15-1.81-.32-2.71-.48-.29,1.5-.6,2.97-.89,4.46h0Z"/>
  <path class="st7" d="M625.96,276.62c-.83-.18-1.65-.37-2.48-.55.34-1.47.66-2.93,1-4.4.83.18,1.64.37,2.47.54-.32,1.47-.64,2.94-.98,4.41h0Z"/>
  <path class="st7" d="M623.63,300.59c-1.39,0-2.54-1.15-2.54-2.57s1.13-2.57,2.54-2.57,2.54,1.15,2.54,2.57-1.13,2.57-2.54,2.57Z"/>
  <path class="st7" d="M625.4,292.89c-1.39,0-2.54-1.15-2.54-2.57s1.13-2.57,2.54-2.57,2.54,1.15,2.54,2.57-1.13,2.57-2.54,2.57Z"/>
  <path class="st7" d="M626.95,285.03c-1.39,0-2.54-1.15-2.54-2.57s1.13-2.57,2.54-2.57,2.54,1.15,2.54,2.57-1.15,2.57-2.54,2.57Z"/>
  <path class="st6" d="M504.45,409.35l-10.99-.4-.08,1.98,10.99.4.08-1.98Z"/>
  <path class="st6" d="M450.36,373.33l-1.46-5.75-2.37.6,1.46,5.75,2.37-.6Z"/>
  <path class="st6" d="M461.07,370.49l-1.33-5.78-2.39.55,1.33,5.78,2.39-.55Z"/>
  <path class="st6" d="M437.27,374.11l2.31-5.46-2.27-.97-2.31,5.46,2.27.97Z"/>
  <path class="st6" d="M302.22,404.82l5.79-.02-.02-2.13-5.79.02.02,2.13Z"/>
  <path class="st6" d="M230.76,266.08v-3.56h-2.36v3.56h2.36Z"/>
  <path class="st6" d="M230.39,286.78l.18-8.08-2.6-.06-.18,8.08,2.6.06Z"/>
  <path class="st6" d="M855.55,404.52l13.04,1.56.32-2.73-13.04-1.56-.32,2.73Z"/>
  <path class="st6" d="M985.62,340.6l9.45,1.27,1.21-8.99-9.45-1.27-1.21,8.99Z"/>
  <path class="st6" d="M981.38,367.56l9.45,1.27,1.21-8.99-9.45-1.27-1.21,8.99Z"/>
  <polygon class="st7" points="784.57 241.45 785.39 241.55 786.43 233.36 785.51 233.29 784.57 241.45"/>
  <path class="st6" d="M637.68,270.14l14.76,3.06.12-.48,1.29.31-.09.48,1.04.23-6.25,29.7c.12.03.25.08.37.11.48-2.22.95-4.46,1.42-6.68l2.76.64.18-.54,5.96,1.27-.06.55,3.19.66-9.79,46.02-3.06-.64-.15.52-6.02-1.26.15-.55-2.77-.49,4.18-19.18-.51-.17-4.17,19.6-4.06-.84-.11.32-1.42-.29.12-.43-11.81-2.33,2.47-11.88,5.68,1.21,1.39-6.53,4.35,1.01.06-.54-10.16-2.25.97-4.44c5.9,1.29,11.8,2.59,17.71,3.88,1.1-5.07,2.21-10.13,3.31-15.2-.15-.05-.29-.08-.44-.12-.26,1.15-.52,2.31-.78,3.46-5.7-1.2-11.4-2.39-17.1-3.59,2.42-11.49,4.86-23.05,7.28-34.6h0Z"/>
  <path class="st7" d="M635.53,326.91c.77.17,1.2,1.01,1.01,1.75-.17.7-.89,1.23-1.61,1.09-.8-.15-1.29-1.06-1.04-1.82.2-.69.92-1.18,1.64-1.01h0Z"/>
  <path class="st7" d="M634.03,333.5c.75.15,1.49-.26,1.73-.95.26-.75-.17-1.64-.95-1.85-.72-.2-1.47.23-1.73.89-.26.75.14,1.62.95,1.92h0Z"/>
  <path class="st7" d="M634,334.31c.74.17,1.23.9,1.09,1.65-.14.77-.89,1.26-1.61,1.15-.86-.12-1.41-1.07-1.13-1.88.21-.64.93-1.07,1.65-.92h0Z"/>
  <path class="st7" d="M633.17,338.21c.78.17,1.2,1.03,1.01,1.75-.17.66-.81,1.18-1.52,1.09-.77-.11-1.29-.9-1.15-1.65.12-.77.87-1.35,1.65-1.18h0Z"/>
  <path class="st7" d="M640.19,335.83c.61.15,1.29-.17,1.52-.77.26-.69-.2-1.52-.92-1.69-.61-.14-1.3.2-1.52.84-.23.69.23,1.44.92,1.61Z"/>
  <path class="st7" d="M640.17,336.01c.58.17,1.01.78.9,1.41-.12.67-.8,1.1-1.46,1-.67-.12-1.18-.8-1.03-1.5.15-.7.92-1.09,1.58-.9h0Z"/>
  <path class="st7" d="M643.18,339.42c.61.21,1.36-.11,1.58-.75.23-.67-.25-1.39-.89-1.58-.55-.15-1.21.12-1.46.67-.28.64.11,1.43.77,1.65h0Z"/>
  <path class="st7" d="M643.93,336.83c.51.11,1.12-.15,1.35-.67.28-.6-.03-1.35-.64-1.62-.6-.26-1.32-.02-1.59.51-.35.67.14,1.62.89,1.79h0Z"/>
  <path class="st7" d="M647.44,318.51c.61.15,1.3-.21,1.5-.84.21-.69-.23-1.44-.9-1.61-.57-.14-1.2.15-1.44.67-.32.66.09,1.58.84,1.78Z"/>
  <path class="st7" d="M648.05,315.82c.61.14,1.27-.23,1.46-.83.21-.64-.14-1.36-.8-1.58-.66-.21-1.36.18-1.56.83-.2.67.23,1.43.9,1.58h0Z"/>
  <path class="st7" d="M643.9,301.26c1.26.32,2.56-.46,2.87-1.67.35-1.36-.67-2.76-2.02-2.91-1.13-.14-2.3.63-2.56,1.82-.28,1.23.52,2.45,1.72,2.76h0Z"/>
  <path class="st7" d="M645.28,295.56c2.25.63,4.72-.83,5.15-3.17.44-2.39-1.41-4.6-3.68-4.83-1.9-.2-3.85,1.04-4.37,2.97-.58,2.13.75,4.43,2.9,5.03Z"/>
  <path class="st7" d="M648.37,285.86c1.9.48,3.97-.8,4.4-2.8.43-2.02-.97-4.01-2.9-4.35-1.67-.29-3.34.7-3.94,2.19-.78,1.93.32,4.44,2.44,4.96h0Z"/>
  <path class="st7" d="M634.47,298.47c1.5.32,3.02-.72,3.23-2.27.2-1.53-.98-2.93-2.47-3.03-1.3-.09-2.54.83-2.8,2.13-.31,1.43.61,2.87,2.04,3.17h0Z"/>
  <polygon class="st7" points="647.9 339.39 645.09 338.53 648.74 328.61 648.89 323.08 651.33 323.08 651.33 329.04 651.01 329.04 647.9 339.39"/>
  <polygon class="st7" points="650.73 341.76 653.11 342.28 654.26 336.55 652.05 336.11 650.73 341.76"/>
  <polygon class="st7" points="651.11 311.19 652.8 309.7 650.81 307.28 649 308.66 651.11 311.19"/>
  <polygon class="st7" points="651.41 304.31 654.26 304.43 654.38 299.39 651.47 299.39 651.41 304.31"/>
  <polygon class="st7" points="657.7 308.91 660.35 304.8 658.9 303.9 656.28 307.99 657.7 308.91"/>
  <polygon class="st3" points="636.9 323.05 638 318.61 627.7 316.35 626.74 320.8 636.9 323.05"/>
  <polygon class="st3" points="639.01 292.43 639.35 290.92 634.51 290.01 634.17 291.55 639.01 292.43"/>
  <polygon class="st3" points="651.04 275.07 651.39 273.37 647.97 272.64 647.64 274.41 651.04 275.07"/>
  <path class="st3" d="M701.05,342.77c.72-.06,1.09-.11,1.41.02.49.18.41.43.86.6.57.2.86-.14,1.41.03.52.17.8.66.84.75.44.8-.23,1.32-.15,2.64.08,1.3.8,1.64.51,2.47-.18.54-.69,1-1.24,1.12-.83.18-1.56-.43-2.07-.84-.84-.7-.69-1.07-1.52-1.59-.57-.35-1.3-.67-1.3-.67-.58-.26-.74-.26-.86-.46-.18-.28-.09-.74.11-1.65.17-.83.26-.86.26-1.27,0-.25-.05-.41.06-.6.08-.11.2-.21.75-.35.47-.12.86-.15.93-.17h0Z"/>
  <path class="st7" d="M735.86,358.29c.58.17,1.01.78.9,1.41-.12.67-.8,1.1-1.46,1-.67-.12-1.18-.8-1.03-1.5.15-.7.92-1.09,1.58-.9h0Z"/>
  <path class="st7" d="M738.64,358.68c.58.17,1.01.78.9,1.41-.12.67-.8,1.1-1.46,1-.67-.12-1.18-.8-1.03-1.5.15-.7.92-1.09,1.58-.9h0Z"/>
  <path class="st7" d="M739.01,355.95c.58.17,1.01.78.9,1.41-.12.67-.8,1.1-1.46,1-.67-.12-1.18-.8-1.03-1.5.15-.7.92-1.09,1.58-.9h0Z"/>
  <path class="st7" d="M736.31,355.55c.58.17,1.01.78.9,1.41-.12.67-.8,1.1-1.46,1-.67-.12-1.18-.8-1.03-1.5.17-.7.93-1.09,1.58-.9h0Z"/>
  <path class="st7" d="M738.5,366.92c.58.17,1.01.78.9,1.41-.12.67-.8,1.1-1.46,1-.67-.12-1.18-.8-1.03-1.5s.92-1.09,1.58-.9h0Z"/>
  <path class="st7" d="M735.86,366.49c.58.17,1.01.78.9,1.41-.12.67-.8,1.1-1.46,1-.67-.12-1.18-.8-1.03-1.5.15-.7.92-1.09,1.58-.9h0Z"/>
  <path class="st7" d="M746.28,367.41c.58.17,1.01.78.9,1.41-.12.67-.8,1.1-1.46,1-.67-.12-1.18-.8-1.03-1.5.15-.7.93-1.1,1.58-.9h0Z"/>
  <path class="st7" d="M748.87,367.72c.58.17,1.01.78.9,1.41-.12.67-.8,1.1-1.46,1-.67-.12-1.18-.8-1.03-1.5.15-.7.92-1.09,1.58-.9h0Z"/>
  <path class="st7" d="M758.46,370.08c.58.17,1.01.78.9,1.41-.12.67-.8,1.1-1.46,1-.67-.12-1.18-.8-1.03-1.5.15-.72.92-1.1,1.58-.9h0Z"/>
  <path class="st7" d="M760.99,370.55c.58.17,1.01.78.9,1.41-.12.67-.8,1.1-1.46,1-.67-.12-1.18-.8-1.03-1.5.17-.7.93-1.09,1.58-.9h0Z"/>
  <path class="st7" d="M761.56,367.61c.58.17,1.01.78.9,1.41-.12.67-.8,1.1-1.46,1-.67-.12-1.18-.8-1.03-1.5s.92-1.1,1.58-.9h0Z"/>
  <path class="st7" d="M758.92,367.15c.58.17,1.01.78.9,1.41-.12.67-.8,1.1-1.46,1-.67-.12-1.18-.8-1.03-1.5.15-.7.92-1.09,1.58-.9h0Z"/>
  <path class="st7" d="M761.45,361.45c.58.17,1.01.78.9,1.41-.12.67-.8,1.1-1.46,1-.67-.12-1.18-.8-1.03-1.5.15-.72.93-1.1,1.58-.9h0Z"/>
  <path class="st7" d="M764.1,361.9c.58.17,1.01.78.9,1.41-.12.67-.8,1.1-1.46,1-.67-.12-1.18-.8-1.03-1.5.15-.7.92-1.09,1.58-.9h0Z"/>
  <path class="st7" d="M764.53,359.11c.58.17,1.01.78.9,1.41-.12.67-.8,1.1-1.46,1-.67-.12-1.18-.8-1.03-1.5.15-.7.92-1.09,1.58-.9h0Z"/>
  <path class="st7" d="M765.01,356.27c.58.17,1.01.78.9,1.41-.12.67-.8,1.1-1.46,1-.67-.12-1.18-.8-1.03-1.5.15-.7.93-1.1,1.58-.9h0Z"/>
  <path class="st7" d="M762.33,355.89c.58.17,1.01.78.9,1.41-.12.67-.8,1.1-1.46,1-.67-.12-1.18-.8-1.03-1.5s.92-1.09,1.58-.9h0Z"/>
  <path class="st7" d="M761.9,358.66c.58.17,1.01.78.9,1.41-.12.67-.8,1.1-1.46,1-.67-.12-1.18-.8-1.03-1.5.15-.7.92-1.09,1.58-.9h0Z"/>
  <path class="st7" d="M757.76,357.5c.58.17,1.01.78.9,1.41-.12.67-.8,1.1-1.46,1-.67-.12-1.18-.8-1.03-1.5.15-.7.92-1.09,1.58-.9h0Z"/>
  <path class="st7" d="M755.22,357.11c.58.17,1.01.78.9,1.41-.12.67-.8,1.1-1.46,1-.67-.12-1.18-.8-1.03-1.5s.93-1.09,1.58-.9h0Z"/>
  <polygon class="st7" points="740.97 353.38 741.38 350.82 736.78 350.14 736.37 352.66 740.97 353.38"/>
  <polygon class="st7" points="747.85 356.9 750.07 355.81 746.7 348.84 744.46 349.84 747.85 356.9"/>
  <polygon class="st7" points="777.33 361.07 777.73 358.52 775.49 358.31 775.9 355.61 773.63 355.37 773.4 356.62 771.2 356.39 770.78 358.83 772.88 359.15 772.85 360.3 777.33 361.07"/>
  <polygon class="st7" points="778.72 374.28 781.2 374.61 781.63 372.47 779.06 372.01 778.72 374.28"/>
  <polygon class="st7" points="781.63 377.98 783.93 378.4 784.76 373.31 782.6 372.94 781.63 377.98"/>
  <polygon class="st7" points="771.55 374.95 772.96 375.15 773.68 370.61 772.26 370.51 771.55 374.95"/>
  <polygon class="st7" points="768.36 374.61 767 374.41 767.69 369.79 769.18 370.09 768.36 374.61"/>
  <polygon class="st7" points="773.94 353.99 776.18 354.39 776.97 349.01 774.8 348.72 773.94 353.99"/>
  <polygon class="st7" points="781.3 360.26 783.58 360.41 783.73 357.79 783.46 357.79 784.15 355.24 784.41 355 784.71 352.47 785.75 352.47 786.05 350.14 783.84 349.85 783.55 352.2 782.49 352.15 782.18 354.72 781.91 354.71 781.3 357.18 781.49 357.68 781.3 360.26"/>
  <polygon class="st7" points="827.72 352.52 829.12 352.66 829.68 348.21 828.27 347.98 827.72 352.52"/>
  <polygon class="st7" points="851.95 349.59 850.69 349.47 851.46 345.27 852.65 345.5 851.95 349.59"/>
  <polygon class="st7" points="851.5 343.81 852.93 343.94 853.51 339.81 852.15 339.71 851.5 343.81"/>
  <polygon class="st7" points="852.58 338.04 853.76 338.13 854.49 334.1 853.2 333.98 852.58 338.04"/>
  <polygon class="st7" points="854.68 332.6 855.46 326.76 853.22 326.5 852.42 332.34 854.68 332.6"/>
  <polygon class="st7" points="857.36 314.45 857.91 310.01 852.53 309.26 852.07 313.78 857.36 314.45"/>
  <polygon class="st7" points="835.68 320.03 838.17 320.41 839.78 308.59 837.31 308.1 835.68 320.03"/>
  <polygon class="st7" points="840.35 330.64 842.78 330.88 843.34 325.06 841.08 324.86 840.35 330.54 840.35 330.64"/>
  <polygon class="st7" points="845.5 331.29 843.34 330.88 844.35 325.3 846.57 325.64 845.5 331.29"/>
  <polygon class="st7" points="848.71 342.83 850.35 341.84 847.73 337.24 846.13 338.27 848.71 342.83"/>
  <path class="st7" d="M842.59,342.91l.28-2.42s-10.94-1.59-11-1.53c-.05.05-.37,2.38-.37,2.38l11.09,1.58h0Z"/>
  <polygon class="st7" points="840.9 338.31 841.22 335.89 835.08 335.22 834.82 337.33 840.9 338.31"/>
  <polygon class="st7" points="834.82 338.77 835.03 337.61 838.94 338.56 838.66 339.68 834.82 338.77"/>
  <polygon class="st7" points="938.17 354.88 939.49 354.79 939.24 351.29 937.92 351.35 938.17 354.88"/>
  <polygon class="st7" points="941.23 352.39 942.6 352.49 942.8 349.13 941.34 349.13 941.23 352.39"/>
  <polygon class="st7" points="934.92 350.05 936.41 343.09 934.32 342.59 932.44 349.51 934.92 350.05"/>
  <polygon class="st7" points="943.19 336.57 943.9 335.8 943.9 334.86 940.76 333.29 940.56 333.91 939.52 333.29 938.93 334.19 939.82 334.8 939.9 335.26 943.19 336.57"/>
  <polygon class="st7" points="933.86 330.88 936.54 330.38 936.21 329.09 933.75 329.59 933.86 330.88"/>
  <path class="st5" d="M560.56,567.17c.27-.06.48-.39.4-.67-.08-.27-.42-.38-.66-.25-.18.09-.34.33-.28.58.06.26.33.39.54.34Z"/>
  <path class="st5" d="M.68,359.45c.27-.06.48-.39.4-.67-.08-.27-.42-.38-.66-.25-.18.09-.34.33-.28.58.06.26.33.39.54.34Z"/>
  <path class="st5" d="M1065.23,301.23c.27-.06.48-.39.4-.67-.08-.27-.42-.38-.66-.25-.18.09-.34.33-.28.58.06.26.33.39.54.34Z"/>
  <path class="st5" d="M593.97,1.1c.27-.06.48-.39.4-.67-.08-.27-.42-.38-.66-.25-.18.09-.34.33-.28.58.06.26.33.39.54.34Z"/>
  <g>
    <path class="st6" d="M537.36,119.95c5.08.7,10.16,1.4,15.24,2.1,1.16-8.3,2.33-16.61,3.49-24.91,4.15.57,8.29,1.14,12.44,1.71.7-5.1,1.39-10.21,2.09-15.31-9.2-1.26-18.4-2.51-27.6-3.77-1.89,13.39-3.77,26.79-5.66,40.18Z"/>
    <path class="st4" d="M543.67,120.82c.05-.35.11-.7.16-1.06"/>
    <line class="st4" x1="544.01" y1="118.64" x2="544.37" y2="116.05"/>
    <line class="st4" x1="544.52" y1="114.96" x2="544.7" y2="113.67"/>
    <line class="st4" x1="544.88" y1="112.49" x2="545.16" y2="109.92"/>
    <polyline class="st4" points="545.35 108.85 545.45 108.27 539.11 107.53"/>
    <line class="st4" x1="538.68" y1="110.68" x2="544.99" y2="111.5"/>
    <line class="st4" x1="538.23" y1="113.76" x2="544.57" y2="114.57"/>
    <line class="st4" x1="537.8" y1="116.78" x2="544.15" y2="117.67"/>
    <path class="st4" d="M546.3,121.19l.17-1.06"/>
    <line class="st4" x1="546.65" y1="118.95" x2="546.91" y2="117.04"/>
    <line class="st4" x1="547.07" y1="115.97" x2="547.26" y2="114.57"/>
    <polyline class="st4" points="547.38 113.52 547.6 111.81 553.92 112.66"/>
    <line class="st4" x1="553.47" y1="115.86" x2="547.21" y2="114.96"/>
    <line class="st4" x1="553.05" y1="118.88" x2="546.78" y2="117.94"/>
    <polyline class="st4" points="554.37 109.41 551.37 108.93 550.35 109.7 550.3 110.17"/>
    <line class="st4" x1="550.16" y1="111.59" x2="550.07" y2="112.14"/>
    <line class="st4" x1="539.93" y1="101.69" x2="544.48" y2="102.34"/>
    <polyline class="st4" points="539.51 104.65 545.87 105.49 546.83 98.3"/>
    <line class="st4" x1="544.91" y1="99.05" x2="540.39" y2="98.4"/>
    <line class="st4" x1="545.85" y1="99.21" x2="546.69" y2="99.34"/>
    <line class="st4" x1="547.02" y1="97.1" x2="547.43" y2="93.99"/>
    <line class="st4" x1="540.84" y1="95.24" x2="547.14" y2="96.14"/>
    <line class="st4" x1="547.66" y1="92.18" x2="548.13" y2="89.17"/>
    <line class="st4" x1="541.69" y1="89.17" x2="547.98" y2="90.15"/>
    <line class="st4" x1="548.3" y1="87.89" x2="548.62" y2="85.44"/>
    <line class="st4" x1="542.12" y1="86.13" x2="548.42" y2="87"/>
    <line class="st4" x1="548.77" y1="84.25" x2="548.97" y2="83.13"/>
    <line class="st4" x1="542.55" y1="83.09" x2="548.83" y2="83.89"/>
    <line class="st4" x1="549.27" y1="81.74" x2="549.43" y2="80.65"/>
    <polyline class="st4" points="554.74 106.79 548.51 105.91 549.1 101.27"/>
    <line class="st4" x1="549.71" y1="102.84" x2="548.91" y2="102.71"/>
    <line class="st4" x1="555.21" y1="103.43" x2="550.64" y2="102.93"/>
    <line class="st4" x1="549.31" y1="100.01" x2="549.57" y2="98.04"/>
    <polyline class="st4" points="549.77 96.93 549.83 96.47 556.07 97.32"/>
    <line class="st4" x1="549.36" y1="99.64" x2="555.62" y2="100.5"/>
    <polyline class="st4" points="551.54 87.38 551.05 87.32 552.06 81.01"/>
    <line class="st4" x1="552.74" y1="87.55" x2="555.25" y2="87.94"/>
    <line class="st4" x1="555.2" y1="81.44" x2="554.28" y2="87.79"/>
    <line class="st4" x1="556.36" y1="88.1" x2="558.28" y2="88.33"/>
    <line class="st4" x1="558.24" y1="81.85" x2="557.35" y2="88.22"/>
    <line class="st4" x1="559.45" y1="88.49" x2="560.76" y2="88.7"/>
    <line class="st4" x1="561.24" y1="82.26" x2="560.39" y2="88.64"/>
    <line class="st4" x1="561.82" y1="88.83" x2="564.39" y2="89.16"/>
    <line class="st4" x1="564.39" y1="82.69" x2="563.45" y2="89.04"/>
    <line class="st4" x1="565.46" y1="89.35" x2="566.85" y2="89.56"/>
    <line class="st4" x1="567.42" y1="83.11" x2="566.53" y2="89.51"/>
    <line class="st4" x1="568.04" y1="89.67" x2="569.75" y2="89.92"/>
    <path class="st4" d="M558.54,91.05l-1.69-.21c-.26,2.16-.52,4.32-.78,6.47"/>
    <line class="st4" x1="559.6" y1="91.27" x2="561.01" y2="91.45"/>
    <line class="st4" x1="559.1" y1="97.56" x2="560.03" y2="91.33"/>
    <line class="st4" x1="562.08" y1="91.61" x2="564.64" y2="91.91"/>
    <line class="st4" x1="562.2" y1="97.98" x2="563.09" y2="91.73"/>
    <line class="st4" x1="565.72" y1="92.07" x2="567.11" y2="92.26"/>
    <line class="st4" x1="565.3" y1="98.41" x2="566.11" y2="92.12"/>
    <line class="st4" x1="568.22" y1="92.41" x2="569.39" y2="92.54"/>
    <rect class="st3" x="539.28" y="105.03" width="4.59" height="2.66" transform="translate(17.51 -66.75) rotate(7.17)"/>
    <rect class="st3" x="547" y="77.85" width="7.93" height="2.9" transform="translate(16.87 -77.51) rotate(8.17)"/>
    <rect class="st3" x="540.74" y="121.13" width="7.93" height="2.9" transform="translate(22.95 -76.18) rotate(8.17)"/>
    <rect class="st3" x="568.45" y="82.5" width="1.52" height=".77" transform="translate(17.56 -80.07) rotate(8.17)"/>
    <rect class="st7" x="550.55" y="89.8" width=".57" height=".57" transform="translate(18.9 -78.98) rotate(8.34)"/>
    <text class="st0" transform="translate(538.72 119.26) rotate(9) skewX(5.98)"><tspan x="0" y="0">102</tspan></text>
    <text class="st0" transform="translate(547.77 120.54) rotate(9) skewX(5.98)"><tspan x="0" y="0">101</tspan></text>
    <text class="st1" transform="translate(548.11 117.38) rotate(9) skewX(5.98)"><tspan x="0" y="0">103</tspan></text>
    <text class="st0" transform="translate(539.1 116.09) rotate(9) skewX(5.98)"><tspan x="0" y="0">104</tspan></text>
    <text class="st0" transform="translate(539.67 113.01) rotate(9) skewX(5.98)"><tspan x="0" y="0">106</tspan></text>
    <text class="st0" transform="translate(548.66 114.35) rotate(9) skewX(5.98)"><tspan x="0" y="0">105</tspan></text>
    <text class="st0" transform="translate(551.04 99.06) rotate(9) skewX(5.98)"><tspan x="0" y="0">107</tspan></text>
    <text class="st1" transform="translate(543.16 88.63) rotate(9) skewX(5.98)"><tspan x="0" y="0">108</tspan></text>
    <text class="st0" transform="translate(543.66 85.48) rotate(9) skewX(5.98)"><tspan x="0" y="0">109</tspan></text>
    <text class="st0" transform="translate(544 82.3) rotate(9) skewX(5.98)"><tspan x="0" y="0">107</tspan></text>
    <text class="st0" transform="translate(552.76 82.42) rotate(100) skewX(5.98)"><tspan x="0" y="0">111</tspan></text>
    <text class="st0" transform="translate(555.91 82.89) rotate(100) skewX(5.98)"><tspan x="0" y="0">112</tspan></text>
    <text class="st0" transform="translate(558.93 83.37) rotate(100) skewX(5.98)"><tspan x="0" y="0">113</tspan></text>
    <text class="st0" transform="translate(562.06 83.89) rotate(100) skewX(5.98)"><tspan x="0" y="0">115</tspan></text>
    <text class="st0" transform="translate(564.94 84.33) rotate(100) skewX(5.98)"><tspan x="0" y="0">117</tspan></text>
    <text class="st0" transform="translate(568.2 84.84) rotate(100) skewX(5.98)"><tspan x="0" y="0">119</tspan></text>
    <text class="st0" transform="translate(557.57 92.41) rotate(100) skewX(5.98)"><tspan x="0" y="0">114</tspan></text>
    <text class="st0" transform="translate(560.54 92.88) rotate(100) skewX(5.98)"><tspan x="0" y="0">116</tspan></text>
    <text class="st1" transform="translate(563.77 93.29) rotate(100) skewX(5.98)"><tspan x="0" y="0">118</tspan></text>
    <polygon class="st6" points="596.42 97.17 611.71 99.32 606.18 139.44 590.93 137.4 596.42 97.17"/>
    <line class="st4" x1="602.59" y1="99.75" x2="602.85" y2="97.93"/>
    <path class="st4" d="M602.59,99.75"/>
    <line class="st4" x1="602.25" y1="102.23" x2="602.44" y2="100.86"/>
    <path class="st4" d="M602.25,102.23"/>
    <line class="st4" x1="601.73" y1="105.91" x2="602.07" y2="103.45"/>
    <path class="st4" d="M601.73,105.91"/>
    <line class="st4" x1="601.23" y1="109.51" x2="601.58" y2="106.97"/>
    <path class="st4" d="M601.23,109.51"/>
    <line class="st4" x1="600.6" y1="113.96" x2="600.97" y2="111.35"/>
    <path class="st4" d="M600.6,113.96"/>
    <line class="st4" x1="600.01" y1="118.2" x2="600.46" y2="115.01"/>
    <path class="st4" d="M600.01,118.2"/>
    <line class="st4" x1="599.66" y1="120.68" x2="599.86" y2="119.23"/>
    <path class="st4" d="M599.66,120.68"/>
    <path class="st4" d="M599.36,122.84c.05-.37.1-.74.15-1.1"/>
    <path class="st4" d="M599.34,122.95"/>
    <path class="st4" d="M598.29,130.46"/>
    <line class="st4" x1="597.95" y1="132.92" x2="598.14" y2="131.57"/>
    <path class="st4" d="M597.95,132.92"/>
    <line class="st4" x1="597.43" y1="136.59" x2="597.79" y2="134.04"/>
    <line class="st4" x1="597.19" y1="138.3" x2="597.27" y2="137.76"/>
    <line class="st4" x1="605.28" y1="99.55" x2="605.45" y2="98.31"/>
    <path class="st4" d="M605.28,99.55"/>
    <line class="st4" x1="604.95" y1="101.97" x2="605.12" y2="100.7"/>
    <path class="st4" d="M604.95,101.97"/>
    <line class="st4" x1="604.43" y1="105.72" x2="604.79" y2="103.12"/>
    <path class="st4" d="M604.43,105.72"/>
    <line class="st4" x1="604.14" y1="107.83" x2="604.29" y2="106.75"/>
    <path class="st4" d="M604.14,107.83"/>
    <path class="st4" d="M603.16,114.91"/>
    <line class="st4" x1="602.01" y1="123.27" x2="603.01" y2="116"/>
    <path class="st4" d="M602.01,123.27"/>
    <path class="st4" d="M601.55,126.56"/>
    <line class="st4" x1="601.06" y1="130.16" x2="601.4" y2="127.71"/>
    <path class="st4" d="M601.06,130.16"/>
    <line class="st4" x1="600.7" y1="132.75" x2="600.9" y2="131.33"/>
    <path class="st4" d="M600.7,132.75"/>
    <line class="st4" x1="600.21" y1="136.27" x2="600.55" y2="133.82"/>
    <path class="st4" d="M600.21,136.27"/>
    <line class="st4" x1="599.89" y1="138.64" x2="600.04" y2="137.54"/>
    <line class="st4" x1="595.98" y1="100.41" x2="602.37" y2="101.33"/>
    <line class="st4" x1="595.56" y1="103.45" x2="602.01" y2="104.32"/>
    <line class="st4" x1="595.14" y1="106.55" x2="601.52" y2="107.43"/>
    <line class="st4" x1="594.32" y1="112.59" x2="600.66" y2="113.53"/>
    <line class="st4" x1="593.89" y1="115.72" x2="600.23" y2="116.6"/>
    <line class="st4" x1="593.47" y1="118.81" x2="599.8" y2="119.72"/>
    <line class="st4" x1="593.03" y1="122.01" x2="599.36" y2="122.84"/>
    <polyline class="st4" points="596.45 126.46 596.56 125.97 595.59 124.87 592.64 124.85"/>
    <line class="st4" x1="596.05" y1="128.3" x2="596.15" y2="127.85"/>
    <polyline class="st4" points="592.22 127.94 598.53 128.73 598.29 130.46"/>
    <line class="st4" x1="591.8" y1="131.06" x2="598.08" y2="131.98"/>
    <line class="st4" x1="591.37" y1="134.15" x2="597.7" y2="135"/>
    <line class="st4" x1="606.63" y1="136.2" x2="600.34" y2="135.39"/>
    <line class="st4" x1="607.05" y1="133.15" x2="600.76" y2="132.31"/>
    <line class="st4" x1="607.47" y1="130.11" x2="601.18" y2="129.29"/>
    <polyline class="st4" points="607.91 126.91 601.63 126.03 601.55 126.56"/>
    <line class="st4" x1="608.3" y1="124.08" x2="602.01" y2="123.27"/>
    <line class="st4" x1="608.69" y1="121.22" x2="604.11" y2="120.59"/>
    <line class="st4" x1="609.15" y1="117.89" x2="604.49" y2="117.2"/>
    <line class="st4" x1="603.68" y1="117.1" x2="602.88" y2="116.97"/>
    <polyline class="st4" points="609.58 114.77 603.3 113.88 603.16 114.91"/>
    <line class="st4" x1="610.43" y1="108.6" x2="604.14" y2="107.83"/>
    <line class="st4" x1="610.85" y1="105.56" x2="604.57" y2="104.68"/>
    <line class="st4" x1="611.27" y1="102.51" x2="604.99" y2="101.67"/>
    <line class="st4" x1="598.03" y1="126.86" x2="598.03" y2="122.67"/>
    <line class="st4" x1="598.53" y1="128.73" x2="601.23" y2="128.94"/>
    <rect class="st3" x="602.88" y="96.68" width="5.86" height="1.59" transform="translate(19.73 -84.23) rotate(8.08)"/>
    <text class="st0" transform="translate(592.52 136.68) rotate(6.43) skewX(5.98)"><tspan x="0" y="0">101</tspan></text>
    <text class="st0" transform="translate(592.89 133.6) rotate(6.43) skewX(5.98)"><tspan x="0" y="0">103</tspan></text>
    <text class="st1" transform="translate(593.33 130.47) rotate(6.43) skewX(5.98)"><tspan x="0" y="0">105</tspan></text>
    <text class="st1" transform="translate(602.05 131.79) rotate(6.43) skewX(5.98)"><tspan x="0" y="0">104</tspan></text>
    <text class="st0" transform="translate(601.77 134.94) rotate(6.43) skewX(5.98)"><tspan x="0" y="0">102</tspan></text>
    <text class="st0" transform="translate(602.64 128.6) rotate(6.43) skewX(5.98)"><tspan x="0" y="0">106</tspan></text>
    <text class="st0" transform="translate(594.6 121.38) rotate(6.43) skewX(5.98)"><tspan x="0" y="0">107</tspan></text>
    <text class="st1" transform="translate(595.07 118.21) rotate(6.43) skewX(5.98)"><tspan x="0" y="0">108</tspan></text>
    <text class="st0" transform="translate(595.38 115.13) rotate(6.43) skewX(5.98)"><tspan x="0" y="0">109</tspan></text>
    <text class="st0" transform="translate(597.07 102.88) rotate(6.43) skewX(5.98)"><tspan x="0" y="0">111</tspan></text>
    <text class="st0" transform="translate(597.22 99.76) rotate(6.43) skewX(5.98)"><tspan x="0" y="0">112</tspan></text>
    <text class="st1" transform="translate(596.54 105.92) rotate(6.43) skewX(5.98)"><tspan x="0" y="0">110</tspan></text>
    <text class="st1" transform="translate(605.66 107) rotate(6.43) skewX(5.98)"><tspan x="0" y="0">114</tspan></text>
    <text class="st0" transform="translate(606.16 104.12) rotate(6.43) skewX(5.98)"><tspan x="0" y="0">113</tspan></text>
    <rect class="st3" x="603.38" y="123.85" width="4.74" height="2.63" transform="translate(23.55 -83.73) rotate(8.06)"/>
    <rect class="st3" x="594.19" y="138.37" width="5.54" height="1.47" transform="translate(23.26 -76.73) rotate(7.5)"/>
  </g>
</svg>