<?xml version="1.0" encoding="UTF-8"?>
<svg id="Discord.gg-_x40_marazm" xmlns="http://www.w3.org/2000/svg" version="1.1" viewBox="0 0 1065.77 567.3">
  <!-- Generator: Adobe Illustrator 29.8.3, SVG Export Plug-In . SVG Version: 2.1.1 Build 3)  -->
  <defs>
    <style>
      .st0, .st1 {
        font-family: FranklinGothic-Heavy, 'FranklinGothic Heavy';
        font-size: 2.13px;
        font-weight: 800;
      }

      .st2 {
        fill: #37414c;
      }

      .st3 {
        fill: #987f00;
      }

      .st1 {
        fill: #5d0000;
      }

      .st4 {
        fill: none;
        stroke: #333;
        stroke-miterlimit: 10;
      }

      .st4, .st5 {
        stroke-width: .25px;
      }

      .st6 {
        fill: #666;
      }

      .st7 {
        fill: #333;
      }

      .st5 {
        fill: #212121;
        stroke: #000;
        stroke-miterlimit: 3.39;
      }
    </style>
  </defs>
  <g id="_Слой_4">
    <g id="Second_Floor">
      <g id="Ladders-2">
        <path class="st3" d="M581.67,417.21l.66-.12.66-.12-.6-3.32-.57-3.1-1.32.23.57,3.1.6,3.34Z"/>
        <path id="ladder-11-2" class="st3" d="M987.49,400.43l-3.4-.35.15-1.44,3.4.35-.15,1.44Z"/>
        <path id="ladder-12-2" class="st3" d="M976,392.59l-3.19-.35.29-2.83,3.19.35-.29,2.83Z"/>
        <path id="ladder-13-2" class="st3" d="M932.76,386.01l-2.34-.29.61-4.86,2.34.29-.61,4.86Z"/>
        <path id="ladder-14-2" class="st3" d="M918.88,384.1l-2.28-.29.6-4.73,2.28.29-.6,4.73Z"/>
        <path id="ladder-15-2" class="st3" d="M927.6,338.71l5.75.77-.37,2.71-5.75-.77.37-2.71Z"/>
        <path id="ladder-16-2" class="st3" d="M929.5,326.26l5.29.72.37-2.65-5.29-.72-.37,2.65Z"/>
        <path id="ladder-17-2" class="st3" d="M697.45,323.39l-.75,5.03-5.65-.86.75-5.03,5.65.86Z"/>
        <path id="ladder-18-2" class="st3" d="M698.19,318.72l-.64,4.23-5.65-.86.64-4.23,5.65.86Z"/>
        <path id="ladder-19-2" class="st3" d="M570.55,400.62l-6.45,1.26.64,3.57,6.45-1.26-.64-3.57Z"/>
        <path id="ladder-20-3" class="st3" d="M575.93,366.65l4.84-.98.66,3.66-4.84.98-.66-3.66Z"/>
        <path id="ladder-21-2" class="st3" d="M460.35,426.57l4.17-.89.63,3.08-4.17.89-.63-3.08Z"/>
        <path id="ladder-22-7" class="st3" d="M475.57,353.01l-.32-1.53-3,.63.32,1.53,3-.63Z"/>
        <path id="ladder-23-2" class="st3" d="M173.13,375.27l-5.95-.2-.08,3,5.95.2.08-3Z"/>
        <path id="ladder-29-2" class="st3" d="M598.04,281.65l5.12-.93.81,4.41-5.12.93-.81-4.41Z"/>
        <path id="ladder-30-2" class="st3" d="M447.34,271.05l-3.51-.23-.31,4.73,3.51.23.31-4.73Z"/>
        <path id="ladder-31-2" class="st3" d="M950.75,317.26l-.7,4.64-2.6-.38.7-4.64,2.6.38h0Z"/>
        <path id="ladder-32-2" class="st3" d="M718.34,298.29l-1.49-.23-.51,3.26,1.49.23.51-3.26h0Z"/>
        <path id="ladder-37-2" class="st3" d="M452.11,407.45l4.73-.97-.29-1.43-4.73.97.29,1.43Z"/>
      </g>
      <g id="Buildings-2">
        <path class="st6" d="M450.25,431.91l2.39-.49,3.2-.64-.06-.31-.15-.7.08-.02.08-.02.15.7.06.31,2.47-.51,2.99-.61-.17-.84-.17-.84.37-.08.37-.08.67-.14.67-.14-.15-.78-.15-.78-1.96.4-2.6.52-.18-.93-.54-2.48s.05-.02.08-.02.06-.02.09-.02c.17.8.34,1.59.51,2.39l.18.87,3.34-.67,2.7-.55-1.95-9.62-1.95-9.62-2.7.55-3.34.67.15.72.15.72-.08.02-.08.02-.15-.72-.15-.72-.61.12-.08-.37-1.43.31.08.37-.93.2.44,2.21.54,2.65-.08.02-.08.02-.18-.89-2.91.6-2.68.54.41,2.02.61,3.03,2.68-.54,2.91-.6-.28-1.35-.28-1.35.08-.02.08-.02,1.59,7.85,1.06,5.24h-.14l-.78-3.8-1.3-6.42-2.91.6-2.68.54,1.59,7.85,1.1,5.64h0ZM457.27,421.7l-1.04-5.15c-.41-2.04-.83-4.06-1.24-6.1.03,0,.06-.02.11-.02.03,0,.06-.02.09-.02.4,2.04.8,4.08,1.2,6.1l1.04,5.15-.08.02-.08.02h0Z"/>
        <path class="st6" d="M567.7,423l.75-.14-1.56-8.52,10.33-1.88-.38-2.11.61-.11.21,1.16,10.54-1.95,1.75,9.45.64-.12-3.14-16.99-2.15.4-.98-5.15,2.18-.4-5.06-27.3-3.78.77-.72-3.65,3.83-.78-1.04-5.56-11.11,2.05,2.44,13.19-.64.12-2.41-13.21-11.06,2.02,6.88,37.66,4.21-.83.63,3.42-4.21.78,3.25,17.67h0ZM576.59,409.01l-4.47-24.42-1.73.31-.84-4.61,1.7-.31-.25-1.36.6-.11,3.74,20.23,6.93-1.27.93,5.04-6.91,1.27.95,5.12-.64.12h0ZM561.76,386.43l-.78-4.46,6.36-1.12.78,4.46-6.36,1.12h0Z"/>
        <g id="Streamers-2f">
          <path class="st6" d="M942.51,356.38l.92-6.47.8-5.76-2.93-.4-2.85-.4-.2,1.43-.29,2.01-.06-.02-.06-.02.29-2.01.2-1.43-6.59-.93.12-.89.11-.77-.51-.06-.77-.11-.11.75-.12.9-3.78-.51-.55,3.94-.74,5.18.6.09c.11.02.23.03.34.05-.02.05-.02.08-.02.12-.11-.02-.21-.03-.32-.05l-.6-.08-.25,1.76-.18,1.23,5.78.8,5.85.81.25-1.76.18-1.23-4.47-.61c-1.7-.23-3.42-.46-5.12-.67,0-.03.02-.05.02-.08,0-.02.02-.05.02-.06,1.7.23,3.42.46,5.12.69l4.47.61.2-1.39.28-2.05-2.68-.37-1.29-.18-.09.66c-.08.51-.14,1-.21,1.5-.02,0-.05-.02-.06-.02-.03,0-.06-.02-.08-.02l.23-1.56.11-.74,1.35.18,2.74.38.03-.23.03-.23.06.02.06.02-.57,4.15-.41,2.99,2.85.4,2.91.41h0Z"/>
          <path class="st6" d="M933.74,325.66l.12-.86.12-.86.31.06.28-2.04.31-2.22,4.18.58,3.1.43-.02.08-.02.06-3.02-.41-4.12-.57-.29,2.15-.28,1.98,5.27.72,4.17.57.28-1.96.29-2.13-.51-.08-.51-.08.02-.06.02-.06.57.08.58.08-.14,1.03-.11.8.32.05.35.05-.02.08-.02.06-.34-.05-.34-.05-.15,1.13-.17,1.16,1.35.2,1.35.2.17-1.18.15-1.13-.34-.05-.34-.05.02-.06.02-.06.43.06.43.06-.02.06,1.58.21.92.14.17-1.23.17-1.23-1.24-.17-1.24-.18-.05.29-.03.29-.2-.03.06-.44.06-.44.09-.72.09-.7-3.71-.52c-1.98-.26-3.94-.51-5.91-.77,0-.03.02-.06.02-.09s.02-.05.02-.08c1.96.26,3.94.54,5.91.8l3.71.51.51-3.62.25-1.64-8.75-1.21-8.75-1.21-.34,2.41-.41,2.85,3.19.43c1.24.18,2.48.37,3.72.57l-.02.06s-.02.05-.02.06c-.63-.09-1.27-.2-1.9-.29l-1.88-.26-.28,1.93-.35,2.3s-.05,0-.06-.02-.03,0-.06-.02c.11-.77.21-1.53.32-2.3l.28-1.93-1.75-.25-1.24-.17-.44,3.25-.46,3.31,1.24.17,1.75.25.11-.74.09-.67.06.02.06.02-.09.67-.11.74.46.06-.12.86-.12.86.75.11.49.02h0Z"/>
        </g>
        <path class="st6" d="M447.83,285.77l.35-4.67.35-4.67,1.07.08,2.18.17.29-3.92.29-3.92.03-.47.03-.47-2.48-.18-1.35-.11-.02.29-.02.29-.89-.06-.89-.06.03-.29.02-.29-3.16-.25-3.75-.28-.03.32-.03.32-.29-.02-.29-.03-.09,1.29-.09,1.29-.18,2.51-.18,2.51.32.03.25.02-.06.89-.06.89-.25-.02-.32-.03-.23,2.97-.23,2.97-.06.81-.06.81.38.03.2.02-.02.29-.02.29,3.75.28,3.16.25.03-.29.02-.29.89.06.89.06-.03.29-.02.29.29.03.28-.02h0ZM447.04,275.78l-3.51-.23.31-4.73,3.51.23-.31,4.73Z"/>
        <path class="st6" d="M545.76,296.25l43.39-7.91-.41-2.3,2.54-.46.43,2.31,7.25-1.32-.9-4.93,5.91-1.07-1.15-6.3-13.19,2.41,1.07,5.87-2.59.47-1.07-5.9-43.19,7.88.14.78,28.29-5.16,1.79,9.78-28.41,5.18.11.67h0ZM576.42,289.96l-1.79-9.78,2.64-.47,1.79,9.78-2.64.47h0Z"/>
        <path class="st6" d="M543.83,284.44l58.75-10.7-.11-.6-8.06,1.47-1.81-9.9,8.12-1.49-.09-.52-58.95,10.73.11.63,35.81-6.51,1.78,9.76-35.67,6.5.12.63h0ZM584.45,276.44l-1.81-9.9,2.42-.44,1.81,9.9-2.42.44Z"/>
        <g id="Big_red-2f">
          <g id="Big_red-2f-locked">
            <path class="st2" d="M169.1,363.05l-.03,1.16h.09v.26l-.02.26-.02.11-.02.11h-.06l-.06,2.1-.06,2.1h.09l-.02.37-.02.37h-.09l-.06,2.02-.06,2.02-.66-.02-.66-.02.17-6.01.17-6.01.66.02.66.02-.02,1.13h0Z"/>
          </g>
          <path class="st6" d="M173.41,368.1h0l-.08,2.97-.08,2.96-2.15-.06-2.15-.06.05-2.02.05-2.02h-.06l.02-.37.02-.37h.06l.02-.11.02-.11.02-.48.02-.48,2.13.06,2.13.08h0Z"/>
          <path class="st6" d="M173.5,364.98l-.09,2.96-2.13-.06-2.13-.06.05-1.43.05-1.43-.02-.03-.02-.03h.03l.05.09.05.09.03-.15.03-.15h.03l.14.06.14.06-.03-.06-.03-.06-.05-.06-.05-.06v-.03l.14-.05.14-.05h0l-.14-.05-.14-.05v-.03l.08-.11.08-.11.02-.02.02-.02-.08.03-.08.03-.06.03-.06.03h0l-.02-.15-.02-.15-.05.08-.05.08h-.03l.02-.03.02-.03.03-1.07.03-1.07,2.15.06,2.15.06-.18,2.93h0Z"/>
          <path class="st6" d="M168.84,378.14l.08-2.87,4.64.11.03-1.16-4.8-.12v-.18l-1.33-.03v.18h-.15l.35-12.33,6.21.17h0l.2-5.84-10.85-.34-.11,2.85,2.85.12-.54,19.34,3.42.11h0Z"/>
        </g>
        <path class="st6" d="M475.96,353.33l-.46-2.21,11.49-2.39.46,2.21-11.49,2.39Z"/>
        <path class="st6" d="M695.7,328.26l.8-5.01,6.45.97-1.23,7.78-4.17-.63-.06.46,4.63.7,1.32-8.55,1.36.21-1.53,10.14-3.31-.48-3.91,25.44-9.61-1.47,4.12-27.03,4.27.66.08-.48-4.27-.67.43-2.74,4.63.69h0Z"/>
        <path class="st6" d="M697.25,318.55l-.66,4.29,3.68.58.15-1.03.49.08-.15,1.06,2.44.37.95-6.02-6.67-1.03-.23,1.38,4.26.66-.29,1.81-.51-.08.23-1.49-3.69-.58h0Z"/>
        <path class="st6" d="M724.88,297.31l-.67,4.57-3.95-.63.31-2.1-.31-.05-.6,3.91.31.05.25-1.5,3.95.63-.55,3.57-3.92-.63.08-.52-.32-.05-.12.89,4.24.67-.17,1.15-6.11-.95,1.21-7.98-1.64-.26.17-1.33,1.62.26.11-.64,1.88.28-.15,1.06.29.05.15-1.06,3.95.63h0Z"/>
        <path class="st6" d="M989.84,402.47l1.64-15.35-11.74-1.24-.02.21-.29-.03.02-.21-11.03-1.16-.41,3.88,2.28.25-.03.32-2.27-.25-.2,1.87,3.51.38-.8,7.55-3.52-.38-.18,1.75,23.05,2.42h0ZM987.48,400.45l-15.43-1.62.8-7.55,2.15.21.21-1.9-3.23-.35.03-.31,7.05.75.25-2.11.32.03-.03.25,8.24.87-.81,7.42.9.09-.44,4.23h0Z"/>
        <path class="st6" d="M932.87,384.77l.46-3.59,7.48.93-1.27,10.08-7.46-.93.18-1.49,6.05.77.92-7.31-4.7-.6-.87,6.9-1.36-.17.58-4.6h0Z"/>
        <path class="st6" d="M955.15,260.42l-4.73,5.56-5.55-4.69,4.73-5.56,5.55,4.69Z"/>
        <path class="st6" d="M919.06,382.9l.46-3.59,7.48.93-1.27,10.08-7.46-.93.18-1.49,6.05.77.92-7.31-4.7-.6-.87,6.9-1.36-.17.58-4.6h0Z"/>
      </g>
    </g>
    <polygon class="st6" points="434.15 329.66 433.98 328.83 437.99 328.11 438.7 331.42 434.65 332.37 434.3 330.5 434.07 330.58 434.78 334.32 427.82 335.76 427.51 333.96 429.75 333.58 428.95 329.87 433.67 328.92 433.86 329.7 434.15 329.66"/>
    <polygon class="st3" points="434.78 334.32 439.22 333.32 438.91 331.67 434.46 332.62 434.78 334.32"/>
    <polygon class="st3" points="427.82 335.76 427.51 333.96 431.96 333.17 432.26 334.84 427.82 335.76"/>
    <polygon class="st6" points="421.4 337.17 424.94 336.45 423.82 330.61 420.17 331.28 421.4 337.17"/>
    <polygon class="st6" points="423.59 306.17 426.03 317.83 421.86 318.69 421.74 318.03 421.32 318.12 421.46 318.78 408.93 321.2 409.02 321.69 415.61 320.36 415.78 321.14 416.28 321.08 416.18 320.28 421.49 319.24 422.49 324.39 417.06 325.54 416.39 322.01 416.04 322.07 416.18 322.87 413.11 323.44 413.19 323.84 416.28 323.22 416.79 325.54 411.38 326.75 410.83 324.39 412.36 324.1 412.25 323.67 410.26 324.19 411.04 326.93 405.54 328.19 404.88 325.55 406.91 325.2 406.8 324.71 396.18 326.96 395.6 324.28 399.6 323.61 399.49 323.21 395.44 323.99 394.34 318.5 402.91 316.8 404.06 322.3 400.45 322.99 400.53 323.36 406.77 322.09 406.69 321.66 404.41 322.21 403.21 316.74 408.93 315.58 409.4 318.63 409.8 318.52 409.13 315.52 420.31 313.4 420.97 316.85 421.52 316.74 419.19 307.1 423.59 306.17"/>
    <polygon class="st3" points="406 330.18 407.26 329.92 406.75 327.94 409.31 327.31 409.07 326.12 405.31 326.88 406 330.18"/>
    <polygon class="st3" points="423.61 322.26 425.02 322 424.19 318.06 422.76 318.38 423.61 322.26"/>
    <polygon class="st3" points="473.91 322.27 475.5 321.98 474.85 319.01 473.27 319.28 473.91 322.27"/>
    <polygon class="st6" points="489.13 319.16 490.49 318.9 489.83 315.79 488.5 316.1 489.13 319.16"/>
    <polygon class="st6" points="473.27 319.28 471.54 310.67 473.02 310.41 474.85 319.01 473.27 319.28"/>
    <polygon class="st6" points="488.5 316.1 486.78 307.62 488.1 307.39 489.83 315.79 488.5 316.1"/>
    <polygon class="st6" points="624.38 267.22 629.91 268.38 629.53 270.3 631.58 270.83 631.23 272.26 636.18 273.33 629.47 304.56 617.12 301.92 624.38 267.22"/>
    <polygon class="st6" points="637.13 274.28 637.94 270.45 654.44 274.16 653.77 277.7 637.13 274.28"/>
    <polygon class="st6" points="633.63 291.49 635.64 291.92 636.42 287.21 634.63 286.85 633.63 291.49"/>
    <polygon class="st6" points="640.91 296.13 649.51 298 648.86 301.27 648.47 301.2 648.28 301.82 648.82 301.97 647.48 308.42 643.53 307.62 640.62 321 643.61 321.63 643.73 321.25 642.03 320.89 642.35 319.48 645.2 320.08 644.54 323.21 640.44 322.3 640.34 322.61 644.47 323.61 640.25 343.52 622.8 339.82 627.66 316.34 638.61 318.72 641.05 307.26 630.34 305 631.78 298.2 646.84 301.43 646.93 300.81 640.08 299.43 640.91 296.13"/>
    <polygon class="st3" points="640.62 321 640.44 322.3 644.54 323.21 645.2 320.08 642.35 319.48 642.03 320.89 643.73 321.25 643.61 321.63 640.62 321"/>
    <polygon class="st3" points="636.9 323.04 637.98 318.59 627.66 316.34 625.48 327.45 630.77 328.55 632.13 322 636.9 323.04"/>
    <polygon class="st3" points="640.08 299.43 641.08 299.63 641.45 298.08 640.47 297.86 640.08 299.43"/>
    <path class="st3" d="M638.7,289.08c.09-.43.18-.87.28-1.3l-3.66-.8c-.09.47-.18.97-.28,1.44,1.23.23,2.44.44,3.66.66h0Z"/>
    <polygon class="st3" points="627.8 271.39 631.43 272.17 632.02 269.32 628.35 268.54 627.8 271.39"/>
    <polygon class="st3" points="647.64 274.4 647.96 272.7 651.47 273.49 651.15 275.06 647.64 274.4"/>
    <polygon class="st3" points="645.78 273.88 646.12 272.29 641.69 271.29 641.34 272.93 645.78 273.88"/>
    <polygon class="st3" points="421.29 314.37 422.86 314.03 422.21 310.6 420.6 310.98 421.29 314.37"/>
    <polygon class="st3" points="424.47 318.07 425.87 317.75 426.66 321.67 425.25 321.94 424.47 318.07"/>
    <polygon class="st3" points="420.68 331.1 422.55 330.73 422.41 330.07 420.45 330.47 420.68 331.1"/>
    <polygon class="st3" points="635.86 290.25 635.61 291.81 639.21 292.45 639.44 290.92 635.86 290.25"/>
    <polygon class="st3" points="489.14 319.48 490.74 319.19 490.08 316.22 488.5 316.5 489.14 319.48"/>
    <path class="st7" d="M625.33,292.96c-1.39,0-2.54-1.15-2.54-2.57s1.13-2.57,2.54-2.57,2.54,1.15,2.54,2.57-1.13,2.57-2.54,2.57Z"/>
    <path class="st7" d="M627,284.95c-1.39,0-2.54-1.15-2.54-2.57s1.13-2.57,2.54-2.57,2.54,1.15,2.54,2.57-1.13,2.57-2.54,2.57Z"/>
    <path class="st7" d="M623.72,300.58c-1.39,0-2.54-1.15-2.54-2.57s1.13-2.57,2.54-2.57,2.54,1.15,2.54,2.57-1.15,2.57-2.54,2.57Z"/>
  </g>
  <path class="st5" d="M560.56,567.17c.27-.06.48-.39.4-.67-.08-.27-.42-.38-.66-.25-.18.09-.34.33-.28.58.06.26.33.39.54.34Z"/>
  <path class="st5" d="M.68,359.45c.27-.06.48-.39.4-.67-.08-.27-.42-.38-.66-.25-.18.09-.34.33-.28.58.06.26.33.39.54.34Z"/>
  <path class="st5" d="M1065.23,301.23c.27-.06.48-.39.4-.67-.08-.27-.42-.38-.66-.25-.18.09-.34.33-.28.58.06.26.33.39.54.34Z"/>
  <path class="st5" d="M593.97,1.1c.27-.06.48-.39.4-.67-.08-.27-.42-.38-.66-.25-.18.09-.34.33-.28.58.06.26.33.39.54.34Z"/>
  <g>
    <path class="st6" d="M537.36,119.95c5.08.7,10.16,1.4,15.24,2.1,1.16-8.3,2.33-16.61,3.49-24.91,4.15.57,8.29,1.14,12.44,1.71.7-5.1,1.39-10.21,2.09-15.31-9.2-1.26-18.4-2.51-27.6-3.77-1.89,13.39-3.77,26.79-5.66,40.18Z"/>
    <path class="st4" d="M543.67,120.82c.05-.35.11-.7.16-1.06"/>
    <line class="st4" x1="544.01" y1="118.64" x2="544.37" y2="116.05"/>
    <line class="st4" x1="544.52" y1="114.96" x2="544.7" y2="113.67"/>
    <line class="st4" x1="544.89" y1="112.49" x2="545.16" y2="109.92"/>
    <polyline class="st4" points="545.35 108.85 545.45 108.27 539.11 107.53"/>
    <line class="st4" x1="538.68" y1="110.68" x2="544.99" y2="111.5"/>
    <line class="st4" x1="538.23" y1="113.76" x2="544.58" y2="114.57"/>
    <line class="st4" x1="537.8" y1="116.78" x2="544.15" y2="117.67"/>
    <path class="st4" d="M546.3,121.19c.04-.19.08-.39.12-.58"/>
    <line class="st4" x1="546.65" y1="118.95" x2="546.91" y2="117.04"/>
    <line class="st4" x1="547.07" y1="115.97" x2="547.26" y2="114.57"/>
    <polyline class="st4" points="547.38 113.52 547.6 111.81 553.92 112.66"/>
    <line class="st4" x1="553.47" y1="115.86" x2="547.21" y2="114.96"/>
    <line class="st4" x1="553.05" y1="118.88" x2="546.79" y2="117.95"/>
    <line class="st4" x1="539.93" y1="101.69" x2="544.48" y2="102.34"/>
    <polyline class="st4" points="539.51 104.65 545.87 105.49 546.83 98.3"/>
    <line class="st4" x1="544.91" y1="99.05" x2="540.4" y2="98.4"/>
    <line class="st4" x1="545.85" y1="99.21" x2="546.69" y2="99.34"/>
    <line class="st4" x1="547.02" y1="97.1" x2="547.43" y2="93.99"/>
    <line class="st4" x1="540.84" y1="95.24" x2="547.15" y2="96.14"/>
    <line class="st4" x1="547.67" y1="92.18" x2="548.13" y2="89.17"/>
    <line class="st4" x1="541.69" y1="89.17" x2="547.98" y2="90.15"/>
    <line class="st4" x1="548.3" y1="87.89" x2="548.62" y2="85.44"/>
    <line class="st4" x1="542.12" y1="86.13" x2="548.42" y2="87"/>
    <line class="st4" x1="548.77" y1="84.25" x2="548.97" y2="83.13"/>
    <line class="st4" x1="542.55" y1="83.09" x2="548.83" y2="83.89"/>
    <line class="st4" x1="549.27" y1="81.74" x2="549.44" y2="80.65"/>
    <polyline class="st4" points="554.74 106.79 548.51 105.91 549.1 101.27"/>
    <path class="st4" d="M548.91,102.71"/>
    <path class="st4" d="M555.21,103.43"/>
    <path class="st4" d="M549.31,100.01c.06-.47.13-.94.19-1.41"/>
    <polyline class="st4" points="549.77 96.93 549.83 96.47 556.07 97.32"/>
    <line class="st4" x1="549.36" y1="99.64" x2="555.62" y2="100.5"/>
    <polyline class="st4" points="551.54 87.38 551.05 87.32 552.06 81.01"/>
    <line class="st4" x1="552.74" y1="87.55" x2="555.26" y2="87.95"/>
    <line class="st4" x1="555.2" y1="81.44" x2="554.29" y2="87.79"/>
    <line class="st4" x1="556.36" y1="88.1" x2="558.29" y2="88.33"/>
    <line class="st4" x1="558.24" y1="81.85" x2="557.35" y2="88.22"/>
    <line class="st4" x1="559.45" y1="88.49" x2="560.76" y2="88.7"/>
    <line class="st4" x1="561.24" y1="82.26" x2="560.39" y2="88.64"/>
    <line class="st4" x1="561.82" y1="88.83" x2="564.39" y2="89.16"/>
    <line class="st4" x1="564.4" y1="82.69" x2="563.45" y2="89.04"/>
    <line class="st4" x1="565.46" y1="89.35" x2="566.85" y2="89.56"/>
    <line class="st4" x1="567.42" y1="83.11" x2="566.53" y2="89.51"/>
    <line class="st4" x1="568.04" y1="89.67" x2="569.75" y2="89.92"/>
    <path class="st4" d="M558.54,91.05l-1.69-.21c-.26,2.16-.52,4.32-.78,6.47"/>
    <line class="st4" x1="559.6" y1="91.27" x2="561.01" y2="91.45"/>
    <line class="st4" x1="559.1" y1="97.56" x2="560.03" y2="91.33"/>
    <line class="st4" x1="562.08" y1="91.61" x2="564.64" y2="91.91"/>
    <line class="st4" x1="562.2" y1="97.98" x2="563.09" y2="91.73"/>
    <line class="st4" x1="565.72" y1="92.07" x2="567.11" y2="92.26"/>
    <line class="st4" x1="565.3" y1="98.41" x2="566.12" y2="92.12"/>
    <line class="st4" x1="568.22" y1="92.41" x2="569.39" y2="92.54"/>
    <rect class="st3" x="539.28" y="105.03" width="4.59" height="2.66" transform="translate(17.51 -66.75) rotate(7.17)"/>
    <rect class="st3" x="547" y="77.85" width="7.93" height="2.9" transform="translate(16.87 -77.51) rotate(8.17)"/>
    <rect class="st3" x="540.74" y="121.13" width="7.93" height="2.9" transform="translate(22.95 -76.18) rotate(8.17)"/>
    <rect class="st7" x="550.55" y="89.8" width=".57" height=".57" transform="translate(18.9 -78.98) rotate(8.34)"/>
    <text class="st0" transform="translate(538.73 119.26) rotate(9) skewX(5.98)"><tspan x="0" y="0">202</tspan></text>
    <text class="st0" transform="translate(547.77 120.54) rotate(9) skewX(5.98)"><tspan x="0" y="0">201</tspan></text>
    <text class="st1" transform="translate(548.11 117.38) rotate(9) skewX(5.98)"><tspan x="0" y="0">203</tspan></text>
    <text class="st1" transform="translate(539.1 116.09) rotate(9) skewX(5.98)"><tspan x="0" y="0">204</tspan></text>
    <text class="st0" transform="translate(539.67 113.01) rotate(9) skewX(5.98)"><tspan x="0" y="0">206</tspan></text>
    <text class="st0" transform="translate(548.66 114.35) rotate(9) skewX(5.98)"><tspan x="0" y="0">205</tspan></text>
    <text class="st0" transform="translate(543.16 88.63) rotate(9) skewX(5.98)"><tspan x="0" y="0">210</tspan></text>
    <text class="st0" transform="translate(543.66 85.48) rotate(9) skewX(5.98)"><tspan x="0" y="0">212</tspan></text>
    <text class="st1" transform="translate(544.01 82.3) rotate(9) skewX(5.98)"><tspan x="0" y="0">214</tspan></text>
    <text class="st0" transform="translate(552.76 82.42) rotate(100) skewX(5.98)"><tspan x="0" y="0">213</tspan></text>
    <text class="st0" transform="translate(555.91 82.89) rotate(100) skewX(5.98)"><tspan x="0" y="0">215</tspan></text>
    <text class="st0" transform="translate(558.93 83.38) rotate(100) skewX(5.98)"><tspan x="0" y="0">217</tspan></text>
    <text class="st0" transform="translate(562.06 83.89) rotate(100) skewX(5.98)"><tspan x="0" y="0">219</tspan></text>
    <text class="st0" transform="translate(564.94 84.33) rotate(100) skewX(5.98)"><tspan x="0" y="0">221</tspan></text>
    <text class="st0" transform="translate(568.2 84.84) rotate(100) skewX(5.98)"><tspan x="0" y="0">223</tspan></text>
    <text class="st0" transform="translate(557.58 92.41) rotate(100) skewX(5.98)"><tspan x="0" y="0">216</tspan></text>
    <text class="st1" transform="translate(560.54 92.88) rotate(100) skewX(5.98)"><tspan x="0" y="0">218</tspan></text>
    <text class="st1" transform="translate(563.77 93.29) rotate(100) skewX(5.98)"><tspan x="0" y="0">220</tspan></text>
    <polygon class="st6" points="596.42 97.17 611.71 99.32 606.18 139.44 590.93 137.4 596.42 97.17"/>
    <line class="st4" x1="602.59" y1="99.75" x2="602.85" y2="97.93"/>
    <path class="st4" d="M602.59,99.75"/>
    <line class="st4" x1="602.25" y1="102.23" x2="602.44" y2="100.86"/>
    <path class="st4" d="M602.25,102.23"/>
    <line class="st4" x1="601.73" y1="105.91" x2="602.08" y2="103.45"/>
    <path class="st4" d="M601.73,105.91"/>
    <line class="st4" x1="601.23" y1="109.51" x2="601.58" y2="106.97"/>
    <path class="st4" d="M601.23,109.51"/>
    <line class="st4" x1="600.6" y1="113.96" x2="600.97" y2="111.35"/>
    <path class="st4" d="M600.6,113.96"/>
    <line class="st4" x1="600.01" y1="118.2" x2="600.46" y2="115.01"/>
    <path class="st4" d="M600.01,118.2"/>
    <line class="st4" x1="599.66" y1="120.68" x2="599.87" y2="119.23"/>
    <path class="st4" d="M599.66,120.68"/>
    <path class="st4" d="M599.36,122.84c.05-.37.1-.74.15-1.1"/>
    <path class="st4" d="M599.34,122.95"/>
    <path class="st4" d="M598.29,130.46"/>
    <line class="st4" x1="597.95" y1="132.92" x2="598.14" y2="131.57"/>
    <path class="st4" d="M597.95,132.92"/>
    <line class="st4" x1="597.43" y1="136.59" x2="597.79" y2="134.04"/>
    <line class="st4" x1="597.19" y1="138.3" x2="597.27" y2="137.76"/>
    <line class="st4" x1="605.28" y1="99.55" x2="605.45" y2="98.31"/>
    <path class="st4" d="M605.28,99.55"/>
    <line class="st4" x1="604.95" y1="101.97" x2="605.12" y2="100.7"/>
    <path class="st4" d="M604.95,101.97"/>
    <line class="st4" x1="604.43" y1="105.72" x2="604.79" y2="103.12"/>
    <path class="st4" d="M604.43,105.72"/>
    <line class="st4" x1="604.14" y1="107.83" x2="604.29" y2="106.75"/>
    <path class="st4" d="M604.14,107.83"/>
    <path class="st4" d="M603.16,114.91"/>
    <line class="st4" x1="602.01" y1="123.27" x2="603.01" y2="116"/>
    <path class="st4" d="M602.01,123.27"/>
    <path class="st4" d="M601.56,126.56"/>
    <line class="st4" x1="601.06" y1="130.16" x2="601.4" y2="127.71"/>
    <path class="st4" d="M601.06,130.16"/>
    <line class="st4" x1="600.7" y1="132.75" x2="600.9" y2="131.33"/>
    <path class="st4" d="M600.7,132.75"/>
    <line class="st4" x1="600.22" y1="136.27" x2="600.55" y2="133.82"/>
    <path class="st4" d="M600.22,136.27"/>
    <line class="st4" x1="599.89" y1="138.64" x2="600.04" y2="137.54"/>
    <line class="st4" x1="595.98" y1="100.41" x2="602.37" y2="101.33"/>
    <line class="st4" x1="595.56" y1="103.45" x2="602.01" y2="104.32"/>
    <line class="st4" x1="595.14" y1="106.55" x2="601.52" y2="107.43"/>
    <line class="st4" x1="594.32" y1="112.59" x2="600.66" y2="113.53"/>
    <line class="st4" x1="593.89" y1="115.72" x2="600.23" y2="116.6"/>
    <line class="st4" x1="593.47" y1="118.81" x2="599.8" y2="119.72"/>
    <polyline class="st4" points="592.22 127.94 598.53 128.73 598.29 130.46"/>
    <line class="st4" x1="591.8" y1="131.06" x2="598.08" y2="131.98"/>
    <line class="st4" x1="591.38" y1="134.15" x2="597.7" y2="135"/>
    <line class="st4" x1="606.63" y1="136.2" x2="600.34" y2="135.39"/>
    <line class="st4" x1="607.05" y1="133.15" x2="600.76" y2="132.31"/>
    <line class="st4" x1="607.47" y1="130.11" x2="601.18" y2="129.29"/>
    <polyline class="st4" points="607.91 126.91 601.63 126.03 601.56 126.56"/>
    <line class="st4" x1="608.3" y1="124.08" x2="602.01" y2="123.27"/>
    <line class="st4" x1="608.69" y1="121.22" x2="604.11" y2="120.59"/>
    <line class="st4" x1="609.15" y1="117.89" x2="604.49" y2="117.2"/>
    <line class="st4" x1="603.69" y1="117.1" x2="602.88" y2="116.97"/>
    <polyline class="st4" points="609.58 114.77 603.31 113.88 603.16 114.91"/>
    <line class="st4" x1="610.85" y1="105.56" x2="604.57" y2="104.68"/>
    <line class="st4" x1="611.27" y1="102.51" x2="604.99" y2="101.67"/>
    <rect class="st3" x="602.88" y="96.68" width="5.86" height="1.59" transform="translate(19.73 -84.23) rotate(8.08)"/>
    <text class="st0" transform="translate(592.52 136.68) rotate(6.43) skewX(5.98)"><tspan x="0" y="0">201</tspan></text>
    <text class="st0" transform="translate(592.89 133.6) rotate(6.43) skewX(5.98)"><tspan x="0" y="0">203</tspan></text>
    <text class="st0" transform="translate(593.33 130.47) rotate(6.43) skewX(5.98)"><tspan x="0" y="0">205</tspan></text>
    <text class="st0" transform="translate(602.06 131.79) rotate(6.43) skewX(5.98)"><tspan x="0" y="0">204</tspan></text>
    <text class="st0" transform="translate(601.77 134.94) rotate(6.43) skewX(5.98)"><tspan x="0" y="0">202</tspan></text>
    <text class="st1" transform="translate(602.64 128.6) rotate(6.43) skewX(5.98)"><tspan x="0" y="0">206</tspan></text>
    <text class="st0" transform="translate(594.61 121.38) rotate(6.43) skewX(5.98)"><tspan x="0" y="0">209</tspan></text>
    <text class="st0" transform="translate(595.07 118.21) rotate(6.43) skewX(5.98)"><tspan x="0" y="0">210</tspan></text>
    <text class="st0" transform="translate(595.38 115.13) rotate(6.43) skewX(5.98)"><tspan x="0" y="0">211</tspan></text>
    <text class="st0" transform="translate(597.07 102.88) rotate(6.43) skewX(5.98)"><tspan x="0" y="0">213</tspan></text>
    <text class="st0" transform="translate(597.22 99.76) rotate(6.43) skewX(5.98)"><tspan x="0" y="0">214</tspan></text>
    <text class="st0" transform="translate(596.54 105.92) rotate(6.43) skewX(5.98)"><tspan x="0" y="0">212</tspan></text>
    <text class="st0" transform="translate(605.66 107) rotate(6.43) skewX(5.98)"><tspan x="0" y="0">216</tspan></text>
    <text class="st0" transform="translate(606.16 104.12) rotate(6.43) skewX(5.98)"><tspan x="0" y="0">215</tspan></text>
    <rect class="st3" x="603.38" y="123.85" width="4.74" height="2.63" transform="translate(23.55 -83.73) rotate(8.06)"/>
    <rect class="st3" x="594.19" y="138.37" width="5.54" height="1.47" transform="translate(23.26 -76.73) rotate(7.5)"/>
    <line class="st4" x1="554.35" y1="109.62" x2="547.96" y2="108.85"/>
    <line class="st4" x1="547.89" y1="109.51" x2="548.12" y2="108.28"/>
    <path class="st4" d="M547.6,111.81c.05-.27.1-.54.15-.82"/>
    <path class="st4" d="M548.4,106.88c.04-.32.07-.64.11-.97"/>
    <path class="st4" d="M598.68,127.94c-.05.27-.1.53-.15.8"/>
    <line class="st4" x1="599.07" y1="124.84" x2="598.84" y2="126.77"/>
    <line class="st4" x1="592.64" y1="124.89" x2="598.96" y2="125.8"/>
    <polyline class="st4" points="599.23 123.69 599.36 122.84 593.03 122.01"/>
    <polyline class="st4" points="604.1 108.09 604.14 107.83 610.43 108.6"/>
    <line class="st4" x1="603.52" y1="112.31" x2="603.94" y2="109.25"/>
    <path class="st4" d="M603.52,112.31"/>
    <line class="st4" x1="603.31" y1="113.88" x2="603.35" y2="113.53"/>
    <line class="st4" x1="610.02" y1="111.59" x2="603.69" y2="110.86"/>
    <text class="st0" transform="translate(540.06 109.95) rotate(9) skewX(5.98)"><tspan x="0" y="0">208</tspan></text>
    <text class="st0" transform="translate(549.3 111.13) rotate(9) skewX(5.98)"><tspan x="0" y="0">207</tspan></text>
    <text class="st0" transform="translate(549.49 108.22) rotate(9) skewX(5.98)"><tspan x="0" y="0">209</tspan></text>
    <text class="st0" transform="translate(593.6 127.22) rotate(6.43) skewX(5.98)"><tspan x="0" y="0">207</tspan></text>
    <text class="st0" transform="translate(594.14 124.45) rotate(6.43) skewX(5.98)"><tspan x="0" y="0">208</tspan></text>
    <text class="st0" transform="translate(605.37 110.25) rotate(6.43) skewX(5.98)"><tspan x="0" y="0">217</tspan></text>
    <text class="st0" transform="translate(604.95 113.31) rotate(6.43) skewX(5.98)"><tspan x="0" y="0">218</tspan></text>
  </g>
</svg>