<?xml version="1.0" encoding="UTF-8"?>
<svg id="Discord.gg-_x40_marazm" xmlns="http://www.w3.org/2000/svg" version="1.1" viewBox="0 0 1065.77 567.3">
  <!-- Generator: Adobe Illustrator 29.8.3, SVG Export Plug-In . SVG Version: 2.1.1 Build 3)  -->
  <defs>
    <style>
      .st0 {
        fill: #987f00;
      }

      .st1 {
        fill: #666;
      }

      .st2 {
        fill: #212121;
        stroke: #000;
        stroke-miterlimit: 3.39;
        stroke-width: .25px;
      }
    </style>
  </defs>
  <g id="_Слой_2">
    <path class="st1" d="M710.35,352.04l7.91-52.66-16.59-2.5-7.91,52.66,7.49,1.1v-.2l.2-.8h.8c0,.09.8.2.8.2v.8c-.09,0-.2.2-.2.2l7.49,1.1.02.09h0ZM703.94,343.86h-.8c0-.09-.8-.31-.8-.31v-.8c.09,0,.2-.8.2-.8h.8c0,.09.8.2.8.2h0v.8c-.09,0-.2.8-.2.8v.11h0ZM705.15,336.18h-.8c0-.09-.8-.31-.8-.31v-.8c.09,0,.2-.8.2-.8h.8c0,.09.8.31.8.31v.8c-.11,0-.2.8-.2.8ZM706.35,328.49h-.8c0-.09-.8-.31-.8-.31v-.8c.09,0,.2-.8.2-.8h.8c0,.09.8.2.8.2v.8c-.09,0-.31.8-.31.8l.11.11h0ZM707.54,320.72h-.8c0-.09-.8-.31-.8-.31v-.8c.09,0,.2-.8.2-.8h.8c0,.09.8.31.8.31v.8c-.09,0-.2.8-.2.8ZM708.64,313.04h-.8c0-.11-.8-.2-.8-.2v-.8c.09,0,.2-.8.2-.8h.8c0,.11.8.2.8.2v.8c-.09,0-.31.8-.31.8h.11ZM709.84,305.35h-.8c0-.11-.8-.31-.8-.31v-.8c.09,0,.2-.8.2-.8h.8c0,.11.8.31.8.31v.8c-.09,0-.2.8-.2.8ZM570.74,420.24l2.8-.51-1.9-10.47h-.6c0,.09,0-.09,0-.09l5-.9h.6c0-.09-.2-1-.2-1h.2l2.9,14.07,10.8-1.9-3.6-17.76-10.8,1.9.4,1.99h-.2l-.51-1.99-8,1.5v-.2h.4v-.7c-.09,0-3.4.6-3.4.6v.7h.6v.2h-.4l.9,4.58,3.69-.6v.2l-.6.09,1.9,10.47.02-.18h0ZM680.71,441.51c.67-.15,1.35-.32,2.01-.48l-.98-3.85c-1.16.28-2.33.57-3.51.84.14.55.28,1.09.41,1.64.48-.11.95-.21,1.44-.32.21.74.43,1.46.63,2.16h0ZM1000.14,393.01c.78.11,1.56.21,2.34.32.06-.7.14-1.41.2-2.11l-2.91-.38c-.02-.17-.02-.35-.03-.52-3.86-.46-7.74-.93-11.6-1.39l-.4,3.29c3.89.49,7.78,1,11.68,1.5,0-.23.02-.46.02-.69l.7-.02h0ZM838.35,377.86l2.5.31.23-2.18-3.02-.11v-.78c-3.63-.34-7.26-.67-10.91-1.01l-.4,2.99,11,1.3v-.6c.18.02.4.05.6.08h0Z"/>
    <path class="st0" d="M570.39,400.67l-6.5,1.3.6,3.59,6.5-1.3-.6-3.59ZM1001.27,400.47l-2.1-.31,1-7.08,2.1.31-1,7.08ZM839.88,385.5l-2.5-.31.9-7.28,2.5.31-.9,7.28ZM713.18,315.01c.2,1.39-3.6.7-3.4-.51.31-2.19,1.1-4.69,1-7.39,0-1.3,3.29-.8,3.4.51l-1,7.39Z"/>
    <path class="st0" d="M701.08,342.75c.72-.06,1.09-.11,1.41.02.49.18.41.43.86.6.58.2.86-.14,1.41.03.52.17.8.66.84.75.44.8-.23,1.32-.15,2.64.08,1.3.8,1.64.51,2.47-.18.54-.69,1-1.24,1.12-.83.18-1.56-.43-2.07-.84-.84-.7-.69-1.07-1.52-1.59-.57-.35-1.3-.67-1.3-.67-.58-.26-.74-.26-.86-.46-.18-.28-.09-.74.11-1.65.17-.83.26-.86.26-1.27,0-.25-.05-.41.06-.6.08-.11.2-.21.75-.35.49-.12.87-.17.93-.17h0Z"/>
    <path class="st0" d="M493.17,322.67c.11.44.2.87.31,1.32l-2.44.55-.31-1.33"/>
    <path class="st1" d="M491.04,324.55l-2.94.66-.29-1.38,1.18-.18-.08-.44-4.67.81-.67-3.13,3.54-.77-.95-4.27c.38-.08.77-.14,1.16-.21-.57-2.5-1.15-5.01-1.72-7.52l-10.79,2.16-.61-2.7,12.93-2.77,1.69,10.45c.15-.03.29-.06.44-.09l1.59,7.65-1.26.25.06.43,1.09-.18.29,1.26h0Z"/>
    <polygon class="st0" points="487.31 315.63 488.83 315.27 487.6 307.65 485.6 308.13 487.31 315.63"/>
  </g>
  <path class="st2" d="M560.56,567.17c.27-.06.48-.39.4-.67-.08-.27-.42-.38-.66-.25-.18.09-.34.33-.28.58.06.26.33.39.54.34Z"/>
  <path class="st2" d="M.68,359.45c.27-.06.48-.39.4-.67-.08-.27-.42-.38-.66-.25-.18.09-.34.33-.28.58.06.26.33.39.54.34Z"/>
  <path class="st2" d="M1065.23,301.23c.27-.06.48-.39.4-.67-.08-.27-.42-.38-.66-.25-.18.09-.34.33-.28.58.06.26.33.39.54.34Z"/>
  <path class="st2" d="M593.97,1.1c.27-.06.48-.39.4-.67-.08-.27-.42-.38-.66-.25-.18.09-.34.33-.28.58.06.26.33.39.54.34Z"/>
</svg>