<?xml version="1.0" encoding="UTF-8"?>
<svg id="Discord.gg-_x40_marazm" xmlns="http://www.w3.org/2000/svg" version="1.1" viewBox="0 0 1066.02 567.55">
  <!-- Generator: Adobe Illustrator 29.8.3, SVG Export Plug-In . SVG Version: 2.1.1 Build 3)  -->
  <defs>
    <style>
      .st0, .st1 {
        font-family: FranklinGothic-Heavy, 'FranklinGothic Heavy';
        font-size: 2.13px;
        font-weight: 800;
      }

      .st2 {
        fill: #987f00;
      }

      .st1 {
        fill: #5d0000;
      }

      .st3 {
        fill: none;
        stroke: #333;
        stroke-miterlimit: 10;
      }

      .st3, .st4 {
        stroke-width: .25px;
      }

      .st5 {
        fill: #666;
      }

      .st6 {
        fill: #333;
      }

      .st7 {
        stroke-width: .5px;
      }

      .st7, .st4 {
        fill: #212121;
        stroke: #000;
        stroke-miterlimit: 3.39;
      }
    </style>
  </defs>
  <g id="_Слой_5">
    <path class="st5" d="M641.07,299.75l-2.8-.66,1.78-9.67-1.13-.2.31-1.27.98.17.08-.37-5.53-1.2.31-2.04.32.08.14-.64-.29-.11,1.85-8.52.34.06.15-.81-.37-.06.95-3.89,4.8,1.15-.78,4.03-3.05-.69-.09.46,14.1,3.02-1.75,8.81-8.61-1.81c-.06.18-.12.38-.17.57-.51-.12-1.01-.23-1.52-.35.06-.21.12-.44.17-.66l-.35-.09.51-2.48,1.55.29.84-3.97-4.93-1-1.29,6.5-.37-.06-.06.51,5.88,1.29-2.45,12.14.78.21-.28,1.27h0Z"/>
    <polygon class="st2" points="645.91 274.01 646.24 272.46 642.25 271.57 641.92 273.15 645.91 274.01"/>
    <polygon class="st2" points="639.89 289.45 640.15 288.07 636.79 287.4 636.48 288.79 639.89 289.45"/>
    <polygon class="st2" points="640.21 299.55 640.54 298.26 641.36 298.48 641.07 299.75 640.21 299.55"/>
    <polygon class="st2" points="643.32 321.26 643.59 319.84 638.55 318.8 637.91 321.8 644.94 323.33 645.4 320.88 644.02 320.64 643.82 321.72 640.7 321.2 640.77 320.82 643.32 321.26"/>
    <polygon class="st5" points="624.5 267.34 637.25 270.04 629.68 304.82 616.99 302.09 624.5 267.34"/>
    <polygon class="st2" points="631.54 272.32 632.15 269.44 628.62 268.66 628.06 271.57 631.54 272.32"/>
    <polygon class="st5" points="493.05 300.42 464.3 306.49 469.12 329.26 470.95 328.88 466.63 307.99 470.13 307.26 473.93 326.18 475.93 325.75 471.89 306.86 478 305.68 481.85 324.6 484.18 324.13 480.06 305.17 485.28 304.06 489.23 323.1 491.23 322.61 487.3 303.69 491.38 302.85 495.29 321.68 497.88 323.41 493.05 300.42"/>
    <polygon class="st5" points="470.39 326.87 495.5 321.66 497.88 323.41 470.77 328.92 470.39 326.87"/>
    <polygon class="st5" points="483.86 322.67 486.2 322.18 486.55 323.52 484.1 324.02 483.86 322.67"/>
    <polygon class="st2" points="489.23 323.01 488.65 320.16 485.82 320.7 486.49 323.59 489.23 323.01"/>
    <polygon class="st5" points="467.83 322.76 467.4 322.9 467.72 324.08 461.82 325.28 460.17 317.33 465.99 316.11 467.23 321.94 467.65 321.86 467.83 322.76"/>
    <path class="st6" d="M627.12,285.07c-1.39,0-2.54-1.15-2.54-2.57s1.13-2.57,2.54-2.57,2.54,1.15,2.54,2.57-1.15,2.57-2.54,2.57Z"/>
    <path class="st6" d="M625.45,293.09c-1.39,0-2.54-1.15-2.54-2.57s1.13-2.57,2.54-2.57,2.54,1.15,2.54,2.57-1.13,2.57-2.54,2.57Z"/>
    <path class="st6" d="M623.84,300.7c-1.39,0-2.54-1.15-2.54-2.57s1.13-2.57,2.54-2.57,2.54,1.15,2.54,2.57-1.15,2.57-2.54,2.57Z"/>
    <polygon class="st5" points="426.27 321.95 422.83 322.52 425.39 336.37 444.55 332.46 443.54 327.01 443.05 327.09 442.82 325.98 441.75 326.27 441.84 327.01 430.63 329.23 430.44 328.4 429.29 328.73 429.45 329.55 427.85 329.81 426.27 321.95"/>
    <polygon class="st5" points="428.37 323.81 441.9 321.14 442.96 326.64 441.8 326.67 441.58 325.25 430.17 327.62 430.52 328.74 429.34 329.03 428.37 323.81"/>
    <polygon class="st2" points="423.7 322.38 422.89 318.51 424.31 318.18 425.14 322.14 423.7 322.38"/>
    <polygon class="st2" points="427.94 335.85 427.64 334.07 431.41 333.4 431.74 335.07 427.94 335.85"/>
  </g>
  <path class="st7" d="M560.69,567.29c.27-.06.48-.39.4-.67-.08-.27-.42-.38-.66-.25-.18.09-.34.33-.28.58.06.26.33.39.54.34Z"/>
  <path class="st7" d="M.8,359.58c.27-.06.48-.39.4-.67-.08-.27-.42-.38-.66-.25-.18.09-.34.33-.28.58.06.26.33.39.54.34Z"/>
  <path class="st7" d="M1065.35,301.36c.27-.06.48-.39.4-.67-.08-.27-.42-.38-.66-.25-.18.09-.34.33-.28.58.06.26.33.39.54.34Z"/>
  <path class="st7" d="M594.1,1.22c.27-.06.48-.39.4-.67-.08-.27-.42-.38-.66-.25-.18.09-.34.33-.28.58.06.26.33.39.54.34Z"/>
  <path class="st4" d="M560.69,567.29c.27-.06.48-.39.4-.67-.08-.27-.42-.38-.66-.25-.18.09-.34.33-.28.58.06.26.33.39.54.34Z"/>
  <path class="st4" d="M560.69,567.29c.27-.06.48-.39.4-.67-.08-.27-.42-.38-.66-.25-.18.09-.34.33-.28.58.06.26.33.39.54.34Z"/>
  <path class="st4" d="M.8,359.58c.27-.06.48-.39.4-.67-.08-.27-.42-.38-.66-.25-.18.09-.34.33-.28.58.06.26.33.39.54.34Z"/>
  <path class="st4" d="M1065.35,301.36c.27-.06.48-.39.4-.67-.08-.27-.42-.38-.66-.25-.18.09-.34.33-.28.58.06.26.33.39.54.34Z"/>
  <path class="st4" d="M594.1,1.22c.27-.06.48-.39.4-.67-.08-.27-.42-.38-.66-.25-.18.09-.34.33-.28.58.06.26.33.39.54.34Z"/>
  <g>
    <path class="st5" d="M537.48,120.08c5.08.7,10.16,1.4,15.24,2.1,1.16-8.3,2.33-16.61,3.49-24.91,4.15.57,8.29,1.14,12.44,1.71.7-5.1,1.39-10.21,2.09-15.31-9.2-1.26-18.4-2.51-27.6-3.77-1.89,13.39-3.77,26.79-5.66,40.18Z"/>
    <path class="st3" d="M543.8,120.95c.05-.35.11-.7.16-1.06"/>
    <line class="st3" x1="544.14" y1="118.77" x2="544.5" y2="116.18"/>
    <line class="st3" x1="544.64" y1="115.08" x2="544.83" y2="113.79"/>
    <line class="st3" x1="545.01" y1="112.61" x2="545.29" y2="110.04"/>
    <polyline class="st3" points="545.47 108.97 545.57 108.39 539.23 107.65"/>
    <line class="st3" x1="538.8" y1="110.81" x2="545.12" y2="111.63"/>
    <line class="st3" x1="538.35" y1="113.89" x2="544.7" y2="114.7"/>
    <line class="st3" x1="537.93" y1="116.9" x2="544.27" y2="117.8"/>
    <path class="st3" d="M546.42,121.31c.04-.19.08-.39.12-.58"/>
    <line class="st3" x1="546.77" y1="119.07" x2="547.03" y2="117.17"/>
    <line class="st3" x1="547.19" y1="116.09" x2="547.39" y2="114.7"/>
    <polyline class="st3" points="547.51 113.64 547.73 111.93 554.04 112.79"/>
    <line class="st3" x1="553.59" y1="115.99" x2="547.33" y2="115.08"/>
    <line class="st3" x1="553.17" y1="119" x2="546.91" y2="118.07"/>
    <line class="st3" x1="540.05" y1="101.81" x2="544.61" y2="102.47"/>
    <polyline class="st3" points="539.64 104.77 545.99 105.61 546.95 98.42"/>
    <line class="st3" x1="545.03" y1="99.17" x2="540.52" y2="98.52"/>
    <line class="st3" x1="545.98" y1="99.34" x2="546.81" y2="99.47"/>
    <line class="st3" x1="547.14" y1="97.22" x2="547.56" y2="94.12"/>
    <line class="st3" x1="540.96" y1="95.36" x2="547.27" y2="96.27"/>
    <line class="st3" x1="547.79" y1="92.31" x2="548.25" y2="89.3"/>
    <line class="st3" x1="541.82" y1="89.3" x2="548.1" y2="90.27"/>
    <line class="st3" x1="548.43" y1="88.01" x2="548.74" y2="85.57"/>
    <line class="st3" x1="542.25" y1="86.25" x2="548.54" y2="87.13"/>
    <line class="st3" x1="548.89" y1="84.37" x2="549.1" y2="83.26"/>
    <line class="st3" x1="542.68" y1="83.21" x2="548.96" y2="84.02"/>
    <line class="st3" x1="549.39" y1="81.86" x2="549.56" y2="80.77"/>
    <path class="st3" d="M549.04,102.84"/>
    <path class="st3" d="M555.34,103.56"/>
    <path class="st3" d="M549.43,100.13c.06-.47.13-.94.19-1.41"/>
    <line class="st3" x1="549.48" y1="99.77" x2="555.75" y2="100.62"/>
    <path class="st3" d="M554.41,87.92"/>
    <path class="st3" d="M555.33,81.56"/>
    <rect class="st2" x="539.4" y="105.16" width="4.59" height="2.66" transform="translate(17.52 -66.77) rotate(7.17)"/>
    <rect class="st2" x="547.13" y="77.98" width="7.93" height="2.9" transform="translate(16.88 -77.52) rotate(8.17)"/>
    <rect class="st2" x="540.86" y="121.25" width="7.93" height="2.9" transform="translate(22.97 -76.19) rotate(8.17)"/>
    <rect class="st6" x="548.33" y="105.41" width=".57" height=".57" transform="translate(8.71 -38.01) rotate(4)"/>
    <text class="st0" transform="translate(547.89 120.67) rotate(9) skewX(5.98)"><tspan x="0" y="0">301</tspan></text>
    <text class="st1" transform="translate(548.23 117.51) rotate(9) skewX(5.98)"><tspan x="0" y="0">303</tspan></text>
    <text class="st0" transform="translate(539.22 116.22) rotate(9) skewX(5.98)"><tspan x="0" y="0">302</tspan></text>
    <text class="st0" transform="translate(539.79 113.13) rotate(9) skewX(5.98)"><tspan x="0" y="0">304</tspan></text>
    <text class="st0" transform="translate(548.78 114.48) rotate(9) skewX(5.98)"><tspan x="0" y="0">305</tspan></text>
    <text class="st1" transform="translate(543.29 88.76) rotate(9) skewX(5.98)"><tspan x="0" y="0">308</tspan></text>
    <text class="st0" transform="translate(543.79 85.61) rotate(9) skewX(5.98)"><tspan x="0" y="0">310</tspan></text>
    <polygon class="st5" points="596.54 97.3 611.84 99.44 606.3 139.57 591.06 137.52 596.54 97.3"/>
    <line class="st3" x1="602.72" y1="99.87" x2="602.97" y2="98.06"/>
    <path class="st3" d="M602.72,99.87"/>
    <line class="st3" x1="602.37" y1="102.35" x2="602.56" y2="100.99"/>
    <path class="st3" d="M602.37,102.35"/>
    <line class="st3" x1="601.85" y1="106.04" x2="602.2" y2="103.58"/>
    <path class="st3" d="M601.85,106.04"/>
    <line class="st3" x1="601.35" y1="109.63" x2="601.71" y2="107.09"/>
    <path class="st3" d="M601.35,109.63"/>
    <line class="st3" x1="600.73" y1="114.09" x2="601.09" y2="111.48"/>
    <path class="st3" d="M600.73,114.09"/>
    <line class="st3" x1="600.13" y1="118.32" x2="600.58" y2="115.13"/>
    <path class="st3" d="M600.13,118.32"/>
    <line class="st3" x1="599.79" y1="120.8" x2="599.99" y2="119.35"/>
    <path class="st3" d="M599.79,120.8"/>
    <path class="st3" d="M599.48,122.97c.05-.37.1-.74.15-1.1"/>
    <path class="st3" d="M599.47,123.08"/>
    <path class="st3" d="M598.42,130.59"/>
    <line class="st3" x1="598.07" y1="133.05" x2="598.26" y2="131.7"/>
    <path class="st3" d="M598.07,133.05"/>
    <line class="st3" x1="597.56" y1="136.71" x2="597.91" y2="134.17"/>
    <line class="st3" x1="597.32" y1="138.42" x2="597.39" y2="137.89"/>
    <line class="st3" x1="605.41" y1="99.67" x2="605.58" y2="98.44"/>
    <path class="st3" d="M605.41,99.67"/>
    <line class="st3" x1="605.07" y1="102.09" x2="605.25" y2="100.82"/>
    <path class="st3" d="M605.07,102.09"/>
    <line class="st3" x1="604.55" y1="105.85" x2="604.91" y2="103.25"/>
    <path class="st3" d="M604.55,105.85"/>
    <line class="st3" x1="604.26" y1="107.96" x2="604.41" y2="106.88"/>
    <path class="st3" d="M604.26,107.96"/>
    <path class="st3" d="M603.29,115.04"/>
    <line class="st3" x1="602.13" y1="123.4" x2="603.14" y2="116.12"/>
    <path class="st3" d="M602.13,123.4"/>
    <path class="st3" d="M601.68,126.68"/>
    <line class="st3" x1="601.18" y1="130.29" x2="601.52" y2="127.84"/>
    <path class="st3" d="M601.18,130.29"/>
    <line class="st3" x1="600.83" y1="132.87" x2="601.02" y2="131.46"/>
    <path class="st3" d="M600.83,132.87"/>
    <line class="st3" x1="600.34" y1="136.4" x2="600.68" y2="133.94"/>
    <path class="st3" d="M600.34,136.4"/>
    <line class="st3" x1="600.01" y1="138.77" x2="600.16" y2="137.66"/>
    <line class="st3" x1="596.1" y1="100.54" x2="602.5" y2="101.46"/>
    <line class="st3" x1="595.69" y1="103.58" x2="602.13" y2="104.45"/>
    <line class="st3" x1="595.26" y1="106.68" x2="601.64" y2="107.56"/>
    <line class="st3" x1="594.44" y1="112.71" x2="600.79" y2="113.65"/>
    <line class="st3" x1="594.01" y1="115.84" x2="600.36" y2="116.73"/>
    <line class="st3" x1="593.59" y1="118.94" x2="599.92" y2="119.84"/>
    <polyline class="st3" points="592.35 128.07 598.66 128.86 598.42 130.59"/>
    <line class="st3" x1="591.92" y1="131.19" x2="598.2" y2="132.11"/>
    <line class="st3" x1="591.5" y1="134.28" x2="597.82" y2="135.13"/>
    <line class="st3" x1="606.75" y1="136.32" x2="600.46" y2="135.52"/>
    <line class="st3" x1="607.17" y1="133.28" x2="600.89" y2="132.44"/>
    <line class="st3" x1="607.59" y1="130.24" x2="601.3" y2="129.42"/>
    <polyline class="st3" points="608.03 127.04 601.75 126.15 601.68 126.68"/>
    <line class="st3" x1="608.42" y1="124.21" x2="602.13" y2="123.4"/>
    <line class="st3" x1="608.82" y1="121.35" x2="604.24" y2="120.71"/>
    <line class="st3" x1="609.28" y1="118.02" x2="604.61" y2="117.33"/>
    <line class="st3" x1="603.81" y1="117.22" x2="603" y2="117.1"/>
    <polyline class="st3" points="609.71 114.89 603.43 114.01 603.29 115.04"/>
    <line class="st3" x1="610.98" y1="105.68" x2="604.7" y2="104.81"/>
    <line class="st3" x1="611.4" y1="102.64" x2="605.11" y2="101.79"/>
    <rect class="st2" x="603.01" y="96.81" width="5.86" height="1.59" transform="translate(19.75 -84.25) rotate(8.08)"/>
    <text class="st0" transform="translate(592.65 136.8) rotate(6.43) skewX(5.98)"><tspan x="0" y="0">201</tspan></text>
    <text class="st0" transform="translate(593.02 133.73) rotate(6.43) skewX(5.98)"><tspan x="0" y="0">203</tspan></text>
    <text class="st0" transform="translate(593.46 130.6) rotate(6.43) skewX(5.98)"><tspan x="0" y="0">205</tspan></text>
    <text class="st0" transform="translate(602.18 131.91) rotate(6.43) skewX(5.98)"><tspan x="0" y="0">204</tspan></text>
    <text class="st0" transform="translate(601.89 135.06) rotate(6.43) skewX(5.98)"><tspan x="0" y="0">202</tspan></text>
    <text class="st1" transform="translate(602.77 128.72) rotate(6.43) skewX(5.98)"><tspan x="0" y="0">206</tspan></text>
    <text class="st0" transform="translate(594.73 121.51) rotate(6.43) skewX(5.98)"><tspan x="0" y="0">209</tspan></text>
    <text class="st0" transform="translate(595.2 118.33) rotate(6.43) skewX(5.98)"><tspan x="0" y="0">210</tspan></text>
    <text class="st0" transform="translate(595.51 115.26) rotate(6.43) skewX(5.98)"><tspan x="0" y="0">211</tspan></text>
    <text class="st0" transform="translate(597.19 103.01) rotate(6.43) skewX(5.98)"><tspan x="0" y="0">213</tspan></text>
    <text class="st0" transform="translate(597.35 99.88) rotate(6.43) skewX(5.98)"><tspan x="0" y="0">214</tspan></text>
    <text class="st0" transform="translate(596.66 106.04) rotate(6.43) skewX(5.98)"><tspan x="0" y="0">212</tspan></text>
    <text class="st0" transform="translate(605.79 107.13) rotate(6.43) skewX(5.98)"><tspan x="0" y="0">216</tspan></text>
    <text class="st0" transform="translate(606.28 104.24) rotate(6.43) skewX(5.98)"><tspan x="0" y="0">215</tspan></text>
    <rect class="st2" x="603.5" y="123.98" width="4.74" height="2.63" transform="translate(23.57 -83.75) rotate(8.06)"/>
    <rect class="st2" x="594.31" y="138.49" width="5.54" height="1.47" transform="translate(23.28 -76.74) rotate(7.5)"/>
    <line class="st3" x1="554.47" y1="109.74" x2="548.08" y2="108.97"/>
    <path class="st3" d="M548.01,109.63c.05-.26.1-.51.14-.77"/>
    <path class="st3" d="M547.73,111.93c.05-.27.1-.54.15-.82"/>
    <path class="st3" d="M598.81,128.06c-.05.27-.1.53-.15.8"/>
    <line class="st3" x1="599.2" y1="124.96" x2="598.97" y2="126.9"/>
    <line class="st3" x1="592.76" y1="125.02" x2="599.08" y2="125.93"/>
    <polyline class="st3" points="599.35 123.82 599.48 122.97 593.16 122.13"/>
    <polyline class="st3" points="604.23 108.22 604.26 107.96 610.56 108.73"/>
    <line class="st3" x1="603.65" y1="112.43" x2="604.07" y2="109.38"/>
    <path class="st3" d="M603.65,112.43"/>
    <line class="st3" x1="603.43" y1="114.01" x2="603.48" y2="113.65"/>
    <line class="st3" x1="610.15" y1="111.71" x2="603.81" y2="110.98"/>
    <text class="st0" transform="translate(540.18 110.08) rotate(9) skewX(5.98)"><tspan x="0" y="0">306</tspan></text>
    <text class="st0" transform="translate(549.43 111.25) rotate(9) skewX(5.98)"><tspan x="0" y="0">307</tspan></text>
    <text class="st0" transform="translate(593.73 127.34) rotate(6.43) skewX(5.98)"><tspan x="0" y="0">207</tspan></text>
    <text class="st0" transform="translate(594.26 124.58) rotate(6.43) skewX(5.98)"><tspan x="0" y="0">208</tspan></text>
    <text class="st0" transform="translate(605.5 110.37) rotate(6.43) skewX(5.98)"><tspan x="0" y="0">217</tspan></text>
    <text class="st0" transform="translate(605.08 113.44) rotate(6.43) skewX(5.98)"><tspan x="0" y="0">218</tspan></text>
    <path class="st3" d="M549.26,101.34c-.08.53-.15,1.07-.23,1.6,2.09.26,4.19.52,6.28.78"/>
    <polyline class="st3" points="557.13 90.86 556.19 97.44 549.95 96.6 549.89 97.05"/>
    <path class="st3" d="M557.13,90.86"/>
    <path class="st3" d="M551.99,82.14c.05-.34.09-.67.14-1.01"/>
    <path class="st3" d="M558.39,81.98l-.45,3.15-.46,3.2-6.25-.86c.19-1.29.37-2.58.56-3.88"/>
    <path class="st3" d="M551.73,84.46c2.07.27,4.13.54,6.2.81"/>
    <line class="st3" x1="550.13" y1="95.09" x2="549.95" y2="96.6"/>
    <line class="st3" x1="550.49" y1="91.88" x2="550.26" y2="93.93"/>
    <polyline class="st3" points="557.13 90.86 550.71 89.97 550.65 90.53"/>
    <line class="st3" x1="550.37" y1="93.61" x2="556.61" y2="94.48"/>
    <text class="st1" transform="translate(553.48 83.71) rotate(9) skewX(5.98)"><tspan x="0" y="0">MR</tspan></text>
    <text class="st0" transform="translate(550.49 102.14) rotate(9) skewX(5.98)"><tspan x="0" y="0">309</tspan></text>
    <text class="st0" transform="translate(551.07 99.01) rotate(9) skewX(5.98)"><tspan x="0" y="0">311</tspan></text>
    <text class="st0" transform="translate(551.48 96.01) rotate(9) skewX(5.98)"><tspan x="0" y="0">313</tspan></text>
    <text class="st0" transform="translate(551.73 92.65) rotate(9) skewX(5.98)"><tspan x="0" y="0">315</tspan></text>
  </g>
</svg>