<?xml version="1.0" encoding="utf-8"?>
<!-- Generator: Adobe Illustrator 27.3.1, SVG Export Plug-In . SVG Version: 6.00 Build 0)  -->
<svg version="1.1" id="Discord.gg-_x40_marazm" xmlns="http://www.w3.org/2000/svg" xmlns:xlink="http://www.w3.org/1999/xlink"
	 x="0px" y="0px" viewBox="0 0 141.2 130.8" style="enable-background:new 0 0 141.2 130.8;" xml:space="preserve">
<style type="text/css">
	.st0{fill:#363636;}
	.st1{fill:#363636;stroke:#000000;stroke-width:0.2;}
	.st2{fill:#987F00;}
</style>
<g id="Third_Floor">
	<g id="Floor-3">
		<path class="st0" d="M131,25.3h-0.9v5.1h-12v-5.1h-0.9V85h0.9V34.3h12v62.5h0.9C131,96.8,131,25.3,131,25.3z M116.7,94.8h-0.2
			V25.3h-0.9v25.2h-12.2V37.3h-0.9v3.2l-1.7-0.1v-7h1v-4.6h-0.1l-0.1,0v-4.2h-3.2v6.5h-3.6v-0.2H98V26h-6.1v4.9h1.8v0.2h-4v-0.2h1.8
			V26h-4.6l0.2,4.9h1.8v0.2h-4.1v-0.2h2L86.7,26h-11v4.9h3.5v0.2h-3.8v-3.2v-3.2h-3.2v6.9h-0.3V3.9h-48v14.4h2V18h43.9V34h-28v0.9
			h10.1v14.7H41.8v0.9h54.1v0.6H41.8v16.5h56.1v1.5H41.8v16.5h47.9v0.6H41.8v0.9h15.1v14.7H41.8v0.9h47.9v0.5h11.9V84.1h-0.8V67.7
			h0.5v-0.3l0.2,0.1l0.4-0.6l0.5,0.3l0.1-0.2v29.8h14.2L116.7,94.8L116.7,94.8z M115.6,54.3v40.5h-12.2V54.3H115.6z M102.4,41.5
			v24.9l-0.3-0.2l-0.2,0.3l-0.6-0.4l-0.2,0.3l0.1,0.1l-0.2,0.4h-0.3V42.2v-0.8L102.4,41.5L102.4,41.5z M97.9,33.4V34h-26v-0.6h13
			H97.9z M97.9,34.9v7.4v6.3h-0.3v-1.8h-1.7v2.9H56.4V34.9C56.4,34.9,97.9,34.9,97.9,34.9z M97.9,49.8v1.3h-0.3v-1.3H97.9z
			 M97.9,52.1v14.7h-9.7V52.1H97.9z M97.9,70.1v14h-8.2v0.8H69.2V70.1L97.9,70.1L97.9,70.1z M89.7,87.2v14.7H61.4V87.2H89.7z
			 M86.1,52.7v13.4h-0.5V52.7C85.6,52.7,86.1,52.7,86.1,52.7z M84.1,30.9v0.2H80v-0.2h2.1C82.1,30.9,84.1,30.9,84.1,30.9z
			 M83.4,52.1v14.7H43.8V52.1C43.8,52.1,83.4,52.1,83.4,52.1z M69.8,13.8v3.3h-3v-0.3h-2.1v0.3H42.3V4.8h25.5v9L69.8,13.8L69.8,13.8
			z M64.6,70.1v14.7H43.9V70.1H44v0.2h1.9v-0.2H64.6L64.6,70.1z M38.4,4.8v12.3H25.9V4.8H38.4z"/>
	</g>
	<g id="Wall-3">
		<path class="st1" d="M97.8,33.5h0.5"/>
		<path class="st1" d="M100.1,33.5h0.7"/>
		<path class="st1" d="M69.2,11.1V12h2.7"/>
		<path class="st1" d="M69.2,9.5v-5h2.7"/>
		<path class="st1" d="M80.7,30.9v-2.2"/>
	</g>
	<g id="Stairs-3">
		<g id="Stairs-3-down">
			<path id="stair-127" class="st2" d="M101.5,30.3V24h-3.2v6.4H101.5z M100,28.8h-0.2v-3.3h0.2V28.8z"/>
			<path id="stair-128" class="st2" d="M75.4,30.3V24h-3.2v6.4H75.4z M73.8,28.8h-0.2v-3.3h0.2V28.8z"/>
			<path id="stair-69" class="st2" d="M29.9,18.2h-6.1v2.7h6.1V18.2z M28.8,19.5v0.1H25v-0.1H28.8z"/>
			<path id="stair-96" class="st2" d="M71.8,14.2h-5.8v2.7h5.8V14.2z M70.6,15.5v0.1H67v-0.1H70.6z"/>
			<path id="stair-97" class="st2" d="M47.8,52.1h-6v2.7h6V52.1z M46.6,53.4v0.1h-3.7v-0.1H46.6z"/>
			<path id="stair-100" class="st2" d="M47.8,70.3h-6v2.7h6V70.3z M46.6,71.6v0.1h-3.7v-0.1H46.6z"/>
			<path id="stair-101" class="st2" d="M119.4,96.7v-5.8h-2.7v5.8H119.4z M118.1,95.6h-0.1V92h0.1V95.6z"/>
			<path id="stair-129" class="st2" d="M97.7,46.7h-6.1v2.7h6.1V46.7z M96.5,48v0.1h-3.7V48H96.5z"/>
		</g>
	</g>
</g>
</svg>
