<?xml version="1.0" encoding="utf-8"?>
<!-- Generator: Adobe Illustrator 27.3.1, SVG Export Plug-In . SVG Version: 6.00 Build 0)  -->
<svg version="1.1" id="Discord.gg-_x40_marazm" xmlns="http://www.w3.org/2000/svg" xmlns:xlink="http://www.w3.org/1999/xlink"
	 x="0px" y="0px" viewBox="0 0 141.2 130.8" style="enable-background:new 0 0 141.2 130.8;" xml:space="preserve">
<style type="text/css">
	.st0{fill:#363636;}
	.st1{fill:#987F00;}
	.st2{fill:#777777;}
</style>
<g id="Basement">
	<g id="Floor-b">
		<path class="st0" d="M97.1,79v1.5h-6.6V79H97.1z"/>
		<path class="st0" d="M97.1,74.9v1.5h-6.6v-1.5H97.1z"/>
		<path class="st0" d="M141.2,94.7h-10.1v0.7h-0.3v-0.7h-8.2v-4.2h-3.5v-7.8h-5.5v-7.4h-1v-6.2h15.9v-8.8h0.6v0.5h5.6v-7.7H132v4.8
			h-3.3v-4.8h-17.9v9H99.4v2.9H90v0.3h-0.7V45.7h-4.2V26H96v7.1h5.5v-7.6h-1.7v3.2H98V24H72.2v6.6h-0.6V17.7H69v-0.6h0.3v-4.4h-3.9
			v-0.3h0.3V8.1h-1V3h7.2V0h-9.2v12.5h0.5v0.6h-0.5v4.1h0.5v0.6h-0.5V21h6.6v-1.2h0.3v8h0.9V28h-7.8v2.1h-9.1V24l-8.3,0v-0.7h2v-5.6
			h-7.5v5.6h4.4V24h-2.5l0,6.1l-14.8,0l0-6.4h-3l0,6.6h-0.5V24h-4.3v9.2h12.6v9.1H46v-3H34.7v-6h21.7v12.6h-2.5v10.2h8.4v9.2h-5.5v3
			h5.5v7.1H49.8v-6.4h-6.9v13.8h3.7l0-7.4h0.5l0,14.7h-4.4v0.9h-0.4v-1.8h-1.5V69.3h-4.4v43.4h4.4v-19h1.5V92h0.4v0.9h4.4v10h21.8
			v-2h12.5v-2h-0.6v-8.7h6.6v8.7h-0.6v2h0.6v2.4h19v0.7h7.4v-0.7H132v-6H130v-0.4h0.9v-0.5h0.3v0.5h8.1v2.6h2L141.2,94.7L141.2,94.7
			z M128.8,96.9v0.4h-0.5v3.2h-11.8v-3.6H128.8L128.8,96.9z M114.5,96.9v3.6h-8.9v-3.2h-0.8v-9h-0.4v-0.3h0.4v-4.8h2.6v-5.9h0.5
			v-0.4h0.2v0.4h2.5v19.7L114.5,96.9L114.5,96.9z M110.8,64.1v11.1h-2.5v0.5H108v-0.5h-0.5v-1.9h-5.6v5.8h-0.5v-15
			C101.4,64.1,110.8,64.1,110.8,64.1z M102.3,87.9v0.3h-0.3v5.6h-0.6v-1.5h-4.5v3.2h5v5H89.3V90.1h2v1.1h6.8v-5h-6.8v0.9h-2v-8.4
			h9.1v2.1h3v-0.6h0.5v7.7L102.3,87.9L102.3,87.9z M98.4,68.1v8.6h-9.1V75h-2v0.8l-6.6,0v-7.6h6.6v0.6h2v-1.1H90v0.4L98.4,68.1
			L98.4,68.1z M86.3,55.9v9.2h-8.6v0.4h-0.2v-0.4H65.7v0.4h-0.3v-9.7H86.3L86.3,55.9z M83.2,33.1v12.6H59.3V33.1l12.3,0v-1.5h0.6
			v1.5L83.2,33.1L83.2,33.1z M77.8,67.7v19.4h-5.2v3h5.2v7.9h-8.9V75.2h-3.5v-7.5h0.3v0.5h11.9v-0.5H77.8L77.8,67.7z"/>
	</g>
	<g id="Stairs-b">
		<g id="Connector-Ground_Floor">
			<path id="stair-1" class="st1" d="M45.9,39.1H34.7v3h11.3V39.1z"/>
			<path id="stair-2" class="st1" d="M26.9,30.2v-6.6h-3v6.6H26.9z"/>
			<path id="stair-3" class="st1" d="M20.9,23.8v2.9h-1.5v-2.9H20.9z"/>
			<path id="stair-4" class="st1" d="M66.1,28.3H63v1.4h3.1V28.3z"/>
			<path id="stair-7" class="st1" d="M46,75.2l0,9.1h-3l0-9.1L46,75.2L46,75.2z"/>
			<path id="stair-8" class="st1" d="M77.8,87.1h-8.3v3h8.3V87.1z"/>
			<path id="stair-220" class="st1" d="M91.3,86.2h10.3v5H91.3V86.2z"/>
			<path id="stair-221" class="st1" d="M102.1,98.6v2.9h1.3v-2.9H102.1z"/>
			<path id="stair-222" class="st1" d="M131.6,98.5h-1.4v2.9h1.4V98.5z"/>
			<path id="stair-223" class="st1" d="M78.5,45.9v1.4h-4.9v-1.4H78.5z"/>
			<path id="stair-224" class="st1" d="M81.2,54.4v1.4h-4.9v-1.4H81.2z"/>
			<path id="stair-136" class="st1" d="M134.8,53.7v2.9h-1.3v-2.9H134.8z"/>
			<path id="stair-140" class="st1" d="M46.6,33.3v-1.3h-2.9v1.3H46.6z"/>
			<path id="stair-128" class="st1" d="M75.4,30.3V24h-3.2v6.4H75.4z M73.8,28.8h-0.2v-3.3h0.2V28.8z"/>
			<path id="stair-127" class="st1" d="M101.5,30.3V24h-3.2v6.4H101.5z M100,28.8h-0.2v-3.3h0.2V28.8z"/>
			<path id="stair-138" class="st1" d="M111.2,53.2v3h1.2v-3H111.2z"/>
			<path id="stair-139" class="st1" d="M103.6,78.2v-2.9h-1.4v2.9H103.6z"/>
			<path id="stair-134" class="st1" d="M98.3,92.3h-5.8v3.1h5.8V92.3z M97.2,93.8V94h-3.6v-0.2H97.2z"/>
			<path id="stair-143" class="st1" d="M66.5,0.2h2.9v1.4h-2.9V0.2z"/>
		</g>
	</g>
	<g id="Wall-b">
		<path class="st2" d="M60.1,54.5c-2,0-3.6-1.6-3.6-3.6c0-1,0.4-1.9,1-2.5c0.7-0.7,1.6-1,2.5-1s1.9,0.4,2.5,1c0.7,0.7,1,1.6,1,2.5
			C63.7,52.9,62.1,54.5,60.1,54.5L60.1,54.5L60.1,54.5z"/>
		<path class="st2" d="M82.3,54.5c-2,0-3.6-1.6-3.6-3.6c0-1,0.4-1.9,1.1-2.5s1.6-1,2.5-1s1.9,0.4,2.5,1s1.1,1.6,1.1,2.5
			C85.9,52.9,84.3,54.5,82.3,54.5L82.3,54.5L82.3,54.5z"/>
		<path class="st2" d="M71.6,54.5c-2,0-3.6-1.6-3.6-3.6c0-1,0.4-1.9,1.1-2.5s1.6-1,2.5-1s1.9,0.4,2.5,1s1.1,1.6,1.1,2.5
			C75.2,52.9,73.6,54.5,71.6,54.5L71.6,54.5L71.6,54.5z"/>
		<path class="st2" d="M54.2,91.7l6.3,1.5l-0.5,2l-6.3-1.5L54.2,91.7z"/>
		<path class="st2" d="M53.8,94l2.2,0.4l-0.3,2.1l-2.2-0.4L53.8,94z"/>
		<path class="st2" d="M55.8,89.8v1.7h-1.7v-1.7H55.8z"/>
		<path class="st2" d="M56.4,90.3l1.8,0.4l-0.4,1.7L56,92L56.4,90.3z"/>
		<path class="st2" d="M53.5,86.4v1.1h-1.1v-1.1H53.5z"/>
		<path class="st2" d="M63.3,86.4v1.1h-1.1v-1.1H63.3z"/>
		<path class="st2" d="M59.9,100.1v1.8h-1.8v-1.8H59.9z"/>
		<path class="st2" d="M57.6,100.5v1.5h-2.5v-1.5H57.6z"/>
		<path class="st2" d="M55,100v1.8h-1.8V100H55z"/>
	</g>
</g>
</svg>
