<?xml version="1.0" encoding="utf-8"?>
<!-- Generator: Adobe Illustrator 27.3.1, SVG Export Plug-In . SVG Version: 6.00 Build 0)  -->
<svg version="1.1" id="Discord.gg-_x40_marazm" xmlns="http://www.w3.org/2000/svg" xmlns:xlink="http://www.w3.org/1999/xlink"
	 x="0px" y="0px" viewBox="0 0 141.2 130.8" style="enable-background:new 0 0 141.2 130.8;" xml:space="preserve">
<style type="text/css">
	.st0{fill:#363636;}
	.st1{fill:#555555;}
	.st2{fill:#777777;}
	.st3{fill:#987F00;}
	.st4{fill:none;stroke:#000000;stroke-width:0.2;}
</style>
<g id="Ground_Floor">
	<g id="Floor">
		<path class="st0" d="M138.7,97.3h-3.8V50.1l-2.9-0.4v8.2h-0.3V41.4V31h0.3v18.2l2.9,0.4V25.3H132v4.9h-0.3v-4.9h-5.5V1.5h-6.4
			v23.8h-18v5h-0.3v-5.7h-3.2v6.5h-2.5V27h-0.9v-0.2h0.9v-5.8h-5v5.8h2.9V27h-2.9v2.3h-0.3v-6.2h-7.6v6.1h-0.3v-6.1h-7.1v8.4h-0.1
			v-7h-3.2v6.7h-0.3V3.3h-5.1V2.9h5.1V0H54.2v2.9h11.8v0.5h-6.5H46.8V2.9h3V0H20v3.3h-4.9V8h0.6v0.3H0v6.5h20.6v0.3H19v15.6h2.2v2.6
			h2.3v-1.5h0.4v1.6h11.4h11.5v5.8h-6l-6,0v3h6h6v4.1h-3.4v-0.2h3.2v-3.7h-4.8v3.7h0.5v0.2h-0.5v10.3H17.3V63h24.4l0,20.3v20.1h2.5
			v24.4h6.4v-24.4h11.6v0.2h-2.3v2.6h2v0.3h-2.3v-2.9h-5v17.9h12.3l-0.1-2l2.6-0.2l0.1,1.4l9.3-0.2l2.5-0.8l4.2,0.6l4.2,1.1l4.3-0.1
			l0.6,4.1h11.8v1.4h6.2V122h-6.8v-8.5h0.3v7.8h6.4l0-19.7h5.7l5.6,0l0,8.5v8.5h8.1v12.3h6.4v-12.3h0.6L138.7,97.3L138.7,97.3z
			 M132.5,101.6v0.9h-0.7v-0.9h0.2v-4.3h-1.5V97h0.5v-0.6h0.7v-0.3h0.3v0.4h0.3V99l0,2.6H132.5L132.5,101.6z M132,60.1v2.1h-0.3
			v-0.8H131v-0.7h0.7v-0.7L132,60.1L132,60.1z M132,64.4v1.3h-0.3v-1.3H132z M132,68.4v1h-0.3v-1H132z M132,72.2v13.7h-0.3V72.2H132
			z M132,88.6v1h-0.3v-1H132z M132,92.4v1l-0.3,0v-1L132,92.4L132,92.4z M129.2,96.9v0.3h-14.2v-0.3h7.1L129.2,96.9L129.2,96.9z
			 M113.8,96.9v0.3h-0.9v0.7H112v-0.7h0.7v-0.3H113.8L113.8,96.9z M107.7,82.4l0,1.1h-3l-2.8,0v2.7H91.4v5h10.5v3.3h-0.3v-2.1h-3.2
			v3.2h1.2v0.8h-0.2v-0.4h-7.7v-0.2h0.4v-3.4H90v3.4H91v0.2h-1.1v2.9h-0.2V84.1h11.8V73.3h3.8v0.4h-3.4V83h5.4v-0.6L107.7,82.4
			L107.7,82.4z M107.7,73.3l0,8.1h-0.4v-7.7h-1v-0.4L107.7,73.3L107.7,73.3z M106,96.9v2.6h-0.3v-2.3h-1.1v-0.3
			C104.6,96.9,106,96.9,106,96.9z M106,100.7v4.5H88.7v-1.8h0.4v-0.8h0.6v-2.9h0.2v3.6h5.3v-5.8h4.1v-0.4h0.2v4.1h-0.2v-3.4h-3.9
			v5.6h3.9V102h0.2v1.4h2v-7.9h0.3v1.5h1.6v0.3h-1.6v6h3.8v-2.6H106L106,100.7z M106,108.2v1.9h-0.3v-1.6H85.1v-4.9h-3.3v3.2h-0.6
			v-0.4h0.3v-2.8h-0.3v-0.2h4.6v2.6v2.2L106,108.2L106,108.2z M102.6,36.9v0.7l-0.6,0h-0.6v-4.2h-3.7v-0.3h3.7v-1.6h0.3v5.5
			L102.6,36.9L102.6,36.9z M102.6,60.8v0.7h-0.8v3h-0.3v-3.6H102.6L102.6,60.8z M101.8,65.4v4H101v-0.9H89.7v0.9h-0.7v-0.9H77.8v0.8
			h-0.7v-0.8H66v0.9l-0.3,0h-0.3V69v-0.4h-1.2v-0.3h1.1v-0.8H66v0.8h11.2v-0.7h0.7v0.7h11.2v-0.8h0.7v0.8H101v-0.8h0.6v-2
			L101.8,65.4L101.8,65.4z M98.4,0.9H72.2V12h2.7v5.3h-2.7v5.6h18.2v-2.1H96v3.1h2.4C98.4,23.8,98.4,0.9,98.4,0.9z M96.6,33.1v0.3
			H74.5v-0.3h3h16.2H96.6z M80.3,103.4v0.2h-2.1v2.8h2.1v0.4H78v1.4h-6v2.8h-5.9v-4.5h-2.8v-0.3h2.8v-2.6h-3v-0.2h5.1
			C68.2,103.4,80.3,103.4,80.3,103.4z M73.3,33.1v0.3h-0.7l-0.7,0l-10.2,0H51.4v-5.2l0.2,0h0.2V33h20v-0.5h0.3v0.6H73.3z M54.5,68.3
			v0.3H54v0.9h-0.7v-0.9h-0.3v-0.3h0.3v-0.8H54v0.8H54.5z M45.8,2.9v0.5h-4.1h-4.1V2.9L45.8,2.9L45.8,2.9z M36.6,2.9v0.4h-5.5V2.9
			H36.6z M30.1,2.9v0.4H27h-3.1v2.4h-0.3V2.9L30.1,2.9L30.1,2.9z M23.9,6.8v1.5h-6.8V8h6.5V6.8L23.9,6.8L23.9,6.8z M23.9,14.8V30
			h-0.4V15.1h-1.8v-0.3L23.9,14.8L23.9,14.8z"/>
	</g>
	<g id="Ledge">
		<path class="st1" d="M88.6,45.9v9.8H54.5v-9.8H88.6z"/>
		<path class="st1" d="M97.9,78.9v1.5h-6.6v-1.5H97.9z"/>
		<path class="st1" d="M97.9,74v1.5h-6.6V74H97.9z"/>
		<path class="st1" d="M71.9,33h-20v-4.8h20V33z"/>
	</g>
	<g id="Obstacles">
		<path class="st2" d="M118.3,25.9v4.8h-1.7v-4.8H118.3z"/>
		<path class="st2" d="M126.6,62.8v5.4h-13v-5.4C113.6,62.8,126.6,62.8,126.6,62.8z"/>
		<path class="st2" d="M117.2,39.6v1.9h-2.1v-1.9H117.2z"/>
		<path class="st2" d="M80.4,70.8v2.8h-5.5v-2.8H80.4z"/>
		<path class="st2" d="M79.8,74.3l-0.3,2.8L74,76.5l0.3-2.8L79.8,74.3z"/>
		<path class="st2" d="M64.3,86l-2.6,1l-1.9-5.2l2.6-1L64.3,86z"/>
		<path class="st2" d="M61.5,90.7v2.8H56v-2.8H61.5z"/>
		<path class="st2" d="M62.2,95.6v2.8h-5.5v-2.8H62.2z"/>
		<path class="st2" d="M66.5,90v5.2h-2.8V90H66.5z"/>
		<path class="st2" d="M74.5,101.2v-2.5h-6.2v2.5H74.5z"/>
		<path class="st2" d="M51.6,76.2l5.2-1.8l-0.6-1.8L51,74.4L51.6,76.2z"/>
		<path class="st2" d="M53.6,48.4l-2.1-4.8l1.7-0.7l2.1,4.8L53.6,48.4z"/>
		<path class="st2" d="M134.9,73.7c0,0.2-0.1,1.9-0.1,1.9l-1,0l0.1-1.9L134.9,73.7z"/>
		<path class="st2" d="M124.4,22.7l-1.7-0.2l0.6-4.8l1.7,0.2L124.4,22.7z"/>
		<path class="st2" d="M89.6,58.8l0,4.9h1.7l0-4.9L89.6,58.8L89.6,58.8z"/>
		<path class="st2" d="M94.9,68.2l0.4-4.8l-1.7-0.2L93.2,68L94.9,68.2z"/>
		<path class="st2" d="M100.2,65.2l-4.9,0v1.7l4.9,0L100.2,65.2L100.2,65.2z"/>
		<path class="st2" d="M126.6,54.1v5.3h-13v-5.3H126.6z"/>
		<path class="st2" d="M87.7,96.6l-0.5-0.1l0,0.2l-0.2,0l0.2-1.3l-0.1,0l-0.2,1.3l-0.5-0.1l0.2-1.3l-0.1,0l-0.2,1.3l-0.2,0l0-0.2
			l-0.5-0.1l-0.1,1l0.2,0l-0.3,2.4L87,100l0.3-2.4l0.2,0C87.6,97.6,87.7,96.6,87.7,96.6z"/>
		<path class="st2" d="M77,98.2h0.5V98h0.2l0,1.4h0.1l0-1.3h0.5l0,1.3h0.1l0-1.3h0.2v0.2l0.5,0l0-1h-0.2l0.1-2.5l-1.8-0.1l-0.1,2.5
			H77C77,97.3,77,98.2,77,98.2z"/>
		<path class="st2" d="M85.8,92.1h0.5v-0.2h0.2l0,1.4h0.1l0-1.3h0.5l0,1.3h0.1l0-1.3h0.2v0.2l0.5,0l0-1h-0.2l0.1-2.5l-1.8-0.1
			l-0.1,2.5h-0.2C85.9,91.1,85.8,92.1,85.8,92.1z"/>
		<path class="st2" d="M82.4,83.6l0.4-0.3l-0.1-0.2l0.2-0.1l0.7,1.1l0.1-0.1L83.1,83l0.4-0.3l0.7,1.1l0.1-0.1l-0.7-1.1l0.2-0.1
			l0.1,0.2l0.5-0.3l-0.5-0.8l-0.2,0.1l-1.3-2.1l-1.6,1l1.3,2.1l-0.2,0.1L82.4,83.6L82.4,83.6z"/>
		<path class="st2" d="M50,33.6l-0.5,0l0,0.2l-0.2,0l-0.1-1.3H49l0.1,1.3l-0.5,0l-0.1-1.3h-0.1l0.1,1.4l-0.2,0l0-0.2l-0.5,0l0.1,1
			l0.2,0l0.2,2.4l1.8-0.2l-0.2-2.5l0.2,0L50,33.6L50,33.6z"/>
		<path class="st2" d="M33.9,11.7l0.2-0.5l-0.2-0.1l0.1-0.2l1.3,0.4l0-0.1L34,10.8l0.2-0.5l1.2,0.4l0-0.1l-1.3-0.4l0.1-0.2l0.2,0.1
			l0.2-0.5l-0.9-0.3l-0.1,0.2l-2.4-0.7l-0.5,1.8l2.4,0.7L33,11.4L33.9,11.7L33.9,11.7z"/>
		<path class="st2" d="M130.3,112.8l-0.5,0.1l0,0.2l-0.2,0l-0.1-1.3h-0.1l0.1,1.3l-0.5,0.1l-0.1-1.3h-0.1l0.1,1.4l-0.2,0l0-0.2
			l-0.5,0.1l0.1,1l0.2,0l0.2,2.4l1.8-0.2l-0.2-2.4l0.2,0L130.3,112.8L130.3,112.8z"/>
		<path class="st2" d="M133.7,109.1l0.5,0.1l0.1-0.2l0.2,0.1l-0.3,1.3l0.1,0l0.3-1.2l0.5,0.1l-0.3,1.3l0.1,0l0.3-1.3l0.2,0.1
			l-0.1,0.2l0.5,0.1l0.2-0.9l-0.2-0.1l0.6-2.4l-1.8-0.4l-0.6,2.4l-0.2-0.1L133.7,109.1L133.7,109.1z"/>
		<path class="st2" d="M98.9,78.5v2.4h-6.4v-2.4H98.9z"/>
		<path class="st2" d="M75.1,37l0.3,0.4l0.2-0.1l0.2,0.2l-1,0.9l0.1,0.1l1-0.8l0.3,0.4l-1,0.8l0.1,0.1l1-0.9l0.1,0.2l-0.2,0.1
			l0.3,0.4l0.7-0.6L77.2,38l1.9-1.6L77.9,35L76,36.6l-0.2-0.2L75.1,37L75.1,37z"/>
		<path class="st2" d="M121.3,9.1l0.5,0.2l0.1-0.2l0.2,0.1l-0.5,1.2l0.1,0l0.5-1.2l0.5,0.2l-0.5,1.2l0.1,0.1l0.5-1.3l0.2,0.1
			l-0.1,0.2l0.5,0.2l0.4-0.9l-0.2-0.1l0.9-2.3L122.8,6l-0.9,2.3l-0.2-0.1L121.3,9.1L121.3,9.1z"/>
		<path class="st2" d="M128.9,44.4l-0.3-0.4l-0.2,0.1l-0.1-0.2l1.1-0.8l-0.1-0.1l-1,0.8l-0.3-0.4l1-0.8l-0.1-0.1l-1.1,0.8l-0.1-0.2
			l0.2-0.1l-0.3-0.4l-0.8,0.6l0.2,0.2l-2,1.5l1.1,1.5l2-1.5l0.1,0.2C128.2,44.9,128.9,44.4,128.9,44.4z"/>
		<path class="st2" d="M119.2,90.6l-0.2-0.5l-0.2,0.1l-0.1-0.2l1.3-0.4l0-0.1l-1.2,0.4l-0.2-0.5l1.2-0.4l0-0.1l-1.3,0.4l-0.1-0.2
			l0.2-0.1l-0.2-0.5l-0.9,0.3l0.1,0.2l-2.3,0.8l0.6,1.8l2.3-0.8l0.1,0.2L119.2,90.6L119.2,90.6z"/>
		<path class="st2" d="M107.8,124.3l-0.2-0.5l-0.2,0.1l-0.1-0.2l1.2-0.5l-0.1-0.1l-1.2,0.5l-0.2-0.5l1.2-0.5l-0.1-0.1L107,123
			l-0.1-0.2l0.2-0.1l-0.2-0.5l-0.9,0.4l0.1,0.2l-2.3,0.9l0.7,1.7l2.3-0.9l0.1,0.2L107.8,124.3L107.8,124.3z"/>
		<path class="st2" d="M69.7,115.5l5.5,2.7l-1.1,2.1l-5.5-2.7L69.7,115.5z"/>
		<path class="st2" d="M83.6,116.1v6.5h-2.4v-6.5H83.6z"/>
		<path class="st2" d="M89.8,108.5v3.2h-2.2v-3.2H89.8z"/>
		<path class="st2" d="M92.1,114.1l1.4,1.5l-5.3,4.7l-1.4-1.5L92.1,114.1z"/>
		<path class="st2" d="M102.1,116.7h3.1v2.2h-3.1V116.7z"/>
		<path class="st2" d="M78.4,118.3l-3.2,0.1l0.1,2.1l3.2-0.1L78.4,118.3z"/>
	</g>
	<g id="Stairs">
		<g id="Stairs-down">
			<path id="stair-1" class="st3" d="M45.9,39.1H34.7v3h11.3V39.1z"/>
			<path id="stair-2" class="st3" d="M27,30.2v-6.6h-3v6.6H27z"/>
			<path id="stair-3" class="st3" d="M20.9,23.8v2.9h-1.5v-2.9H20.9z"/>
			<path id="stair-4" class="st3" d="M66.1,28.3H63v1.4h3.1V28.3z"/>
			<path id="stair-7" class="st3" d="M46,75.2l0,9.1h-3l0-9.1L46,75.2L46,75.2z"/>
			<path id="stair-8" class="st3" d="M77.8,87.1h-8.3v3h8.3V87.1z"/>
			<path id="stair-220" class="st3" d="M91.3,86.2h10.3v5H91.4C91.4,91.1,91.4,86.2,91.3,86.2z"/>
			<path id="stair-221" class="st3" d="M102.1,98.6v2.9h1.3v-2.9H102.1z"/>
			<path id="stair-222" class="st3" d="M131.6,98.5h-1.4v2.9h1.4V98.5z"/>
			<path id="stair-223" class="st3" d="M78.5,45.9v1.4h-4.9v-1.4H78.5z"/>
			<path id="stair-224" class="st3" d="M81.2,54.4v1.4h-4.9v-1.4H81.2z"/>
			<path id="stair-136" class="st3" d="M134.8,53.7v2.9h-1.3v-2.9H134.8z"/>
			<path id="stair-140" class="st3" d="M46.6,33.3v-1.3h-2.9v1.3H46.6z"/>
			<path id="stair-138" class="st3" d="M111.2,53.2v3h1.2v-3H111.2z"/>
			<path id="stair-139" class="st3" d="M103.6,78.2v-2.9h-1.4v2.9H103.6z"/>
			<path id="stair-143" class="st3" d="M66.5,0.2h2.9v1.4h-2.9V0.2z"/>
		</g>
		<g id="Stairs-up">
			<path id="stair-69" class="st3" d="M29.9,18.2h-6.1v2.7h6.1V18.2z M28.8,19.5v0.1H25v-0.1H28.8z"/>
			<path id="stair-96" class="st3" d="M71.8,14.2h-5.8v2.7h5.8V14.2z M70.6,15.5v0.1H67v-0.1H70.6z"/>
			<path id="stair-97" class="st3" d="M47.8,52.1h-6v2.7h6V52.1z M46.6,53.4v0.1h-3.7v-0.1H46.6z"/>
			<path id="stair-100" class="st3" d="M47.8,70.3h-6v2.7h6V70.3z M46.6,71.6v0.1h-3.7v-0.1H46.6z"/>
			<path id="stair-101" class="st3" d="M119.4,96.7v-5.8h-2.7v5.8H119.4z M118.1,95.6h-0.1V92h0.1V95.6z"/>
			<path id="stair-129" class="st3" d="M97.7,46.7h-6.1v2.7h6.1V46.7z M96.5,48v0.1h-3.7V48H96.5z"/>
			<path id="stair-62" class="st3" d="M111.5,28v-2.7h4.2V28"/>
			<path id="stair-127" class="st3" d="M101.5,30.3V24h-3.2v6.4H101.5z M100,28.8h-0.2v-3.3h0.2V28.8z"/>
			<path id="stair-128" class="st3" d="M75.4,30.3V24h-3.2v6.4H75.4z M73.8,28.8h-0.2v-3.3h0.2V28.8z"/>
			<path id="stair-63" class="st3" d="M53.8,24.7v2.9h-1.3v-2.9"/>
			<path id="stair-130" class="st3" d="M68.9,24.7v2.9h-1.3v-2.9"/>
			<path id="stair-131" class="st3" d="M98.6,84.1v-1.4l-3.7,0v1.4L98.6,84.1z"/>
			<path id="stair-132" class="st3" d="M101.8,83.4v1.2h5.5v-1.2H101.8z"/>
			<path id="stair-140-2" class="st3" d="M46.6,33.3v-1.3h-2.9v1.3H46.6z"/>
			<path id="stair-141" class="st3" d="M46.6,47.7v-1.3h-2.9v1.3H46.6z"/>
			<path id="stair-155" class="st3" d="M120.3,52.5h3.4v-1.2h-3.4V52.5z"/>
			<path id="stair-226" class="st3" d="M115.7,71h3.6v-1.2h-3.6V71z"/>
			<path id="stair-135" class="st3" d="M76.2,12v3.2h-1.4V12H76.2z"/>
		</g>
	</g>
	<g id="Wall">
		<path class="st4" d="M61.1,6.5l6.1-0.6l0.2,2.4l-6.1,0.6"/>
		<path class="st4" d="M53.9,8.4v6.1"/>
		<path class="st4" d="M51.4,8.4v6.1"/>
		<path class="st4" d="M43,5.6l3.9,11.2"/>
		<path class="st4" d="M40.6,6.4l4,11"/>
		<path class="st4" d="M106.3,36.9h6.1"/>
		<path class="st4" d="M106.3,39.2h6.1"/>
		<path class="st4" d="M117.8,40.1v6.2h6"/>
		<path class="st4" d="M120.7,40.1v6.2"/>
		<path class="st4" d="M117.8,47.5v1.7h6"/>
		<path class="st4" d="M112.7,97h-5.2"/>
		<path class="st4" d="M106.4,97H106"/>
		<path class="st4" d="M11.1,8.3v1.4"/>
		<path class="st4" d="M11.1,10.8v4"/>
		<path class="st4" d="M131.8,118.6h4.2"/>
		<path class="st4" d="M21.5,3.2H20"/>
		<path class="st4" d="M41.6,59.1l0,4"/>
		<path class="st4" d="M41.6,58v-1.4"/>
		<path class="st4" d="M45.6,103.5h-1.4"/>
		<path class="st4" d="M50.6,103.5h-3.9"/>
		<path class="st4" d="M46.6,115.7h4"/>
		<path class="st4" d="M45.7,115.7h-1.5"/>
		<path class="st4" d="M119.7,25.2h4.4"/>
		<path class="st4" d="M125.2,25.2h0.9"/>
		<path class="st4" d="M124.2,12.5h-4.4"/>
		<path class="st4" d="M125.2,12.5h0.9"/>
		<path class="st4" d="M101.9,57.4v-8.3"/>
		<path class="st4" d="M101.9,58.9v2"/>
		<path class="st4" d="M103.6,43.2l-0.7,6"/>
		<path class="st4" d="M105.1,49.4l0.7-6"/>
		<path class="st4" d="M95.7,32.6v0.5"/>
		<path class="st4" d="M95.7,31.5v-0.5"/>
		<path class="st4" d="M98,46.3v-0.6h-4.2"/>
		<path class="st4" d="M92.1,45.7h-0.6v8H98"/>
		<path class="st4" d="M99.4,53.7h2.5"/>
		<path class="st4" d="M94.8,50.8h7.1"/>
		<path class="st4" d="M98,47.9v2.8"/>
		<path class="st4" d="M137.3,118.6h0.9"/>
		<path class="st4" d="M48.5,89h1.8v12.7h-1.8"/>
		<path class="st4" d="M46,101.7h-1.8V89H46"/>
		<path class="st4" d="M36.6,3.2h1.1"/>
		<path class="st4" d="M23.8,8.3v1.4"/>
		<path class="st4" d="M23.8,10.8v4"/>
		<path class="st4" d="M131.8,65.7v2.8"/>
		<path class="st4" d="M131.8,69.4v2.8"/>
		<path class="st4" d="M131.8,85.8v2.8"/>
		<path class="st4" d="M131.8,89.6v2.8"/>
		<path class="st4" d="M131.8,93.3v2.7"/>
		<path class="st4" d="M95.6,3.5l-0.1-2.3l2.6-0.1l0.2,6l-2.6,0.1l-0.1-2.6"/>
		<path class="st4" d="M29.5,56.6V58"/>
		<path class="st4" d="M29.5,59.1l0,4"/>
	</g>
	<g id="Building">
		<path class="st2" d="M60.2,54.5c-0.9,0-1.8-0.4-2.5-1s-1-1.6-1-2.5s0.4-1.8,1-2.5s1.6-1,2.5-1s1.8,0.4,2.5,1s1,1.6,1,2.5
			s-0.4,1.8-1,2.5C62,54.2,61.1,54.5,60.2,54.5z"/>
		<path class="st2" d="M82.2,54.5c-0.9,0-1.8-0.4-2.5-1s-1-1.6-1-2.5s0.4-1.8,1-2.5s1.6-1,2.5-1s1.8,0.4,2.5,1c0.7,0.7,1,1.6,1,2.5
			s-0.4,1.8-1,2.5S83.2,54.5,82.2,54.5z"/>
		<path class="st2" d="M71.5,54.5c-0.9,0-1.8-0.4-2.5-1s-1-1.6-1-2.5s0.4-1.8,1-2.5s1.6-1,2.5-1s1.8,0.4,2.5,1s1,1.6,1,2.5
			s-0.4,1.8-1,2.5S72.5,54.5,71.5,54.5z"/>
		<path class="st2" d="M82.2,64.2c-0.8,0-1.5-0.3-2.1-0.8c-0.5-0.5-0.8-1.3-0.8-2s0.3-1.5,0.8-2s1.3-0.8,2.1-0.8s1.5,0.3,2.1,0.8
			s0.8,1.3,0.8,2s-0.3,1.5-0.8,2S83,64.2,82.2,64.2z"/>
		<path class="st2" d="M60.2,64.2c-0.8,0-1.5-0.3-2-0.8c-0.5-0.5-0.8-1.3-0.8-2s0.3-1.5,0.8-2c0.5-0.5,1.3-0.8,2-0.8s1.5,0.3,2,0.8
			s0.8,1.3,0.8,2s-0.3,1.5-0.8,2C61.7,63.9,60.9,64.2,60.2,64.2z"/>
		<path class="st2" d="M71.5,64.2c-0.8,0-1.5-0.3-2.1-0.8s-0.8-1.3-0.8-2s0.3-1.5,0.8-2s1.3-0.8,2.1-0.8s1.5,0.3,2.1,0.8
			s0.8,1.3,0.8,2s-0.3,1.5-0.8,2C73.1,63.9,72.3,64.2,71.5,64.2z"/>
		<path class="st2" d="M127.3,76.7h-1.8v-0.9h-2.8v0.9h-1.8v7.1h1.8v5.7h2.8v-5.7h1.8V76.7z"/>
	</g>
</g>
<path id="stair-101-2" class="st3" d="M98.2,92.3l-6,0v3.1l6,0L98.2,92.3L98.2,92.3z M97.1,93.8v0.2l-3.7,0v-0.2L97.1,93.8z"/>
</svg>
