<svg xmlns="http://www.w3.org/2000/svg" id="svg1" version="1.1" viewBox="0 0 348.925 488.448"><g xmlns="http://www.w3.org/2000/svg" transform="rotate(180 174.463 244.224)"><g id="Underground_Level"><path id="Ground-U" fill="#333" d="M163.492 54.975V66.69h-1.101l-.002-4.394h-6.202v16.05h-.685v36.133h1.46v5.665h-1.46v6.29h1.014v1.012l-.03 2.625v1.133h-.984v1.4h1.103v1.551h-1.103v1.877h-.477v11.031h.387v1.403h.15v12.043h-.06v1.431h1.61v6.588h-1.61v5.873h.328v2.416h-13.535v-3.369H95.668v10.108h10.436v12.252H95.668v8.795h46.537v-1.043h11.688v-.717h1.908v1.908h-.299v6.201h1.342v5.606h-1.342v43.168h1.371v4.412h-1.371v17.023h-.328v9.986h.328v9.928h-.268v12.045h.268v1.162h24.564v-20.39h-.416v-2.864l.354-.004.004-4.617v-5.635h-1.4v-1.58h1.28v-4.949h-.208V264.14h-1.61v-4.084h1.641v-25.668h12.729v-8.737H179.71v-9.57h-1.64v-4.68h1.64v-43.586h-1.64v-4.054h1.64v-15.235h-.865v-2.056h.865v-26.176h-1.254v-5.813h1.254V98.77h20.809V87.709h-20.84v-3.37h.715v-4.53h-.268v-.895h.268v-4.562h-.684V54.975h-8.11z"/><g id="Floor-U" fill="#666"><path d="M155.502 296.097h-.209v-2.453l-.426.018-3.054.021h-2.631v5.723h-.297v-5.545h-4.98v8.437h4.98v-.328h.297v.3h3.726v-1.821h.865v-.596h1.52v-1.162h.209M186.357 267.328v.09h-6.468v.685h-.21v2.655h.24v.685h5.009v2.684h3.814v-2.715h4.95v15.711h-4.889v.688h-.27v-4.534h-2.443v-3.367h-5.455v.863h-.447v5.635h-.184v4.617l.213.004v1.551h8.316v-2.088h.27v.688h4.889v1.459h4.025v-8.11h5.217v-1.162h.209v-4.084h-.21v-1.162h-5.216v-1.7h.268v.686h7.9v-3.964h-7.9v.685h-.268v-6.5h-5.68zM142.443 167.486v6.112h-.148v1.521h.148v.69l3.877-.01 3.875-.01v-6.871h-3.488v-1.432h-2.13z"/><path d="M147.006 162.15v6.588h7.9v-1.342h1.639v-.357h.566v-2.98h-.566v-.329h-1.55v-1.58H151ZM180.188 146.648v2.92h-.477v9.602h6.021v-12.522h-2.773ZM142.414 127.002v3.428h-5.455v.865h-.238v-1.104h-4.772v3.786h1.074v.27h-.627v7.929h3.936v-7.93h-.686v-.27h1.075v-1.103h.238v1.104h9.658v-3.516h2.623v.295l.545.008h.79l.245-.008v-.297h4.592v-.387h1.074l.03-2.625h-1.104v-.445h-6.5zM154.965 113.87l-3.18.01-4.11.005h-.67V116h-.179v2.654h.18v1.938h7.959v-1.76h1.998v-3.07h-1.998v-.948z"/></g><path id="Tarmac-U" fill="#212121" d="M154.84 24.006c-.113 0-.225.003-.336.015a7.371 7.371 0 0 0-1.15.245 6.675 6.675 0 0 0-.897.312 6.284 6.284 0 0 0-.793.428 8.34 8.34 0 0 0-1.092.783 7.243 7.243 0 0 0-1.47 1.855c-.274.49-.47 1.02-.706 1.528a5.81 5.81 0 0 0-.496 1.877v33.049h6.051V33.33h2.356v21.611h-.157v23.373h-.66v5.493h7.592v31.535h-6.152v3.96h6.152v16.714h-8.102v11.043h8.102v16.504h-6.002v3.99h6.002v11.13H95.658v3.631h59.621v14.883H95.66v3.81h67.423v11.134h-6.242v3.15h6.242v4.14h-7.621v11.284h7.621v29.224h-6.242v4.022h6.242v17.133h-7.803v10.142h7.803v17.133h-6.512v3.781h6.512v2.131h9.047v-2.13h7.935v-3.962h-7.935v-17.164h7.875v-10.082h-7.875v-1.83h7.756v-4.861h-7.756v-10.32h5.955v-3.541h-5.955v-44.62h5.955v-3.99h-5.955v-44.199h5.926v-3.541h-5.926v-4.89h7.637v-9.573h-7.637v-30.305h6.316v-3.9h-6.316V97.248h28.37v-7.861h-28.37v-5.041h8.236v-9.961h-8.236l.123-13.848.252-2.1.879-2.832.554-.904h-9.267l-.594 2.494-.574 3.25v6.258h-1.111l-.01-17.773-.01-17.76c0-.462-.089-.924-.19-1.223-.13-.389-.25-.784-.41-1.162-.207-.49-.423-.98-.705-1.431a7.088 7.088 0 0 0-.795-1.024 7.019 7.019 0 0 0-.879-.812 6.717 6.717 0 0 0-.975-.622 8.523 8.523 0 0 0-1.47-.623 6.88 6.88 0 0 0-1.123-.218 6.36 6.36 0 0 0-.647-.043 13.598 13.598 0 0 0-.338-.006z"/></g></g></svg>