<svg xmlns="http://www.w3.org/2000/svg" id="svg1" version="1.1" viewBox="0 0 348.925 488.448"><g xmlns="http://www.w3.org/2000/svg" transform="rotate(180 174.463 244.224)"><g id="Second_Floor"><g id="Floor-2" fill="#666"><path d="M75.168 163.281v-2.34h-1.014v-12.103h-5.332l-.017-.127-.21-2.332-.206-2.303-.014-.097h10.46v16.962h-1.849v1.371h.06v-.775h1.788v4.084h-3.666ZM274.296 209.918v-7.274h-.239v14.249h-5.246v-.053l.047-.41.048-.356-.015-.507-.015-.507-.076-.363-.076-.363-.241-.576-.242-.576-.607-1.154-.608-1.153-.619-.918-.619-.918-.708-.805-.708-.805-.56-.511-.561-.512-2.53-2.002-4.189-3.295-1.657-1.293-.45-.416-.449-.415-.318-.404-.318-.404-.285-.523-.284-.523-.174-.515-.174-.515-.185-1.013-.185-1.014.019-1.162.019-1.163.058-.551.312-2.132.253-1.58.269-1.237.561-2.385.294-1.147 5.668-.008 5.668-.007v1.729h.209v-1.55h1.073v-.239h-12.598l2.109-9.218 2.236-9.771h11.204v19.019h-1.938v.209h2.236v-.203l1.795-2.749h1.574l-.001-.469.005-.877h-.089l-.005.288v.283l-1.967-.008v-2.436h1.967v.537h.09v-.835h4.858v5.038h1.342v-2.415h4.591v-3.607h4.888v-1.55h-.238v-1.311h.835v-.096l-.631-.004-5.604-.02h-4.974v-2.891h15.322v4.292h-1.818v1.58h3.994v19.011l-4.538 4.295-4.539 4.294-3.48.002-3.48.002v-1.401h-.179v1.282h-1.431v6.319h1.401v3.548h-1.401v4.411h-3.696zm0-9.652v-1.424l-.492-.487-8.42-3.059-.001-4.955v-4.956h-.209v10.157l8.577 3.081.306.295v2.773h.239zm5.306-.319v-.701h4.188l2.087-2.014 2.095-2.039-.575-.686h-1.468l-1.468-.001v-8.555h-5.187v-1.938h-1.341v.464l-1.109 1.721-1.108 1.72h-3.328l-1.554.777-1.554.777.022 1.645.026 1.649 4.252 1.467 4.439 1.531v3.631h1.404v1.252h.179zM121.771 238.68l-4.393-4.438v-9.211h-.209v2.087h-2.355v-.179h-.238v2.325l-1.289-.004-1.193-.017.097-.012v-2.381h-.119v-3.935h5.097v.477h.209v-11.507h12.46v3.428h-.089v.179h-3.283l-2.77 2.77-2.771 2.769v11.276l7.84 7.868h11.331l2.771-2.772 2.771-2.771v-3.281h.149v-.119h1.751l1.817.018.066.018.001 6.316.002 6.317-11.246-.002-11.246-.002zM193.72 280.954v-6.021h-8.048v-23.937h15.024v11.148h-2.981v6.797h.835v-.149h1.043v.149h1.163v-.149h1.073v.149h3.01v-.328h-1.252v-7.631h9.652l.018.071.017 3.815-.002 3.745h-1.219v.328h2.832v7.482h-2.116v.388h.566v1.997h-2.414v-1.997h.536v-.388h-2.146v.149h-1.312v-.149h-1.908v-3.488h-.655v.209h.447v3.965h-8.049v-3.965h3.458v1.789h-.894v.357h2.921v-.357h-1.162v-1.793l.924.004h.775v-.209h-6.129l-.006 2.937-.007 2.936h.269v-.537h5.008v6.141h-5.008v-.477h-.268v3.041h-3.995zM134.429 299.913v-3.011h2.743v-1.013h-.269v.745h-3.01l-.001-.768.001-3.13.001-2.362h-14.34v-.358h-.149v-2.355h.149v-.328h8.973v-.238h-.732l-.186-.187-.185-.187v-2.359l.213-.169.213-.168h3.986v-.209h-2.743v-.358h-3.309v-10.344h-2.905l-.216-.215-.217-.215.001-1.328.001-1.327.246-.213.246-.212 1.415.005 1.489-.006v-7.153l.25-.227.251-.228h23.078v25.011h-3.726v-3.19h-.298v3.19h-4.114v-3.19h-.298v3.19h-4.084v-3.19h-3.04v.209h.685v2.648l-.231.211-.231.211h-4.397v.238h6.26v5.903h.954v1.103h.269v-1.074h3.785v.954h2.832v-.387h5.128v8.496h-5.187v-5.754h-2.623v2.027h-.03l-.03.043v4.28h-6.618zm12.073-1.848v-1.342h-.238v2.683h.238zM116.722 328.739v-2.444h.567v-1.372h4.739v1.372h4.859v-1.372h11.947l.391-.406.391-.407v-11.885h1.341v-4.919h-1.341v-3.16h1.194l-.087-.984h2.619v5.068h1.729l.001 5.463v5.462l.357.235.358.235v6.786l-2.378 2.379-2.377 2.378-12.155.008-12.155.008zM151.123 351.812v-1.044h4.68v-.298h-1.998v-7.482h1.163v-.209h-3.219v-2.146l.514-.002.53-.006.449-.108.399-.003h.398l.571.1 1.677.014 1.602.005-.002.095h.073l-.007 5.794-.007 5.791h-.057v.542h-6.766zM139.34 439.739l-9.353-4.447-22.148-34.981v-20.806h6.811l6.812.022 1.818.022h1.819v-2.578h2.027v7.661h-3.19v-1.52h-.408l-.019.988-.02 1.715v.726l-.566.392 1.088.024h1.088v3.518h-11.864v10.057l6.737 10.631.119-.089-2.147-3.366 7.97-5.064 1.548 2.375.521-.294 6.4 10.077-.492.303 1.759 2.862-7.966 5.03-7.029-11.057-.147.085 11.48 18.178 9.152 4.385 3.17-6.732 1.877-3.987 3.234 1.528-.852 1.781-.042.082.149.057.482-.18 2.948 1.381.03.024.239-.433-1.544-.745 1.365-2.91 4.797 2.263-8.293 17.472z"/></g></g></g></svg>