<svg xmlns="http://www.w3.org/2000/svg" id="svg1" version="1.1" viewBox="0 0 348.925 488.448"><g xmlns="http://www.w3.org/2000/svg" transform="rotate(180 174.463 244.224)"><g id="First_Floor"><g id="Floor-1" fill="#666"><path d="M75.157 163.939v-1.67h1.76v1.342h.119v-2.624H69.94l-.75-8.563-.735-8.475 2.107-.015 2.091.001v-.716l-4.323.001v-23.105h-6.797v-7.334l15.1-.003 3.412 3.267v6.447l.001 6.447h-.566v.894h3.31v-.297l-.783-.008-.783-.008-.007-3.793-.008-3.794h4.71v.596l3.004.006 4.71-.004 1.707-.011v1.112h.21v-1.103h2.563v-13.117h13.266v.059h18.633v.686h.269v-.686h6.35v1.849h.328v-1.789h9.659v.055l.492 6.199.492 6.144v5.534l-.299 3.265-.312 3.301-.013.038h-10.049v-1.759h-.268v1.759h-1.014v.179h.686v7.93h-3.965v-7.93h.656v-.179h-2.743v-.626h-.268v.656h-3.995v9.838h-.656v.268h1.103v3.697h.238v-.686l1.782-.007 1.781-.008.009-.082.01-.082h2.411v-.089h4.419l4.42-.001v6.566l.387-.005.402-.021.023-3.21.008-3.328 1.82-.001 1.819-.001-.448 4.806-.414 4.523-.631 1.053-.632 1.052-1.346.634-1.346.633h-19.542v-2.713h.327l.006-6.352 4.855.002v-.954h-.358v.523l-4.8.01v-1.427h-.238v.834h-2.058v-.447h-.327v-4.084h.327v-.448l1.022.008 1.021.008.008.343.008.344.119-.012.118-.011v-1.07l.157.006.536.002.38-.005v-.268h-.566v-9.838h-5.784v-3.936h13.625v.656h.268v-5.247l-6.201.002v-7.127h6.201v-5.664h-.268v.685h-14.221v8.139h-3.965v-8.049l-.454-.002.002.061h-8.939v13.625h-6.887v-1.461h-.209v1.282h-9.42v4.591h7.77l-.002 2.594-.002 2.593H85.92v2.854l-2.713.003-2.713.002v-.533h-.686l.003 4.056-2.597-.002v.716h1.58l.008 1.498v7.513l-.008 6.014h-3.756v.105l1.87.008 1.885.025.024 3.263.008 3.247h-3.668zm55.213-10.047v-.387l-3.25-.002v.772l3.25.004zm8.825.388v-.805l-3.026.015-.016-3.116h-.745v3.22h.567v.722zM80.49 136.183h-.682v1.223h.68zm.004-4.65h-.686v1.043h.686zM273.47 173.166v-10.598h-9.57v-3.071h-.298v3.071h-7.93V151.06h7.93v3.13h.298v-3.12l3.153-.02 4.755-.02h1.602l.001-.246.298-48.527h-.358v.894h-.924v.447h-3.936v-.417h.12v-.417h-.716v.417h.119v.417h-52.41v-27.36l-1.26-1.776-1.259-1.775-3.063-.002-3.064-.002.001-2.571.001-2.572 2.693-2.713 2.692-2.712 34.081-.011 34.08-.011v7.58l-4.271-.001h-8.221v9.152h-4.293v4.383h2.356v2.445h-2.356l-.005.782-.005.976.005 3.123.005 2.93h4.293v3.636h-.119v.418h.716v-.418h-.12v-1.52h3.906v.268h.924v1.133h.417v-1.133h4.562v2.467l-.001 22.717.001 20.25h10.911v3.161h13.443l-.003 1.423.002 10.658.003 9.234h5.098v-16.873h4.502v9.958l-.001 9.958-1.006-.002h-8.324v.507h-9.451v3.101h-15.025v1.788h.411l.018.047.02 2.72.002 2.719-.002 2.064-.002 2.02h-5.426zM226.679 202.423l-4.179-2.004 1.943-4 2.034-4.143 1.176-.773 1.176-.772 1.351-2.794 1.351-2.794 3.898 1.897 3.175 1.552-.008.038-3.845 7.916-3.867 7.878zM45.97 257.848v-4.263h8.581l.003.228.02.246h.397l.018-.716v-.684l6.052.002v9.448l-7.535.001-7.535.001zM185.881 279.522v-19.408h45.434l.004.052-.005.082-.018.119-.028.209-.025.194-.027.119-.031.209-.032.215-.002.083-.016.076-.036.043.018.089-.01.105-.027.098-.016.17-.105.656-.136.939-.102.701-.089.581-.046.343-.029.209-.036.223-.017.124-.027.194-.045.279-.022.164-.028.149-.039.238-.029.239-.043.253-.046.358-.045.372-.044.313-.047.299-.037.223-.027.095-.023.119-.007.174-.032.128-.007.112.019.073h-.066l.009.097-.016.136-.005.111.018.073h-.067l.019.104.02.105h-.07l.018.088.017.088-.031.02-.032.02.017.084.017.085-.032.02-.019.105-.012.086-.025.045v.045h-.103l-.119-.028-.018-.028-.103.017-.104.016v-.073l-.075.018-.13-.01-.29-.043-.275-.016-.039-.003.022-.034.021-.034-.08.02-.08.02-.275-.045-.588-.092-.656-.09-.581-.086-.634-.094-.395-.077-.024-.013-.44-.041-.475-.07-.223-.033-.373-.048-.313-.042-.388-.059-.335-.046h-.052v3.488h.522l.521.022 1.081.019 1.111.019.283.039.566.038.328.041.76.073.761.077.342.076.343.074.276.059.261.059.037.022.336.055.313.073.357.074.358.074.239.056.232.063.231.078.222.072.223.075.207.071.2.069.233.077.196.063.195.065.224.077.222.069.164.059.306.109.186.071.029.031.03.013.03.012.104.067.105.057.119.073.119.076.073.04.154.093.134.074.107.056.166.092.112.056.223.139.224.141.044.023.045.03.022.026h.059l.089.059.13.074.146.079.1.06.223.142.259.208.103.067.017.03-.018.029.044-.017.044-.016.033.061.078.062.061.045.141.102.205.129.06.097.016.003.038-.022.315.23.416.33.131.1.031.039.104.076.104.074.064.065.064.059.063.073.122.12.142.149.082.097.06.083.059.04.06.057.06.109.029.032.082.055.217.243.245.263.082.113.06.057.06.041.134.159.134.157.119.131.12.146.056.064.227.307.173.313.04.051.04.057.048.082.075.1.086.151.111.193.09.144.037.082.03.043.03.04.06.094.059.076.133.225.119.223.035.039.047.019-.017.045-.018.046.043.016.093.094.059.177.008.098h-.029l-.011.03-.015.03-.016.028-.041.082-.074.143-.047.099-.03.063-.023.074-.023.042-.025.087-.052.067-.011.03-.015.03-.015.03-.015.03-.015.03-.015.029-.016.028-.015.037-.039.06-.046.095-.02.075-.026.072-.025.062-.018.019-.019.029-.014.03-.017.028-.028.072-.045.088-.046.082-.031.078-.015.04-.014.027-.022.067-.041.055-.022.082-.051.067-.011.03-.018.029-.017.02-.016.063-.046.105-.031.08-.031.06-.038.055-.01.037-.017.028-.015.029-.015.03-.015.03-.015.03-.017.026-.027.063-.029.061-.015.043-.031.077-.031.058-.015.027-.032.045-.047.018.017.044-.014.045-.013.027-.031.075-.054.089-.045.088-.038.046.022.036.022.036-.039-.025-.04-.024.019.049.019.05h-.03l-.013.03-.015.03-.014.029-.015.03-.015.03-.015.03-.017.027-.014.038-.039.057-.072.133-.066.049-.031-.021-.029-.015-.025-.018-.064-.04-.08-.04-.04.015v-.038l-.018-.02-.052-.01-.106-.088-.114-.059-.36-.184-.543-.318-.233-.159-.038-.008-.027-.013-.104-.063-.104-.064-.03-.011-.03-.012-.074-.05-.075-.019.02-.031.019-.032-.049.019-.05-.006-.097-.065-.12-.078-.066-.039-.468-.249-.546-.319-.141-.101-.022-.008-.065-.036-.089-.044-.025-.018-.028-.016-.037-.009-.219-.14-.223-.136-.142-.072-.127-.079-.029-.01-.03-.011-.105-.064-.104-.06-.104-.063-.105-.057-.119-.073-.119-.077-.104-.057-.105-.064-.03-.011-.029-.015-.03-.015-.03-.01-.104-.064-.105-.057-.141-.091-.455-.25-.329-.203-.127-.069-.11-.07-.105-.061-.104-.067-.03-.012-.03-.01-.104-.064-.104-.064-.03-.011-.03-.009-.097-.068-.127-.064-.141-.097-.112-.06-.142-.075-.223-.121-.082-.062-.03-.01-.03-.007-.205-.136-.218-.11-.015.037-.639 1.158-.688 1.208-.118.213-.107.126-.643-.354-.711-.416-.231-.137-.135-.077-.21-.119-.224-.119-.447.297-.417.278-.038.027-.654.482-.639.436-.099.071-.947.686-.885.615-.088.068-.158.111-.183.126-.129.082-.17-.081-.149-.104-.04-.023-2.494-1.421-2.498-1.46-.052-.021-.019-.017-.03-.018-.03-.01-.074-.047-.075-.047-.127-.093-.141-.083-.125-.074-.127-.051-.082-.056-.104-.061-.039-.033v-.033l-.044.017-.044.017-.023-.04-.191-.133-.191-.07-.004-.013-.008-.044-.028-.01-.009-.809-.01-.809.038.015.037-.019-.037-.033h-.038v-.224l-.094-.009-.094-.009-.019.248-.011 1.969.01 1.722h-5.382v-2.475h3.131l.003-2.556v-2.579l.919-.022h.921l.016.082.097.583.081.5.12-.009.121-.008.066-.403.088-.492.028-4.713.008-4.624-.138.011-.78.058-.775.057-.343.027-.365.036-.157.018-.003 1.39.002 3.812.005 2.423h-1.196v.149h-1.312v-.149h-2.146v.149h-1.312v-.149h-1.342l.001-.962-.01-2.934-.012-1.973.025-.04.026-.013.04-.007.06-.014.019-.013.112-.07.134-.032.023-.024.022-.024.142-.056.141-.067.193-.081.177-.08.026-.207.021-.202-.085.001-.28-.012-.536-.038-.626-.023-.708.014-.425.04v.024l-.224-.02-.223-.021v.089l-.431.021-.466-.001-.037-.022.023.036.022.037-.189-.002-.435.015-.246.041-.425.047-.634.032-.447.028-.253.044-.447.044-.652.028-.238.037-.02.029-.596.037-.865.05-.342.011-.233.018-.159.018.006 1.034.006 1.034-.138.009-.138.009v.205h.357v1.342h.179v-.686h7.99v3.935h-7.99v-.626h-.169l-.02.47-.019.879v.41h5.455v.895l1.051.001 1.625-.001.574-.003v4.266h-3.25v1.252h-.057l-.072-.037-.015-.038-.002.038-.003.037h-5.247v14.31h-9.063v-.239h-.179v.239h-2.623zm2.802 17.351v-.239h.03l.03-.059-.026-.06h-.026l-.001-2.221-.002-2.221h.144v-.268h-.328v5.306h.179zm6.711-2.065.001-2.72-.004-4.938v-4.074l-.045-.017-.044-.017-.001 3.822.001 4.382.002.559h-.628v.268h.626v4.442h-.507v.149h.596zm-4.415 1.767-.026-.06h-.027l-.001-2.221-.001-2.221h.234v-.268h-1.163v.268h.741l-.001 2.221-.002 2.221h-.41v.119h.656zm2.242-.813-.004-2.28-.01-1.409h.276v-.268h-1.163v.268h.682l-.002 2.221-.001 2.221h-.47v.119h.686zm-2.987-8.161v-.298h-3.906v.596h3.906zm5.187-10.881v-4.234h.358v-.208h-.358l-.003-.962-.023-1.218-.019-.256-2.623-2.672-2.644-2.666-.466.425-.446.417.266.27.245.291.016.02 1.501 1.484 2.638 2.662 1.149 1.202.01.014.152.124.118.134.003 4.084.005 4.703.002.619h.119zM117.223 324.256v-1.685h6.827v-.238h-6.842l-.004-3.844-.003-3.843.063-.017 3.052-.017 2.988-.001v-.238l-3.003-.004-3.048-.007-.045-.004-.007-3.913-.006-3.913 3.07.007 3.069.008.001-.686-.001-1.542-.001-.857h11.509v.685h.298v-.775h.239v-.145l.018-.239.019-.093h-.98l-.001-2.982-.001-2.983 1.381.009 1.381.009-.002-.499-.002-.498-.054-.017-.132.002-.077.019v.68h-3.041v-6.231l-4.241-.008-6.715-.01-2.944-.007-.47-.005v-3.041h4.144v-.328h-.732l-.185-.187-.186-.187.001-3.547v-3.547l.228-.201.227-.202h2.167l.224.213.224.212v5.299h.209v-5.233l.245-.245.246-.244 2.117-.001h2.601l.485-.001v-.149h-2.123l.01-2.683.013-2.679h-.048l.001.339v.343h-2.415v-2.236h2.415v.656h.053l-.016-1.401-.016-1.402h4.003v4.532l.001 4.531h-1.103v.149l.425.001.424.001.172.166.171.165v4.706h.445l.001-7.245.001-7.244h-8.081l.002-1.036.001-2.4-.001-1.364h-.298v.537h-2.676l-.226-.202-.225-.201.001-1.297v-1.296l.212-.187.212-.186h.794v-.179h-2.519v-.119h-1.382v.119h-1.525v-3.489l.753.008.772.008v.134h1.382v-.134l2.258-.008 2.259-.007v.149h1.371v-.149h.835v-2.564h-.775v-5.933h.774l.008-1.319.008-1.319.067-.01.067-.009v-1.337h-.149v-1.908h.954v-.328h-1.965l-9.394-9.447v-1.942h-.286l-.013.537.003.536h-4.95l.002-4.68.002-4.681h4.944l-.007 3.277-.008 3.277.145.01.155-.008.02-3.265-.017-4.61-.026-1.364h3.465v-.447h-3.459v-9.063h12.343l-.002 1.766-.001 1.767 8.013 7.996 8.014 7.997h1.781l1.781.001v12.343h-18.841v.328l.276.002.477-.002.201-.004v1.912h-.147l-.008.685-.009.686h.164l-.007 2.124-.008 2.124-.067.01-.067.009v1.363l.067.01.067.009.008 3.317.007 3.317h-.149v1.371h.149v.954h-4.442v-.117l-.686-.009-.685-.008v.134h-1.103v.179h1.013v.656h.298v-.656h22.837v7.781h.536v6.35h-.536v10.822h-22.473l-.13-.108-.196-.18-.067-.073v-.921h-.209v.928l-.156.177-.156.177h-.553v.328l4.226.004 5.59-.003 1.364-.008v.789l.02 2.94.02 2.151h.944v1.133h.253l-.008-.485-.008-.484 1.943-.001h1.942l-.019.358-.019.359 3.948-.01 3.947-.009.002 4.131.002 4.131h-5.311l.01-.134.011-.135h-1.289l-1.308-.007-.014.414.005.421-.499.004-.503.011.009.238.013.231h.53v21.719l-.425.425-.426.424h-22.492zm15.115-7.893-.001-6.827.001-.619h2.766l.018-.047.018-1.774v-1.727h-.298v3.28h-2.504v-2.722l-.273.019-.626.02h-.353v.253l.447-.006.447-.006v8.063l-.001 8.063h-5.753v-2.147h-.194l.008 1.073.009 1.074h-.717v.238h7.008zm-6.097-.351v-1.162h-.224l-.002 1.11-.012 1.163-.01.052h.248zm0-8.742v-1.051h1.327v-.224h-1.521v2.326h.194zm11.97-4.069.019-.239.017-.067h-1.057l.018.093.019.239v.145h.984zM121.68 226.49l-.33.346 12.757 12.8.437-.435zM151.631 352.533l-.011-.127-2.748-.001-2.761.006v-.832h-.268v-1.819h.283l.022-8.734h5.478v-.239h6.112v11.866h-6.118zM141.456 386.654l-1.427.135-1.416.146h-10.099l-10.099.001v3.488h-5.187v.835h-.537v-1.282h-4.889v7.364h.507v.089h.238v.388h-.238v.089h-.507v2.357l14.491 22.903 7.654 12.11 1.071.5 1.091.499.109-.179.099-.193.086.034.054-.109.062-.09.161.066.135.091-.045.112-.045.086.046.026.045.025-.09.199-.09.223 6.335 3.032.238.102 1.07-2.205 1.029-2.215-.568-.273-.557-.263.117-.233.13-.233.362.164.351.165 1.147-2.343 1.099-2.294 3.165 1.475 6.758-14.28 1.825-3.905 1.616-2.59-.558-.342-3.546-2.172-2.988-1.829-3.618-5.679-3.619-5.678-.479-4.154zm-8.447 4.391.013 2.327-.054.668-.252.827-.593 1.153-.745.979-.84.654-.686-1.055.666-.542.562-.732.451-.947.164-.961-.014-2.364zm-20.318 5.133h.537v.835h2.385v.507h.715v.358h-.536v1.967h2.415v-1.967h-.567v-.358h.686v-.507h1.997v.507h.68l.015.039-.001.119-.015.08h1.319v-.238h.715v-.507h2.295l1.819 2.918-1.52.979 1.582 2.46-.385.238-.141-.158-2.159 1.375-.683.455-.211.225-.233.372-.22.522-.095.288-.013.43-.012.43.035.175.119.365.264.498.759 1.223.581.914-.198.137-1.316-2.07-1.356-2.113-1.908 1.193-1.931 1.215.708 1.18.73 1.158-.125.079-6.82-10.761v-2.862h-.477v-.06h-.239v-.388h.239v-.089h.566v-.581zm27.631 1.339.74 1.147-1.101.711-.74-1.148zm-3.642 2.291.74 1.148-1.101.71-.74-1.147zm-3.641 2.31.74 1.147-1.102.711-.74-1.147zm12.612 3.802.74 1.147-1.101.71-.74-1.147zm-3.659 2.291.74 1.147-1.101.711-.741-1.147zm-3.642 2.31.74 1.147-1.101.71-.74-1.147zm-12.794 1.405 1.251 1.961 1.937 3.039.64 1.004.451.407.371.214.522.201.253.069.537-.003.537-.003 3.115-1.954-.101-.144.385-.266 1.555 2.504 1.577-.942 1.81 2.811-.986 2.096-.327-.17-.085.025-.148.294-.128.279-.25-.105-.302.609-.257.585.089.063.089.05-.121.299-.149.383.42.202-.833 1.749-.446-.199-.141.31-.165.324-.112-.031-.101-.046-.285.577-.273.592.12.068.119.054-.167.315-.166.315.434.208-1.003 2.09.41.222.37.192-.124.233-.143.232-.461-.195-.58-.229-.104.229-.104.229-.057-.018-.056-.018-.038.091-.056.088-.138-.063-.13-.072.027-.104.039-.094-.05-.028-.049-.027.105-.209.105-.209-.277-.13-1.29-.608-1.014-.477-2.75-4.347-8.886-14.008.188-.096.763 1.222.778 1.215 1.156-.716 1.219-.749.059.136-1.157.702-1.216.761 4.511 7.099 3.831-2.47-3.231-5.104-1.234-1.929-.268.166-.301.166-.091-.107.294-.179.293-.179-.101-.162-.102-.178zm19.971 3.16.853.142.622.249 2.078 1.048-.598 1.185-2.111-1.064-.933-.281-1.048-.018-.906.178-.782.355-.639-1.083.959-.462 1.208-.231zM264.109 459.753v-3.98h.596v-.268l-15.562-.015v6.054l-6.38.004-6.38.003v-12.753h12.745l.007 1.793.017 1.803 3.928.011h3.993v-.179h.686v-.507h-.686v-2.116h2.981v2.116h-.685v.507h.685v.179h4.434l4.27-.001.001 1.551.001 1.55h-1.431v.269h.658l-.002 7.96h-3.876z"/></g></g></g></svg>