<svg xmlns="http://www.w3.org/2000/svg" id="svg1" version="1.1" viewBox="0 0 348.925 488.448"><g xmlns="http://www.w3.org/2000/svg" transform="rotate(180 174.463 244.224)"><g id="Third_Floor"><path id="Floor-3" fill="#666" d="m127.487 416.828-3.182-4.989-1.541-2.44 3.748-2.343 3.825-2.367-1.026-1.565-1.025-1.594 1.28-.818 1.281-.788-.953-1.487-.872-1.364h-5.956v.477h-.477v.298h-.268v.059h.566v1.998h-2.445v-1.998h.567v-.059h-.239v-.298h-.477v-.477h-1.937v.477h-2.773v-.477h-2.176v-5.575h9.45v-4.562h1.878v-.298h-.804v-3.518h-8.765v-3.576h11.954v7.094h-.626v.298h6.738v3.101h.447v-2.749l2.017-2.039 2.017-2.039h8.726v3.473l.044.864.091 1.193.148.99.102.662.177.679.227.885.05.205-12.809 3.871-.371-.586-.371-.587-.225.021-.235.031 2.441 3.911 2.462 3.912.145-.06.194-.116.059-.045-1.776-2.813-1.751-2.836 12.454-3.797.214.503.276.745.301.744.201.432.165.359.223.462.212.408.143.254.13.233.29.512.265.429.042.064.521.782.147.229.743.965.733.911.316.339.396.43.33.381-8.445 9.9-3.523-5.563-.182.119-.182.12 4.342 6.897-4.094 2.345-.911-1.375-2.524 1.554-2.002-3.112-2.762 1.766.854 1.345-4.694 2.978z"/></g></g></svg>