<?xml version="1.0" encoding="UTF-8"?>
<svg id="Discord.gg-_x40_marazm" xmlns="http://www.w3.org/2000/svg" version="1.1" viewBox="0 0 1240.66 1036.62">
  <!-- Generator: Adobe Illustrator 29.8.3, SVG Export Plug-In . SVG Version: 2.1.1 Build 3)  -->
  <defs>
    <style>
      .st0 {
        fill: #363636;
      }

      .st1 {
        fill: none;
        stroke: #987f00;
        stroke-width: 4.44px;
      }

      .st2 {
        opacity: .7;
      }
    </style>
  </defs>
  <g>
    <path class="st2" d="M714.2,815.08v-136.2h7.9v-272.7h-8v-134.2h-245.5v133.8h-55v110.2h-16.5v53.3h17.1v109.7h54.4v136.1h245.6ZM613.2,624.28h-8.2l-5.7-5.7v-8.2l5.7-5.7h8.2l5.7,5.7v8.2l-5.7,5.7ZM612.7,551.28h-7.4l-2.5-2.5h-28.6l-2.8-2.8v-7.2l2.9-2.9h28.7l2.6-2.6h7.2l2.6,2.6h28.4l3,3v7.1l-2.8,2.8h-28.6l-2.7,2.5ZM694.2,548.78h-30.4l-2.8-2.8v-7.2l2.9-2.9h30.2l3,3v7.1l-2.9,2.8ZM613.3,479.88h-8.2l-5.7-5.7v-8.2l5.7-5.7h8.2l5.7,5.7v8.2l-5.7,5.7Z"/>
    <path class="st0" d="M700,676.88v-7.8l9.5-5.1v-41.9h1.7v11.4h9.4v-39.2h-9.4v13.1h-1.7v-14.9h11.1v-33.7h7.7v-5.1l2.2-4.2v-13.6l-2.2-4.2v-5.5h-7.7v-33.7h-11.1v-16.6h1.7v14.8h9.4v-39.1h-9.4v12.5h-1.7v-25.7h1.7v8.3h9.4v-39.9h-18.5v8.4l9.1,5v5.6h-1.7v-4.5l-9.1-5v-9.5h-31.1v11.7h-5.5v-1.7h3.7v-10h-27.3v10h4.6v1.7c-28.8,0,39.7,0-41.1,0v-11.7h-9.9v5.7h-1.7v-5.7h-34.9v3.3h-1.7v-3.3h-23.4v9h7.9v-3.2h-4v-1.7h5.7v4.9h13.6v-.8l.1-.5v-1.6h1.7v2.1h3.7v9h3.3v-7h-.8v-1.7h14v1.7h-9.9v14.1h6.9v-12.5h10.6v12.5h7.1v-14.1h-9.9v-1.7h9.9v-.7h1.7v14.7h45.9v1.7h-6v13.4h14.4v-13.4h-5.6v-1.7h7.3v34.8h-8.3v-1.7h6.6v-13.5h-29.5v4.7l1.2,1.2-1.2,1.2-1.2-1.2h-14.7l-11.6,11.6h-24.1v9.9h-4.6v-1.7h2.9v-8.2h-3.4v4.4h1.6v1.7h-5v-1.7h1.6v-4.6h-3.8v8.2h3.5v1.7h-3.5v23.3h2.7v1.7h-2.7v83.1h3.7v1.7h-3.7v22.6h2.9v1.7h-2.9v8.1h4.1v-4.7h-1.2v-1.7h4v1.7h-1.1v4.7h2.6v-8.1h-2.8v-1.7h4.5v9.8h3.5v-.6h1.7v2h20.1l11.4,11h12.6l2.8-2.8,1.2,1.2-.8.8v7.7h29.5v-14.8h-7.5v-1.7h9.2v34.9h-7.3v-1.7h5.6v-14.1h-14.5v14.1h4.4v1.7h-44.6v15h-1.7v-1.6h-9.3v-1.7h9.3v-15.4h-7.1v13.6h-10.3v-13.6h-7.2v15.4h9.8v1.7h-14v-1.7h.6v-6.9h-3.3v7h.6v1.7h-4v1.6h-1.7v-2.5h-22.5v8.3h7.1v-2.9h-4.1v-1.7h5.8v4.6h13.7v-3h1.7v3h34.9v-3h1.7v3h10.5v-10.2h34.1l.5-.1h6.9v1.7h-5.4v8.6h26.8v-8.6h-16.9v-1.7h18.7v10.3h31.2ZM695.7,670.88h-22v-7.9h22v1.7h-20.3v4.4h20.3v1.8ZM697.5,656.68h-10.4v-1.7h8.6v-10.4h-12.3v11.5h-4.5v-11.5h-13v10.4h8.7v1.7h-10.3v-23.7h1.7v9.5h9.6v-5.9h1.7v5.9h1.7v-20h-13v6.8h-1.7v-21.6h19.3v11.5h12.3v-9.6h-7.7v-1.7h9.4v20.7h-1.7v-6.5h-12.3v20.4h12.3v-8.9h1.7l-.1,23.1ZM673.6,638.48h-1.7v-12.5h-3.3v-1.7h5v14.2ZM677.3,633.48h-1.7v-8.4h1.7v8.4ZM624.4,624.88l-1.2-1.2,2.5-2.5h8.8v1.7h-8.1l-2,2ZM613.2,624.28h-8.2l-5.7-5.7v-8.2l5.7-5.7h8.2l5.7,5.7v8.2l-5.7,5.7ZM711.2,616.98h-1.7v-4h1.7v4ZM571.6,610.18h-1.7v-3.1h21.6l1.6-1.6,1.2,1.2-2.1,2.1h-20.6v1.4ZM649.3,607.28h-23.2l-10.3-10,.1-26.1h1.7v2.3h28.5v-15h-7v-1.7h17.9v1.7h-7.6v9.7h21.1v-9.7h-6.5v-1.7h25.1l1.9,1.9-1.2,1.2-1.4-1.4h-11.8v7.7h.6v1.7h-.6v24.5h.6v1.7h-27.9v13.2ZM601.2,599.68l-1.2-1.2,1.2-1.2v-10.5l-5.1.1v9.2h-11.8v-1.6h-6.1v1.6h-8.2v-6.6h1.7v4.9h4.8v-4.9h1.7v3.3h6.1v-3.3h1.7v4.9h8.3v-7.5h-8.3v.7h-1.7v-.7h-6.1v.7h-1.7v-.7h-4.8v.7h-1.7v-1.6h-2.1v-1.7h2.1v-17.2h1.7v16.4h9.5v-3.6l.1-.5h1.7l.1.5h2.5v-14.5h-2.7v1.2h-1.7v-2.9h4.4v-5h-14v5.1h-1.7v-6.8h33v19.6h-1.7v-17.9h-11.2v24.8l11.2-.1v-1.9h1.7v16.5l-1.7,1.7ZM697,594.18h-17.1v-1.7h.6v-4.3h1.7v4.3h1.9v-4.3h1.7v4.3h9.4v-5.9h-14.8v-7.5h1.7v5.7h1.9v-5.7h1.7v5.7h9.4v-7.4h-14.8v-7h1.7v5.3h1.9v-5.3h1.7v5.3h9.4v-7.7h-16.3v-1.7h16.3v-.6l-1.1-1.1,1.2-1.2,1.6,1.6.3,29.2ZM583,577.08h-1.7v-8.9h1.7v8.9ZM617.6,568.18h-1.7v-11.4h8.1v1.7h-6.4v9.7h0ZM633.4,558.58h-3.8v-1.7h3.8v1.7ZM612.7,551.28h-7.4l-2.5-2.5h-28.6l-2.8-2.8v-1.5h21.9v-4.3l-21.9-.1v-1.2l2.9-2.9h28.7l2.6-2.6h7.2l2.6,2.6h28.4l3,3,.1,1.2h-21.6v4.4l21.5.1v1.4l-2.8,2.8h-28.6l-2.7,2.4ZM663.8,548.78l-2.8-2.8v-1.5h21.4v-4.4h-21.4v-1.2l2.9-2.9h30.2l3,3v7.1l-2.8,2.8h-30.5v-.1h0ZM689.1,528.38h-50v-1.7h7v-5h-1.6v-1.7h1.6v-8.6h-2.5v5.5h1.4v1.7h-4.3v-1.7h1.2v-5.5h-2.6v8.6h3.2v1.7h-4.9v-3.2h-8.9v-2.3h-7v-1.7h7v-1.5h1.7v3.9h7.2v-5.5h-14.3v2.1h-1.7v-2.1h-4.3v15.4h7v1.7h-8.7v-40.5l9.7-9.9h8.1v1.7h-7.4l-8.7,8.9v18.6h6.8c0-15.7,0,8.6,0-14.5h3.5v1.7h-2.4v8.1h2.8v-4.6h-1.2v-1.7h4.1v1.7h-1.2v4.6h2.9v-8.1h-3.2v-1.7h5.6v5.7h2.6v1.7h-2.6v7.1h13.4v-7.1h-7.9v-1.7h9.6v3.6h7.5v5.2h14.3v-3.5h-.8v-1.7h.8v-9.2h-9.3v-1.7h14.6v1.7h-1.1v22.8h19.6v-6.3h-10v4.4h-1.7v-4.6h-2.5v4.6h-1.7v-6.3h15.9v-7.4h-10v5.2h-1.7v-5.2h-2.5v5.2h-1.7v-6.9h15.9v-5.6h-10v3.7h-1.7v-3.7h-2.5v3.7h-1.7v-5.4h17.7v28.5l-1.5,1.5-1.2-1.2,1-1v-1.5h-7.8v.7h-1.7v-.7h-11.7v2.9h11.7l.2-.4h1.5v2.1h-13.4v4.7h13.8l1.4-1.4,1.2,1.2-1.9,1.9ZM633.4,528.38h-3.3v-1.7h3.3v1.7ZM603.2,528.38h-33.6v-7h1.7v5.3h14.3v-5.9h-3.6v-2.4h1.7v.7h1.9v-14.8h-1.8v.9h-1.7v-3.9h-10.8v16.4h-1.7v-16.4h-1.6v-1.7h3.7v-.8h1.7v.8h2.9v-2.3h1.7v2.3h16.3v-8.3h-8.7v5h-1.7v-5h-5.8v2.8h-1.7v-2.8h-2.9v5h-1.7v-6.7h24.3v10.1h5.4v-10.8l-2.2-2.2,1.2-1.2,2.7,2.7v15.6h-1.7v-2.3h-5.4v9.2h-2.2v3.6h-1.7v-3.6h-1.5v-1.7h3.8v-7.5h-5v12h1.2v1.3h-1.2v11.8h12.2v-18.8h1.7l-.2,20.6ZM583.8,516.18h-1.7v-8.9h1.7v8.9ZM668.9,503.68h-8.6v-1.7h8.6v1.7ZM657.2,492.68h-9.1v-13h-8.9v-1.7h10.6v13h7.4v1.7ZM613.3,479.88h-8.2l-5.7-5.7v-8.2l5.7-5.7h8.2l5.7,5.7v8.2l-5.7,5.7ZM593.1,479.98l-1.5-1.5h-21v-3.3h1.7v1.6h20l2,2-1.2,1.2ZM679.4,477.48v-11.5h-14.2v-2.5h14.2v-14.9h-4.9v-2.1h1.7v.3h3.2v-3.9h-3.2v2h-1.7v-2h-7.7v9.5h-1.7v-23.6h10.3v1.7h-8.5v9.4h12.6v-11.1h3.4v11.1h13v-9.4h-8v-1.7h9.8v23h-1.7v-8.9h-13v20.5h2.7v-10.8h-1.2v-1.7h3v12.6h8.6v-6h1.7l-.1,20h-18.3ZM711.1,472.08h-1.7v-4h1.7v4ZM636.2,463.88h-10.1l-2.3-2.3,1.2-1.2,1.8,1.8h9.4v1.7ZM711.1,434.98h-1.7v-6.1h1.7v6.1ZM696.2,421.48h-22.2v-7.9h22.2v1.7h-20.6v4.5h20.5l.1,1.7ZM660.3,418.38h-10v-1.7h10v1.7Z"/>
    <path class="st1" d="M696,666.98h-20.6M660.8,542.18h21.5M646.8,542.28h-21.6M571.4,542.18h21.9M696,417.48h-20.4"/>
  </g>
  <path d="M0,0s0,.01.01,0c0,0,0-.01,0-.02C.02,0,0,0,0,0Z"/>
  <path d="M1240.6,1036.57s.06,0,.06.02c0,.01-.02.03-.06.04"/>
</svg>