<?xml version="1.0" encoding="UTF-8"?>
<svg id="Discord.gg-_x40_marazm" xmlns="http://www.w3.org/2000/svg" version="1.1" viewBox="0 0 1240.66 1036.62">
  <!-- Generator: Adobe Illustrator 29.8.3, SVG Export Plug-In . SVG Version: 2.1.1 Build 3)  -->
  <defs>
    <style>
      .st0 {
        stroke-width: 10.67px;
      }

      .st0, .st1, .st2, .st3 {
        fill: none;
        stroke: #987f00;
      }

      .st1 {
        stroke-width: 3px;
      }

      .st2 {
        stroke-width: 2.6px;
      }

      .st3 {
        stroke-width: 4.44px;
      }

      .st4 {
        fill: #363636;
      }

      .st5 {
        fill: #555;
      }
    </style>
  </defs>
  <g>
    <path d="M582.29,826.08v-10.9h131.5v-136.7h8v-272.5h-7.9v-134.1h-131.6v-12.8h-143.4v127.2h-37.8l-4.8,20.6v272.8l4.8,19.2h37.8v127.2h143.4Z"/>
    <path class="st5" d="M413.79,406.28h54.8v-134.5h112.4v-11.5h-140.9v16.3h-1.2v11.8h1.2v99.1h-26.5v-1.2h-11.5v1.2l-4.5,20v108.6h16.2v-109.8h0ZM581.09,814.88h-112.6v-136.2h-54.7v-110h-16.2v110.8l4.5,18.1v1.2h11.5v-1.2h26.6v99h-1.2v12h1.2v16.2h140.9v-9.9h0Z"/>
    <path class="st4" d="M519.83,407.45c-17.05.01-34.09.02-51.14.04v45h-14.2v-1.7h12.5v-13h-24.4v7h-1.7v-8.7h26.1v-28.5h-38.2v-1.2h-8.4v1.2h-5.2v109.8h-3.6v-1.3h-9.8v1.3h-3v16.4h6.8v3.2h-1.1v-2h-5.7v13.9h5.7v-8.2h1.1v9.7h-6.8v17.1h3v1.2h9.8v-1.2h3.6v110h5.1v1.3h8.4v-1.3h38v-28.6h-26v-8.5h1.7v6.8h24.3v-12.6h-16.7v-1.7h18.4v44.6h54.6v-49.6h1.9v15h3.8v1.7h-3.8v15.7h7.6v14.4h2.2v-4.4h5.2v1.7h-3.4v2.7h6.5v-5.6h-7.6v-1.7h7.6v-2.4h1.7v9.8h13v1.3h34.1v-1h1.7v2.4h29v3.6h-2v3.3h-1.7v-3.3h-19.1v7.5h-1.7v-7.5h-40v7.5h-1.7v-7.5h-17.6v5.9h-1.7v-5.9h-27.9v5.9h-1.7v-5.9h-37.6v3.3h-1.3v8.7h1.3v31.7l-3.8-3.8-3,3,6.8,6.9v2.7l-3.8-3.8-3,3,6.8,6.9v2.7l-3.8-3.8-3,3,6.8,6.9v2.7l-3.8-3.8-3,3,6.8,6.9v2.7l-3.8-3.8-3,3,6.8,6.9v2.8l-3.8-3.8-3,3,6.8,6.9v2.6l-3.8-3.8-3,3,6.8,6.9v2.7l-3.8-3.8-3,3,6.8,6.9v21.1h5.7v1.2l8.7.1v-1.2h23.1v-6h1.7v6h27.9v-5h1.7v5h10.4v-.5h1.7v.4h4.2v-8.4h1.7v8.4h27.7v-7.3h1.7v7.3h17.3v-1.3h1.7v1.3h21.3v-3.4h1.7v3.4h13.9v-6.4h1.7v6.4h19.7v-10.7h1.7v10.7h16.7v-.7h1.7v.7h14.2v-.7h1.7v.7h12.5v-21.6h-9.9v13.6h-1.7v-.8h-9v.8h-1.7v-2.5h10.7v-12.8h11.6v-2.2h-22v-4.5l-1.6-4h-11.6v-1.7h12.8l1.9,4.8v-20.3l-1.9,4.4h-12.8v-1.7h11.6l1.6-3.5v-4h22.5v-32.4h-29.8v-1.7h28.5v-10.4h-2.5v2.5h-1.7v-4.2h4.2v-3h-6.4v10h-1.7v-.8h-10.8v-1.7h1.6v-.7h1.7v.7h7.5v-13.6h-7.5v10.8h-9.1v-11.6h-8.7v14.4h9.6v1.7h-9.6v5.9h.8v1.7h-2.5v-15.5h-5.2v-3.5h1.7v1.8h3.5v-8.3h10.4v-6.8h-13.9v8.4h-1.7v-10.1h8.8v-3.4h26.3v-4.1h-26.3v-2.8h-17.2v-3.9h37.6v-7.9l9.1-5v-9.7h1.7v10.7l-9.1,5v6.9h18.5v-85h-9.4v.9h-1.8l.1-15.6h1.7v13h5.3v-6.2h2.7v1.7h-1v4.5h2.4v-25.4h-9.4v7.9h-1.7v-7.9h-2.2v-13.9h-2.8v-1.7h13v1.7h-8.4v12.2h11.6v-5.7h6.7v-3.4l2.7-4.9v-15l-2.7-3.7v-3.7h-5.5l-4,8.3h-13.5v-1.7h12.4l3.8-7.8v-3.7h-11.1v-9.1h1.7v7.4h9.4v-25.7h-9.4v13.8h-1.7v-31.1h1.7v15.6h9.4v-42.2h-9.4v12.9h-1.7v-23.3h1.7v8.7h9.4v-41.3h-18.5v6.6l9.1,5.7v6.3h-1.7v-5.4l-9.1-5.7v-7.6h-31.8v-3.7h24.3v-7.2h-16.5v-1.7h16.8v-11.9h-16.8v-1.7h16.4v-5.4h1.7v.6h9v-7.6h2.1v1.7h-.4v5.9h7.6v-5.9h-5.4v-1.7h5.4v-1.8h-1.9v-1.7h1.9v-3.9h-3.3v4.7h-1.7v-4.7h-4.1v3.9h1.8v1.7h-3.6v-8.8h1.9v1.5h9.1v-7.5h-9.1v3.9h-1.7v-8.1h1.7v2.5h9.1v-8h-9.1v3.4h-1.7v-7.7h1.7v2.6h9.1v-6.5h-9.1v2h-1.7v-2h-.5v-1.7h11.3v-7.8h-2.1v-1.7h2.1v-32.8h-4.5v-.1h-10.2v-1.7h4.1v-4.2h1.7v4.2h4.4v-9h-13.5v9h1.4v1.7h-3.1v-12.4h6.7v-1.1h1.7v1.1h11.4v-4.7h-11.4v2h-1.7v-2h-10.7v15.4h-1.7v-15.4h-154v35.1h-1.7v-14.6h-8.1v14.6h-1.7v-14.6h-7.6v14.6h-1.7v-14.6h-1.4v-1.7h20.6v-18.8h-61.4v19.4l-7,7,3,3,4-4v2.7l-7,7,3,3,4-4v2.6l-7,7,3,3,4-4v2.8l-7,7,3,3,4-4v2.7l-7,7,3,3,4-4v3.2l-7,7,3,3,4-4v2.7l-7,7,3,3,4-4v2.7l-7,7,3,3,4-4v29.5h-1.2v10h1.2v3.9h25.6v-9.9h1.7v.7h.9v1.7h-.9v7.5h3.4v-7.5h-.4v-1.7h.4v-9h20.7v-.7h1.7v2.5h-3.7v.6h-1.7v-.6h-3.8v4h-1.7v-4h-9.8v7.3h17v6h-1.7v-4.3h-15.3v7.5h9.8v-4.7h1.7v4.7h3.8v-.6h1.7v.6h.47c0,1.32-.02,2.64-.03,3.96h0ZM532.84,409.59h-.55v6.4h.7v1.6h-.7v7.5h-7.5v15.8h4.2v1.7h-4.2v13.81c.92,0,1.84.02,2.76.02v.42c-1.06.02-2.13.03-3.2.05h-1.64c-.04-16.48-.09-32.96-.13-49.43h-.57c.02-1.32.04-2.64.07-3.96h9.11v-3.2h1.7v3.2c-.02,2.04-.03,4.07-.05,6.11v-.02ZM535.23,409.61c0-2.04.02-4.08.02-6.13h12.64v1.5h6v-5.6h26.1v-4h-26.1v-5.5h27.8v15.1c13.66.07,27.31.13,40.97.2v2.44c-4.61-.01-9.22-.03-13.83-.04h-14.94v.9h-49.1v1h-1.1v11h-1.7v-2.8h-7.1v-1.7h7.1v-6.4h-5.66v3h3.56v1.7h-4.64c0-1.56-.02-3.12-.02-4.67h0ZM683.39,811.38h-1.7v-2.4h7.9v-1.2h1.7v1.2h9v-.6h1.7v2.4h-18.6v.6h0ZM673.69,809.28h-5.9v-6.3h1.7v4.6h4.2v1.7ZM604.99,808.38h-1.7v-7.2h-17.2v2.3h-1.7v-4.1h35.4v4.9h8.3v2.9h-1.7v-1.2h-8.3v-4.9h-13l-.1,7.3h0ZM676.59,804.48h-1.7v-16.9h1.7v16.9ZM508.99,804.48h-1.7v-2.1h1.7v2.1ZM508.99,799.58h-1.7v-8.4h-12.4v-87.9h12.4v-7.3h1.7v9h-12.4v84.4h12.4v10.2ZM538.69,798.98h-1.7v-102.9h1.7v20.2h35.9v1.7h-35.9v16.1h10.5v1.7h-10.5v63.2ZM568.19,794.48h-13.1v-43.8h1.7v12h9.7v1.7h-9.7v28.4h11.3l.1,1.7h0ZM643.69,793.58h-1.7v-4.3h-6.7v-1.7h6.7v-1.9h1.7v7.9ZM581.69,791.98h-6.1v-1.7h4.4v-36.7h-9.5v-1.7h9.5v-25.6h1.7v25.6h9.6v1.7h-9.5v31.2h8.9v1.7h-8.9l-.1,5.5h0ZM628.19,789.28h-6.9v-2.8h-23.5v-1.7h6.5v-9.6h1.7v9.6h15.3v-9.6h1.7v12.4h5.2v1.7h0ZM661.39,788.18h-4.2v-3.8h4.2v3.8ZM622.99,770.08h-1.7v-8h-30v-1.7h30v-24.6h-6.7v-1.7h6.7v-16.1h-30v-1.7h14.7v-16.9h-10.3v-1.7h12v12.5l3.8,6.1h11.5v53.8h0ZM661.29,760.98h-4.2v-3.8h4.2v3.8ZM688.59,733.78h-4.2v-3.8h4.2v3.8ZM644.29,715.88h-1.7v-7.1l-8.6-7.3h-14.7v-3.7h2.6v2.1h13.2l9.4,8.1-.2,7.9ZM581.39,707.48h-1.7v-8h-22v7.5h-1.7v-7.5h-5.7v-1.7h26.4v-6.5h1.7v6.5h10v1.7h-6.9l-.1,8h0ZM661.39,706.48h-4.1v-3.7h4.1v3.7ZM508.99,692.18h-1.7v-2.3h1.7v2.3ZM643.69,682.78h-5.1v-5.3h5.1v5.3ZM641.99,681.08v-1.8h-1.6v1.8h1.6ZM711.79,674.58h-1.7v-2.3h7.8v1.7h-6.1v.6h0ZM556.99,671.18h-1.7v-1.3h-5.9v-32.6h-17.5v-9.4h1.6v-15.1h22.9v24.6h44.8v-4.8l-2.1-2.1,1.1-1.1,2.4,2.4h12.7l2.4-2.4,1.3,1.4-1.8,1.8v4.8h30.9v-15.1h-15.8v-1.7h17.5v43.7h-56.3v6.7h-1.7v-1h-9.9v-1.7h1v-.6h1.7v.6h7.2v-3.8h-5v-1.7h5v-9.8h-7.7v12.6h-10.4v-12.8h-7.2v9.8h4.9v1.7h-4.9v3.8h7v-.6h1.8v.6h.7v1.7h-13.2v-1.7h.8v-7.2h-4.6v7.2h2.3v1.7h-4.3v1.4h0ZM544.69,662.48h-1.7v-.5h-7.6v-1.7h.5v-6.8h3.1v1.7h-1.3v5.1h5.4v-5.1h-1.6v-1.7h1.6v-1.9h1.7v10.9h-.1ZM698.29,660.28h-11.1v-1.7h9.4v-11.5h-31v11.5h8.7v1.7h-10.4v-53.1h2v1.7h-.3v10h14v-10h-10.2v-1.7l28.9-.1v24.6h-1.7v-9.2h-13.5v21.3h13.5v-7.9h1.7v24.4h0ZM682.69,660.28h-3.5v-1.7h3.5v1.7ZM710.69,649.88h-1.7v-11.8h1.7v11.8ZM544.69,648.98h-1.7v-4.4h-11v-1.7h12.8l-.1,6.1h0ZM442.49,636.58h-1.7v-2h-10.2v-26.8h1.7v25.1h10.2v3.7ZM446.79,634.58h-1.5v-1.7h1.5v1.7ZM710.69,633.48h-1.7l-.1-16.4h1.7l.1,16.4ZM718.69,624.98h-2.7v-8h2.7v1.7h-1v4.5h1v1.8ZM609.89,620.98h-4.2l-3.4-3.4v-6.8l2.9-2.9h5.8l3.3,3.3-1.2,1.2-2.8-2.8h-4.3l-1.8,1.9v5.3l2.4,2.4h3.5v1.8h-.2ZM612.69,620.08l-1.2-1.2,2.2-2.2,1.2,1.2-2.2,2.2ZM710.59,613.18h-1.7v-15.5h1.7v15.5ZM591.69,608.98h-22.2v-10.1h1.7v8.4h19.8l2.2-2.2,1.2,1.2-2.7,2.7h0ZM556.39,607.48h-22.9v-10.1h1.7v2h19.4v-1.7h1.7l.1,9.8ZM650.49,607.08h-11v-1.7h9.2v-2.3h1.7l.1,4ZM636.49,607.08h-10.6l-5.4-5.5,1.2-1.2,4.9,4.9h9.9v1.8h0ZM432.29,602.18h-1.7v-17.4h1.7v17.4ZM650.49,600.38h-1.7v-7.3h-31.5v3.3l1.9,1.9-1.2,1.2-2.4-2.4v-31.7h1.7v8.1h28.6v-22.4h-8.3v-1.7h18.7v1.7h-6.4v22.4h46.8v-22.4h-7.8v-1.7h9.4v44.2h-9.6v-1.7h7.8v-15.9h-30.7v15.9h7.9v1.7h-23.3l.1,6.8h0ZM600.49,599.48l-1.2-1.3,2-1.9v-7.8h-30.1v4.2h-1.7v-37.2h33.6v8.8h-1.7v-7.1h-11.7v13.1h13.4v2.6h-14.8v11.8h13v-6.6h1.7v18.9l-2.5,2.5ZM681.89,593.58h-2.5v-1.7h2.5v1.7ZM556.39,592.68h-1.7v-2.9h-19.4v2.9h-1.7v-29.1l2.6-2.5,1.2,1.2-2.1,2v1.3h21.2l-.1,27.1ZM432.29,578.68h-1.7v-13.5h17v-7.3h1.7v9h-17v11.8ZM617.19,559.38h-1.7v-10h7.9v1.7h-6.2v8.3ZM681.89,551.08h-19.9v-1.7h19.9v1.7ZM632.99,551.08h-3.7v-1.7h3.7v1.7ZM559.09,549.48l-1.2-1.2,1-1v-7.1h-.4v-1.7h2.1v9.5l-1.5,1.5h0ZM555.59,549.48l-1.5-1.5v-9h-1v-3.5h1.7v3h1.4v1.7h-.4v7.1l1,1-1.2,1.2ZM449.19,548.38h-1.7v-11.4h1.7v11.4ZM549.09,540.78h-10v-7.1h-15.1v-1.7h16.8v7.1h8.3v1.7ZM698.29,534.98h-9.6v-1.7h7.8v-9.1h1.8v10.8ZM681.89,534.98h-19.1v-1.7h19.1v1.7ZM656.69,534.98h-17.8v-1.7h6.8v-22.4h-28.8v8.4h-1.7v-19.5h1.7v8.4h46.6v-17.2h10.4v1.7h-8v15.5h30.5v-15.5h-7.8v-1.7h9.7v28.2h-1.7v-8.4h-47.4v22.4h7.6l-.1,1.8h0ZM634.99,534.98h-6.5v-1.7h6.5v1.7ZM624.09,534.98h-8.8v-9.6h1.7v7.9h7.1v1.7h0ZM548.09,532.08h-1.7v-7.2h1.7v7.2ZM554.79,531.58h-1.7v-3.3h1.7v3.3ZM603.09,529.98h-21.4v-1.7h3.6v-28.5h-14.2v15.3h-1.7v-23.8h1.7v6h30.3v-9.6l-2.8-2.8,1.2-1.2,3.3,3.4v27.7h-1.7v-14.9h-14.3v28.5h14.3v-8.4h1.7v10h0ZM578.09,529.98h-8.7v-9.4h1.7v7.7h7v1.7ZM448.99,526.88h-1.7v-6.1h-16.8v-70.1h10.2v-2.3h1.7v2.3h4.5v1.7h-14.6v66.6h16.8l-.1,7.9h0ZM540.79,526.08h-16.8v-1.7h15.1v-6.7h-5.6v-3.9h1.7v2.2h6.8v1.7h-1.2v8.4ZM554.79,523.28h-1.7v-3.5h1.7v3.5ZM556.39,517.78h-9.6v-1.7h7.8v-2.2h1.7l.1,3.9ZM556.39,509.28h-1.7v-1.5h-19.5v1.5h-1.7v-16.42c3.14,0,6.28.01,9.42.02,0-1.64-.01-3.28-.02-4.92h-9.41c0-.3-.01-.61-.02-.91l9.38.02v-8.27c-3.35-.02-6.71-.04-10.06-.07,0-.26-.01-.52-.02-.78,2.39.01,4.78.02,7.17.03-.03-1.74-.05-3.48-.08-5.22-2.36,0-4.72.01-7.08.02-.02-.36-.03-.73-.05-1.09,2.36-.03,4.73-.07,7.09-.1,0-2.29-.02-4.59-.03-6.88-2.38,0-4.75-.02-7.13-.03v-.56c2.38,0,4.76-.02,7.14-.03-.03-2.4-.05-4.81-.08-7.21-2.22.04-4.48.05-6.79.02-.95-.01-1.9-.03-2.84-.05v-.37h2.09v-9.5h17.1v-31.4h9.7v8.7h4.6v-8.7h12.4v1.7h-9.1v2.9h4.8v1.7h-4.8v9.4h6.5v-12.7h11.5v12.8h6.5v-9.4h-4.4v-1.7h5v-2.9h-9.9v-1.7h9.9v-.9h1.7v5.2h7.3v1.7h-5.3v22.7h54.9v8.1h-1.7v-3.8h-32.6v4.6l3.3,3.3-1,1-3.2-3.5h-12l-4,4.1-1-1,1-.9v-1.8h-5.2v-3.3h1.7v1.4h3.5v-5.2h-3.5v1.3h-1.7v-1.3h-37.5v15.2h6.5v1.7h-6.5l-.3,45h.02ZM616.99,494.58h-1.7v-7.1l10-9.8h8v1.7h-7.2l-9,8.8-.1,6.4h0ZM683.79,492.78h-4.5v-1.7h4.5v1.7ZM656.69,492.78h-8v-13.4h-9.8v-1.7h11.5v13.4h6.2l.1,1.7ZM571.09,486.98h-1.7v-10.3h23.8l3.1,3.1-1.2,1.2-2.6-2.6h-21.3l-.1,8.6h0ZM698.29,477.78h-11.2v-1.7h9.5l.1-9.5h-30.8l-.1,9.5h8.8v1.7h-10.5v-10.5h0v-32.8h1.7v3h30.8v-10.8h-8.7v-1.7h10.4v24.8h-1.7v-8.5h-14.7v21.6h14.7v-8.1h1.7v23ZM682.59,477.78h-3.3v-1.7h3.3v1.7ZM613.79,475.58h-1.7v-2.5l1.3-1.3v-7l.9-.9-1.6-1.6h-7.1l-1.1,1.1,2,2-1.7,1.7v8.5h-1.7v-9.1l1-1-2-2,2.9-2.8h8.3l3.3,3.3-1.6,1.6v7l-1.3,1.3.1,1.7h0ZM650.49,464.38h-22.5v-1.7h20.7v-3.9h1.7l.1,5.6ZM592.49,464.38h-24.9v-1.7h24.9v1.7ZM543.69,442.58h-12.3v-1.7h10.5v-3.7h1.7l.1,5.4h0ZM650.39,439.78h-1.7v-18.1h-9v-1.7h10.8l-.1,19.8h0ZM543.69,434.38h-1.7v-2.4h-.6v-1.7h.6v-4.9h-4.1v4.9h1.1v1.7h-2.8v-6.7h-1.3v-1.7h7.1v-.2h1.7v11h0ZM665.79,430.58h-1.7v-5.6h10.5v1.7h-8.8v3.9ZM682.99,426.68h-4.1v-1.7h4.1v1.7h0ZM624.79,421.68h-6.3v-1.7h6.3v1.7ZM532.89,397.98h-1.7v-11.7h1.7v11.7ZM519.39,392.78h-1.7v-3.3h1.7v3.3ZM497.19,390.08h-1.7v-98.2h5.9v1.7h-4.2v38h5.2v1.7h-5.2v46.4h.9v1.7h-.9v8.7h0ZM532.89,383.28h-1.7v-50.1h-21.5v-1.7h2.3v-15.2h1.7v15.2h17.5v-15.6h1.7v67.4h0ZM523.09,382.08h-1.7v-.7h-21.1v-1.7h.4v-3h1.7v3h11.2v-19.6h-11.2v14.3h-1.7v-29.6h1.7v13.6h11.3v-19.7h-11.3v3.7h-1.7v-5.4h27.6v35.5h-1.7v-12.3h-11.3v19.5h11.2v-4.7h1.7v6.4h-5.1v.7h0ZM665.09,377.18l-1.2-1.2,6.8-6.8,1.2,1.2-6.8,6.8ZM694.09,372.98h-1.7v-3h4.6v-6.1h-3.6v-1.7h3.6v-5.4h-3.6v-1.7h3.6v-5.6h-3.6v-1.7h3.6v-5.6h-3.6v-1.7h3.6v-5.2h-3.6v-1.7h3.6v-.9h2.3v1.7h-.7v37.3h-4.6v1.3h.1ZM678.49,363.58l-1.2-1.2,1.7-1.7v-31.2h1.7v31.9l-2.2,2.2h0ZM507.19,333.28h-2.1v-1.7h2.1v1.7ZM523.09,326.88h-1.7v-10.6h1.7v10.6ZM707.69,324.88h-10.5v-5.5h-16.5v4.2h-1.7v-5.9h8v-26h1.7v5.4h18.3v22h-1.7v-6.7h-6.3v.8h-1.7v-4h-.4v-1.7h2.1v3.2h6.3v-11.9h-16.5v8.6h5.7v1.7h-5.7v8.5h8.5v-2.3h1.7v7.8h6.3v-.9h1.7v.9h.8l-.1,1.8h0ZM507.19,293.48h-2.1v-1.7h2.1v1.7Z"/>
    <g>
      <path class="st0" d="M608.89,472.38v-10.6"/>
      <path class="st3" d="M673.09,666.88h13.2M611.99,674.78h-11.9M676.59,685.88h29.4M691.49,772.38h-15.9M554.39,397.68h25.7M692.59,388.68h-16.3M673.19,417.48h13M717.69,542.18h-16.4M682.29,542.18h-12.9M624.29,542.28h13M593.29,542.18h-13.2M401.74,548.26v-12.6M611.49,411.58h-12.5"/>
    </g>
  </g>
  <path class="st3" d="M507.29,683.91h-10.52"/>
  <path class="st3" d="M530.59,542.58h14.45"/>
  <path d="M0,0s0,0,0,0v-.02s0,.02,0,.02Z"/>
  <path d="M1240.6,1036.57s.06,0,.06.02c0,.01-.02.03-.06.04"/>
  <path class="st1" d="M535.29,411.03h4.58"/>
  <path class="st2" d="M534.69,673.35h5.01"/>
</svg>