<?xml version="1.0" encoding="UTF-8"?>
<svg id="Discord.gg-_x40_marazm" xmlns="http://www.w3.org/2000/svg" version="1.1" viewBox="0 0 422.24 484.04">
  <!-- Generator: Adobe Illustrator 30.1.0, SVG Export Plug-In . SVG Version: 2.1.1 Build 136)  -->
  <defs>
    <style>
      .st0 {
        stroke-width: .25px;
      }

      .st0, .st1, .st2 {
        fill: none;
      }

      .st0, .st1, .st2, .st3 {
        stroke: #000;
      }

      .st4 {
        fill: #777;
      }

      .st1 {
        stroke-width: .36px;
      }

      .st2, .st3 {
        stroke-width: .5px;
      }

      .st5 {
        fill: #987f00;
      }

      .st3 {
        fill: #363636;
      }
    </style>
  </defs>
  <path class="st3" d="M350.46,421.83h2.38c0-2.58-.02-5.17-.02-7.75h-2.45v-.62h2.5v-1.55h14.5v-14.65h-14.5v-120.07h40.7v-12.45h-25.42v5.6h-2.65v-3.27h-6.25v-5.92h-6.4v-17.6h40.7v-12.43h-25.42v5.25h-2.65v-3.43h-12.63v-6.85h-.77V57.56h-15.58v21.03h-38.38v-22.42h-46.48V1.33h-31.65v54.83h-47.4v51.4h-26.05v5.45h-2.65v-3.28h-13.1v1.53h-16.2v-18.85h-15.32v39.28h-3.12v-39.25h-15.45v19.03h-16.85v8.1H23.33v12.15h25.42v-5.45h2.35v3.27h12.8v2.18h-10.45v30.05h-1.55v34.57h-21.05v26.62h-14.87l-9.35,4.05v12.15H1.33v5.45h5.3v16.98H1.33v5.45h5.3v11.83l9.35,4.35h4.68v10.7H5.63v12.92h-2.43v12.05h2.43v15.73h41.4v9.2c-7.22.02-14.45.05-21.7.05,0,4.05-.02,8.1-.02,12.17l41.52.08v-.92h2.03v73h29.3v2.02h-4.57v52.48h31.45v-52.62h-4.7v-2.02h29.32v-72.7h1.88v.77h13.05v12.15h49.82v15.05h-40.9v11.38h23.85v18.73h39v5.15h5.15v-5.15h61.45v-1.55h39.62v1.55h2.3c0,.23,0,.45.02.65-.83,0-1.65.02-2.48.02l-.02,7.7,2.58-.05.02.7-.95-.02-.02,6.8h-.6l.02-5.3h-8l-.05,8.45,7.98.02v-.88h.58l-.1,13.2.98-.02.02.52-11.2-.05-.05,7.15,10.48.02v.7h-1.23l-.02,4.38-5.27-.02-.08,8,10.33.08.02-12.35-1.4.02v-.62l6.23.05.02-4.55-1.25-.02.02-2.6-.88.02v-.65h.85v-5.75l.8-.02-.1,8.4,5.77.02v-7.8l-3.33-.02-.02-.65,3.3.05v-.75h.67l-.1,24.27,62.42-.48.05-37.8-62.4-.1v8.38h-.62v-.85l-6.48.02v-9.23h-.98v-.67c0-.12-.05-.23-.08-.35-.02-.33,0-.67-.02-1-.02-.1-.02-.2-.05-.3-.02-.27-.05-.7.05-1.25M56.28,348.46v-14.83h15.27v2.08h-2.97v13.77h-1.78v-1.02h-10.52ZM130.61,135.43v-15.55h42v3.85h-15.23v3.32l2.7,2.7v1.12h-4.45v-7.15h-4.38v11.7h-20.65ZM146.96,335.66v-1.77h14.27v-12.12h16.43v31.73h36.6v7.65h-15.92v-1.98h-13.25v1.98h-13.23v-12.4h-20.12v.83h-2.02v-13.9h-2.75ZM168.23,307.06v-21.15h9.45v21.15h-9.45ZM168.23,221.43v-21.32h9.45v21.32h-9.45ZM172.61,153.28v-3.5h53.38v3.5h-53.38ZM173.66,188.58v-26.4h4.02v26.4h-4.02ZM222.13,257.16v-8.43h18.3v8.43h-18.3ZM244.38,153.26v-3.5h53.93v3.5h-53.93ZM280.71,285.03v-10.23l9.1-9.08h8.25v29.98h40.17v31.95h-39.85v-1.65h-2.67v-4.12h-9.8c-.6,0-1.08-.48-1.08-1.08v-31.65l-4.12-4.12h0ZM281.48,230.93v-10.07l3.6-3.57v-32.5c0-.6.48-1.07,1.08-1.07h9.52v-3.75h2.4v59.7h-7.83l-8.77-8.72h0ZM298.06,137.98v-41.57h37.75v41.57h-37.75ZM302.93,398.48v-3.83h35.3v3.83h-35.3ZM307.98,233.76v-7.48h30.2v4.65h-14.85v14.65h-4.7v-11.82h-10.65Z"/>
  <path class="st5" d="M56.41,333.63v-4.1h4.62v4.1h-4.62ZM31.41,298.41h3.3v-7.1h-3.3v7.1ZM31.73,355.78h7.85v-3.8h-7.85s0,3.8,0,3.8ZM31.73,352.11h3.75l.05-4.15,4.03-.12v-3.62h-7.85l.02,7.9h0ZM50.71,298.43h4.83v-7.1h-4.83v7.1ZM53.66,283.63h13.2l.03-1.05,1.8.02v-3.4h-15.05l.02,4.42h0ZM53.66,259.76h5.92v-12.52h-5.9v12.52h-.02ZM53.66,227.23h15.02v-3.9h-15.03v3.9h0ZM56.41,329.53h4.62v-4.8h-3.5v.55l-1.12-.05v4.3ZM61.03,329.53v4.1h5.52v-4.1h-5.52ZM61.46,183.18h4.28v-15.35h-4.28v15.35h0ZM61.46,168.63h4.93v-5.75h-4.92v5.75h0ZM65.33,177.43h3.4v-4.48h-3.4v4.48ZM65.38,172.68h3.32v-4.05h-3.32v4.05h0ZM93.96,306.83h12.2v-4.08h-12.2v4.08ZM93.93,203.11h12.5v-3.88h-12.5v3.88ZM137.73,306.83h12.57v-3.9h-12.57v3.9ZM137.73,203.11h12.57v-3.88h-12.57v3.88ZM138.43,259.63h5.48v-12.52h-5.48v12.52ZM144.51,141.33h4.32v-6.3h-4.32v6.3ZM150.98,131.03v4.3h8.98v-4.43h-4.27v-7.55h-4.7v7.68h0ZM151.61,333.53h9.2v-7.27h-3.62v3.27h-5.6l.03,4h0ZM197.03,337.73h11.43v-5.88h-11.43v5.88ZM196.91,175.63h11.75v-5.88h-11.75v5.88ZM197.66,405.31h3.93v-5.75h-3.93v5.75ZM201.28,271.48h11.65v-5.88h-11.65v5.88ZM201.36,239.16h11.57v-5.88h-11.57v5.88ZM197.66,399.86h6.8v-4.42h-6.8v4.42ZM209.31,120.71h6.9v-3.75h-6.9v3.75ZM219.81,302.63l3.32,1.75,3.35-6.33-3.32-1.75-3.35,6.33ZM224.88,286.88h8.6v-4.17h11.12v-4.17h-11.43v4.17h-8.3v4.17ZM225.03,323.88l5.6,4.48,2.35-2.92-5.6-4.48-2.35,2.92ZM233.18,226.06h11.43v-4.18h-11.43v4.18ZM246.33,189.63h3.35v-5.75h-3.35v5.75ZM254.86,120.71h7.23v-3.75h-7.23v3.75h0ZM257.23,286.88h8.6v-4.17h-8.6v4.17ZM259.38,271.46h11.42v-5.88h-11.42v5.88ZM259.38,239.13h11.42v-5.88h-11.42v5.88ZM263.66,175.63h11.92v-6.07h-11.92v6.07ZM263.68,337.71h11.85v-5.88h-11.85v5.88ZM265.33,399.48h3.88v5.75h4.48v-10.35h-8.35v4.6h0ZM298.48,233.93h8.92l.2-7.85h-9.23l.1,7.85ZM309.66,96.36h2.88v-5.8h-2.88v5.8ZM311.03,142.61h8.6v-4.57h-8.6v4.57ZM311.11,224.71h8.6v-4.38h-8.6v4.38ZM323.21,240.86h4.35v-6.2h-4.35v6.2ZM323.03,235.06h8.42v-4.18h-8.42v4.18ZM338.18,233.76h7.6v-7.73h-7.6v7.73ZM341.03,137.71h7.12v-4.1h-7.12v4.1ZM348.16,137.71h4.1v-9.72h-4.1v9.72ZM359.21,411.53h4.3v-3.8h-4.3v3.8ZM363.51,411.53h3.98v-9.55h-3.95l-.02,9.55h0Z"/>
  <path class="st4" d="M5.53,330.68l1.53,1.2,1.53-1.95-1.53-1.2-1.53,1.95ZM7.21,334.08h2.75v-1.95h-2.75v1.95ZM10.36,305.26h1.65v-1.23h.52v1.45h1.65v-1.45h6.88v-2.45h-9.72v1.73h-.98v1.95h0ZM14.13,312.08l.8,4,1.62-.33-.8-4-1.62.33ZM14.73,306.46h1.65v-1.95h-1.65v1.95ZM18.38,237.16h1.9v-3.68h-1.9v3.68ZM19.21,253.83h13.67v-2.45h-.77v-1.45h-5.3v1.45h-7.6v2.45ZM21.06,273.03h13.68v-2.45h-12v-2.02h-1.67v4.48h0ZM21.06,237.93h1.67v-2.02h12v-2.45h-1.08v-2.43h-3.12v2.43h-.33v-2.43h-3.12v2.43h-6.02s0,4.47,0,4.47ZM21.53,255.73h5.27v-1.48h-5.27v1.48ZM23.96,309.73l.45,2.33,1.62-.33-.45-2.33-1.62.33ZM24.18,308.78l1.62.33.45-2.33-1.62-.33-.45,2.33ZM26.81,292.83l1.62.33.33-1.65-1.62-.33-.33,1.65h0ZM27.11,290.71h1.65v-1.95h-1.65v1.95ZM31.33,209.78h1.55v-8.8h-1.55v8.8ZM37.58,199.38h8.9v-1.88h-8.9v1.88h0ZM37.96,298.83c0,.85.7,1.55,1.55,1.55h0c.85,0,1.55-.7,1.55-1.55h0c0-.85-.7-1.55-1.55-1.55s-1.55.7-1.55,1.55h0ZM38.73,205.53h13.05v-1.45h-13.05v1.45ZM40.16,212.93h5.12v-1.88h-5.12v1.88ZM44.86,327.43h4.08v-1.85h-4.08v1.85ZM46.28,298.83c0,.85.7,1.55,1.55,1.55h0c.85,0,1.55-.7,1.55-1.55h0c0-.85-.7-1.55-1.55-1.55s-1.55.67-1.55,1.55h0ZM47.56,336.61h2.72v-2.48h-2.72v2.48ZM48.88,215.63h14.3v-1.38h-14.3v1.38ZM50.23,199.01h5.12v-1.88h-5.12v1.88ZM51.81,212.73h5.12v-1.88h-5.12v1.88ZM55.06,278.96h13.68v-2.45h-13.67v2.45h0ZM55.36,230.18h13.07v-2.77h-13.08v2.77h0ZM57.81,320.31h1.83v-2.48h-1.83v2.48ZM57.81,316.61h1.83v-2.48h-1.83v2.48ZM58.51,261.36h4.47v-1.67h-4.47v1.67ZM58.61,246.88h2.67v12h1.8v-13.65h-4.47v1.65h0ZM67.96,261.36h4.62v-1.67h-2.18v-12.18h-2.45v13.85ZM68.16,247.06h2.6v11.98h2.05v-14h-4.65v2.02h0ZM68.73,398.78c0,.7.38,1.4,1.1,1.75h7.9c1.45-.7,1.45-2.77,0-3.48h-7.9c-.72.35-1.1,1.05-1.1,1.73h0ZM69.28,368.18c0,.7.38,1.4,1.1,1.75h7.9c1.45-.7,1.45-2.77,0-3.48h-7.9c-.72.35-1.1,1.05-1.1,1.73h0ZM69.71,374.08c0,.7.38,1.4,1.1,1.75h7.88c1.45-.7,1.45-2.77,0-3.48h-7.88c-.75.35-1.1,1.02-1.1,1.73h0ZM69.83,362.13c0,.65.3,1.3.95,1.7l7.88.67c1.5-.58,1.7-2.65.3-3.48l-7.88-.67c-.8.3-1.22,1.02-1.25,1.77h0ZM70.56,324.26h3.78v-1.88h-3.78v1.88ZM70.81,421.43c0,.7.38,1.4,1.1,1.75h7.9c1.45-.7,1.45-2.77,0-3.48h-7.9c-.75.35-1.1,1.02-1.1,1.73h0ZM73.21,260.06h1.75v-13.65h-1.75v13.65ZM73.98,326.21l1.75.6,1.2-3.5-1.75-.6-1.2,3.5h0ZM75.26,163.33h2.47v-1.4h-2.47v1.4ZM75.26,159.33h2.47v-1.4h-2.47v1.4ZM75.26,155.31h2.47v-1.4h-2.47v1.4ZM75.23,258.71h1.7v-4.75h1.8v-2.4h-3.5v7.15h0ZM75.28,251.28h3.45v-2.55h-3.45v2.55ZM76.71,185.81h1.68v-4.4h-1.68v4.4ZM77.53,257.43h1.43v-2.4h-1.43v2.4ZM81.16,185.81h1.85v-4.4h-1.85v4.4ZM84.21,334.53h2.78v-2.48h-2.78v2.48ZM85.18,153.21h2.22v-.15h2.22v.3h2.78v-1.53h-5v.15h-2.22v1.23ZM85.28,174.26h3.5v-1.73h-3.5v1.73ZM85.28,167.56h3.5v-1.73h-3.5v1.73ZM92.11,174.26h3.5v-1.73h-3.5v1.73ZM92.11,167.56h3.5v-1.73h-3.5v1.73ZM93.08,379.98c0,.77.4,1.55,1.22,1.92h8.78c1.62-.77,1.62-3.08,0-3.88h-8.78c-.8.4-1.22,1.18-1.22,1.95h0ZM93.63,385.76c0,.7.38,1.4,1.1,1.75h7.9c1.45-.7,1.45-2.77,0-3.48h-7.9c-.72.33-1.1,1.03-1.1,1.73ZM94.36,402.73c.7,1.45,2.78,1.45,3.5,0v-7.88c-.7-1.45-2.78-1.45-3.5,0v7.88ZM94.36,338.91c.7,1.45,2.78,1.45,3.5,0v-7.88c-.7-1.45-2.78-1.45-3.5,0v7.88ZM95.61,185.83h1.85v-4.4h-1.85v4.4ZM97.86,439.96l1.25,1.6,2.07-1.6-1.25-1.6-2.07,1.6ZM99.26,472.93c0,.83.5,1.65,1.43,1.9l7.75-1.45c1.3-.98.93-3-.65-3.42l-7.75,1.45c-.53.38-.78.95-.78,1.52h0ZM99.91,454.56c.18,1.6,2.12,2.3,3.28,1.17l2.68-7.42c-.18-1.6-2.12-2.3-3.28-1.17l-2.68,7.42h0ZM100.01,401.51c.7,1.45,2.78,1.45,3.5,0v-7.88c-.7-1.45-2.78-1.45-3.5,0v7.88ZM100.01,336.86c.7,1.45,2.78,1.45,3.5,0v-7.88c-.7-1.45-2.78-1.45-3.5,0v7.88ZM100.56,364.61c.7,1.45,2.78,1.45,3.5,0v-7.88c-.7-1.45-2.78-1.45-3.5,0v7.88ZM100.56,185.83h1.85v-4.4h-1.85v4.4ZM102.93,153.38h2.18v-1.55h-2.18v1.55ZM104.48,185.83h1.85v-4.4h-1.85v4.4ZM105.11,174.28h1.12v-2.55h-1.12v2.55ZM105.11,167.98h1.12v-2.55h-1.12v2.55ZM106.31,434.83l2.9,7.33c1.2,1.1,3.12.33,3.25-1.27l-2.9-7.33c-1.2-1.1-3.12-.35-3.25,1.27h0ZM109.11,185.83h1.85v-4.4h-1.85v4.4ZM109.46,174.28h1.12v-2.55h-1.12v2.55ZM109.46,167.98h1.12v-2.55h-1.12v2.55ZM112.88,463.36c.18,1.6,2.12,2.3,3.28,1.17l2.68-7.42c-.18-1.6-2.12-2.3-3.28-1.17l-2.68,7.42h0ZM112.98,329.73h3.9v-1.65h-3.9v1.65ZM113.16,185.83h1.85v-4.4h-1.85v4.4ZM114.28,390.76c0,.7.38,1.4,1.1,1.75h7.9c1.45-.7,1.45-2.77,0-3.48h-7.9c-.72.35-1.1,1.03-1.1,1.73h0ZM114.66,374.81c-.03.6.28,1.23.88,1.58l7.28.67c1.4-.52,1.57-2.45.3-3.23l-7.28-.67c-.75.27-1.15.95-1.18,1.65h0ZM114.71,366.36c.7,1.45,2.78,1.45,3.5,0v-7.88c-.7-1.45-2.78-1.45-3.5,0v7.88ZM114.71,334.43h2.2v-3.83h-2.2v3.83ZM115.78,410.16c0,1.3,1.18,2.42,2.6,2.2l7.43-5.25c.9-1.62-.47-3.58-2.32-3.27l-7.43,5.25c-.2.32-.28.7-.28,1.07h0ZM115.93,380.18c0,.7.38,1.4,1.1,1.75h7.9c1.45-.7,1.45-2.77,0-3.48h-7.9c-.72.35-1.1,1.05-1.1,1.73ZM116.26,344.06c-.03.55.18,1.12.62,1.58l8.53,3.2c1.85-.17,2.7-2.42,1.4-3.77l-8.53-3.2c-1.23.15-2,1.15-2.03,2.2h0ZM117.21,185.83h1.85v-4.4h-1.85v4.4ZM117.31,170.06h3.5v-1.73h-3.5v1.73ZM117.31,163.36h3.5v-1.73h-3.5v1.73ZM121.31,180.78h.95v-3.05h-.95v3.05ZM121.31,174.53h.95v-3.05h-.95v3.05ZM121.31,166.98h.95v-3.05h-.95v3.05ZM126.33,422.06h2.95v-2.35h-2.95v2.35ZM126.33,419.16h2.2v-3.05h-2.2v3.05ZM129.28,418.21h1.57v-3.48h-1.57v3.48ZM129.83,420.31h3.5v-1.75h-3.5v1.75ZM136.66,373.83c0,.8.43,1.6,1.25,2h9.02c1.68-.8,1.68-3.17,0-4h-9.02c-.82.42-1.25,1.23-1.25,2ZM138.48,398.81c0,.7.38,1.4,1.1,1.75h7.9c1.45-.7,1.45-2.77,0-3.48h-7.9c-.75.33-1.1,1.02-1.1,1.73h0ZM138.48,386.58c0,.7.38,1.4,1.1,1.75h7.9c1.45-.7,1.45-2.77,0-3.48h-7.9c-.75.35-1.1,1.02-1.1,1.73h0ZM138.91,415.86h2.05v-2.52h-2.05v2.52ZM139.43,420.31c0,.7.38,1.4,1.1,1.75h7.9c1.45-.7,1.45-2.77,0-3.48h-7.9c-.73.33-1.1,1.02-1.1,1.73h0ZM157.86,143.46h3.18v-2h-3.18v2ZM157.86,127.28l1.93,2,1.52-1.47-1.93-2-1.52,1.47h0ZM159.86,150.23h3.18v-2h-3.18v2ZM163.63,149.56l2.07.32.23-1.45-2.07-.32-.23,1.45h0ZM166.88,126.36h2.8v-2.12h-2.8v2.12ZM167.33,150.23h3.18v-2.4h-3.18v2.4ZM172.83,149.23h3.18v-2h-3.18v2ZM172.83,139.33l2.32.68.85-2.95-2.32-.68-.85,2.95ZM172.83,69.31h2.77v-2.82h-2.77v2.82ZM172.96,61.28l.45,2.72,2.5-.42-.45-2.72-2.5.42ZM173.23,126.66h2.43v-3.05h-2.43v3.05ZM175.63,134.91l.4,1.48,1.93-.5-.4-1.48-1.93.5ZM179.81,115.26h19.15v-3.65h-19.15v3.65ZM179.81,102.78h29.52v-3.65h-29.52v3.65h0ZM179.81,73.81h29.52v-3.65h-29.52v3.65h0ZM179.81,60.26h29.52v-3.67h-29.52v3.67h0ZM181.06,92.53l4.4.7,2.05-12.88-4.4-.7-2.05,12.88h0ZM181.78,117.53l1.52.43.5-1.82-1.52-.43-.5,1.82ZM185.96,293.38h4.52v-9.17h-4.52v9.17ZM186.63,91.46l1.77.75.88-2.1-1.75-.72-.9,2.07h0ZM186.83,111.08l1.85.5.6-2.2-1.85-.5-.6,2.2ZM187.08,86.33l.05,2.28,1.9-.05-.05-2.28-1.9.05h0ZM190.48,316.16h5.27v-3.95h-5.27v3.95ZM194.21,93.28h4.48v-13.03h-4.48v13.03ZM198.66,305.88h2.9v-2.42h-2.9v2.42ZM199.28,322.51h1.93v2.12h3.85v-2.12h3.02v-.52h0v-1.95h-4.95v.75h-1.75v-3.7h-2.1v5.42h0ZM200.91,223.93h1.12v-5.43h-1.12v5.43ZM202.48,273.86h2.55v-1.77h-2.55v1.77ZM202.93,304.18c0,1.25,1,2.25,2.25,2.25s2.25-1.02,2.25-2.25-1-2.25-2.25-2.25-2.25,1-2.25,2.25h0ZM203.11,300.31h1.93v-1.3h-1.93v1.3ZM203.36,227.33h7.82v-2.12h-7.82v2.12ZM203.36,216.26h2.93v.62h4.25v-1.7h-7.18v1.07h0ZM203.56,106.66l6.65,3.57,1.18-2.18-6.65-3.57-1.18,2.18ZM203.96,196.21h1.3v-3.12h-1.3v3.12ZM205.48,199.56l1.27.88,1.98-2.88-1.27-.88-1.98,2.88h0ZM205.58,300.31h4.23v-.92h-4.23v.92ZM206.28,294.56h11.88v-4.52h-11.88v4.52ZM208.08,281.33h7.32v-2.2h-7.32v2.2ZM209.33,103.38l4.77,2.57,2.05-3.78-4.77-2.57-2.05,3.78h0ZM210.56,217.33h4.25v-1.7h-4.25v1.7ZM212.21,322.51h3.85v-2.48h-3.85v2.48ZM213.11,196.71h2.68v-1.27h-2.68v1.27ZM214.81,200.13h.95v-2.43h-.95v2.43ZM214.81,192.91h1.32v-1.27h-1.32v1.27ZM215.71,302.93h2.45v-1.42h-2.45v1.42ZM216.63,57.48l.68,2.75,2.62-.65-.68-2.75-2.62.65h0ZM217.31,73.81l1.6,3.32,3.68-1.78-1.6-3.32-3.68,1.78ZM217.81,301.21l1.7.77,1-2.23-1.7-.77-1,2.23h0ZM218.28,82.01l3.38,4.3,9.95-7.8-3.38-4.3-9.95,7.8ZM218.53,102.08l5.45.3.82-14.82-5.45-.3-.82,14.82h0ZM220.13,58.81c0,1.15.93,2.08,2.07,2.08s2.07-.92,2.07-2.08-.93-2.08-2.07-2.08-2.07.93-2.07,2.08h0ZM220.68,106.23l2.15,5.18,3.62-1.5-2.15-5.18-3.62,1.5ZM221.53,201.11h3.93v-6.75h-3.93v6.75ZM223.13,175.16l2.6,1.8,1.35-1.95-2.6-1.8-1.35,1.95ZM223.26,282.43h1.15v-7.88h-1.15v7.88ZM223.26,310.21l1.65,2.25,5.45-3.98-1.62-2.25-5.47,3.98h0ZM223.83,26.06l.45,2.73,2.5-.42-.45-2.73-2.5.43h0ZM224.28,18.06h6.55v-4.3h-6.52v4.3h-.03ZM225.91,233.16l1.98,2.73,3.5-2.55-1.98-2.73-3.5,2.55ZM227.06,208.13l1.35,1.98,1.27-.88-1.35-1.98-1.27.88ZM227.06,156.91h5.1v-3.15h-5.1v3.15ZM228.46,122.28l.6,5.38,4.3-.47-.6-5.38-4.3.47ZM228.61,197.71h5.38v-2h-5.38v2ZM229.48,206.46h5.38v-2h-5.38v2ZM229.68,41.78h4.73l.23.58,1.55-.58h4.95v-1.4h-3.3l-3.1-8.27-3.45,1.3,2.62,6.97h-4.2v1.4h-.02ZM230.01,282.43h2.4v-1.52h-2.4v1.52ZM230.36,280.08l1.38.8,1.02-1.77-1.38-.8-1.02,1.77ZM230.83,192.28h5.38v-2h-5.38v2ZM232.53,134.13l5.68,1.38,1.62-6.68-5.68-1.38-1.62,6.68ZM234.31,265.03h14.18v-2.48h-14.18v2.48ZM234.31,242.98h12.18v3.45l-.43.12,1.98,6.73-1.98,6.72.43.12v2h5v-2.35h-2.45l1.88-6.35-.55-.15.55-.15-2.18-7.35-.25.07v-2.85h0v-2.48h-14.18v2.45h0ZM234.86,180.26l4.43,3.02,1.12-1.65-4.43-3.02-1.12,1.65ZM234.86,126.18l6.6,2.95-.55.02.12,2.7,2.35-.12-.12-2.7-1.65.07,2.5-5.6-6.73-3-2.53,5.68h0ZM234.96,322.73l1.75.1.12-1.95-1.75-.1-.12,1.95ZM235.23,221.78h6.18v-2.48h-6.18v2.48ZM235.23,232.81l1.3,2.3,4.88-2.75-1.3-2.3-4.88,2.75ZM236.56,320.23l.77,1.58,1.8-.9-.77-1.58-1.8.9ZM237.21,322.51l.38,1.92,1.73-.35-.38-1.92-1.73.35ZM237.58,63.98l3.12,2.35,1.4-1.85-3.12-2.35-1.4,1.85ZM239.06,24.93l1.2,10.05,4.93-.6-1.2-10.05-4.93.6ZM239.21,136.68l2.3.55.65-2.62-2.3-.55-.65,2.62ZM239.63,199.11h1.35v-2.12h-1.35v2.12ZM240.43,278.13h3.4v-2.9h-3.4v2.9ZM240.53,13.33h2.52v2.57h3.88v-4.38h-3.88v-.98h-2.52v2.78h0ZM241.41,320.86l4.73,1.62.77-2.23-4.73-1.62-.77,2.23ZM241.41,317.08l.77,1.58,1.8-.9-.77-1.58-1.8.9ZM241.98,308.81l.93,1.98,2-.92-.93-1.98-2,.92ZM242.68,60.96l3.5,12.7,5-1.38-3.5-12.7-5,1.38h0ZM242.93,37.01l.45,2.72,2.5-.42-.45-2.72-2.5.42h0ZM243.48,313.53l1.18,1.3,2.4-2.17-1.18-1.3-2.4,2.17ZM244.41,108.26h4.88v-12.22h-4.88v12.22ZM244.98,317.98l1.9.65.57-1.65-1.9-.65-.57,1.65ZM245.18,199.16l.18,2.38,3.77-.3.35,4.5,2.07-.15-.5-6.45-.32.02-.02-.4-5.53.4h0ZM245.26,310.43h2.2v-2.2h-2.2v2.2ZM246.41,123.43l2.88,2.8,5-5.15-2.88-2.8-5,5.15ZM246.93,95.56h2.35v-.35h.35v18.18h4.82v-25.48h-5.18v4.93h-2.35v2.72h0ZM247.26,92.36h1.65v-2.65h-1.65v2.65ZM248.48,212.41h1.8v-3.4h-1.8v3.4ZM249.38,231.63l5.7.75.52-3.9-1.12-.15.7-2.62-1.9-.5-.73,2.7,1.27.35-3.93-.52-.52,3.9h0ZM249.41,320.48l10.75.45.17-3.95-10.75-.45-.18,3.95h0ZM250.33,293.66l2.45,2.75,2.1-1.88-2.45-2.75-2.1,1.88ZM254.66,215.93h1.27v-8.07h-1.27v8.07ZM254.81,91.01l5.33,1.2,2.73-12-5.33-1.2-2.73,12h0ZM255.61,227.73h2.35v-2.85h-2.35v2.85ZM256.33,115.68l5.88.32.4-7.43-5.88-.32-.4,7.43ZM257.31,323.28h9.73v-1.45h-9.73v1.45ZM257.81,130.81h7.17v-6.15h-7.17v6.15h0ZM259.13,213.06h3.3v-2.07h-3.3v2.07ZM259.13,199.76h3.3v-2.07h-3.3v2.07ZM259.13,186.48h3.3v-2.07h-3.3v2.07ZM261.11,102.93h29.15v-3.97h-29.15v3.97ZM261.11,73.68h29.15v-3.97h-14.17l1.12-2.32-6.7-3.25-1.12,2.35,6.7,3.25h-14.98v3.95h0ZM261.11,59.58h29.15v-3.15h-29.15v3.15ZM261.38,221.26h5.85v-3.9h-5.85v3.9ZM261.56,380.08h8.05v-3.85h-8.05v3.85ZM263.31,282.41h2.98v-2.73h-2.98v2.73ZM263.31,279.11h1.92v-1.98h-1.92v1.98ZM263.43,274.78l.92,1.67,3.17-1.73-.92-1.67-3.17,1.73ZM264.38,295.48l3.55,3.98,2.5-2.23-3.55-3.98-2.5,2.23ZM265.56,128.83l2.02.18.42-4.57-2.02-.18-.42,4.57h0ZM268.01,125.61l.42,2.43,2.25-.4-.42-2.43-2.25.4ZM271.01,90.16l4.67,1.25,1.1-4.2-4.67-1.25-1.1,4.2h0ZM271.28,115.36h18.98v-3.97h-18.98v3.97ZM272.13,80.78l1.12,4.2,4.67-1.25-1.1-4.2-4.7,1.25ZM274.86,283.76h1.55v-1.35h-1.55v1.35ZM276.71,198.71h4.05v-6.48h-2.88v4.75h-1.17v1.73h0ZM277.91,91.41h11.67v-11.32h-11.67v11.32ZM278.61,308.53h2.25v-2.33h-2.25v2.33ZM286.66,408.66h1.92v-2.05h-1.92v2.05ZM289.38,408.21h1.92v-.9h2.83v-2.1h-2.83v.2h-1.92v2.8h0ZM289.91,396.23h7.62v-1.08h-7.62v1.08ZM292.08,149.21h5.3v-11.57h-5.3v11.57ZM293.68,63.41h3.7v-6.97h-3.7v6.97ZM298.71,374.83h4.77v-1.75h-4.77v1.75ZM298.71,352.53h1.65v-4.3h-1.65v4.3ZM298.78,167.38h2.55v-8.3h-2.55v8.3ZM298.78,156.18h2.55v-8.3h-2.55v8.3ZM299.01,143.33l1,2.12,3-1.4-1-2.12-3,1.4ZM299.13,95.66l1.27.2.35-2.18-1.27-.2-.35,2.18ZM299.48,80.33h3.73v-1.55h-3.73v1.55ZM299.53,289.23h1.75v-4.2h-1.75v4.2ZM299.53,282.96h1.75v-4.2h-1.75v4.2ZM299.53,277.41h1.75v-4.2h-1.75v4.2ZM299.53,265.41h1.27v-2.95h-1.27v2.95ZM299.53,361.91h3.95v-1.77h-3.95v1.77ZM299.91,398.61h1.88v-2.02h-1.88v2.02ZM300.03,382.63l1.73.23.65-4.73-1.73-.23-.65,4.73ZM300.33,295.48h8.23v-2.4h-8.23v2.4ZM300.43,140.53h2.55v-1.95h-2.55v1.95ZM303.48,358.33h4.27v-1.4h-4.27v1.4ZM303.48,348.23h4.27v-1.9h-4.27v1.9ZM303.83,80.33h1.77v-1.55h-1.77v1.55ZM305.36,245.11h2.38v-2.6h-2.38v2.6ZM307.73,362.43h3.95v-1.77h-3.95v1.77ZM309.43,329.78h2.73v-1.98h-2.73v1.98ZM310.36,370.33h1.33v-3.92h-1.33v3.92ZM310.36,357.38h1.33v-4.85h-1.33v4.85ZM310.43,271.56l.4,1.62,3.73-.9-.4-1.62-3.73.9ZM310.88,401.73h2.95v-2.38h-2.95v2.38ZM311.66,211.78h8.12v-2.38h-8.12v2.38ZM311.66,205.03h8.12v-2.38h-8.12v2.38ZM311.66,198.31h8.12v-2.38h-8.12v2.38ZM311.66,191.56h8.12v-2.38h-8.12v2.38ZM311.66,174.13h8.12v-2.38h-8.12v2.38ZM311.66,167.38h8.12v-2.38h-8.12v2.38ZM311.66,160.66h8.12v-2.38h-8.12v2.38ZM311.66,153.91h8.12v-2.38h-8.12v2.38ZM312.63,370.91h1.33v-3.92h-1.33v3.92ZM312.63,365.48h1.33v-3.92h-1.33v3.92ZM312.76,348.81h1.05v-4.17h-1.05v4.17ZM313.56,360.66h5.25v-1.33h-5.25v1.33ZM314.26,340.28h2.27v-1.38h-2.27v1.38ZM314.31,401.56l2.05,1.2,1.2-2.05v.85h4.98v-2.38h-4.98v1.52l-2.05-1.2-1.2,2.05h0ZM314.86,237.96l.83,1.6,2.62-1.38-.83-1.6-2.62,1.38ZM315.16,285.93l1.65.3.67-3.77-1.65-.3-.67,3.77ZM315.23,329.98l.92,2.58,2.25-.8-.92-2.58-2.25.8ZM315.43,383.73h8v-1.92h-8v1.92ZM315.48,245.11h2.98v-1.8h-2.98v1.8ZM317.18,338.21l.42,2.35,1.6-.27-.42-2.35-1.6.27ZM317.48,249.66h6.17v-1.82h-6.17v1.82ZM319.43,331.73h2.85v-2.73h-2.85v2.73ZM319.48,360.66h4.58v-1.33h-4.58v1.33ZM320.86,358.18h1.05v-4.17h-1.05v4.17ZM321.33,259.28h1.98v-1.83h-1.98v1.83ZM321.91,344.16h4.27v-1.9h-4.27v1.9ZM322.51,340.28h2.85v-2.73h-2.85v2.73ZM322.98,410.86h4.75v-2.17h-4.75v2.17ZM322.98,358.18h1.05v-4.17h-1.05v4.17ZM324.46,362.26h2.15v-2.27h-2.15v2.27ZM325.63,295.33h3.83v-2.08h-3.83v2.08ZM326.18,379.41h2.12v-1.92h-2.12v1.92ZM326.18,330.06h4.67v.8h2.85v-2.73h-2.85v.65h-4.67v1.28ZM326.38,248.76h6.17v-.93h-6.17v.93ZM327.58,225.78h8.12v-1.98h-8.12v1.98ZM328.31,410.83h2.95v-1.08h-2.95v1.08ZM329.03,383.73h1.25v-6.25h-1.25v6.25ZM329.03,373.08h8.2v-1.48h-8.2v1.48ZM329.03,399.66l.15,2.08,2.08-.15-.15-2.08-2.08.15ZM330.86,363.58h4.58v-1.33h-4.58v1.33ZM331.56,275.98h5.5v-2.4h-5.5v2.4ZM333.73,211.78h8.12v-2.38h-8.12v2.38ZM333.73,205.03h8.12v-2.38h-8.12v2.38ZM333.73,198.31h8.12v-2.38h-8.12v2.38ZM333.73,191.56h8.12v-2.38h-8.12v2.38ZM333.73,174.13h8.12v-2.38h-8.12v2.38ZM333.73,167.38h8.12v-2.38h-8.12v2.38ZM333.73,160.66h8.12v-2.38h-8.12v2.38ZM333.73,153.91h8.12v-2.38h-8.12v2.38ZM335.26,294.76h1.8v-8.92h-1.8v8.92ZM335.73,284.43h1.33v-4.52h-1.33v4.52ZM335.73,269.11h1.33v-2.95h-1.33v2.95ZM335.73,265.43h1.33v-2.95h-1.33v2.95ZM336.43,103.26h4.95v-3.28h-4.95v3.28ZM337.31,140.41h8.12v-1.98h-8.12v1.98ZM337.48,76.11l1.4,7,2-.4-1.4-7-2,.4ZM338.68,265.43h3.12v-2.23h-3.12v2.23ZM338.83,402.13h2.27v-2.17h-2.27v2.17ZM339.06,274.21l1,.15.9-6.23-1-.15-.9,6.23h0ZM339.43,380.13h1.02v-6.25h-1.02v6.25ZM339.96,317.21h1.33v-2.23h-1.33v2.23ZM342.16,133.11h5.73v-1.98h-2.7v-2.38h-1.33v2.38h-1.7v1.98h0ZM345.76,127.96l.52,2.3,1.3-.3-.52-2.3-1.3.3ZM347.48,356.33l3.98,2.83.6-.83-3.98-2.83-.6.83h0ZM349.03,230.71h3.75v-3.5h-3.75v3.5ZM349.41,65.21h2.4v-4.12h-2.4v4.12ZM349.73,65.93l.55,2.4,1.77-.4-.55-2.4-1.77.4ZM349.98,93.68h2.02v-3.6h-2.02v3.6ZM350.61,112.13h1.15v-3h-1.15v3ZM350.81,295.48l1.75,4.55.95-.38-1.75-4.55-.95.38ZM350.81,288.03l.95.4,1.85-4.52-.95-.38-1.85,4.5h0ZM350.91,233.16h1.88v-1.68h-1.88v1.68ZM350.98,86.31h1.02v-3.62h-1.02v3.62ZM352.06,369.61h1.02v-4.88h-1.02v4.88Z"/>
  <path class="st1" d="M221.03,311.33c0,5.65,4.57,10.2,10.23,10.2h0c5.65,0,10.23-4.58,10.23-10.2s-4.57-10.2-10.23-10.2-10.23,4.58-10.23,10.2Z"/>
  <path class="st0" d="M67.06,309.81v2.77h-9.45v12.67H17.43v-12.77h11.8v-29.48h1.73v26.8h36.1ZM71.93,312.58v-28.12h-3v-.88h-2.05v2.98h3.6v26.02h1.45ZM201.71,384.71v-1.23M201.71,390.26v2.1h12.52M198.98,395.38v-5.12h2.73v-3.42M214.23,386.83v8.55h-16.85M201.71,405.53v-5.73h3.23M312.18,327.38v3.88M269.36,405.36v-5.85h-4.15M337.93,391.38l.23,7.15h4.27v5.25M342.41,411.53v-4.85M353.01,403.78v-6.55M353.01,411.76v-5.08M312.16,349.81v-10.98M324.16,367.68v-8.67M328.48,373.33h-4.33v-3.23M337.93,359.01h-39.8M312.18,371.23v-19.17M312.18,383.96v-8.85M328.48,376.38v7.58M337.93,371.23h-9.45v3.05M298.13,354.46h-4.67M257.21,359.78v-5.33h32.05M270.06,394.76v-.98M257.21,393.78v.98h16.6M270.06,387.81v3.25M272.41,383.31v4.48h-2.35v-2.55h-12.85M274.08,377.36v5.95M257.21,373.33h16.88v1.77M257.21,391.06v-24.02M298.13,383.31h-40.92M332.18,383.96h-34.05M337.93,383.96h-3.5M273.81,413.13v-.83M273.81,404.98v2.3M287.91,404.98v-10.23M298.13,403.36v1.62h-24.33v-10.23h24.33M337.93,347.86v-5.98h-39.8v58.42M337.93,386.21v-32.55M262.83,337.88h12.88v-5.88h-12.88M268.43,311.26v12.08h-28.38v-4.17M241.61,311.26h23.4M242.06,307.71l3.1-2.33,3.73-.45,1.55-4.65h8.05M258.51,296.08h-8.05v-7.75l-4.65-1.55M245.78,286.78h-21.25M245.78,286.78h22.03M267.81,282.61h-4.98M224.56,282.61h8.52M233.08,282.61v-4.02h12.1M233.08,282.61h29.75M255.26,279.98l2.8-1.4h4.8M262.83,278.58v4.02M262.83,278.58v-3.73l3.73-2.02h4.5M258.51,271.46h12.55v-5.88h-12.55M236.81,262.03h9.77M246.56,257.53v-10.38M246.56,243.46h-9.77M228.43,243.46h-9.3M219.13,262.03h9.3M185.78,296.08v-14.25M214.16,271.48h-12.88v-5.9h12.88M214.16,239.26h-12.88v-6.05h12.88M185.78,229.51v-14.7M200.36,223.78l2.32,4.02h11.95l3.5-3.48M215.08,214.81h-11.32M203.78,209.38v-4.32M203.78,202.26v-1.23M216.33,182.61v-2.18h-12.55v20.6M216.33,185.86v15.18h-4.65M208.73,201.03h-4.95M236.81,206.91h-8.38l-2.8-2.8v-8.05l2.8-2.77h7.75l2.8,2.77v6.82M228.43,223.78l-.38-4.45-2.7-2.45M245.16,221.81h-12.07v4.23h12.1M258.51,239.26h12.55v-6.05h-12.55M266.56,213.26v3.62h-10.45v-9.98c3.47-.12,10.45-.27,10.45,0v4.02M266.56,200.03v4.1h-10.45v-5.75M256.13,193.28h10.45v4.2M256.13,193.28v5.07M256.13,193.28v-2.6M266.56,186.78v3.9h-10.45M256.13,190.68v-9.9M266.56,184.23v-3.8h-10.45v.35M246.56,189.81v-9h9.55M249.78,183.78v14.57h6.35M262.81,175.78h12.7v-6.23h-12.7M241.66,185.36v-4l-7.02-4.32h-7.8M209.68,175.56h-12.8v-5.9h12.8M298.41,326.53h-16.42c-.6,0-1.08-.48-1.08-1.08v-35.05l-4.17-5.42v-16.92l6.12-6.1h15.45M298.31,244.33h-15.45l-6.12-6.1v-17.07l4.17-5.07v-35.12c0-.6.48-1.07,1.08-1.07h16.42M298.41,179.86v-86.8M298.41,179.86v46.18M300.71,245.76h-2.3v-19.7M316.18,270.08h-2.58M313.61,270.08h-15.27v-8.77h4.1M313.61,270.08v-2.88M313.61,264.06v-2.75M313.61,261.31h-5.6M313.61,261.31h9.23M328.58,261.31h-5.75M322.83,264.06v-2.75M322.83,267.21v2.88M322.83,270.08h15.42M322.83,270.08h-2.27M338.26,270.08v26M338.26,270.08v-8.77h-3.92M231.93,329.26c-1.98-1.45-3.95-2.9-5.95-4.33-2.18-1.58-7.65-4.9-8.68-10.55-1.05-5.65,1.05-8.67,2.82-12.45,1.43-3.02,3.12-6.23,3.77-7.45M227.31,296.36c-1.1,2.15-4.77,9.65-5.6,11.3M234.38,326.23l-7.75-5.75M174.18,265.58v2.7M174.18,285.86v-17.58M165.16,268.31h9.02M165.16,238.93h9.02M174.18,238.93v2.68M174.18,238.93v-17.68M153.81,223.48v-16.9M153.81,247.06v13.58M153.81,283.21v17.02M137.43,307.01h13.02v-4.23h-13.02M136.53,308.88h4.35M148.23,308.88h4.45M151.63,321.81h9.82M146.78,321.81h-16.18v.75M130.61,325.28v-2.73M130.61,331.91v3.48h13.15M151.03,329.66h6.2v-3.48M130.61,322.56h-42.77M87.83,322.56v2.73M87.83,322.56v-.75h-5.15M87.83,332.11v3.48h-13.15M74.68,321.81h-6.95M57.58,321.81h3.47M95.98,308.96h-8.9v-13.6M87.08,279.83v-17.83M87.08,242.98v-17.5M87.08,210.68v-13.9h8.93M104.61,196.78h4.38M136.53,196.78h4.35M148.23,196.78h4.45M137.43,199.21h13.02v3.93h-13.02M137.43,247.06h6.65v12.67h-6.62M37.63,283.68h-6.67M29.23,283.68h-1.95M22.83,283.68h-2.27M41.88,283.68h25.02M53.21,279.16h15.57v4.42M53.21,259.83h6.5v-12.52h-6.5M53.21,227.21h15.57v-3.93h-27.67M36.83,223.28h-6M30.83,213.31h4.25M38.08,213.31h22.22v-12.05M60.31,197.76v-.98M60.31,196.78h1.2M60.31,196.78h-8.15M54.56,188.71h-2.42M60.01,188.71h1.42M62.88,188.71h-1.45M66.51,188.71h6.2M87.08,188.71h-14.38M92.36,188.71h32.05M65.91,183.73v-6.35h2.88M61.46,188.71v-15.85M61.46,162.43v10.43M61.46,172.86h11.28M72.71,172.86v15.85M72.71,172.86v-10.43M94.93,151.41h-22.22v11.02M100.53,151.41h22.07M72.71,162.43h-6.2v6.35h2.28M47.01,354.18v1.8M47.01,349.66v-5.83M56.53,333.66v-8.38M61.08,321.81v7.77h6.65v-7.77M61.08,321.81h6.65M65.46,309.78v-19.45h-9.83v8.45M50.78,298.78v-8.45h-16.02v8.45M138.76,188.71h-8.18v-26.55h8.98M142.53,162.16h31.18M173.68,188.71h-31.15M143.78,141.26h7.7M157.63,150.68v-9.43h-6.12M157.63,150.68h-6.12v-9.43M157.63,150.68h14.8v-4.4M172.43,140.31v-8.18M172.43,126.18v-18.4M160.63,135.26h-9.7M143.78,117.83v2.2M143.78,115.18v-1.88M130.91,118.83v1.2M130.91,116.31v-4.97M99.61,131.68h5.8M108.41,131.68h6.38v-20.38h-6.38M105.41,111.31h-5.8M89.76,111.31h6.25M89.76,131.68h6.25M86.86,131.68h-6.25v-20.38h6.25M64.01,121.76v-2.2M64.01,122.88v6.7M51.16,123.93v1.97M51.16,121.16v-1.85M189.58,123.88h26.75v-3.2M216.33,56.46v60.4M208.73,120.68h7.6M216.33,120.68v-3.85M208.73,116.86h7.6M254.96,56.46v60.4M280.91,123.88h-25.95v-3.2M262.81,120.68h-7.85M254.96,120.68v-3.85M262.81,116.86h-7.85M298.41,81.63v-2.78M309.46,78.86v11.75h3.85M335.33,123.88h5.98v9.6h7.05v-5.55M345.13,156.96v-8.1h-15.38v29.68h3.62M336.38,178.51h8.75v-19M322.91,156.96v-8.1h-15.38v29.68h3.62M314.16,178.53h8.75v-19M345.13,194.31v-8.1h-15.38v29.68h3.62M336.38,215.86h8.75v-19M322.91,194.31v-8.1h-15.38v29.68h3.62M314.16,215.88h8.75v-19M311.16,137.68v5h8.98M320.13,224.61h-8.98v-4.27h8.98M340.01,226.06h-1.73v9.65M338.28,239.28v6.48h-30.75M306.03,245.76h1.5M307.53,245.76v-3M307.53,239.78v-13.7h-1.5M300.73,226.06h-2.3M327.61,241.06v-5.98h4.05M353.01,242.11v1.27M365.93,241.06v2.35M365.93,238.71v-2.38M353.01,239.78v-6.57M345.91,233.98v-7.93M344.68,226.06h7.58M352.93,262.31v-1M352.93,265.13v1.7M352.93,273.58v-6.75M352.93,276.08v.8M365.96,274.96v1.92M365.96,272.58v-2.48M359.26,266.81h-6.33M104.43,308.98h4.82M106.63,307.01h-12.72v-4.23h12.72M106.63,203.13h-12.72v-3.93h12.72M39.46,347.88v4.15h-3.92v-4.15h3.92ZM298.13,394.78h39.88"/>
  <path d="M124.46,149.36h-1.88v39.4h1.88v-39.4ZM224.16,56.13h-4.1v-2.45h4.1v2.45ZM251.53,56.13h-4.27v-2.45h4.27v2.45Z"/>
  <path class="st2" d="M345.01,421.76c.05-.12.05-.25.05-.4,0-.8-.02-1.6-.08-2.42"/>
  <path class="st2" d="M341.36,452.31c.02-.27.02-.55.05-.85,0-.2.02-.42-.08-.6s-.3-.33-.48-.27c-.08-.05-.05-.2.02-.25s.17-.08.27-.1c.2-.05.38-.25.33-.45-.02-.08-.08-.15-.12-.2-.4-.5-.65-1.1-.77-1.73-.02-.1-.02-.23.05-.3.02-.02.08-.05.12-.05.33-.08.67,0,1-.05.42-.08.8-.33,1.2-.38.23-.02.48.02.7.02s.48-.05.62-.25c.17-.23.15-.52.12-.83-.02-.2-.05-.4-.08-.6"/>
  <line class="st2" x1="358.51" y1="439.31" x2="361.08" y2="439.31"/>
  <line class="st2" x1="363.83" y1="439.31" x2="366.86" y2="439.31"/>
  <line class="st2" x1="366.81" y1="424.31" x2="366.86" y2="442.38"/>
  <line class="st2" x1="366.83" y1="445.06" x2="366.86" y2="453.91"/>
  <line class="st2" x1="366.83" y1="456.66" x2="366.83" y2="462.56"/>
  <line class="st2" x1="358.58" y1="447.93" x2="366.66" y2="447.91"/>
  <path class="st2" d="M374.68,462.43c-.7-.77-1.38-1.55-2.08-2.33.02-4,.02-7.98.05-11.98.65-.62,1.3-1.25,1.92-1.9,6.73,0,13.45.02,20.2.02.67.65,1.35,1.33,2.02,1.98,0,4,0,8.02.02,12.02l-2.05,2.05"/>
  <path class="st2" d="M374.86,424.21c-.73.75-1.45,1.5-2.17,2.25l-.1,12.1,2,2c1.42-.02,2.88-.05,4.3-.08"/>
  <path class="st2" d="M382.38,440.53h12.6c.65-.65,1.3-1.27,1.92-1.92,0-4.02,0-8.05-.02-12.05l-2.3-2.33"/>
  <path class="st2" d="M405.58,462.26c-.67-.67-1.38-1.35-2.05-2.02v-4.4"/>
  <path class="st2" d="M403.53,452.41c0-5.55.02-11.12.02-16.67"/>
  <path class="st2" d="M403.61,432.26l-.02-5.6c.73-.75,1.48-1.52,2.2-2.27"/>
  <rect class="st4" x="356.21" y="439.86" width="1.5" height="7.42"/>
  <rect class="st4" x="340.13" y="463.51" width="3.67" height="1.8"/>
  <rect class="st4" x="337.76" y="460.88" width="2.05" height="4.33"/>
  <rect class="st4" x="345.58" y="461.08" width="1.92" height="4.23"/>
  <rect class="st4" x="346.48" y="459.81" width="1.02" height=".77"/>
  <rect class="st4" x="347.01" y="453.51" width=".6" height="5.83"/>
  <rect class="st4" x="358.66" y="456.93" width="1.7" height="4.62"/>
  <rect class="st4" x="358.66" y="448.53" width="1.7" height="7.73"/>
  <rect class="st4" x="360.83" y="461.08" width="4.2" height="1.33"/>
  <rect class="st4" x="365.06" y="448.16" width="1.55" height="4.75"/>
  <rect class="st4" x="361.93" y="448.16" width="3.27" height="1.48"/>
  <rect class="st4" x="376.06" y="431.48" width="11.65" height="3.77"/>
  <rect class="st4" x="374.81" y="425.08" width="3.6" height="1.58"/>
  <rect class="st4" x="378.71" y="425.08" width="3.65" height="1.58"/>
  <rect class="st4" x="382.83" y="425.08" width="4.88" height="1.42"/>
  <rect class="st4" x="388.16" y="425.08" width="4.27" height="1.85"/>
  <rect class="st4" x="391.18" y="430.48" width="1.67" height="5"/>
  <rect class="st4" x="393.88" y="437.86" width="2.52" height="1.75" transform="translate(-194.5 407.91) rotate(-45)"/>
  <rect class="st4" x="394.22" y="424.98" width="1.67" height="2.77" transform="translate(-185.78 404.23) rotate(-45)"/>
  <rect class="st4" x="409.11" y="448.63" width="1.62" height="7.4"/>
  <rect class="st4" x="413.86" y="448.63" width="1.7" height="7.4"/>
  <rect class="st4" x="419.21" y="448.63" width="1.48" height="12.55"/>
  <rect class="st4" x="403.88" y="446.41" width="11.12" height="1.23"/>
  <rect class="st4" x="407.08" y="436.88" width="9.05" height="3.65"/>
  <rect class="st4" x="407.08" y="428.13" width="9.05" height="3.62"/>
  <rect class="st4" x="419.21" y="427.96" width="1.45" height="3.67"/>
  <rect class="st4" x="419.21" y="432.38" width="1.45" height="4.3"/>
  <rect class="st4" x="419.21" y="437.06" width="1.45" height="3.55"/>
  <rect class="st4" x="418.98" y="441.11" width="1.67" height="4.25"/>
  <path class="st2" d="M416.06,448.13c-4.1-.02-8.23-.02-12.33-.05"/>
  <rect class="st4" x="335.53" y="428.48" width="1.3" height="3.9"/>
  <rect class="st4" x="336.81" y="431.71" width="6.38" height=".7"/>
  <rect class="st4" x="337.38" y="424.18" width="4.48" height="1.75"/>
  <rect class="st4" x="341.36" y="424.18" width="2.05" height="4.12"/>
</svg>