<?xml version="1.0" encoding="UTF-8"?>
<svg id="Discord.gg-_x40_marazm" xmlns="http://www.w3.org/2000/svg" version="1.1" viewBox="0 0 422.24 484.04">
  <!-- Generator: Adobe Illustrator 30.1.0, SVG Export Plug-In . SVG Version: 2.1.1 Build 136)  -->
  <defs>
    <style>
      .st0 {
        fill: none;
        stroke-width: .25px;
      }

      .st0, .st1 {
        stroke: #000;
      }

      .st2 {
        fill: #777;
      }

      .st3 {
        fill: #987f00;
      }

      .st1 {
        fill: #363636;
        stroke-width: .5px;
      }
    </style>
  </defs>
  <path class="st1" d="M31.75,284.12v28.15c5.89.02,11.78.03,17.67.05,0,.27,0,.55.02.82-.38,0-.76,0-1.14,0,0,.58.01,1.15.02,1.73h-1.11c0-.57-.01-1.13-.02-1.7-5.15-.03-10.29-.05-15.43-.08,0,3.4,0,6.81,0,10.21,5.17,0,10.34,0,15.5,0,0-2.37-.02-4.74-.03-7.12.35,0,.7-.01,1.05-.02.03,3.47.05,6.93.08,10.4-3.28.02-6.55.04-9.83.07,0,1.39,0,2.77.01,4.16,4.85.01,9.71.02,14.56.03l-.07-17.76c-.48,0-.97,0-1.44,0,0-.27,0-.53,0-.8h20.94v1.62h-14.83v19.42h10.52v2.67h20.6v-13.33h42.1v13.33h20.6v-2.52h10.68v-10.83h16.6v32h-5.62v41.05h25.2v18.52h26.8v-53.2l4.35-4.35h12.7l4.35,4.35v53.2h27.23v-18.23h1.62v15.7h40.02v2.52h2.08v40.9h12.45v-28.15h-2.23v-12.75h4.15v40.9h12.6v-28.15h-2.23v-12.75h11.42v-2.52h14.23v-14.67h-14.23v-4h6.08v-7.7h-6.08v-124.02h4.45v-5.32h-4.45v-24.75h-30.38v4.6h-14.4v10.52h-10.23v-20.75h53.38v-86.85h-6.08v-4.3h-3.85v-11.25h-5.92v-.75h-37.65v28.45h-43.27v-29.05h7.42v-5.03h-14.23v7.25h-24.18v-7.25h-14.23v5.03h7.12v29.05h-38.25v4.15h-4.3v-3.4h-2.07v-43.72h-41.07v14.38h-7.25v-1.18h-27.3v-1.47h-44.62v12.6h20.3v28H31.75v12.45h30.97v10.95h-30.98v39.85h21.55v5.12h19.22v18.7h-19.22v12.37h19.22v19.73h-19.22v4.48c-7.18.08-14.37.15-21.55.23h0ZM59.9,196.4v-2.35h12.6v2.35h-12.6ZM59.9,172.5v-2.35h12.6v2.35h-12.6ZM66.75,183.8v-5.32h5.78v5.32h-5.78ZM89.05,242.27v-38.8h18.43v-4.1h30.35v4.1h17.23v1.2c-17.1,9.18-52.45,28.25-57.1,31.02-4.2,2.5-6.22,5.65-7.22,7.2-.38.6-.6.95-.75.95-.47,0-.93-.52-.93-1.57h0ZM89.05,303.22v-38.8c0-1.05.43-1.55.95-1.55.15,0,.38.35.75.95,1,1.55,3.03,4.7,7.22,7.2,4.65,2.77,40,21.83,57.1,31.02v1.2h-17.23v4.1h-30.38v-4.1l-18.43-.02h0ZM89.85,151.52v-19.43h54.42v-11.45h16.43v3.12h-8.07v11.45h8.07v6.15h-2.18v1.07h-5.2v7.6h5.2v1.45l-68.68.02h0ZM126.1,265c0-.1.15-.4.4-.88.85-1.65,2.77-5.33,2.77-9.15v-3.43c0-2.85-1.35-5.77-2.25-7.73-.45-.98-.78-1.7-.78-2.05,0-.73.93-1.38,1.47-1.68,1.38-.8,5.8-3.45,10.43-6.25h0c5.88-3.55,12.12-7.27,12.88-7.68,1.35-.68,4.05-1.18,4.05,1.35v19.5h-17.23v12.52h17.23v19.77c0,1.52-1.05,2.65-1.98,2.65-.88,0-2.52-1.08-3.93-1.98h0l-.27-.17c-.88-.58-8.62-5.12-14.6-8.65h0c-3.68-2.17-6.68-3.92-6.97-4.12-.82-.52-1.22-1.62-1.22-2.05h0ZM167.72,305.52v-43.42c0-1,.8-1.8,1.8-1.8h7.38c1,0,1.8.8,1.8,1.8v43.42c0,1-.8,1.8-1.8,1.8h-7.38c-1,0-1.8-.8-1.8-1.8h0ZM167.72,244.57v-43.43c0-1,.8-1.8,1.8-1.8h7.38c1,0,1.8.8,1.8,1.8v43.43c0,1-.8,1.8-1.8,1.8h-7.38c-1,0-1.8-.8-1.8-1.8h0ZM191.4,332.22v-41.27l4.1-5.27v-13.48h18.75v-6.3h-18.75v-5.67c0-1.2.98-2.15,2.15-2.15h12.18c1.48.12,4.95,1.1,7,4.1.5.75.9,1.4,1.25,1.98,1.43,2.38,2.07,3.48,6.25,3.48h33.6v-29h-36.85c-.62.75-2.23,2.7-3.57,4.6-1.7,2.38-4.6,5.12-7.68,5.12h-12.18c-1.2,0-2.15-.98-2.15-2.15v-6.55h18.75v-5.98h-18.75v-12.95l-4.1-5.62v-39.25h18.43v-5.98h7l4.27,4.25h29.5l4.27-4.25h8.02v5.98h18.6v39.55l-4.1,4.95v13.3h-18.77v5.98h18.77v26.25h-18.77v6.3h18.77v13.3l4.1,5.62v41.1h-18.25v5.98h-7.5l-4.43-4.42h-29.4l-4.43,4.42h-7.68v-5.98l-18.43.02h0Z"/>
  <path class="st2" d="M191.82,286.65c.55,0,1,.45,1,1h0c0,.55-.45,1-1,1s-1-.45-1-1,.45-1,1-1h0ZM57.77,309.47c.6,0,1.08.48,1.08,1.08h0c0,.6-.47,1.08-1.08,1.08h0c-.6,0-1.08-.48-1.08-1.08s.5-1.08,1.08-1.08h0ZM53.2,310.17c.6,0,1.08.48,1.08,1.08h0c0,.6-.47,1.08-1.08,1.08h0c-.6,0-1.08-.48-1.08-1.08s.47-1.08,1.08-1.08h0ZM193.82,259.37c.55,0,1,.45,1,1s-.45,1-1,1-1-.45-1-1,.45-1,1-1h0ZM189.5,313.3c.55,0,1,.45,1,1s-.45,1-1,1h0c-.55,0-1-.45-1-1h0c0-.55.45-1,1-1h0ZM189.5,191.07c.55,0,1,.45,1,1s-.45,1-1,1h0c-.55,0-1-.45-1-1h0c0-.55.45-1,1-1h0ZM191.82,218.75c.55,0,1,.45,1,1s-.45,1-1,1-1-.45-1-1,.45-1,1-1h0ZM193.82,243.82c.55,0,1,.45,1,1s-.45,1-1,1-1-.45-1-1,.45-1,1-1ZM245.87,356.5c.52,0,.98.42.98.98h0c0,.52-.43.98-.98.98s-.98-.42-.98-.98.43-.98.98-.98h0ZM220.45,336.95c.52,0,.98.42.98.98s-.43.98-.98.98-.98-.42-.98-.98h0c.02-.55.45-.98.98-.98h0ZM226.1,356.5c.52,0,.98.42.98.98h0c0,.52-.43.98-.98.98s-.98-.42-.98-.98.43-.98.98-.98h0ZM223.52,389.4c.52,0,.98.42.98.98h0c0,.52-.43.98-.98.98s-.98-.42-.98-.98.43-.98.98-.98h0ZM248.55,389.4c.52,0,.98.42.98.98s-.43.98-.98.98-.98-.42-.98-.98.45-.98.98-.98ZM350.67,395.67l-.67-2.83,2.17-.52.67,2.83-2.17.52ZM331.3,398.9l1.92-2.55.92.7-1.92,2.55-.92-.7h0ZM352.15,369.35l-.33-3.7,1.5-.12.33,3.7-1.5.12ZM340.77,377.8l-.55-6.4,1.02-.1.55,6.4-1.02.1h0ZM352.15,400.95v-2.15h1.02v2.15h-1.02ZM325.7,399.07v-2.7h3.17v2.7h-3.17ZM189.87,371.65v3.6h1.2v-3.6h-1.2ZM206.27,371.65v3.6h1.2v-3.6h-1.2ZM272.37,391.9v3.6h1.2v-3.6h-1.2ZM287.52,391.9v3.6h1.2v-3.6h-1.2ZM287.52,358.45v-3.6h1.2v3.6h-1.2ZM272.37,358.45v-3.6h1.2v3.6h-1.2ZM44.17,297.92v-6.83h1.2v6.83h-1.2ZM57.17,297.92v-6.83h1.2v6.83h-1.2ZM189.87,365.82v-6.83h1.2v6.83h-1.2ZM206.27,365.82v-6.83h1.2v6.83h-1.2ZM272.37,370.65v-6.83h1.2v6.83h-1.2ZM287.5,370.65v-6.83h1.2v6.83h-1.2ZM272.37,387.85v-6.83h1.2v6.83h-1.2ZM287.5,387.85v-6.83h1.2v6.83h-1.2ZM182.85,371.65v3.6h1.2v-3.6h-1.2ZM199.25,371.65v3.6h1.2v-3.6h-1.2ZM265.35,391.9v3.6h1.2v-3.6h-1.2ZM280.47,391.9v3.6h1.2v-3.6h-1.2ZM280.47,358.45v-3.6h1.2v3.6h-1.2ZM265.35,358.45v-3.6h1.2v3.6h-1.2ZM37.15,297.92v-6.83h1.2v6.83h-1.2ZM50.15,297.92v-6.83h1.2v6.83h-1.2ZM182.85,365.82v-6.83h1.2v6.83h-1.2ZM199.25,365.82v-6.83h1.2v6.83h-1.2ZM265.32,370.65v-6.83h1.2v6.83h-1.2ZM280.47,370.65v-6.83h1.2v6.83h-1.2ZM265.32,387.85v-6.83h1.2v6.83h-1.2ZM280.47,387.85v-6.83h1.2v6.83h-1.2ZM182.85,372.97v2.27h8.23v-2.27h-8.23ZM199.25,372.97v2.27h8.23v-2.27h-8.23ZM265.32,393.22v2.27h8.23v-2.27h-8.23ZM280.47,393.22v2.27h8.23v-2.27h-8.23ZM280.47,357.12v-2.27h8.23v2.27h-8.23ZM265.32,357.12v-2.27h8.23v2.27h-8.23ZM177.52,390.55c0-1.08.88-1.95,1.93-1.95h5.55c1.07,0,1.95.85,1.95,1.92h0c0,1.08-.88,1.92-1.93,1.95h-5.55c-1.07,0-1.93-.85-1.95-1.92h0ZM37.15,296.6v-4.58h8.22v4.6h-8.22v-.02ZM35.12,307.62c0-1.02.83-1.85,1.85-1.85h5.35c1.03,0,1.85.83,1.85,1.85s-.83,1.85-1.85,1.85h-5.35c-1,.02-1.85-.83-1.85-1.85ZM53.67,307.62v-2.1h3.53v2.1h-3.53ZM73.95,220.72l3.12-6.05,1.32.68-3.12,6.05-1.32-.68ZM73.4,273.77v-8.73h1.4v8.73h-1.4ZM50.15,296.6v-4.58h8.22v4.6h-8.22v-.02ZM182.85,364.5v-4.6h8.23v4.6h-8.23ZM247.6,400.8v-7.1h1.38v7.1h-1.38ZM247.6,387.8v-7.1h1.38v7.1h-1.38ZM235.15,354.85l.12-2.9,5.12.2-.12,2.9-5.12-.2ZM247.6,371.82v-7.1h1.38v7.1h-1.38ZM222.82,371.82v-7.1h1.38v7.1h-1.38ZM222.82,384.25v-7.1h1.38v7.1h-1.38ZM222.82,401.45v-7.1h1.38v7.1h-1.38ZM222.82,410.65v-7.1h1.38v7.1h-1.38ZM199.25,364.5v-4.6h8.23v4.6h-8.23ZM265.32,369.32v-4.6h8.23v4.6h-8.23ZM285.05,259.45v-3h5.3v3h-5.3ZM286.17,261.37v-7.5h3.55v7.5h-3.55ZM277.32,259.45v-13.45h1.92v13.45h-1.92ZM280.22,230.97v-3.02h3v3.02h-3ZM286.17,231.72v-3.77h2.02v3.77h-2.02ZM299.22,181.85v-1.85h1.67v1.85h-1.67ZM299.22,185.3v-1.85h1.67v1.85h-1.67ZM299.22,191.15v-1.85h1.67v1.85h-1.67ZM299.22,194.6v-1.85h1.67v1.85h-1.67ZM300.62,166.8v-6.6h.9v6.6h-.9ZM300.62,203.8v-6.6h.9v6.6h-.9ZM299.22,156.67v-8.45h2.3v8.45h-2.3ZM299.22,214.67v-8.45h2.3v8.45h-2.3ZM283.1,225.17v-1.88h4.85v1.88h-4.85ZM282.65,226.65v-1.48h6.62v1.48h-6.62ZM282.65,232.3v-5.07h2.77v5.07h-2.77ZM229.1,252.87c0-1.15.93-2.07,2.07-2.07h9.1c1.15,0,2.07.93,2.07,2.07h0c0,1.15-.93,2.07-2.07,2.07h-9.1c-1.15,0-2.07-.93-2.07-2.07h0ZM254.15,262.52v-2.08h-3.6v2.08h3.6ZM252.55,252.67v-2.07h3.6v2.07h-3.6ZM256.42,265.47v-5h-2.27v5h2.27ZM219.92,258.55v-1.57h2.8v1.57h-2.8ZM179.97,228.02l4.45,6.43,1.18-.82-4.45-6.43-1.18.82ZM179.97,279.87l4.45-6.42,1.18.83-4.45,6.42-1.18-.83ZM189.6,283.4v1.6h3.95v-1.6h-3.95ZM190.35,223.07v-1.6h3.95v1.6h-3.95ZM187.1,323.4v-15.65h1.45v15.65h-1.45ZM239,162.25l3.55-.05-.02-1.7-3.55.05.02,1.7ZM233.47,165.6l8.8.65.25-3.4-8.8-.65-.25,3.4ZM218.37,149.4l2.15-.35-.27-1.75-2.15.35.27,1.75h0ZM218.57,135.5l1.98.2.45-4.23-1.98-.2-.45,4.23ZM225.65,127.6h1.68v-2.68h-1.68v2.68ZM228.7,134.77h3.8v-1.55h-3.8v1.55ZM233.97,134.77h3.8v-1.55h-3.8v1.55ZM235.55,125.7h3.8v-1.55h-3.8v1.55ZM229.25,125.7h3.8v-1.55h-3.8v1.55ZM225.85,172.35h7.88v-2.57h-7.88v2.57ZM223.5,173.8h26.7v-1.45h-26.7v1.45ZM223.5,335.5h26.7v1.45h-26.7v-1.45ZM163.32,297.65v-15.65h1.45v15.65h-1.45ZM163.32,230.2v-15.65h1.45v15.65h-1.45ZM187.07,206.47v-15.65h1.45v15.65h-1.45ZM187.07,307.72v-14.73h3.43v14.73h-3.43ZM163.32,282.25v-12.95h3.43v12.95h-3.43ZM163.32,214.8v-12.95h3.43v12.95h-3.43ZM187.07,191.07v-12.95h3.43v12.95h-3.43ZM187.07,331.77v-10.02h3.43v10.02h-3.43ZM161.02,136.92l.62-3.3,2.43.45-.62,3.3-2.43-.45ZM161.02,133.02v-2.43h3.55v2.43h-3.55ZM160.07,119.92v-2.72h1.88v2.72h-1.88ZM156.92,120.3v-1.72h2.62v1.72h-2.62ZM116.92,165v-3.6h13.82v3.6h-13.82ZM149.75,180.37v-14.35h1.68v14.32h-1.68v.02h0ZM146.35,181.3v-1.88h5.1v1.88h-5.1ZM136.47,181.3v-1.88h8.82v1.88h-8.82ZM152,181.3v-6.23h7.82v6.23h-7.82ZM140.62,174.3v-9.3h4v9.3h-4ZM84.12,180.95v-14.73h4.95v14.73h-4.95ZM91.8,165v-3.6h13.82v3.6h-13.82ZM68.07,131.35v-3.6h5.65v3.6h-5.65ZM89.1,131.35v-4.07h3.95v4.07h-3.95ZM109.17,131.35v-2.6h3.95v2.6h-3.95ZM111.85,124.5v-1.2h16.35v1.2h-16.35ZM131.75,122.02v-3.45h6.1v3.45h-6.1ZM225.72,337.67l7.45.08v1.3l-7.45-.08v-1.3ZM239.07,338.2l7.45.08v1.3l-7.45-.08v-1.3ZM248.6,173.77h1.6v-4.48h-1.6v4.48h0ZM248.6,335.5h1.6v4.48h-1.6v-4.48h0ZM223.5,173.77h1.6v-4.48h-1.6v4.48ZM223.5,335.5h1.6v4.48h-1.6v-4.48ZM163.32,306.05v-10.02h3.43v10.02h-3.43ZM163.32,238.57v-10.02h3.43v10.02h-3.43ZM187.1,214.85v-10.02h3.43v10.02h-3.43ZM192.62,272.92v12.05h1.48v-12.05h-1.48ZM193.35,233.52v-12.05h1.48v12.05h-1.48ZM218.35,258.52v-11.45h2.27v11.45h-2.27ZM250.82,256.45v-5.85h2.27v5.85h-2.27ZM286.17,247.07v-8.95h3.55v8.95h-3.55ZM294.22,297.7v-14.08h3.98v14.08h-3.98ZM313.2,380.92l3.65-2.38.67,1.02-3.65,2.38-.67-1.02ZM314.2,371.3l1.08-4.2.95.25-1.08,4.2-.95-.25ZM320.87,368.7l1.77-3.98.9.4-1.77,3.98-.9-.4ZM322.67,371.32v-3.38h2.15v3.38h-2.15ZM329.55,367.95v-1.65h5.17v1.65h-5.17ZM324.42,373.55v-5.62h3.48v5.62h-3.48ZM333.27,362.9v-4.48h1.73v4.48h-1.73ZM308.5,362.9v-1.48h4.7v1.48h-4.7ZM342.67,327.75l-.48-4.33,1.83-.2.48,4.33-1.83.2ZM352.17,300.02v-5.67h1.33v5.67h-1.33ZM350.85,255.85v-3.12h2.67v3.12h-2.67ZM327.85,273.6v-2.17h5.15v2.17h-5.15ZM326.15,288.55v-3.12h11.77v3.12h-11.77ZM326.15,303.4v-3.12h11.77v3.12h-11.77ZM299.07,303.15v-3.12h12.17v3.12h-12.17ZM351.17,242.6l-1.67.12-.35-4.8,1.67-.12.35,4.8ZM309.22,243.32v-1.7h3.77v1.7h-3.77ZM317.95,238.72v-2.77h2.05v2.77h-2.05ZM299.3,266.6v-3.5h2.23v3.5h-2.23ZM299.3,272.02v-3.5h2.23v3.5h-2.23ZM311.25,271.42v-7.95h2.23v7.95h-2.23ZM312.52,286.12v-11.7h3.65v11.7h-3.65ZM326.15,303.4v-8.3h2.73v8.3h-2.73ZM317.32,326.8v-9.15h4.08v9.15h-4.08ZM307.92,320.05v-12.55h4.17v12.55h-4.17ZM339.3,331.17v-7.02h2.5v7.02h-2.5ZM317.22,362.9v-4.48h1.73v4.48h-1.73ZM324.82,362.9v-4.48h1.73v4.48h-1.73ZM324.42,347.4v-4.48h1.73v4.48h-1.73ZM328.87,349.32v-4.48h1.73v4.48h-1.73ZM301.12,347.77l.6-4.42,1.73.23-.6,4.42-1.73-.23ZM309.52,347.85l-.3-4.45,1.73-.12.3,4.45-1.73.12ZM317.32,351.27l-3.45-2.85,1.1-1.33,3.45,2.85-1.1,1.33ZM294.22,320.05v-14.08h3.98v14.08h-3.98ZM280.47,369.32v-4.6h8.23v4.6h-8.23ZM265.32,386.55v-4.6h8.23v4.6h-8.23ZM273.45,376.57v-1.75h7.02v1.75h-7.02ZM280.47,386.55v-4.6h8.23v4.6h-8.23ZM325.67,413.3v-4.6h2.7v4.6h-2.7Z"/>
  <path class="st3" d="M196.32,239.37h17.68v-5.45h-17.68v5.45ZM258.3,239.37h18.4v-5.48h-18.4v5.48ZM196.32,271.92h17.68v-5.77h-17.68v5.77ZM258.42,271.95h18.33l-.05-5.83h-18.33l.05,5.83ZM53.47,228.7h18.95v-5.18h-18.95v5.18h0ZM53.47,284.27h18.95v-4.52h-18.95v4.52h0ZM53.47,259.67h18.95v-12.45h-18.95v12.45h0ZM137.85,259.6h17v-12.45h-17v12.45ZM89.12,307.27h18.43v-4.05h-18.43v4.05ZM137.92,307.32h16.75v-3.95h-16.75v3.95ZM89.07,203.47h18.43v-4.05h-18.43v4.05h0ZM137.67,203.47h17.27v-4.02h-17.27v4.02ZM192,175.6h17.57v-5.65h-17.57v5.65ZM262.87,175.87h18.2v-5.93h-18.2v5.93ZM192,338.22h17.57v-5.75h-17.57v5.75ZM263.2,338.22h17.88v-5.92h-17.88v5.92ZM345.75,138.7h-3.85v-4h3.85v4ZM157.47,333.22h-6.07v-3.7h6.23l-.15,3.7h0ZM57.95,333.05h8.62v-3.12h-8.62v3.12h0ZM62.97,172.75h9.9v5.48h-9.88l-.03-5.48h0ZM157.47,333.22l.15-9.3h4.3v9.3h-4.45ZM62.27,330.12v-5h-4.33v5h4.33ZM66.47,178v5.9h-3.5v-5.9h3.5ZM156.25,127.9v3.9h-3.38v-3.9h3.38ZM160.7,134.97h-7.82v-3.35h7.82v3.35ZM217.55,121.5h-7.12v-4.32h7.12v4.32ZM262.32,121.5h-7.43v-4.32h7.43v4.32ZM319.9,143.57h-11.9v-4.85h11.9v4.85ZM320.67,225.22h-12.83v-4.1h12.83v4.1ZM328.1,231.57v9.73h-4.58v-9.73h4.58ZM367.57,402.15v9.2h-4.25v-9.2h4.25ZM334.02,235.27h-6.33v-3.7h6.33v3.7ZM363.32,411.35h-5.95v-3.45h5.95v3.45ZM273.55,400.3h-10.27v-4.3h10.27v4.3ZM198.62,400.3h10.35v-4.55h-10.35v4.55ZM273.55,400.3v5.67h-3.83v-5.67h3.83ZM198.62,400.3v5.73h4.3v-5.73h-4.3Z"/>
  <path d="M174.6,181.5h4.1v-21.3h-4.1v21.3Z"/>
  <path class="st0" d="M334.05,427.12h-1.9M336.5,427.12h5.45M335.6,414.22h6.73M321.37,414.22h6.23M322.37,427.12h5.23M319.82,427.12h-2M318.47,414.22h-1M315.35,404.75v6.95M315.35,402.52v-6.62M315.35,395.9h-16.67M315.35,395.9h2.73M321.37,395.9h-3.3M324.05,395.9h14.58v-9.05M338.62,385.75v1.1M338.62,386.85h-20.55M298.67,386.85v9.05M298.67,386.85h19.4M298.67,386.85v-1.67M298.67,395.9h-3.85M318.07,392.45v3.45M318.07,390.07v-3.23M353.85,407.22v4.3M357.47,408v-5.9h5.9v5.9h-5.9ZM353.85,403.75v-6.35M353.85,391.52v1.35M353.85,386.4v-1.2M338.62,379.6v-1.95M338.62,355.3v7.7M338.62,349.85v-8h-39.95v12.83M293.87,385.2h4.8M298.67,385.2v-18.88M293.87,366.32h4.8M298.67,366.32v-3.33M298.67,363h6.08M298.67,363v-8.3M307.62,363h1.67M338.62,363v14.65M338.62,363h-10.6M332.15,377.62h6.45M329.07,377.62h-1.05M322.37,377.62h5.65M319.4,377.62h-.92M313.35,377.62h5.12M310.02,377.62h-.75v-14.65M309.27,363h9.2M318.47,377.62v-14.65M318.47,363h9.52M328,377.62v-14.65M294.82,404.75v6.55M294.82,402.1v-6.2M294.82,395.9h-19.23M269.7,406.02v-5.75h-6.35v13.92M274.05,396h-16.27v-41.3h40.9M281.62,338.17l-18.42.02M302.32,261.22h-3.65v12.67M308.52,261.22h2.42M323.32,273.9h15.27M338.6,273.9v-12.67h-27.67M338.6,273.9v53.15h-39.95v-53.15M320.75,273.9h-9.83M310.92,273.9v-12.67M310.92,273.9h-2.42M302.32,273.9h-3.65M317.57,246.27h-8.15M320.75,246.27h2.58M338.12,239.77v6.5h-14.8M338.12,236.6v-5.12M334.05,235.25v5.9h-5.9v-5.9h5.9ZM323.32,246.27v-10.57M298.67,221.95v3.18M298.67,216.97v-39.1M298.67,172.57v-21.6M301.42,138.75h-2.75M306.25,138.75h29.9M346,138.75h-9.85M336.15,138.75v-6.8M336.15,129.7v-6.35M320.75,143.45h-12.85v77.45h12.85M247.35,265.97v1.5M247.35,262.95v-1.95M247.35,243.47v1.35M247.35,240.15v-1.68M227.55,244.85h19.8M247.35,244.85v16.15M227.55,261h19.8M224.67,261h-1.68v-16.15h1.68M202.9,406.02v-5.75h6.05v13.92M178.85,354.67h35.77v30.45M191.35,389.75v6M198.52,389.75v6h16.1v-10.6M198.52,387.02v-1.88h16.1M191.35,387.02v-1.88h-17.98M191.35,338.17h18.5M173.87,314.1v-6.67M151.37,333.62v-4.12M151.37,329.5v-6.67h6.23v6.67h-6.23ZM147.67,322.82h-16.6M155.05,307.32h-17.12M88.95,307.32h18.15M71.12,322.82h17.8M68.05,322.82v.85M68.05,333.27v-9.58M68.05,323.67h-5.83v6.15h10.1v6M63.6,308.27v-5.12h8.72M72.32,303.15v9.12M72.32,303.15v-9.08h-8.72v4.98M48.02,306.75v5.45M48.02,304.17v-1.02h-16.25M72.35,291.67v-7.35h-19M31.77,284.32h21.57M31.75,223.5h21.58M72.87,204.9v1.7M57.1,208.32v-1.7h15.75M72.87,206.6v16.95h-15.75M57.1,211.75v11.8M57.1,223.55h-3.78M46.5,201.82v11.12h-14.73M46.5,198.9v-2.57M46.5,196.35h-14.73M46.5,196.35h13.35M72.85,196.35v5.48M72.85,196.35h-13.03M72.85,196.35v-2.3M72.85,187.42v6.62M72.85,184.7v-.7M72.85,177.17v1.27M59.85,188.3v5.75M59.85,196.32v-2.3M59.85,185.9v-1.88h6.9M72.85,184v-5.57M72.85,184h-6.12M72.85,174.25v-1.7M72.85,163.47v6.6M72.85,161.42v-1.38M59.85,162.27v-2.23M59.85,164.5v5.57M76.97,152.67h-4.1M76.97,132.15h-4.1M86.05,132.15h3.6M86.05,152.67h3.6M89.65,152.67v1.38M89.65,152.67v-1.02M89.65,156.8v6.68M89.65,181.62v-18.15M89.65,190.17h44.17v-8.55M133.82,174.77v6.85M133.82,181.62h17.8M174.57,181.62h-22.95M151.62,181.62v-16.25M151.62,160.4v4.95M151.62,165.35h8.55M166,165.35h8.55M169.95,151.65h2.4M160.2,151.65h-1.38M156.25,127.35v4.27h4.45v3.43M133.12,154.75v-3.07M151.62,154.75v-3.07M133.15,158.5v5.12M133.15,171.52v-7.88M133.15,163.65h-18.82M108.82,163.47h-19.18M88.95,199.37h18.5M137.75,199.37h17.48M190.92,169.9h19.25M281.47,169.9h-18.6M228.17,124.3v8.55h12.3M242.62,132.85h1.6v-8.55M59.85,194.05h13.03M72.85,178.42h-6.12v5.57M59.85,170.07v2.45h13M59.85,170.07h13.03M72.85,170.07v2.45M53.32,223.55v5.12h19l.07,18.62h-19.15v12.38h19.15l-.07,20h-19v4.62"/>
  <path class="st2" d="M32.96,313.34h-1v9.77h15.05c0-.38,0-.76,0-1.14-4.67.02-9.34.03-14.01.05-.01-2.89-.02-5.78-.04-8.67Z"/>
</svg>