<?xml version="1.0" encoding="UTF-8"?>
<svg id="Discord.gg-_x40_marazm" xmlns="http://www.w3.org/2000/svg" version="1.1" viewBox="0 0 422.24 484.04">
  <!-- Generator: Adobe Illustrator 30.1.0, SVG Export Plug-In . SVG Version: 2.1.1 Build 136)  -->
  <defs>
    <style>
      .st0, .st1 {
        stroke-width: .25px;
      }

      .st0, .st1, .st2, .st3 {
        stroke: #000;
      }

      .st0, .st2 {
        fill: none;
      }

      .st4 {
        fill: #777;
      }

      .st2, .st3 {
        stroke-width: .5px;
      }

      .st5 {
        fill: #987f00;
      }

      .st3 {
        fill: #363636;
      }
    </style>
  </defs>
  <path class="st3" d="M1.63,237.48h5v13.43h9.35v2.02H6.63v30.85h5.3v25.23h18.23v3.27h7.95v31.15h-12.3v12.62h20.73v-32.72h25.1v92.08h16.75v-19.12h21.6v-18.27h18.08v-9.6h17.15v-61.6h19.02v9.98h7.8v-10.3h33.97v10.3h7.65v-10.25h41.8v-19.38h33.63v66.55h-3.77v20.25h3.77v36.45h63.7v1.5l14.7-.02v-14.67l-14.7.02v-130.95h6.23v-5.3h-6.23v-85.18h-23.23v23.38h9.05v7.8h-26.77v-4.4h-8v4.38h-26.02v-4.38h-8.1v4.38h-27.12v-58.43h-.77v-1.25h2.18v-2.8h41.4c9.42.02,36.67.1,36.67-32.55v-15.1h13.4v-21.38h4.65v-6.93h-41.35v5.93h2.98v4.6h-2.98v6.53h2.98v4.45h-2.98v6.8h13.05v11.4c0,.5.02,1.07.05,1.72.27,7.62.85,24.5-27.17,24.5H72.48v-42.95h9.1v-10.18h-28.53v10.18h9.2v56.45h-8.45v48.1h17.83v27.1H6.63v9.02H1.63v5.3h0ZM52.71,269.31v-32h19.15v32h-1.85v-3.6h-15.18v3.6h-2.12ZM61.28,183.58v-10.95h17.35v10.95h-17.35ZM72.08,147.63v-3.32h92.2v34.45h-14.73v-2.45h-1.57v-13.98h1.57v-11h-40.75v2.98h-2.62v-6.65l-34.1-.03h0ZM88.36,356.86v-20.62h39.62v11.67h-13.88v8.95h-25.75ZM88.56,328.58v-62.12h75.72v31.42h-28.3v8.9h.9v21.83l-48.32-.02h0ZM88.11,238.36v-76.02h18.05v-3.5h1.93v3.5h.7v13.98h-.7v11.2h41.45v-.7h14.73v51.57l-76.15-.03h0ZM171.83,298.46v-32.45h34.07v32.45h-34.07ZM171.96,238.36v-16.68h26.43v-33.3h12.77v-12.05h20.93v-3.32h3.15v33.93h-10.85v31.48h-52.42v-.05ZM171.96,188.16v-43.85h61.52v2.8h2.8v1.4h-1.05v16.95h-3.5v-.88h-27.02v11.7h-12.45v11.85h-20.3v.02ZM213.48,298.46v-32.45h19.7v17.17h13.2v15.25h-32.9v.03ZM233.06,222.01v-7.25h105.38v11.55h1.42v6.23h-1.85v-1.48h-14.98v13.77h14.98v.9h1.5v26.08h-11.17v-10.83h-29.88v19.4-4.35h-34.6v-37.72h-17.93v-16.3h-12.87ZM298.48,396.98v-55.2h41v55.2h-41ZM298.48,328.43v-45.6,9.5l2.38,2.17-.98,1.02,4.88,5.1,1-1,1.58,1.58h32.15v27.25l-41-.02h0ZM309.11,292.48v-5.65h9.73v5.65h-9.73Z"/>
  <path class="st4" d="M274.86,205.68c1.17,0,2.1.95,2.1,2.1s-.95,2.12-2.1,2.1h0c-1.17,0-2.1-.95-2.1-2.1h0c-.02-1.18.93-2.1,2.1-2.1ZM225.53,261.93c1.18,0,2.12.95,2.12,2.1h0c0,1.17-.95,2.1-2.12,2.1s-2.12-.95-2.12-2.1.95-2.1,2.12-2.1h0ZM211.03,304.41c1.18,0,2.12.95,2.12,2.1h0c0,1.17-.95,2.1-2.12,2.1s-2.12-.95-2.12-2.1.98-2.1,2.12-2.1h0ZM108.71,388.01c.6,0,1.1.5,1.1,1.1s-.5,1.1-1.1,1.1-1.1-.5-1.1-1.1.5-1.1,1.1-1.1h0ZM90.41,391.83c.6,0,1.1.5,1.1,1.1s-.5,1.1-1.1,1.1-1.1-.5-1.1-1.1.47-1.1,1.1-1.1h0ZM106.81,395.63v-3.02h1.6v3.02h-1.6ZM103.68,395.63v-3.02h1.6v3.02h-1.6ZM100.56,395.63v-3.02h1.6v3.02h-1.6ZM91.03,361.46l.1-1.85,4.53.25-.1,1.85-4.53-.25ZM91.26,365.46l-.12-1.85,4.53-.3.12,1.85-4.53.3ZM105.28,358.98v-1.75h6.35v1.75h-6.35ZM116.31,350.18v-2.02h10.12v2.02h-10.12ZM119.73,360.63v-5.33h3.1v5.33h-3.1ZM140.03,364.23l-.35-1.62,3.12-.67.35,1.62-3.12.67ZM204.26,243.31l-.1-1.05,5.52-.57.1,1.05-5.52.57ZM203.18,241.76l-.02-1.05,7.23-.12.02,1.05-7.23.12ZM204.06,241.18l.05-1.05,7.23.27-.05,1.05-7.23-.27ZM212.51,240.43l.77-1.12,3.23,2.25-.77,1.12-3.23-2.25ZM196.53,256.36l1.2-1.73,2.57,1.8-1.2,1.72-2.57-1.8h0ZM110.78,263.66v-.73h4.15v.73h-4.15ZM113.96,248.06l1.72-1.73,1,.98-1.72,1.73-1-.98h0ZM104.08,264.71l1.38-2.73,1.25.62-1.38,2.73-1.25-.62ZM98.33,241.51l-.45-1.7,3.62-.95.45,1.7-3.62.95ZM93.08,240.98l.25-1.75,3.7.52-.25,1.75-3.7-.52h0ZM93.03,249.83v-1.75h1.82v1.75h-1.82ZM116.68,250.81v-2.73h1.82v2.73h-1.82ZM107.66,264.71v-2.1h2.65v2.1h-2.65ZM128.18,256.73v-2.1h2.65v2.1h-2.65ZM204.71,263.21v-2.1h2.65v2.1h-2.65ZM213.73,264.06v-2.95h1.82v2.95h-1.82ZM225.03,218.18l1.75.05-.05,2.38-1.75-.05.05-2.38ZM280.26,210.61l-.15-1.18,4.95-.6.15,1.18-4.95.6ZM279.03,209.23v-1.45h7.7v1.45h-7.7ZM242.53,277.41l1.98-1.77,1.3,1.45-1.98,1.77-1.3-1.45ZM243.08,275.63v-2.02h3.02v2.02h-3.02ZM243.03,228.71v-2.88h2.52v2.85h-2.52v.02ZM229.96,228.21l1.75.05-.1,3.55-1.75-.05.1-3.55ZM229.58,244.66l1.75.05-.1,3.55-1.75-.05.1-3.55ZM226.78,249.98l.07-1.75,3.55.15-.07,1.75-3.55-.15ZM227.98,263.03l.5-1.67,3.4,1.05-.5,1.67-3.4-1.05ZM216.96,266.18v-2.95h1.82v2.95h-1.82ZM190.38,305.28l1.43-2.58,1.6.9-1.43,2.58-1.6-.9ZM137.08,301.16v-1.9h1.85v1.9h-1.85ZM136.41,348.88v-3.48h6.38v3.48h-6.38ZM140.78,361.48v-3h2.88v3h-2.88ZM141.58,368.41v-3.9h2.07v3.9h-2.07ZM139.28,368.41v-3.23h2.07v3.23h-2.07ZM135.96,368.41v-2.62h2.43v2.62h-2.43ZM125.11,375.43v-2.6h1.7v2.62h-1.7v-.02ZM121.98,375.43v-2.6h1.7v2.62h-1.7v-.02ZM118.86,375.43v-2.6h1.7v2.62h-1.7v-.02ZM115.73,375.43v-2.6h1.7v2.62h-1.7v-.02ZM112.63,375.43v-2.6h1.7v2.62h-1.7v-.02ZM108.08,383.28v-2.62h1.7v2.62h-1.7ZM94.31,364.41v-6.27h1.47v6.27h-1.47ZM99.38,371.71l-.32-2.7,2.65-.33.32,2.7-2.65.33ZM91.48,369.61v-1.8h2.12v1.8h-2.12ZM52.63,308.06l1.58-1.55,1.3,1.3-1.58,1.55-1.3-1.3ZM56.11,307.81l-.62-2.12,1.35-.4.62,2.12-1.35.4ZM19.76,267.58l-1.4-3.12,2.67-1.17,1.4,3.12-2.67,1.17ZM9.93,280.73l-1.4-3.12,2.67-1.17,1.4,3.12-2.67,1.17ZM25.36,235.81l.5,1.75,3.5-1-.5-1.75-3.5,1ZM14.18,250.18l.5-1.75,3.5,1-.5,1.75-3.5-1h0ZM26.06,234.36l.35-3.07,2.17.25-.35,3.07s-2.17-.25-2.17-.25ZM9.83,226.76v-3.23h3.07v3.23h-3.07ZM6.98,230.08v-6.55h3.08v6.55h-3.08ZM29.11,235.23v-2.3h3.3v2.3h-3.3ZM55.76,195.13l.3-1.7,3.05.52-.3,1.7-3.05-.52ZM60.23,195.91v-2.9h2v2.9h-2ZM62.88,195.91v-1.95h1.22v1.95h-1.22ZM134.18,143.51l1.62-2.55,1.65,1.05-1.62,2.55-1.65-1.05ZM133.88,186.23l.05-2.57,2.45.05-.05,2.57-2.45-.05ZM137.91,185.93l1.5-2.77,2.18,1.18-1.5,2.77-2.18-1.18h0ZM164.93,177.28l.1-3.23,1.62.05-.1,3.23-1.62-.05ZM165.03,181.98l.12-3.75.75.02-.12,3.75-.75-.02ZM172.46,190.96l1.3-2.07,2.1,1.3-1.3,2.07-2.1-1.3ZM162.51,181.91l.05-1.75,2.48.07-.05,1.75-2.48-.07ZM145.06,170.83l.68-1.6,2.27.95-.68,1.6-2.27-.95ZM320.78,213.16l1.23-2.68,2.8,1.27-1.23,2.68-2.8-1.27ZM325.28,213.06l.55-1.23,2.12.98-.55,1.23-2.12-.98ZM328.71,214.41l.17-2.55,1.42.1-.17,2.55-1.42-.1ZM339.16,220.41l1.05-3,1.35.48-1.05,3-1.35-.48ZM338.88,223.41v-1.88h1.9v1.88h-1.9ZM342.21,223.08v-1.88h2.58v1.88h-2.58ZM338.61,225.66v-1.88h5.73v1.88h-5.73ZM341.08,207.78v-5.8h3.25v5.8h-3.25ZM329.68,198.68v-2.43h5.67v2.43h-5.67ZM329.68,192.96v-3.73h1.3v3.73h-1.3ZM329.68,186.16v-3.73h1.3v3.73h-1.3ZM337.21,177.61v-1.35h7.12v1.35h-7.12ZM333.58,96.33v-3.6h1.85v3.6h-1.85ZM331.23,96.33v-3.18h1.85v3.18h-1.85ZM327.96,96.33v-1.6h2.75v1.6h-2.75ZM298.96,96.33v-3.18h1.8v3.18h-1.8ZM334.51,186.16v-2.48h6.3v2.48h-6.3ZM334.51,193.58v-2.48h6.3v2.48h-6.3ZM332.46,278.83l-3.15-3.15,1.38-1.38,3.15,3.15-1.38,1.38ZM332.46,282.98l-3.15-3.15,1.38-1.38,3.15,3.15-1.38,1.38ZM332.46,287.13l-3.15-3.15,1.38-1.38,3.15,3.15-1.38,1.38ZM308.71,276.11v-10.05h4.25v10.05h-4.25ZM332.31,341.06l.23-4.02,1.42.08-.23,4.02-1.42-.08ZM324.86,340.16l.45-3.67,5.25.62-.45,3.67-5.25-.62ZM296.28,323.28v-3h1.65v3h-1.65ZM295.33,327.23v-2.6h2.6v2.6h-2.6ZM296.28,330.23v-3h1.65v3h-1.65ZM302.51,341.33v-2.42h3.83v2.42h-3.83ZM299.66,341.33v-4.85h2.85v4.85h-2.85ZM343.16,395.21v-7.12h.7v7.12h-.7ZM287.91,370.66l1.73-1.35.85,1.08-1.73,1.35-.85-1.08ZM289.38,409.93v-6.2h3.4v6.2h-3.4ZM310.33,409.93v-3.3h8.27v3.3h-8.27ZM341.76,395.21v-7.12h.7v7.12h-.7ZM342.46,395.73v-7.15h.7v7.12h-.7v.02ZM341.23,395.73v-7.15h.7v7.12h-.7v.02ZM340.53,396.23v-7.12h.7v7.12h-.7ZM319.78,340.78v-4.85h2.85v4.85h-2.85ZM334.76,340.78v-2.15h2.85v2.15h-2.85ZM345.11,280.21v-3.65h1.73v3.65h-1.73ZM337.61,287.13v-8.23h1.85v8.23h-1.85ZM337.61,276.11v-3.6h1.85v3.6h-1.85ZM332.91,274.03v-1.8h1.85v1.8h-1.85ZM330.11,274.03v-1.8h1.85v1.8h-1.85ZM312.63,286.16l1.45-2.35,1.75,1.08-1.45,2.35-1.75-1.08ZM316.58,285.18l1.05-1.7,1.75,1.08-1.05,1.7-1.75-1.08ZM317.66,276.11v-10.05h4.25v10.05h-4.25ZM308.23,206.36v-2.48h3.15v2.48h-3.15ZM238.91,195.21v-2.48h3.15v2.48h-3.15ZM236.16,161.61v-1.8h1.68v1.8h-1.68ZM199.23,137.46v-1.55h1.57v1.55h-1.57ZM215.43,176.06v-2.27h2.85v2.27h-2.85ZM218.28,176.06v-1.8h13.15v1.8h-13.15ZM222.68,166.08v-1.05h8.48v1.05h-8.48ZM217.16,167.11v-2.1h5.52v2.1h-5.52ZM208.68,167.11v-2.1h5.52v2.1h-5.52ZM205.16,173.31v-5.8h1.9v5.8h-1.9ZM208.11,186.53v-4.55h2.48v4.55h-2.48ZM201.01,187.88v-2.1h9.57v2.1h-9.57ZM194.83,179.01v-2.1h7.38v2.1h-7.38ZM192.68,183.31v-6.38h2.48v6.38h-2.48ZM196.41,200.73v-8h1.8v8h-1.8ZM196.41,218.06v-16.27h1.8v16.27h-1.8ZM189.93,221.38v-1.52h6.1v1.52h-6.1ZM182.68,221.38v-2.3h5.7v2.27h-5.7v.03ZM173.68,221.38v-1.52h7.57v1.52h-7.57ZM182.36,214.91v-3.52h5.75v3.52h-5.75ZM182.36,206.81v-12.57h5.75v12.57h-5.75ZM172.46,208.96v-16.25h2.43v16.25h-2.43ZM147.36,160.98v-8.82h1.52v8.82h-1.52ZM134.21,176.63v-14.18h3.15v14.18h-3.15ZM119.91,176.63v-14.18h3.18v14.18h-3.18ZM108.21,184.96l.18-6.45.95.02-.18,6.45-.95-.02ZM110.13,184.43l-.35-5.43,1.22-.07.35,5.43-1.22.07ZM109.06,185.63l-.5-7.8,1.38-.1.5,7.8-1.38.1ZM109.16,176.26v-8.95h2.03v8.95h-2.03ZM116.11,154.08v-2.48h15.62v2.48h-15.62ZM97.73,155.38v-6.45h2.7v6.45h-2.7ZM90.68,155.38v-6.45h2.7v6.45h-2.7ZM83.91,152.81v-3.88h2.7v3.88h-2.7ZM91.61,161.86v-1.73h3.55v1.73h-3.55ZM84.76,161.86v-1.73h3.55v1.73h-3.55ZM77.46,161.28v-6.45h1.55v6.45h-1.55ZM73.53,159.01v-3.1h1.97v3.1h-1.97ZM73.08,161.66v-2.35h2.78v2.35h-2.78ZM69.33,160.98v-2.82h3.05v2.82h-3.05ZM72.38,185.08v-1.4h1.43v1.4h-1.43ZM73.96,185.51v-1.43h1.43v1.4h-1.43v.03ZM75.68,185.78v-1.4h1.43v1.4h-1.43ZM84.76,190.86v-2.6h1.85v2.6h-1.85ZM84.18,194.93v-2.6h1.85v2.6h-1.85ZM72.76,195.91v-1.38h1.6v1.38h-1.6ZM64.98,195.91v-1.95h6.85v1.95h-6.85ZM71.83,201.23v-1.82h2.5v1.82h-2.5ZM71.83,203.86v-1.82h2.5v1.82h-2.5ZM71.83,212.33v-2.85h1.8v2.85h-1.8ZM74.33,213.58v-3.27h2.05v3.27h-2.05ZM54.61,234.81v-3.27h2.05v3.27h-2.05ZM74.08,215.28l-.2-1.85,2.72-.27.2,1.85-2.72.27ZM53.56,237.01v-2.3h3.3v2.3h-3.3ZM30.01,237.56v-2.3h3.3v2.3h-3.3ZM29.11,240.36v-2.3h6.7v2.3h-6.7ZM44.43,268.71v-6.73h2.58v6.73h-2.58ZM44.01,271.78v-2.25h3.03v2.25h-3.03ZM43.16,273.71v-2.25h3.22v2.25h-3.22ZM40.41,273.71v-2.25h2.03v2.25h-2.03ZM32.46,268.71v-2.25h7.55v2.25h-7.55ZM33.53,260.23v-2.25h6.47v2.25h-6.47ZM33.53,246.53v-2.25h6.47v2.25h-6.47ZM27.96,257.08v-7.68h2.02v7.68h-2.02ZM21.06,250.53v-3.27h2.02v3.27h-2.02ZM18.36,250.21v-3.27h2.02v3.27h-2.02ZM16.58,254.16v-1.75h3.15v1.75h-3.15ZM14.58,255.46v-1.75h1.75v1.75h-1.75ZM16.58,256.58v-1.75h1.77v1.75h-1.77ZM24.66,261.73v-3.52h2.1v3.52h-2.1ZM22.41,261.98v-3.52h2.1v3.52h-2.1ZM13.11,286.03v-2.48h2.93v2.48h-2.93ZM22.81,279.58v-.98h4.85v.98h-4.85ZM22.41,278.58v-.98h5.8v.98h-5.8ZM22.06,277.61v-.98h7.27v.98h-7.27ZM21.83,280.11v-.98h7.27v.98h-7.27ZM25.48,302.53v-4.42h1.92v4.42h-1.92ZM37.96,343.56v-4.42h1.9v4.42h-1.9ZM48.43,323.03v-1.9h3.53v1.9h-3.53ZM83.76,298.71l.68-8.33,1.7.15-.68,8.33-1.7-.15ZM85.96,297.53v-5.58h1.1v5.58h-1.1ZM83.63,289.36v-2.02h2.82v2.02h-2.82ZM72.98,250.03l.3-1.77,3.45.6-.3,1.77-3.45-.6ZM74.48,271.96v-3.33h2.32v3.33h-2.32ZM75.88,300.21v-3.67h2.82v3.67h-2.82ZM72.98,305.83v-10.65h3.82v10.65h-3.82ZM59.28,304.43v-1.9h4.42v1.9h-4.42ZM59.28,307.21v-1.9h4.42v1.9h-4.42ZM61.01,323.03v-1.9h2.72v1.9h-2.72ZM64.43,323.03v-1.9h2.72v1.9h-2.72ZM71.96,378.96v-3.62h1.7v3.62h-1.7ZM71.96,382.48v-3.12h2v3.12h-2ZM76.26,375.73l-.6-2.15,1.95-.55.6,2.15-1.95.55h0ZM75.78,394.76v-4.23h2v4.23h-2ZM71.96,415.16v-23.73h3.43v23.73h-3.43ZM78.51,413.93l3.25-1.38.68,1.58-3.25,1.38-.68-1.58ZM76.08,414.86v-3.52h1.7v3.52h-1.7ZM85.46,412.56v-3.52h1.7v3.52h-1.7ZM88.36,381.78v-7.65h1.7v7.65h-1.7ZM97.23,383.88v-2.8h5.22v2.83h-5.22v-.03Z"/>
  <path class="st1" d="M38.11,313.36h33.8v-31.2H27.43v20.58h-5.93v1.52h8.73v-20.62h40.28v28.4h-32.4v1.33h0Z"/>
  <path class="st5" d="M329.18,295.98v-4.15l2.95-3.5-2.2-2.2-4.17,3.95v5.9h3.42ZM50.83,294.58v4.3h4.8v-4.3h-4.8ZM30.38,294.58v4.3h4.62v-4.3h-4.62ZM32.68,347.43h5.68v-3.77h-5.67s0,3.77,0,3.77ZM88.36,249.43h2.88v-8.73h-2.88v8.73ZM88.36,264.06h2.88v-9.12h-2.88v9.12h0ZM65.43,168.71v-6.15h-4.22v6.15h4.22ZM240.18,142.96v-2.88h-2.8v2.88h2.8ZM169.46,143.03v-2.88h-2.82v2.88h2.82ZM102.91,141.66h2.88v-3.75h-2.88v3.75ZM304.01,73.53v2.88h2.75v-2.88h-2.75ZM323.26,231.31v9.65h4.17v-9.65h-4.17ZM367.23,411.66v-10.65h-4.1v10.65h4.1ZM356.16,411.66h7.23v-3.8h-7.23v3.8ZM311.11,295.88h7.3v-3.42h-7.3v3.42ZM230.91,242.03v-2.88h-4.75v2.88h4.75ZM236.83,229.86v-2.88h-3.8v2.88h3.8ZM236.58,276.96v-2.88h-3v2.88h3ZM162.93,248.46h3.32v-4.45h-3.32v4.45ZM162.81,260.81h3.25v-4.45h-3.25v4.45ZM204.46,260.76h3.32v-4.4h-3.32v4.4ZM170.43,248.46h3.3v-4.45h-3.3v4.45ZM170.28,260.81h3.32v-4.45h-3.32v4.45ZM211.93,260.76h3.32v-4.4h-3.32v4.4ZM229.08,261.18h4.3v-4.55h-4.3v4.55ZM303.08,283.83h2.92v-4.55h-2.92v4.55ZM302.91,264.06h2.83v-3.05h-2.83v3.05ZM327.46,234.71h6.98v-3.43h-6.98v3.43ZM61.21,172.36h9.95v-3.62h-9.95v3.62h0ZM21.38,308.76l9.02-.02v-4.35l-9.02.02v4.35Z"/>
  <path class="st2" d="M232.91,251.91h-40.68v5.57-10.98M81.78,251.93h37.35l.03,5.73v-11.15M127.18,246.46v11.17-5.73h56.92l-.02,5.73v-11.18"/>
  <path class="st0" d="M65.43,162.56v6.15h5.75M171.96,187.33h-2.82M166.88,187.33h-2.6M173.73,248.46h-10.8M170.41,238.36v5.65h3.32M166.26,238.36v5.65h-3.32M171.96,238.36h-7.55M232.91,256.61h-3.82M232.91,261.18l-3.82.02M173.63,256.36h-10.8M170.28,266.43v-5.65h3.32M166.16,266.43v-5.65h-3.32M171.83,266.43h-7.55M215.28,256.36h-10.8M211.93,266.41v-5.65h3.32M207.81,266.41v-5.65h-3.32M213.48,266.41h-7.55M338.58,199.16h6.2v-15.45M344.81,181.18v-5.4M62.23,139.96h36.5v-2.07h7.88M102.93,144.31v-2.65h3.7M233.48,144.31h3.85v-4.25M243.98,144.48h-3.8v-4.4M232.08,172.98v-1.48M232.08,166.91v-1.45M171.96,147.96h-2.95M167.01,147.96h-2.73M164.28,144.31h2.35v-4.55M171.96,144.31h-2.5v-4.55M198.51,144.31v-3.18M198.51,137.58v-3.12M306.76,68.53v7.88h-2.75v-7.88M330.28,68.53v16.72h-20.48v-16.72M171.96,221.68v-3.7M171.96,213.36v-25.2M149.56,186.81v-2.05M149.56,180.43v-1.68M77.08,162.51v-8.93M77.08,151.13v-3.48M78.63,162.51h-17.42l.08,10.12M88.13,182.11h-3.45M81.93,182.11h-3.3M15.98,251.93h4.98M27.76,253.28h-6.8v-2.43h6.8M27.76,264.93v4.05l19.58-.05v-31.2h-19.58v5.68M27.76,245.96v16.5M131.41,350.76h-3.38M145.18,350.76h-11.52M128.03,362.73v-14.75M128.03,368.41v-3.4M42.16,343.46h-4.47M46.53,343.46h-2.03M88.36,386.21v10.33M88.36,356.88v26.2M77.13,346.76h-5.53M88.36,346.76h-7.35M259.53,242.68h-22.75v19.2h22.8l-.05-19.2h0ZM232.91,261.18v4.83M232.91,238.31v18.3M245.96,225.33h-9.32v5.12M241.01,238.31h-8.1v-16.18M245.96,238.31h-2.7M246.46,278.71h-9.75v-5.02M240.96,265.96h-7.88M246.46,266.43v-.48h-3.15M257.48,275.43h-11.02M263.88,266.43h-17.45v16.7M263.88,275.43h-4.3M305.21,292.36h3.92M339.51,288.31h-2.62M339.48,271.78v22.65M328.36,271.78v12.75l3.77,3.77h2.12M306.66,263.98h-4.27v15.23h4.27M329.88,295.98h-21.67l-3.02-3.62v-8.52h-2.7,4.15M78.63,172.61v-2.6M78.63,165.21v-2.73h9.5M88.31,238.31v2.38h3.45M91.76,254.91h-3.32v-5.5h3.4M88.56,266.43v-2.4h3.28M39.73,347.43h-7.05v5M88.58,336.26v-2.83M88.58,331.18v-2.6M145.18,328.31h-2.18M140.61,328.31h-3.73M145.18,306.81h-3.93M139.06,306.81h-2.2M338.43,214.76v-1.62M338.43,208.71v-1.77M339.83,226.31h5.58M349.81,226.31h2.98M327.46,240.93v-6.23h6.98M337.98,244.83v-5.77M337.98,236.31v-3.77M356.16,407.86h6.98v-6.85M352.78,410.41v-4.4M352.78,402.63v-5.6M352.78,397.01h-3.02M345.11,397.01h-5.73M298.48,396.98h-2.65M293.58,396.98h-4.5M298.48,374.33h-3.65M292.53,374.33h-3.45M298.48,353.26h-3.35M292.61,353.26h-3.52M298.61,306.88h-2.58M291.71,306.88h-2.62M298.48,341.78v-5.27M298.48,332.23v-3.8M339.48,341.78h5.73M349.81,341.78h2.98M339.48,328.43h5.67M349.81,328.43h2.98M71.66,252.08h5.47"/>
</svg>