<?xml version="1.0" encoding="utf-8"?>
<!-- Generator: Adobe Illustrator 27.3.1, SVG Export Plug-In . SVG Version: 6.00 Build 0)  -->
<svg version="1.1" id="Discord.gg-_x40_marazm" xmlns="http://www.w3.org/2000/svg" xmlns:xlink="http://www.w3.org/1999/xlink"
	 x="0px" y="0px" viewBox="0 0 514.3 554.1" style="enable-background:new 0 0 514.3 554.1;" xml:space="preserve">
<style type="text/css">
	.st0{fill:#363636;stroke:#000000;stroke-width:0.75;stroke-miterlimit:10;}
	.st1{stroke:#000000;stroke-width:0.5;stroke-miterlimit:10;}
	.st2{stroke:#000000;stroke-width:0.75;stroke-miterlimit:10;}
	.st3{opacity:0.5;fill:#5D0000;stroke:#5D0000;stroke-width:0.5;stroke-miterlimit:10;enable-background:new    ;}
	.st4{opacity:0.5;fill:#5D0000;stroke:#5D0000;stroke-width:0.5;stroke-miterlimit:9.9992;enable-background:new    ;}
	.st5{fill:none;stroke:#000000;stroke-width:0.5;stroke-miterlimit:10;}
	.st6{fill:#777777;}
	.st7{fill:none;stroke:#000000;stroke-miterlimit:10;}
	.st8{fill:none;stroke:#000000;stroke-width:0.75;stroke-miterlimit:10;}
</style>
<path class="st0" d="M208.4,376.1h2.7v-15.4h-3.7v8.5h-26.3v-8.5h-3.9v8.7h-28v-31.5h3.6v-4h-3.7v-4h-3.8v4.1l-12.5,2.1h-13.3
	l-11.9-2v-44.4h3.6l-3.1-3.7h-0.5v-29.9h23.6l0.9-3.8h-24.5v-29.9h2.2l2-3.8h-4.3v-27.8l30.7-0.8l5.3,2.7l2.4,4.9L145,203l3.9,0.9
	l-2.1-11.1c-0.7-1.6-1.8-3.6-3.3-5.9c-1.2-1.8-2.6-3.8-5-6c-2.6-2.3-4.9-3.5-7.4-4.8c-3.8-1.9-6.2-2.5-7-2.6c-1.2-0.3-2.3-0.4-3-0.5
	h-15.2v-1.8l-3.7,1.7H78.4v8H50.2v-19.3h9.3v-3.1h-3.8v-24.4H53V83.5h3.4V81h-25V58.7h33.3v-2.4H31.3V37.5h33.4v-2.6H31.2V15.4h33.4
	v-15H76v33.8h2.6V21.4h32.8v11.9h33.4v40.9h-33.5V82h-5.6v1.2h5.6v24.3H85.1V83.4h17.6V82h-24V37.3H76V82h-3.2v1.5H76V134h-9.2v24.3
	h-3.5v3.2h7v-4H102v6.5l3.8-2.2v-4.4H123l6.2,1.3l9.2-0.9l1-5l-5.8-1.6v-38.9H164v6.2l4-1.1v-5.2h29.5l1.5-4.3h-3v-5.6
	c0.1-0.9,0.4-2,0.7-3.3c0.6-2.3,1.2-4,1.5-5c0.1-0.4,0.8-2.2,1.8-4.5c0.6-1.3,1.2-2.6,2.1-4.4c0.2-0.4,1.2-2,2.8-4.4
	c1.3-1.8,2.7-3.8,4.9-5.9c1.4-1.4,3.9-3.7,7.5-5.9c4.2-2.5,7.8-3.5,10.4-4.3c3.2-0.9,7.7-1.8,13.2-1.9h19.9l1.5,4.3h1.8v-5.8h71.5
	V57h-5.9V31.5h49v1.8h3.8v-1.1H406V83c-5.4-0.2-10.7-0.4-16.1-0.6c8.4,1.4,16.9,2.7,25.3,4.1c8.3,2.2,16.5,4.4,24.8,6.6
	c1.7-6.3,3.4-12.7,5.2-19l1.1-2.1l1.1-1.7l1.3-1.2l1.4-1.1l1.5-0.8l1.6-0.6l1.3-0.3l2.1-0.2h2.4l2.1,0.4l-2.5,9.1h-2.5l-0.7,0.2
	l-0.6,0.4l-0.5,0.4l-0.2,0.6l-5,17.7l12.3,3.5L445.5,155l-8-2.1l-6.5,23.3l5.6,3.1l2.7,1.4l1.7,0.9l2,1.5l2.6,2.1l3,3
	c12.9,12.9,25.9,25.9,38.8,38.9c0.1,0.1,0.3,0.3,0.5,0.4c0.2,0.1,0.4,0.2,1,0.4c0.4,0.1,0.8,0.2,1.5,0.2c0.5,0,1,0.1,1.7-0.1
	c0.4-0.1,1-0.3,1.6-0.8l11.4-11.2l8.4,8.4l-11.8,12c-0.5,0.4-1,0.8-1.7,1.2c-0.3,0.2-1,0.6-2.1,1.1c-0.6,0.2-1.5,0.7-2.9,1
	c-1.1,0.2-1.8,0.3-2.9,0.4c-1.3,0.1-2.3,0.2-3.6,0c-0.6-0.1-1.9-0.2-3.6-0.8c-0.7-0.2-2.2-0.8-3.8-1.9c-1.4-0.9-2.4-1.9-3.2-2.7
	L448,204.5l-21.2,21l29.3,29.5l-5.3,5.4l28.9,29.1l7.3-7.2l5,5l13.3-13.3l7.4,7.6l-13.2,13.2l5.3,5.3l-23.4,23.4l-17.8-17.8l8.9-8.9
	l-29-29l-23.4,23.4l-18.3-18.3l-22.1-4.5l-4.4-22.2L361,231.6l23-23l-9.6-9.6l7.1-7.1l9.7,9.5l5.7-5.7l21.8,21.8l21.1-21.1l-3.9-3.9
	L410.6,179l-1-0.4L408,178l-1.2-0.2h-0.5h-26.2v-4.2h-1.7v6.3h-13v11.4h-23.1v-30.7l-2.3-4.9l-1.7-3.1l-1.6-2.1l-3.4-3.6l-2.2-2.1
	l-1.6-0.6l-3.6-2l-0.7,1.9l0.7,0.5l-5,17.6h-1.8l1.1,2.4h1.3v29.6h-5l2.8,3.9h2.2v29H295v3.8h26.4v10.6h4.1v-10h7.2l4.8,0.8l4,1
	l5,1.8l6,3.2l4.3,3.3l5.7,5.2l3.7,5l2.6,4.7l2.1,5.1h-11.5v3.9h14.7v29.7H363l1,2.4h10.2v26.6H345v-8.8h-2.5V338h2.4v-10.2h29.3
	v26.6h-29.3v-8.9h-2.4v12.7h10.2v13.4c-2.1,0-4.2,0-6.2,0.1v-4.2h-4v27.1h-16.8v-6.9h-4.2v6.9h-30.6v3.7h40.4v28.9h-24v3.7h9.6v26.5
	l-31.5-0.1v-26.4h9v-3.7h-23.1v5h5.5v16.5c0,1.6,0,3.7-0.4,6.1c-0.4,2.8-1.1,4.8-1.6,6.4c-0.9,2.9-2,5-2.5,6s-2.4,4.8-6.1,9.2
	c-3.8,4.6-7.6,7.5-9.7,9c-3.9,2.7-7.3,4.4-9.2,5.2c-4.1,1.8-7.4,2.6-9,2.9c-0.8,0.2-2.8,0.6-5.4,0.9c-1.9,0.2-3.6,0.2-5,0.3h-16.2
	v20.8H207v11.2h95.6v26.9H198v-27h5.1v-11.3h-11.3v-9.1h-10.4v-11.6h-19.1c-0.8,0-1.8-0.1-2.9-0.2c-1.7-0.2-3.1-0.4-3.5-0.5
	c-1.4-0.3-2.5-0.6-3.5-0.9c-0.9-0.3-2.2-0.7-3.7-1.3c-1.4-0.6-3.2-1.5-5.3-2.8c0,2,0.1,4,0.1,6c0,1,0.1,2.4,0.4,4.1
	c0.3,1.5,0.7,2.6,1.1,3.7c0.3,0.9,0.8,2.3,1.8,4c0.5,0.9,1.6,2.8,3.3,4.9c1.4,1.7,2.6,2.7,3.6,3.6c2.5,2.2,4.7,3.6,5.3,4
	c0.5,0.3,2.8,1.7,6.1,3.1c1.1,0.4,3.1,1.2,5.8,1.9c2.2,0.5,5.6,1,9.7,0.8v15.9H177c-0.5,0-1.3,0-2.1-0.1c-0.6,0-1.5-0.1-2.6-0.2
	c-0.9-0.1-1.6-0.3-3.1-0.5c-2.6-0.5-3.9-0.8-4-0.8c-1.9-0.5-3.3-1-4.7-1.5c-2.4-0.9-4.1-1.7-4.7-2c-2-1-3.4-1.8-4.8-2.7
	c-1.6-1-3-1.8-4.7-3.1c-2.1-1.6-3.5-3-4.5-3.9c-0.9-0.9-2.3-2.2-4-4.2c-0.7-0.9-2.2-2.7-3.7-5.2c-1.2-1.9-3.5-5.7-5-11
	c-1-3.6-1.3-6.5-1.4-7.5c-0.1-1.6-0.1-2.9-0.1-3.9v-48.8h-21.9c0,1.4,0,2.9,0,4.3h1.2c0-0.4,0-0.9,0-1.3c6.3-0.1,12.6-0.2,19-0.2
	c-0.1,6.5-0.1,13-0.2,19.6c-1.7,0-3.3,0-5,0c0,0.2,0,0.4,0,0.6l5.4-0.1v5.6h-17.3c0-1.8,0-3.7,0-5.5c1.5,0,3,0,4.5,0
	c0-0.2,0-0.4,0-0.6c-2.1,0-4.2,0-6.3,0c0-3.1,0-6.2,0-9.2c0-1-0.1-2-0.1-3c-0.4,0-0.8,0-1.2,0V468H0.4v-33.3l9.4-0.4l0,0v-3.4H0.4
	v-23.1h45V431h-4.6v3.5H47v-2.6h11.9v2.6h6v-2.7h12.2v2.7h5.8v-2.7h12v2.7h11.5v-9.1h9.3c-0.1-1.6-0.2-3.6-0.1-6
	c0-0.7,0.1-3.6,0.8-7.4c0.3-1.9,0.8-4.9,2-8.7c0.3-1,1.7-5.2,4.5-10.2c1.7-3,4.2-6.9,7.7-10.9l10,8.9l1-1"/>
<path class="st1" d="M151.2,399c0.2,0.2,0.5,0.4,0.7,0.6s0.5,0.4,0.7,0.7L152,401c-2.5,4.3-5.1,8.5-7.6,12.8
	c-0.2,4.3-0.3,8.5-0.5,12.8c-0.1,3.2-0.2,6.3-0.2,9.5c-0.1,3.1-0.2,6.2-0.3,9.3v16.2c0.2,1.1,0.6,2.5,1.2,4.1
	c0.5,1.3,1.1,2.9,2.4,4.7c0.2,0.3,1.3,1.8,3,3.3c0.9,0.8,2.3,2.1,4.5,3.1c1.6,0.7,2.9,1,4.3,1.3c1.8,0.4,3.4,0.5,4.6,0.6h65.4
	c0.6,0,1.4,0,2.3-0.1c0.8-0.1,3.2-0.3,6.2-1.2c0.5-0.2,3.1-0.9,6.1-2.6c0.8-0.4,2.7-1.5,4.9-3.2c1.6-1.3,2.8-2.4,3.3-2.9
	c2.1-2.1,3.4-3.9,3.8-4.4c0.7-1,1.7-2.5,2.6-4.4c0.4-0.9,1.1-2.2,1.6-3.9c0.2-0.7,0.8-2.6,1-5.3c0.1-0.8,0.1-1.5,0.1-2v-16.6h5.5v-5
	h-4.8v-11.6H259l-1.1,3.8h-72.2v-27.4c2.3,0,4.7,0,7,0.1c0-0.9,0.1-1.8,0.1-2.8c-0.6,0-1.3,0-2,0c0-0.6,0-1.1,0-1.7
	c-7.2,0.1-14.4,0.3-21.6,0.4c-4.1,2-8.3,4-12.4,6c-1.8,1.7-3.7,3.3-5.5,5C151.3,398.9,151.2,399,151.2,399z"/>
<path class="st0" d="M151.2,399"/>
<path class="st0" d="M141.6,390.1"/>
<polygon class="st1" points="28.6,434.4 28.6,430.9 17.1,430.9 17.1,434.5 28.6,434.5 "/>
<polygon class="st1" points="277.3,398.3 277.3,394.5 259.9,394.5 253.3,393.2 252.6,396.1 260.3,398.5 257.9,407.6 261.4,408.4 
	261.5,398.3 "/>
<path class="st1" d="M252.9,365.7"/>
<path class="st1" d="M252.9,365.7c0-9.4,0-18.7,0-28.1l12.6,0.1V334H257v-6.2h-3.7l-0.8-14.5h-2.7v8.9L226,335.4v2.3h23.5
	c0.1,8.4,0.2,16.8,0.2,25.2c0,0.1,0,0.1,0,0.2l-15.3,25.2h-23.3v-3.8h-1.9c-0.3,0-0.6,0-0.9,0l-0.1,0.1c0,0.8,0,1.7,0,2.5
	c-1.8,0-3.5,0-5.3,0v2.3c-0.5,0-0.9,0-1.4,0.1c0,0.9,0,1.7,0,2.6c11.1,0,22.2,0,33.3,0c2.6,0.6,5.1,1.2,7.7,1.8l0.9-3.6l-4.9-1.5
	c4.7-7.5,9.4-15,14.1-22.5C252.7,366.1,252.8,365.9,252.9,365.7z"/>
<path class="st2" d="M211,347.8c0-4.7,0.1-9.3,0.1-14h-3.7c-3,0-6.1,0-9.1,0v3.3h9.1c0,3.6,0,7.2,0,10.8L211,347.8L211,347.8z"/>
<polygon class="st1" points="167.8,337.8 167.8,333.8 193.3,333.8 193.3,307.2 186,307.2 177.5,305 179,301.8 186,302.9 
	193.6,302.9 193.6,298 198.3,298 198.3,337.7 181,337.7 181,347.8 177.2,347.8 177.2,337.8 "/>
<polygon class="st1" points="120.4,289.6 120.4,286 145.3,286 145.3,256 140.5,256 140.5,255 139.1,254.3 139.1,252.2 145.3,252.2 
	145.3,248.9 148.2,248.9 148.2,262.1 148.7,270.8 149.4,274.4 150.1,276.7 151,279 152,281.2 155.3,285.7 161.4,290.3 155.5,290.3 
	149.1,298.5 149.1,314.5 145.3,314.5 145.3,289.6 "/>
<path class="st1" d="M276.2,337.7c0-0.9,0-1.8,0-2.7c4.6,0,9.3-0.1,13.9-0.1c2.4,0,4.7,0,7.1,0c0,0.9,0,1.8,0,2.7
	c-2.6,0-5.2,0-7.8,0l0.2,27.4c10.8,0,21.5,0,32.3-0.1c-0.1-9.1-0.2-18.2-0.2-27.3c-6.4,0-12.7,0-19.1,0.1c0-0.9,0-1.8,0-2.7
	c6.4-0.1,12.8-0.3,19.2-0.4v-5.7c1,0,2.1,0,3.1,0c0,15.2,0,30.3,0,45.5h-3c0-2.1,0-4.3-0.1-6.4c-12.1,0-24.3,0-36.4,0.1
	c0.1-10.1,0.1-20.3,0.2-30.4C282.6,337.7,279.4,337.7,276.2,337.7L276.2,337.7z"/>
<path class="st1" d="M325.7,293.1h12v2h16.6l-0.8,2.5h-8.6V308h-2.5v-10.4h-16.9v18.6c-1.2,0-2.4,0-3.7,0l-0.3-18.5l-5.1,0.1v-4.7
	h5.2"/>
<path class="st1" d="M325.7,293.1"/>
<path class="st1" d="M321.6,293.1L321.6,293.1L321.6,293.1L321.6,293.1c0-9.3,0-18.5-0.1-27.8h-5.3v-3.8h5.3v-9.8h4v9.9h20.7v3.8
	h-8.4v2.2h-12.3l0.2,25.5l0,0"/>
<polygon class="st1" points="306.4,297.8 306.4,293.1 280,293.1 280,284.7 276.1,286.9 276.1,294 252.7,294 250.4,296.1 
	249.7,298.7 252.2,299.2 256.2,297.8 "/>
<polygon class="st1" points="276.2,275.1 276.2,251.6 280,251.6 280,261.6 306.2,261.6 306.2,265.4 280,265.4 280,275.1 "/>
<polygon class="st1" points="284.9,230.9 284.9,227.1 280.1,227.1 280.1,217.7 276.1,217.7 276.1,241.4 280,241.4 280,230.9 "/>
<polygon class="st1" points="306.1,198.1 306.1,194.2 280.2,194.2 280.2,184.4 276.1,184.4 276.1,207.8 279.9,207.8 279.9,198.1 "/>
<path class="st1" d="M273.9,150.2v-3.3c-9.1,0-18.2,0-27.2,0v3.4C255.8,150.2,264.9,150.2,273.9,150.2L273.9,150.2z"/>
<polygon class="st1" points="280.1,164.5 280.1,174.2 276,174.2 276,150.2 273.9,150.2 273.9,146.9 276.1,146.9 276.1,136.4 
	277.3,136.4 277.3,119.1 279.9,119.1 279.9,146 309.5,138.3 315,139.1 315,141.4 313.1,140.9 307.1,162.2 310.6,162.2 310.6,164.6 
	"/>
<polygon class="st1" points="382.6,67.3 378.6,67.3 378.6,61 340.1,61 340.1,57 378.7,57 378.7,40.3 382.6,40.3 "/>
<path class="st1" d="M228,132.6l-4,1.6v-22.3h-16.2l-2.3-4.2h5.4v-5.1c0.2-0.9,0.5-2.3,0.9-3.8c0.6-1.8,2.3-6.8,6.8-11.7
	c4.8-5.3,10-7.5,11.3-8c4.6-1.9,8.7-2.2,11.2-2.2h20.2l1.1-5.9h1.7v6.1h98.5v49.4h16.1v-55h3.9v10.9h7.2c8.4,1.4,16.9,2.7,25.3,4.1
	c-2.7,9-5.5,18-8.2,27l-8.1,28.6l27,7.6l-6,20.5l-6.7-3.3l-1.3-0.4l-2-0.4l-1.4-0.3h-28.5v4.2h-1.7v-6h-21l-1.5-2.8l0.5-2.5
	l-0.9-8.5l-6.3-8.9l-8.3-8.7l-10.3-5.6l-11.5-2.9l-10,0.4V96.2h-29.2v7l-2.6,0.9v-7.9H228V132.6L228,132.6z"/>
<polygon class="st1" points="237.5,209.8 241.5,209.8 241.5,241.1 234.8,250.9 231.2,247.5 237.5,241.1 "/>
<path class="st1" d="M237.5,199.6v-8.8h-40.2v8.8h-4V198h-11.1v-3.6h11.1v-9.1h3.8v1.5c14.8,0.1,29.6,0.2,44.5,0.3
	c0,4.1,0,8.3,0,12.4L237.5,199.6L237.5,199.6z"/>
<path class="st1" d="M210.6,177.1c-4.5,0-9.1,0-13.6,0v1.4h-3.7V150H190v-3.9h34.1v-1.7l3.9-4.3c0.1,12.3,0.1,24.6,0.2,36.9
	c-1.4,0-2.7,0-4.1,0c0-0.5,0-1,0-1.5c-2.2,0-4.3,0-6.5,0.1v1.5C215.3,177.1,212.9,177.1,210.6,177.1v-2.5h2.8v-18.9h4.1v16.8h6.6
	V150h-20.5l0.5,6.6h-6.9v18.1c4.5,0,8.9,0,13.4,0L210.6,177.1L210.6,177.1z"/>
<polygon class="st1" points="175.1,150 167.9,150 167.9,153.8 163.9,153.8 163.9,132.7 168,132.7 168,146.1 175.1,146.1 "/>
<path class="st1" d="M197.3,209.8h-4v11.4h-25.4V198h2.6v-3.8h-2.6v-29H164v3.3h-3.8l-7.8-7.5l-3.5,2.7l-1.4,3.8l3.5,2.4l4.3,4.6
	l3.1,4.8l2.5,5.3l1.6,4.4l0.7,2.2l0.5,3.3l0.3,1.7v39.7h-6l1.2,3.8h5.5v16.1l1.1,8.1l1.1,3.5l1.8,3l2,3l3.1,3l3,2.4l4,2.8l3.4,1.5
	l3.4,0.9l3.1,0.4l3.2,0.1v3.2l3.6-0.7c0-5,0-10.1,0-15.1c4,0,8,0,12,0c3.6-2.6,7.2-5.1,10.8-7.7c-0.4-0.5-0.8-1.1-1.2-1.6
	c-3.2,2.3-6.3,4.6-9.5,6.9c-4,0.1-8.1,0.1-12.2,0.2C197.3,249.8,197.3,229.8,197.3,209.8L197.3,209.8z"/>
<polygon class="st1" points="150.5,240 145.1,240 145.1,222.3 120.3,222.3 119.3,221.3 118.8,219.3 118.5,218.5 145.1,218.5 
	145.1,211.6 149.1,210.7 149,236.5 "/>
<path class="st2" d="M56.3,83.4v-2.5c2.8,0,5.6,0,8.3,0v1.2h3.6v1.3C64.3,83.4,60.3,83.4,56.3,83.4L56.3,83.4z"/>
<rect x="151.2" y="347.8" class="st3" width="15.6" height="18.2"/>
<rect x="238.2" y="266.4" class="st3" width="17.9" height="16.4"/>
<rect x="249.2" y="286.8" class="st3" width="27" height="7.2"/>
<rect x="241.6" y="212.2" class="st3" width="7.2" height="27.6"/>
<rect x="280" y="253.7" class="st3" width="27.7" height="7.8"/>
<rect x="278.4" y="298.6" class="st3" width="27.2" height="8.5"/>
<rect x="325.1" y="331.7" class="st3" width="7.3" height="27"/>
<rect x="278.3" y="339.1" class="st3" width="7.5" height="27.9"/>
<rect x="181" y="337.7" class="st3" width="25.2" height="9.3"/>
<rect x="138.9" y="289.6" class="st3" width="6.4" height="26.7"/>
<rect x="109.4" y="257.4" class="st3" width="18" height="16.5"/>
<rect x="107.5" y="246.1" class="st3" width="25.5" height="6.1"/>
<rect x="157.9" y="210.7" class="st3" width="6" height="25.5"/>
<rect x="192.2" y="140" class="st3" width="26.1" height="6"/>
<rect x="257" y="128" class="st3" width="18" height="16.4"/>
<rect x="293.6" y="166" class="st3" width="17.9" height="16.4"/>
<rect x="356.7" y="266.9" class="st3" width="16.7" height="18.3"/>
<rect x="223.5" y="321.5" transform="matrix(0.8791 -0.4766 0.4766 0.8791 -126.4092 151.9028)" class="st4" width="25.5" height="7.3"/>
<rect x="207.2" y="393.2" class="st3" width="17.9" height="16.8"/>
<rect x="295.1" y="370.4" class="st3" width="18.1" height="16.6"/>
<rect x="176.4" y="158.7" class="st3" width="16.9" height="18"/>
<line class="st5" x1="181.3" y1="494.7" x2="181.3" y2="478.7"/>
<line class="st5" x1="143.3" y1="445.5" x2="127.5" y2="445.4"/>
<path class="st6" d="M424.7,286.4c-19.8-19.8-39.5-39.5-59.2-59.3c2-2,4-4,6-6c19.8,19.8,39.5,39.5,59.3,59.3
	C428.7,282.4,426.7,284.4,424.7,286.4L424.7,286.4z"/>
<polygon class="st6" points="224,290.6 227,281.5 220.9,279.7 218.3,289 "/>
<polygon class="st6" points="223.5,294.6 217.3,297 222.4,309.4 228.6,306.9 "/>
<path class="st7" d="M449.2,94.7c-3-0.7-6.1-1.4-9.1-2"/>
<line class="st8" x1="113.2" y1="74.2" x2="113.2" y2="68.5"/>
<line class="st8" x1="113.2" y1="62.9" x2="113.2" y2="46.4"/>
<line class="st8" x1="113.2" y1="33.3" x2="113.2" y2="40.8"/>
<line class="st8" x1="144.9" y1="54.8" x2="113.2" y2="54.6"/>
<polyline class="st0" points="84,82 84,58.9 79,58.9 "/>
<line class="st8" x1="64.3" y1="80.9" x2="64.3" y2="73.1"/>
<line class="st8" x1="64.3" y1="58.6" x2="64.3" y2="67.3"/>
<line class="st8" x1="64.3" y1="56.2" x2="64.3" y2="50.1"/>
<line class="st8" x1="64.3" y1="44.8" x2="64.3" y2="37.5"/>
<line class="st8" x1="64.3" y1="34.9" x2="64.3" y2="28.5"/>
<line class="st8" x1="64.3" y1="23.3" x2="64.3" y2="15.4"/>
<polygon points="196.5,176.7 217.2,176.7 217.2,175 226.1,175 226.1,148.2 195.5,148.2 "/>
<path class="st0" d="M211.1,376.1c-0.9,0-1.9,0-2.8,0c0-1.1,0-2.2,0-3.3c-6.1,0-12.2,0.1-18.4,0.1c-6.1,0-12.3,0.1-18.4,0.1
	c-2.3,0.7-4.7,1.3-7,2s-4.6,1.3-6.9,2c-1.7,1-3.4,1.9-5,2.9c-1.7,1-3.3,1.9-5,2.9c-2.3,2.1-4.6,4.3-6.9,6.4c0.3,0.3,0.7,0.6,1,0.9
	c0.1,0.1,0.2,0.2,0.3,0.3"/>
</svg>
