<?xml version="1.0" encoding="UTF-8"?>
<svg id="Discord.gg-_x40_marazm" xmlns="http://www.w3.org/2000/svg" version="1.1" viewBox="0 0 135.2 118.06">
  <!-- Generator: Adobe Illustrator 29.8.3, SVG Export Plug-In . SVG Version: 2.1.1 Build 3)  -->
  <defs>
    <style>
      .st0 {
        fill: none;
      }

      .st1 {
        fill: #666;
      }
    </style>
  </defs>
  <rect class="st0" x="0" y="0" width="135.2" height="118.06"/>
  <path class="st1" d="M77.63,70.97l.12-.46,2.17.56-.13.5-.21-.06-.03.09.08.02-.22.84.05.02-.63,2.36-.58-.15.19-.65-.08-.02-.18.65-.82-.22-.1.34,2.55.69c-.03.12-.06.25-.1.37h.04s1.51-5.62,1.51-5.62l2.23.6-.04.16.13.04.04-.16.23.06,2.06-7.66,4.95,1.35-2.05,7.65.22.05-.04.17.15.04.04-.16,2.38.63-1.92,7.24.09.02.1-.37,5.11,1.38.1-.37-1.42-.38.86-3.25,2.17.59-.42,1.63.08.02.77-2.99h.04s.3-1.09.3-1.09l-1.21-.33.09-.32,1.83.48-.38,1.44h.04s-1.26,4.52-1.26,4.52l-.64-.17.36-1.34-.09-.02-.38,1.46-.32-.07-.08.29,2.58.69-.26.97-8.12-2.18.1-.38-.11-.03-4.99,18.65-10.29-2.75,5.39-20.27h-.05s-.1.37-.1.37l-3.31-.89.25-.95.29.07.08-.34-.28-.07.42-1.57,1.58.42-.18.73.08.02.39-1.54.06.02.23-.86.05.02.03-.08-1.61-.45Z"/>
  <path class="st1" d="M63.25,14.02v.84h-.02v-.15h-2.99v-1.37h-.51v1.2h-.97v.2h-.02v-.21h-.79v-.09s-.51-.67-.51-.67h-.04l-.07-.04-.1-.05-.09-.03h-.02v-.49h-.97v.53l-.19.09-.14.1-.11.09-.11.12-.07.1-.09.15-.07.17-.04.13-.02.14v.08s-.01.27-.01.27l.03.18.05.17.08.17.08.13.11.15.03.03-.24.43.16.09-.08.15-.15-.09-1.39,2.38-.04-.02.25-.44-.42-.24.03-.05.42.25.34-.61-1.31-.79-.35.62.78.46-.02.04-1.21-.68-.58,1.04,1.73,1,.24-.41.04.02-1.03,1.82.3.18-.06.1-.4-.23-1.04,1.83-.1-.06.04-.06-.28-.16.58-1-.83-.47.3-.48-1.83-1.09-.61,1.07.06.03-.02.04-.05-.03-.09.15-.36-.21.26-.45-2.05-1.19-.43.79-.06-.03.07-.12-1.58-.9-.08.14-.04-.03.07-.13-.09-.05.44-.81-1.18-.69.08-.15-.51-.28-.06.11-.83-.49-.37.68.81.51-.07.14.12.07.09-.15.33.19.06-.09.78.48-.38.68.53.31.08-.14.05.03-.08.16,1.56.91.1-.17.05.03-.1.18,2.03,1.18.22-.37.36.2-.09.15.67.35-.13.21.05.04-.06.11,2.2,1.29c.04-.07.08-.14.12-.21.03.02.06.03.09.05-.04.06-.07.13-.11.19l.41.25-.06.1-.2-.11-1.98,3.48.17.1-.07.12-.39-.23-1.3,2.29,7.83,4.35.12-.21.29.19-.41.79.17.09-.02.04-.17-.08-.3.6-.02.03-.11.06h-.05l.09-.36-.91-.26-.67,2.55.08.02v.04s-.42-.11-.42-.11l-.67,2.49.16.04v.02h-.03l-.19.68.18.05-.04.15-2.88-.77.22-.77-.39-.11.04-.14.15.04.12-.43-.14-.04.26-.88-.12-.03.03-.1.09.03.31-1.11-.15-.03.04-.12.31.09-.03.12-.14-.04-.32,1.14,1.42.38.31-1.15-1.07-.28.04-.12.26.07.19-.66-1.82-.48.03-.11,2.18.58.26-.99-2.56-.69-.26.99.14.04-.03.12-1.62-.43-.05.2h-.07s.05-.22.05-.22l-.65-.18-.18.65.65.17.06-.21.06.02-.05.21.33.08-.03.12-2.39-.63.04-.13.33.1.07-.22.09.03-.06.22.63.15.18-.65-.63-.18-.06.23-.08-.02.06-.22-3.66-.99-.06.23h-.06s.06-.24.06-.24l-.73-.19-.19.65.74.2.06-.21.06.02-.05.21.25.06-.04.13.23.06.04-.13.3.08-.03.12-.15-.04-.3,1.12.1.03-.02.07-.2-.06-.23.92-.18-.05-.12.45.09.03-.03.13-.08-.02-.13.62-.16.12-1.92-.53-.16.5,2.02.55.06.1-.15.66.71.19.16-.59.19-.1,2.61.7.08.24-.13.58.09.02-.05.22-.34-.09-.17.7-.22-.06-.19.69-.16-.04-.14.5.07.02-.04.16-.14-.04.02-.06-.16-.05-.06.03-4.21-1.12-.04.15-.12-.02.03-.1-.62-.16-.12-.19.29-1.09-.51-.14-.25,1.01-.78-.22-.09.36h-.12s.02-.13.02-.13l-.45-.12-.03.11c-.29-.08-.58-.16-.87-.25,0,.03-.02.06-.03.09-.02,0-.03,0-.05-.01,0-.01,0-.02.01-.03-.41-.12-.81-.24-1.22-.36v.04s-.04,0-.05-.01c0-.01,0-.02.01-.04,0-.01,0-.02.01-.04l.05-.16s.03,0,.04.01c-.01.05-.03.11-.04.16.41.11.81.23,1.22.34.13-.47.25-.94.38-1.41l-1.15-.32-.28,1.05-.11-.03.06-.25-.21-.06.02-.07.21.06.2-.73-.65-.18-.2.73.21.06v.07s-.23-.05-.23-.05l-.48,1.81-.12-.03.59-2.2-.98-.27-.7,2.57.99.26.03-.13.13.03-.32,1.18-.12-.04.27-.97-.99-.27-.58,2.14,1.01.26.23-.93.12.03-.05.22.21.06v.06s-.23-.06-.23-.06l-.17.67.65.17.17-.66-.21-.05v-.07s.23.05.23.05l.07-.33.13.03-.63,2.36-.12-.03.1-.32-.64-.21-.07.24-.13-.04.26-.9-.99-.28-.57,2.12.99.26.26-.98.12.03-.32,1.17-.11-.03.03-.14-1.01-.27-.65,2.55.99.26.58-2.18.12.03-.51,1.82.22.05v.05s-.23-.05-.23-.05l-.18.73.66.18.19-.72-.21-.06.02-.06.22.05.07-.28.1.03-.28,1.07,1.14.31.37-1.4-1.16-.3-.04.12-.1-.02.08-.3.1.02-.04.14,1.13.3.02-.1.05.02-.04.19.7.17-.05.18,1.67.42-.02.08-.7-.18-.21.77.19.06-.32,1.09.33.1-.03.12-.44-.11-.88,3.31.14.04-.02.08h-.06s-.34,1.2-.34,1.2l.22.06-.03.09-.24-.07-.38,1.28-.52-.13.02-.06.42.11.33-1.25-1.62-.43-.33,1.24.93.25v.06s-.33-.08-.33-.08l-.06.2-.06-.02.04-.2-.54-.15-.18.68.51.15.07-.23.07.02-.06.23,1.15.32-.16.66.68.18.17-.63,4.87,1.3-.03.12-1.56-.44-.08.28-.14-.04.08-.28c-.88-.25-1.76-.5-2.64-.75-.1.4-.21.79-.31,1.19l1.89.53-.04.15-3.13-.82-.15.61-.11-.02.13-.66-2.05-.51-.51,2.09,2.03.51.22-.86.12.03-.02.07.86.2-.02.08-.84-.23-.17.72,1.24.33.19-.7-.18-.05.02-.07.23.07-.19.75,7.29,1.96.19-.76.28.06.08-.31,1.13.3-.08.36-.59-.15.08-.33-.45-.12-.17.72,2.47.72.35-1.17-.48-.15.51-1.86.1.02-.09.36,1.73.47.68-2.47-1.76-.46-.5,1.88-.1-.02.13-.55-.12-.04.03-.11.14.03.32-1.22-1.95-.52-.02.09-.11-.02-.27,1.04.12.04v.04s1.48.43,1.48.43l-.02.09-1.73-.5-.06.24-.11-.03.05-.2-1.69-.48.36-1.28-.22-.05.02-.06.22.05.27-1.14.2.05.13-.45-.11-.03.03-.14h.07s.54-2.02.54-2.02l3.02.81v.04s3.02.8,3.02.8l-.04.17-2.06-.55-.19.66,2.72.73.17-.66-.38-.1.05-.17.97.25.05-.19.13.03-.05.2.26.07.09.18-.14.54.25.07-.03.14-.21-.06-.18.66-.31-.08-.27.94,5.16,1.38-.3,1.1.16.05-.05.17h-.05s-.09.34-.09.34h-.05s.08-.36.08-.36l-1.83-.49-.32,1.19,1.1.3-.02.09-1.1-.29-.16.57.58.16-.02.09-.57-.15-.32,1.18,1.59.43.32-1.17-.8-.22.03-.1,2.03.54-.03.1-.34-.09-.02.07h-.06s.02-.09.02-.09l-.78-.21-.31,1.18.78.21.24-.88h.05s-.07.28-.07.28l.33.1-.09.35-.33-.09-.07.25.67.18.33-1.27.48.11.17-.57-.64-.18.03-.09.67.18-.18.67.41.12-.02.07h-.05s-.22.87-.22.87h-.05s.22-.85.22-.85l-.82-.23-.3,1.16.8.22.02-.1h.05s-.02.11-.02.11l1.21.33.3-1.19-.86-.23.02-.09.92.25-.33,1.28.65.17.07-.25-.33-.09.1-.36.34.09.06-.2.08.02-.2.8,1.56.4.31-1.17-.76-.21.03-.1.08.02.17-.64.12.03-.02.09h-.07s-.14.52-.14.52l.61.18.15-.54-.36-.1.03-.11.35.09.32-1.17-5.12-1.39-.1.36h-.06s.1-.37.1-.37h-.03s.05-.15.05-.15l.14.03.57-2.1-.76-.2v.03s-.18-.03-.18-.03v-.06s-3.63-.96-3.63-.96v.03s-.17-.04-.17-.04l.04-.18h.05s.14-.51.14-.51l-.23-.06.04-.11.23.06.18-.68.73.18.22-.85-.74-.19,1.12-4.1-.37-.11v-.05s.38.11.38.11l.45-1.65-.78-.21v-.05s1.39.38,1.39.38l.05-.2.16.04-.05.21.86.23.11-.43.08.03-.08.31.31.08v.06s-.32-.08-.32-.08l-.2.74.73.19.19-.71-.19-.06.02-.06,1.19.31-.02.07-.95-.24-.23.9h-.05s.04-.15.04-.15l-.74-.2-.21.78.72.19.11-.37h.05s-.1.38-.1.38l2.91.8.41-1.54-1.72-.47.02-.07.3.08.03-.06h.05s-.01.09-.01.09l.29.08.09-.34.82.22-.08.32.25.06.17-.66-1.42-.39.05-.23h.04s-.04.2-.04.2l1.36.38.22-.8-.24-.07-.16.56h-.04s.15-.56.15-.56l-1.06-.3-.11.35h-.05s.11-.36.11-.36l-.84-.21-.07.25h-.05s.04-.16.04-.16l-.66-.18-.17.61.67.17.05-.18h.05s-.06.25-.06.25l-1.46-.37-.03.12-.08-.02.06-.22-.87-.24-.05.2-.16-.03.05-.21-.58-.15.03-.12-.11-.02.37-1.47-.08-.02,1.28-4.78-.17-.05.02-.07.22.05.39-1.47-1.29-.34v-.03s.95.24.95.24l.66-2.45-.34-.08.02-.06.27.06.52-1.96h.06s-.01.07-.01.07l.64.22.47-.85-.26-.15.02-.04.22.12.77-1.35-.9-.52.82-1.42-7.2-4.09.07-.12.18.1,2-3.45-.19-.12.07-.1,6.52,3.75.22-.41-.05-.02.09-.17,1.01.59,1-1.74-7.5-4.28.05-.09.31.17,1.64-2.8.31.16.16-.28.05.03-.08.17.53.28-.05.09.57.33-.15.28.66.38.16-.27.55.29.61-1.04-1.79-1.04-.23.43-.55-.31-.11.22-.05-.03.15-.3-.29-.14.48-.89-.18-.1.07-.13.18.09.28-.45h.1s.15,0,.15,0h.13s.15-.04.15-.04l.14-.05.14-.06.08-.05v-.06l.06-.06.1-.11.11-.1.1-.11.06-.06.03-.03.03-.11h.03v-.12l.03-.03h.77v-.17h.02v.19h1.44v-.15h3.02v-.13h.02v.32h.7v-.83h.59s0-.63,0-.63h-1.29ZM49.87,20.4l-.33-.19-.34.6-.09-.05.03-.06.06.03.43-.73.35.21-.11.19ZM56.69,63.13l.91.25-.02.09-.49-.14-.02.07-.09-.02.02-.07-.33-.1.03-.09ZM53.82,60.95l.06.02-.17.65.25.07-.03.09-.5-.14.03-.1.18.05.1-.36-.57-.15-.1.36.16.04-.02.11-.68-.18.02-.06.46.13.17-.68h.06s-.05.22-.05.22l.56.16.07-.22ZM42.58,37.66l-.1-.15.16-.66-.13-.04.03-.12.14.03.12-.46-.12-.03.24-.9-.11-.03.02-.08.1.02.27-1.09h-.04s.04-.15.04-.15l.06.02-.25.95.33.09.27-.95,1.07.3-.03.11-.96-.25-.32,1.11,1.37.37.31-1.11-.18-.05.03-.11.37.1-.03.12-.14-.04-.29,1.11,3.11.84.3-1.12-.13-.03.03-.14,1.68.46-.25.95.33.09.25-.96.07.02-.03.1h-.05s-.29,1.11-.29,1.11l.06.02-.02.09-.17-.05-.24.9-.17-.05-.1.43.12.04-.04.15-.12-.02-.17.62-.17.1h-.03l-2.49-.67-.12-.18-.71-.2-.26.08-2.62-.69ZM48.03,47.57s-.02.08-.03.13c-.1-.02-.2-.05-.3-.07l-.06.24h-.05s.06-.27.06-.27l-2-.54-.1.34h-.05s.09-.36.09-.36l-3.01-.81c-.18.65-.35,1.31-.53,1.96l.99.27-.17.65h-.05s.14-.61.14-.61l-.94-.23-.32,1.2.96.26.1-.35h.03s-.1.36-.1.36l.12.03-.02.07-1.12-.3-.12.44-.09-.02c.35-1.29.69-2.57,1.04-3.86l5.51,1.47ZM44.85,45.55l.03-.15.17.04-.03.15-.17-.04ZM46.88,46.09l.04-.15.17.04-.04.14-.17-.04ZM47.56,48.12l-.26.98-.06-.02.26-.98.06.02ZM41.91,45.05c-.08-.02-.17-.04-.25-.07l.16-.64c.09.02.17.04.26.06-.06.21-.11.43-.17.64ZM42.79,45l.04-.16.16.05-.04.15-.17-.04ZM38.17,41.32l.22-.12.6.16.04-.15.13.03-.04.15,4.43,1.21v-.02s.15.04.15.04l-.04.14s-.06-.01-.09-.02c-.09.33-.18.66-.27.99l-.96-.26-.11.42-.24-.07.11-.43-2.24-.6-1.19,4.45.75.2-.02.04-1.52-.41-.18.64,1.1.3-.05.19-.7-.19-.04.13-.73-.2v-.09s-.68-.18-.68-.18l-.08-.19.71-2.67.19-.06.56.14.21-.75-.54-.16-.15-.21.67-2.5ZM40.79,44.36c-.01.05-.02.1-.03.16l-.15-.03.03-.16s.1.02.15.03ZM40.49,45.53l-.03.15-.15-.04.04-.15.15.04ZM35.83,47.51l-.64-.15-.03.12-.11-.02.03-.13-.48-.14-.04.12-2.08-.55-.02.07-.11-.03.02-.09,1,.27.08-.31-.97-.26.27-1.1.14.03.05-.2-.15-.03.11-.44.13.03-.04.18,1.13.3.83-3.12-1.12-.3-.05.17-.13-.04.11-.4.13.04-.05.18,1.12.32.37-1.4-1.11-.29-.27.97-.14-.04.31-1.07,1,.26.08-.32-.99-.28.02-.08h.02s0,.05,0,.05l1.2.33.02-.08.06.02-.05.17.9.24-.04.14.47.13.04-.14.1.02-.04.15.61.16h.02s.11.2.11.2l-.67,2.52-.22.12-.19.74.11.2-.7,2.65-.18.1ZM35.41,50.32l.69.18.47-1.86-.48-.13.03-.09.96.25.02-.06.72.19-.05.15,1.48.4.3-1.12h.07s.01-.04.01-.04h-.05s.16-.6.16-.6l-.17-.04v-.05s.18.04.18.04l.25-.89.2.05-.6,2.23h.04s-.51,1.93-.51,1.93l-.05-.02-.15.55-3.57-.95.04-.14ZM40.22,58.94l-.02.06-.2-.06-.34,1.25,1.61.44.35-1.25-1.16-.32.02-.06,1.16.31.07-.26.11.03-.06.2.36.1-.02.07,1.13.32-.03.12-.12-.02v-.06s-1.25-.35-1.25-.35l-.46,1.71,1.26.34.36-1.32.14.04c-.15.5-.3.99-.44,1.49-.49-.13-.98-.27-1.46-.4l.15-.52-5.25-1.41.04-.15.24.07.08-.3s.09.03.14.04l-.07.3,2.32.61.3-1.13-.26-.07.05-.15.34.09-.19.65.67.18.17-.66.27.08ZM40.19,54.89l.29.08-.04.12-.16-.05-.42,1.62.19.06-.02.05-.19-.06-.34,1.29-1.44-.38v-.06s1.38.36,1.38.36l.29-1.19-2.33-.63-.3,1.19.71.19-.02.06-4-1.05.37-1.33-.27-.07.03-.09.19.05.22-.84.22.07.1-.39-.26-.07.02-.08.08.02.63-2.39,5.58,1.5-.53,2ZM47.45,53.56l-2.55-.68-.04.18-4.98-1.34.17-.58-.08-.02.51-1.91h.04s1-3.7,1-3.7l.24.07-1.23,4.61.81.23.05-.21h.03s-.05.22-.05.22l3.09.83.24-.9-1.64-.44.02-.06,1.63.44.71-2.64.05.02-.46,1.7,1.99.54.15-.56.06.02-.42,1.56-.07-.02.26-.94-1.99-.53-.5,1.83,2,.53.17-.63.06.02-.17.63.24.07-.04.17-.3-.07-.32,1.18,1.31.37v.03ZM49.7,54.2l-.19.12-.27-.07-.02.1-.11-.03v-.06s-.95-.27-.95-.27l.06-.22-.52-.13v-.05s.35.09.35.09l.32-1.18-1.32-.37.05-.17.29.07c.03-.11.06-.22.09-.34.02,0,.04.01.05.02-.03.11-.06.22-.09.34l.87.24c.06-.26.13-.52.19-.78-.29-.08-.57-.15-.86-.23-.02.07-.04.14-.05.21-.02,0-.04-.01-.06-.02,0,0,.13-.51.14-.51,0-.03.29-1.1.3-1.13.02,0,.04.01.05.02l-.37,1.4.85.22.46-1.72-.86-.22v.06s-.07-.01-.07-.01l.12-.46.07.02-.07.29.82.22.41-1.56-.82-.22-.26.99-.07-.02.27-.98-.25-.07.03-.12,1.31.36.08-.31.21.05-.06.28.13.03-.04.16h.04s-.74,2.74-.74,2.74l.44.1v.05s-.4-.1-.4-.1l-.52,1.96.75.21.54-1.98-.15-.04v-.04s.11.03.11.03l.07-.25.47.12-.84,3.17ZM48.92,46.64l.04-.15.17.04-.04.16-.17-.05ZM49.81,47.19l.16-.56.23.06-.16.57-.23-.07ZM51.23,48.56h-.04s-.43,1.64-.43,1.64l.4.1-.02.06-.82-.22.41-1.69.21.05.04-.15.17.05-.03.09.11.03v.05ZM51.44,47.33l-.18-.05.04-.17.18.05-.04.16ZM53.56,41.27l-.02.08-.47-.12-1.31,4.88-.17-.04.02-.1-1-.27-.03.09-.15-.04-.05.18-.2-.05.07-.3-2.12-.56.06-.27-.51-.14-.09.27-3.24-.87.27-.97-.1-.03.04-.15.11.02.21-.82-.11-.03.05-.16.1.02.13-.48.63.16.4-1.4-.41-.11.06-.22.08.02.16-.61.19-.14,2.52.68.09.3-.12.47,1.01.25.2-.71,2.87.77-.04.14.87.23ZM56.92,15.5h-.67v-.78h.67v.78Z"/>
</svg>