<?xml version="1.0" encoding="UTF-8"?>
<svg id="svg1" xmlns="http://www.w3.org/2000/svg" version="1.1" viewBox="0 0 1613.2 1114.6">
  <!-- Generator: Adobe Illustrator 29.0.1, SVG Export Plug-In . SVG Version: 2.1.0 Build 192)  -->
  <defs>
    <style>
      .st0 {
        fill: #987f00;
      }

      .st1 {
        fill: #666;
      }

      .st2 {
        fill: #555;
      }
    </style>
  </defs>
  <g id="First_Floor">
    <g id="Stairs-1">
      <g id="Stairs-1-E">
        <g id="Stairs-Common-E">
          <path class="st0" d="M799.6,745.5v.7h-.2c-.1,0-.3,0-.5,0h-.3s0,.8,0,.8v.8s-.7,0-.7,0h-.7s0-3,0-3h2.4v.7ZM802.5,746.3v1.5h-.7s-.7,0-.7,0v-.8s0-.8,0-.8h-.3c-.1,0-.4,0-.5,0h-.2v-1.4h2.4v1.5ZM739.5,734.4v2.2h-3v-4.5h1.4v2.5s.2,0,.2,0v-2.5h1.4v2.2ZM796.8,730.8v2.1h-1.4v-2.1s-.5,0-.5,0v2.1h-1.4,0s0-1,0-2.1v-2.1h3.2v2.1Z"/>
        </g>
      </g>
      <g id="Stairs-1-A">
        <path class="st0" d="M835,791.5c0,.3,0,.6,0,1v.9h-1.5v-.9s0-.9,0-.9h.8c.3,0,.5,0,.8,0h0ZM855.5,791.5c0,.3,0,.6,0,1v.9h-1.5v-1.9h.8c.4,0,.8,0,.8,0h0ZM845.5,781.8v.8s1.6,0,1.6,0v1.9h-5.1v-1.9h1.6s0-1.7,0-1.7h2v.8Z"/>
      </g>
      <g id="Stairs-1-W">
        <g id="Stairs-Common-W">
          <path class="st0" d="M895.5,729.6c0,.5,0,1.4,0,2.1v1.2s0,0,0,0h0s-1.4,0-1.4,0v-2.1s-.5,0-.5,0v2.1h-1.4v-4.2h3.2v.9ZM889,745.5v.7s-.5,0-.5,0h-.5v1.5h-1.4v-.5c0-.3,0-.9,0-1.5v-1h2.4v.7ZM891.9,745.8c0,.5,0,1.2,0,1.5v.5h-1.4v-1.5s-.5,0-.5,0h-.5s0-.7,0-.7v-.7s2.4,0,2.4,0v1ZM952.6,734.4v2.2h-3v-4.5h1.4v.3s0,1.3,0,1.3v1s.2,0,.2,0v-1s0-1.3,0-1.3v-.3h1.4v2.2Z"/>
        </g>
      </g>
    </g>
    <g id="Floors-1">
      <path id="Floor-1-E" class="st1" d="M826.5,764.4v-13.5h1.5s0-11.6,0-11.6h-3.6v-.2s0-.2,0-.2h-1.5s0,.4,0,.4h-4.4v-.2h3.2s0-6.1,0-6.1h-6.1s0,6.1,0,6.1h1.4v.2h-2.5v-.4s-1.5,0-1.5,0v.2s0,.2,0,.2h-4.1v-6.4s-12.1,0-12.1,0h0c0,0-.7,0-.7,0h-.7s0-1.1,0-1.1v-1.1h-.5s0,2.1,0,2.1h-1.4,0s-.3,0-.3,0v-.3h.1s0-2.7,0-2.7h-1.4s-1.4,0-1.4,0v1.3s0,1.3,0,1.3h1.2v.3h-1.4v-6.9h6.5s0-5.8,0-5.8h-6s0,3.4,0,3.4h-3.7s0,3.2,0,3.2h-.6v-.2h.3s0-3.2,0-3.2h3.4s0-2.9,0-2.9h-6s0,6.1,0,6.1h.7v.2h-1.7v-.4s-1.5,0-1.5,0v.2s0,.2,0,.2h-7.7v-.4s-1.5,0-1.5,0v.4h-8.9v-.4s-1.5,0-1.5,0v.4h-4.2v-.4s-1.5,0-1.5,0v.2s0,.2,0,.2h-11.4v-.2h6.9s0-6.1,0-6.1h-6.1s0,3.1,0,3.1h-2.6s0,3,0,3h.4v.2h-1.2v-.4s-1.5,0-1.5,0v.4h-.6c-.3,0-.9,0-1.2,0h-.6v-.2h.8s0-2.5,0-2.5h-2.9s0,2.5,0,2.5h.6v.2h-3.7s0,5.4,0,5.4h.7,0c0,.1,0,.2,0,.2h-.4s-.4,0-.4,0v6.1s6,0,6,0v-.8s0-.8,0-.8h-1.6s-1.6,0-1.6,0v-4.5s-.3,0-.3,0h-.3s0-.1,0-.1h0c0-.1.5-.1.5-.1.3,0,.8,0,1.1,0h.6v2.5s.2,0,.2,0v-2.5h.5c.3,0,.9,0,1.4,0h.9v.3h-1.2s0,1.6,0,1.6c0,.9,0,2.3,0,3v1.4h6.1s0-3.7,0-3.7h-2.4v-.4h.1s.1,0,.1,0h0c0,0,0,.2,0,.2h2.2s0-2.2,0-2.2h-2.2s0,.5,0,.5h-.2v-.5s-1.1,0-1.1,0v-.2h7.1v.2h-1s0,.5,0,.5h-.2v-.5s-2.2,0-2.2,0v2.2s2.2,0,2.2,0v-.2h.2v.4h-2.4s0,3.7,0,3.7h6.1s0-6.1,0-6.1h-1.2v-.2h11.6,0c0,.1,0,.2,0,.2h-5.1s-5.1,0-5.1,0v6.1s12.5,0,12.5,0v-6.1s-.9,0-.9,0v-.2h2.5v.2h-1.3s0,6.1,0,6.1h6.1s0-3.7,0-3.7h-2.4v-.2s0-.2,0-.2h.1s.1,0,.1,0v.2s2.2,0,2.2,0v-2.2s-2.2,0-2.2,0v.5h-.2v-.5s-.4,0-.4,0h-.4s0-.1,0-.1h0c0-.1,7.2-.1,7.2-.1v.2h-1.2s0,.5,0,.5h-.2v-.5s-2.1,0-2.1,0v2.2s2.1,0,2.1,0h0c0,0,0-.2,0-.2h.1s.1,0,.1,0v.4h-2.4s0,3.7,0,3.7h6.1s0-6.1,0-6.1h-1v-.2h5.2,0c0,.1,0,.2,0,.2h-2s-2,0-2,0v6.1s6.1,0,6.1,0v-6.1s-.7,0-.7,0v-.2h1v6.3s6.4,0,6.4,0h6.4s0,0,0,0h0c0,0,3.2,0,3.2,0v.2h-3.2s0,5.7,0,5.7h5.3s0-1,0-1h.2v4.2h0s-.4,0-.8,0h-.8s0-1.5,0-1.5h-1v-1.4s-.5,0-.5,0v1.4h-1s0,1.5,0,1.5h-1.4s0,3.4,0,3.4h5.1s0-.2,0-.2h3.3s3.3,0,3.3,0v-1.5s0-1.5,0-1.5h.2v1.5s0,1.5,0,1.5h3.1s3.1,0,3.1,0v-3.9h.2v3.9s7,0,7,0v13.5s3.9,0,3.9,0ZM809.2,746.5h-.2v-1.9h6.6v.9h-.2v-.7s-6.1,0-6.1,0v.8s0,.8,0,.8ZM802.7,742.1h-.2v-3.2s-.6,0-.6,0v-.2h.8v1.7s0,1.7,0,1.7ZM775.7,726v-1.5s-.5,0-.5,0v1.5s.2,0,.2,0h.2ZM764.6,724.5h0c0-.1,0-.2,0-.2,0,0,0-.1,0-.2h0c0,0-1.5,0-1.5,0h0c0,.1,0,.2,0,.2s0,.1,0,.2h0c0,0,.7,0,.7,0h.7Z"/>
      <path id="Floor-1-A" class="st1" d="M853.6,813.2v-4.3h.1s0-1.1,0-1.1h-.1v-7.1h.1s0-11.7,0-11.7h-.2v-.3h.2s0-2.7,0-2.7h-6.6v-1.4s-.8,0-.8,0h-1.3c-.3,0-1.1,0-1.7,0h-1.2v1.4h-6.6s0,2.7,0,2.7h.2,0c0,.1,0,.3,0,.3h-.1s-.1,0-.1,0v11.7s.1,0,.1,0v7.1h-.1s0,1.1,0,1.1h.1v4.3s9.1,0,9.1,0h9.1ZM856,800.7v-.5s0-.5,0-.5h-.3v-.6h1.9s1.9,0,1.9,0v-2.2s0-2.2,0-2.2h2.4s0-5.4,0-5.4h5.8s0-9.4,0-9.4h.3s0-2,0-2h-.3v-2s-1.1,0-1.1,0v-12.4s-4,0-4,0v12.4h-8.6s0,2.8,0,2.8h-3.8v-.4h.4s0-3.1,0-3.1h-3.1s0,3.1,0,3.1h1v.4h-1.2v-2.8s-.8,0-.8,0v-.3s-3.7,0-3.7,0v.3h-.8s0,2.8,0,2.8h-1.2v-.4h1.1s0-3.1,0-3.1h-3.1s0,3.1,0,3.1h.3v.4h-.9v-.4h.3s0-3.1,0-3.1h-2.9s0,3.1,0,3.1h.9v.4h-1.1v-2.8s-8.8,0-8.8,0v-12.4s-3.9,0-3.9,0v12.4h-1.1s0,6.6,0,6.6v6.9s2.9,0,2.9,0h2.8v5.4s2.4,0,2.4,0v2.2s0,2.2,0,2.2h1.9s1.9,0,1.9,0v.6h-.3s0,.5,0,.5v.5h2s0-6.6,0-6.6h0s0,0,0,0v-.3h0s0-.4,0-.4h-1.5s0,.4,0,.4h0v.3h-.3v-4.7s0,0,0,0h0v-.3h1.8s0-6.1,0-6.1h-2.7s0,3.6,0,3.6h-.3v-3.9h1.5c3.8,0,8.3,0,9.1,0h.9v-1.7h2v1.7s.9,0,.9,0c.8,0,5.4,0,9.1,0h1.5v3.9h-.3v-3.6s-2.7,0-2.7,0v6.1s1.8,0,1.8,0v.3h0s0,0,0,0v4.7h-.3v-.3h0s0-.4,0-.4h-1.5s0,.4,0,.4h0v.3h0s0,6.6,0,6.6h1s1,0,1,0ZM855.5,791.5v-1.1c0-.6,0-1.1,0-1.1,0,0-.4,0-.8,0h-.8s0,2.1,0,2.1h.8s.8,0,.8,0ZM835,791.5v-2.1s-1.5,0-1.5,0v2.1s.8,0,.8,0h.8ZM851.9,791.4h-14.8v-2.5s0,0,0,0h0s0-.1,0-.1h0c0-.1,4.9-.1,4.9-.1v.5h-.3v-.3s-4.1,0-4.1,0v1.1s0,1.1,0,1.1h2.1s2.1,0,2.1,0v-.3h.3v.3s2.7,0,2.7,0h2.7s0-1.2,0-1.2v-1.2h4.9v.3h-.2s0,.2,0,.2h-.3v-.3s-4.1,0-4.1,0v2.2s2.1,0,2.1,0h2.1s0-.1,0-.1h0c0-.1.3-.1.3-.1v.3s0,.3,0,.3ZM857,789.3h-.3v-.3h0s0-.8,0-.8h.3v.5s0,.6,0,.6ZM832.3,789.3h-.3v-1.1h.3v.8s0,0,0,0h0v.3Z"/>
      <path id="Floor-1-W" class="st1" d="M866.5,763.7v-12.8h7s0-3.9,0-3.9h.2v3.9s6.1,0,6.1,0v-2.9h.2v2.9s3.3,0,3.3,0h3.3s0,.1,0,.1h0c0,.1,5.1.1,5.1.1v-3.4s-1.4,0-1.4,0v-1.5s-1,0-1,0v-1.4s-.5,0-.5,0v1.4h-1s0,.5,0,.5c0,.3,0,.5,0,.8v.3h-1.4,0s-.2,0-.2,0v-1.1c0-.6,0-1.6,0-2.1v-1s.3,0,.3,0v1s5.3,0,5.3,0v-5.7s-3.2,0-3.2,0v-.2h3.2s0-.1,0-.1h12.9s0-6.3,0-6.3h1v.2h-.4s-.4,0-.4,0v3s0,3,0,3h6.1s0-6.1,0-6.1h-3.9v-.2h5.2v.2h-.5s-.5,0-.5,0v3s0,3,0,3h6.1s0-3.7,0-3.7h-2.4v-.4h.2v.2s2.2,0,2.2,0v-1.1s0-1.1,0-1.1h-1.1s-1.1,0-1.1,0v.5h-.2v-.5s-1.2,0-1.2,0v-.2h1.9c1,0,2.6,0,3.6,0h1.7v.2h-.9s0,.5,0,.5h-.2v-.5s-1.1,0-1.1,0h-1.1s0,1.1,0,1.1v1.1s2.2,0,2.2,0v-.2h.2v.4h-2.4s0,3.7,0,3.7h6.1s0-3,0-3v-3s-.7,0-.7,0h-.7v-.2h1.6,0s.9,0,.9,0v.2h-.8s0,6.1,0,6.1h12.4s0-6.1,0-6.1h-.5s-.5,0-.5,0h0c0,0,0-.1,0-.1h1s0,0,0,0h0s1.5,0,1.5,0v.2h-.6s-.6,0-.6,0v3s0,3,0,3h6.1s0-3.7,0-3.7h-2.4v-.4h.2v.2s2.2,0,2.2,0v-2.2s-1.1,0-1.1,0h-1.1s0,.3,0,.3v.3h-.2v-.3s0-.3,0-.3h-.5s-.5,0-.5,0v-.2h1.8c1,0,2.6,0,3.6,0h1.8v.2h-.5s-.5,0-.5,0v.3s0,.3,0,.3h-.2v-.3s0-.3,0-.3h-1.1s-1.1,0-1.1,0v2.2s2.2,0,2.2,0v-.2h.2v.4h-2.4s0,3.7,0,3.7h6.1s0-3,0-3v-3s-.6,0-.6,0h-.6v-.2h.9c.5,0,1.1,0,1.4,0h.5v.3c0,.1,0,.7,0,1.3v1s0,0,0,0h0s0-2.5,0-2.5h.6c.3,0,.8,0,1.1,0h.5v.2h-.6s0,4.5,0,4.5h-1.6s-1.6,0-1.6,0v.8s0,.8,0,.8h6s0-6.1,0-6.1h-.7v-.2h.7s0-5.4,0-5.4h-1.8s-1.8,0-1.8,0h0c0-.1,0-.2,0-.2h.6s0-2.5,0-2.5h-2.9s0,2.5,0,2.5h.8v.2h-.6c-.3,0-.8,0-1,0h-.4v-.2h.9s0-3.5,0-3.5h.3v.8s6,0,6,0v-3.4s-6,0-6,0v.6s0,.6,0,.6h-.1s-.1,0-.1,0v-1.2s-6.1,0-6.1,0v2.9s2.6,0,2.6,0v3.2s1.1,0,1.1,0v.2h-2.2v-.2h.9s0-3,0-3h-2.6v-3.1s-6.1,0-6.1,0v6.1s6.4,0,6.4,0v.2h-10.9v-.2h4.2s0-6.1,0-6.1h-3s-3,0-3,0v2.1c0,1.1,0,2.1,0,2.1h0s-.2,0-.2,0v-.2s-2.9,0-2.9,0v2.2s2.9,0,2.9,0v-.5h.2v.5s.4,0,.4,0v.2h-2.1s-2.1,0-2.1,0h0c0-.1,0-.2,0-.2h.3s0-2.2,0-2.2h-1.1v-.2h4.2s0-3.7,0-3.7h-6.1s0,3.7,0,3.7h.2s.2,0,.2,0h0c0,.1,0,.2,0,.2h-.6v-3.9s-3.1,0-3.1,0h-3.1s0,3.1,0,3.1v3s7.5,0,7.5,0v.2h-4.4s-4.4,0-4.4,0h0c0-.1,0-.2,0-.2h1.2s0-6.1,0-6.1h-6.1s0,3.7,0,3.7h2.4v.5h-.2c0-.1,0-.2,0-.2h-1.1s-1.1,0-1.1,0v2.2s2.2,0,2.2,0v-.5h.2v.5s1.1,0,1.1,0v.2h-7.6v-.4s-1.5,0-1.5,0v.4h-1.7v-.2h.7s0-6.1,0-6.1h-6s0,2.9,0,2.9h3.4v3.2s.3,0,.3,0v.2h-.6v-3.2s-3.2,0-3.2,0h0c0,.1-.5.1-.5.1v-3.5s-3,0-3,0h-3v5.8s1.6,0,1.6,0v.2h-.8s-.8,0-.8,0v1.1s0,1.1,0,1.1h3.2s0-2.3,0-2.3h-.1v-.2h3.4v1.2c0,.7,0,2.2,0,3.5v2.2s-.7,0-.7,0h-.7s0-.1,0-.1h0c0-.1,1.2-.1,1.2-.1v-2.7s-2.8,0-2.8,0v2.7s.1,0,.1,0v.3h-.3s0,0,0,0h-.7s-.7,0-.7,0v-1.1s0-1.1,0-1.1h-.5s0,2.1,0,2.1h-.7s-.7,0-.7,0h0c0,0-12.1,0-12.1,0v6.4h-4.1v-.4s-1.5,0-1.5,0v.4h-2.5v-.2h1.4s0-6.1,0-6.1h-6.1s0,6.1,0,6.1h3.2v.2h-4.5v-.2s0-.2,0-.2h-1.5s0,.2,0,.2v.2s-3.6,0-3.6,0v11.6s1.4,0,1.4,0v12.8s4,0,4,0ZM880.2,746.5h-.2v-1.7s-6.1,0-6.1,0v.7h-.2v-.9h6.6v1s0,1,0,1ZM886.4,742.1v-3.4h.9v.2h-.6s0,1.6,0,1.6v1.6s-.1,0-.1,0h-.1ZM934.2,732.4h-7.6v-.2h7.6,0v.2Z"/>
      <g id="Floors-Locked-1">
        <path id="Floor-Locked-1-E" class="st2" d="M777.7,726.5v-2.2s-2.1,0-2.1,0h0c0,.1,0,.2,0,.2h.1v1.5h-.1s0,.5,0,.5h1.1s1.1,0,1.1,0ZM775.3,726.5v-.5s-.1,0-.1,0v-1.5h.1s0-.5,0-.5h2.4s0-3.7,0-3.7h-6.1s0,6.1,0,6.1h1.1s0-.1,0-.1h1.5,0c0,.1.6.1.6.1h.6ZM771.3,726.5v-6.1s-6.1,0-6.1,0v3.9h-.3s-.3,0-.3,0h0c0,0,0,.1,0,.1h-1.5,0c0,0,0-.1,0-.1h-.5s-.5,0-.5,0v2.2s.3,0,.3,0h0c0-.1,1.5-.1,1.5-.1h0c0,.1,3.8.1,3.8.1h3.8ZM764.9,724.1v-3.7s-3,0-3,0h-3v3.7s2.1,0,2.1,0h2.1s0,0,0,0h0c0,0,1.5,0,1.5,0h0c0,0,0,.1,0,.1h.4Z"/>
      </g>
    </g>
  </g>
</svg>