<?xml version="1.0" encoding="UTF-8"?>
<svg id="svg1" xmlns="http://www.w3.org/2000/svg" version="1.1" viewBox="0 0 1613.2 1114.6">
  <!-- Generator: Adobe Illustrator 29.0.1, SVG Export Plug-In . SVG Version: 2.1.0 Build 192)  -->
  <defs>
    <style>
      .st0 {
        fill: #987f00;
      }

      .st1 {
        fill: #666;
      }

      .st2 {
        fill: #555;
      }
    </style>
  </defs>
  <g id="Third_Floor">
    <g id="Stairs-3">
      <g id="Stairs-3-E">
        <g id="Stairs-Common-E">
          <path class="st0" d="M799.6,746v.7h-.2c-.1,0-.3,0-.5,0h-.3s0,.8,0,.8v.8s-.7,0-.7,0h-.7s0-3,0-3h2.4v.7ZM802.5,746.7v1.5h-.7s-.7,0-.7,0v-.8s0-.8,0-.8h-.3c-.1,0-.4,0-.5,0h-.2v-1.4h2.4v1.5ZM739.5,734.8v2.2h-3v-4.5h1.4v2.5s.2,0,.2,0v-2.5h1.4v2.2ZM796.8,731.3v2.1h-1.4v-2.1s-.5,0-.5,0v2.1h-1.4,0s0-1,0-2.1v-2.1h3.2v2.1Z"/>
        </g>
      </g>
      <g id="Stairs-3-W">
        <g id="Stairs-Common-W">
          <path class="st0" d="M895.5,730c0,.5,0,1.4,0,2.1v1.2s0,0,0,0h0s-1.4,0-1.4,0v-2.1s-.5,0-.5,0v2.1h-1.4v-4.2h3.2v.9ZM889,746v.7s-.5,0-.5,0h-.5v1.5h-1.4v-.5c0-.3,0-.9,0-1.5v-1h2.4v.7ZM891.9,746.2c0,.5,0,1.2,0,1.5v.5h-1.4v-1.5s-.5,0-.5,0h-.5s0-.7,0-.7v-.7s2.4,0,2.4,0v1ZM952.6,734.8v2.2h-3v-4.5h1.4v.3s0,1.3,0,1.3v1s.2,0,.2,0v-1s0-1.3,0-1.3v-.3h1.4v2.2Z"/>
        </g>
      </g>
    </g>
    <g id="Floors-3">
      <path id="Floor-3-E" class="st1" d="M821.7,752.6v-1.5s-.3,0-.3,0v-.2h.3s0,0,0,0h0c0,0,0,0,0,0h0v-2.2h.2v2.2s6,0,6,0v-10.3s-.6,0-.6,0v-.4s-1.5,0-1.5,0v.4h-2.1v-.4s-1.5,0-1.5,0v.2s0,.2,0,.2h-1.8c-1.2,0-2.4,0-3.6,0h-1.8v-.4s-1.5,0-1.5,0v.2s0,.2,0,.2h-2.7,0c0-.2,0-.2,0-.3h0c0,0-1.5,0-1.5,0h0c0,.1,0,.2,0,.3h0c0,0-1.8.1-1.8.1-1,0-2.6,0-3.6,0h-1.8v-.4s-1.5,0-1.5,0h0c0,0,0,.2,0,.2h0c0,.1-1.4.1-1.4.1v-3.6s0-3.6,0-3.6h-1.3s-1.4,0-1.4,0h0c0-.1-1.4-.1-1.4-.1v-1.9s-.5,0-.5,0v1.9h-.6c-.3,0-.7,0-.8,0h-.2v-3.9s-.3,0-.3,0h0c0-.2,0-.2,0-.3h0c0,0-1.5,0-1.5,0v.4h-1v-.8s-.8,0-.8,0c-.5,0-.9,0-.9,0h0v-.2h0s0-2.6,0-2.6h1.7s0-4.5,0-4.5h-2.9s0,7.1,0,7.1h.2v.2h-.1c0,0-.5,0-.9,0h-.7v-.2h1.3s0-7.1,0-7.1h-1v-.2h.8c.4,0,1.4,0,2.1,0h1.3s0-.8,0-.8v-.8h-6.1s0,1.5,0,1.5h.4v.2h-1v-.2h.2s.2,0,.2,0v-.8s0-.8,0-.8h-3.1s-3.1,0-3.1,0v1.5s.2,0,.2,0h.2v.2h-1.8s-1.8,0-1.8,0v3.6s0,3.6,0,3.6h1.1v.2h-.6c-.3,0-.9,0-1.4,0h-.7v-.4s-1.5,0-1.5,0v.4h-.3c-.4,0-5.7,0-6.2,0h-.4v-.4s-1.5,0-1.5,0v.2s0,.2,0,.2h-.7c-.5,0-1,0-1.5,0h-.8v-.4s-1.5,0-1.5,0v.2s0,.2,0,.2h-.4c-.2,0-2.4,0-4.9,0h-5.2s-.6,0-.6,0v-.2s0-.2,0-.2h-1.5s0,.4,0,.4h-.5c-1.2,0-2.4,0-3.6,0h-3.1s0-.6,0-.6v-.6h-.2,0v-.4s-.7,0-.7,0h-.7s0,.2,0,.2v.2s-.9,0-.9,0h-.9s0-.2,0-.2v-.2h-1.5s0,.4,0,.4h-.6s0,5.4,0,5.4h2.2s2.2,0,2.2,0v2.7s.2,0,.2,0v-2.7h1.4s0-1.2,0-1.2h1.6,0c0,.1,0,.2,0,.2h-.7s-.7,0-.7,0v5.7h-3.2s0,1.4,0,1.4h1.1v.2h-2.4v-.2h1.1s0-5.9,0-5.9h-2.8s0,5.9,0,5.9h.1s.1,0,.1,0h0c0,.1,0,.2,0,.2h-.3s0,1.5,0,1.5h6s0-1.5,0-1.5h-.3v-.2h3.5s0-7.1,0-7.1h-.1v-.2h1.5v.2h-1.2s0,7.1,0,7.1h1.2v.2h-4.4s0,1.5,0,1.5h6.1s0-1.5,0-1.5h-.3v-.2h3.5s0-4,0-4h-2.8v-1.5s0-1.5,0-1.5h-.3s-.3,0-.3,0v-.2h7.2v.2h-.3s-.3,0-.3,0v.6s0,.6,0,.6h-.2v-1.1s-2.6,0-2.6,0v2.8s2.6,0,2.6,0v-.2h.2v.5h-2.8s0,4,0,4h6.1s0-7.1,0-7.1h-1.2v-.2h2.7v.2h-.6s-.6,0-.6,0v3.6s0,3.6,0,3.6h6.1s0-4,0-4h-2.9v-3.1s-.6,0-.6,0v-.2h7.2v.2h-.7s0,3.1,0,3.1h-2.8s0,4,0,4h1v.2h-4.2s0,1.5,0,1.5h6.1s0-1.5,0-1.5h-.4v-.2h3.6s0-3.6,0-3.6v-3.6s-.6,0-.6,0h-.6v-.2h2.5v.2h-1.1s0,7.1,0,7.1h6.1s0-4,0-4h-2.8v-.5h.2v.2s2.6,0,2.6,0v-2.8s-2.6,0-2.6,0v1.1h-.2v-.6s0-.6,0-.6h-.4s-.4,0-.4,0v-.2h7.4,0c0,.2,0,.2,0,.3h0c0,0,1.5,0,1.5,0h0c0-.1,0-.2,0-.3h0c0,0,.4,0,.4,0v-2.9s-.9,0-.9,0c-.5,0-1.2,0-1.5,0h-.5v-.2h.7s0-1.1,0-1.1h.2v1.1s1.3,0,1.3,0h1.3v-2.8s-1.3,0-1.3,0h-1.3s0,.2,0,.2h-.2v-.5h2.8s0-4,0-4h-1.1v-.2h2.5v.2h-.6s-.6,0-.6,0v4s1.4,0,1.4,0h1.4v.5h-.3v-.2s-1.3,0-1.3,0h-1.3s0,1.4,0,1.4v1.4s2.6,0,2.6,0v-1.1h.3v1.1s.5,0,.5,0v.2h-.4c-.2,0-.8,0-1.4,0h-1s0,2.9,0,2.9h.5v.4s1.5,0,1.5,0v-.4h6.9v3.4h-.2s-.2,0-.2,0v1.5s.2,0,.2,0h.2s0,2.3,0,2.3h6.4v4.3s3,0,3,0h3s0,.2,0,.2v.2s-.2,0-.2,0v-.2s-5.8,0-5.8,0v1.9s5.8,0,5.8,0v-.2h.2v.5h-.5s0,2.9,0,2.9h-.2s0,0,0,0h-1.4v-.3s0-.8,0-.8v-.5s-1,0-1,0v-1.4s-.5,0-.5,0v1.4h-1s0,1.5,0,1.5h-1.4s0,2.6,0,2.6h1.4v.3h-1.4s0,1.5,0,1.5h5.5s0-1.5,0-1.5h-1.6v-.3h2.4s2.4,0,2.4,0v-7.4h1.5v.2s0,.2,0,.2h1.5s0-.2,0-.2v-.2s3.6,0,3.6,0h3.6s0,.1,0,.1h0c0,.1-.6.1-.6.1v3.1h-2.8s0,4,0,4h3.5v.2h-.3s0,1.5,0,1.5h3s3,0,3,0ZM819.9,751.1h-2.5,0c0-.1,0-.2,0-.2h.6s.6,0,.6,0v-7.1s-1.2,0-1.2,0v-.2h2.3c1.3,0,2.3,0,2.3,0,0,0,0,3.2,0,3.4h0c0,.1-.2.1-.2.1v-.2s-.7,0-.7,0v-.2h.7s0-2.9,0-2.9h-2.9s0,2.9,0,2.9h.7v.2h-.7s0,2,0,2v2s.5,0,.5,0h.5,0c0,.1,0,.2,0,.2ZM826.5,748.7h0c-.5,0-1.5-.5-1.6-.7h0v-.2h0c0-.1,0-.2,0-.3.1-.3.1-.3.2-.5,0-.3.1-.5.2-.6h0c0,0,0-.1,0-.1,0,0,0,0,0,0,.1,0,.3,0,.7.2.2.1.5.2.7.2.4.1.6.2.6.4h0s0,0,0,0c0,0,0,0,0,.1h0c0,0-.2.3-.2.3-.3.3-.4.4-.4.5h0c0,0,0,.3,0,.3v.2s0,0,0,0c0,.1,0,.2-.1.2h0ZM805.4,742.6h0c0,0,0-.2,0-.2l.2-.2.2-.2h2.1s.2.2.2.2l.2.2h0c0,.2,0,.2-.3,0h-.1c0-.1-1.9-.1-1.9-.1l-.2.2-.2.2ZM807.6,741.1h-2.1s-.2-.2-.2-.2l-.2-.2h0c0,0,0-.2,0-.2l.2.2.2.2h1.9s.1-.1.1-.1h.1c0-.1,0,0,0,0h0c0,0-.2.3-.2.3l-.2.2ZM808.9,739.2h0s0,0,0,0v-1.5s-.5,0-.5,0v1.5s.2,0,.2,0h.1s0,0,0,0ZM783.8,739.1v-.5s-1.5,0-1.5,0v.5s.7,0,.7,0h.7ZM779.9,739.1h0c0-.2,0-.3,0-.4h0c0-.1-1.5-.1-1.5-.1h0c0,.2,0,.3,0,.3h0c0,.1.7.1.7.1h.7ZM777.8,734.2v-1.5s0,0,0,0c0,0-.1,0-.2,0h-.2v1.5s.2,0,.2,0h.2ZM808.8,733.2v-.5s-1.5,0-1.5,0v.5s.7,0,.7,0h.7ZM804.8,733.2h0c0-.2,0-.3,0-.4h0c0-.1-1.5-.1-1.5-.1h0c0,.2,0,.3,0,.4h0c0,.1.7.1.7.1h.7ZM773.5,721.2v-.5s-1.5,0-1.5,0v.2c0,0,0,.2,0,.2h0c0,0,.7,0,.7,0h.7ZM739.1,721.2h0c0-.1,0-.2,0-.3v-.2h-1.5s0,.5,0,.5h.7s.7,0,.7,0ZM735.2,721.2v-.5s-1.5,0-1.5,0v.5s.7,0,.7,0h.7Z"/>
      <path id="Floor-3-W" class="st1" d="M891.9,752.7v-.8s0-.8,0-.8h-.7s-.7,0-.7,0v-.2h1.4s0-2.7,0-2.7h-1.4v-1.5s-1,0-1,0v-1.4s-.5,0-.5,0v1.4h-1s0,.8,0,.8v.8s-.6,0-.6,0c-.3,0-.7,0-.8,0h-.2v-2.9s-.5,0-.5,0v-2.3h6s0-4.3,0-4.3h6.4s0-2.3,0-2.3h.2v2.3s.1,0,.1,0h0c0,.1.4.1.4.1v.2h-.4s0,1.5,0,1.5h6s0-1.5,0-1.5h0s0,0,0,0h0c0-.1,0-.2,0-.2h3.4s0-3.6,0-3.6v-3.6s-.6,0-.6,0h-.6v-.2h2.5v.2h-1.1s0,7.1,0,7.1h1.1v.2h-4.3s0,.7,0,.7v.8s3.1,0,3.1,0h3.1s0-1.5,0-1.5h-.4v-.2h1v.2h-.3s0,1.5,0,1.5h6.1s0-1.5,0-1.5h-.4v-.2h3.5s0-7.1,0-7.1h-1.6s-1.6,0-1.6,0v1.5s0,1.5,0,1.5h-2.8s0,4,0,4h1.1v.2h-2.5v-.2h1.1s0-4,0-4h-2.8v-.5h.2v.2s2.6,0,2.6,0v-2.8s-1.3,0-1.3,0h-1.3s0,.6,0,.6v.6h-.2v-.6s0-.6,0-.6h-.4s-.4,0-.4,0v-.2h3s0-2.9,0-2.9h-.5v-.4s-1.5,0-1.5,0v.4h-.5c-.7,0-5.7,0-6.2,0h-.4v-.2h.5s0-3.1,0-3.1h1.4s1.4,0,1.4,0v-2s0-2,0-2h-6.1s0,3.6,0,3.6v3.6s.6,0,.6,0h.6v.2h-.7c-.4,0-.8,0-.9,0h-.1v-.2h.2s0-7.1,0-7.1h-2.9s0,4.5,0,4.5h1.7v2.7s0,0,0,0v.2h0s-.4,0-.9,0h-.8s0,.9,0,.9h-1v-.4s-1.5,0-1.5,0v.4h-.3s0,3.8,0,3.8h-1.6v-1.9s-.5,0-.5,0v1.9h-.7s-.7,0-.7,0h0c0,.1-2.7.1-2.7.1v7.2h-1.4v-.4s-1.5,0-1.5,0v.2s0,.2,0,.2h-7.1v-.4s-1.5,0-1.5,0v.4h-2.7v-.2h1.2s0-7.1,0-7.1h-6.1s0,4,0,4h2.8v.5h-.2v-.3s-2.6,0-2.6,0v2.8s1.3,0,1.3,0h1.3s0-.5,0-.5v-.5h.2v.5s0,.5,0,.5h.3s.3,0,.3,0v.2h-7.2v-.2h.3s.3,0,.3,0v-.5s0-.5,0-.5h.2v.5s0,.5,0,.5h1.3s1.3,0,1.3,0v-2.8s-2.6,0-2.6,0v.3h-.2v-.5h2.8s0-4,0-4h-3.5v-.2h.3s0-1.5,0-1.5h-6s0,1.5,0,1.5h.3v.2h-.3s0,3.6,0,3.6v3.6s.3,0,.3,0h.3v.2h-.3s-.3,0-.3,0v5.1s0,5.1,0,5.1h6s0-2.3,0-2.3h.1s.2,0,.2,0v-1.5s-.4,0-.4,0v-.2c0-.1,0-.9,0-1.8v-1.6s2.3,0,2.3,0h2.3s0,.4,0,.4h.7s.7,0,.7,0v-.2s0-.2,0-.2h7.1v.2h-.6s0,1.1,0,1.1h-.2v-1.1s-2.6,0-2.6,0v2.8s2.6,0,2.6,0v-.2h.2v.5h-2.8s0,4,0,4h3.4v.2h-.2s0,1.5,0,1.5h6.1s0-1.5,0-1.5h-.2v-.2h.2c0,0,.5,0,1,0h.8v.2h-1.6s0,1.5,0,1.5h2.7s2.7,0,2.7,0ZM873.1,751.3h0c0-.2,0-.3,0-.4h0c0,0-1.5,0-1.5,0h0c0,.2,0,.3,0,.4h0c0,0,.7,0,.7,0h.7ZM869.2,751.3h0c0-.1,0-.2,0-.3v-.2h-1.5s0,.5,0,.5h.7s.7,0,.7,0ZM884.5,751.1h-2.7v-.2h1.2s0-7.1,0-7.1h-1.2v-.2h1.4v3.7s0,3.7,0,3.7h.6s.6,0,.6,0h0v.2ZM869.5,747h0c0-.2,0-.3,0-.4h0c0-.1-1.5-.1-1.5-.1v.5s.7,0,.7,0h.7ZM887.1,742.5h0c0,0-.2,0-.5-.1-.1,0-.3-.1-.3-.1h0s0,0,0,0h0s-.2,0-.2,0c-.1,0-.3,0-.3,0h0s0,0,0,0h0s0,0,0,0h0s0-.1,0-.1c0,0,0-.3,0-.4v-.2s0-.2,0-.2c0,0,0-.2,0-.3h0c0-.1,0-.2,0-.2h0c0,0,0-.1,0-.1h0s0,0,0,0h0s.3,0,.3,0h.3s.2,0,.2,0c.6,0,.7,0,.8.2h0c0,0,0,.2,0,.2,0,0,0,.2,0,.3v.2s0,.3,0,.3v.3s0,0,0,0c0,.1,0,.2-.1.2h0ZM943.2,740.5h3.1s3.1,0,3.1,0v-.7s0-.8,0-.8h-.4v-.2h3.6s0-1.4,0-1.4h-3.2v-2.7s0-3,0-3h-.7s-.7,0-.7,0v-.2h1.6v1.2s1.4,0,1.4,0v2.7s.2,0,.2,0v-2.7h.6c.3,0,.9,0,1.2,0h.6v.2h-.7s0,5.9,0,5.9h1.1v.2h-4.3s0,1.5,0,1.5h6s0-1.5,0-1.5h-.3v-.2h.3s0-2.9,0-2.9v-3s-.3,0-.3,0h-.3v-.2h.6s0-5.3,0-5.3h-.6v-.2h.6s0-5.9,0-5.9h-2.8s0,5.9,0,5.9h.7v.2h-1.8v-.4s-1.5,0-1.5,0v.4h-.2s0,.6,0,.6v.6s-3.1,0-3.1,0c-1.7,0-3.3,0-3.6,0h-.5v-.2h.5s0-1.1,0-1.1h.1s.1,0,.1,0v.6s0,.6,0,.6h1.3s1.3,0,1.3,0v-1.4s0-1.4,0-1.4h-2.6s0,.2,0,.2h-.2v-.5h2.8s0-4,0-4h-3.4v-.2h.2s0-1.5,0-1.5h-6.1s0,1.5,0,1.5h.2v.2h-3.4s0,4,0,4h2.8v3.1s.6,0,.6,0v.2h-.4c-.6,0-5.8,0-6.2,0h-.3v-.2h.2s.2,0,.2,0v-1.5s0-1.5,0-1.5h1.4s1.4,0,1.4,0v-2s0-2,0-2h-1.2v-.2h4.4s0-1.5,0-1.5h-3.1s-3.1,0-3.1,0v.7s0,.8,0,.8h.2v.2h-3.4s0,3.6,0,3.6v3.6s.7,0,.7,0h.7v.2h-3v-.2h1.3s0-7.1,0-7.1h-3.5v-.2h.3s0-.7,0-.7v-.8s-3.1,0-3.1,0h-3.1s0,1.5,0,1.5h.4v.2h-3.6s0,7.1,0,7.1h1.3v.2h-.7s0,1.7,0,1.7h1.5v.6s0,.6,0,.6h2.7s2.7,0,2.7,0v.2h-.6s-.6,0-.6,0v3.6s0,3.6,0,3.6h1.1v.2h-4.3s0,1.5,0,1.5h6.1s0-1.5,0-1.5h-.3v-.2h1v.2h-.4s0,1.5,0,1.5h6.1s0-1.5,0-1.5h-.3v-.2h3.5s0-7.1,0-7.1h-1.2v-.2h2.7v.4s1.5,0,1.5,0v-.4h2.9s0-2.9,0-2.9h-.7v-.2h1.2s0-7.1,0-7.1h-1.2,0c0-.1,0-.2,0-.2h1.4s1.4,0,1.4,0v.2h-1.3s0,7.1,0,7.1h1.3v.2h-.5s0,1.5,0,1.5v1.5s1.4,0,1.4,0h1.4v.2h-.3s-.3,0-.3,0v1.5s0,1.5,0,1.5h-2.8s0,4,0,4h3.5v.2h-.3s0,.8,0,.8v.8ZM865.2,740.5h-2.1v-.2h.4s.4,0,.4,0v-3.6s0-3.6,0-3.6h-1.1v-.2h1.2c.7,0,1.2,0,1.2,0,0,0,0,0,0,.1h0c0,.1-1.1.1-1.1.1v7.1s1.1,0,1.1,0h0c0,.1,0,.2,0,.2ZM880.5,739.2v-1.5s-.5,0-.5,0v1.5s.2,0,.2,0h.2ZM947.5,739h-2.5v-.2h1.2s0-7.1,0-7.1h-1.2v-.2h1.5v.2h0s0,0,0,0v3.6s0,3.6,0,3.6h1.1,0v.2ZM928.5,739h-2.5v-.2h1s0-4,0-4h-1.4s-1.4,0-1.4,0v-.2s0-.2,0-.2h.2v.2s2.6,0,2.6,0v-1.4s0-1.4,0-1.4h-1.3s-1.3,0-1.3,0v1.2h-.2v-1.2s-.7,0-.7,0v-.2h1.7c.9,0,1.8,0,1.9,0,.1,0,1,0,1.9,0h1.7v.2h-.5s0,1.1,0,1.1h-.2v-1.1s-2.6,0-2.6,0v2.8s2.6,0,2.6,0v-.2h.2v.5h-2.9s0,4,0,4h1.2,0v.2ZM903,739h-2.5v-.2h.9s0-4,0-4h-2.9s0,.1,0,.1h-.2v-3.4h1.5c.8,0,1.6,0,1.7,0,0,0,1,0,1.9,0h1.8v.2h-.6s0,1.5,0,1.5v1.5s-1.4,0-1.4,0h-1.4v4s1.3,0,1.3,0h0c0,.1,0,.2,0,.2ZM901.2,730.9h-.3c-.1,0-.2-.1-.2-.3h0c0,0,0-.2,0-.2,0-.1,0-.2,0-.4v-.2s0-.4,0-.4v-.4s0,0,0,0h0c0,0,0-.1,0-.1,0,0,0,0,0,0h0s0,0,0,0h0s0,0,0,0c0,0,.2,0,.4.2.1,0,.2.1.3.1h0s0,0,0,0h0s.1,0,.1,0h.3c0,0,.2-.2.2-.2h0s0,0,0,0h0c0,0,.1.1.2.3h0c0,.1,0,.4,0,.4v.3s0,.1,0,.1c0,.3,0,.5-.2.6h0c0,0,0,.1,0,.1,0,0,0,0-.1,0h0s0,0,0,0h0s-.2,0-.2,0c-.2,0-.4,0-.6,0h-.2s-.2,0-.2,0ZM920.8,728.5c-1.4,0-2.8,0-3.1,0h-.3v-.2h.5s0-1.1,0-1.1h.1s.1,0,.1,0v.6s0,.6,0,.6h1.3s1.3,0,1.3,0v-2.8s-1.3,0-1.3,0h-1.3s0,.2,0,.2h-.2v-.5h2.8s0-4,0-4h-1.1,0c0-.1,0-.2,0-.2h1.2s1.2,0,1.2,0v.2h-1.1s0,2,0,2v2s1.4,0,1.4,0h1.4v3.1s.5,0,.5,0v.2h-.4c-.3,0-1.7,0-3.1,0h0Z"/>
      <g id="Floors-Locked-3">
        <path id="Floors-Locked-3-E" class="st2" d="M784.2,740.5v-1.5s-.3,0-.3,0h0c0,.1-1.5.1-1.5.1h0c0-.1-2.5-.1-2.5-.1h0c0,.1-1.5.1-1.5.1h0c0-.1-.4-.1-.4-.1v1.5s3.1,0,3.1,0h3.1ZM811,740.2h.6s.6,0,.6,0v-7.1s-3.5,0-3.5,0h0c0,.1-1.5.1-1.5.1h0c0-.1-1.2-.1-1.2-.1v4s2.8,0,2.8,0v.5s.1,0,.1,0v1.5h-.1s0,1.1,0,1.1h.3s.3,0,.3,0h0c0-.1.7-.1.7-.1h.7s0,0,0,0h0ZM806.1,740.2h1.3s1.3,0,1.3,0v-.5s0-.5,0-.5h-.1v-1.5h.1s0-.3,0-.3h-2.6s0,1.4,0,1.4v1.4ZM800.9,740.2h0c0-.1,1.5-.1,1.5-.1h0c0,.1.6.1.6.1v-1.5s0-1.5,0-1.5h1.4s1.4,0,1.4,0v-4s-1,0-1,0h0c0,.1-1.5.1-1.5.1h0c0-.1-.3-.1-.3-.1h0c0,.1-1.7.1-1.7.1h-1.7v7s.6,0,.6,0h.6ZM779.9,738.7h.5s.5,0,.5,0v-7.1s-.5,0-.5,0h-.5s0,0,0,0h0c0,0-1.5,0-1.5,0h0c0,0,0-.1,0-.1h-.4s-.4,0-.4,0v.6s0,.6,0,.6h0s0,0,0,0v1.5h-.1s0,.2,0,.2v.2s-1.4,0-1.4,0h-1.4v4s3.6,0,3.6,0h0c0-.1,1.5-.1,1.5-.1h0c0,0,0,.1,0,.1ZM787.3,738.7v-4s-2.8,0-2.8,0v-1.5c0-.8,0-1.5,0-1.5,0,0-.2,0-.3,0h-.3s0,.1,0,.1h-1.5,0c0-.1-.6-.1-.6-.1h-.6s0,3.6,0,3.6v3.6s1.2,0,1.2,0h0c0-.1,1.5-.1,1.5-.1h0c0,.1,1.7.1,1.7.1h1.7ZM777.4,734.4v-.2s-.1,0-.1,0v-.7s0-.7,0-.7h.1s0-1.1,0-1.1h-2.6s0,2.8,0,2.8h1.3s1.3,0,1.3,0ZM804.8,732.9h1.2s1.2,0,1.2,0h0c0-.1,1.5-.1,1.5-.1h0c0,.1.3.1.3.1v-1.5s-6,0-6,0v1.5s.2,0,.2,0h.2s0,0,0,0h0c0,0,1.5,0,1.5,0h0c0,0,0,.1,0,.1ZM796.8,728.9v-7.9s-6,0-6,0v3.6s2.9,0,2.9,0v2.3h-2.9s0,2.1,0,2.1h.8s0-.1,0-.1h.7s.7,0,.7,0h0c0,.1,1.9.1,1.9.1h1.9ZM774.6,728.2v-7.1s-1.1,0-1.1,0h0c0,.1-1.5.1-1.5.1h0c0-.1-3.5-.1-3.5-.1v4s2.8,0,2.8,0v3.1s.5,0,.5,0h0c0-.1,1.5-.1,1.5-.1h0c0,.1.7.1.7.1h.7ZM738.9,727h.1s.1,0,.1,0v-1.9h3.6s0-4.1,0-4.1h-3.5s0,.1,0,.1h-1.5,0c0-.1-.6-.1-.6-.1h-.6s0,3,0,3v3s.9,0,.9,0h0c0-.1,1.5-.1,1.5-.1h0c0,0,0,.1,0,.1ZM736.3,727v-5.9s-1.1,0-1.1,0h0c0,.1-1.5.1-1.5.1h0c0,0,0-.1,0-.1h-.3s0,5.9,0,5.9h.6s0-.1,0-.1h1.5,0c0,.1.4.1.4.1h.4ZM773.5,720.8h2.1s2.1,0,2.1,0v-.7c0-.4,0-.7,0-.8h0s-6.1,0-6.1,0v1.5s.4,0,.4,0h0c0-.1,1.5-.1,1.5-.1h0ZM733.7,720.8h0c0-.1.7-.1.7-.1h.7s0,.1,0,.1h2.4s0-.1,0-.1h1.5,0c0,.1.3.1.3.1v-1.5s-6,0-6,0v1.5s.1,0,.1,0h.1Z"/>
        <path id="Floors-Locked-3-W" class="st2" d="M873.4,752.7v-1.5s-.3,0-.3,0h0c0,0,0,.1,0,.1h-1.5,0c0-.1-2.5-.1-2.5-.1h0c0,.1-1.5.1-1.5.1h0c0-.1-.3-.1-.3-.1v1.5s3,0,3,0h3ZM869.2,750.9h.5s.5,0,.5,0v-2s0-2,0-2h-.7s0,0,0,0h0c0,0-1.5,0-1.5,0h0c0-.1-.4-.1-.4-.1h-.4s0,0,0,0h0c0,0,.1,0,.1,0v.7s0,.7,0,.7h-.1s0,2.2,0,2.2h.1,0c0,.1.3.1.3.1h0c0-.1,1.5-.1,1.5-.1h0c0,0,0,.1,0,.1ZM873.1,750.9h1.7s1.7,0,1.7,0v-4s-2.8,0-2.8,0v-3.1s-.6,0-.6,0h0c0,.1-1.5.1-1.5.1h0c0-.1-1.2-.1-1.2-.1v7.1s.6,0,.6,0h.6s0,0,0,0h0c0,0,1.5,0,1.5,0h0c0,0,0,.1,0,.1ZM870.2,746.6v-2.9s-2.9,0-2.9,0v2.9s.7,0,.7,0h0c0-.1.7-.1.7-.1h.7,0c0,.1.4.1.4.1h.4ZM880.4,740.3h1.3s1.3,0,1.3,0v-1.4s0-1.4,0-1.4h-2.6s0,.3,0,.3h.1v1.5h-.1s0,.5,0,.5v.5ZM880.1,740.3v-1.1s-.1,0-.1,0v-1.5h.1s0-.5,0-.5h2.9s0-4,0-4h-6.1s0,7.1,0,7.1h1.2s0-.1,0-.1h1.5,0c0,.1.3.1.3.1h.3Z"/>
      </g>
    </g>
  </g>
</svg>