<?xml version="1.0" encoding="UTF-8"?>
<svg id="svg1" xmlns="http://www.w3.org/2000/svg" version="1.1" viewBox="0 0 1613.2 1114.6">
  <!-- Generator: Adobe Illustrator 29.0.1, SVG Export Plug-In . SVG Version: 2.1.0 Build 192)  -->
  <defs>
    <style>
      .st0 {
        fill: #987f00;
      }

      .st1 {
        fill: #666;
      }

      .st2 {
        fill: #555;
      }
    </style>
  </defs>
  <g id="Second_Floor">
    <g id="Stairs-2">
      <g id="Stairs-2-E">
        <g id="Stairs-Common-E">
          <path class="st0" d="M799.4,746.2v.7h-.2c-.1,0-.3,0-.5,0h-.3s0,.8,0,.8v.8s-.7,0-.7,0h-.7s0-3,0-3h2.4v.7ZM802.3,747v1.5h-.7s-.7,0-.7,0v-.8s0-.8,0-.8h-.3c-.1,0-.4,0-.5,0h-.2v-1.4h2.4v1.5ZM739.3,735.1v2.2h-3v-4.5h1.4v2.5s.2,0,.2,0v-2.5h1.4v2.2ZM796.6,731.5v2.1h-1.4v-2.1s-.5,0-.5,0v2.1h-1.4,0s0-1,0-2.1v-2.1h3.2v2.1Z"/>
        </g>
      </g>
      <path id="Stairs-2-A" class="st0" d="M846,781.7h.7s0,.3,0,.3c0,.3,0,2.4,0,2.7v.3h-4.8v-3.2h.7s1.7,0,1.7,0c.5,0,1.3,0,1.7,0Z"/>
      <g id="Stairs-2-W">
        <g id="Stairs-Common-W">
          <path class="st0" d="M895.4,730.3c0,.5,0,1.4,0,2.1v1.2s0,0,0,0h0s-1.4,0-1.4,0v-2.1s-.5,0-.5,0v2.1h-1.4v-4.2h3.2v.9ZM888.9,746.2v.7s-.5,0-.5,0h-.5v1.5h-1.4v-.5c0-.3,0-.9,0-1.5v-1h2.4v.7ZM891.8,746.5c0,.5,0,1.2,0,1.5v.5h-1.4v-1.5s-.5,0-.5,0h-.5s0-.7,0-.7v-.7s2.4,0,2.4,0v1ZM952.4,735.1v2.2h-3v-4.5h1.4v.3s0,1.3,0,1.3v1s.2,0,.2,0v-1s0-1.3,0-1.3v-.3h1.4v2.2Z"/>
        </g>
      </g>
    </g>
    <g id="Floors-2">
      <path id="Floor-2-E" class="st1" d="M815.3,752.9v-1.5s-.2,0-.2,0v-.2h3.4s0-7.1,0-7.1h-1.2v-.2h2.3s2.3,0,2.3,0v1.6c0,.9,0,1.7,0,1.8v.2h-.2v-.2s-.7,0-.7,0v-.2h.7s0-2.9,0-2.9h-2.9s0,2.9,0,2.9h.7v.2h-.7s0,2,0,2v2s1.4,0,1.4,0h1.4s0,0,0,0h0c0,0,0,0,0,0h0v-2.2h.2v2.2s6,0,6,0v-6.8h21.3s0-3.3,0-3.3h-21.3v-.2s-.6,0-.6,0v-.2h.6s0-7.1,0-7.1h-.3v-.2h.3s0-1.5,0-1.5h-3s-3,0-3,0v.8s0,.7,0,.7h.2s.2,0,.2,0h0c0,.1,0,.2,0,.2h-3.5s0,4,0,4h1.4s1.4,0,1.4,0v1.5s0,1.5,0,1.5h.7v.2h-1.8c-1,0-2.6,0-3.6,0h-1.8v-.4s-1.5,0-1.5,0v.2s0,.1,0,.1h-2.7,0c0-.2,0-.2,0-.3h0c0,0-1.5,0-1.5,0h0c0,.1,0,.2,0,.3h0c0,0-1.8.1-1.8.1-1,0-2.6,0-3.6,0h-1.8v-.4s-1.5,0-1.5,0v.2s0,.2,0,.2h-1.4v-3.6s0-3.6,0-3.6h-1.3s-1.3,0-1.3,0h0c0,0-.7,0-.7,0h-.7s0-1,0-1v-1h-.5s0,1,0,1v1s-.7,0-.7,0h-.7s0,0,0,0h0s-.2,0-.2,0v-3.8s-.3,0-.3,0v-.2s0-.2,0-.2h-1.5s0,.4,0,.4h-1v-.9s-.8,0-.8,0c-.5,0-.9,0-.9,0h0v-.2h0s0-2.6,0-2.6h1.7s0-4.5,0-4.5h-.3v-.2h.3s0-.8,0-.8v-.8s-6.1,0-6.1,0v1.5s.4,0,.4,0v.2h-.2s-1.8,0-1.8,0h-1.6v4s1.4,0,1.4,0h1.4v3.1s.5,0,.5,0v.2h-.4c-.5,0-5.6,0-6.3,0h-.5s0-.2,0-.2v-.2s-1.5,0-1.5,0v.4h-.6c-.3,0-.9,0-1.4,0h-.7v-.2h1.4s0-7.1,0-7.1h-1.6c-.9,0-1.7,0-1.8,0h-.2v-.2h.4s0-1.5,0-1.5h-6.1s0,1.5,0,1.5h4.3v.2h-1.1s0,4,0,4h2.8v.5h-.2c0-.1,0-.2,0-.2h-1.3s-1.3,0-1.3,0v2.8s2.6,0,2.6,0v-1.1h.2v1.1s.5,0,.5,0v.2h-.3c-.4,0-5.7,0-6.2,0h-.4v-.2h.3s.3,0,.3,0v-.6s0-.6,0-.6h.2v1.1s2.6,0,2.6,0v-2.8s-2.6,0-2.6,0v.2h-.2v-.5h2.8s0-4,0-4h-1.6c-.9,0-1.7,0-1.8,0h-.2v-.2h.4s0-1.5,0-1.5h-6.1s0,1.5,0,1.5h.3v.2h-.1s-1.7,0-1.7,0h-1.6v4s1.4,0,1.4,0h1.4v3.1s.4,0,.4,0v.2h-.3c-.4,0-5.6,0-6.2,0h-.4v-.2h.6s0-3.1,0-3.1h2.8s0-4,0-4h-1.6s-1.7,0-1.7,0h-.1v-.2h.2s0-1.5,0-1.5h-6.1s0,1.5,0,1.5h.2v.2h-.1s-1.7,0-1.7,0h-1.6s0,4,0,4h2.8v.5h-.2c0-.1,0-.2,0-.2h-1.3s-1.3,0-1.3,0v2.8s1.3,0,1.3,0h1.3s0-.6,0-.6v-.6h.2v1.1s.5,0,.5,0v.2h-.5c-.3,0-1.9,0-3.6,0h-3.1s0-.6,0-.6v-.6h-.2,0c0-.1,0-.2,0-.2h.1s.1,0,.1,0v-1.9h3.6s0-4.1,0-4.1h-1.1v-.2h2.1s2.1,0,2.1,0v-1.5s-6.1,0-6.1,0v1.5s.4,0,.4,0v.2h-3.6s0,5.9,0,5.9h.9v.2h-.9s-.9,0-.9,0h0c0-.1,0-.2,0-.2h.7s0-5.9,0-5.9h-1.1v-.3h4.3s0-1.5,0-1.5h-6s0,1.5,0,1.5h.1s.1,0,.1,0h0c0,.1,0,.2,0,.2h-.3s0,5.9,0,5.9h.6v.2h-.6s0,5.4,0,5.4h2.2s2.2,0,2.2,0v2.5s.2,0,.2,0v-2.5h1.4s0-1.2,0-1.2h1.6,0c0,.1,0,.2,0,.2h-.7s-.7,0-.7,0v5.7h-3.2s0,1.4,0,1.4h6.1s0-7.1,0-7.1h-.1v-.2h1.5,0v.4s1.5,0,1.5,0v-.4h7.2v.4s1.5,0,1.5,0v-.4h11.4v.2h-.7s0,3.1,0,3.1h-2.8s0,4,0,4h1v.2h-2.5v-.2h1.2s0-4,0-4h-2.9v-3.1s-3.3,0-3.3,0v7.1s3.5,0,3.5,0v.2h-.3s0,1.5,0,1.5h6.1s0-1.5,0-1.5h-.4v-.2h3.6s0-7.1,0-7.1h-.6s-.6,0-.6,0h0c0-.1,0-.2,0-.2h2.5v.4s1.5,0,1.5,0v-.4h7.4v.4s1.5,0,1.5,0v-.4h2.5,0c0,.1,0,.2,0,.2h-.6s-.6,0-.6,0v7.1s3.4,0,3.4,0v.2h-.2s0,1.5,0,1.5h6s0-1.5,0-1.5h-.4v-.2h.4s0-.1,0-.1h.1s0-2.3,0-2.3h.2v2.3s6.4,0,6.4,0v4.3s3,0,3,0h3s0,.2,0,.2v.2s-.2,0-.2,0v-.2s-5.8,0-5.8,0v1.9s5.8,0,5.8,0v-.2h.2v.5h-.5s0,2.9,0,2.9h-.2s0,0,0,0h-.7s-.7,0-.7,0v-.8s0-.8,0-.8h-1v-1.4s-.5,0-.5,0v1.4h-1s0,1.5,0,1.5h-1.4s0,2.6,0,2.6h1.4v.3h-1.4s0,1.5,0,1.5h5.5s0-1.5,0-1.5h-1.6v-.3h2.4s2.4,0,2.4,0v-7.4h1.4v.2h-1.2s0,7.1,0,7.1h3.4v.2h-.2s0,1.5,0,1.5h3.1s3.1,0,3.1,0ZM813.6,751.4h-2.7v-.2h1.2s0-4,0-4h-2.8v-.5h.2c0,.1,0,.2,0,.2h1.3s1.3,0,1.3,0v-2.8s-2.6,0-2.6,0v1.1h-.2v-1.1s-.6,0-.6,0h0c0-.1,0-.2,0-.2h3.6c2,0,3.6,0,3.6,0,0,0,0,0,0,.1h0c0,.1-.6.1-.6.1v3.1h-2.8s0,4,0,4h.6s.6,0,.6,0h0c0,.1,0,.2,0,.2ZM813.3,742.9h-.1c0-.1-.1-.3-.1-.3h-1.9s-.1.1-.1.1h-.1c0,.1,0,0,0,0h0c0,0,.2-.3.2-.3l.2-.2h2.1s.2.2.2.2l.2.2h0c0,0,0,.2,0,.2ZM813.1,741.4h-2.1s-.2-.2-.2-.2c-.2-.2-.2-.2-.1-.3h0c0,0,0,0,0,0h.1c0,.1.1.3.1.3h1.9s.1-.1.1-.1h.1c0-.1,0,0,0,0h0c0,0-.2.3-.2.3l-.2.2ZM825.8,740.7h-2.1v-.2h1.2s0-7.1,0-7.1h-1.2v-.2h2.5v.2h-1.1s0,7.1,0,7.1h.7,0c0,.1,0,.2,0,.2ZM751.8,739.3h0c0-.2,0-.3,0-.4h0c0-.1-1.5-.1-1.5-.1h0c0,.2,0,.3,0,.3h0c0,.1.7.1.7.1h.7ZM747.9,739.3v-.5s-1.5,0-1.5,0v.5s.7,0,.7,0h.7ZM745.4,739.3v-.5s-1.5,0-1.5,0v.5s.7,0,.7,0h.7ZM788.4,739.2h-2.5v-.2h1.3s0-4,0-4h-2.8v-3.1s-.7,0-.7,0v-.2h6.9v3.4h-.2,0c0-.1-.7-.1-.7-.1v-.2h.4s.4,0,.4,0v-2.8s-1.5,0-1.5,0h-1.5s0,2.9,0,2.9h.7v.2h-.7s0,4,0,4h.5s.5,0,.5,0h0c0,.1,0,.2,0,.2ZM752.1,734.5v-1.5s0,0,0,0c0,0-.1,0-.2,0h-.2s0,0,0,0v1.5s.2,0,.2,0h.2ZM815.1,733.5v-.5s-1.5,0-1.5,0h0c0,.1,0,.2,0,.3v.2h.7s.7,0,.7,0ZM810.9,733.5h0c0-.1,0-.2,0-.2,0,0,0-.1,0-.2h0c0,0-1.5,0-1.5,0h0c0,.2,0,.3,0,.4h0c0,.1.7.1.7.1h.7ZM774.5,731.4c-.4,0-.8,0-1-.1-.1,0-.2-.2-.2-.3h0c0,0,0-.4,0-.4v-.3s0-.2,0-.2c0-.1,0-.3,0-.4h0c0-.1,0-.2,0-.2,0,0,0-.1,0-.2h0c0,0,0-.1,0-.1.1-.1.3-.1.8-.1h.3s.3,0,.3,0c.6,0,.8,0,.8.2h0c0,0,0,.1,0,.1,0,0,0,.2-.2.5,0,0,0,.2-.1.3h0c0,0,0,.2,0,.2h0c0,.1,0,.2,0,.2,0,0,0,.1,0,.2,0,0,0,.1,0,.2h0v.2s0,0,0,0h0s0,0,0,0h0c-.1,0-.4.1-.7.1h0ZM787.5,728.7c0,0-.5,0-.9,0h-.7v-.2h1.3s0-7.1,0-7.1h-1v-.2h.8c.4,0,1,0,1.2,0h.5v.2h-1.2s0,7.1,0,7.1h.2v.2h-.1ZM762.5,728.7c-.4,0-1.1,0-1.5,0h-.8v-.2h1.4s0-7.1,0-7.1h-1.2v-.2h2.5v.2h-1s0,7.1,0,7.1h1.3v.2h-.7ZM749.7,728.7c-.4,0-1,0-1.4,0h-.7v-.2h1.3s0-7.1,0-7.1h-1.3v-.2h2.7v.2h-1.2s0,7.1,0,7.1h1.2v.2h-.7Z"/>
      <path id="Floor-2-A" class="st1" d="M855.6,801.7v-1.7h1.9s1.9,0,1.9,0v-2.2s0-2,0-2h-1.4v-2.1s-.3,0-.3,0v-.3h.3s0-3.2,0-3.2h1.2s0-.2,0-.2h.1s.1,0,.1,0v.3s0,.3,0,.3h-1.2s0,2.4,0,2.4v2.7h1.1s0,0,0,0h0c0,0,2.4,0,2.4,0v-5.3h2.8s2.8,0,2.8,0v-6.9s0-6.6,0-6.6h-13.5s0,1.7,0,1.7v1.7s1.5,0,1.5,0h3s1.5,0,1.5,0v.7h-.3v-.2s0-.2,0-.2h-1.4s-1.4,0-1.4,0v3.8s2.8,0,2.8,0v-1.7h.3v.9s0,.9,0,.9h1.3s1.3,0,1.3,0v4.4h-3.1s0,.1,0,.1h0c0,.1-.1.1-.1.1h-.1s0-4.3,0-4.3h-2.5v-4.1s-6.3,0-6.3,0v-.3h3.3s0-3.5,0-3.5h-.1v-4.7s-18.1,0-18.1,0v4.7h-.1s0,1,0,1h-.3v-1s-4.2,0-4.2,0v3.5s.1,0,.1,0v.3h-.4v-3.7s-9.1,0-9.1,0v7.5s4.3,0,4.3,0h4.2s0,.2,0,.2v.2s-.2,0-.2,0v1.6h-.3v-.8s0-.8,0-.8h-4s-4.1,0-4.1,0v5.7s5.8,0,5.8,0h0c0,.1,2.3.1,2.3.1v-2.5h.3v2.5s1.2,0,1.2,0v.5h-.3v-.2s-3.5,0-3.5,0v4.9s2.4,0,2.4,0h0c0,.1,1.1.1,1.1.1v-3.5h.3v1.4s.3,0,.3,0v.3h-.3s0,2.1,0,2.1h-1.4s0,4.3,0,4.3h3.7v1.7s1.6,0,1.6,0v-8.1s-.9,0-.9,0h-.9s0-.1,0-.1h0c0-.1,1.9-.1,1.9-.1v-1.9s-1.7,0-1.7,0v-5h1.7s0-3.2,0-3.2h7.2s0-1.5,0-1.5h4.9v1.5s7.2,0,7.2,0v3.2s1.7,0,1.7,0v5h-1.7s0,1.9,0,1.9h1.9v.3h-1.9s0,8.1,0,8.1h.8s.8,0,.8,0ZM860.5,795.2h0c-.1,0-.2-.2-.4-.4-.2-.2-.3-.3-.4-.3h0s-.1,0-.1,0c0,0-.2,0-.3,0s-.2,0-.3,0h-.2s0,0,0,0h0c0,0,0-.1,0-.2h0c0,0,0-.2,0-.2,0-.6.5-1.5.7-1.7,0,0,0,0,.1,0,.2,0,.3,0,.6.1h.2c0,0,.1.1.1.1.1,0,.3,0,.4,0,.5,0,.7.2.8.3h0c0,0,0,.2,0,.2h0c0,.1,0,.2,0,.2,0,0,0,.2-.2.4v.3c-.1,0-.2.2-.2.2-.2.7-.2.8-.3.9h0s0,0,0,0h0ZM846.8,786.2v-1.3s-4.9,0-4.9,0v1.3s2.4,0,2.4,0h2.4ZM832.2,784.4h-.6v-.3h.3s0-3.8,0-3.8h-.2v-.3h3.2s0-.7,0-.7h.3v.7s2.7,0,2.7,0v.3h-2.8s-2.8,0-2.8,0v2.1s0,2.1,0,2.1ZM826.3,781.8h-.2s0,0,0,0h0c0-.2-.1-.2-.3-.5v-.2c-.1,0-.2-.2-.2-.2,0,0-.2-.2-.2-.3-.1-.2-.2-.3-.3-.5h0c0-.1,0-.2,0-.2,0-.2.2-.3.7-.6.2,0,.4-.2.6-.3.2-.2.5-.3.6-.3.1,0,.2,0,.3,0h0s0,.1,0,.1c0,.1,0,.2,0,.5,0,.6,0,.6.5,1,.3.3.4.4.2.6h0c0,0-.2.2-.2.2-.5.3-1.2.6-1.5.6h0ZM848.6,780.3h-9v-.3h9,0v.3Z"/>
      <path id="Floor-2-W" class="st1" d="M879.7,752.9v-1.5s-.2,0-.2,0v-.2h3.4s0-7.1,0-7.1h-1.2v-.2h1.4v7.4s0,0,0,0c1.4,0,2.9,0,4.3,0h4.3v-2.7s-1.4,0-1.4,0v-.2s0-.8,0-.8v-.5s-1,0-1,0v-1.4s-.5,0-.5,0v1.4h-1s0,1.5,0,1.5h-.6c-.4,0-.7,0-.8,0h-.2v-2.9s-.5,0-.5,0v-2.3h6s0-4.3,0-4.3h6.4s0-2.1,0-2.1h.4s0-1.5,0-1.5h-.4v-3.6h6.9v.2h-.6s0,1.1,0,1.1h-.2v-1.1s-2.6,0-2.6,0v2.8s2.6,0,2.6,0v-.2h.1s.1,0,.1,0v.2s0,.2,0,.2h-2.9s0,4,0,4h6.1s0-3.6,0-3.6v-3.6s-.6,0-.6,0h-.6v-.2h2.5v.2h-1.1s0,7.1,0,7.1h1.1v.2h-4.3s0,.8,0,.8v.7s3.1,0,3.1,0h3.1s0-1.5,0-1.5h-.4v-.2h3.6s0-4,0-4h-2.8v-.5h.2v.2s2.6,0,2.6,0v-2.8s-1.3,0-1.3,0h-1.3s0,.6,0,.6v.6h-.2v-.6s0-.6,0-.6h-.4s-.4,0-.4,0v-.2h1.9c1,0,2.7,0,3.7,0h1.8s0,.2,0,.2v.2s1.5,0,1.5,0v-.2s0-.2,0-.2h2.5,0c0,.2,0,.2,0,.3h0c0,0,1.5,0,1.5,0h0c0-.1,0-.2,0-.3h0c0,0,1.8-.1,1.8-.1,1,0,2.6,0,3.6,0h1.8,0c0,.2,0,.2,0,.3h0c0,0,1.5,0,1.5,0h0c0-.1,0-.2,0-.3h0c0,0,2.7,0,2.7,0h0c0,.2,0,.2,0,.3h0c0,0,1.5,0,1.5,0v-.4h1.8s5.1,0,5.1,0h3.3v.2h0s0,0,0,0v3.6s0,3.6,0,3.6h6.1s0-1.4,0-1.4h-3.2v-2.8s0-2.9,0-2.9h-.7s-.7,0-.7,0v-.2h1.6v1.2s1.4,0,1.4,0v2.6s.2,0,.2,0v-2.6h.6c.3,0,.8,0,1.1,0h.5v.2h-.6s0,5.9,0,5.9h2.8s0-3,0-3v-2.9s-.4,0-.4,0h-.4v-.2h.7s0-5.3,0-5.3h-.4s-.4,0-.4,0h0c0-.1,0-.2,0-.2h.7s0-5.9,0-5.9h-2.8s0,5.9,0,5.9h.6v.2h-1.7v-.2h.9s0-5.9,0-5.9h-3.6,0c0-.1,0-.2,0-.2h.2s.2,0,.2,0v-.7c0-.4,0-.7,0-.8,0,0-1.4,0-3.1,0h-3.1s0,1.5,0,1.5h.1s.1,0,.1,0h0c0,.1,0,.2,0,.2h-3.5s0,7.1,0,7.1h1.3v.2h-.7c-.4,0-1,0-1.4,0h-.7v-.2h1.2s0-7.1,0-7.1h-6.1s0,4,0,4h2.8v.5h-.2c0-.1,0-.2,0-.2h-1.3s-1.3,0-1.3,0v2.8s1.3,0,1.3,0h1.3s0-.6,0-.6v-.6h.2v1.1s.6,0,.6,0v.2h-.4c-.6,0-5.8,0-6.2,0h-.3v-.4s-1.5,0-1.5,0h0c0,0,0,.2,0,.2h0c0,.1-.8.1-.8.1-.4,0-1.1,0-1.5,0h-.7v-.4s-1.5,0-1.5,0h0c0,0,0,.2,0,.2h0c0,.1-.4.1-.4.1-.5,0-5.7,0-6.2,0h-.3,0c0-.2,0-.2,0-.3h0c0,0-1.5,0-1.5,0h0c0,.1,0,.2,0,.3h0c0,0-.7.1-.7.1-.4,0-1,0-1.4,0h-.6v-.2h1.1s0-7.1,0-7.1h-3.6,0c0-.1,0-.2,0-.2h.2s.2,0,.2,0v-1.5s-3.1,0-3.1,0h-3.1s0,.8,0,.8v.7s.1,0,.1,0h.2s0,.1,0,.1h0c0,.1-3.5.1-3.5.1v7.1s1.3,0,1.3,0v.2h-.7c-.4,0-.8,0-.9,0h-.1v-.2h.2s0-7.1,0-7.1h-1.2v-.2h4.4s0-.7,0-.7v-.8s-3.1,0-3.1,0h-3.1s0,1.5,0,1.5h.3v.2h-.3s0,4.5,0,4.5h1.7v2.7s0,0,0,0v.2h0s-.4,0-.9,0h-.8s0,.7,0,.7h-1.2v-.2h1s0-2.2,0-2.2h-2.9v-2.3h2.9s0-3.4,0-3.4h-.2v-.2h.2s0-1.5,0-1.5h-6s0,1.5,0,1.5h.3v.2h-.3s0,7.9,0,7.9h3.6v.2h-.1s0,4,0,4h0c0,0-.4,0-.8,0h-.7s0-1,0-1v-1h-.5s0,1,0,1v1s-.7,0-.7,0h-.7c0,.1-2.7.1-2.7.1v7.2h-10.1v-.2h.6s0-1.1,0-1.1h.2v1.1s1.3,0,1.3,0h1.3s0-1.4,0-1.4v-1.4s-2.6,0-2.6,0v.3h-.2v-.5h2.9s0-4,0-4h-1.2v-.2h2.5v.2h-1s0,4,0,4h2.8v.5h-.2v-.3s-2.6,0-2.6,0v1.4s0,1.4,0,1.4h1.3s1.3,0,1.3,0v-1.1h.2v1.1s1.6,0,1.6,0h1.6s0-3.5,0-3.5v-3.5s-3.3,0-3.3,0h0c0-.1-.3-.1-.3-.1v-.2h.3s0-1.5,0-1.5h-6s0,1.5,0,1.5h.2v.2h-3.4s0,7.1,0,7.1h1.2v.2h-2.7v-.4s-1.5,0-1.5,0v.4h-7.2v-.4s-1.5,0-1.5,0h0c0,0,0,.2,0,.2h0c0,.1-2,.1-2,.1v-.2h.3s.3,0,.3,0v-3.6s0-3.6,0-3.6h-2.8s0,3.6,0,3.6v3.6s.4,0,.4,0h.4v.2h-.4s-.4,0-.4,0v.2s-21.9,0-21.9,0v3.3s21.9,0,21.9,0v6.8s6,0,6,0v-2.2h.2v2.2s.1,0,.1,0h0c0,.1,1.4.1,1.4.1h1.4s0-2,0-2v-2s-1.5,0-1.5,0h-1.5s0,.1,0,.1h0c0,.1-.2.1-.2.1v-.3c0-.1,0-.9,0-1.8v-1.5s2.3,0,2.3,0h2.3s0,.2,0,.2h-1.2s0,7.1,0,7.1h3.4v.2h-.2s0,1.5,0,1.5h3.1s3.1,0,3.1,0ZM877.9,751.4h-2.7v-.2h1.2s0-4,0-4h-2.8v-3.1s-.6,0-.6,0v-.2h7.1v.2h-.6s0,1.1,0,1.1h-.2v-1.1s-2.6,0-2.6,0v2.8s2.6,0,2.6,0v-.2h.2v.5h-2.8s0,4,0,4h1.2,0c0,.1,0,.2,0,.2ZM863.5,749.1h0c0,0,0-.1-.1-.1h0c0,0,0-.2,0-.2,0,0-.1-.2-.1-.3h0c0-.1,0-.3,0-.3-.2-.3-.3-.4-.3-.5h0c0-.1,0-.2,0-.2h0c0,0,0-.1,0-.1,0,0,0-.1.1-.2h0c0,0,.1-.1.1-.1,0,0,.2-.1.3-.1h.2c0,0,.3-.2.3-.2.3-.2.4-.2.5-.3h0s0,0,.1,0h0s0,0,0,0c0,0,.1.1.2.2h0c0,0,0,.3,0,.3,0,.1,0,.3,0,.4h0c0,.1,0,.2,0,.2,0,0,.1.2.3.3h.2c0,.1,0,.2,0,.2.1.1,0,.2,0,.4-.2.2-.8.5-1.3.6h0s-.1,0-.1,0h-.1ZM867.6,739.4v-1.5s0,0,0,0c0,0-.1,0-.2,0h-.2s0,0,0,0v1.5s.2,0,.2,0h.2ZM934.8,739.4h.7s.7,0,.7,0v-.2c0-.1,0-.2,0-.2h0s-1.5,0-1.5,0h0c0,.2,0,.3,0,.4h0ZM932.3,739.4h0c0-.2,0-.3,0-.4h0c0-.1-1.5-.1-1.5-.1h0c0,.2,0,.3,0,.4h0c0,.1.7.1.7.1h.7ZM929.8,739.4v-.5s-1.5,0-1.5,0v.5s.7,0,.7,0h.7ZM924.4,739.4h.7s.7,0,.7,0v-.2c0-.1,0-.2,0-.2h0s-1.5,0-1.5,0h0c0,.2,0,.3,0,.4h0ZM888.6,737.4h-.2c0,0-.2,0-.4,0h-.2s-.4,0-.4,0h-.4s-.1,0-.1,0c-.2,0-.3,0-.3-.2h0,0c0-.2,0-.3.2-.6l.2-.3h0c0,0,0-.2,0-.2h0c0-.1,0-.2,0-.3,0,0,0-.2,0-.2,0,0,0-.1,0-.2h0c0,0,0-.1,0-.1,0,0,.1-.2.2-.2h0s.3,0,.3,0c.3,0,.6,0,.9,0,.4,0,.5.2.5.5h0c0,0,0,.3,0,.3,0,.2,0,.4,0,.6,0,.1,0,.3,0,.4v.2s0,0,0,0c0,0,0,.2-.1.2h0s0,0,0,0h0ZM937,734.5s0,0,0,0h0v-1.5s-.5,0-.5,0v1.5s.2,0,.2,0c0,0,0,0,.1,0h0ZM924.4,734.5v-.7c0-.4,0-.7,0-.7,0,0-.1,0-.2,0h-.2s0,.7,0,.7v.7s.2,0,.2,0h.2ZM873,733.5h0c0-.2,0-.3,0-.4h0c0-.1-1.5-.1-1.5-.1h0c0,.2,0,.3,0,.4h0c0,.1.7.1.7.1h.7ZM869,733.5v-.5s-1.5,0-1.5,0v.5s.7,0,.7,0h.7ZM881.6,732.9s0,0,0,0h0s0,0,0,0c0,0,0-.3.2-.5l.2-.5h0s0,0,0,0v.4c.1.4.1.4.1.3,0-.3.2-.7.2-.7,0,0,0,0,0,0h0s0,.3,0,.3c0,.1,0,.2,0,.3,0,0,0,0,0-.3v-.3c0,0,.1,0,.1,0,0,0,0,0,0,0,0,0,.2.7.2.7h0s0,0,0,0c0,0,0-.2,0-.3v-.4c0,0,.1,0,.1,0h0c0,0,0,0,.1.4,0,.3,0,.3,0,.3,0-.1,0-.2,0-.3v-.3c0,0,.1,0,.1,0,0,0,0,0,0,0,0,0,.1.6.1.6,0,0,.1-.7.1-.7,0,0,0,0,0,0,0,0,0,0,0,0,0,0,0,.2,0,.5v.5h-.2v-.3c-.1-.3-.2-.4-.2-.4v.4c0,0-.1.3-.1.3h-.1v-.3c-.1-.4-.1-.4-.1-.4s0,.2,0,.3v.3h-.2v-.4c-.2-.4-.2-.4-.2-.4,0,0-.1.7-.1.7s0,0,0,0h0s0-.4,0-.4c0-.2,0-.3,0-.3h0s0,0,0,0c0,.1,0,.2,0,.3v.4c0,0-.1,0-.1,0h0c0,0,0,0-.1-.4,0-.2,0-.4,0-.4,0,0,0,0-.1.4-.1.3-.1.4-.1.4h0ZM950.1,731.6s-.2,0-.5-.1l-.5-.2h0c0,0,0-.1,0-.1h.3c.3-.1.4-.1.3-.1,0,0-.7-.2-.7-.2s0,0,0,0h0c0,0,.3-.1.3-.1h.3c0,0,0,0,0,0h0s-.2,0-.4,0h-.4c0,0,0-.1,0-.1,0,0,0,0,0,0,0,0,0,0,.6,0h.5c0,.1,0,.2,0,.2h0c0,0-.4.1-.4.1-.4,0-.4,0-.3,0h.4c.1.1.2.2.3.2,0,0,0,0,0,0h0c0,0,0,0,0,0h-.4c-.2,0-.3.1-.3.1,0,0,0,0,.4.1.1,0,.3,0,.4.1h0s0,0,0,0c0,0,0,0,0,0h0ZM905.6,731.4h0s-1-.3-1-.3h0,0c0-.1,0-.1,0-.1h.3c.2,0,.3-.1.3-.1h0s0,0,0,0c0,0-.1,0-.3,0h-.3c0,0,0-.1,0-.1h0c0-.1,0-.1,0-.1h.3c0,0,.2-.1.3-.1,0,0,0,0-.4,0h-.3c0,0,0-.1,0-.1h0c0,0,.3-.2.3-.2h.4c0-.1,0-.1,0-.1h0s-.2,0-.4-.1h-.4v-.2h.3c.4-.1.4-.1.4-.1s-.2,0-.3,0h-.3c0,0,0-.1,0-.1h0c0,0,.3-.1.3-.1.1,0,.2,0,.3,0,0,0,0,0-.3,0h-.3c0,0,0,0,0,0h0c0,0,0,0,0-.1h0s.5,0,.5,0c.2,0,.4,0,.5,0,0,0,0,0,0,0h0c0,0,0,0,0,0,0,0-.2,0-.3,0-.2,0-.3,0-.3,0h0s0,0,0,0c.2,0,.4,0,.7.1,0,0,0,0,0,0h0c0,0,0,0,0,0h-.3c-.2.1-.3.1-.3.1,0,0,0,0,.3,0h.3c0,0,0,0,0,0h0c0,.1,0,.1,0,.1-.3,0-.7.2-.7.2,0,0,0,0,.4,0h.4c0,0,0,.1,0,.1h0c0,0,0,0,0,0,0,0-.7.1-.7.1h.4c0,.1.4.2.4.2h0c0,.1-.4.2-.4.2-.1,0-.2,0-.4,0h0s0,0,0,0c.8.2.7.2.7.3h0ZM944.5,728.7c-.7,0-1.1,0-1.3,0h-.5v-.2h.5s0-1.1,0-1.1h.2v1.1s1.3,0,1.3,0h1.3s0-1.4,0-1.4v-1.4s-2.6,0-2.6,0v.2h-.2v-.5h2.8s0-4,0-4h-1.2v-.2h2.5v.2h-1.1s0,2,0,2v2s1.8,0,1.8,0h1.8v.5h-.3v-.3s-3.3,0-3.3,0v2.9s3.3,0,3.3,0v-1.4h.3v.2s.2,0,.2,0v.2h-.2s0,.6,0,.6v.6s-3.1,0-3.1,0c-.8,0-1.7,0-2.3,0h0ZM911,728.7c-.7,0-5.7,0-6.3,0h-.4v-.2h.5s0-1.1,0-1.1h.2v1.1s2.6,0,2.6,0v-2.8s-2.6,0-2.6,0v.2h-.2v-.5h1.4s1.4,0,1.4,0v-2s0-2,0-2h-1.2v-.2h2.5v.2h-1.1s0,4,0,4h2.8v3.1s.7,0,.7,0v.2h-.5ZM918,727.3v-1.5s-.5,0-.5,0v1.5s.2,0,.2,0h.2ZM929.8,721.4v-.5s-1.5,0-1.5,0v.5s.7,0,.7,0h.7ZM917,721.4v-.5s-1.5,0-1.5,0h0c0,0,0,.2,0,.2v.2s0,0,0,0h.7s.7,0,.7,0ZM896.5,721.3h-2.5,0c0-.1,0-.2,0-.2h1.2s1.2,0,1.2,0h0v.2Z"/>
      <g id="Floors-Locked-2">
        <path id="Floors-Locked-2-E" class="st2" d="M752.1,740.7v-1.5s-.2,0-.2,0h0c0,.1-1.5.1-1.5.1h0c0-.1-2.5-.1-2.5-.1h0c0,.1-1.5.1-1.5.1h0c0-.1-.4-.1-.4-.1v1.5s3.1,0,3.1,0h3.1ZM745.7,740.7v-1.5s-.3,0-.3,0h0c0,.1-1.5.1-1.5.1h0c0,0,0-.1,0-.1h-4.3s0,1.5,0,1.5h3.1s3.1,0,3.1,0ZM813.6,740.5h0c0-.1.7-.1.7-.1h.7s0,.1,0,.1h.6s0-3.1,0-3.1h2.8s0-4,0-4h-3.4s0,.1,0,.1h-1.5,0c0,0,0-.1,0-.1h-1.2s0,7.1,0,7.1h.6s.6,0,.6,0ZM811.5,740.5h.6v-7.1s-1.2,0-1.2,0h0c0,.1-1.5.1-1.5.1h0c0-.1-3.4-.1-3.4-.1v4s2.8,0,2.8,0v3.1s.6,0,.6,0h0c0-.1.7-.1.7-.1h.7s0,0,0,0h0c0,0,.6,0,.6,0ZM751.8,739h1.7s1.7,0,1.7,0v-7.1s-1.2,0-1.2,0h0c0,.1-1.5.1-1.5.1h0c0-.1-.3-.1-.3-.1h-.3s0,.6,0,.6v.6s0,0,0,0h0s0,1.5,0,1.5h-.1s0,.5,0,.5h-2.8s0,4,0,4h.6s.6,0,.6,0h0c0,0,0-.1,0-.1h1.5,0c0,0,0,.1,0,.1ZM748.9,739v-4s-2.8,0-2.8,0v-1.5c0-.8,0-1.5,0-1.5,0,0-.1,0-.3,0h-.3s0,.1,0,.1h-.7s-.7,0-.7,0h0c0-.1-1.2-.1-1.2-.1v7.1s1.2,0,1.2,0h0c0-.1,1.5-.1,1.5-.1h0c0,.1,1,.1,1,.1h0c0-.1,1.5-.1,1.5-.1h0c0,.1.5.1.5.1h.5ZM751.8,734.7v-.2s-.1,0-.1,0v-1.5h0s0,0,0,0v-1.1s-2.6,0-2.6,0v2.8s1.3,0,1.3,0h1.3ZM813.6,733.1h0c0-.1.7-.1.7-.1h.7s0,.1,0,.1h.2s0-1.5,0-1.5h-6.1s0,1.5,0,1.5h.1s.1,0,.1,0h0c0,0,0-.1,0-.1h1.5,0c0,0,0,.1,0,.1h1.4s1.4,0,1.4,0Z"/>
        <path id="Floors-Locked-2-W" class="st2" d="M936.5,740.7v-1.5s-.2,0-.2,0h0c0,.1-1.5.1-1.5.1h0c0-.1-1.2-.1-1.2-.1-.7,0-1.2,0-1.2,0h0c0,0,0,.1,0,.1h-1.5,0c0,0,0-.1,0-.1h-.2s-.2,0-.2,0v1.5s3.1,0,3.1,0h3.1ZM930.1,740.7v-1.5s-.3,0-.3,0h0c0,.1-1.5.1-1.5.1h0c0-.1-2.5-.1-2.5-.1h0c0,.1-1.5.1-1.5.1h0c0-.1-.4-.1-.4-.1v1.5s3.1,0,3.1,0h3.1ZM873.7,740.5h0c0-.1,1.5-.1,1.5-.1h0c0,.1,1.2.1,1.2.1v-7.1s-3.5,0-3.5,0h0c0,0,0,.1,0,.1h-1.5,0c0-.1-.6-.1-.6-.1h-.6v4s2.8,0,2.8,0v1.5s0,1.5,0,1.5h.3s.3,0,.3,0ZM866.6,740.5h.3s.3,0,.3,0v-.5s0-.5,0-.5h-.1v-1.5h.1s0-.5,0-.5h2.8s0-4,0-4h-1s0,.1,0,.1h-1.5,0c0-.1-3.6-.1-3.6-.1v3.6s0,3.6,0,3.6h.6s.6,0,.6,0h0c0-.1.7-.1.7-.1h.7s0,0,0,0h0ZM870.1,740.5v-2.8s-2.6,0-2.6,0v.3s.1,0,.1,0v1.5h-.1s0,.5,0,.5v.5s1.3,0,1.3,0h1.3ZM936.2,739h1.7s1.7,0,1.7,0v-4s-2.8,0-2.8,0v-.5s-.1,0-.1,0v-.7s0-.7,0-.7h.1s0-1.1,0-1.1h-.6s0,.1,0,.1h-.7s-.7,0-.7,0h0c0-.1-1.2-.1-1.2-.1v7.1s1.2,0,1.2,0h0c0-.1,1.5-.1,1.5-.1h0c0,0,0,.1,0,.1ZM930.8,739h0c0,0,0-.1,0-.1h1.5,0c0,.1,1,.1,1,.1v-7.1s-1.3,0-1.3,0h0c0,0,0,.1,0,.1h-.7s-.7,0-.7,0h0c0-.1-.6-.1-.6-.1v3.1h-2.9s0,4,0,4h1.2s0-.1,0-.1h1.5,0c0,.1.5.1.5.1h.5ZM926.9,739v-4s-1.4,0-1.4,0h-1.4s0-.2,0-.2v-.2s0,0,0,0h0s0-.7,0-.7v-.7s.1,0,.1,0v-1.1s-.7,0-.7,0h0c0,0,0,.1,0,.1h-1.5,0c0,0,0-.1,0-.1h-.6s-.6,0-.6,0v3.6s0,3.6,0,3.6h3.6s0-.1,0-.1h1.5,0c0,.1.5.1.5.1h.5ZM939.7,734.7v-1.4c0-.8,0-1.4,0-1.4,0,0-.6,0-1.3,0h-1.3s0,1.1,0,1.1h.1v.7s0,.7,0,.7h-.1s0,.1,0,.1h0c0,.1,1.3.1,1.3.1h1.3ZM926.9,734.7v-1.4c0-.8,0-1.4,0-1.4,0,0-.6,0-1.3,0h-1.3s0,1.1,0,1.1h.1v1.5h-.1s0,.2,0,.2h1.3s1.3,0,1.3,0ZM873,733.1h.1s.1,0,.1,0v-1.5s-6.1,0-6.1,0v1.5s.4,0,.4,0h0c0-.1,1.5-.1,1.5-.1h0c0,.1,1.2.1,1.2.1h1.2s0,0,0,0h0c0,0,.7,0,.7,0h.7,0c0,0,0,.1,0,.1ZM930.4,728.4v-3.1h1.4s1.4,0,1.4,0v-2s0-2,0-2h-3.5s0,.1,0,.1h-1.5,0c0-.1-1.2-.1-1.2-.1v7.1s1.4,0,1.4,0h0c0-.1,1.5-.1,1.5-.1h0c0,.1.2.1.2.1h.2ZM926.9,728.4v-7.1s-6.1,0-6.1,0v2s0,2,0,2h1.4s1.4,0,1.4,0v3.1s.5,0,.5,0h0c0-.1,1.5-.1,1.5-.1h0c0,.1.6.1.6.1h.6ZM917.9,728.4h1.3s1.3,0,1.3,0v-1.4c0-.8,0-1.4,0-1.4h0s-2.6,0-2.6,0h0c0,.1,0,.2,0,.2h.1v1.5h-.1s0,.6,0,.6v.6ZM917.7,728.4v-1.1s-.1,0-.1,0v-1.5h.1s0-.5,0-.5h2.8s0-4,0-4h-3.5s0,.1,0,.1h-1.5,0c0,0,0-.1,0-.1h-1.1s0,7.1,0,7.1h1.3s0-.1,0-.1h1.5,0c0,.1.2.1.2.1h.2ZM929.8,721.1h.1s.1,0,.1,0v-1.5s-3.1,0-3.1,0h-3.1s0,.8,0,.8v.8s4.4,0,4.4,0h0c0-.1,1.5-.1,1.5-.1h0c0,0,0,.1,0,.1ZM915.5,721.1h0c0-.1.7-.1.7-.1h.7s0,.1,0,.1h.4s0-1.5,0-1.5h-6.1s0,1.5,0,1.5h2.1s2.1,0,2.1,0Z"/>
      </g>
    </g>
  </g>
</svg>