<svg xmlns="http://www.w3.org/2000/svg" width="605.324" height="831.578" viewBox="0 0 605.324 831.577"><g xmlns="http://www.w3.org/2000/svg" class="shadow"><path fill="#987f00" d="M329.761 467.92v.815h-1.793v-3.108h1.793Zm3.097-.734v1.549h-1.793v-3.097h1.793Zm128.933-16.055v1.467h-2.119v-1.63h.978v-1.304h1.141Zm-132.03-49.308v1.549h-1.793v-3.097h1.793Zm3.097 0v1.549h-1.793v-3.097h1.793Zm79.711-12.579-.616 1.512-1.657-.672-1.36-.55.61-1.511.611-1.511 1.511.61 1.512.611Zm-80.037-16.353v1.467h-3.097v-1.467h1.467v-1.467h1.63ZM143.818 262.417v2.123h-1.304v1.467h-1.467v-4.405h2.771Zm-86.934-14.922-.324.658-.731-.36-.732-.36-.323.659-.324.658-.805-.396-.804-.396.648-1.316.647-1.316 1.536.755 1.536.756Zm271.736 62.152v.815h-1.467v-1.63h1.467Zm21.842 0v.815h-1.467v-1.63h1.467Zm-25.428-.734v1.549h-1.467v-3.097h1.467Zm21.842 0v1.549h-1.467v-3.097h1.467Z"/><g fill="#666"><path d="M332.914 470.147v1.385h-4.89v-2.771h4.89Zm132.711 13.524.028-18.918h-.657v-.372h.657v-4.399h-6.636v-5.991h-.623v-.432h.651v-.978h.653v-1.631h.978v-1.304h-4.565v3.913h.637v.428h-.637v8.815l6.506.015v1.564h.509v.372h-.509v18.918Z"/><path d="M463.121 451.113v1.468h-1.304v-2.935h1.304Zm-136.238-48.536v1.467h.327v-.652h7.987V406h-7.987v-.652h-.327v58.197h.327v-.49h7.987v2.608h-7.987v-.489h-.327v.489h-2.772v-24.941h-.325v4.076h-4.076v2.771h-6.031v-5.216h7.825v-1.794h-.327v1.468h-7.498v-3.75h7.498v.978h.327v-2.119h-.327v.816h-7.498v-7.5h7.498v5.38h.327v-1.957h2.282v5.544h.325v-38.31h2.772Z"/><path d="M329.655 401.109v.653h-1.631v-1.304h1.631Zm-.591-26.408h.264v3.261h.327v-3.261h5.542v9.945h-3.586v-2.12h-.326v2.12h-.198l-.001.325h4.11v12.226h-4.075v.327h1.793v2.771h-4.891v-2.771h1.794v-.327h-2.608v-12.226h2.608v-.325h-2.608v-2.12h-.326v2.12h-12.715v-3.913h3.423v-1.793h2.772v-.327h-3.099v1.794h-1.629v-5.706h7.173v3.912h-1.467v.327h5.542v2.445h.326v-4.401h-.326v1.629h-3.75v-3.912h3.75v1.142h.326v-1.142h.308l.13-.28.154.28h.304l.149-.28.182.28h.318l.163-.28Zm1.894-2.526v.734h-1.467v1.467h-2.281v-2.934h3.748Zm4.239.734v1.467h-2.608v-2.934h2.608ZM143.818 262.221v.653h-2.772v-1.305h2.772Z"/><path d="M153.273 262.058v5.706h-5.054v-6.032h-.326v6.032h-6.847v-1.793h1.468v-1.467h1.629v-3.261h-3.097v-4.891h6.847v2.61h.326v-2.61h5.054Zm-99.728-15.412-.646 1.316-.805-.395-.804-.396.646-1.317.648-1.317.805.396.804.396Z"/><path d="m58.519 249.093-.648 1.316-.219-.107-.22-.109-.072.147-.072.146.22.108.219.108-.143.292-.145.293.147.072.146.071.144-.292.144-.292 3.29 1.619 3.291 1.62-1.259 2.558-1.259 2.561-3.291-1.619-3.292-1.62.865-1.756.863-1.754-.147-.072-.145-.072-1.656 3.364-1.655 3.364-1.17-.576-1.17-.576 1.367-2.779 1.368-2.779-.294-.143-.292-.144-.072.145a.164.164 0 0 0 .075.219l.146.072-1.296 2.632-1.296 2.634-1.974-.972-1.975-.972 1.296-2.632 1.296-2.634 1.316.648 1.317.648.072-.147.072-.145-.294-.144-.292-.145.217-.439.215-.439-.146-.07-.146-.073-.216.439-.216.439-.878-.433-.878-.431.685-1.389.683-1.39.878.431.877.432-.215.439-.217.439.147.072.146.072.216-.439.216-.439 1.536.756 1.536.755.072-.145.072-.147-1.025-.503-1.023-.504.324-.658.324-.659.658.324.657.324.324-.658.324-.659 1.097.541 1.098.539Zm267.222 79.266V315.48h6.522v-1.303h-.978v-.326h1.467v-3.922h-.204v-.335l.204-.01v-1.276h.325v5.542h2.934v-7.009h-2.934v.163l-.001.162h-.325v-.651h3.26v-.278h.265v7.613h4.564v-8.965h-2.71v-.327h5.217v-.489h.326v.489h2.608v.327h-.814v2.445h3.585v1.467h1.468v-3.912h-.816v-.327h7.173v-1.793h-13.204v.489h-.326v-.489h-3.424v-.325h3.261v-7.011h-4.564v7.011h.329l-.004.162v.163h-.978v-.163l-.001-.162h.327v-7.011h-3.75v5.869h2.12l.019.611-.011 1.412h-.257v-1.712h-1.886v2.943h1.886v-.415h.233l-.014.421h.518v.326l-.162.001h-.713v.309h-.266v-.309h-3.423v-.326h1.631v-9.129h-5.217v9.129h2.608l.004.321-.329.011-.002.41-.33.003-.022-.419h-1.929v1.467h1.956v-.164l-.001-.162h.328v2.119h-.327v-1.467h-1.956v2.934h1.956v-.652h.327v.652h.324l.001.164v.162h-2.608v3.913h1.305v.326h-2.446v-.326h.815v-3.424h-5.053v3.424h.815v.326h-.815v14.182Z"/></g></g></svg>