<svg xmlns="http://www.w3.org/2000/svg" width="605.324" height="831.578" viewBox="0 0 605.324 831.577"><g xmlns="http://www.w3.org/2000/svg" class="shadow" data-keep-with-group="Ground_Level"><path fill="#987f00" d="M223.648 682.672v1.548h-3.26v-3.096h3.26Zm101.223-28.525v1.06h-1.141v.489h-1.467v-2.608h2.608Zm-88.02-4.645v2.771h-3.586v-5.542h3.586Zm2.899-38.067-.496 2.809-2.086-.368-2.087-.368.495-2.809.496-2.809 2.086.368 2.087.368Zm-112.328-12.794-.227 1.285 1.124.198 1.123.198-.212 1.204-.212 1.204-2.167-.382-2.167-.382.438-2.489.439-2.488 1.044.184 1.043.184Zm126.301-7.093-4.852-.943.739-4.856 4.971.908Zm-77.603-21.057 1.519 2.05-1.587 1.105-1.586 1.105-1.523-1.899-.914-1.208 1.709-1.249 1.561-1.088Zm27.166-11.578-.432 2.347-4.654-.831.408-2.306.433-2.347 2.338.395 2.339.395Zm205.204-9.412v.734h-.489v1.141h-2.119v-2.608h2.608Zm-238.006-1.045-.299 1.691-1.637-.335-1.637-.336.085-.771.086-.771.811.143.812.143.155-.883.156-.883.883.156.883.155Zm-57.318-10.726-.128.722.723.127.722.128-.141.802-.142.803-1.445-.255-1.444-.255.268-1.525.269-1.525.723.128.722.127Zm289.13-44.464v1.06h-2.282v-2.119h2.282ZM237.951 481l-.184 1.044-1.846-.326-1.846-.325.184-1.044.184-1.043 1.846.325 1.846.326Zm294.419-6.886v2.445h-4.238v-2.608h.489v-2.282h3.749Zm-202.609-6.194v.815h-1.793v-3.108h1.793Zm-156.952.564-.354 2.006-1.765-.311-1.766-.311.184-1.044.184-1.043.802.141.803.142.17-.963.17-.963.963.169.963.17Zm160.049-1.298v1.549h-1.793v-3.097h1.793Zm174.736-3.83v1.956h-1.63v-2.282h-1.467v-1.63h3.097Zm-45.803-12.225v1.467h-2.119v-1.63h.978v-1.304h1.141Zm89.487-5.216v1.304h-.978v2.119h-3.586v-4.727h4.564Zm-384.009-9.87-.24 1.365 1.445.255 1.444.254-.184 1.044-.184 1.043-2.568-.453-2.568-.453.424-2.408.425-2.407 1.123.198 1.124.198Zm12.177 3.223-.425 2.408-2.568-.453-2.569-.453.184-1.043.184-1.044 1.445.255 1.445.255.24-1.364.241-1.365 1.124.198 1.123.198Zm315.434-9.572v1.549h-3.586v-1.63h1.793v-1.467h1.793Zm-22.331-13.366v1.386h-1.63v-1.304h-.978v-1.467h2.608Zm-275.862-12.217-.416 2.354-2.438-.43-2.438-.43.415-2.354.415-2.354 2.438.43 2.439.429Zm200.609-.068-.684 1.667-1.65-.676-1.36-.55.641-1.587.641-1.587 1.512.611 1.511.61Zm-67.535-2.222v1.549h-1.793v-3.097h1.793Zm3.097 0v1.549h-1.793v-3.097h1.793Zm53.487-.823-.61 1.512-1.663-.672-1.206-.482.547-1.367.672-1.662 1.435.58 1.436.58Zm-20.235-2.437v1.549h-3.097v-1.63l.002-1.466 1.465-.001h1.63Zm46.459-9.319-.616 1.512-1.657-.672-1.36-.55.61-1.511.611-1.511 1.511.61 1.512.611Zm-179.018-7.625-.421 2.387-2.557-.451-2.556-.451.42-2.386.421-2.386 2.557.45 2.556.451Zm261.492-2.779v1.549h-1.956v-1.467h-1.793v-1.63h3.749Zm-162.511-5.949v1.467h-3.097v-1.467h1.467v-1.467h1.63Zm169.031-16.219v2.96h-1.63v-3.367h-3.097v-1.304h4.727Zm-34.27-9.012-.108.22.66.322.659.321-.286.586-.286.586-1.318-.643-1.319-.643.393-.806.393-.805.66.321.659.322Zm-78.363-36.791v.734h1.467v1.63H387.3v-3.097h1.63Zm29.503 0v.734h1.467v1.63h-3.097v-3.097h1.63Zm-89.813-1.222v.815h-1.467v-1.63h1.467Zm21.842 0v.815h-1.467v-1.63h1.467Zm-25.428-.734v1.549h-1.467v-3.097h1.467Zm21.842 0v1.549h-1.467v-3.097h1.467Zm126.814-3.586v1.549h-1.467v-3.097h1.467Zm-371.151-.163v1.549h-1.467v-3.097h1.467Zm-64.803-12.125-.684 1.389-1.097-.539-1.097-.54.684-1.389.684-1.39 1.097.54 1.097.54Zm129.84-9.228v.408h-2.119v-.815h2.119Zm-81.864 2.251a6.266 6.266 0 0 1-.624 2.136c-.315.633-.762 1.206-1.265 1.703-.457.452-.943.961-1.563 1.131-.811.222-1.703-.003-2.513-.23-.68-.192-1.902-.936-1.902-.936l.468-.951.468-.95s1.483.826 2.302.86c.365.015 1.055-.298 1.055-.298l-4.363-1.906.841-1.644.826-1.69 4.135 2.314s-.115-.814-.353-1.127c-.497-.653-2.068-1.336-2.068-1.336l.432-.877.431-.878s1.327.526 1.902.936c.618.441 1.297.916 1.617 1.604.302.649.247 1.427.174 2.139Zm49.427-15.535v1.467h-3.097v-1.467h1.467v-1.467h1.63Zm8.679-8.11v2.123h-1.304v1.467h-1.467v-4.405h2.771Zm-37.355.239-.72 1.463-1.608-.792-1.609-.791.36-.732.36-.731.804.396.804.396.36-.732.36-.731.804.396.805.396Zm46.769-1.828v1.223h-1.304v-2.445h1.304Zm230.319-1.956v1.549h-2.608v-1.467h-2.445v-1.63h5.053Zm-195.437-1.059v.815h-1.304v1.467h-1.467v-3.097h2.771Zm9.617.733v1.549h-1.467v-1.467h-1.304v-1.63h2.771ZM56.884 247.495l-.324.658-.731-.36-.732-.36-.323.659-.324.658-.805-.396-.804-.396.648-1.316.647-1.316 1.536.755 1.536.756Zm335.469-1.663v1.549h-3.097v-1.467h1.467v-1.63h1.63Zm102.527-6.438v1.304h-2.934v-1.467h1.467v-1.141h1.467Zm-317.524-.245v1.386h-2.934v-1.467h1.304v-1.304h1.63Zm-65.246-1.584-1.583 3.218-2.414-1.188-2.413-1.187.053-.111.052-.11 1.181-1.012 1.182-1.013.315.282c.106.093.197.205.316.281.138.088.296.138.449.195.129.048.257.119.395.123.159.004.316-.055.464-.115.147-.06.3-.127.41-.241.173-.18.238-.439.352-.661.121-.236.352-.715.352-.715l-1.17-.576-1.17-.575.431-.878.598-1.099 1.975.971 1.974.972Zm25.229-3.531 2.084 1.428-.768 1.232-.831 1.233-1.954-1.163-1.89-1.163.839-1.597.694-1.128Zm253.547-4.176v.734h-1.956v-1.467h1.956Zm-49.063-1.385v2.725h-1.63v1.024H338.4v-5.053h3.423Zm41.565-9.373v1.712h-5.053v-1.793h2.445v-1.63h2.608Zm-36.349-19.588v1.549h-3.097v-1.63h1.467v-1.467h1.63Zm146.211-9.915v1.549h-3.097v-1.63h1.467v-1.467h1.63Zm-59.821-23.146V168h-1.63v-1.467h-1.467v-1.63h3.097Zm111.003-6.194v.734h1.467v1.63h-3.097v-3.097h1.63Zm-61.94-24.939v.734h1.467v1.63h-3.097v-3.097h1.63Zm59.984.815v1.549h-3.097v-1.63h1.467v-1.467h1.63ZM420.79 79.799l.489.847-1.624.937-1.623.937-.489-.847-.489-.847 1.623-.937 1.624-.937ZM103.843 69.792v1.549h-1.467v-1.467h-1.467v-1.63h2.934Zm8.639-23.227v2.282h-1.304v-4.564h1.304Zm117.002 29.596v-3.763h-3.878v1.651h2.112v2.112Z"/><g fill="#666"><path d="m60.239 418.834.099-.494 1.727.328 1.993-10.504-1.601-.304.106-.526-1.989-.402-.111.55-1.921-.364-1.993 10.504 1.795.34-.095.47Zm294.226 287.562v3.423h-7.173v-6.846h7.173Zm-130.977-21.052v1.141h-2.934v-2.282h2.934Zm-.653-8.193v.163h.653v3.792h-2.934v-3.792h.652v-.326h1.629Zm191.294-3.521v2.608h-2.446v.326h2.446v1.63h-6.847v-1.63h2.445v-.326h-2.445v-5.216h6.847Zm-145.916-9.047v.244h5.983v5.407h.538v1.603h-.538v1.956h-12.992v-8.966h5.38v-.489h1.629Zm84.418-13.328 1.345.055v1.617h.489v.652h-.489v1.304h.489v.652h-.489v1.305h.489v.652h-.489v1.304h.489v.652h-.489v1.304h.489v.652h-.489v1.304h.489v.652h-.489v1.304h.489v.652h-.489v1.304h.489v.652h-.489v1.305h.489v.652h-.489v1.304h.489v.652h-.489V672h-9.781v.326h9.781v2.282h.489v2.934h-.489v2.119h-23.474v-7.987h-9.129v-1.956h-.325v-2.935h.325v-1.956h8.966v-.326h-8.966v-1.141h-.325v-.652h.325v-1.304h-.325v-.652h.325v-1.304h-.325v-.652h.325v-1.304h-.325v-.652h.325v-1.305h-.325v-.652h.325v-1.304h-.325v-.652h.325v-1.793h4.565v5.542h4.727v-5.542l10.311.033c5.671.018 10.916.058 11.655.088Zm-30.28 3.139v1.304h1.467v-.489h1.142v-2.119h-2.609Zm119.653-2.2v3.178h3.097v1.141h4.076v-7.172h5.053v7.335h3.75v-7.498h10.759v22.985h-8.64v.326h2.608v7.825h-14.672v6.031h-5.379v-6.194h-5.705v-9.129h-.326v-.652h.326v-.652h-.326v-.618l.258-.098.258-.099h9.264v-.326h-9.454v-2.12h-.326v-3.097h.326v-2.282h9.454v-.326h-9.315l-.232-.233c-.128-.128-.233-.348-.233-.489v-.256h.326v-1.304h-.326v-.652h.326v-1.305h-.326v-.652h.326v-1.304h-.326v-.652h.326v-1.304h-.326v-.652h.326v-1.304h-.326v-.652h.326v-.978h5.053Zm-208.659-3.042v2.608h-2.119v-5.216h2.119Zm20.377-4.483v2.527h-4.728v6.357h.327v-6.031h4.401v7.824h-4.401v-.652h-.327v.652h-10.106v-3.688l-.345-.015-.004.148-1.607.008v-5.255h1.63v3.586h.326v-7.988h14.834Zm-12.115-35.696c-.011.09-.217 1.358-.458 2.818l-.439 2.654-.765-.099-.767-.098.032-.279c.079-.7.835-4.335 1.089-5.244l.05-.178.64.131.638.13Z"/><path d="m236.801 617.874.296-1.676.295-1.676-3.649-.656c-2.007-.36-3.678-.698-3.714-.75-.058-.083.166-1.762.323-2.414l.061-.252.231.041.231.041-.136.734c-.074.405-.157.899-.183 1.099l-.049.364 2.31.407 2.309.407.481-2.812.479-2.812-1.007-.19c-.554-.105-1.477-.272-2.051-.374a58.913 58.913 0 0 0-1.35-.226l-.305-.042-.083.807-.085.807-.183.074-.183.073-.074-.105c-.067-.095.087-1.199.273-1.962l.078-.317 1.819.328 1.819.328.24-1.621.278-1.892.038-.273-.513-.142-.511-.143-.003-.248-.003-.249 11.091 1.984 11.091 1.984.301-1.203.405.061.199-.936.237-.937-.446-.139.144-.84.066-.372-17.738-3.139-17.737-3.14-.033.131c-.018.071-.186.996-.373 2.056a126.035 126.035 0 0 0-.352 2.051l-.011.124 5.533.983 5.534.983.082.117.083.119-.126.141-.126.142-2.626-.492-2.625-.491-.489 3.142c-.126.811-.325 2.072-.509 3.241l-.583-.092 1.054-6.353-9.227-1.531-2.297 13.847 9.227 1.53.969-5.842.597.094-.314 2.005-.593 3.757.082.117.081.118 5.975 1.051Zm201.78-19.231v3.423h-7.009v-6.846h7.009ZM327.73 581.608v2.527h.327v-.978h1.63v7.661h1.793v2.283h4.239v-2.283h4.564v2.934h.815v-.325h-.489v-2.609h9.455v1.142h.489v.652h-.489v1.304h.489v.652h-.489v1.304h.489v.652h-.489v1.305h-7.009v-4.402h-.816v.325h.489v4.402h7.336v.653h.489v.651h-.489v1.305h.489v.652h-.489v1.304h.489v.652h-.489v1.304h.489v.652h-.489v.815h.489v2.935h-.489v1.303h.489v.653h-.489v1.303h.489v.653h-.489v.978h-4.075v-8.64h-1.631v.326h1.304v3.424h-3.585v-3.424h1.14v-.326h-.651v-2.608h-4.891v2.608h-1.631v-2.608h-4.89v2.608h-1.141v1.304h.326v-.978h11.411v6.194h.327v-2.445h3.585v4.565h-3.585v-.815h-.327v.815h-9.618v-5.217h-1.793v-.815h-.326v.815h-1.956v-4.89h-.327v4.89h-6.357V605h-.325v-.651h.325v-.971h-.325v-.675h.312l.013-.637h6.357v.489h.327v-.489h2.282v-.978h2.608v-.325h-2.934v.978h-8.64v-1.956h-.325v-4.402h.325v-1.793h8.966v1.141h2.608v-.326h-2.282v-1.142h-2.608v-.814h-.327v.814h-6.357v-6.846h6.357v4.728h.327v-5.706h-.327v.653h-6.357v-1.142h-.325v-.652h.325v-1.304h-.325v-.652h.325v-1.305h-.325v-.651h.325v-1.305h6.357Zm-78.925-11.3-.074.272 1.276.239c.648.121 2.557.451 4.243.742l3.065.528-1.244 6.987-1.245 6.987-.243-.028c-.135-.016-1.23-.211-2.436-.435l-2.277-.446-.046.187-.075.247.179.045c.147.038 1.245.33 2.477.56l2.24.417-.014.204c-.009.113-.054.477-.102.811l-.087.605-.702-.099-.7-.1-.235-.101-.079.328-.18.714-.181.713-.835-.173-.895-.134-.161.635c-.057.264-.131.569-.164.681l-.061.202-.356-.095a6.132 6.132 0 0 0-.721-.133l-.366-.038-.04.227-.041.228 2.437.447c2.872.528 2.854.369 1.06 8.886l-.067.32-5.574-1.012a808.763 808.763 0 0 1-5.732-1.053l-.159-.04.229-1.203.236-1.408 4.409.796 4.168.765.056-.323.057-.323-1.323-.244c-.727-.135-2.639-.49-4.248-.791l-3.025-.585.135-.805.166-.944-8.749-1.506-8.573-1.449 1.681-9.403c.926-5.173 1.72-9.431 1.768-9.465.046-.033 1.602.186 3.454.487l3.368.545.347.091.052-.25.365-2.211.366-2.213 1.626.315 1.665.316.083-.269.074-.277 3.127.547 3.078.539-.085.449.216.041.302.058.113-.417 1.477.258 1.574.29Zm275.032-3.144v.18h6.847v55.262h-11.41v.326h2.607v7.336h-2.608v.326h1.304v4.075h.815v-.326h-.489v-3.749h.978v12.878h-10.107v-12.878h4.728v-.326h-3.097v-4.564h.489v-2.772h2.608v-.326h-.872c-.48 0-1.433-.047-2.12-.105l-1.246-.105v-2.561h-.327v-45.352l.259-1.001.258-1.003.48-.896a16.996 16.996 0 0 1 1.043-1.664l.561-.767 2.06-1.025 2.061-1.027 2.59-.058 2.588-.057Zm-348.668 43.013.069-.336c.134-.663.571-2.238.672-2.427l.104-.193-.477-.321c-.262-.177-1.089-.629-1.836-1.006l-1.358-.684-1.086-.159-1.084-.159-.061-.151-.06-.151.138-.137.137-.137.882.159.882.16.125-.38c1.084-1.64 2.038-3.392 3.057-5.113 1.054-1.779 1.932-3.325 1.952-3.436l.035-.2-.457.011c-.449.009-1.36-.09-5.399-.593l-2.025-.253-.15.099-.149.097-.339 1.579a1497.279 1497.279 0 0 1-1.51 6.917c-.01.044-.026.178-.035.296l-.02.217.771.088.771.087-.06.108a1.025 1.025 0 0 0-.089.274l-.03.165-14.713-2.696-16.836-3.083-2.125-.388.017-.26c.024-.348.225-1.862.37-2.794l.119-.754-.303-.158-.303-.159.028-.157.028-.159.479-.077.481-.079.953-5.537.954-5.537.111.02c.063.011.184.143.269.293l.155.274-.157.354-.159.355 4.684.87a3318.27 3318.27 0 0 1 6.944 1.301l2.263.428.097-.683.097-.684.223-.044.224-.042.05.256.05.257-.132.287-.132.288.093.232.093.232 2.012.39 2.011.389.058-.264a722.33 722.33 0 0 0 .942-5.197l.887-4.935.198.036.198.034.027.213c.014.116-.927 5.574-2.092 12.128l-2.119 11.917.33.077a74.597 74.597 0 0 0 1.61.325l1.672.307.75.219.095-.767c.052-.42.149-.883.215-1.026l.12-.26.195.117.196.118-.159.667-.158.667.087.271.087.271 3.46.634 3.458.634.067-.268c.036-.147.13-.48.209-.739.078-.259.281-1.126.45-1.927l.308-1.455-2.007-.386c-2.417-.465-4.796-.899-5.157-.938l-.263-.029-.102.809-.103.809-.22-.038-.22-.039.008-.205c.005-.113.153-1.055.327-2.094l.317-1.889.275.047.275.049-.207.983-.206.983 3.725.718 3.724.719.061-.449c.033-.248.248-1.291.479-2.319l.421-1.868-.988-1.377a240.764 240.764 0 0 0-1.627-2.241l-.64-.863-1.796-.358-1.796-.359-.087.363c-.046.201-.278 1.41-.514 2.689l-.429 2.324-.241-.043-.241-.041 1.978-11.223 1.979-11.222.483.087-.096.643-.152.714.098.087c.054.047.798.225 1.657.393l1.558.307.617.816c.907 1.2 3.216 4.314 4.531 6.11 1.397 1.906.934 1.909 3.654-.018 1.262-.892 3.741-2.648 5.512-3.902 3.836-2.717 3.651-1.913 1.245-5.407-2.906-4.22-2.918-4.081-2.918-4.081s-.702.523-1.149.861c-.446.337-1.18.9-1.63 1.248l-.819.635.295.459a58.687 58.687 0 0 0 .871 1.291l.579.832.082.144-.36.318-.232.125-.371-.475.167-.113-.326-.468c-.179-.255-.455-.631-.455-.631l-3.341 2.296.368.5.46.584 1.626-1.136.539-.358.198.271.099.214-1.257.834c-1.529 1.016-1.298 1.07-2.51-.587a740.565 740.565 0 0 0-1.964-2.664l-.958-1.285-.434-.085a290.75 290.75 0 0 1-2.588-.552l-2.11-.45-.151.724-.105.741-.522-.095.042-.242.459-2.733c.254-1.503.51-2.789.515-2.881l.01-.175-1.935-.321a84.535 84.535 0 0 0-2.149-.335l-.259-.023-1.019 5.866-1.02 5.866-.234-.089-.232-.089.163-.921.162-.921-.237-.062a96.678 96.678 0 0 0-2.17-.444l-1.933-.38-.932 5.449-.932 5.448-.247-.094-.247-.094.88-5.14a620.539 620.539 0 0 0 .913-5.411l.033-.272-2.927-.539c-1.609-.297-4.674-.869-6.812-1.274l-3.887-.735-.159.355-.184 1.094-.17.38-.2-.119-.199-.12.136-.832c.073-.458.65-3.945 1.28-7.749.631-3.803 1.391-8.399 1.691-10.212l.544-3.297.226.039.227.04-.073.566c-.04.312-.406 2.566-.813 5.012l-.74 4.444.654.112c.36.064 3.679.705 7.375 1.426 7.105 1.386 15.109 2.861 15.392 2.835l.167-.015.401-2.452c.22-1.349.741-4.487 1.159-6.975l.76-4.524-11.772-2.077-11.771-2.076-.066.379-.067.379-.318-.087-.263-.032.103-.447.025-.282-.263-.051c-.108-.014-.359-.081-.563-.117l-.267-.048.028-.187.029-.165-.858-.146-1.02-.168-.047.187-.012.187-1.264-.23-1.31-.264.061-.204.04-.205-.744-.114c-.342-.044-.577-.12-.737-.142l-.37-.05-.033.201-.01.2-.612-.104-.765-.092-.074.378-.097.366-.216-.039-.261-.073.078-.342.044-.375-6.958-1.253c-3.79-.684-7.01-1.232-7.157-1.218l-.265.023-1.216 6.956-1.218 6.954 3.532.644c8.965 1.636 10.599 1.932 10.752 1.947l.162.014.528-3.124.529-3.125.237-.045.238-.046-.04.277c-.022.153-.302 1.889-.624 3.858l-.582 3.579-.116-.019c-.065-.012-.194-.201-.291-.42l-.173-.398-3.27-.609-6.966-1.301-3.699-.693-.166.066-.166.066-1.653 9.53-1.942 11.183-.306 1.85-.141.851 7.47 1.29 7.47 1.29-.06.424c-.033.232-.138.783-.233 1.22-.094.439-.288 1.386-.427 2.104l-.254 1.307-.135.095c-.073.051-.483.051-.909-.002a15.753 15.753 0 0 0-.868-.091c-.05.002-.278.958-.505 2.125-.229 1.166-.475 2.239-.549 2.386l-.134.265.733.13.733.13.075-.277c.066-.241.15-.594.474-1.985l.065-.279.25.044.248.044-.268 1.236-.268 1.235.53.051.528.052-.042.237-.041.237-.538.042-.538.042-.384 1.87-.383 1.868.443.1a94.858 94.858 0 0 0 .908.202l.615.101-.06.504-.06.46-.123.869-.184.703.992.23 1.218.214-.162 1.013-.181 1.211 1.931.368.175-.03.632-3.334a449.85 449.85 0 0 1 .854-4.397l.222-1.079-.399-.089a46.6 46.6 0 0 0-1.888-.324l-1.49-.233.044-.251.045-.25.766.115c.42.064 1.384.203 2.138.31l1.373.194.174.203.172.203-.246.208-.245.209-.41 2.179c-.225 1.198-.56 2.971-.746 3.939a87.857 87.857 0 0 0-.354 1.923l-.02.163 7.592 1.303c4.176.716 13.933 2.407 21.685 3.757Zm-39.934-28.005c-.221-.007-.518-.055-.933-.102l-1.339-.146.468-2.174.468-2.174.115-.081c.064-.044.676.011 1.362.124l1.246.203-.396 2.132c-.35 1.889-.326 2.237-.991 2.218Zm-.462-11.859-1.249-.139-1.25-.139-.028-.285c-.016-.158.082-.75.216-1.319s.335-1.445.449-1.949c.113-.504.245-.914.294-.914.048.001.651.08 1.34.177l1.252.177-.008.099c-.003.054-.166.994-.36 2.09l-.355 1.991-.15.105Z"/><path d="m175.351 569.276-3.378 2.404-1.055-1.448 3.305-2.405Zm165.095-21.167v.326h11.9v4.402h-8.802v4.237h-1.957v3.913h7.336v4.068l-3.545.044-3.546.044-.046 1.834-.047 1.834h8.325v11.575h.489v.651h-.489v.653h.489v.614l-.367.098-.367.099-4.85.001-4.849.002v.327h9.944v.978h.489v2.934h-.489v1.141H331.48V576.8h-9.916l-.258-.099-.258-.099v-.618h.325v-1.304h-.325v-.652h.325v-1.304h-.325v-.652h.325v-.816h8.803v-.325h-8.803v-1.956h-.325v-2.934h.325v-1.956h8.803v-.327h-8.803v-12.552h2.445v-2.771h12.064v-.653h.651v.653h1.305v-.653h.651v.653h1.305v-.653h.652Zm91.288-.082v.244h3.913v2.609h2.445v.652h.489v.652h-.489v1.304h.489v.652h-.489v1.304h.489v.652h-.489v1.305h.489v.651h-.489v1.305h.489v.651h-.489v1.305h.489v.652h-.489v1.304h.489v.652H428.8v14.998h-7.009v2.934h6.52v5.706h-6.52v2.77h-7.173v-.651h-2.935v.651h-6.195v-1.956h-.489v-2.934h.489v-2.119h6.195v.815h2.935v-.815h.651v-.326h-9.781v-15.813h4.402v-3.585h-6.194v-5.706h6.52v-3.097h-1.14v-2.445h-6.195v-4.077h.651v-.489h.653v.489h1.303v-.489h.653v.489h8.15v8.478h.327v-8.478h2.282v-.489h2.935v.489h2.118v8.478h.327v-8.478h.978v-.489h.651v.489h1.305v-.489h.652v.489h1.304v-.489h.652v.489h1.304v-.489h.652v.489h1.305v-.489h.651Zm-25.757 2.038v1.304h2.12v-1.141h.489v-1.468h-2.609Z"/><path d="m186.402 553.027-.019.183 6.108 1.079 5.778 1.052.083.208.083.208-.43 2.591c-.236 1.424-.412 2.722-.391 2.884l.04.293 1.573.234 1.244.207.042-.237.043-.238-.8-.161c-.439-.089-1.245-.221-1.388-.26l-.259-.069.167-1.087c.275-1.786.586-3.638.678-4.03l.087-.368.839.169.511.142-.164.753-.164.753.124.109c.067.061.511.187.985.283l.862.172-.168.901-.167.902.705.068.705.067-.256 1.336c-.339 1.773-.359 1.915-.335 2.368l.021.388.194-.029.196-.029.631-3.7.632-3.701.6.062c1.005.104 3.267.53 3.335.627.055.079-1.181 7.563-3.427 20.757-.704 4.143-.306 3.653-2.703 3.33l-1.98-.267.215-1.314c.118-.722.278-1.654.356-2.071l.14-.757-.144-.129-.144-.129-.115.08-.115.08-.35 2.065-.35 2.067-1.637-.26c-.9-.143-3.209-.503-5.132-.803l-3.494-.544-.565-.839c-.311-.461-1.92-2.809-3.574-5.219-4.2-6.113-6.376-9.423-6.911-10.513l-.168-.341-.184.032c-.102.017-1.172.677-2.378 1.465-1.206.789-2.32 1.481-2.475 1.538l-.282.104-3.158-.568c-1.738-.312-3.217-.62-3.288-.682l-.137-.025.578-3.434 1.164-6.852c.327-1.93.63-3.534.674-3.565.088-.062 8.426 1.246 12.795 2.007l3.001.502.051-.203.03-.203 1.022.168 1.032.211Zm-15.57-6.495-.065.373-.517-.12a9.471 9.471 0 0 0-.813-.157l-.346-.05-.085.433c-.047.242-.112.493-.157.691l-.118.508-.621-.118-.771-.11-.124.754-.165.784-4.147-.717-4.059-.715.155-.737.165-.806-.171-.029-.163-.032.128-.658c.062-.327.165-.851.165-.851l.311.056.151-.868 5.657.997 5.656.997Zm-50.598-9.341.265.1-.352 1.995-.352 1.996-1.086-.18c-.596-.098-1.772-.291-2.611-.441l-1.884-.351.094-.624c.053-.343.156-.697.164-.815l.011-.158-.448-.1c-.241-.055-.602-.082-.792-.13l-.345-.085.151-.843c.083-.463.217-1.027.299-1.252l.151-.411 3.385.633c1.696.316 3.35.509 3.35.666Zm320.14-38.965v4.891h-8.477v.326h-2.934v-.326h-9.128v-2.772h-5.217v-3.586h6.031v-.326h-6.031v-3.097h25.756Zm-40.59-4.808v.896h2.608v2.283h-3.586v.978h.325v-.653h3.261v4.89h-3.261v-3.097h-.325v.652h-3.913v3.75h-8.966v.326h-2.771v-.326h-8.966V492.52h20.703v3.913h1.304v-3.913h3.587Zm-59.175-6.766v.164h2.446v7.96l-.205.094-.204.096.204.095.205.095v.625h.325v-.652h7.499v7.988h-4.728v.326h-2.282v-.326h-5.216v-5.38h4.727v-.815h-.325v.489h-4.402v-2.282h2.934v-.326h-.489v-3.097h-2.12v-.489h-.325v.489h-4.89v.325h.625l.095.205.094.204.095-.204.096-.205h2.092v1.305h-2.119v-.163a.165.165 0 0 0-.164-.164h-.163v.979h.163a.165.165 0 0 0 .164-.163v-.163h2.119v1.176l-1.223-.061-1.223-.062v.414h-.651v.326h.651v7.662h-12.773l-1.152-.361-1.153-.362-.56-.367-.56-.368-.216.18-.217.18-.895-.594c-.89-.591-1.045-.804-.728-1l.166-.102-.421-.518a85.44 85.44 0 0 1-1.307-1.7l-.886-1.18v-8.317h7.987v.489h.327v-2.281h6.357v3.259h.325v-3.259h9.945v3.259h.325v-3.12l.234-.233.232-.233h1.165Zm-25.594 3.423v.164h1.956v.978h4.728v4.238h10.922v-.326h-1.303v-3.098h1.303v-.325h-3.913v-.489h-.325v3.912h-6.357v-4.89h-.327v.652h-4.401v-.978h-2.283Zm87.377-2.201v1.712h-.979v.327h.979v2.282h-3.424v-2.282h1.467v-.327h-1.467v-3.423h3.424Zm49.393-2.363v.163h.815v15.813h-3.26v-7.336h-.327v2.771h-1.14v.326h1.14v4.239H440.7v-4.89h4.565v.651h1.467v-.326h-1.142v-3.913h-.814v.327h.489v2.934H440.7v-2.934h2.934v-.327h-.814v-.489h-.327v.489H440.7v-2.118h1.793v.489h.327v-.489h4.401v-.327H440.7v-4.89h8.313v4.89h-.651v.327h.651v2.118h.327v-7.335h.815v-.325h1.63Zm-277.996-16.799-.362 2.006-.463-.082-.519-.092.147-.809c.38-2.105.418-3.158.598-3.161l.198-.001.382.067.38.067Zm60.378 12.647c.222-1.38.443-2.762.666-4.142l-1.114-.197c-.24 1.147-.517 2.289-.672 3.452-.03.266-.051.535-.076.803l1.176.208a2.664 2.664 0 0 1 .02-.124Zm-67.161-15.851 4.177.675-.119.831-.164 1.033-.474-.122c-.146-.038-.488-.037-.745-.09l-.384-.08-.153 1.091-.152 1.09-.376-.047a4.246 4.246 0 0 1-.593-.117c-.118-.039-.398-.057-.621-.041l-.362-.099-.414 2.333c-.217 1.211-.486 2.819-.622 3.568l-.249 1.364-2.244-.414-1.952-.346-.055.316-.042.187c-.258-.067-.83-.162-1.082-.217l.042-.261.036-.203-1.129-.197-1.129-.198.695-3.846.885-4.189.163-.679.27.024a64.603 64.603 0 0 1 1.963.282c.93.143 1.892.286 2.137.319l.445.059.084-.476.137-.626-.335-.071c-.463-.099-.405-.292-.548.021l-.123.269-1.656-.292-1.655-.292.193-.773c.118-.248-.013-.822.181-.851l.281-.041c1.905.38 3.788.759 5.689 1.106Zm73.62 24.704.225-.489c.169.103.341.006.512.109.307-1.742.614-3.285.92-5.028l.563.1-.899 5.093c.509.089 1.017.178 1.525.269a326.734 326.734 0 0 0 1.125-6.463c.007-.09.048-.186.033-.275-.387-.889-.741-1.792-1.185-2.655a4.324 4.324 0 0 1-.41-.925 4.137 4.137 0 0 0-.452-.842c-.146-.228-.276-.463-.411-.697-.306.006-1.194-.186-1.194-.186s-1.739-.199-2.47-.329l-.317.222c-.168 1.14-.373 2.277-.492 3.424-.008.182-.063.379.033.548.02.07.042.136.129.117.327.042.681.03.971.208.039.051.145.082.115.158l-1.14 6.407c.147.126.287.268.439.383l1.393.246c.065.186-.069.373-.004.559.251.044.701.088.951.133l.04-.086Zm288.102-17.416v1.141h-.49v2.609h-1.792v.325h6.031v.653h.326v1.141h-.326v.651h-5.38v.327h5.38v6.195h-8.15v-6.195h.652v-.327h-.652v-.651h-.326v-1.141h.326v-5.869h4.401Zm-195.781-2.69v1.385h-4.89v-2.77h4.89Zm-3.26-3.668v.652h-1.63v-1.303h1.63Z"/><path d="m234.533 486.048.752-3.719-2.341-.414c-.084.483-.17.966-.256 1.449-.156-.051-.313-.101-.469-.153a4197.11 4197.11 0 0 0 .611-3.468l-2.006-.352c.032-.193-.003-.389-.039-.579l1.999.256.632-3.586c.191-.123.427-.119.639-.072.094.001-.006.125-.003.183l-.239.848 5.392.951.692-3.928c-1.394-.217-2.786-.443-4.181-.656-.31-.035-.626-.105-.937-.047-.18.029-.297.196-.319.369-.062.403-.121.813-.276 1.193-.042.051-.051.169-.114.177-.078-.013-.3-.099-.378-.113-.024-.218.075-.363.062-.581l1.009-5.801a41.626 41.626 0 0 0-2.528-.47c-1.286-.207-2.839-.48-4.391-.754l-.217 2.134c-.142.082-.213.02-.355.101-.06-.094-.214-.041-.258-.138.114-.721.228-1.441.34-2.162a5357.22 5357.22 0 0 1-5.78-1.015c-.211.887-.349 1.789-.508 2.685-.038.216-.074.433-.175 1.025-.101.59-.183.984-.25 1.38-.032.191.018.412.189.523.264.176.587.225.89.297 1.074.217 2.153.403 3.229.607l1.44.266.388-2.416.543.097-.613 3.467c-.129.003-.341-.078-.47-.076-.019-.221.045-.359.028-.58l-4.88-.961-1.03.083c-.174 1.083-.332 2.17-.525 3.246-.051.346-.133.708-.03 1.053.093.303.388.476.672.573.538.181 1.104.26 1.662.356 1.099.176 2.197.351 3.296.532l.497-3.084c.165-.066.231-.001.396-.067.035.098.186.064.21.164-.126.77-.268 1.539-.381 2.312-.024.233-.076.492.049.708.136.201.402.211.62.247l.69.094c.053.166.108.331.162.496-.094.029-.193-.006-.285-.01-1.253-.164-2.507-.379-3.757-.591l-4.128-.712-.294 1.663a118.774 118.774 0 0 0 3.956.713l.395.052c.093-.203.087-.422.181-.625l.558.097-.213 1.207c-1.565-.24-3.115-.552-4.672-.841l-.299-.057c-.216 1.135-.452 2.269-.565 3.42-.001.117-.038.258.039.356.157.077.338.088.506.128 2.167.423 4.347.784 6.522 1.164l1.71.296c.131.186-.057.332.074.518.277.05.874.138 1.152.187.029-.16.058-.32.085-.481l3.027.534.399-1.684.498.017-.259 1.475.321.458 1.887.141.022-.105Zm-16.641-2.773.623-3.697c-.315-.116-.626-.246-.958-.311-.863-.208-1.746-.318-2.61-.518-.125-.031-.186-.025-.307-.071-.029-.061-.007-.164.01-.229a36.96 36.96 0 0 0 .145-.278c1.184.203 2.365.42 3.551.605.1.01.2.021.301.03.167-.902.337-1.804.505-2.707-.227.019-.667-.111-.893-.092-.103-.164.064-.223.088-.428.005-.083.098-.042.158-.061.259-.007.453.037.713.031l.291-1.753-2.399-.422-.422 1.625c.28.158.577.215.857.372-.015.085-.079.368-.094.453-.224.031-.413-.026-.636-.003l-2.988-.575c-.096.111-.215.213-.248.363-.174.555-.279 1.129-.375 1.7-.039.253-.033.359-.065.612.228-.03.523.12.752.089.023.173-.053.313-.03.486-.115.046-.328.027-.443.072-.311-.13-.695-.058-.915-.326-.043-.068.036-.258.01-.329l.89-5.05c-.276-.111-.551-.232-.846-.287-.624-.144-1.259-.218-1.892-.318-.145.644-.226 1.157-.372 1.801-.2.053-.423.015-.555-.108.095-.55.207-1.106.309-1.657.006-.067.065-.168-.047-.152a7985.44 7985.44 0 0 0-7.057-1.231c-.156.661-.27 1.332-.386 2.002-.194-.111-.381-.022-.537-.178l.291-1.665.187-.958c.063-.351.125-.701.186-1.054.163-.012.327-.025.489-.039.065.079.027.192.032.286-.026.31-.098.612-.147.917.205.091.401.201.624.236 1.439.31 2.894.526 4.344.771.29.047.578.096 1.59.26 1.013.164 2.089.401 3.178.554.175.018.353.06.529.034.075-.032.15-.062.223-.094l1.269-7.416c-2.863-.502-5.727-1.003-7.662-1.339-1.937-.335-2.16-.312-2.368-.421-.219.125-.24-.046-.459.079.017.234-.146.633-.131.868l-.59.008c.015-.357.11-.702.204-1.044a41.967 41.967 0 0 0-1.731-.405l-.699-.133.086-.548-1.272-.189-.104.55s-1.967-.339-2.869-.513c-.02.298-.097.529-.118.827-.092.098-.003.206-.093.303-.109-.064-.342-.074-.451-.14.039-.367.074-.735.15-1.098-3.753-.631-7.507-1.256-11.258-1.9l-.187 1.801a2.588 2.588 0 0 1-.533-.036c-.056-.074-.005-.106-.008-.193.036-.425.104-.848.155-1.272a2.64 2.64 0 0 0 .056-.408c-.151-.069-.37-.105-.527-.16l-8.862-1.468c-.085.643-.169 1.287-.255 1.93l-.434-.077c-.072-.128-.067-.276-.058-.419.028-.512.141-1.016.217-1.522-1.216-.195-2.434-.386-3.446-.56-1.011-.172-1.428-.295-1.846-.357-.063 0-.045.125-.075.175-.098.378-.15.766-.224 1.15-.167.94-.327 1.883-.491 2.824l-.52.07c-.032-.068-.127-.122-.09-.204l.744-4.119c-1.645-.282-3.291-.565-4.937-.846l-.459 2.839c-.233 1.433-.494 2.899-.728 4.368l-.065.45 4.458.743.487-.194c.121-.726.225-1.456.37-2.175.027-.037.001-.192.087-.154.057.024.183.002.195.059-.026.153-.055.305-.081.457l.314.056-.385 1.832.239.341 5.992 1.093.226-2.03c.118.021.235.042.351.061.065.129.149.252.201.382-.398 2.279-.794 4.559-1.19 6.838l.701.83 1.01.191c.15-.409.237-.822.316-1.252.087-.378.197-.753.228-1.137l1.121.198-.099.562-.482-.085-.241 1.364 1.365.241.34-1.927.561.099a651.87 651.87 0 0 0-.34 1.933c3.503.605 7.007 1.211 10.511 1.814.099-.611.233-1.333.333-1.943.11-.044.142.091.252.047.092.055.23.044.322.099l-.34 1.93 1.451.256c.104-.424.187-.983.291-1.407-.153-.092-.285-.05-.439-.142l.079-.442.998.216a440.1 440.1 0 0 1-.254 1.657c.078.233.154.467.231.7l1.327.328c.029-.165.113-.384.143-.548.299.017.544.092.845.11.32-1.762.674-3.6.996-5.361.114-.045.149.055.263.009.228.106.568.077.796.183-.004.166-.076.399-.081.565-.161-.03-.321-.058-.483-.086a53.993 53.993 0 0 0-.669 3.957c-.024.243-.074.487-.06.732.024.078-.018.086.01.163.942.143 2.051.398 2.992.541.103-.312.115-.669.216-.982l-.682-.119.099-.565c.137-.022.309.027.446.016.261.101.487.113.749.215l-.395 2.106c-1.158-.218-2.372-.436-3.53-.655-.115.146-.099.306-.203.455-.18 1.219-.449 2.416-.627 3.635l4.004.671c.076-.584.278-1.317.353-1.902.203.055.406.11.609.167-.096.642-.298 1.261-.287 1.912.008.154-.067.299-.036.449.394.1 1.112.224 1.505.324.24-.671.372-1.343.469-2.053.014-.103.074-.273.088-.374.189-.002.332.061.521.059l-.324 1.845c.401.128.819.179 1.231.261 5.174.945 10.353 1.861 15.531 2.789Zm-9.855-5.7c-.489-.051-.986-.142-1.476-.225-.985-.173-1.966-.365-2.95-.548-.072-.064.023-.151-.049-.216.103-.115.039-.208.142-.323l4.602.811-.085.483c-.061.007-.122.026-.184.018Zm-19.622-9.166c-.75-.131-1.579-.294-2.33-.425-.004-.187.072-.339.07-.526 1.214.208 2.423.446 3.644.607.191.028.385.008.572.062.208.045.406.121.608.187-.02.196-.007.392-.143.526-.763-.132-1.659-.299-2.421-.431Zm20.336-.113-2.149-.357-.236-.212c.061-.499.242-1.157.304-1.657l4.502.719c.112.146.145.437.085.914-.058.478-.105.661-.301.847-.048.065-.1.122-.184.081l-2.021-.335Zm-5.776-1.318.036-.52c-2.28-.402-4.694-.837-6.974-1.24-.069-.171.088-.297.02-.468-2.632-.451-5.43-.937-8.061-1.388-.097-.192.023-.391.027-.598.024-.308.095-.714.131-1.02.102-.08.171-.057.315-.055.157.044.234-.02.265.123.065.313-.069.806-.115 1.115l7.559 1.248c.04-.22.159-.563.198-.783.151-.061.38.089.531.028.087.117-.084.187-.066.325.02.348-.135.663-.135 1.011 2.127.379 4.388.792 6.515 1.173l.175-1.295c.103-.071.221-.011.324-.083.089.105.161.078.25.183l-.501 2.901c-.122.024-.365.036-.502-.099-.137-.133-.003-.348.008-.558Zm-21.36.237-2.369-.407c.031-.184.064-.367.096-.551 1.526.269 3.21.582 4.735.853.035.182-.075.324-.091.511-.791-.136-1.581-.272-2.371-.406Zm322.987-5.015v.815h2.771v.652h-1.304v1.609l-1.875.008-1.874.01v-1.301h-.326v1.305h-1.631v-1.305h-.489v-1.304h.489v-1.304h1.631v1.304h.326v-1.304h2.282Zm-41.406-11.085v1.468h-1.385v-2.935h1.385Z"/><path d="M475.748 453.072v3.423h-.652v.325h.652v6.358h-.652v.326h.652v2.445h.327v1.468h-.327v2.445h-5.706v1.793h.327v-1.467h5.379v4.402h-5.379v-1.468h-.327v4.402h.327v-2.609h5.379v8.803h-5.379v-4.727h-.327v3.097h-2.119v-12.226h-1.793v-2.445h-.325v.651h-3.098v-5.215h-2.744l-.083.202-.082.205-.176-.245-.175-.244-.164.244-.162.245-.163-.245-.164-.244-.162.244-.163.245-.164-.245-.162-.244-.175.244-.176.245-.082-.205-.083-.202h-1.441v-8.967h.652v-.325h-.652v-3.913h4.564v1.304h-.978v1.631h-.651v.978h-.489v.325h.489v6.032h6.684v5.705h.325v-2.119h7.499v-.326h-.815v-2.119h-.327v2.119h-6.357v-6.358h6.357v2.772h.327v-2.772h.815v-.325h-7.499v-6.847h9.618Zm29.995-3.913v.325h-.652v.327h1.304v4.239h-.978v.325h4.238v-.325h-2.934v-4.239h5.38v4.239h-1.142v.325h1.141v6.684h-.651v.326h.651v3.913h-1.304v.325h1.304v6.195h-1.14v.326h1.14v5.542h-5.705v-3.585h-.326v3.585h-5.706v-5.542h5.706v.652h.326v-.652h3.26v-.326h-5.379v-.489h-.326v.489h-3.587v-6.195h4.565v3.423h-.978v.978h.326v-.651h4.401v-3.75h.815v-.325h-1.88v-3.913h2.206v-.326h-1.114l-.095-.204-.095-.203-.095.203-.095.204h-2.255v-2.119h2.282v.489h.326v-.781h-2.608v-1.664h2.608v-.326h-3.26v.162a.163.163 0 0 0 .163.164h.163v4.075h-5.38v-4.075h3.75v-.164a.163.163 0 0 0-.163-.162h-.163v-2.283h.163a.164.164 0 0 0 .163-.163v-.162h-.652v2.608h-3.098v-6.847h3.75v-.327h-1.956v-.651h3.586Zm5.216 12.063a.164.164 0 1 0 .327 0 .164.164 0 0 0-.327 0Zm-.489 0a.164.164 0 1 0 .327 0 .164.164 0 0 0-.327 0Zm-.489 0a.164.164 0 1 0 .327 0 .164.164 0 0 0-.327 0Zm-335.974-21.067-.077.525-.109.005c-.06.004-1.03-.143-2.154-.325l-2.046-.332-.041-.211c-.048-.247.206-.852.359-.853.058 0 1.014.149 2.125.332l2.02.333Zm372.816 6.804v2.363h-3.424v-1.467h-.326v-1.63h.326v-1.631h3.425Zm14.508 0v2.363h-4.401v-1.467h-.326v1.467h-6.256v-2.119h.978v-2.609h5.278v1.631h.326v-1.631h4.4ZM423.65 432.774v.243l.367.003c1.122.009 3.767.17 4.344.261l.669.107-.001 1.324c-.002.728-.048 1.709-.106 2.18l-.102.855h-5.171v.489h5.265l-.105 1.493a45.917 45.917 0 0 0-.107 2.69v1.197h-1.14v.451l6.119.121 6.12.121.092-.093c.051-.05.215-1.93.364-4.176l.272-4.085h-.447l-.084.325-.086.327h-2.57v-2.981l1.002.105a19.2 19.2 0 0 0 1.386.104h.383v.816h.489v-.802l1.671.097c.92.054 1.703.126 1.743.161.078.067-.812 14.116-.9 14.216-.069.077-3.147.039-5.04-.064-2.586-.14-12.335-.431-12.397-.37-.032.033-.108.368-.169.746l-.11.687h.466l-.071.61-.072.609-.199.165-.201.165-.193 3.015c-.107 1.659-.236 3.401-.289 3.872l-.096.856h-1.431c-.787 0-1.548-.044-1.689-.099l-.258-.099v-2.737h-.489v2.772l-.367.001c-.202.002-2.131-.084-4.287-.189l-3.919-.192.042-1.074c.025-.59.08-1.77.124-2.622a83.411 83.411 0 0 0 .087-2.078l.006-.53h8.476v2.608h.489v-.871c0-.479.049-1.763.108-2.852l.106-1.982h-.539v2.608h-8.63l.082-1.752c.045-.965.112-2.23.15-2.812a43.953 43.953 0 0 0 .077-1.589l.007-.531h8.477v2.772h.489v-3.424h4.401v-.489h-4.706l-.102.327-.104.325h-8.477l.088-1.589c.092-1.624.171-3.316.362-7.603l.107-2.426 2.219.106c1.22.06 2.931.153 3.803.209l1.586.101.045 2.627.044 2.626.611.05.612.05v-.509h-.816v-4.925l.409.102.407.103v-.495h1.304Zm-159.316 30.3c.432-2.75.778-5.415 1.21-8.166.171.078.427.071.599.149l.311-1.339c-.2-.091-.401-.183-.601-.276.257-1.708.535-3.413.799-5.121.114-.739.239-1.476.34-2.217-.011-.057.044-.17-.011-.194-2.215-.353-4.428-.712-6.645-1.053-.103-.014-.207-.026-.311-.039l-1.054 6.362-.498-.016c.312-2.133.643-4.264.965-6.396l-.816-.31c-.401.032-.802.064-1.203.094l-1.124 6.788c-.438-.085-.878-.144-1.311-.25-.109-.028-.248-.086-.242-.22-.003-.311.068-.618.101-.926l.049-.353-1.619-.212c-.075-.137-.084-.294-.077-.448.008-.308.074-.612.119-.916.108.04.441.101.5.005.175-.261.039-.678.13-.975.23-.84.388-1.701.468-2.57.008-.141.029-.286.018-.427-.072-.137-.247-.146-.38-.183-.469-.091-.946-.133-1.422-.183l-.68 4.062.645.211-.164 1.272-3.014-.573c.268-1.678.547-3.354.802-5.034a45.13 45.13 0 0 1 .049-.363 81.832 81.832 0 0 0-.685-.12c-.052-.212.009-.428.021-.64.221-1.851.538-3.688.792-5.534l.033-.26-3.456-.567.451-2.987c-.118-.1-.228-.216-.353-.305a344.344 344.344 0 0 1-6.585-1.027c-.146.777-.29 1.555-.434 2.332-.163.08-.411-.067-.573.013-.13.388-.173 1.003-.302 1.391.168.063.336.128.503.192l-.431 2.609c1.063.116 2.17.544 3.219.82l-.081.459 1.317.232c.193-.136.046-.356.239-.491.224.066.787.217 1.01.284-.171 1.274-.38 2.552-.573 3.828-.472 3.051-.941 6.101-1.435 9.147l.218.675 4.47.718c.109-.077.24-.144.284-.279.116-.258.138-.545.181-.821l2.313.373.209.193c-.129.125-.081.25-.21.374-.494-.143-1.18-.23-1.69-.289-.067-.003-.172-.057-.155.053l-.532 3.468 4.163.745-.071.419-.494-.063s-.172 1.231-.23 1.588c-.018.141-.037.28-.057.421.62.068 1.238.158 1.862.19l.291-1.903-.65-.074.037-.202.047-.217s1.314.219 1.951.372l.253-2.308.374-.074c.07.11.163.214.218.327-.224 1.499-.474 2.993-.663 4.497-.027.263-.074.527-.068.792.019.133.182.149.287.181l8.721 1.363c.104.014.208.026.313.039Zm-139.312-34.813.664-3.567-3.326-.54-.71 3.455Zm350.564-12.928v.407h.325v1.142h-.325v.815h-2.935v-2.771h2.935Z"/><path d="M467.597 412.806v1.794h-2.281v.326h4.726v1.467h.978v1.304h-1.303v.326h5.869v22.17h-3.099v-16.79h-.325v4.564h-3.912v-6.358h3.912v.815h.325v-1.14h-4.237v-1.142h-.327v2.12h-5.053v-4.239h5.053v1.141h.327v-1.141h.489v-.326h-5.869v-.815h-.326v-1.142h.326v-.814h1.468v-.326h-1.468v-3.586h4.727Zm-283.496 29.75 2.074-11.841-5.844-1.016c-.106.48-.214.963-.331 1.439l-.451-.264.257-1.789c.394.037.786.115 1.182.173 1.693.275 3.384.562 5.075.846.123-.235.257-.466.373-.702.227-1.423.472-2.843.677-4.269.016-.139.027-.278.042-.417l-7.562-1.257-.383-.283.176-.382c1.031.188 2.054.418 3.096.538a1.296 1.296 0 0 0 .53-.015c.059-.029.179.002.19-.072l1.629-9.238c1.496.259 2.991.518 4.488.779.102-.392.206-.783.309-1.174l.405.071a6.792 6.792 0 0 0-.229 1.242c-.035.093.103.056.158.081l4.728.78c.22-.885.371-1.787.542-2.683a267.766 267.766 0 0 0 .933-5.272c.039-.27.101-.54.076-.815-.002-.08.078-.435.076-.515l-4.834-.89c-.179.756-.377 1.8-.515 2.563-.23 1.326-.454 2.654-.68 3.982l-.401-.071.223-1.261-6.413-1.045c-.04-.103-.101-.203-.131-.308l.264-1.52.321-.062c.084.182.096.372.115.563.018.271.018.541.028.81 1.637.288 3.27.606 4.915.852a4.371 4.371 0 0 0 .824.067c.061-.014.175.032.203-.023.267-1.551.512-3.11.814-4.652.05-.235.083-.477.193-.694.004-.054.111-.167.034-.177l-8.502-1.5-.426 2.419-8.6-1.461-.394-.048-3.133 17.758c-2.454-.418-4.906-.851-7.362-1.255-.947-.152-1.892-.313-2.845-.431a.428.428 0 0 0-.292.042c-.078.023-.152.05-.121.145l.789 17.782-.076.432c1.408.258 2.818.514 4.226.771l.775-4.81a25.587 25.587 0 0 1 2.075.367l-.578 2.849 10.042 1.665c.235.031.23.028.465.058-.072-.195.077-.356.015-.552l.363-2.234 2.01.339-.742 4.601-.026.283 5.14.822c.007-.04.013-.081.021-.121Zm-2.932-21.084c-.065-.02-.164-.011-.209-.049a3.81 3.81 0 0 1 .036-.762c.205-1.513.5-3.024.771-4.532l.123-.678c.18.018.361.029.538.061-.296 1.77-.61 3.545-.928 5.316-.044.226-.076.456-.134.68-.065-.013-.131-.024-.197-.036Zm202.201-16.066c.16-.056.259-.31.422-.36-.017.06.083.135.205.09.289-.031.448.165.735.134l1.211-2.828-3.095-1.253c-.35.864-.758 1.838-1.106 2.702.101.379.659.263.761.642.052-.115-.204.462-.151.347.139.237.277.104.502.256l.46.291c.018-.008.038-.014.056-.021Z"/><path d="m191.414 409.166-.045 1.087-.193.064-.192.064.011-1.151.012-1.15h.453Zm202.576-.21c.148.054.071-.242.206-.323l1.298-3.088c-.526-.191-1.052-.38-1.579-.57-.169.308-.342.615-.468.944-.319.777-.583 1.574-.868 2.362.384.209.775.374 1.159.585Zm-9.718-7.405c.137-.331.312-.653.395-1.004.031-.155-.137-.242-.255-.296-.285-.112-.588-.173-.877-.277-.058 0-.162-.096-.187-.024-.162.405-.326.809-.489 1.213l1.367.492.046-.104Z"/><path d="M385.938 421.452c.892-.025 1.785-.053 2.676-.046l3.437-.001c.162-.297.336-.592.442-.916.149-.403.22-.632.327-1.048.098-.078.232-.337.32-.423.236-.735.51-1.374.745-2.11.163-.132.173-.533.337-.665-.209-.165-.284-.187-.531-.296-.738-.38-1.539-.62-2.292-.956-.106-.018-.006-.114.004-.176.014-.099.12.009.179.013.859.337 1.716.673 2.575 1.008l.324-.237c.044.105.088.21.134.314-.729 1.808-1.458 3.615-2.185 5.422a4.577 4.577 0 0 0 .731.053c2.745.03 5.488.03 8.233.042.48-1.255.962-2.51 1.444-3.765-.745-.331-1.5-.635-2.267-.907l-.224-.082.31-1.038.298.121-.307.759c.67.254 1.521.61 2.191.863.241-.219.237-.639.515-.814.065-.064.171.059.239.082.091.072.093-.061.128-.12.154-.379.306-.759.459-1.138l-.303-.122c.147-.367.147-.589.292-.957l-2.21-.78-.367.635-.264-.172c.138-.252.296-.684.444-.93.068-.124.185.101.293.13.516.171 1.019.385 1.528.575l.706.271c.683-1.748 1.381-3.489 2.045-5.245l.082-.248c-.077.005-.151.005-.217-.038-1.02-.445-2.053-.858-3.083-1.279-1.436-.583-2.873-1.161-4.311-1.743-.299.626-.619 1.243-.841 1.902-.133.377-.214.772-.381 1.136-.061.148-.152.281-.235.417l-.209-.085c.042-.1.082-.201.122-.302l-1.511-.611.092-.226.304.123.624-1.77-1.058-.427c-.216.537-.48 1.162-.697 1.699.055.141.31.068.366.21-.053-.001-.069.167-.138.195-.081.033-.289-.078-.349-.08l-.893 2.214c.795.277 1.591.556 2.387.835.119-.291.236-.583.354-.874l.265.173-.379.657 2.487 1.005c.013.103.045.208.046.31-.512 1.249-1.027 2.497-1.544 3.744l-.23-.093c.492-1.274.995-2.543 1.495-3.813l-2.264-.8c-.534 1.255-1.065 2.51-1.604 3.762l-.421-.605-2.468-.98c-.002-.027-.16-.01-.174-.102-.013-.105.119-.319.162-.336.159-.121.164.191.314.063.462-1.16 1.082-2.478 1.544-3.639l-1.548-.625-.233.579-.23-.092c.24-.641.499-1.276.71-1.927l.075-.252c-.241-.153-.503-.209-.721-.394-.062-.046.052-.147.077-.178.06-.074.132.028.198.046l.607.327.641-1.816-2.475-1-.699 1.731c.27.13.542.259.803.406l-.088.216-.805-.397-1.29 3.146c.088.116.162.252.302.317.629.348 1.312.584 1.974.863.055.003.166.11.176.033l.059-.339.33.135c-.064.262-.174.497-.237.76-.083.095-.08.231-.164.326-.04-.096-.26-.009-.302-.106-.053-.123.033-.445-.019-.57-.814-.337-1.545-.637-2.358-.974.022.126-.159.32-.138.446-.198.026-.279-.055-.478-.029-.089.221-.18.441-.27.662l.386.277-.187.474 2.412 1.08c.175-.191.164-.41.338-.602.083.023.336.08.268.168-.043.105-.087.211-.129.318.038.095.303.2.344.293.034.083-.155.153-.126.237-.336-.065-.652-.205-.973-.32-.772-.296-1.541-.596-2.31-.891l-.616 1.523c.76.364 1.543.68 2.317 1.015l.78.33a.859.859 0 0 1-.048.246l-3.163-1.307a321.951 321.951 0 0 1-1.84 4.424c-.31.746-.643 1.486-.89 2.256-.088.308-.189.638-.103.957.069.256.327.396.571.439.339.066.686.054 1.029.051Z"/><path d="M393.727 404.529c.406-1.067.828-2.127 1.215-3.201.026-.068.049-.137-.034-.172-.253-.139-.531-.235-.796-.35-.566-.228-1.135-.451-1.702-.677-.318.851-.645 1.697-.963 2.548-.079.243-.19.505-.116.762.085.254.358.359.583.46l1.768.747Zm12.995 3.661c-.011-.069.065-.172.053-.24.163.002.144.076.308.078.117-.367.331-.823.448-1.189-.046-.14-.351-.09-.397-.229-.044-.134.169-.405.124-.539-.881-.319-1.638-.63-2.518-.95-.041.187-.205.364-.246.551-.077-.03-.152-.062-.229-.093a1.919 1.919 0 0 1 .278-.598c-1.598-.633-3.175-1.216-4.773-1.851-.078.195-.178.337-.256.53-.119-.048-.177-.081-.296-.129.1-.107.152-.36.253-.468-.181-.166-.368-.219-.591-.331-.294-.168-.618-.275-.93-.406-.236.488-.454.985-.645 1.494a623.78 623.78 0 0 0-.732 1.905l1.552.627.676-1.762c.055.022.278.021.254.113-.016.209-.153.356-.169.566 1.56.595 3.156 1.202 4.716 1.798.06-.208.172-.337.231-.546.093.11.15.063.242.175-.061.152-.141.382-.202.535.963.393 1.767.731 2.728 1.122-.012-.072.133-.091.121-.163Zm-19.597-8.738.57-1.411c-.993-.398-1.987-.794-2.981-1.19-.206.306-.434.603-.553.955-.076.205-.101.424-.151.637.943.352 1.881.721 2.832 1.05.081.023.164.033.245.052a6.145 6.145 0 0 0 .038-.093Zm-57.438 3.084v.653h-1.63v-1.304h1.63Z"/><path d="M319.254 400.907v.162h4.564v5.869h-.814v.326h.814v1.305h.326v-7.5h2.772v2.934h.325v-.651h5.706v.651h.327v-.651h1.956v.651h.325v1.305h-.325v.652h-1.956v-.652h-.327v.652h-5.706v-.652h-.325v14.834h-2.772v-10.27h-.326v18.91h-4.075v.326h4.401v-8.64h6.847v1.467h.327v-1.467h3.912v4.728h-1.467v.325h1.467v12.064h-3.723l-1.97-2.077-1.969-2.078v-3.79l1.916-2.044 1.914-2.043.612-.016.611-.016v-.325h-1.303v-2.12h-.327v2.123l-1.874 1.995-1.874 1.995-.002 2.34v2.339l.775.834a369.214 369.214 0 0 0 1.903 2.021l1.127 1.188h2.064v2.771h.326v-.489h1.794v.489h.325v1.304h-.325v.489h-1.794v-.489h-.326v1.956h-6.847v.327h.816v5.542h.326v-1.305h7.825v4.402h-7.825v-1.467h-.326v12.063h.326v-.489h5.542v.652h.327v-.652h1.956v.652h.325v1.304h-.325v.652h-1.956v-.652h-.327v.652h-5.542v-.489h-.326v.489h-2.935v-4.89h-.326v4.211l-.203.095-.204.095.204.095.203.096v6.166h-2.119v-4.401h-.326v.653h-4.075v1.467h4.075v2.281h-7.661v-6.193h1.303v-.327h-1.303v-.815h-.326v-1.303h.326v-.816h1.303v-.326h-1.303v-4.402h7.661v8.151h-1.793v.327h.803c.44 0 .916.044 1.058.099l.258.098v-.659l.204-.096.203-.095-.203-.095-.204-.095v-7.635h2.119v1.956h.326v-14.996h.652v-.327h-.652v-8.965h-4.401v.325h4.075v2.283h-10.106v-.489h-.326v-1.305h.326v-.489h4.727v-.325h-4.727v-2.283h-.326v-1.304h.326v-2.282h4.727v-.326h-4.727v-.815h-.326v-1.304h.326v-.653h8.15v-.325h-8.15v-15.813h-.326v-1.303h.326v-1.305h6.683v14.834h2.445v-.325h-2.119v-14.509h.978v-.326h-7.987v-1.467h-.326v-1.304h.326v-3.098h4.238v-.325h1.304Zm13.693-2.039v1.387h-4.89v-2.772h4.89Zm35.7-.325v1.548h-2.445v-3.097h2.445Z"/><path d="M368.647 389.985v2.281h-3.26v.327h3.26v.489h.327v.839l-.234.232-.232.233h-.676v.326h.815v1.956h-2.282v-1.956h.489v-.326h-3.749v2.255l-.204.095-.204.096.204.094.204.095v3.043l-.204.096-.204.095.204.094.204.095v.463h.326v-.49h5.216v4.402h-5.216v-2.934h-.326v3.749h.326v-.489h5.216v4.075h-5.216v-2.608h-.326v2.608h-1.956v-2.608h-.326v2.608h-4.891v-4.075h3.424v-.326h-3.424v-3.912h3.424v-.327h-3.424v-3.912h3.424v-.325h-3.424v-3.75h4.891v3.75h-.489v.325h.489v.244c0 .288.149.307.489.068l.244-.174-.204-.082-.203-.083v-4.048h.489v-.327h-5.706v-4.564h7.01v4.564h-.163a.165.165 0 0 0-.163.164v.163h1.793v-.327h-1.141v-4.564h5.379Zm-7.824 10.27v.325h-.489v.327h.489v3.912h-.489v.326h.489v.489h.326v-5.19l.203-.082.204-.083-.244-.173c-.135-.094-.3-.174-.367-.175l-.122-.003Zm48.189-10.669c.205-.528.447-1.04.645-1.571.206-.529.404-1.061.606-1.592-3.553-1.409-7.393-2.93-10.948-4.341-.269.09-.149.347-.418.438-.067.165-.133.34-.2.506-.1-.042-.303-.147-.405-.188l-.518 1.285c.1.041.368.174.469.215l-.126.672-.104.262c1.043.45 2.102.863 3.153 1.291 2.6 1.048 5.2 2.092 7.799 3.137Zm4.569.925c.099.061.27.085.369.146.176-.355.297-.869.473-1.225-.131-.122-.205-.086-.336-.209.116-.289.232-.578.35-.867-.126.021.155-.161.029-.139.051-.127-.304-.05-.253-.177l-1.104-.446-1.29 3.259c.446.181.894.361 1.34.54.185-.409.062-.276.422-.882Zm-182.341-9.823c.029-.109.143-.573.25-1.032l.198-.833-.209-.037-.209-.038-.177 1.045-.176 1.046.134.023c.074.013.159-.065.189-.174Zm29.229 27.67c.118.009.222-.05.31-.124.086-.032.059-.136.082-.208.388-2.271.826-4.62 1.213-6.892.171-.004.291.072.462.068.087-.419.174-.837.259-1.256l-.523-.093c.458-2.674.944-5.491 1.402-8.165-.088-.127-.294-.059-.384-.186-.787-.137-1.482-.337-2.273-.442-.248-.044-.622-.072-.832-.224-.171-.148-.053-.384-.048-.591.045-.624.181-1.232.286-1.848a134.828 134.828 0 0 0 .784-4.767c.026-.237.13-.398.123-.637-.019-.103.052-.207.031-.309-.754-.112-1.651-.302-2.405-.414l-.303 1.719c-.106.021-.186-.023-.292-.002-.093-.085-.213-.103-.306-.186l.307-1.642-2.297-.384c-.083.461-.192 1.131-.275 1.593-.082.088-.214-.122-.296-.033-.114-.068-.151-.046-.264-.115l.277-1.572-2.326-.392a14.69 14.69 0 0 0-.299 1.72c-.016.065-.154.013-.259-.042-.197-.04-.183.005-.324-.131l.224-1.623-2.806-.508c-.253 1.641-.508 3.281-.762 4.921-.167-.053-.335-.083-.502-.138l.023-.725-4.494-.722c-.025-.125.017-.394-.008-.519.167-.082.268.059.434-.024.114-.614.226-1.307.34-1.922-.435-.116-1.328-.248-1.328-.248l-.468-.119-.107.314s-.173 1.137-.278 1.729l.642.114-.099.561-2.505-.562c-.127.155-.124.335-.251.49-.05.527-.23 1.027-.28 1.552 2.623.454 5.388.932 8.011 1.384.11-.102.022-.355.181-.381.117-.033.28.071.399.07.044.175-.011.349-.025.522-.296 2.093-.653 4.176-1 6.262l-.844 4.674-.056.231c.261.103.521.22.799.27 1.076.237 2.468.542 3.553.722.162.258-.123.417-.102.712.005.077-.096.246-.091.323-.183.034-.328-.087-.511-.052-.039-.238.077-.384.039-.621-1.78-.307-3.65-.64-5.431-.946l.097-.548c.263.075.707.097.968.172.124-.146.082-.23.195-.38.582-3.442 1.167-6.885 1.753-10.327-.252-.09-.499-.195-.765-.237a91.297 91.297 0 0 0-3.572-.626 12.925 12.925 0 0 0-1.002-.123l-1.828 10.758 2.743.484c-.004.164-.009.327-.015.491-.283.011-.423-.029-.706-.017-.101-.09-.513-.024-.615-.114-.264.087-.255-.126-.521-.039l-1.303 6.842c.207.153.412.046.617.199l7.856 1.344c.12-.084.176.013.296-.071.3-1.665.666-3.513.967-5.178.151-.062.368-.033.447.091.034.095-.881 5.224-.881 5.224a32.858 32.858 0 0 0 2.07.425l.265-1.826c.14.024.528.153.669.178.047.247-.152.392-.106.64-.072.08.013.265-.059.346.022.307-.113.511-.09.818.587.071 1.175.142 1.762.216.083-.515.168-1.029.252-1.544l1.734.22-.343 1.713c.553.054 1.107.106 1.661.159.101-.113.222-.22.254-.375.131-.417.165-.746.227-1.177.202.077.403.046.608.114-.135.532-.267 1.064-.4 1.594.697.152 1.398.319 2.112.367.041.003.084.001.126.001Zm230.603-25.529v7.679l.257-.099a2.25 2.25 0 0 1 .653-.099h.394v-.325h-.978v-3.75h4.564v3.75h-2.608v.325h1.209c.665 0 1.325.045 1.467.099l.258.099v-4.599h-.815v-.652h-.326v.652h-3.749V378.9h1.793v1.467h1.956v1.14h.163a.163.163 0 0 0 .163-.162v-.163h6.358v.978h.326v-2.445h1.793v5.705h-1.793v-2.282h-.326v3.913h-1.794v34.395h1.794v3.913h.326v-2.608h1.793v6.031h-1.793v-2.445h-.326v.815h-6.521v-.653h-.326v1.631h-1.793v1.468h-1.793v-6.522h3.559l.095.204.095.204.095-.204.095-.204h1.603v-4.564h-.326v.489h-3.26v.327h3.26v2.118h-4.564v-2.092l.203-.095.204-.095-.204-.096-.203-.094v-1.929h4.564v.489h.326v-1.956h-6.357v.326h.489v10.922h-4.402v.326h4.402v4.727h.326v-.652h3.586v2.445h-3.586v-.815h-.326v.815h-8.315v-17.768h2.283v-.326h.978v.326h3.586v-.326H488.3v-2.445h1.304v-.327H488.3v-4.726h5.869v4.726h-3.586v.327h3.912v-.816h2.119v-3.586h-.815v.327h.489v2.934h-1.793v-4.239H488.3v-6.684h5.054v-.325H488.3v-4.728h6.847v4.728h-.652v.325h.978v-5.053h.815v-4.599l-.258.099c-.142.055-.802.099-1.467.099h-1.209v.326h2.608v3.749h-4.564v-3.749h.978v-.326h-.394c-.217 0-.511-.044-.653-.099l-.257-.099v1.338h-.815v.327h.815v2.608H488.3v-2.608h.979v-.327h-6.522V375.15h8.315ZM335.23 371.727v.326h.325v1.467h-.325v.816h-2.609v-2.935h2.609Z"/><path d="M238.916 384.203c.096-.32.203-.835.299-1.155-.097-.138-.207-.081-.304-.219l.088-.499.881.169c.62-3.477 1.239-6.953 1.861-10.43l-2.882-.593c-.077-.242.132-.417-.093-.531-.08-.044-.9-.128-.978-.172-.203.175-.054.363-.256.539l-4.295-.83c-.133.447-.201.912-.298 1.368-.247 1.23-.471 2.465-.74 3.69-.016.073-.027.17-.123.118l-.335-.059c.167-1.145.376-2.281.573-3.42.102-.575.202-1.148.302-1.723-.706-.124-1.413-.248-2.12-.374-.118.352-.159.721-.237 1.083-.336 1.782-.663 3.564-.993 5.347.063.159-.09.23-.027.389.674.097 1.781.347 2.455.445.058.144-.085.225-.08.382-.855-.15-1.711-.3-2.565-.452-.052.288-.102.767-.153 1.054 1.592.242 3.149.562 4.744.784.102.013.206.007.31.009.065-.368.161-.986.226-1.354l.312.118c-.152 1.046-.341 2.086-.43 3.139-.027.184.024.364.058.544 1.258.21 2.646.433 3.905.643.07.099-.068.316.002.416-.154.172-.192-.047-.346.124-.062.351-.163.962-.225 1.313l1.434.241c.011-.034.021-.07.03-.104Zm131.688-22.257v.326h.326v1.63h-.326v.653h-6.521v-2.935h6.521Zm-46.133.041v1.181l2.281-.052 2.283-.054v8.013h-.163a.163.163 0 0 0-.162.162v.164h2.281v1.467h-1.467v1.468h-2.281v-2.935h.162a.164.164 0 0 0 .163-.164v-.162h-1.956V367h-.815v-.164a.164.164 0 0 0-.163-.163h-.163v.652h.815v3.75h-.815v6.846h2.445v.49h.327v-3.75l.162-.017c.089-.01.42-.017.734-.017s2.038.007 3.83.017l3.261.017v3.75h-5.869v6.194h-2.118v-5.054h-.327v.816h-4.728v-2.608h-4.726v2.608h-1.794v-6.358h-.326v-2.445h.326v-10.759h4.402v2.283h.326v-2.283h4.075Zm-6.847 1.752v1.794h6.847v.162a.163.163 0 0 0 .163.163h.162v-1.63h-.325v.978h-4.076v-1.14h-.325v1.14h-2.12v-3.26h-.326Zm-90.616 22.758.223-1.266-1.124-.196s.983-5.752 1.472-8.627a524.2 524.2 0 0 1 .791-4.59c.25-1.395.369-1.709.488-2.024l-2.868-.507c-.226 1.057-.406 2.123-.599 3.185-.529-.06-1.058-.12-1.587-.178l-.278-.313c.204-1.072.379-1.942.585-3.014-.218.037-.405-.095-.629-.123a10.53 10.53 0 0 1-.808-.087c-.422-.061-.842-.127-1.263-.191l-.572 3.355c-.166.088-.36.04-.537.028-.271-.032-.571-.099-.859-.152-.093-.002-.115-.116-.172-.174-.051-.06-.091-.121-.057-.201l.527-3.305-1.918-.21c-.41-.06-.818-.128-1.227-.191-.111.077-.243.147-.287.286-.2.471-.263.983-.378 1.479-.054.095.027.108.107.122.506.127 1.023.209 1.535.31l.988.185-.166.543c-.382-.05-.767-.097-1.146-.148.017-.099-.431-.036-.414-.135-.328.048-.19-.024-.523-.067-.309-.032-.624-.079-.905-.215-.049-.031-.105-.087-.104-.144l.394-2.376-3.551-.628c.011.159-.204 1.164-.284 1.26l-16.275-2.793c.066-.661.146-1.313.278-1.861l11.738 2.015.865-4.805c.139-.045.401.082.483-.038.206-.256.164-.784.302-1.076l-.48-.392c.066-.472.219-1.052.284-1.525l-4.623-.904-.111.63-1.043-.183.134-.763c-.195-.116-1.416-.284-9.617-1.797-.33-.042-.658-.109-.99-.12-.102.017-.203.038-.306.056l-1.017 6.526-.027.303.968.17c.032.606-.115 1.199-.242 1.784l-2.125-.277c-.105.71-.228 1.418-.32 2.131-.017.214-.165.495.004.661.171.147.518.139.725.207.058.03.19.006.16.104a7.055 7.055 0 0 1-.091 1.065c-.145 1.062-.364 2.124-.528 3.189l-.035.305.977.172c-.027.434-.079.657-.157 1.049l-.686-.121a31.717 31.717 0 0 0-.377 2.009c-.026.172-.14.408.029.51.122.078.378.111.507.175-.186 1.061-.348 2.127-.562 3.183-.053.325-.138.67-.034.994.101.297.406.448.685.536.613.184 1.25.261 1.88.369 1.352.213 2.703.442 4.054.667-.004-.275.143-.528.139-.802.95.135 1.742.278 2.691.427.862.141 1.684.347 2.546.488.195.106.429.056.623.161-.029.17-.06.431-.089.599a4.779 4.779 0 0 0 .798.2c1.893.365 3.79.698 5.687 1.044.101-.574.201-1.146.303-1.718-.213-.095-.421-.21-.654-.251-.843-.199-1.717-.239-2.552-.48-.096-.036-.191-.076-.287-.114l.083-.473 4.02.751c.093.133-.075.149.019.282l-.372 2.114c.892.135 1.782.287 2.678.397l.321.024 1.475-8.741c.059-.062.14-.071.22-.067.442.002.873.101 1.307.166-.441 2.651-.89 5.301-1.322 7.953l-.043.272c.859.123 1.677.331 2.537.455.393-2.084.82-4.254 1.223-6.335-.013-.106.091-.082.163-.09l.51-.042.568-3.402c.101-.073.202-.142.302-.213a39.65 39.65 0 0 1 .3.18l-.377 1.643c.61.158 1.235.249 1.855.365.691.123 1.684.35 2.374.471.038.077-.573 3.131-1.447 8.619-.056.375-.124.749-.16 1.125-.014.099.095.13.171.153.76.214 2.311.525 2.311.525l.475.107.36.313Zm-24.474-7.542c-.685-.074-1.362-.195-2.042-.302-1.839-.305-3.674-.641-5.511-.963.066-.589.097-1.189.286-1.755a14.63 14.63 0 0 1 .112-.261c2.498.431 5.166.953 7.664 1.383.061.097-.024.097.022.196l-.298 1.686c-.078.005-.155.018-.233.016Zm-7.547-5.241c-.116-.089-.208-.025-.325-.116.128-.53.229-1.214.357-1.744l17.282 2.966c.068.25.011.511-.013.764-.049.372-.124.74-.186 1.11Zm-3.502 1.09c.388-2.192.773-4.495 1.178-6.684l.062-.311c.413.074.826.146 1.24.219.042.1-.008.212-.009.316-.214 1.533-.493 3.059-.758 4.586-.121.69-.271 1.43-.392 2.121Zm18.442-2.024c.135-.886.454-2.093.589-2.979l1.746.401-.568 2.975Zm-3.79-.638c-.034-.06-.115-.038-.135-.101.151-1.011.408-2.008.573-3.014.388-.012 1.634.315 1.796.335.002.016-.042.127-.57 3.091l-1.664-.311Zm-7.29-1.718-3.33-.579-.214-.252c.09-.357.157-.719.262-1.071a.218.218 0 0 1 .223-.166l6.756 1.103a.55.55 0 0 1 .095.332c.012.345-.064.684-.108 1.023-.122.059-.24.141-.365.187-1.107-.191-2.213-.385-3.319-.577Zm.004-8.596c-.596-.116-1.197-.222-1.781-.387-.053-.035-.166-.043-.172-.102.131-.555.252-1.116.398-1.663.314.057.627.112.942.167l.091.473 2.034.313.348-1.707c-.111-.099-.215-.214-.366-.251-.582-.195-1.192-.283-1.789-.415-.046.021-.015.139-.031.198l-.038.665-1.06-.202c.021-.419.102-.854.176-1.276.055-.29.106-.582.188-.866.98.143 2.109.405 3.089.554.106.132.052.193.005.369l-.044.251.835.252-.472 3.075-.313.276c-.224-.039-.296-.078-.52-.119.018.22-.115.439-.098.659l-1.422-.264Zm307.544-10.478v.163h.49v1.956h.325v-1.956h5.706v4.075h-1.141v.326h1.14v4.728h-1.14v.326h1.14v3.26h-10.894l-.095-.204-.095-.203-.095.203-.096.204h-7.145v-.815h-.326v.313c0 .172-.045.429-.099.571l-.099.258h-1.595v-.327h-.652v-.978h-.326v-1.63h.326v-.489h2.445v.978h.326v-10.596h9.618v.816h.326v-.816h.489v-.326h1.467Zm-2.282 3.26v.978h-2.119v-.978h-5.054v3.912h2.771v1.467h1.957v1.957h.326v-.978h5.38v-.326h-2.935v-4.728h4.727v4.728h-.489v.326h1.793v-.326h-.978v-4.728h.978v-.326h-3.26v-.489h-.326v.489h-2.445v-1.956h-.326Zm-382.367-5.622-.102.41.262-.102.263-.1v.323c0 .177-.046.556-.104.841l-.102.519-.212-.081-.211-.082-.086.44a46.203 46.203 0 0 0-.263 1.742 44.481 44.481 0 0 1-.264 1.754l-.088.447h-3.071v-4.238h-1.467v.326h1.14v3.098h-1.956v-2.12h-.814v-2.445h1.141v-1.141h6.038Zm350.277 12.876c.748-1.58 1.515-3.151 2.24-4.743.196-.444.408-.883.569-1.341.029-.106-.009-.216-.012-.324-.951-.389-1.881-.825-2.813-1.259l-.413.481c-.099-.133-.028-.305.045-.432.013-.063.108-.151.067-.195l-2.373-1.248c.026-.092.05-.185.075-.278l.521.392.289-.592.22.106-.25.514 6.601 3.194c.571-1.123 1.126-2.254 1.715-3.369.039-.053.123.048.18.056l1.752.85.547-.062c.461-.875.927-1.746 1.323-2.651.05-.075-.093-.091-.134-.137-.627-.399-1.288-.745-1.944-1.094-.502-.266-1.005-.527-1.508-.791l-1.445 3.045.226.372-.194.181-.188-.298-.659 1.481-.514.125-.688-.302c.056-.072.11-.145.165-.218l.642.356c.2-.269.348-.57.488-.874a2742.87 2742.87 0 0 0 1.845-3.872l-3.714-1.686c-.624 1.376-1.275 2.737-1.864 4.128-.053.15-.141.295-.158.454.022.064-.017.17.053.198.565.258 1.142.48 1.681.79.021.024.147.064.092.087l-.334.15c-.681-.347-1.384-.657-2.026-1.077-.046-.04-.138-.096-.148-.14.088-.06.187-.109.267-.176l2.246-4.572c-.952-.437-1.903-.874-2.849-1.32-.27-.114-.565-.259-.866-.183-.298.089-.462.38-.61.632-.319.586-.6 1.193-.909 1.786l-.939 1.85 2.798 1.325c-.004.072.039.161.004.224l-.352.369-.274-.133.038-.436-7.92-3.81c-.12.039-.252.072-.324.184-.282.352-.459.772-.678 1.162.01.05.123.066.173.102l6.564 3.157.169.267c-.059.02-.117.106-.176.084l-.93-.555-.25.956-.262-.022.208-1.023c-.576-.248-1.151-.495-1.728-.74l-1.478 3.151c.352.276.775.433 1.176.62.235.105.47.207.705.313.223-.569.448-1.136.672-1.702.062.007.187-.063.17.044.034.266-.092.518-.169.766-.162.449-.341.893-.517 1.337-.73-.355-1.461-.71-2.191-1.063l-1.391 2.851 3.292 1.606c.428-.802.859-1.603 1.287-2.405.017-.231-.025-.504.149-.686.332-.448.622-.926.925-1.394l.63.223-.11.226-.45-.219-2.058 4.437 2.689 1.31c.605-1.314 1.238-2.617 1.806-3.95.056-.16.15-.315.166-.487-.015-.067 0-.156-.032-.21l-1.307-.506.146-.298c.461.195.92.391 1.38.587l.398-.277.162.174-2.48 5.086c1.007.49 2.013.982 3.02 1.473l.053-.112Z"/><path d="M468.554 348.322a.205.205 0 0 0 .212-.149c.147-.168.236-.375.345-.566.44-.823.858-1.656 1.285-2.484-.202-.081-.398-.177-.604-.245.039-.086.061-.181.094-.27a3.102 3.102 0 0 1-.432-.252c-.258-.171-.541-.3-.818-.439-.087.114-.204.207-.261.34-.278-.128-.551-.264-.826-.397-.326.632-.679 1.253-.959 1.908-.099.257-.213.556-.087.823.145.273.456.383.709.528.137.077.275.154.398.251-.074.163-.132.336-.196.503.173.085.342.18.533.22.212.049.386.217.607.229Zm-395.126-8.139v.245h1.141v5.054h-1.141v.325h1.467v-5.379l1.182-.002c.65-.001 5.932-.048 11.737-.106l10.555-.104v6.407H86.143v-1.141h-3.749v9.454H67.559v-9.129h4.401v-.325h-1.303v-5.054h1.303v-.489h1.468Zm7.499 2.854v.651h6.52v-1.304h-6.52Zm-2.934 6.031v3.261h1.303v-6.522h-1.303Zm-7.5.652v.652h4.239v-1.304h-4.239Zm0 2.445v.653h4.239v-1.305h-4.239Zm251.533-15.161v2.609h-6.358v-1.956h-.326v-1.304h.326v-1.956h6.358Zm8.15-10.27v2.61h.326v-1.631h1.794v3.26h-.816v.327h.816v2.118h-3.261V331.3h1.665l-.099-.258a1.513 1.513 0 0 1-.099-.409c0-.082-.073-.149-.163-.149h-.163v.489h-1.793v.163a.165.165 0 0 0 .163.164h.162v2.118h-3.096V331.3h1.956v-.327h-.652v-4.728h-.326v4.728h-3.07l-.096-.204-.095-.203-.094.203-.096.204h-1.602v.407l1.874-.055 1.875-.053v2.146h-3.423v-.978h-.326v.978h-7.173v-.489h-.326v-2.445h.326v-2.282h-.326v-.489h.326v-.652h-.326v-.489h.326v-.652h-.326v-.489h.326v-1.304h8.802v5.542h.327v-5.542h3.097v.651h.326v-.651h3.261Zm3.912-.325v2.282h-1.467v-4.564h1.467Zm167.254-1.907v.326h.326v2.119h-.326v.489h-7.01v-3.259h7.01Zm-110.036-9.585v1.711h-.814v.326h-2.283v-.326h-.815v-3.423h3.912Zm29.507 0v1.711H416.9v-3.423h3.913Zm-92.105-2.772v1.712h-.814v.326h4.727v1.303h-6.847v7.5h-2.119v-8.803h.816v-.326h-.816v-3.424h5.053Zm21.845 0v1.712h-2.608v.326h-1.794v-.326h-.651v-3.424h5.053Zm-233.601-3.261v.571h-1.303v-1.14h1.303Zm0-3.015v.652h-1.303v-1.304h1.303Zm211.756 1.141v1.794h-1.467v-1.467h-3.586v-2.12h5.053Zm-227.568-1.956v1.63h1.468v1.956h-2.935v-5.216h1.467Zm378.683-2.608v.978h-6.031v.325h-1.467v-.489h-2.255l-.095-.203-.095-.204-.096.204-.094.203h-2.418v.978h.325v-.651h4.401v5.706h-4.401v-4.076h-.325v1.141h-.978v.326h.978v2.609h-6.033v-2.609h.816v-.326h-.816v-.489h-.325v3.424h-7.505l.078-.367c.044-.202.165-1.302.27-2.445l.191-2.079h5.335v-.326h-5.215v-1.843l1.914.108a328.419 328.419 0 0 1 3.423.211l1.509.104v1.42h-.653v.326h.653v.489h.325v-.489h2.935v1.956h-1.141v.326h2.283v-.326h-.816v-1.956h.489v-2.934h4.728v.489h.325v-.489h9.781Z"/><path d="M490.909 303.016v1.549H488.3v-1.63h-.326v1.63h-.163a.163.163 0 0 0-.163.162v.164h3.261v4.402h-.978v.325h-2.609v-.325h-.978v-4.375l.204-.095.204-.096-.204-.095-.204-.094v-1.114h-.652v.163a.163.163 0 0 0 .163.162h.163v5.544h-3.261v-5.544h1.957v-.325h-2.935v.325h.653v5.544h-4.728v-.489h-.326v.489h-3.404l-.085.138-.085.138-.373-.04a4.447 4.447 0 0 1-.739-.158l-.367-.117v-2.407h1.467v.815h1.698c.934 0 1.815.045 1.956.099l.258.099v-4.111h3.097v-.325h-.651v-1.956h7.824v.489h.326v-.489h2.609Zm-358.47 1.956v3.832h-2.771v-1.957h-.326v1.957h-2.12v-2.935h-.325v2.935h-3.261v-5.38h1.794v-.326h.978v.326h.489v1.303h.325v-1.956h2.12v1.956h.326v-2.281h-1.128c-.62 0-1.243-.045-1.385-.099l-.258-.099v-.908l.258-.099.258-.099h5.026Zm-26.082-5.135v.164h2.446v11.41h.325v-1.629h6.195v1.629h.326v-1.629h1.63v-1.909l-.816.078-.814.079v-1.224l.814.078.816.078v-1.745h2.608v8.151h-4.238v-.816h-.326v.816h-6.195v-.816h-.325v.816h-1.794v.326h-2.608v-.326h-1.467v-.816h-.326v.816h-2.935v-4.402h2.935v2.445h.326v-2.282h2.119v-5.869h-.816v.327h.489v5.217h-1.792v-6.358h-.326v1.141h-1.305v-.489h-6.031v.326h4.075v9.944h-6.194v-9.944h.978v-.326h-.978v-3.097h9.455v1.303h.326v-1.303h2.281v-.327h1.142Zm228.057-.081v4.32h-11.899v4.564h-4.402v.326h4.402v2.445h-4.402v3.097h-3.749v-10.106h1.956v-3.515l1.046-1.037 1.046-1.035-.071-.186-.072-.186.63-.615c.346-.338.697-.604.778-.588.081.015.9.019 1.818.009l1.671-.02v-1.793h11.248Zm103.84.306v4.829h-10.759v.163a.165.165 0 0 0 .164.163h.163v14.835h5.379v1.14h.327v-1.14h4.726v7.009h-4.726v-4.728h-.327v4.728h-3.26v-4.239h-.326v4.239h-4.238v-4.728h-.327v4.728h-4.726v-7.009h4.726v1.14h.327v-11.41h-.327v3.423h-3.912v-.326h-.814v-4.728h4.726v.489h.327v-.814h-5.38v3.748h-1.467v-1.467h-1.63v-2.281h-2.609v.325h2.283v8.477h-5.217v-8.802h-.325v-2.609h14.996v-.163a.163.163 0 0 0-.162-.163h-.163v-5.543h-.326v5.543h-4.402v-1.142h-.326v1.142h-4.238v-5.706h-.326v5.706h-5.053v-.489h-.327v.489h-4.564v.326h4.564v2.609h-6.031v.325h1.303v8.477h-4.564v-8.477h1.63v-.325h-3.586v.325h1.63v8.477h-4.564v-8.477h1.305v-.325h-7.336v3.748h-1.467v-1.467h-1.631v-1.956h1.467v-.325h-4.075v.325h2.283v8.477H382l.049-4.402.047-4.402h-7.417v-2.607h4.076v-.327h-1.467v-9.128h4.401v9.128h-1.631v.327h3.423v-.327h-1.467v-9.128h1.467v-.489h1.305v.489h1.63v9.128h-1.63v.327h16.465v-.327h-4.728v-9.292h14.182v7.173h.327v-7.173h5.053v2.12h.326v-2.282h4.238v7.009h.326v-7.009h4.402v2.445h.326v-2.445h11.533l.51-.102.508-.103Zm-101.721-4.789v.163h2.772v.653h.326v-.653h14.672v5.352l-.205.096-.204.095.204.094.205.095v1.278h-11.248v.325h2.118v.489h.327v-.489h19.379l.013 5.544.012 5.542h-4.081v-5.869h2.445v-3.097h.489v-.326h-13.856v.326h.652v3.913h-1.467v-1.467H345.5v-2.446h.814v-.326h-.787l-.096-.204-.095-.203-.094.203-.096.204h-6.955l-.095-.204-.096-.203-.094.203-.095.204h-1.767v-1.794h1.794v.489h.326v-.489h3.423v-.325h-1.956v-2.445h5.869v-.327h-5.869v-2.118h-.326v1.14h-4.564v-1.535c0-.845.044-1.652.099-1.794l.099-.257h1.594Zm14.672 2.283a.163.163 0 0 0 .163.162h.163v1.305h-1.63v-1.305h.163a.163.163 0 0 0 .162-.162v-.164h-.978v.164a.164.164 0 0 0 .164.162h.163v1.305h-1.63v-1.305h.163a.163.163 0 0 0 .162-.162v-.164h-.651v3.75h.651v-.163a.163.163 0 0 0-.162-.164h-.163v-1.467h1.63v1.467h-.163a.164.164 0 0 0-.164.164v.163h.978v-.163a.163.163 0 0 0-.162-.164h-.163v-1.467h1.63v1.467h-.163a.163.163 0 0 0-.163.164v.163h1.304v-.327h-.652v-3.423h-.652Zm-314.153-3.142-2.219-1.093-2.409 4.96 2.272 1.037Zm426.96-.648c0 .245-.085 1.939-.192 3.762l-.192 3.314-1.234-.053-1.235-.052-.05.692-.051.691-.438.001c-.243 0-1.76-.084-3.374-.19l-2.934-.19-.093-.14-.093-.139.118-1.016a98.236 98.236 0 0 0 .227-2.288l.11-1.272-.138-.195-.137-.195.055-1.335.056-1.336.233.09.232.089v-.687h9.129Zm-218.766-3.546v.163h3.586v2.282h-4.891v-2.143l.234-.232.232-.234h.839Zm-205.544-1.093-7.264-3.56-2.079 4.124 1.262.632 1.242-2.474 3.779 1.834-.436.978 2.229 1.055Zm127.622-6.407v.327h-2.934v-.652h2.934Z"/><path d="M169.118 282.625v1.536l-.205.095-.203.095.203.095.205.095v3.234h-6.684v-3.261h5.414l-.099-.258c-.053-.142-.099-.692-.099-1.223v-.964h-3.586v1.304h1.468v.815h-3.098v-.978h-.326v-.979h.326v-1.14h6.684Zm38.308.408c0 1.069-.044 2.059-.098 2.201l-.099.258h-.805l-.232-.233-.234-.233v-2.631h-.325v2.771h-4.076v.326h3.423v1.305h-3.097v.325h3.424v-1.63h.326v20.703h-2.771v.326h2.771v3.912h-2.771v.327h-1.468v-.327h-3.423v-3.26h-2.445v-21.681h3.912v6.195h.327v-6.195h.651v-.326h-.651v-2.806l-.258.099c-.142.055-.656.099-1.141.099h-.884v2.608h-1.956v-2.771h-.327v-.838l.234-.234.232-.232h3.746l.096.204.094.203.095-.203.096-.204h5.814l.094.204.096.203.095-.203.096-.204h1.439Zm-7.988 14.685v3.75h.327v-7.499h-.327Zm0 7.418v1.385h1.467v-.326h-1.14v-2.446h-.327Zm72.216-27.061v.408h.325v.489h-.325v.652h.325v.489h-.325v.651h.325v.489h-.325v.653h.325v.489h-.325v.652h.325v.489h-.325v.652h.325v.489h-.325v.653h.325v.489h-.325v.651h.325v.489h-.325v.652h.325v.489h-.325v.653h.325v.489h-.325v.652h.325v.489h-.325v.651h.325v.489h-.325v.653h.325v.489h-.325v.652h.163c.089 0 .162.078.162.175 0 .259-.429.64-.721.64h-.257v.326h.978v1.304h-.978v.327h.653v.489h.325v.489h-.325v.651h.325v.489h-.325v.652h.325v.489h-.325v.653h.325v.489h-.325v.652h.325v.489h-.325v.651h-8.477v-3.423h4.238v1.631h.327v-1.956h-4.565v-9.945h2.445v6.195h1.631v-.326h-1.305v-6.194h-2.771v-10.597h8.477Zm205.399-6.113v.163h2.77v2.608h-2.77v.327h-1.305v-.327h-2.608v-2.608h1.956v1.141h.326v-1.001l.233-.234.233-.232h1.165Zm-400.668 23.84.057-.097c.254-.425.463-.872.692-1.309.663-1.288 1.304-2.588 1.947-3.885a15.664 15.664 0 0 1-1.246-.674l.467-.95.468-.951s.628.347 1.291.602c0 0 .264.159.894.253.454.067 1.173-.292 1.173-.292l-4.364-1.906.841-1.645.827-1.69 4.135 2.315s-.115-.814-.354-1.127c-.496-.653-2.067-1.337-2.067-1.337l.431-.876.432-.878s1.327.526 1.901.935c.619.441 1.299.916 1.619 1.604.301.649.246 1.428.174 2.14a6.297 6.297 0 0 1-.625 2.136c-.302.607-.728 1.157-1.206 1.639l2.746 1.359 5.401-10.828c-.545-.328-1.118-.599-1.68-.892-1.36-.695-2.724-1.381-4.086-2.072l-.242.139-.322-1.162c-.831-.431-1.672-.845-2.493-1.297-.188-.115-.398-.214-.545-.383-.049-.076.039-.055.081-.018 1.045.537 2.096 1.061 3.138 1.605.155.092.329.165.454.297.025.085-.024.175-.026.263l-.048.313 5.879 2.941.881-1.793c-.801-.446-1.626-.848-2.441-1.268-1.007-.511-2.014-1.019-3.02-1.529l-.256.142c-.209-.727-.439-1.448-.619-2.181-.002-.059-.063-.152.02-.175-.017-.069-.017-.151-.094-.18-.584-.325-1.19-.611-1.785-.913-1.294-.64-2.587-1.28-3.894-1.888-.203-.098-.416-.175-.625-.258-1.901 3.81-3.797 7.622-5.718 11.423l-.516.027-1.247 2.391.458.225c-1.36 2.723-2.721 5.444-4.082 8.166l7.194 3.539Zm61.271-25.308v1.468h-2.445v-2.935h2.445Zm15.65-8.883v.407h-1.305v-.815h1.305Z"/><path d="M137.656 262.507v2.119h-2.934v.326h.814v.489h.327v-.489h1.793v3.75h-1.793v-2.283h-.327v2.283h-4.237v.325h2.281v1.467h-1.467v1.468h-.814v.326h6.357v11.085h-1.304v.326h1.304v6.684h-3.75v-6.684h1.468v-.326h-2.608v.326h.814v6.533l-.356.483-.357.483h-5.268l-.295-.326-.294-.327h-.439v-6.846h5.217v-.326h-.653v-1.956h-.326v1.956h-4.238v-3.26h4.238v.162a.164.164 0 0 0 .163.164h.163v-1.142h-.326v.489h-4.238v-1.792h4.238v.162a.164.164 0 0 0 .163.163h.163v-.652h-2.446l.002-1.589a36.741 36.741 0 0 1 .105-2.69l.104-1.1h1.094v-.326h-1.141v-.652h-.489v-1.467h.489v-.816h1.141v-.325h-1.141v-3.75h1.141v-.326h-1.141v-4.238h8.803Zm6.194-1.793v.815h-2.771v-1.63h2.771Zm-89.849-2.619-.245.336-.34-.168-.341-.167-.05-.087c-.009-.087.093-.282.225-.434l.239-.277.396.195.396.195Zm330.459.744v1.549h-.815v-3.098h.815Zm-277.035 6.062 1.455-2.893c-.178-.143-.348-.296-.56-.384-.343-.154-.694-.297-1.063-.369-.092-.021-.194.004-.241.092-.274.418-.492.869-.72 1.312l-.704 1.412c.579.337 1.183.631 1.778.941l.055-.111Z"/><path d="M153.306 257.943v1.63h-1.631v2.771h1.631v1.793h.325v.978h-.325v2.609h-12.227v-3.098h1.468v-1.467h1.303v1.467h.326v-5.053h-3.097v-3.261h12.227Zm34.884-1.631v.653h-2.771v-1.305h2.771Zm9.619 0v.653h-2.772v-1.305h2.772Zm-95.128 6.308c.107-.031.218-.071.28-.17.285-.378.463-.821.677-1.239l1.343.664c.245-.54.451-1.103.758-1.613.034-.062.086-.107.138-.154l3.182 1.595c.066-.153.163-.295.209-.455.02-.179-.161-.278-.289-.358-.579-.333-1.175-.633-1.761-.953-.276-.148-.551-.294-.823-.451l.343-.696c.053.014.173-.057.178.02.034.222.068.445.104.667l2.336 1.281.492-.581.31.153.624-1.268-.28-.927c-.763-.369-1.527-.738-2.29-1.109-.099.086-.171.209-.292.264-.124.004-.182-.14-.225-.236-.045-.122-.085-.247-.129-.37l-4.773-2.34-1.617 3.292c-1.037-.51-2.074-1.019-3.11-1.531.015-.229.141-.431.225-.641.381-.835.814-1.655 1.226-2.483-.08-.151-.159-.3-.237-.452-2.83-1.392-5.657-2.786-8.487-4.18l-1.648 3.365 6.724 3.417c.001.1.036.207.015.303l-1.475 2.935c.088.132.162.276.258.399 2.655 1.29 5.311 2.579 7.966 3.867l.048-.015Zm-49.687-14.649 1.228-2.464c-.079-.153-.159-.312-.306-.409-.203-.141-.438-.226-.655-.342-.065-.022-.156-.119-.175-.005l-1.346 2.738c.399.198.799.394 1.2.591l.054-.109Zm339.454-.38v.245h-3.098v-.489h3.098Z"/><path d="M390.742 245.138v.737h-1.465l-.023 1.958-.241.002-.015-1.63.027-1.63h1.709ZM60.614 261.821l.12-.235.363.175.614-1.246-.263-.128c.64-1.295 1.289-2.585 1.932-3.877l2.66-5.331c-2.194-1.081-4.389-2.16-6.583-3.24-.394.692-.724 1.417-1.073 2.134l-.655 1.376-.373-.183.442-.51-.59-.29c.034-.096.163-.095.247-.102.144.006.289.02.433.029l1.218-2.492c-.129-.143-.256-.287-.383-.43.065-.023.126-.12.193-.084l7.208 3.653.628-1.277.35.165.522-1.06-.294-.143.372-.756c-.214-.095-.405-.229-.619-.324-.523-.247-1.051-.487-1.567-.752a264.949 264.949 0 0 0-5.789-2.842c-1.614-.772-3.207-1.585-4.81-2.384-.103-.043-.208-.122-.318-.116-.133.089-.17.259-.248.391-.407.868-.829 1.723-1.253 2.582 1.535.788 3.071 1.575 4.604 2.367-.017.051.008.203-.07.112-.194-.145-.39-.289-.585-.433-.267.449-.515.907-.768 1.363l-1.383-.499-.653 1.3 1.976.972-.107.22-.725-.357a14.249 14.249 0 0 0-.807 1.569c-.042.045-.046.193-.114.159-.054-.037-.144-.053-.176-.101.028-.297.166-.565.297-.827.169-.316.357-.619.533-.93-1.183-.601-2.367-1.204-3.554-1.801-.35.71-.67 1.432-1.023 2.138-.522 1.075-1.109 2.117-1.629 3.193-.432.864-.824 1.747-1.256 2.61l1.188.585c.168-.126.245-.333.355-.506.634-1.139 1.191-2.317 1.778-3.479.031-.08.064-.15.147-.074.055.036.156.058.184.105l-2.117 4.125c.644.317 1.29.633 1.934.951l2.534-5.151.266.182-.965 2.114.136.401c-.259.107-.439.334-.615.543-.137.177-.269.358-.405.537a55.273 55.273 0 0 1 .225.502c-.276.212-.552.423-.83.634.017.139.007.286.083.409.026.09.138.093.206.142l.716.352c.159-.411.317-.82.48-1.229l1.425.591.659-1.338-.91-.564c.02-.048-.002-.175.048-.168l.98.483c.577-1.081 1.135-2.171 1.697-3.259.055.02.201-.016.143.079-.084.368-.267.702-.42 1.044-.796 1.703-1.673 3.366-2.497 5.054a44.297 44.297 0 0 0 .916.548c.295.144.589.29.884.435.356-.781.713-1.561 1.071-2.34l.227-.022c.017.075.083.152.021.222l-1.103 2.247 4.46 2.193Zm-.957-5.248c-.194-.104-.396-.214-.541-.382-.031-.064-.111-.126-.044-.194l2.146-4.341c.393.188.785.378 1.177.567-.773 1.494-1.532 2.996-2.325 4.48-.023.106-.106.013-.166-.006l-.247-.124Zm138.152-7.433v6.194h-3.099v3.261h1.631v1.467h1.468v1.304h.325v2.282h-.325v1.793h-12.39v-5.379h1.467v-1.467h1.631v-3.261h-3.098v-12.389h12.39Zm295.708-10.514v.57h-1.141v-1.141h1.141Zm-314.619.489v1.385h-1.467v-2.772h1.467Zm-40.297-4.288c.281.281.254.388-.331 1.368l-.527.882h-.423l-.092-.239-.091-.239.347-.487c.19-.269.425-.711.519-.984.19-.542.301-.598.598-.301Zm-33.042 3.465c.756-.672 1.555-1.301 2.351-1.932l.201-.159c.418.271.816.579 1.452.832.287-.053.575-.25.862-.302.346-.522.491-.917.837-1.44a44.913 44.913 0 0 1-2.351-1.307c-.1-.033.009-.115.027-.175a17.733 17.733 0 0 0 .867-1.747c-.361-.222-1.385-.722-1.385-.722l-.777-.38-.371-.192-.114.207-.208.414s-.265.583-.481.964c.243.544.615 1.261.843 1.807.031.097.093.203.065.307-.08.089-.194.134-.291.2a9.992 9.992 0 0 1-.614-1.24c-.167-.397-.29-.81-.428-1.219l.948-1.669-5.929-2.917c-.413.786-.818 1.578-1.244 2.356l-.316-.247-.837 1.573.396.38-1.345 2.734c2.488 1.254 5.292 2.673 7.78 3.928l.062-.054Zm101.378-7.817v.896h-3.749v-1.792h3.749Z"/><path d="m130.785 230.16 2.34 1.386.187-.156.188-.155.858.516.857.516-.076.199-.077.198.165.103.165.102-.254.386c-.14.213-.254.521-.254.683v.297l.482.285.483.285-.101.28a3.624 3.624 0 0 1-.319.602c-.12.177-.218.371-.218.432 0 .13 2.61 1.828 2.684 1.746.026-.03.412-.615.857-1.298l.806-1.243 1.779 1.053c.98.58 1.803 1.076 1.831 1.104.047.047-.304.818-1.905 4.19-.797 1.679-.808 1.926-.086 1.926.039 0 .707-1.32 1.482-2.934l1.411-2.935h20.32v-.325h2.12v.325h9.292v1.305h-1.468v1.794h4.564v9.128H166.51v.326h-2.12v-.326h-1.141v.326h-.489v-.326h-.652v.326h-.489v-.326h-.653v.326h-.489v-.326h-.651v.326h-.489v-.326h-1.794v.326h-.489v-.326h-.652v.326h-.489v-.326h-.651v.326h-.489v-.326h-.816v.326h-.489v-.326h-15.307l.968-1.997a191.205 191.205 0 0 1 1.304-2.646l.335-.649-.284-.207c-.155-.113-.325-.206-.379-.206-.053 0-.681 1.211-1.395 2.693l-1.298 2.695-3.338-1.943-3.338-1.941-.167.217-.168.219-.854-.519-.855-.52.079-.248.079-.248-3.625-2.1a341.682 341.682 0 0 1-3.683-2.148c-.073-.061 6.713-11.633 6.822-11.633.044 0 1.135.625 2.421 1.386Zm15.185 13.274v.978h25.104v-1.956H145.97Zm252.998-19.561v.162h1.141v8.478h-.978v-4.239h-2.771v4.239h-5.054v-3.587h-2.281v-4.891h3.259v-.325h6.684Zm94.712-.163v2.445h1.304v11.573h-2.934v2.935h2.934v3.587h-1.304v4.89h-1.793v-4.89h-2.119v1.068l-1.024 1.014-1.023 1.015-4.071-.014-4.071-.013-1.181-1.358-1.183-1.36v-.841h-2.934v-2.772l-.449-.012-.447-.012-1.02-1.198-1.018-1.199v-7.162l1.1-1.074 1.1-1.074.53-.003.53-.003v-2.934h2.935v-1.377l.931-.941.933-.943 4.162.004 4.162.002 1.1 1.074 1.101 1.074v.944h1.956v-4.89h1.793Zm-29.669-5.135v.896h.327v.978h-.327v3.586h-2.934v-6.357h2.934Zm-79.551.489v1.548h-.979v-3.097h.979Z"/><path d="M384.46 216.944v.408h-3.586v1.63h-2.446v1.786l3.057.048 3.056.049-3.138.037-3.137.036v4.891h.325v-4.564h5.869v6.846h-5.869v-1.304h-.325v1.63h6.194v16.791h-6.194v11.737l3.137.037 3.138.036-2.974.048-2.976.049v1.786h2.445v1.63h3.424v2.094c0 1.152.047 2.656.106 3.342l.105 1.248h-16.35v-22.66h-.325v-5.705h.325v-22.333h16.139Zm31.136-2.363v.162h1.304v5.217h.325v-5.217h4.239v10.759h-4.239v-4.564h-.325v4.891h4.564v.815h.327v-11.901h20.05v6.195h-10.107v-3.749h-.326v4.076h10.759v-6.522l5.147-.002 1.026 1.012.218-.191 2.457 2.5-.201.27.917.902.107 9.085.107 9.084h-5.702v1.141h5.705v2.119h.326v2.12h-.326v5.053h-12.063v.326h-5.054v-.326h-23.31v-3.913h-.816v.327h.489v3.586h-6.846v-3.913h-3.586v-1.304h-.327v1.304h-1.629v.327h1.629v1.141h.327v-1.141h3.259v3.586h-3.259v-1.794h-.327v1.794h-4.564v-3.586h.815v-.327h-2.119v.327h.978v3.586h-2.772v-3.586h.978v-.327h-1.303v.327h-3.423v-1.142h-.327v-1.467h.327v-.978h7.661v-.325h-7.661v-7.5h.489v-.325h-.489v-1.956h1.956v1.956h-.489v.325h6.194V228.6h2.12v4.238h10.106v-.325h-.489v-6.033h-.326v6.033h-7.662v-8.478h7.662v.978h.326v-.978h.489v-.325h1.136l.092.369.092.369-.049 4.195-.049 4.195h.409v-9.128h-.327v-1.794h.327v-2.771h-.327v-2.282h.327v-2.12h2.281v-.325h2.772Zm29.831 13.367v4.565h3.097v-9.129h-3.097Zm-4.238 0v4.565h.978v-9.129h-.978Zm-5.053 0v4.565h.978v-9.129h-.978Zm-5.38 0v4.565h.978v-9.129h-.978Zm-5.868-3.749v.814h3.096v-1.629h-3.096Zm0 3.586v.815h3.096v-1.631h-3.096Zm-3.424 1.549v.245H416.9v4.564h.325v-4.239h4.239v10.433h-4.239v-5.054h-.325v5.054h-6.684v.326h11.575v-11.574h-.327Zm3.424 2.201v.814h3.096v-1.63h-3.096Zm13.041 3.341v.734h7.825v-1.467h-7.825Zm-10.27 0v.734h7.825v-1.467h-7.825Zm14.997 3.016v.325h1.142v1.305h-.653v.652h-2.282v-.652h-.489v-1.305h1.141v-.651h-1.794v3.261h.816v.651h2.934v-.651h.978v-3.261h-1.793Zm-10.433 0v.325h1.141v1.305h-.652v.652h-2.282v-.652h-.489v-1.305h1.142v-.651h-1.794v3.261h.815v.651h2.935v-.651h.978v-3.261h-1.794Zm-33.417 2.608v.163h1.629v.978h.327v-.978h8.476v-.326h-10.432Zm70.585-31.625v.489h.326v.978h-.326v.978h-6.358v-2.934h6.358Zm-84.931 3.016v4.32h-16.139v-3.586h-.325v-3.424h.325v-1.629h16.139Zm-41.243-2.934v1.874h8.314v1.142h.489v5.542h-.489v13.693h-4.728v22.334h2.633l-.024 1.14.374.012-.109 1.84-.393-.001-.033 1.285c-.057.813-.073 1.989-.105 2.687l-.06 1.329-.612.89-.695.77-.843.271-.988.165-1.376-.033-1.437-.116-1.654-.462a11.367 11.367 0 0 1-1.991-.785l-.658-.19h-6.426l-1.436-.151-1.366-.492-1.221-1.287v-42.645l.922-2.776.922-2.776 1.807-1.303 1.807-1.302 2.121-1.04 2.12-1.04.816-.222.814-.224 1.753-.002 1.752-.001Zm-4.728 19.969v3.26h1.794v-2.445h1.63v-4.075h-3.424ZM206.937 205.86v.896h-3.749v-1.794h3.749Zm280.222-3.668v1.467h-2.608v.325h-.978v-.325h-2.772v-2.934h6.358Zm-139.051-2.69v1.548h-.978v-3.097h.978Z"/><path d="M235.79 218.656v-7.336h2.934v-4.075h.327v4.075h4.564v-4.075h.326v-1.956h-.326v-1.794h-4.564v1.794h-.327v-1.794h-7.335v-6.682h-3.786v-.463h3.715v-.213h.495v6.936h6.228v-.708h.495v.672h3.079v-1.557h2.017v-.458h.291v-.632h-.291v-.684h.291v-.632h-.291v-.684h.291v-.632h-.291v-.649h.291v-.632h-.291v-.702h.291v-.632h-.291v-.632h.291v-.632h-.291v-.684h.291v-.632h-.291v-.685h.291v-.632h-.291v-.649h.291v-.632h-.291v-.702h.291v-.632h-.526v.04h-7.904v1.026h-1.521v-.384h1.166v-3.912h-3.585v3.912h1.287v.384h-1.027v3.786h2.902v6.688h3.821v.991h-.495v-.602h-3.786v-6.652h-2.442v1.026h-.495v-5.272h-8.35v6.758h1.839v-2.618h3.15v.425h-2.69v2.123h1.274v.463h-4.769v1.303h-7.173v-.652h-12.064v4.075h19.237v5.217h2.281v-4.728h-.652v-.325h.978v5.38h-6.194v3.096h-.326v-3.096h-3.587v3.096h-.325v1.957h.325v6.52h3.587v-6.52h.326v6.52Zm257.564-27.06v.489h-3.097v-.978h3.097Zm-1.63-2.772v.653h-1.467v-1.305h1.467Zm29.342-1.385v1.711h-.978v.327h-1.14v-.327h-1.305v-3.423h3.423Zm-27.712-.652v1.223h-4.891v-.489h-.326v-1.142h.326v-.814h4.891Z"/><path d="M205.469 188.24v2.84l-.203.094-.204.095.204.096.203.095v2.581h-4.401v1.304h.326v-.978h4.075v2.771h-6.031v-5.705h4.564v-.326h-4.564v-5.38h3.913v2.608h.326v-2.934h1.792Zm11.737-1.372v1.467h.327v-2.608h4.401v5.706h-6.52v-6.032h1.792Zm-53.142 4.157v6.277h-3.587v.325h-1.14v-.325h-.489v-9.619h-.327v3.586h-7.172v-5.704h7.172v.978h.327v-1.794h5.216Zm184.044-3.015v4.237h-5.706v.327h.815v2.282h.327v-2.282h4.564v1.467h.326v2.283h-.326v1.14h-4.564v-1.63h-.327v1.63h-.815v.327h3.098v1.629h-1.467v1.63h-7.989v-.978h-.325v-1.303h.325v-.978h1.631v-.327h-1.631v-4.89h3.912v4.89h-1.303v.327h2.771v-.327h-1.141v-4.89h1.141v-.327h-5.38v-8.476h12.064Zm-217.299.162v5.869h-1.793v.326h5.217v1.304h.325v-1.304h3.587v5.705h.325v-2.445h7.825v11.085h-7.825v-7.498h-.325v1.956h-.978v.325H135.7v-.325h-1.142v-6.357h-.325v1.14h-10.108v-3.586h3.75v-.326h-1.304V192.9h-.327v1.141h-2.119V192.9h-.326v-1.142h.326v-.489h2.119v.489h.327v-.814h-2.446v-8.64h6.684Zm390.257-4.564v1.793h-3.423v-.815h-.326v-1.141h.326v-1.63h3.423Zm-98.461-11.656v4.81h-1.792v.325h4.401v3.098h.325v-4.239h3.75v4.239h.326v-4.239h4.564v14.02h-8.64v-7.173h1.467v-.327h-6.193v.327h4.401v7.173h-6.684v.325h-.489v-.325h-.652v.325h-.489v-.325h-.653v.325h-.489v-.325h-1.956v-3.912h3.912v-1.957h-.325v1.63h-3.587v-1.793h-.325v-.489h.325v-.815h-.325v-.489h.325v-.815h-.325v-.489h.325v-.816h-.325v-.489h.325v-.814h-.325v-.489h.325v-1.956h3.75v1.303h.326v-1.63h-4.076v-.978h-.325v-.978h.325v-.652h5.217v-.326h-5.217v-5.868h8.803Zm10.923-7.58v.489h-3.098v-.978h3.098Z"/><path d="M434.179 164.861v.978h.327v.489h-.327v.816h.327v.489h-.327v.815h.327v.489h-.327v.814h.327v.489h-.327v.816h.327v.489h-.327v.815h.327v.454l-.258.099c-.142.055-.509.099-.816.099h-.557v.326h1.304v.652h.327v.978h-.327v.652h-2.771v-.652h-.325v.652h-5.869v1.156l-1.1-.048-1.101-.048-.05-4.279-.05-4.279h2.301v-2.446h2.281v4.728h-2.281v-1.467h-.326v4.401h6.195v.652h.325v-.652h.489v-.326h-.489v-2.608h-.978v-3.912h1.467v1.467h1.793v-4.076h.489Zm111.829-1.792v.489h-3.098v-.978h3.098Z"/><path d="M434.179 149.293v4.646h-3.096v.327h3.096v.978h.327v.489h-.327v.814h.327v.489h-.327v.816h.327v.489h-.327v.815h.327v.489h-.327v.814h.327v.49h-.327v.815h.327v.489h-.327v.816h.327v.489h-9.618v3.259h-11.086v-9.781h-.325v-.489h.325v-.814h-.325v-.489h.325v-.978h15.65v-.327h-1.957v-1.304h-.325v1.304h-13.368v-4.564h-.325v-2.282h.325v-2.446h5.869v5.38h7.499v1.141h.325v-1.467h-7.498v-5.054h5.542v2.608h.327v-2.608h8.313Zm-341.352-.815v5.299h-5.706v6.357h-.815v.325h-1.304v-.325h-.816V143.18h1.794v.816h-1.304v.489h1.793v-1.305h6.358Zm468.177 4.89v10.352h-7.172v-12.226h-.815v.146c0 .079.11.188.245.239l.244.094v15.008h-1.956v-7.336h-.326v2.119h-2.282v-4.728h2.282v1.467h.326v-4.401h-6.195v-.652h-.326v.652h-.489v.326h.49v2.608h.978v3.913h-1.468v-1.468h-1.793v4.077h-.489v-1.957h-.326v-.489h.326v-.815h-.326v-.489h.326v-.816h-.326v-.489h.326v-.814h-.326v-.489h.326v-.815h-.326v-.49h.326v-.815h-.326v-.454l.258-.099c.142-.055.509-.099.815-.099h.557v-.326h-1.304v-.652h-.326v-.978h.326v-.651h2.771v.651h.326v-.651h6.684v-.327h-10.107v-.489h.326v-.815h-.326v-.489h.326v-.815h-.326v-.489h.326v-.815h-.326v-.489h.326v-.816h-.163c-.237 0-.2-.313.07-.582l.233-.232h8.99v-2.445h9.616Zm-80.039-17.279v1.549h-.978v-3.098h.978Zm62.597 0v1.549h-.978v-3.098h.978Z"/><path d="M494.495 138.616v-.326h.652v-11.248h-3.097v3.912h-.326v-3.912h-.864v-.369h5.555v-9.37h-4.568v-.389h-2.544v.389h-4.905v4.361h4.905v3.141h-.415v-2.752h-2.129v1.973h-.96v-.415h.519v-1.584h-1.843v1.584h.416v.415h-.468v2.621h4.465v-.727h.415v.753h.649v.369h-13.388v1.956h7.335v.327h-2.12v2.281h4.728v-2.281h-1.467v-.327h4.402v6.195h.651v.325h-.651v.489h-.327v-.489h-2.608v-.978h-3.912v1.467h1.467v1.794h-4.075v.489h1.956v.326h.489v-.326h.815v.326h.489v-.326h.815v.326h.489v-.326h.815v.326h.489v-.326h.815v.326h.489v-.326h.815v.326h.455l.099-.258c.054-.142.098-.508.098-.815v-.558h.327v1.166l.232.232c.27.269.583.307.583.069v-.162h.815v.326h.454l.099-.258c.054-.142.099-.838.099-1.549v-1.291h-.652v-.325h.652v-3.261h.326v6.358h.815v.326Zm-13.965-11.969v-2.284h-3.686v-.467h4.205v2.725h2.933v-9.292h-2.725v-.441h-2.57v.441h-2.751v7.45h-.441v-7.45h-2.284v9.318h2.284v-.727h.441v.727Zm66.456 1.372v.979h-7.336v.327h2.12v2.281h-4.728v-2.281h1.467v-.327h-4.401v6.195h-.653v.325h.653v.489h.326v-.489h2.608v-.978h3.912v1.467h-1.467v1.794h4.075v.489h-1.956v.326h-.489v-.326h-.815v.326h-.489v-.326h-.815v.326h-.49v-.326h-.814v.326h-.49v-.326h-.814v.326h-.49v-.326h-.814v.326h-.455l-.099-.258c-.054-.141-.099-.508-.099-.815v-.558h-.325v1.305h-.653v.326h-.978v-.326h-.652v-2.772h.652v-.325h-.657l.043-4.035.044-4.034 7.54-.043 7.539-.043Zm-215.77 20.161c1.406-.853 2.823-1.686 4.214-2.562.34-.22.69-.426 1.009-.676.109-.085.029-.225-.017-.323-.351-.69-.756-1.352-1.152-2.016a69.403 69.403 0 0 0-1.995-3.143l-1.651.91-.454-.079c-.076-.233-.186-.467-.175-.717l1.496-.835-2.616-4.533c-.703.377-1.416.718-2.136 1.068-.106-.063-.225-.112-.324-.182l-5.345-9.351-2.697 1.686c-.153-.251-.278-.534-.51-.725-.127-.086-.275.02-.389.082-.275.169-.516.387-.771.583l.506.681-2.129 1.338c.078.137.157.272.236.408l-.489.281.772.208a51.118 51.118 0 0 0 .292.507l-.343.41c.234.07.467.141.701.21l.251.434-.383-.011c.092.138.148.304.269.422.115.102.273.126.42.12l.307.533-.342.411a93.06 93.06 0 0 1 .701.209l.298.516-.363.519.631-.055c.128.222.255.444.384.665l-.364.52.631-.055a117.91 117.91 0 0 1 .297.515l-.174.653c.16.014.327-.013.482.035.251.119.338.416.357.671l.04.344.478.015c.063.166.11.363.011.526-.009.059-.097.14-.057.185.253.197.569.351.716.651.112.227-.009.47-.055.698-.031.083-.047.154.067.127.15.012.318-.023.445.079.126.077.204.206.297.317-.065.126-.13.252-.193.378.194.116.425.187.582.357.16.204.124.48.154.722-.003.077 0 .152.094.157.163.071.346.105.49.21.058.081.044.185.053.269l.017.51.515.277c1.442-.81 2.874-1.637 4.326-2.426.378-.201.752-.414 1.146-.589.072-.017.155-.047.175.051l.414.717c-.23.181-.453.336-.7.499-.671.441-1.366.846-2.052 1.264.91 1.4 1.818 2.801 2.744 4.189.26.392.507.799.754 1.203l.104-.062Zm-201.813-6.843.193-.128-.197-.066-.197-.065v-.761l.204-.094.203-.096-.203-.095-.204-.095v-.761l.204-.095.203-.096-.203-.094-.204-.095v-.761l.204-.095.203-.095-.203-.096-.204-.094v-.761l.204-.095.203-.095-.203-.095-.204-.096v-.76l.204-.096.203-.095-.203-.094-.204-.095v-.761l.204-.095.203-.096-.203-.095-.204-.094v-.762l.204-.094.203-.095-.203-.096-.204-.095v-.76l.204-.096.203-.095-.203-.094-.204-.096v-.76l.204-.096.203-.095-.203-.095-.204-.094v-.762l.204-.094.203-.096-.203-.095-.204-.095v-.761l.204-.095.203-.096-.203-.094-.204-.095v-.761l.204-.095.203-.095-.203-.096-.204-.094v-.761l.204-.095.203-.095-.203-.095-.204-.096v-.76l.204-.095.203-.096-.203-.094-.204-.095v-.761l.204-.095.203-.096-.203-.095-.204-.094v-.789l.327-.162-.338-.164h-7.162v18.618l3.546-.006 3.652-.006Zm402.096-2.721v-6.846h-2.445v-.327h2.445v-4.212l-1.752-1.699c-.88-.852-2.142-2.071-3.012-2.909v-2.19h-2.089v3.43h-.32l-.005-6.534h-3.086v-.422h-1.782v.422h-2.625v14.114h2.445v.327h-2.445v6.846h.163a.164.164 0 0 0 .163-.164v-.162h.815v.326h.489v-.326h.815v.326h.49v-.326h.814v.326h.49v-.326h.814v.326h.49v-.326h.815v.326h.489v-.326h.815v.326h.489v-.326h.815v.326h.489v-.326h.815v.326h.489v-.326h.815v.326h.49v-.326h.814v.326h.49v-.326h.814v.326Zm-4.564-6.846h-5.706v-.327h3.098v-3.096h.326v3.096h2.281Zm-131.906-4.704-.272.185-3.384 1.8 1.522 2.614 3.343-1.829-.794-1.374.314-.167ZM103.097 107.48v.163h4.89v12.879H96.739v-12.879h4.728v-.325h1.63Zm312.285-13.22 17.12-9.832c-1.397-2.455-2.77-4.925-4.151-7.391-.184.033-.371.064-.535.16-.207.107-.398.241-.591.371l-.175-.302 1.085-.626-1.983-3.373a3916.64 3916.64 0 0 0-3.296 1.902l1.906 3.417 1.118-.645c.038.04.193.056.12.118-.211.248-.5.413-.774.582a9.303 9.303 0 0 1-.594.311c-.392-.7-.8-1.392-1.181-2.098-.182-.332-.328-.69-.572-.982a.715.715 0 0 0-.671-.247c-.421.067-.799.278-1.175.466-1.01.537-1.993 1.12-2.993 1.675-1.54.862-3.08 1.724-4.63 2.559a5.038 5.038 0 0 1-.449.22c-.886.462-1.748.971-2.616 1.467l-1.519.874c.339.637.676 1.275 1.014 1.913l-.213.395 4.23 7.435.413.021c.337.556.673 1.114 1.008 1.67.034-.02.07-.039.104-.06Zm2.499-12.725-.295-.597 2.841-1.718c.214.145.327.386.454.6.139.255.257.517.386.78-.925.496-1.834 1.027-2.788 1.467a.856.856 0 0 1-.293.083c-.101-.205-.204-.409-.305-.615Zm-315.6-5.68v1.467h1.631v3.261h-1.142v.326h-1.141v-.326h-.651v-6.195h1.303Zm1.631-3.097v1.467h-2.934v-2.934h2.934Zm-3.261 2.445v5.38h-.815v.326h-1.141v-.326h-5.217V69.824h7.173Zm45.319-5.542v1.467h-4.891v.325h4.891v4.239h-4.891v.327h4.891v4.564h-.653v.326h-1.792v-.326h-8.314v.326h-1.956v-.326h-2.446v.326h-1.793v-.326h-1.305v-4.564h5.055v-.327h-5.055v-4.239h5.055v-.325h-5.055v-2.934h18.259Zm-42.058-2.527v1.06h-2.966l.092-.856c.05-.471.105-.947.123-1.06l.034-.204h2.717Zm-2.345-.48-.096.254.563.235c.309.129.638.236.731.236h.169v-.455l-.611-.253-.635-.262c-.013-.005-.067.105-.121.245Zm38.534-1.721v2.935h-12.39v-5.869h12.39Zm114.273 6.195v9.455h-6.683v-5.706h-.326v5.706h-2.119v.326h-2.772v-.326h-2.119V67.379h4.564v-.327h-2.607v-5.379h5.053v5.379h-1.141v.327h1.141v.978h.326v-6.684h6.683Zm-132.367-1.304h-1.467v10.759h-5.38v.326h-1.467v-.326h-7.5v.326h-1.467v-.326h-.489V61.999h5.38v4.89h7.824v-.326h-7.498v-4.564h10.597v4.564h-1.468v.326h1.468v1.468h1.467Zm-7.336-25.104v.652h-.164a.163.163 0 0 0-.162.162v.164h2.607v5.053h-.651v-1.467h-1.956v.326h1.629v1.141h-4.726v-1.956h1.303v.652h.326v-5.38h1.794Zm-.978-1.631v.653h-.816v-1.305h.816Z"/><path d="M116.952 42.844v.409h.327v1.303h-.327v.816h-1.182l.078-.816.079-.814h-.604v-1.305h1.629Zm392.319 7.087 3.05-1.761-.771-1.532 2.254-1.313.11-.413c-.34-.548-.675-1.099-1.012-1.649-.12-.19-.298-.389-.542-.388-.309.009-.582.177-.85.314-.842.472-1.672.965-2.51 1.442-.31.178-.619.355-.928.534l-.123-.214c1.505-.896 3.01-1.794 4.514-2.691.178.068.273.245.382.389.226.335.412.693.618 1.04l4.025-2.477c.075.042.15.082.227.122l-.147.274-.543.086c.366.54.717 1.091 1.098 1.62l.555-.32a71.66 71.66 0 0 0 .202.35c-.243.092-.455.245-.66.4l.788 1.194c.776-.438 1.551-.875 2.327-1.311l-.947-1.23-.816.353-.123-.214c.263-.195.572-.314.87-.45-.32-.551-.637-1.101-.955-1.653l-.878.507c-.061-.04-.15-.066-.192-.118.173-.198.402-.337.605-.503l.203-.156-.426-.941a3.315 3.315 0 0 1 .55-.322c.233-.145.398-.369.585-.565l-1.24-2.041c-.776.448-1.55.897-2.325 1.347l-.15-.259a5.657 5.657 0 0 0 .784-.519c-.727-1.274-1.43-2.561-2.187-3.818-.138-.216-.258-.449-.425-.644-.062-.047-.136-.075-.203-.114l-2.34 1.235a84.821 84.821 0 0 1 1.59 2.523c.433.714.853 1.436 1.278 2.155l.596-.345.327.203-5.356 3.055.304.163c-.184.219-.438.362-.666.529-.806.554-1.641 1.064-2.465 1.591l-.191-.332.61-.167c-.281-.411-.548-.831-.845-1.232-.05-.04-.084-.169-.155-.095l-2.369 1.389.853 1.3 1.128-.627.208.239a4.242 4.242 0 0 0-.847.635c-.14.128-.289.248-.439.364-.351-.511-.683-1.035-1.059-1.528-.081-.104-.219-.023-.316.015-.666.303-1.284.698-1.906 1.079l1.636 2.834c.217-.058.433-.118.65-.178.029.058.101.122.012.164l-.421.416.62.85c.17.001.345.02.512.009.586-.365 1.18-.713 1.755-1.094l.175-.135c-.272-.359-.553-.71-.813-1.078-.37.173-.738.347-1.107.521-.026-.044-.161-.093-.076-.134l1.128-.867c.24-.006.486-.014.705-.123a1.197 1.197 0 0 0 .306-.207l.18.312-.69.28c.646 1.03 1.272 2.071 1.951 3.079.225.294.44.594.644.903l.099-.057ZM121.354 34.286v2.283h.326v.978h-.978v-.327h-3.423v-1.303h1.63l.001-.449.001-.448.488-.734.488-.733.001-.774.001-.774h1.467Zm5.706-2.934v.653h-4.564V30.7h4.564Zm428.37-6.997.863-.378c.232.04.46.115.696.128.196.005.308-.179.386-.333l.278-.542 1.04-.494c-.534-.963-1.062-1.932-1.678-2.846-.256-.391-.51-.784-.766-1.176-.305.153-.611.312-.917.448-.007-.068-.046-.147-.032-.209.251-.211.502-.421.754-.63l-.226-.392c.075-.06.15-.12.225-.178l.06.373c.146.002.299.028.434-.044.713-.297 1.383-.684 2.07-1.035.151.06.356.101.413.275.106.22.255.415.39.618a43.07 43.07 0 0 1 2.346-1.473l.345-.206-2.467-4.273a459.383 459.383 0 0 0-4.127 2.672c-.336.218-.678.429-1.02.639l.894 1.549c-.07.042-.14.082-.212.122l-.256-.443c-.612.401-1.228.797-1.883 1.123-.081.073-.082-.079-.12-.13l-.583-1.355-1.09.629c.297.425.558.892.97 1.217.11.046.06.084-.026.121l-1.784 1.029c.037.192.062.389.162.561.216.43.51.813.768 1.218l.194.291 2.479-1.56c.149.028.314.027.442.119a385.11 385.11 0 0 0-3.672 2.266l1.21 2.306c.616-.331 1.224-.68 1.848-.997.177-.079.373-.197.58-.189.158.036.228.206.318.324.197.3.4.597.6.895l.094-.04ZM89.101 204.443l2.696-5.047-1.278-.683.292-.517 1.309.664 1.592-2.827.714-1.812.22-1.455-.055-1.921-.11-1.153.6-.408-2.455-4.156-.588.392-.577-.713-1.729-1.428-2.168-1.043-1.427-.411v2.36h-.467v-2.498l-1.537-.466h-6.175v2.964h-.413v-2.993h-7.434v10.285h5.541v.575l-.688.003v.639h-.423v-.678h-2.427v3.737l1.117 1.288 1.31-.672v-2.468h.423v6.05l4.661 2.389 2.716-4.986.451.253-1.398 2.617Zm.024-6.474-5.035-2.691-.583 1.092-.44-.248 2.182-4.006-8.362.031v-.57h.658v-5.782h.413v5.782h7.712v-5.782h.467v1.262l1.07.22 1.071.851-1.729 1.455 1.976 2.634 1.125-.658-1.18-2.196.412-.302 1.509 3.019-2.223 4.776 1.232.625Zm-12.127 31.276-1.935 3.618-3.313-1.772.251-.469-.454-.243-.27.504-.722-.386.308-.576-.431-.231-1.416 2.648.347.186.909-1.701.873.467-.949 1.774.38.203.919-1.718 3.335 1.784-1.947 3.64-3.326-1.78.718-1.342-.382-.204-.921 1.723 3.711 1.986-.24.448.352.188-.576 1.077-.323-.173-.218.408-1.333-.713.634-1.186-.408-.219-.63 1.178-1.578-.844.627-1.172-.39-.209-.622 1.162-.904-.483 1.976-3.694-.352-.188-.196.368-.887-.475 1.932-3.612-.392-.209-.311.582-3.167-1.694 1.947-3.639 3.171 1.696-.242.452.404.216.243-.454.869.465-.247.461.433.232.242-.452.705.377-.249.466.465.248.264-.494Zm3.831 142.361-.645 4.891 7.185.898.178-1.421.551.069.254-2.032-.501-.062.18-1.442Zm-2.142 15.389-.646 4.89 7.186.898.177-1.421.552.069.254-2.031-.502-.063.181-1.442Zm-48.618-15.338v.374h.706v11.791h.498v-11.75h3.654v15.362h-3.654v-2.367h-.498v2.367h-.914v.789h.416v-.416h4.691v4.401h-4.691v-2.615h-.416v2.615h-.29v.54h5.397v2.865h.457v1.162h-.457v.457h-5.397v.378l.664-.005.065 8.545-1.394.01v.455h1.329v6.31h.374v-1.411h4.359v6.892h-4.359v-4.443h-.374v4.443H19.316v-8.885h2.616v1.163h3.902v-4.069h1.246v-.441l-1.274.01-.024-3.101-.965.007-.041-5.443 1.224-.009v-.406h-1.619v5.854h-6.186v-15.694h6.186v5.356H26v-.54h-1.162v-4.857h.83v-5.813h-.457v.125h-1.702v-1.37h1.702v.166h.457v-.208h1.163v-8.22h1.951v-.374ZM234.367 80.978v-.451h.205v-5.372h-4.839v.943h-2.017V74.01h-2.122v-1.915h4.139v2.567h4.88v-3.978h-10.704v4.799h-.41v-4.84h-6.726v9.884h.41v.451h.984v-.451h5.332v-3.363h.41v3.363h.205v.451h.82v-.451h2.092v.451h1.312v-.451h1.805v.451h1.312v-.451h2.092v.451Zm130.436 737.684h14.28v-9.327h.412v4.127h3.054v-5.489h-3.384v-3.467h-2.022v-.454h-2.229v.413h-7.552v-.371h-2.27v.412h-.289Zm69.478-419.251 2.018-4.407-1.03-.48.145-.311 4.946 2.308.23-.477.291.135-.231.477 2.252 1.051 1.066-2.335.408.188.523-1.132-.413-.191.209-.46-2.161-1.037-1.072 2.233-.148.307-.291-.134.151-.312-6.076-2.93 1.469-3.184.295.136-1.326 2.872 5.806 2.787 1.066-2.223 2.432 1.168 1.923-4.213-8.294-3.871-1.175 2.544-.296-.137 2.899-6.287.3.139-1.584 3.43 8.293 3.869 3.321-7.279-8.259-3.854-1.317 2.851-.301-.139 2.461-5.338.304.141-1.003 2.173 8.258 3.854 1.099-2.408-2.535-1.187 1.256-2.682-5.725-2.672-.883 1.91-.304-.141 3.112-6.771-.231-.106.141-.308.232.106 1.21-2.604-3.053-1.394-1.201 2.609 1.553.709.233.106-.141.308-.232-.106-11.988 26.277 1.304.608-.145.311-1.301-.607-2.048 4.486Zm17.37-20.875.196-.43.406.186.512-1.122-.406-.185.341-.748-.8-.373.142-.312.8.373 2.077-4.551-3.337-1.557.142-.312 3.337 1.557 1.224-2.681-6.123-2.796-.338.74-.341-.155.338-.741-1.767-.807-1.204 2.608 1.771.827.36-.787.341.156-.361.789 1.849.863-.142.313-.644-.301-1.483 2.996-3.202-1.585-.73 1.582 6.729 3.14-.142.313-.589-.275-1.07 2.285Zm-3.228-6.907 1.321-2.67-3.038-1.417-1.217 2.635Zm-83.134 193.108v-2.858h-2.684v.304h-.406v-5.576h3.623v.309h-3.217v4.538h8.092v-4.538h-3.392v-.309h7.64v-7.474h-.54v-.867h-.479v-.444h-.924v.444h-1.037v-.444h-.924v.444h-1.038v-.444h-.924v.444h-1.037v-.444h-.924v.444h-1.038v-.444h-.924v.444h-1.037v-.444h-.924v.444h-1.038v-.444h-.924v.444h-1.038v-.444h-.923v.444h-1.038v-.444h-.924v.444h-1.037v-.444h-.925v.444h-2.013v12.107h5.986v1.096h-.353v-.791h-1.894v2.76h1.894v-.791h.353v2.09h2.878v-.463h.406v.463Zm33.415-4.423v-4.241h3.693v-7.807h-1.574v-.444h-.924v.444h-1.037v-.444h-.924v.444H396.9v-.444h-.924v.444h-1.037v-.444h-.924v.444h-1.038v-.444h-.924v.444h-1.037v-.444h-.924v.444h-1.038v-.444h-.924v.444h-1.037v-.444h-.924v.444h-1.038v-.444h-.924v.444h-.457v.873h-.47v1.32h-.493v2.073h-.402v-2.095h-2.369v-.353h-1.789v.353h-2.946v5.795h7.104v-2.193h.402v1.41h.47v.627h1.184v.447h-1.161v1.701h3.356v-1.701h-1.065v-.447h4.907v4.238Z"/></g><path fill="#212121" d="M410.225 492.312v11.025h-7.011v-22.02h7.011Zm101.705-11.685h-11.893v-1.983h11.893Zm-352.093-23.406-6.464-1.139-3.614 20.813 6.561 1.218Zm12.647-4.219.981-5.913-6.123-.044-.755 5.013Zm16.132 2.719 1.521-8.267-10.434-.193-1.126 6.77Zm12.127-66.172-9.275-1.53-1.355 8.172 9.107 1.547Zm134.862 4.28h-9.59v-5.217h9.59ZM92.011 306.684v7.073H89.73v-14.111h2.281Zm-7.454-10.171v3.005s-6.084.145-8.931-.369c-2.738-.496-8.974-2.487-8.974-2.487l1.468-2.984s5.557 2.179 8.268 2.664c2.602.467 8.169.171 8.169.171Zm41.036-23.802h-2.608v18.112h2.608Zm86.934 8.943h-4.891V265.27h4.891Zm-27.97-33.074h-4.402v-4.539h4.402Zm-73.478-5.762-14.461-7.085-1.763 3.634 14.47 7.052Zm87.447-17.312h-4.075l-.164-15.816h4.075Zm-.401-28.26h-3.912l-.12-15.286h3.912Zm317.236-69.471v10.677h-9.292v-21.435h9.292Zm-376.647 13.991h-9.127v-19.239h9.127Zm258.046-11.835 6.324-3.573-7.839-14.054-6.623 3.862Zm-246.568 68.435h-3.913V182.01h3.913Zm-3.515 57.013h-5.361v-4.238h5.361Zm-36.943 167.914-19.14-3.521-1.275 6.933 19.14 3.521Z"/><path fill="#333" d="M122.057 60.483h3.912v20.425h-3.912Zm279.065 380.69v3.405h-22.134v-3.405Z"/><path fill="#352021" stroke="#471f21" stroke-width=".5" d="M340.56 207.054h1.909v9.154h-5.648v-3.038Zm-7.05 56.996-6.348-3.665 2.22-3.845 6.348 3.665Z"/></g></svg>