<svg xmlns="http://www.w3.org/2000/svg" width="605.324" height="831.578" viewBox="0 0 605.324 831.577"><g xmlns="http://www.w3.org/2000/svg" class="shadow"><path fill="#987f00" d="M493.25 189.597v1.549h-3.097v-1.63h1.467v-1.467h1.63Zm-59.821-23.146V168h-1.63v-1.467h-1.467v-1.63h3.097Zm111.003-6.194v.734h1.467v1.63h-3.097v-3.097h1.63Zm-61.94-24.939v.734h1.467v1.63h-3.097v-3.097h1.63Zm59.984.815v1.549h-3.097v-1.63h1.467v-1.467h1.63ZM307.812 553.017h5.038v-3.561h-5.038Zm2.75-42.824h5.009v-3.417h-5.009Zm-40.624-6.544-.723 3.445-4.962-1.042.724-3.446Zm1.676 38.615.676-3.484-4.975-.964-.676 3.483Z"/><path fill="#666" d="m277.282 505.073 5.746.011 5.828.011v2.608h3.424v-2.608h2.445v2.608h3.423v-2.608h8.151v1.68h4.217v3.423h-4.217v39.236h1.465v3.587h-30.482v-9.53l-5.654-1.201.618-3.524 5.036 1.023v-30.904l-8.005-1.764.586-3.542Zm23.8 6.519v.815h1.63v-1.629h-1.63Zm-19.888 0v.815h1.631v-1.629h-1.631Zm5.054 7.58v7.744h11.248v-15.487h-11.248Zm14.834-1.874v.815h1.63v-1.631h-1.63Zm-19.888 0v.815h1.631v-1.631h-1.631Zm19.888 5.706v.814h1.63v-1.63h-1.63Zm-19.888 0v.814h1.631v-1.63h-1.631Zm19.888 5.704v.816h1.63v-1.63h-1.63Zm-19.888 0v.816h1.631v-1.63h-1.631Zm5.054 11.33v7.743h11.248v-15.485h-11.248Zm14.834-5.624v.816h1.63v-1.631h-1.63Zm-19.888 0v.816h1.631v-1.631h-1.631Zm19.888 5.706v.815h1.63v-1.63h-1.63Zm-19.888 0v.815h1.631v-1.63h-1.631Zm19.888 5.705v.815h1.63v-1.629h-1.63Zm-19.888 0v.815h1.631v-1.629h-1.631Zm152.257-381.21v.245h-3.098v1.631h1.467v1.467h1.631v2.281h-3.75v-5.868h3.75Zm61.293-42.138v3.748h-1.304v.327h1.304v6.031h.326v-9.944h7.173v9.944h.326v-6.358h39.612v3.098h-7.988v9.128h7.5v-.325h-3.261v-4.076h5.868v4.076h-.978v.325h13.53v22.985h-5.216v-6.846h-9.292v7.01h.326v-4.076h3.914v6.032h-4.239v8.639h-4.89v1.305h-.978v.326h1.304v-1.304h4.563v6.684h-7.987v-5.38h.978v-.326h-1.305v5.706h-38.797v5.704h-5.542v5.38h.325v-3.749h3.587v5.869h-3.587v-.978h-.325v.978h-5.706v-13.204h-44.014v-5.544h-4.239v.327h3.912v5.217h-5.868v-5.217h.815v-.327h-.815v-6.846h-.325v-1.467h.325v-21.192h45.156v-5.379h.814v-.327h-.814v-3.748h1.956v2.934h3.097v-1.631h-1.467v-1.303h2.282v3.748h-3.587v.327h5.869v-9.944h-3.423v-2.282h8.151v-.327h-8.151v-7.498h11.085Zm46.133 12.796v.733h-1.467v1.631h3.097v-3.098h-1.63Zm-63.087 26.49v5.868h11.574v-11.737H477.79Zm-37.982.082v5.46h5.705v-10.922h-5.705Zm103.025-.816v1.549h3.098v-1.631h-1.468v-1.467h-1.63Zm-51.186 27.713v.734h-1.467v1.629h3.097v-3.096h-1.63Z"/></g></svg>