<svg xmlns="http://www.w3.org/2000/svg" width="605.324" height="831.578" viewBox="0 0 605.324 831.577"><g xmlns="http://www.w3.org/2000/svg" class="shadow"><path fill="#987f00" d="m412.569 389.244-.616 1.512-1.657-.672-1.36-.55.61-1.511.611-1.511 1.511.61 1.512.611Zm49.222 61.887v1.467h-2.119v-1.63h.978v-1.304h1.141Z"/><path fill="#666" d="m415.811 393.308-.561 1.387-.594-.24-.595-.241.561-1.387.56-1.386.595.24.594.24Zm-2.217-1.74-.266.66-.529-.214-.528-.212.266-.662.267-.66.529.214.528.214Zm-1.482.246-.56 1.386-1.321-.533-1.321-.534-.053.133a.143.143 0 0 0 .079.185l.131.054-.399.99-.401.991-.66-.267-.661-.266.08-.199.081-.198-.133-.053-.131-.054-.08.198-.081.199-.198-.08-.198-.081-.053.132-.054.132.198.08.199.081-.348.858-.346.859-.661-.268-.661-.266.348-.859.347-.859.131.054a.143.143 0 0 0 .186-.078l.054-.133-.264-.107-.265-.106-.64 1.585-.64 1.585-.133-.054a.145.145 0 0 0-.186.079l-.053.133.925.373.924.374-.479 1.188-.481 1.189-2.641-1.067-2.642-1.068.48-1.188.48-1.189 1.387.56 1.387.561.053-.133a.141.141 0 0 0-.078-.185l-.132-.053.613-1.519.614-1.52-.132-.053-.133-.053-.079.198-.08.198-1.123-.453-1.123-.454.508-1.255.506-1.255 1.123.454 1.123.453-.267.662-.267.66.132.053.132.054.267-.662.267-.66.528.214.529.213.053-.132.054-.132-1.784-.721-1.783-.72.56-1.387.561-1.386 2.641 1.067 2.642 1.067-.561 1.387-.56 1.387-.462-.187-.462-.187-.053.132-.054.133.462.186.463.187-.081.199-.08.197.133.054.131.053.076-.187.076-.187.197-.011.195-.01-.133-.143-.135-.145.557-1.376.555-1.375 1.85.747 1.849.747Zm44.56 54.395v.569h-.854v1.425h-.571v.855h-2.564v-3.419h3.989Zm2.137.712v1.282h-1.14v-2.564h1.14Z"/></g></svg>