<svg xmlns="http://www.w3.org/2000/svg" width="605.324" height="831.578" viewBox="0 0 605.324 831.577"><g xmlns="http://www.w3.org/2000/svg" class="shadow"><path fill="#987f00" d="M223.648 682.672v1.548h-3.26v-3.096h3.26Zm101.223-28.525v1.06h-1.141v.489h-1.467v-2.608h2.608Zm-88.02-4.645v2.771h-3.586v-5.542h3.586Zm2.899-38.067-.496 2.809-2.086-.368-2.087-.368.495-2.809.496-2.809 2.086.368 2.087.368Zm-112.328-12.794-.227 1.285 1.124.198 1.123.198-.212 1.204-.212 1.204-2.167-.382-2.167-.382.438-2.489.439-2.488 1.044.184 1.043.184Zm126.301-7.093-4.852-.943.739-4.856 4.971.908Zm-77.603-21.057 1.519 2.05-1.587 1.105-1.586 1.105-1.523-1.899-.914-1.208 1.709-1.249 1.561-1.088Zm27.166-11.578-.432 2.347-4.654-.831.408-2.306.433-2.347 2.338.395 2.339.395Zm205.204-9.412v.734h-.489v1.141h-2.119v-2.608h2.608Zm-238.006-1.045-.299 1.691-1.637-.335-1.637-.336.085-.771.086-.771.811.143.812.143.155-.883.156-.883.883.156.883.155Zm-57.318-10.726-.128.722.723.127.722.128-.141.802-.142.803-1.445-.255-1.444-.255.268-1.525.269-1.525.723.128.722.127Zm289.13-44.464v1.06h-2.282v-2.119h2.282ZM237.951 481l-.184 1.044-1.846-.326-1.846-.325.184-1.044.184-1.043 1.846.325 1.846.326Zm294.419-6.886v2.445h-4.238v-2.608h.489v-2.282h3.749Zm-202.609-6.194v.815h-1.793v-3.108h1.793Zm-156.952.564-.354 2.006-1.765-.311-1.766-.311.184-1.044.184-1.043.802.141.803.142.17-.963.17-.963.963.169.963.17Zm160.049-1.298v1.549h-1.793v-3.097h1.793Zm174.736-3.83v1.956h-1.63v-2.282h-1.467v-1.63h3.097Zm-45.803-12.225v1.467h-2.119v-1.63h.978v-1.304h1.141Zm89.487-5.216v1.304h-.978v2.119h-3.586v-4.727h4.564Zm-384.009-9.87-.24 1.365 1.445.255 1.444.254-.184 1.044-.184 1.043-2.568-.453-2.568-.453.424-2.408.425-2.407 1.123.198 1.124.198Zm12.177 3.223-.425 2.408-2.568-.453-2.569-.453.184-1.043.184-1.044 1.445.255 1.445.255.24-1.364.241-1.365 1.124.198 1.123.198Zm315.434-9.572v1.549h-3.586v-1.63h1.793v-1.467h1.793Zm-22.331-13.366v1.386h-1.63v-1.304h-.978v-1.467h2.608Zm-275.862-12.217-.416 2.354-2.438-.43-2.438-.43.415-2.354.415-2.354 2.438.43 2.439.429Zm200.609-.068-.684 1.667-1.65-.676-1.36-.55.641-1.587.641-1.587 1.512.611 1.511.61Zm-67.535-2.222v1.549h-1.793v-3.097h1.793Zm3.097 0v1.549h-1.793v-3.097h1.793Zm53.487-.823-.61 1.512-1.663-.672-1.206-.482.547-1.367.672-1.662 1.435.58 1.436.58Zm-20.235-2.437v1.549h-3.097v-1.63l.002-1.466 1.465-.001h1.63Zm46.459-9.319-.616 1.512-1.657-.672-1.36-.55.61-1.511.611-1.511 1.511.61 1.512.611Zm-179.018-7.625-.421 2.387-2.557-.451-2.556-.451.42-2.386.421-2.386 2.557.45 2.556.451Zm261.492-2.779v1.549h-1.956v-1.467h-1.793v-1.63h3.749Zm-162.511-5.949v1.467h-3.097v-1.467h1.467v-1.467h1.63Zm169.031-16.219v2.96h-1.63v-3.367h-3.097v-1.304h4.727Zm-34.27-9.012-.108.22.66.322.659.321-.286.586-.286.586-1.318-.643-1.319-.643.393-.806.393-.805.66.321.659.322Zm-78.363-36.791v.734h1.467v1.63H387.3v-3.097h1.63Zm29.503 0v.734h1.467v1.63h-3.097v-3.097h1.63Zm-89.813-1.222v.815h-1.467v-1.63h1.467Zm21.842 0v.815h-1.467v-1.63h1.467Zm-25.428-.734v1.549h-1.467v-3.097h1.467Zm21.842 0v1.549h-1.467v-3.097h1.467Zm126.814-3.586v1.549h-1.467v-3.097h1.467Zm-371.151-.163v1.549h-1.467v-3.097h1.467Zm-64.803-12.125-.684 1.389-1.097-.539-1.097-.54.684-1.389.684-1.39 1.097.54 1.097.54Zm129.84-9.228v.408h-2.119v-.815h2.119Zm-81.864 2.251a6.266 6.266 0 0 1-.624 2.136c-.315.633-.762 1.206-1.265 1.703-.457.452-.943.961-1.563 1.131-.811.222-1.703-.003-2.513-.23-.68-.192-1.902-.936-1.902-.936l.468-.951.468-.95s1.483.826 2.302.86c.365.015 1.055-.298 1.055-.298l-4.363-1.906.841-1.644.826-1.69 4.135 2.314s-.115-.814-.353-1.127c-.497-.653-2.068-1.336-2.068-1.336l.432-.877.431-.878s1.327.526 1.902.936c.618.441 1.297.916 1.617 1.604.302.649.247 1.427.174 2.139Zm49.427-15.535v1.467h-3.097v-1.467h1.467v-1.467h1.63Zm8.679-8.11v2.123h-1.304v1.467h-1.467v-4.405h2.771Zm-37.355.239-.72 1.463-1.608-.792-1.609-.791.36-.732.36-.731.804.396.804.396.36-.732.36-.731.804.396.805.396Zm46.769-1.828v1.223h-1.304v-2.445h1.304Zm230.319-1.956v1.549h-2.608v-1.467h-2.445v-1.63h5.053Zm-195.437-1.059v.815h-1.304v1.467h-1.467v-3.097h2.771Zm9.617.733v1.549h-1.467v-1.467h-1.304v-1.63h2.771ZM56.884 247.495l-.324.658-.731-.36-.732-.36-.323.659-.324.658-.805-.396-.804-.396.648-1.316.647-1.316 1.536.755 1.536.756Zm335.469-1.663v1.549h-3.097v-1.467h1.467v-1.63h1.63Zm102.527-6.438v1.304h-2.934v-1.467h1.467v-1.141h1.467Zm-317.524-.245v1.386h-2.934v-1.467h1.304v-1.304h1.63Zm-65.246-1.584-1.583 3.218-2.414-1.188-2.413-1.187.053-.111.052-.11 1.181-1.012 1.182-1.013.315.282c.106.093.197.205.316.281.138.088.296.138.449.195.129.048.257.119.395.123.159.004.316-.055.464-.115.147-.06.3-.127.41-.241.173-.18.238-.439.352-.661.121-.236.352-.715.352-.715l-1.17-.576-1.17-.575.431-.878.598-1.099 1.975.971 1.974.972Zm25.229-3.531 2.084 1.428-.768 1.232-.831 1.233-1.954-1.163-1.89-1.163.839-1.597.694-1.128Zm253.547-4.176v.734h-1.956v-1.467h1.956Zm-49.063-1.385v2.725h-1.63v1.024H338.4v-5.053h3.423Zm41.565-9.373v1.712h-5.053v-1.793h2.445v-1.63h2.608Zm-36.349-19.588v1.549h-3.097v-1.63h1.467v-1.467h1.63Zm146.211-9.915v1.549h-3.097v-1.63h1.467v-1.467h1.63Zm-59.821-23.146V168h-1.63v-1.467h-1.467v-1.63h3.097Zm111.003-6.194v.734h1.467v1.63h-3.097v-3.097h1.63Zm-61.94-24.939v.734h1.467v1.63h-3.097v-3.097h1.63Zm59.984.815v1.549h-3.097v-1.63h1.467v-1.467h1.63ZM420.79 79.799l.489.847-1.624.937-1.623.937-.489-.847-.489-.847 1.623-.937 1.624-.937ZM103.843 69.792v1.549h-1.467v-1.467h-1.467v-1.63h2.934Zm8.639-23.227v2.282h-1.304v-4.564h1.304Zm117.002 29.596v-3.763h-3.878v1.651h2.112v2.112ZM119.98 141.268v2.282h-5.053v-3.097h2.445v-1.467h2.608Zm0-18.419v2.282h-2.608v-1.467h-2.445v-3.097h5.053Zm-13.855 27.356h-3.097v-1.793h3.097Zm0-35.374v.978h-3.097v-1.956h3.097Zm-13.213 43.593v1.712H87.37v-3.424h5.542Zm8.966 0v1.712h-7.661v-3.424h7.661Zm-12.389-41.08v1.223h-1.793v-2.445h1.793Zm0 29.506v1.223h-1.793v-2.446h1.793Zm35.537-42.384v3.016h-6.683v-6.031h6.683Zm32.648 34.175h-4.542v-13.187h4.542Z"/><g fill="#666"><path d="M223.504 685.336v1.141h-2.934v-2.282h2.934Z"/><path d="M223.504 679.386v1.712h-2.934v-.815h-.325v2.608h-.489v.326h.489v1.63h-.489v.326h.489v3.097h-2.772v-3.097h1.305v-.326h-1.631v1.304h-.652v.326h.652v1.793h-6.194v-1.793h4.564v-.326h-.652v-.978h-.326v.978h-3.586v-2.934h3.586v.978h.326v-.978h.814v-.326h-4.726v-5.217h6.52v5.217h-.815v.326h2.12v-.326h-.979v-5.217h2.446v1.63h.325v-1.63h2.934Zm102.374-25.349v2.771h1.792v.816h5.217v-6.195h2.935v6.195h1.467v33.744h-2.608v-23.474h-.326v6.194h-.979v.326h.979v4.401h-4.565v-4.401h2.282v-.326h-2.608v4.727h-7.987v-7.009h9.943v-3.097h-.326v2.771h-9.617v-6.847h8.639v-.326h-8.639v-4.238h9.617v7.335h.326v-4.238h.816v-.326h-.816v-2.771h2.935v2.771h-.816v.326h.816v3.423h.326v-6.846h-13.204v-8.477h4.401Zm-3.587.326v1.304h1.467v-.489h1.142v-2.119h-2.609ZM240.91 614.59c.135-.45.203-.916.299-1.375.275-1.417.535-2.837.801-4.257l-1.499-.23-.509.69-.87 4.939c.581.115 1.165.228 1.748.342.01-.036.019-.073.03-.109Zm-3.449 3.701a2.139 2.139 0 0 1-.03-.592c.063-.887.263-1.755.303-2.646.02-.218-.041-.431-.072-.646l-7.425-1.286c.066-.622.144-1.241.22-1.863a8.776 8.776 0 0 1 .214.038l.048.672-.253.283.119.618 4.782.861c.298-1.863.596-3.727.89-5.59-.043-.129-.199-.132-.309-.165-1.088-.233-2.191-.381-3.289-.555-.377-.057-.753-.116-1.13-.174-.085.487-.172.974-.258 1.459-.055.004-.166.111-.166.016-.032-.228-.002-.457.011-.679.029-.33.073-.659.11-.988.285-.057.574.005.857.032.992.125 1.973.308 2.959.467.165-1.078.345-2.155.496-3.236.031-.299.092-.609.019-.906-.049-.202-.246-.313-.432-.365-.292-.088-.599-.126-.897-.189a375.777 375.777 0 0 0-6.556-1.14c-.34-.055-.681-.109-1.025-.145-.09.736-.199 1.47-.32 2.201-.648 4.05-1.325 8.099-1.99 12.146l.205.295c4.123.717 8.244 1.441 12.367 2.15a6.847 6.847 0 0 0 .572.082l-.02-.155Zm-59.363-45.426.171.28-.263.235c-.144.13-.324.268-.4.306-.076.038-.76.494-1.521 1.012l-1.381.944-.225-.357-.225-.358 1.73-1.196c1.859-1.286 1.857-1.285 2.114-.866Zm82.621 39.42.022-.118c.424-2.139.813-4.286 1.214-6.429.453-2.439.904-4.88 1.355-7.319l-.249-.357c-3.134-.578-6.268-1.155-9.4-1.734l-.386.864.051.712-.237-.041c-.005-.257-.012-.51.014-.759a9.992 9.992 0 0 1 .145-.972c.238-1.359.464-2.719.694-4.079l-4.343-.765-.405 2.908-.261-.046c.14-.981.241-1.966.378-2.947.022-.133.037-.272.114-.387a111.43 111.43 0 0 1 .613.109 3.107 3.107 0 0 0 .316-.67c.077-.214.138-.434.205-.652.562.065 1.123.131 1.685.195.082-.352.172-.704.205-1.065.068-.243.241-.431.392-.625l1.562.275.342-1.944c-1.528-.253-3.055-.506-4.583-.761l.051-.288 4.109.747.494-.196c.171-.86.354-1.719.52-2.581.094-.617.226-1.228.301-1.848.024-.267.046-.58-.151-.791-.208-.209-.517-.247-.792-.305a70.032 70.032 0 0 1-1.866-.329l-1.205-.225.039-.217c.54.067 1.083.176 1.629.269.846.154 1.692.312 2.538.467.258-1.609.516-3.218.772-4.827-2.513-.408-5.023-.836-7.543-1.212-.35-.047-.702-.086-1.053-.129l-.61 3.661c-.061.02-.15.092-.136-.023-.028-.186-.066-.37-.086-.556.426-2.256.842-4.516 1.282-6.768.027-.049.113-.025.162-.021.107-.01.108.052.078.138l-.625 3.158c2.762.5 5.524.999 8.286 1.496.116-.135.25-.263.357-.404.181-1.152.359-2.305.551-3.455.037-.293.103-.602-.005-.887-.104-.254-.39-.347-.636-.402-.542-.112-1.093-.187-1.637-.293l-1.408-.258-.043-.22c.676.086 1.346.215 2.017.328l1.939.344.639-3.873c-.196-.088-.388-.192-.602-.229-1.518-.347-3.054-.61-4.582-.907-1.053-.198-3.151-.621-3.151-.621s-.386 1.94-.528 2.919c-.01.071-.012.143-.018.216-.158-.032-.195-.215-.25-.341l.468-2.827-10.741-1.945s-.386 2.006-.57 3.011l-.054.302c-.094.011-.108-.059-.111-.137l-.092-.553.505-2.604-.07-.156-3.463-.684s-3.825-.626-5.738-.997c-.089.425-.158.832-.237 1.239l-.348-.067.219-1.148-7.716-1.477-1.725 9.015 7.716 1.476 1.146-5.988.349.067c-.009.054-.02.103-.03.158a16.33 16.33 0 0 0-.158 1.08c.209.017.423.023.62.058 1.19.191 2.368.424 3.553.642l-.043.247c-.926-.128-1.845-.312-2.763-.479-.401-.075-.802-.149-1.202-.225-.115.255-.239.51-.282.79-.06.332-.111.675-.062 1.012.018.089.078.165.067.262.007.241-.061.474-.096.71l.82 1.259c1.408.269 2.823.514 4.224.817.333.081.677.136 1 .257.601.239 1.21.468 1.79.758.22.1.435.22.669.286l.217.039.38-2.84c.056.041.127.063.18.105.034.208-.019.419-.04.627-.167 1.116-.365 2.234-.548 3.35l-.509 3.049c-.057-.025-.172.002-.193-.057-.046-.291.026-.582.061-.871.154-.985.365-1.957.552-2.936-3.01-.497-6.018-1.005-9.03-1.485-.082-.008-.17-.034-.251-.027-.12.057-.122.211-.159.322-.253 1.085-.417 2.186-.61 3.282l-.149.876.217.312 3.69.626.091.226c-.057.035-.107.098-.177.06-1.279-.227-2.558-.456-3.837-.685-.132.37-.187.758-.268 1.141-.239 1.213-.465 2.428-.696 3.643.3.108.595.232.909.289 1 .225 2.015.368 3.023.538l-.056.323c-1.221-.222-2.44-.458-3.664-.661-.094-.009-.188-.02-.281-.03l-.889 4.884c1.378.242 2.754.485 4.131.729l-.044.247c-.669-.082-1.331-.213-1.995-.325-.715-.127-1.431-.257-2.146-.385l-.764 4.337c.307.109.61.233.932.291 1.049.229 2.112.376 3.172.549l-.098.252c-1.25-.203-2.5-.423-3.755-.604-.116-.013-.234-.017-.351-.027l-.879 4.986c.153.079.302.172.475.194 1.169.246 2.346.45 3.523.662 1.755.31 3.511.614 5.268.922l1.561-7.919.242.044-1.464 7.965c3.599.658 7.198 1.317 10.798 1.973.171-.744.289-1.499.431-2.249.31-1.711.614-3.422.921-5.133l.266.102-1.309 7.318 1.17.206.408-.286 1.648.217.661.712.562-.109.407-2.741c.071-.024.147-.066.215-.081.002.412-.061.822-.114 1.229-.046.391-.14.778-.144 1.172a.574.574 0 0 0 .294.524c.308.164.662.205.999.28.827.161 1.654.329 2.48.494l.533-.213c-.04-.213-.082-.426-.123-.638l.269-.601c.044.042.16.047.145.118a392.743 392.743 0 0 0-1.435 10.973l9.222 1.626Zm-22.028-20.462-.501-.219c-.73-.31-1.406-.802-1.819-1.49-.177-.284-.289-.599-.418-.906.006-.501-.026-1.005.021-1.505.04-.433.149-.874.322-1.262a3.071 3.071 0 0 1 1.557-1.573c.573-.263 1.214-.339 1.839-.318.29.005.584-.009.87-.023a.21.21 0 0 1 .176.075c.24.178.543.234.791.399a3.3 3.3 0 0 1 .639.498 3.817 3.817 0 0 1 .965 1.621c.032.118.097.231.106.352l-.034 1.787c-.244.447-.474.905-.79 1.307-.19.266-.436.482-.666.712l-1.295.531-1.763.014Zm6.629-2.85c-.009.007-.021.005-.04-.012l-.028-.017c-.048-.042-.162-.053-.118-.136.479-2.656.955-5.312 1.433-7.968l.236.201c-.48 2.594-.945 5.19-1.446 7.781-.018.034-.011.132-.037.151Zm-10.959-2.69-.109-.019c-.108.011-.109-.053-.079-.138l1.325-7.505c.056.029.187-.007.186.07.022.286-.044.567-.085.849a234.567 234.567 0 0 1-.988 5.54c-.079.403-.152.806-.25 1.203Zm7.476-6.829-.664-.176c-.358-.103-.728-.174-1.06-.356-.315-.194-.547-.49-.813-.744-.045-.057-.137-.097-.094-.181.071-.272.032-.58-.148-.801-.05-.061-.094-.124-.059-.204l.676-4.09c.302.05.605.119.911.121-.19 1.389-.38 2.777-.572 4.164a231.36 231.36 0 0 1 .612.873l1.151.349c.236-.126.483-.244.675-.434.199-.175.346-.398.512-.603l1.428-8.458c-.162-.272-.314-.555-.54-.78-.234-.257-.523-.449-.795-.663l-1.128.406c-.174.314-.357.626-.525.943l-.457 2.589-.713.052a59.077 59.077 0 0 0-.248-.504l.575-2.876.744-1.038 1.235-.463 1.434.152c.369.386.739.772 1.107 1.159l.327 1.046c-.509 2.979-1.019 5.957-1.53 8.936-.297.4-.559.851-.988 1.127-.32.216-.692.329-1.053.454Zm172.232-28.116v2.934h-1.141v22.007h8.476v7.01h6.521v3.26h-6.521v19.236h-2.445v-16.302h-.326v1.467h-1.304v.164a.164.164 0 0 0 .163.163h.163v2.934h-3.424v-2.934h1.794v-.327h-2.317l.099.258c.054.142.099 1.059.099 2.038v1.78h.325v-.489h3.424v4.238h-3.424v-2.445h-.325v2.445h-8.478v-7.498h7.045l-.099-.258c-.054-.142-.099-.729-.099-1.305v-1.045h-.325v2.281h-6.522v-10.595h9.781v6.194h-1.792v.326h2.934v-.326h-.815v-2.934h3.097v2.934h-.978v.326h.978v1.305h.326v-9.618h-8.476v-8.477h-7.5v-.815h-.325v.815h-.653v.325h2.934v1.305h.327v-1.305h4.89v3.588h-4.89v-.979h-.327v2.608h.327v-1.304h4.89v4.239h-4.89v-1.63h-.327v2.934h-4.89v-9.456h.653v-.325h-2.772v.325h1.794v9.456h-11.575v-9.456h7.825v-.325h-1.956v-.653h-.327v.653h-2.281v-2.609h2.281v.653h.327v-2.283h-.327v1.305h-4.237v.325h1.63v2.609h-4.075v-2.609h1.14v-.325h-1.14v-3.75h6.682v1.141h.327v-4.238h-7.009v-3.26h.489v-.327h-2.609v.327h1.793v3.26h-1.793v.326h1.793v2.445h-4.728v-2.445h1.631v-.326h-1.631v-3.26h1.631v-.327h-1.631v-8.314h7.5v8.314h-.653v.327h6.521v-.327h-5.543v-8.314h7.825v8.314h-.978v.327h1.631v-.163a.165.165 0 0 0-.164-.164h-.163v-8.314h4.728v8.314h-3.016l.055 1.794.055 1.793h-2.148v1.141h.326v-.815h4.728v2.771h-4.728v-.651h-.326v4.401h1.956v-.327h-1.63v-3.096h4.728v3.096h-1.794v.327h1.794v.814h.325v-.814h7.5v-4.565h-6.522v-3.424h6.522v-4.726h-1.467v-2.283h-6.033v-3.75h11.086Zm-8.151-1.304v1.304h2.12v-1.141h.489v-1.467h-2.609Z"/><path d="M251.975 605.516c.105-.764.198-1.533.313-2.292.061-.402.175-.818.253-1.23.039-.205.036-.456-.144-.597-.226-.174-.522-.212-.794-.275-1.177-.222-2.359-.415-3.531-.668-.413-.099-.836-.183-1.22-.37-.058-.029-.143-.072-.082-.145l.113-.284c-.223-.061-.443-.128-.673-.149-.092-.038-.039.102-.056.154-.014.12.025.256-.056.358-.018.103-.108.058-.18.047-.038-.031.003-.122.001-.179.009-.121.15-.228.076-.352-.034-.047-.107-.057-.157-.094-.172-.076-.361-.104-.54-.159-.067.212-.157.417-.176.64-.045.024-.142-.024-.206-.025-5.125-.96-10.258-1.886-15.389-2.82-5.821-1.056-11.643-2.108-17.464-3.161a.276.276 0 0 1-.076-.229c.023-.482.115-.978.185-1.467.239-1.552.496-3.104.746-4.658l-9.377-1.598c-.039-.065-.102-.124-.126-.194.773-4.633 1.554-9.264 2.358-13.891.046-.09-.076-.084-.129-.117l-.781-.305c.028-.054-.005-.196.07-.182l12.954 2.336c.194-.926.365-1.855.547-2.781.753-3.892 1.505-7.784 2.295-11.669-4.76-.856-9.523-1.701-14.288-2.533a11.563 11.563 0 0 0-.765-.115c-.189 1.182-.381 2.364-.571 3.547-.079.031-.117-.073-.177-.108-.087-.042-.045-.126-.037-.201l.481-3.057-.229-.327c-1.988-.34-3.977-.678-5.965-1.017-.13.144-.259.29-.388.435l-.109 1.31c.463.08.925.162 1.387.244l-.335 1.8c.493.103.99.186 1.478.31.138.041.303.078.44.147.089.039.059.118.037.192-.107.445-.212.891-.318 1.338.951.177 1.899.38 2.858.508l.293.032-.047.265a6.504 6.504 0 0 1-1.302-.247c-.089-.045-.132-.02-.125.081-.199 1.368-.398 2.736-.599 4.104l-.314-.055c.207-1.179.443-2.353.598-3.54.034-.198.007-.398.001-.597l-17.376-3.044.043-.24c3.948.675 7.893 1.355 11.842 2.02.13.016.263.054.389.056.119-.052.12-.203.157-.312.276-1.182.466-2.382.681-3.577l.232-1.314-17.774-2.963a70.418 70.418 0 0 0 .549-4.144c.005-.158.045-.321.002-.475-.106-.115-.277-.118-.419-.16-1.022-.203-2.057-.345-3.086-.501-2.239-.327-4.48-.633-6.721-.942-.1.068-.214.157-.307.211a.264.264 0 0 0-.214-.285c-.253-.095-.527-.114-.789-.17-.998-.176-1.995-.364-2.993-.533-1.035-.165-2.069-.339-3.106-.489l-.228-.016c-.11.723-.205 1.448-.34 2.165l-.315.11c.136-.791.243-1.587.359-2.381l.212-.238 7.198 1.201c.241-1.427.49-2.852.716-4.282l.032-.299a135771.92 135771.92 0 0 1-39.472-6.865c-1.039-.179-2.076-.366-3.116-.537l-.322-.035-.726 4.155.273.39c1.942.387 3.885.768 5.829 1.144-.095.717-.24 1.428-.363 2.14-.627 3.448-1.263 6.896-1.887 10.345-.424 2.328-.844 4.656-1.266 6.983-.494-.057-.983-.151-1.475-.227-1.604-.264-3.205-.538-4.808-.807.106-.817.263-1.624.403-2.435.085-.464.165-.93.262-1.392.061-.027.128-.002.191.006-.134.859-.264 1.717-.411 2.573-.036.274-.088.59.09.827.192.234.509.295.788.365.693.144 1.392.246 2.088.376l2.347.423.328-.229.847-4.467c-.093-.078-.175-.181-.302-.199-.737-.185-1.485-.319-2.231-.463-1.087-.206-2.175-.398-3.255-.646-.1-.018-.192-.06-.283-.103l1.018-5.738c.237.008.464.092.698.127a287.17 287.17 0 0 0 4.968.908c.16.032.324.038.486.051l1.438-8.021c-.155-.093-.304-.202-.485-.239-.976-.261-1.975-.423-2.963-.63-.77-.154-1.538-.318-2.307-.481-.085.247-.182.492-.225.751-.368 1.818-.662 3.648-.983 5.475l-.1.578-.249-.095 1.982-11.239a24.263 24.263 0 0 1-.258-.369c-2.86-.53-5.717-1.07-8.577-1.594a302.752 302.752 0 0 0-6.837-1.156c-.16 1.041-.303 2.084-.484 3.118-.045.314-.121.646-.02.956.098.281.389.421.656.503.576.173 1.172.258 1.76.375a109.075 109.075 0 0 1 3.723.761c.072.015.143.035.214.052-.037.532-.12 1.052-.197 1.58a13.34 13.34 0 0 1-.234 1.224l-.247-.044.452-2.567c-2.097-.395-4.19-.808-6.284-1.214l-.279 1.461c.462.092.945.13 1.378.33.056.041.145.069.18.12l-.245 1.385 1.586.185c.038.109.098.216.122.325l-.4 1.415 3.422.536c.037.276-.029.551-.057.823-.177 1.304-.41 2.597-.61 3.897-.151.949-.296 1.897-.443 2.846l-.243-.093c.357-2.382.727-4.762 1.094-7.142l-6.296-1.243c-.454 2.867-.916 5.734-1.33 8.608a5.944 5.944 0 0 0-.071.706l5.981 1.06.555.29c-.44 2.542-.837 5.09-1.234 7.639-.088.599-.194 1.197-.258 1.798 2.186.37 4.376.725 6.559 1.103 1.356.234 2.708.492 4.066.718a1.201 1.201 0 0 0 .344.012 2.46 2.46 0 0 1 .037.658c-.024.51-.094 1.017-.16 1.527-.028.307-.089.626-.001.928.075.244.325.362.544.45l.404.167c-.035.301-.066.603-.154.893a231.905 231.905 0 0 0-.991 4.193l-.108.48c-.16.074-.33.134-.51.129-.273.005-.539-.072-.808-.109.038.227.111.45.085.683-.047 1.111-.256 2.209-.297 3.32a3.232 3.232 0 0 0 .205 1.339c.12.312.252.62.376.929.049.022.195.007.179.054l-.252.32-2.796-.573c-.005.5-.055 1.001-.005 1.5.014.122.032.249.102.351.093.444.041.9.037 1.348l-.007.323a103.476 103.476 0 0 1 3.015.589c1.27.267 2.541.531 3.804.826.116.027.232.058.351.089-.265 1.426-.521 2.852-.793 4.277-.578-.081-1.158-.162-1.735-.256-.212-.034-.469-.028-.613.157-.184.243-.228.556-.295.844-.182.942-.352 1.884-.537 2.825l-.256 1.345a856.49 856.49 0 0 1 2.073.441c.23-1.17.455-2.34.632-3.519l.22.038a2.88 2.88 0 0 1-.033.706c-.109.804-.358 1.585-.409 2.397.001.176.035.35.051.525l.927-.021c-.015.078-.028.158-.042.236-.274.01-.549.017-.821-.022-.239-.019-.48-.071-.721-.045-.135.033-.133.199-.172.308a62.697 62.697 0 0 0-.612 2.88c-.084.459-.185.917-.203 1.384.86.195 1.719.4 2.584.57.566.111 1.13.242 1.698.341.497.076.994.154 1.498.163l.583-.015c.209-1.061.425-2.123.613-3.187.085-.469.172-.937.258-1.405-.926-.235-1.867-.398-2.802-.583l-.007-.269 5.439.99c.276-1.55.589-3.093.899-4.639.141-.051.279-.119.421-.16l3.077.509c.121-.088.257-.17.319-.314.209-.409.335-.853.474-1.289.179-.57.311-1.146.535-1.698.065-.113.168-.198.246-.3-.489-.111-.988-.191-1.466-.346a4.151 4.151 0 0 0-.391-.143c-.057-.633-.108-1.266-.228-1.891-.098-.733-.139-1.475-.19-2.216l-.035-.536-1.083-.191 1.888-11.194c.175-.086.349-.173.526-.258 1.122.205 2.239.448 3.371.596.186.014.388.074.562-.024.064-.026.146-.038.135-.125l.683-3.47.255-.357c4.767.861 9.534 1.722 14.301 2.579l-.127-.657.233-.446.258.045a5.009 5.009 0 0 0-.187 1.069c1.148.207 2.295.419 3.444.622l1.735.235.256-.856.263-.002c-.246 1.539-.515 3.073-.732 4.616-.051.398-.118.795-.132 1.195.003.095.086.159.13.237l3.354.511c1.578 2.16 3.144 4.328 4.724 6.487.407.545.807 1.099 1.242 1.623.048.053.117.128.193.083.261-.135.497-.314.742-.475 1.908-1.307 3.79-2.649 5.673-3.99 1.506-1.08 3.015-2.154 4.499-3.263.159-.129.335-.24.475-.39.067-.082-.019-.186-.056-.266-.668-1.138-1.441-2.209-2.14-3.328-.161-.275-.346-.545-.435-.853-.027-.078.002-.165.079-.201a667.605 667.605 0 0 1 4.701 7.079l.486-.193-.095-.705.258-.493.231.04-.386 1.545c.064.33.109.67.262.975.099.228.269.412.413.612 1.517.277 3.033.561 4.551.835 1.654.254 3.307.522 4.968.721.409.04.819.103 1.231.077l.24-.033c-.68 3.907-1.325 7.821-1.983 11.732-.388 2.338-.784 4.673-1.163 7.012l-.029.23 3.614.594c.221-1.255.441-2.509.663-3.763 8.879 1.577 17.759 3.15 26.639 4.73l24.22 4.354a4.95 4.95 0 0 0 .017-.128Zm-44.033-12.387-.585-.121-.28-.312.083-.469c.252-.044.505-.109.761-.124.267.118.549.199.825.296l.106.323c-.388-.132-.796-.196-1.195-.29-.063-.008.066.11.082.154l.273.39c.288-.06.576-.114.856-.206.054.078.009.13-.057.179l-.31.296-.559-.116Zm.996-.38c.098-.055.095.057 0 0Zm-5.123-.354c-.404-.001-.814-.078-1.222-.129l-.327-.467.382-.486c.472.099.956.162 1.406.343.05.04.161.057.119.14l-.096.549a.513.513 0 0 1-.262.05Zm-.887-.253c.287-.013.583.021.862-.061.097-.026.149-.159.069-.231-.115-.095-.279-.098-.42-.125-.264-.03-.53-.053-.795-.08a74.041 74.041 0 0 1 .199.499c.028 0 .056 0 .085-.002Zm-66.452-12.67c-.733-.035-1.468-.138-2.202-.233l-.976-.13.022-.699c-.804-.104-1.605-.213-2.407-.333l-.112.639-.249-.044c.077-.719.232-1.426.368-2.136.432-2.173.934-4.331 1.362-6.505.029-.272.15-.534.333-.739.033-.092.114-.06.187-.044l2.886.527c-.036.199-.07.398-.105.598l2.488.438.146-.837c.05-.001.153-.1.159-.025.03.197.071.395.093.592-.568 2.971-1.138 5.942-1.675 8.918-.106.005-.211.011-.318.013Zm-7.212-.347-.334-.155.238-1.872c.132-.153.234-.335.397-.458.099-.057.189.058.26.113.113.107.217.222.326.333-.136.658-.227 1.329-.463 1.96-.035.076-.077.149-.115.223l-.309-.144Zm71.22-2.351c.019-.43.09-.864.145-1.287.08-.596.182-1.18.264-1.774.075-.624.03-1.293-.302-1.842-.351-.589-.955-.968-1.567-1.241-.989-.429-2.048-.662-3.1-.872-1.992-.381-4.006-.631-6.018-.886-.285 1.624-.542 3.249-.864 4.865-.055.252-.093.494-.17.737-.034.046-.034.183-.11.108-.095-.021-.1-.088-.072-.17l.912-5.368a25.042 25.042 0 0 0-.22-.315c-2.516-.434-5.03-.88-7.549-1.298-.24-.038-.481-.071-.722-.105.305.433.631.851.92 1.296.062.113.154.231.15.365-.072.047-.165.041-.247.06l-1.412-2.132a44.668 44.668 0 0 0-2.136 1.729c-.422.37-.861.717-1.293 1.076-.165.14-.327.285-.491.426.615.857 1.254 1.699 1.826 2.585.069.112.134.229.201.342a150.5 150.5 0 0 1-4.044 2.681c-.167-.083-.341-.163-.469-.304-.482-.479-.892-1.026-1.295-1.571-.308-.449-.681-.847-1.012-1.279l-.586-.743c.054-.074.131-.124.204-.178.097.096.202.179.303.268.747-.543 1.5-1.078 2.219-1.658.498-.387.969-.804 1.448-1.214l-.774-1.358c-.207-.046-.413-.093-.62-.138-.575.48-1.134.983-1.731 1.419-.456.343-.943.653-1.34 1.068l-.297.286.247.514-.189.157c-.052-.089-.077-.201-.176-.251-.068-.042-.127-.089-.09-.176.064-.55.166-1.094.247-1.64l.512-3.259c-.269-.113-.53-.25-.82-.308-1.302-.312-2.629-.505-3.947-.74-.08-.013-.161-.026-.242-.041-.111.445-.194.899-.332 1.336-.026.037-.04.175-.099.12-.047-.043-.115-.082-.14-.134l.253-1.433c-.607-.057-1.217-.102-1.824-.165-1.04-.161-2.081-.327-3.126-.442-.113-.013-.23-.024-.333.037-.083.016-.132.06-.123.149l-.141.984-.274-.049.846-4.65c.067.019.169.013.212.05l-.506 3.043c1.241.215 2.479.442 3.721.651.355.047.712.12 1.071.095.177-.042.357-.029.536-.038l.798-4.526c-.708-.069-1.415-.126-2.122-.201l-3.403-.527c-.049-.117-.117-.232-.154-.351.305-1.738.619-3.474.915-5.213.248-1.471.496-2.942.746-4.412 1.457.259 2.916.523 4.373.787.105-.533.229-1.062.308-1.599l1.396.356c.113-.459.22-.921.268-1.392l.037-.379c.346.055.698.077 1.035.175l.641.159c.029-.112.037-.122.012-.002-.501 2.84-1.002 5.68-1.505 8.52 4.579.793 9.156 1.589 13.734 2.384-.026.059-.003.181-.06.198-.339-.035-.676-.104-1.018-.158-4.131-.69-8.258-1.406-12.388-2.111l-.311.218c-.138.838-.27 1.679-.413 2.517-.13.542-.458 1.006-.782 1.447-.419.568-.899 1.09-1.262 1.695a1.898 1.898 0 0 0-.273.764l-.307 1.747c.447.136.91.198 1.366.291 1.69.318 3.379.627 5.07.939l1.786-1.258.608.108.895.97 1.26.434c.768-.177 1.536-.354 2.305-.533.013-.077.026-.155.042-.233.232.176.392.428.564.66.304.437.595.883.893 1.324 3.174.566 6.349 1.127 9.523 1.696l10.696 1.987c.112-.181.228-.362.282-.571.124-.388.194-.79.282-1.187.053.011.19-.066.179.009a48.745 48.745 0 0 1-.242 1.791c.436.135.882.229 1.327.326-.035.051-.055.131-.1.161l-1.313-.148-.924 5.677c-.066.023-.136.06-.198.073Zm-70.408-2.746c-.056-.041-.139-.067-.181-.12a2.58 2.58 0 0 1-.024-.734c.026-.357.097-.71.152-1.063.143-.05.278-.145.436-.131.123-.007.245.015.368.037.058.211.049.43.027.645-.036.392-.12.774-.184 1.161-.144.101-.288.203-.433.303l-.161-.098Zm.84-4.785c-.141-.053-.302-.129-.356-.275.249-1.541.471-3.084.757-4.618.066-.313.115-.642.213-.952.041-.051.05-.168.113-.177l.412.074a52.92 52.92 0 0 1 .269.472 4586.02 4586.02 0 0 1-.852 5.349l-.345.197-.211-.07Zm46.427-4.798c-.275-.014-.549-.03-.824-.046-.309-.242-.655-.464-.867-.805-.016-.06-.126-.143-.025-.176.62-.424 1.219-.89 1.892-1.228.09-.038.186-.057.279-.086l1.17 1.823-.807.565-.818-.047Zm-28.555-2.373-3.017-.534c-.037-.062-.098-.119-.12-.185l3.366-19.406c.391.023.777.104 1.164.162a119.906 119.906 0 0 1 4.001.727l1.302.277-.606 3.443-.246-.044c.075-.586.192-1.159.301-1.745l.282-1.462c-1.982-.365-3.96-.744-5.937-1.132-.285 1.587-.568 3.175-.852 4.763l6.108 1.099-.939 5.484c-.115-.08-.222-.173-.341-.245l-5.751-1.05c-.323 1.844-.633 3.69-.965 5.534-.133.759-.295 1.516-.38 2.283-.028.34-.061.716.122 1.021.18.288.53.385.84.453.634.126 1.276.2 1.908.324l2.456.446.294-.207 1.29-7.312c.121.093.174.242.249.37l-1.371 7.371c-.07.037-.127.126-.213.086Zm-21.148.526c-.072-.016-.002-.121.041-.062.022.028-.006.07-.041.062Zm-.979-.171c.071-.019.087.024 0 0Zm16.457-1.179c-.614-.073-1.222-.195-1.832-.299-2.4-.434-4.795-.89-7.185-1.377-.428-.091-.859-.174-1.283-.282.141-1.004.317-2.003.481-3.003.809-4.798 1.665-9.589 2.504-14.383a674.38 674.38 0 0 1 .375-2.132 363.956 363.956 0 0 1 6.551 1.192c.223.041.439.116.664.156 1.122.24 2.249.45 3.375.672a3.55 3.55 0 0 1-.056.72c-.323 2.019-.703 4.036-1.076 6.05a4872.03 4872.03 0 0 0-2.336 12.673c-.06.005-.121.011-.182.013Zm385.061-88.32v1.305h.49v2.281h-2.283v6.195h.326v-5.869h5.705v7.173h-5.705v-.489h-.326v.489h-.652v.326l2.567.02c1.412.013 2.916.005 3.342-.014l.774-.036v1.497h-1.304v-.814h-.326v.814h-6.52v-1.467h.489v-.326h-.49v-12.389h3.913Zm-195.292-2.852v1.385h-4.89v-2.772h4.89Zm-3.26-2.201v.652h-1.63v-1.305h1.63Zm-155.548.861-.382 2.167-.722-.128-.723-.127.382-2.167.382-2.167.723.127.723.127Zm60.669 10.781-.396 2.247-.722-.127-.723-.129.396-2.247.396-2.247.723.127.723.127Zm228.388-28.433v1.467h-1.304v-2.934h1.304Z"/><path d="M475.688 453.04v3.423h-7.335v.327h.489v.651h.326v-.651h6.52v6.357h-6.52v-4.239h-.326v5.38h.326v-.814h6.52v6.846h-5.542v-2.282h-.978v-2.283h-.326v2.283h-.489v.326h1.467v2.77h-3.75v-2.77h.815v-.326h-.815v-8.477h-.978v.325h.653v18.095h.325v-3.423h1.142v-.325h-1.142v-2.772h3.75v2.772h-1.141v.325h1.141v.489h.326v-4.402h5.542v6.358h-5.542v-.489h-.326v.489h-.978v2.445h.326v-2.119h6.52v6.358h-6.52v-2.772h-.326v.653h-.652v.325h.652v1.794h-2.772v-1.794h.653v-.325h-.653v-2.12h-.325v4.239h-2.932l-.043-10.392-.041-10.392-1.427-.048-1.426-.046v.338h-1.793v-.326h-1.957v-8.966h.652v-.326h-.652v-3.912h4.564v1.304h-.978v1.63h-.651v.978h-.489v.326h.489v6.031h4.564v-.325h-1.956v-.653h-.326v.653h-1.956v-2.771h1.956v.651h.326v-.651h5.216v-.327h-.815v-6.846h9.618Zm-302.377-5.296-1.543 8.748-.32-.056-.322-.056-.028.16-.028.16.32.058.322.056-.693 3.933-.695 3.933-.882-.155-.883-.156-.099.562-.099.562.803.141.802.142-.381 2.167-.383 2.167-.964-.17-.963-.169-.665 3.772-.665 3.773 1.605.284 1.605.282.213-1.204.212-1.204.562.099.562.1.029-.162.028-.16-.563-.099-.561-.099.396-2.247.396-2.248 1.606.283 1.605.283-.396 2.248-.396 2.247-.482-.085-.482-.085-.028.16-.028.162.642.112.642.114.835-4.736.835-4.736 5.619.991 5.619.99.792-4.494.793-4.496 3.532.624 3.532.622-.424 2.407-.426 2.409-2.328-.411-2.328-.409-.127.722-.127.721.16.03.162.028.099-.562.099-.562 2.166.382 2.168.383-.254 1.443-.256 1.446-2.166-.382-2.168-.383.043-.24.041-.241-.16-.028-.16-.029-.043.241-.043.241-.401-.071-.401-.071-.085.482-.085.482 13.084 2.307 13.084 2.307.086-.482.084-.482-.401-.07-.402-.071.283-1.606.284-1.605-2.328-.411-2.328-.409.424-2.409.425-2.408 3.451.608 3.452.609-.793 4.496-.792 4.494 7.706 1.36 7.705 1.358.794-4.495.792-4.495 2.729.481 2.729.481-.425 2.409-.424 2.407-1.364-.241-1.365-.239-.071.401-.071.401.16.028.161.028.042-.241.043-.241 1.927.34 1.926.34-.255 1.445-.254 1.445-1.927-.34-1.927-.339.142-.804.142-.802-.161-.028-.16-.028-.142.802-.141.803-.643-.113-.642-.114-.084.482-.086.481.642.114.643.114-.821 4.654-.821 4.656 1.444.255 1.445.255-.142.803-.14.802 1.685.297 1.686.297.566-3.21.566-3.211-.723-.127-.721-.127.396-2.249.396-2.247 1.756.31 1.755.31.745 1.934.746 1.934-.951 5.396-.952 5.395-7.465-1.317-7.465-1.315.949-5.378.948-5.379-6.582-1.16-6.583-1.161-.084.481-.086.482.482.086.482.084-.057.322-.056.32.16.029.161.028.057-.321.056-.32 2.007.353 2.007.353-.213 1.204-.212 1.205-2.007-.354-2.006-.354.084-.482.086-.482-.161-.028-.161-.028-.113.642-.113.642 2.167.383 2.167.382-.778 4.415-.778 4.415-3.453-.609-3.451-.609 1.104-6.261 1.104-6.261-.16-.028-.16-.028-1.175 6.662-1.175 6.662-2.168-.381-2.166-.383.198-1.124.198-1.123-1.205-.213-1.204-.213.652-3.692.65-3.692 2.008.354 2.006.354.114-.642.112-.642-.16-.029-.16-.029-.086.482-.084.482-1.846-.325-1.846-.326.211-1.204.213-1.204 1.846.325 1.846.326-.056.321-.057.321.161.028.16.029.056-.322.058-.32.48.084.482.086.086-.482.084-.482-5.538-.977-5.539-.976-.084.481-.086.482.401.071.402.071-.24 1.364-.241 1.365 2.488.439 2.489.438-.652 3.693-.65 3.692-3.692-.65-3.694-.652.977-5.538.977-5.539-9.953-1.756-9.954-1.754-.481 2.729-.481 2.729-1.285-.226-1.284-.227-.481 2.729-.481 2.729-8.428-1.485-8.429-1.487 1.359-7.706 1.359-7.705.963.17.964.17.392-2.207.394-2.207.849-1.671.85-1.671 1.472.212 1.473.212.027-.154.027-.156-.32-.056-.322-.056 1.543-8.749 1.543-8.75 2.407.425 2.409.425Zm153.545 1.547v14.183h.325v-.489h7.989v2.607h-7.989v-.489h-.325v.489h-2.771v-30.483h2.771Zm168.068-22.496v1.467h-1.793v1.468h-1.793v-4.402h3.586Zm-19.398-10.514v1.385h-2.935v-2.772h2.935Zm-80.21-11.98-.336.831-.604-.245-.605-.244.336-.832.336-.831.604.245.605.244Zm-10.215-4.743-.244.604-.68-.275-.68-.274.244-.605.244-.604.68.274.681.275Zm9.191 3.361-.671 1.663-.832-.337-.831-.335.671-1.662.672-1.663.832.336.831.335Zm-6.918-4.201-.304.756-1.513-.612-1.511-.61.306-.755.306-.756 1.511.61 1.511.611Z"/><path d="M467.864 411.798v4.238h.326v-1.142h1.792v1.468h.978v1.304h-1.303v.327h5.869v22.169h-3.098V429.73h-.326v1.303h-5.868v-.652h-.327v.652h-3.097v-3.912h3.097v2.282h.327v-2.282h5.868v1.63h.326v-7.499h-4.238v-1.141h-.326v2.119h-5.054v-4.237h5.054v1.14h.326v-1.14h.489v-.327h-.489v-.652h-.326v.652h-5.054v-10.107h5.054Zm-74.308-14.891-.641 1.587-1.587-.64-1.587-.641-.061.15-.061.152 1.587.641 1.587.642-1.68 4.155-1.679 4.157-1.209-.489-1.209-.488.824-2.04.824-2.041-.15-.061-.152-.061-.824 2.04-.824 2.041-.831-.336-.832-.335.306-.757.304-.756-.15-.061-.152-.061-.305.757-.305.755-1.512-.611-1.511-.61.58-1.436.58-1.436 1.511.61 1.513.612-.062.15a.164.164 0 0 0 .09.213l.151.061 1.156-2.86 1.155-2.858.224-.013.225-.012-.153-.164-.154-.165.636-1.573.637-1.575 2.19.885 2.193.885Zm14.993 6.409-1.069 2.646-2.57-1.038-2.569-1.038.58-1.437.581-1.435-.53-.214-.529-.214-.061.152-.061.15.377.153.378.153-.732 1.814-.733 1.813.151.061.151.062.153-.378.153-.378 2.569 1.038 2.57 1.038-.428 1.058-.427 1.058-2.57-1.038-2.57-1.038.092-.227.092-.226-.151-.061-.151-.061-.398.981-.396.983.151.061.151.062.245-.606.244-.604 2.569 1.038 2.57 1.038-1.283 3.174-1.282 3.174-2.57-1.038-2.569-1.038.855-2.116.854-2.115-.15-.061-.152-.062-.244.604-.245.606-1.133-.459-1.133-.458.854-2.115.856-2.117-.151-.061-.152-.061-.366.907-.366.907-.756-.305-.756-.306.672-1.663.672-1.663.756.306.755.306-.122.302-.122.302.151.061.151.061.703-1.737.701-1.739.302.122.304.123.061-.152.06-.152-.302-.121-.302-.122.489-1.209.488-1.209 3.854 1.556 3.854 1.558Zm-73.379 1.308v1.305h-7.989v-2.608h7.989Zm-5.543-3.585v.651h-1.63v-1.303h1.63Zm3.26-2.201v1.385h-4.89v-2.77h4.89Zm33.093-1.141v.734h-1.305v-1.467h1.305Zm2.608.814v1.549h-2.446v-3.096h2.446Zm42.859-10.637-.305.755-.604-.244-.605-.245.305-.756.306-.755.604.244.605.245Zm2.536 1.991-.641 1.587-.681-.275-.679-.275.642-1.587.64-1.587.68.275.681.275Z"/><path d="M368.588 389.953v2.283h-3.261v.326h3.261v1.793h-5.543v2.255l-.204.094-.204.096.204.095.204.096v3.069h-1.956v-3.069l.203-.096.204-.095-.204-.096-.203-.094v-1.114h-.326v5.054h-4.891v-7.988h4.891v1.956h.326v-1.956h.489v-.326h-5.706v-4.564h7.01v4.564h-.163a.163.163 0 0 0-.163.162v.164h1.793v-.326h-1.141v-4.564h5.38Zm131.39 14.591v16.872h1.63v8.965h-6.358v-5.379h-4.238v6.846h.326v-.489h3.586v2.283h-3.586v-.653h-.326v.653h-8.64v-5.706h4.727v-.326h-4.727v-5.38h4.727v-.325h-4.727v-6.032h8.803v6.032h-2.934v.162a.163.163 0 0 0 .163.163h.163v5.38h-.163a.163.163 0 0 0-.163.163v.163h.652v-5.706h7.172v-15.649h-.326v8.966h-7.824v-10.923h7.824v.979h.326v-10.107h-.326v8.803h-7.824v-10.923h7.824v1.142h.326v-6.846h3.913Zm-83.299-23.963-.457 1.133-2.192-.885-2.191-.885-.061.151a.162.162 0 0 0 .089.212l.151.061-.244.605-.245.604.152.061.152.061.244-.604.243-.605 1.89.763 1.889.764-.55 1.36-.549 1.361-1.889-.763-1.89-.765.122-.302.123-.301-.152-.062-.15-.061-.275.68-.275.681.151.06.151.061.091-.226.092-.226 1.89.763 1.889.763-.52 1.284-.518 1.285-1.889-.764-1.89-.763.244-.604.245-.605-.152-.061-.15-.061-.245.605-.244.604-.152-.061a.163.163 0 0 0-.211.09l-.061.152.529.213.528.214-.64 1.587-.642 1.587-5.29-2.137-5.289-2.138.64-1.587.641-1.586 4.384 1.77 4.383 1.771.061-.151a.164.164 0 0 0-.09-.212l-.152-.061.489-1.209.489-1.209-.151-.061-.152-.061-.092.226-.091.227-.68-.275-.68-.275.336-.831.335-.832.681.275.68.275-.092.227-.091.227.151.061.151.061.275-.681.275-.679-.152-.062-.15-.061-.122.302-.123.303-.681-.275-.679-.275.336-.831.336-.831.668.27.667.269-.013.212-.014.214.355-.15c.194-.083.369-.19.389-.237l.035-.087-.983-.396-.983-.397.459-1.134.458-1.133 3.552 1.434 3.551 1.435Zm-85.748-8.478v.734h-1.467v1.467h-.652v.326h.489v3.913h.326v-3.913h5.543v5.869h-5.543v-.978h-.326v1.793h.326v-.489h5.543v3.749h-5.543v-2.282h-.326v.489h-.489v.326h.489v1.467h-2.12v-1.467h.653v-.326h-.653v-.489h-.325v2.282h-12.715v-3.913h1.467v-2.118h11.248v2.771h.325v-4.239h-.325v1.141h-2.474l-.713-.774-.713-.774-.006-1.019-.006-1.019h3.912v1.467h.325v-1.467h.653v-.326h-.653v-2.934h3.75Z"/><path d="M335.17 372.837v1.467h-2.609v-2.934h2.609Zm177.523-12.878v4.075h-18.095v-7.661h5.054v3.259h1.956v1.305h.326v-5.053h10.759Zm-9.129.326v.163h7.336v-.327h-7.336Zm-82.811-45.4v1.712h-3.913v-3.424h3.913Zm-92.104-2.771v1.712h-.815v.325h4.402v1.305h-6.522v13.204h-.489v.327h1.305v.489h.326v-.489h5.38v4.401h-5.38v-2.934h-.326v.489h-.978v.325h.978v2.12h-2.934v-2.12h1.14v-.325h-2.934v-.489h-.325v2.934h-7.173v-4.401h7.173v.489h.325v-.489h.164a.164.164 0 0 0 .162-.164v-.163h-7.824v-4.564h8.965v4.564h-.163a.163.163 0 0 0-.162.163v.164h1.141v-.327h-.489v-14.509h.815v-.325h-.815v-3.423h5.053Zm21.844 0v1.712h-5.053v-3.423h5.053Zm39.939-.408v1.467h.814v3.424h-4.075v-6.358h3.261Zm-.653-1.141v.163h.489v-.325h-.489Zm-.814 0v.163h.489v-.325h-.489Zm-.816 0v.163h.489v-.325h-.489Zm-.815 0v.163h.489v-.325h-.489Zm32.603-.489v1.468h-1.467v-1.468h-1.63v-1.467h3.097Zm-91.288-3.26v1.956h-1.468v-1.467h-3.585v-2.445h5.053Zm-208.822-.163v6.684h-7.009v-10.923h-.327v.653h-2.281v.325h2.281v9.945h-9.617v-9.945h6.194v-.325h-6.194v-.653h-.326v.653h-1.467v3.26h1.467v2.282h-2.935v-5.542h-1.304v.325h.978v9.945h-6.194v-9.945h4.075v-.325h-4.075v-3.098h9.455v1.305h.326v-1.305h9.617v1.305h.327v-1.305h7.009Z"/><path d="M416.025 300.214v4.646h-1.794v.326h13.531v1.794h.326v-1.794h10.106v4.728h-10.106v-1.794h-.326v11.9h-2.445v-12.226h-5.38v.489h-3.097v-.489h-7.662v.326h1.794v8.477h-4.728v-8.477h1.63v-.326h-3.885l-.083-.203-.082-.204-.012.204-.013.203h-14.345v.326h.978v.816h-3.261v-.816h.816v-.326h-.978v-2.608h.978v-.326h-1.305v-9.128h4.564v2.445h.327v-2.445h1.035c.569 0 1.596-.048 2.282-.107l1.247-.105v9.34h-4.564v-3.913h-.327v3.913h-1.792v.326h14.318l.082.204.082.203.013-.203.012-.204h8.803v-.326h-1.792v-9.292h5.053Zm-12.175 5.981.086.214.013-.313.012-.312-.097.098-.099.099Zm0 .815.086.214.013-.313.012-.313-.097.099-.099.099Zm15.272.948v.162h.653v-.326h-.653Zm-.978 0v.162h.653v-.326h-.653Zm-.978 0v.162h.652v-.326h-.652Zm-27.387.651v.163h.489v-.325h-.489Zm-.814 0v.163h.489v-.325h-.489Zm-.816 0v.163h.489v-.325h-.489Zm-.815 0v.163h.489v-.325h-.489Zm-29.668-11.492v1.711h-2.283v1.141h.327v-.814h1.956v3.259h-1.956v-1.303h-.327v.556c0 .307-.044.674-.099.816l-.099.258h1.666v1.793h-7.174v.326h.816v3.912h-1.467v-1.467h-3.586v-2.445h.814v-.326h-2.608v-1.793h10.433v-.327h-.489v-1.303h-.325v1.303h-4.891v-1.303h-.326v1.303h-4.564v-7.009h4.564v4.564h.326v-4.564h4.891v4.564h.325v-4.564h4.076Zm-269.735-23.3-.792 1.609 2.926 1.441 2.926 1.439-4.385 8.911-4.385 8.911-1.983.061c-1.091.033-2.708.102-3.595.153l-1.611.091-3.602-1.771-3.603-1.773 5.938-12.067 5.937-12.067 3.51 1.727 3.512 1.726Zm-7.674 12.275-2.185 4.44 1.082.466 1.082.465.736.005.736.005.898-.286.898-.285.423-.475.423-.475.834-1.689.833-1.69-.094-.853-.093-.854-.395-.709-.396-.71-.536-.509-.535-.508-.763-.388-.764-.388Zm63.533-23.942v.652h-2.77v-1.304h2.77Zm-35.836 1.144-.756 1.536-.877-.432-.878-.431.755-1.536.756-1.535.878.431.878.432Zm276.446-4.485v1.548h-.815v-3.097h.815Z"/><path d="M153.246 261.987v5.705H141.02V265.9h1.467v-1.467h1.629v-3.261h-3.096v-4.89h12.226Zm34.884-5.705v.651h-2.771v-1.303h2.771Zm9.619 0v.651h-2.772v-1.303h2.772Zm194.639-8.721v.244h-3.098v-.489h3.098Zm-340.244.355.878.432-.216.439-.215.439.145.072.147.072.216-.439.215-.439 1.536.756 1.536.755.072-.146.072-.146-1.023-.503-1.025-.504.324-.659.324-.658.658.324.659.324.324-.659.324-.658 1.096.541 1.097.539-.648 1.317-.647 1.316-.22-.108-.219-.108-.072.147-.072.145.219.108.22.109-.144.292-.145.292.147.072.147.072.143-.292.144-.292 3.291 1.619 3.292 1.62-1.261 2.558-1.259 2.561-3.291-1.62-3.29-1.619.863-1.756.864-1.755-.147-.071-.146-.072-1.152 2.34-1.15 2.34.145.072.147.072.215-.439.216-.439 3.292 1.62 3.291 1.619-.72 1.462-.72 1.464-3.292-1.62-3.29-1.619.252-.512.252-.513-.147-.072-.146-.071-.252.511-.252.513-1.17-.576-1.17-.576 1.368-2.779 1.367-2.779-.292-.144-.293-.145-.072.147a.164.164 0 0 0 .075.219l.145.071-1.294 2.633-1.296 2.633-1.975-.971-1.974-.972 1.294-2.634 1.296-2.632 1.317.648 1.316.648.072-.147.072-.146-.292-.143-.293-.145.216-.439.216-.439-.147-.072-.145-.072-.217.439-.216.439-.877-.432-.877-.431.683-1.39.683-1.389Z"/><path d="m53.511 244.955.805.396-.648 1.316-.648 1.317-.805-.396-.804-.397.648-1.315.648-1.317Zm337.246.16v.753l-1.498.009.002 1.908-.299.009.003-3.249h1.792Z"/><path d="M411.134 244.218v3.587h-10.432v-5.217h-.327v1.305h-2.607v.325h2.607v3.587h-4.564v-3.587h.815v-.325h-2.119v.325h.978v3.587h-2.772v-3.587h.978v-.325h-1.303v.325h-3.423v-3.586h11.41v.978h.327v-.978h10.432Zm82.323-5.624v.571h-1.141v-1.141h1.141Zm-314.618.489v1.387h-1.468v-2.772h1.468Zm-39.759-3.973.357.261-.163.27c-.091.15-.454.728-.809 1.285l-.644 1.015-.383-.238c-.868-.543-.893-.553-.051-1.903.806-1.289.759-1.374 1.693-.69Zm-29.825-2.152-.36.732-.731-.361-.731-.359-.137.278c-.074.151-.214.761-.308 1.354l-.171 1.079.121.94.121.94.444.727.445.729.889.72c.489.396 1.114.832 1.391.967l.503.247-.075.373-.073.372-3.183 6.474-3.183 6.473-4.242-2.088-4.241-2.087-.072.147-.072.146 1.901.936 1.901.935-.828 1.682-.827 1.683 1.609.791 1.609.792.827-1.682.828-1.683 3.95 1.944 3.949 1.943-.827 1.682-.828 1.683-1.609-.793-1.609-.791-.432.877-.432.878-.658-.324-.658-.324-.396.804-.396.805-4.241-2.087-4.243-2.087.828-1.683.828-1.682-3.218-1.583-3.218-1.583.827-1.683.828-1.681 1.609.791 1.609.792.072-.146.072-.146-1.609-.792-1.609-.791 4.969-10.091 4.97-10.092 4.239 2.086 4.239 2.086Zm232.435-6.508v.652h-3.097v-1.304h3.097Z"/><path d="m488.77 224.106 1.101 1.075v.942h5.053v11.575h-2.934v2.934h2.934v3.586h-5.216v1.07l-1.024 1.013-1.023 1.015-4.071-.013-4.071-.014-1.181-1.359-1.183-1.359v-.842h-2.934v-2.77l-.449-.013-.447-.013-1.02-1.197-1.018-1.198v-7.163l1.1-1.074 1.101-1.075.529-.002.531-.002v-2.935h2.934v-1.376l.931-.943.933-.941 4.162.002 4.162.004Zm-110.239-4.995v1.626l2.976.049 2.975.047-3.139.037-3.137.038v4.89h.325v-4.565h5.869v6.847h-5.869v-1.304h-.325v1.63h6.194v5.217h1.956v1.141H384.4v22.333h-5.869v3.26h-1.792v-42.873h1.792Z"/><path d="M384.4 219.032v1.549h-.815v-3.097h.815Zm-32.766-6.602v5.217h-1.957v.327h1.957v13.204h-5.38v-13.204h2.283v-.327h-2.608v13.531h-.978v.325h1.792v22.007h2.527l-.105 2.649a197.13 197.13 0 0 0-.122 4.224l-.017 1.575-.503.814-.721.681-.826.338-.875.157-1.695-.051-1.767-.148-2.146-1.024-4.553-2.175-2.408-1.151-1.07-1.027-1.07-1.028-.556-.995a14.42 14.42 0 0 1-.883-1.943l-.326-.946v-3.817l.495-1.2c.757-1.834 1.752-3.392 3.325-5.208.275-.317.757-.899 1.07-1.291a470.61 470.61 0 0 1 2.527-3.094c1.076-1.31 2.232-2.756 2.568-3.215l.611-.833v-3.624h1.467v.326h2.283v-.326h-1.956v-23.963h9.617Zm-10.438 27.189c-.132.159-.825 1.02-1.541 1.914a84.767 84.767 0 0 1-1.386 1.707c-.046.045-.671.815-1.387 1.712-.718.897-1.439 1.777-1.603 1.956-.165.18-.634.766-1.043 1.304l-.743.978-.384.861-.384.861.001.769.002.77.232.867.231.867.772 1.142.772 1.14 1.562.736 1.563.738 1.5.456 1.501.456.781-.163c.431-.09.873-.238.986-.328l.204-.165v-17.955l-.439-.457-.438-.457h-.518Zm6.825-40.131v1.549h-.978v-3.098h.978Zm.027-11.51v4.239h-5.706v.326h.815v4.891h-.815v.325h1.631v1.631h1.467v1.63h-9.456v-3.261h1.631v-.325h-1.631v-4.891h3.913v4.891h-1.304v.325h2.771v-.325h-1.141v-4.891h1.141v-.326h-5.38v-8.477h12.064Zm85.42-23.637v.489h-3.098v-.978h3.098Zm112.48-1.304v.489h-3.098v-.978h3.098Zm14.997-.896v1.549h-7.173v-3.098h7.173Zm-466.711-3.75v1.711h-1.305v-3.423h1.305Z"/><path d="M422.545 156.109v2.526h-2.281v.327h2.281v1.793h.326v-.489h1.957v7.825h.326v-2.445h2.281v4.726h-2.281v-1.467h-.326v4.402h6.195v.653h.325v-.653h.489v-.326h-.489v-2.609h-.978v-3.912h1.467v1.467h1.793v-4.075h.489v9.129h-1.304v.326h1.304v2.282h-2.771v-.651h-.325v.651h-5.869v1.141h-.653v.326h.653v3.261h1.141v-.326h-.816v-4.075h2.772v4.075h-.978v.326h1.304v-4.401h5.542v6.52h-8.965v2.283h.325v-1.957h8.64v7.172h-8.64v-4.401h-.325v1.304h-.653v.327h.653v2.77h-2.283v-2.77h.816v-.327h-.816v-.162a.163.163 0 0 0-.162-.164h-.164v3.423h-8.803v-5.053h8.803v.816h.326v-8.641h.816v-.303l-.367-.052-.367-.052-.027-.653c-.015-.358-.034-3.677-.041-7.376l-.014-6.724h-.326v.489h-.978v.327h.978v1.303H420.1v-1.303h.164a.164.164 0 0 0 .162-.164v-.163h-.651v1.63h-6.033v-5.053h5.38v-.327h-5.38v-5.053h8.803Zm133.999 26.164v-2.609h-.49v-.325h.49v-3.098h-3.098v-.978h.326v.653h2.772v-2.283h-2.772v.816h-.326v-7.147l-.203-.095-.204-.094.204-.095.203-.096v-13.34h.326v3.913h.978v.326h-.978v2.445h3.75v-2.445h-1.63v-.326h.652v-1.305h.326v1.305h.978v2.771h3.096v-6.032h-4.075v.815h-.326v-2.771h.326v1.631h4.075v-5.055h-4.075v2.283h-.326v-2.283h-.652v-.325h5.053v-5.543h-7.173v5.543h.978v.325h-.978v3.75h-.326v-1.467h-.489v-.326h.49v-7.825h-.49v-.325h7.988v-4.077h-7.973v-.273h.488v-3.645h-1.964v3.645h.46v.273h-.466v4.077h.49v.325h-.49v2.934h-.326v-.652h-.489v-.326h.49v-6.358h-1.12v-.273h1.12v-3.645h-3.186v3.645h1.12v.273h-6.9v6.358h7.5v.326h-7.5v6.195h6.521v-4.076h.815v.327h-.489v3.749h2.12v-3.749h-.653v-.327h.652v-.489h.326v3.913h.49v.326h-.49v.652h-6.194v.653h-.326v-.653h-2.772v2.282h1.304v.327h-1.304v9.128h.49v-4.075h1.793v1.467h1.467v-3.912h-.978v-2.608h-.49v-.327h.49v-.651h.326v.651h6.194v4.402h-.326v-1.467h-2.282v4.727h2.282v-2.12h.326v7.336h.49v.326h-.49v1.794h-.326v-5.217h-8.966v6.52h1.957v.327h-1.957v5.706h8.966v-5.706h-6.031v-.327h6.031v-.162c0-.09.074-.163.163-.163h.163v7.498h-.326v-.815h-8.966v5.543h8.966v-3.75h.326v.816h.815v.325h-.815v2.609h2.609v-2.609h-.816v-.325h1.794v.325h-.652v2.609Zm-75.639-46.214v1.547h-.978v-3.096h.978Z"/><path d="M486.447 134.999v.489h2.609v2.771h-9.129v-.489h4.075v-1.793h-1.467v-1.467h3.912Zm54.447.244v.734h-1.467v1.793h4.077v.489h-9.13v-2.771h2.609v-.978h3.911Z"/><path d="M543.502 136.059v1.547h-.978v-3.096h.978Zm-390.42-8.233v4.076h-1.956v.325h1.956v8.151h-3.26v.489h-1.142v-.489h-.978v-8.151h1.956v-.325h-1.956v-8.151h5.38Zm-65.368-10.418v1.319l.316 1.575c.174.865.447 2.785.604 4.264l.289 2.69.001 3.993.001 3.994-.291 2.934c-.16 1.614-.402 3.668-.539 4.564a39.958 39.958 0 0 0-.332 3.465l-.084 1.834h-1.758v-31.951h1.794Z"/><path d="m126.226 107.558 1.263.068v14.984h13.367v3.423h6.521v12.063h-6.521v3.423h-13.367v14.835H87.387v3.748h-2.934v-7.498H91.3v-.326h-6.521v-5.705h.815v1.792h4.11l-.099-.258c-.054-.141-.099-.765-.099-1.385v-1.127h-1.303v-.122c0-.068.106-.746.236-1.509.267-1.569.644-5.228.923-8.965l.189-2.527-.1-2.771c-.16-4.416-.809-10.019-1.259-10.859l-.164-.308h1.478v-1.127c0-.622.044-1.245.099-1.387l.099-.257h-4.762v-4.076H91.3v-.325h-6.847v-3.75h17.824c9.803 0 18.918-.027 20.254-.061 1.338-.033 2.999-.029 3.694.007Zm-23.516 3.967v.162h3.071l.095.204.095.204.095-.204.096-.204h4.048v4.076h-.653v.815h.489v-.326h9.945v4.238h-8.152v22.985h8.152v4.401h-9.945v-14.018h-11.9v.325h11.411v14.182h.653v3.913h-4.048l-.096-.203-.095-.204-.095.204-.095.203h-3.071v.326h7.816l.046-2.16.045-2.159 4.85-.044 4.849-.043v-8.564l2.16-.579 2.161-.578.048-.924.049-.925h-.506v.327h-3.912v-.163a.165.165 0 0 0-.163-.164h-.162v2.283h-2.609v1.467h-2.446v2.772h-2.77v-22.334h2.77v2.772h2.446v1.467h2.609v2.119h4.747l-.111-.774c-.141-.992.008-.9-2.313-1.432l-1.998-.458v-8.584h-9.781v-4.564h-7.825Zm-9.617 0v.162h6.847v1.305h.325v-1.305h.653v-.325h-7.825Zm12.715.978a.163.163 0 0 0 .163.162.163.163 0 0 0 .163-.162.164.164 0 0 0-.163-.163.164.164 0 0 0-.163.163Zm0 .651a.164.164 0 0 0 .163.164.164.164 0 0 0 .163-.164.163.163 0 0 0-.163-.162.163.163 0 0 0-.163.162Zm-2.771 1.467v1.142h-2.772v-1.467h-.325v1.467h-8.478v.326h15.813v-.326h-1.141v-2.282h-3.097Zm5.868 1.305a.164.164 0 0 0 .163.163.165.165 0 0 0 .164-.163.165.165 0 0 0-.164-.163.164.164 0 0 0-.163.163Zm-.651 0a.163.163 0 0 0 .162.163.164.164 0 0 0 .163-.163.164.164 0 0 0-.163-.163.163.163 0 0 0-.162.163Zm-.653 0a.164.164 0 0 0 .164.163.163.163 0 0 0 .162-.163.163.163 0 0 0-.162-.163.164.164 0 0 0-.164.163Zm1.956 9.047v6.929H98.146v.325h11.9v-14.182h-.489Zm.815 1.06v1.304h.978v-2.608h-.978Zm13.856 1.875v.407h.327v-.815h-.327Zm-4.237 0v.407h.325v-.815h-.325Zm-9.619.896v1.304h.978V127.5h-.978Zm13.856.244v.409h.327v-.816h-.327Zm-4.237 0v.409h.325v-.816h-.325Zm4.237 1.142v.407h.327v-.815h-.327Zm-4.237 0v.407h.325v-.815h-.325Zm11.001.184-1.547.429v2.693l.245.094.244.094v4.575h2.445v-3.749h3.504l1.509-.503 1.508-.502v-2.696l-1.345-.417-1.345-.417-1.835-.015-1.837-.014Zm-6.764.957v.407h.327v-.814h-.327Zm-4.237 0v.407h.325v-.814h-.325Zm21.029.815v.57h.489v-.652h5.215v1.957h.489v-2.446h-6.193Zm-16.792.326v.408h.327v-.816h-.327Zm-4.237 0v.408h.325v-.816h-.325Zm-10.27.081a.163.163 0 1 0 .325 0 .163.163 0 0 0-.325 0Zm-4.566 0a.164.164 0 0 0 .327 0 .164.164 0 0 0-.327 0Zm4.566.489a.163.163 0 1 0 .325 0 .163.163 0 0 0-.325 0Zm-4.566 0a.164.164 0 0 0 .327 0 .164.164 0 0 0-.327 0Zm19.073.571v.408h.327v-.816h-.327Zm-4.237 0v.408h.325v-.816h-.325Zm-10.27-.081a.163.163 0 1 0 .325-.001.163.163 0 0 0-.325.001Zm-4.566 0a.164.164 0 0 0 .327 0 .164.164 0 0 0-.327 0Zm35.865.244v.245h4.89v-.489h-4.89Zm-16.792.978v.407h.327v-.814h-.327Zm-4.237 0v.407h.325v-.814h-.325Zm4.237 1.141v.408h.327v-.815h-.327Zm-4.237 0v.408h.325v-.815h-.325Zm-7.662 3.016v.489h2.607v-.978h-2.607Zm-3.424 9.292a.164.164 0 0 0 .327 0 .165.165 0 0 0-.164-.163.164.164 0 0 0-.163.163Zm-.651 0a.163.163 0 0 0 .325 0 .164.164 0 0 0-.163-.163.163.163 0 0 0-.162.163Zm-.653 0a.163.163 0 0 0 .326 0 .163.163 0 0 0-.162-.163.164.164 0 0 0-.164.163Zm-16.139 0v.162h8.478v1.142h.325v-1.142h2.772v2.12h3.097v-2.12h1.141v-.325H91.462Zm14.346 2.608a.164.164 0 0 0 .163.163.164.164 0 0 0 .163-.163.164.164 0 0 0-.163-.163.164.164 0 0 0-.163.163Zm-5.868.733v.734h-6.847v.326h7.825v-.326h-.653v-1.467h-.325Zm5.868-.08a.163.163 0 0 0 .163.162.163.163 0 0 0 .163-.162.164.164 0 0 0-.163-.164.164.164 0 0 0-.163.164Zm17.415-52.957.707.35.407.616.408.618.09.662.089.664h-6.443l.089-.664.088-.662.411-.621.411-.621.714-.346.715-.345h1.608Zm294.548-5.614 14.595-8.382c-1.243-2.184-2.456-4.384-3.676-6.581l-1.078.622-.103-.296.994-.597-2.273-4.125-.487-.13-2.977 1.646 2.466 4.398c.382-.193.771-.381 1.112-.643l.192.333c-.466.225-.931.453-1.4.672l-2.584-4.475c-.214.066-.435.116-.629.235-1.256.663-2.491 1.363-3.73 2.056-1.712.964-3.418 1.938-5.139 2.882-.16.083-.324.154-.477.251a35.156 35.156 0 0 0-1.517.958c.409.639.82 1.277 1.23 1.915 2.281-1.275 4.554-2.565 6.85-3.812.367-.191.726-.4 1.109-.556.055-.004.148-.064.172 0 .203.405.403.813.64 1.199l.188.28c.511-.301 1.023-.602 1.531-.909.535.859 1.024 1.741 1.524 2.621.551.98 1.104 1.961 1.625 2.958.03.082.116.176.094.279l-9.442 5.383 1.085 1.878c.035-.019.071-.04.105-.061Zm-313.919-25.79v1.059h-2.934v-2.119h2.934Zm-7.01-2.2v3.259h-3.749v-6.52h3.749Z"/><path d="M100.591 64.903v3.259h-1.14v.327h1.14v3.749h.327v-.978h2.934v2.771h-2.934v-.652h-.327v.652h-.978v.326h3.424v1.63h.326v-1.63h4.075v4.402h-4.075v-1.63h-.326v1.63h-5.053v-4.402h.489v-.326h-1.467v.326h.651v4.402h-4.564v-4.402h2.771v-.326h-2.771v-5.542h5.216v-.327h-1.141v-6.52h3.423Zm16.302-20.54v1.956h-2.282v-.164a.163.163 0 0 0-.164-.162h-.162v.978h.162a.164.164 0 0 0 .164-.163v-.164h2.282v4.076h-2.282v-2.609h-.326v.489h-1.467v-4.726h-.163a.163.163 0 0 0-.164.162v.163h-1.303v-1.792h3.097v2.445h.326v-2.445h2.282Zm108.76 36.165v-5.044h-.361v-.567h.309v-2.882h8.802v-.412h.515v8.905h5.044V69.822h-5.044v.72h-.515v-.72h-10.758v5.095h.36v.567h-3.242v5.044Z"/></g></g></svg>