<svg xmlns="http://www.w3.org/2000/svg" width="605.324" height="831.578" viewBox="0 0 605.324 831.577"><g xmlns="http://www.w3.org/2000/svg" class="shadow"><g fill="#987f00"><path d="M223.648 682.672v1.548h-3.26v-3.096h3.26Zm101.223-28.525v1.06h-1.141v.489h-1.467v-2.608h2.608Zm-71.148-62.599-4.852-.943.739-4.856 4.971.908Zm-83.239-43.092-.299 1.691-1.637-.335-1.637-.336.085-.771.086-.771.811.143.812.143.155-.883.156-.883.883.156.883.155Zm-57.318-10.726-.128.722.723.127.722.128-.141.802-.142.803-1.445-.255-1.444-.255.268-1.525.269-1.525.723.128.722.127Zm216.595-69.81v.815h-1.793v-3.108h1.793Zm-156.952.564-.354 2.006-1.765-.311-1.766-.311.184-1.044.184-1.043.802.141.803.142.17-.963.17-.963.963.169.963.17Zm160.049-1.298v1.549h-1.793v-3.097h1.793Zm128.933-16.055v1.467h-2.119v-1.63h.978v-1.304h1.141Zm-294.522-15.086-.24 1.365 1.445.255 1.444.254-.184 1.044-.184 1.043-2.568-.453-2.568-.453.424-2.408.425-2.407 1.123.198 1.124.198Zm12.177 3.223-.425 2.408-2.568-.453-2.569-.453.184-1.043.184-1.044 1.445.255 1.445.255.24-1.364.241-1.365 1.124.198 1.123.198Zm17.241-35.155-.416 2.354-2.438-.43-2.438-.43.415-2.354.415-2.354 2.438.43 2.439.429Zm200.609-.068-.684 1.667-1.65-.676-1.36-.55.641-1.587.641-1.587 1.512.611 1.511.61Zm-67.535-2.222v1.549h-1.793v-3.097h1.793Zm3.097 0v1.549h-1.793v-3.097h1.793Zm53.487-.823-.61 1.512-1.663-.672-1.206-.482.547-1.367.672-1.662 1.435.58 1.436.58Zm26.224-11.756-.616 1.512-1.657-.672-1.36-.55.61-1.511.611-1.511 1.511.61 1.512.611Zm-179.018-7.625-.421 2.387-2.557-.451-2.556-.451.42-2.386.421-2.386 2.557.45 2.556.451Zm98.981-8.728v1.467h-3.097v-1.467h1.467v-1.467h1.63Zm85.901-62.022v.734h1.467v1.63h-3.097v-3.097h1.63Zm-89.813-1.222v.815h-1.467v-1.63h1.467Zm21.842 0v.815h-1.467v-1.63h1.467Zm-25.428-.734v1.549h-1.467v-3.097h1.467Zm21.842 0v1.549h-1.467v-3.097h1.467Zm-203.058-46.496v2.123h-1.304v1.467h-1.467v-4.405h2.771Zm9.414-1.589v1.223h-1.304v-2.445h1.304Zm34.882-3.015v.815h-1.304v1.467h-1.467v-3.097h2.771Zm9.617.733v1.549h-1.467v-1.467h-1.304v-1.63h2.771ZM56.884 247.495l-.324.658-.731-.36-.732-.36-.323.659-.324.658-.805-.396-.804-.396.648-1.316.647-1.316 1.536.755 1.536.756Zm120.472-8.346v1.386h-2.934v-1.467h1.304v-1.304h1.63Zm-40.017-5.115 2.084 1.428-.768 1.232-.831 1.233-1.954-1.163-1.89-1.163.839-1.597.694-1.128Zm345.153-98.716v.734h1.467v1.63h-3.097v-3.097h1.63Zm59.984.815v1.549h-3.097v-1.63h1.467v-1.467h1.63Zm-422.496 5.135v2.282h-5.053v-3.097h2.445v-1.467h2.608Zm0-18.419v2.282h-2.608v-1.467h-2.445v-3.097h5.053Zm-13.855 27.356h-3.097v-1.793h3.097Zm0-35.374v.978h-3.097v-1.956h3.097Z"/><path d="m171.016 429.789-5.119-.839.848-5.173 5.119.839Zm4.95-26.221-5.706-.881.833-5.391 5.706.881Zm-72.947-289.71h2.648v-2.295h-2.648Zm0 38.856h2.648v-2.295h-2.648Z"/></g><g fill="#666"><path d="M223.531 685.361v1.141h-2.934v-2.282h2.934Z"/><path d="M232.987 679.818v2.12h-3.913v.978h-.978v.326h.978v1.141h.326v-2.119h3.587v3.423h-3.559l-.096-.204-.095-.204-.095.204-.096.204h-.625v.326h4.566v2.771h-6.195v-2.771h.651v-.326h-.651v-.815h-2.935v-1.63h.652v-.326h-.652v-2.609h-.326v.816h-2.934v-3.424h2.934v1.63h.326v-1.63h2.283v5.217h-.653v.326h1.631v-.326h-.653v-5.217h6.522Zm92.874-25.747v2.771h1.794v.815h5.215v-6.195h2.935v6.195h1.467v14.345h.326v-1.467h1.63v-.326h-1.63v-2.608h4.239v2.608h-1.305v.326h1.63v-9.781h11.901v10.433h-7.662v.326h7.662v7.499h-9.781v-7.499h.814v-.326h-1.14v3.424h-4.075v.326h.814v2.119h-3.097v-2.119h.978v-.326h-.978v-1.305h-.326v18.095h-2.608v-31.625H321.46v-8.477h4.401Zm-3.586.326v1.304h1.467v-.489h1.141v-2.119h-2.608Z"/><path d="M354.063 654.068v2.772h-7.173v.326h.652v.978h.326v-.978h6.195v3.26h-6.195v-.978h-.326v.978h-2.608v-3.26h.651v-.326h-.651v-3.75h-.327v3.75h-3.586v-5.543h3.586v.489h.327v-.489h9.129Zm-93.043-40.782 2.767-15.19c-.277.022-.553.044-.829.068-.105-.074-.247-.119-.305-.241.042-.039.145-.008.211-.02.298-.002.597-.006.896-.01.083-.202.176-.403.208-.623.286-1.4.53-2.808.78-4.216l.799-4.584c-2.697-.511-5.399-1.009-8.09-1.542a10.38 10.38 0 0 1-.634-.142 20.966 20.966 0 0 0-1.619-.215l-1.085 6.586-.211-.037.055-.901c-1.404-.241-2.801-.514-4.211-.706-.245-.039-.495-.027-.743-.033l-.55 3.246c-.066-.021-.17-.015-.213-.05l.635-3.602c1.611.261 3.22.533 4.834.781a18.65 18.65 0 0 0 .351.045c.276-1.697.552-3.395.83-5.092l-.201-.501c-.299-.053-.599-.105-.898-.159-.13.147-.278.285-.343.475-.132.276-.122.602-.295.859-.055.049-.115.099-.19.061l-1.528-.285-.164 1.268-.518.574c-.224-.101-.448-.2-.672-.302-.241.048-.481.095-.722.141l.085.216c-.097-.057-.177-.14-.261-.216.212-1.193.439-2.385.613-3.586-.185.027-.369.098-.558.081a11.028 11.028 0 0 1-.541-.055c-1.132-.141-2.249-.347-3.378-.527l-.226-.038-.581 3.837-.302-.054c.212-1.214.422-2.43.635-3.645-.188-.082-.369-.188-.575-.216-1.129-.228-2.268-.41-3.405-.601a227.099 227.099 0 0 0-5.505-.849c-.241-.03-.481-.071-.723-.076-.06.001-.099.037-.117.093-.114.387-.179.788-.263 1.183-.502 2.542-.936 5.096-1.397 7.645l-.206 1.147 3.795.572-.089.235a2434.2 2434.2 0 0 1-3.757-.57l-1.739 9.888c.368.035.725.066 1.09.145.104.021.205.045.309.068l-.044.247a31.189 31.189 0 0 1-.441-.078l-.777 4.361c.307.11.61.233.932.291 1.32.288 2.658.483 3.988.713.028-.16.056-.32.086-.48l1 .176c.148-.178.336-.328.439-.538.067-.146-.037-.304-.172-.363-.312-.158-.655-.243-.982-.361-.111-.001-.087-.083-.067-.162l.474-2.683c-.914-.185-1.828-.358-2.737-.556l.143-.239 6.883 1.316c.129-.217.259-.433.387-.65l.226.136-.333.73c.294-.039.589-.078.883-.119l.653.293c-.039.042-.046.148-.106.149a22.847 22.847 0 0 0-1.303-.142l-.749 4.245 4.761.839c.218-1.354.451-2.705.649-4.061.013-.108.02-.217.03-.326l-1.533-.19.162-.354a7.768 7.768 0 0 0 1.426.263c.063-.002.166.034.206.01l-.097-.501.26-.05c-.237 1.67-.522 3.334-.755 5.004-.01.09-.009.18-.014.269l15.251 2.6.022-.119Zm-9.461-5.351c-.085.001-.135-.026-.097-.116.139-1.024.31-2.041.468-3.062.128-.828.265-1.654.376-2.485l.019-.305c-1.524-.2-3.046-.414-4.562-.666l-.501-.081-.239 1.958c-.121.144-.209.341-.396.412-.058-.025.009-.14 0-.2l.29-2.153c-1.144-.172-2.287-.353-3.432-.524-.296-.034-.603-.097-.895-.015-.22.064-.327.29-.37.498-.105.5-.201.996-.307 1.497-.061 0-.153.041-.196.018l-.053-.658c-1.466-.275-2.937-.533-4.396-.846l-.654-.148-.486.194-.197 1.114a6.468 6.468 0 0 1-1.277-.084l-.418-.074c.017-.331.087-.659.132-.988.114-.717.237-1.432.357-2.149.352.029.7.1 1.049.149 3.743.587 7.478 1.226 11.225 1.783.082.024.049-.115.078-.166.215-1.063.428-2.125.641-3.188.05.011.189-.067.174.01-.161 1.117-.371 2.226-.563 3.339l4.858.692.324-.229.396-2.244.27-.005-1.513 8.74-.105-.018Zm6.03-10.859c-1.238-.224-2.476-.458-3.716-.666l-.367-.04.058.82-.284-.108.269-1.957.327.059c-.09.24-.182.481-.274.721.316.113.624.247.954.311 1.602.361 3.224.619 4.837.916.536.098 1.072.197 1.609.299l-.047.262c-1.122-.207-2.245-.412-3.366-.617Zm-14.522-1.849c-.671-.026-1.334-.158-1.99-.295-.542-.123-1.095-.25-1.614-.462-.064-.029-.13-.057-.186-.101.016-.072.138.007.199.001l3.274.594.453-.18.463-3.222.301.053-.528 3.554c-.116.059-.246.058-.372.058Zm-76.036-26.237.748-4.617-6.536-1.056-.374 1.244-.212-.19 1.367-7.953c.057-.005.143-.101.175-.019.067.058.05.135.033.212-.27 1.677-.566 3.351-.805 5.032-.051.394-.118.786-.132 1.184.002.096.086.161.13.239l6.143 1.016c.117-.137.249-.264.354-.406l1.407-8.263-7.006-1.118.436-2.466.243.043a57.121 57.121 0 0 0-.297 2.176c2.232.369 4.464.748 6.699 1.102.239-1.42.48-2.839.72-4.259l-6.553-1.097-.179.2-.28-.169.071-.404 3.827.675c.1-.56.179-1.124.314-1.677l1.433.373.292-1.66c.396.029.78.139 1.166.226l.376.089c.159-.491.34-.989.337-1.513l.01-.324c-1.682-.266-3.363-.531-5.043-.8-.403-.054-.808-.133-1.216-.09a.595.595 0 0 0-.512.37c-.125.322-.143.67-.214 1.005-.079.428-.161.856-.243 1.284l-.249.004.53-2.998c.066-.038.126-.103.196-.126 2.277.36 4.555.726 6.835 1.079l.742-4.208c-.19-.07-.375-.159-.579-.183-2.267-.421-4.54-.817-6.81-1.22-8.76-1.548-17.525-3.063-26.286-4.61-8.512-1.497-17.022-3.004-25.534-4.501l-.624 4.108c1.016.212 2.041.377 3.06.566l2.99.533.278.249-.388 2.854-.218-.132a4.567 4.567 0 0 1 .064-1.004c.089-.558.216-1.111.251-1.677l-5.956-1.075c-.127.337-.281.671-.305 1.035-.017.2.02.399.03.598.516.13 1.018.306 1.533.433-.108.476-.237.951-.262 1.44l1.626.164c-.049.561-.207 1.104-.332 1.652-.061.101.038.093.112.101 1.046.145 2.092.288 3.138.431a31.25 31.25 0 0 0-.263 1.953c-.039.28-.092.563-.223.816l-.227-.04c.153-.812.3-1.624.407-2.443-1.772-.277-3.541-.577-5.317-.821-.242-.023-.487-.088-.729-.037-.087-.007-.139.023-.131.117-.212 1.357-.444 2.713-.634 4.074-.011.106-.015.214-.022.32 2.101.317 4.201.648 6.312.894.05.248-.012.499-.035.747-.285 2.24-.661 4.466-.982 6.701a75.178 75.178 0 0 0-.435 3.274c-.104.984-.224 1.966-.288 2.954-.008.138-.021.285.052.411.006.094.099.082.168.097 8.449 1.51 16.897 3.025 25.346 4.533 6.512 1.159 13.023 2.316 19.536 3.476.086-.485.172-.969.256-1.452l.248.043c-.046.483-.176.951-.29 1.421 1.843.354 3.678.742 5.53 1.038.391.063.788.091 1.181.135Zm-20.55-7.95c.026-.457.101-.909.164-1.36.149-.988.297-1.973.511-2.947.006-.081.115-.005.171-.011.112-.016.076.073.062.147-.211 1.27-.44 2.537-.612 3.811l-.047.36-.231.044Zm-2.876-.653c-.811-.075-1.628-.2-2.44-.32-1.525-.235-3.05-.513-4.575-.77l-3.933-.675c-.058-.108 0-.231.001-.345.168-1.264.372-2.537.569-3.802.551-3.472 1.128-6.942 1.688-10.414.237-1.453.471-2.905.704-4.358.153-.042.308.019.461.032 2.076.333 4.146.698 6.217 1.052l4.966.851c-.106.749-.25 1.491-.377 2.238-.97 5.498-1.955 10.994-2.952 16.487-.109.012-.217.039-.327.024Zm-13.824-2.236c-.085-.005-.159-.018-.111-.118a218.927 218.927 0 0 1 .654-3.761c.015-.08.033-.158.05-.237.061.021.163.011.201.047l-.671 4.091-.123-.022Zm17.845-3.476c-.052-.035-.185-.025-.139-.117l1.203-6.955c.055.009.19-.066.181.009-.122.87-.271 1.738-.408 2.605-.242 1.5-.489 2.999-.734 4.498l-.103-.04Zm-16.758-2.561c-.04-.034-.129-.028-.114-.101.005-.354.078-.701.125-1.051.327-2.033.66-4.065.988-6.099l.216.039c-.036.372-.11.746-.165 1.121-.325 2.042-.662 4.082-.996 6.124l-.054-.033Zm18.31-6.57c-.056-.022-.188.008-.142-.087l.631-3.717.219.039-.561 3.79Zm-16.632-4.57.306-1.897.243.044c-.186 1.243-.398 2.481-.6 3.723l-.253.004.304-1.874ZM332.914 470.1v1.385h-4.89v-2.77h4.89Zm-3.26-2.201v.652h-1.63v-1.303h1.63Zm55.638-64.094-.581 1.436-1.511-.61-1.511-.612.581-1.435.579-1.437 1.511.612 1.512.61Zm9.988.519-.337.831-.604-.244-.605-.245.336-.831.337-.83.604.243.605.244Zm-10.215-4.743-.245.604-.68-.274-.681-.275.245-.605.244-.604.68.275.681.274Zm9.19 3.362-.671 1.662-1.209-.488-1.209-.489.671-1.663.672-1.661 1.209.488 1.209.489Zm4.383 1.771-.671 1.662-.756-.305-.755-.306.671-1.661.672-1.663.756.304.756.306Zm-11.3-5.973-.306.756-1.511-.61-1.511-.612.305-.755.305-.756 1.512.612 1.511.61Zm-205.861 84.642c.44-2.413.878-4.826 1.315-7.239-.068-.1-.138-.199-.207-.298-1.13-.182-2.261-.365-3.391-.549l-.517.296-.028.961-.659.125-.358-.278c.164-.095.359-.035.539-.044.061-.017.189.048.187-.045l.663-4.135c1.132.159 2.262.338 3.392.51 1.622.248 3.243.504 4.863.759.362-.762.748-1.516 1.068-2.298.261-.619.59-1.206.895-1.801-.122-.109-.237-.233-.4-.279-.305-.113-.628-.171-.946-.241.19-.287.274-.626.356-.956l.101-.44a.984.984 0 0 1 .338.011c-.102.258-.202.517-.303.775l.211.465 4.112.742c.127-.666.283-1.329.375-2.001.047-.382.08-.805-.134-1.145-.214-.336-.614-.479-.981-.578-.748-.188-1.518-.262-2.281-.358l-.9-.104a55.85 55.85 0 0 0 .207.518l-.271.604c-.046-.044-.167-.049-.155-.122.049-.389.097-.779.144-1.168.213-.034.426-.079.639-.106l3.505.707.634-.222.764-4.086c-.095-.082-.176-.198-.31-.212-.706-.169-1.423-.285-2.136-.417-1.259-.22-2.52-.433-3.788-.605l-1.422 8.054c.087.089.228.155.225.298-.006.049.011.168-.042.168l-3.105-.615-.242-.215c.054-.036.09-.164.162-.113l.747.335c.3-1.477.574-2.958.862-4.438l.748-3.902c-.276.003-.553.007-.829.012l-.049-.252c.073-.053.174-.011.257-.017.75.066 1.497.23 2.246.353.062-.006.184.074.198-.001l2.751-15.549c-.906-.182-1.811-.365-2.717-.544l.044-.248c.809.115 1.602.287 2.402.442l.48.094c.161-.759.292-1.532.579-2.258.041-.1.098-.193.154-.285l2.573.454c.122-.344.254-.686.324-1.045.146-.65.23-1.311.333-1.968-.079-.113-.157-.227-.237-.34-1.709-.328-3.417-.666-5.127-.987-.824-.154-1.655-.271-2.473-.455-.348-.091-.727-.181-.985-.45-.238-.265-.241-.648-.227-.986.045-.701.192-1.392.311-2.084a145.14 145.14 0 0 0 .518-2.994c-1.446-.24-2.891-.481-4.337-.72-.136.641-.265 1.277-.417 1.914-1.346-.199-2.692-.402-4.044-.56-.299-.045-.628-.071-.915-.199-.081-.029-.126-.113-.094-.194-.006-.099.119-.019.179-.027 1.538.214 3.072.461 4.619.604.067-.002.176.052.159-.058l1.069-6.242c-.154-.132-.3-.28-.459-.401-.906-.18-1.817-.326-2.713-.551a1.068 1.068 0 0 1-.277-.101c-.239-.042-.452.115-.675.177a1.011 1.011 0 0 1-.574.023l-.244-.042c-.019.106-.037.214-.057.32-.259-.065-.531-.02-.784.054-.523.068-1.054.069-1.582.074-.545-.002-1.09-.001-1.634-.011-.648-.188-1.318-.326-1.931-.616-.167-.095-.314-.259-.519-.258-.403-.071-.749-.31-1.075-.541-.838-.631-1.549-1.413-2.198-2.232a15.512 15.512 0 0 1-1.612-2.505l-.323-.604c.032-.17.088-.379-.048-.518a.239.239 0 0 0-.155-.065c-.121-.784-.264-1.561-.298-2.356-.032-.61-.017-1.23.048-1.83.129-1.189.472-2.386 1.067-3.437.33-.573.729-1.111 1.12-1.64.296-.383.588-.781.933-1.129.125-.103.254-.201.38-.301a84.006 84.006 0 0 1 .533-3.79c.03-.185.059-.369.087-.554l.825.138a4.484 4.484 0 0 1 .049-.768c.157-1.338.378-2.67.481-4.013.007-.163.038-.338-.046-.487-.031-.061-.031-.163-.123-.147l-2.291-.335-.398 2.963-.244-.147c.098-.781.262-1.553.405-2.327l-.466-.665-.72-.127a12.58 12.58 0 0 0-1.024.805 78.89 78.89 0 0 1-1.64 1.417c-.395.337-.763.703-1.128 1.072a3.973 3.973 0 0 1-.568.475c-.473.373-.882.822-1.351 1.2-.278.189-.516.43-.765.655-.285.272-.581.534-.836.835-.068.105-.053.241-.086.358.013.044.133-.044.189-.052.083-.033.165-.082.258-.06.863.076 1.719.203 2.577.319a159.508 159.508 0 0 1 4.453.686c.136-.929.272-1.858.406-2.788.06-.022.116-.05.177-.066.041.258-.009.52-.031.778-.09.751-.194 1.501-.29 2.252-.113.062-.243.013-.365.013-1.517-.157-3.036-.401-4.555-.617-.921-.131-1.841-.269-2.766-.375-.036.462-.062.925-.062 1.39-.029 2.59-.026 5.181-.026 7.772.007 3.429.009 6.857.051 10.287.011.385.002.773.05 1.156a37.069 37.069 0 0 1 .068 2.245c.003.746.003 1.491.004 2.235 1.945.317 3.888.644 5.835.95l.318.047c-.024-.239-.078-.478-.046-.719.096-1.224.299-2.45.428-3.678.022-.268.064-.537.053-.807-.039-.072.002-.103.073-.131.101-.051.199-.124.304-.164l4.6.746c.056.121.017.261.018.389-.056.85-.18 1.701-.272 2.55-.095.835-.17 1.673-.291 2.504l2.798.363c.018.066.076.145.068.203-.087.04-.201.013-.285.013-.8-.073-1.595-.2-2.391-.308l-2.175-.315-.473.247c-.248 1.492-.487 2.985-.745 4.475-.202 1.144-.431 2.284-.656 3.423.007.167.178.256.304.33.094.048.191.09.285.134l-.198 1.131c1.928.343 3.862.65 5.793.979 1.6.271 3.2.535 4.797.825 1.467.284 2.942.599 4.422.836l2.087.345c.05.072.101.145.152.215-.054.042-.086.151-.165.103a25.779 25.779 0 0 0-3-.604c-.185-.015-.383-.07-.555.025-.075.022-.147.046-.136.138l-2.673 15.307.223.316c1.486.26 2.974.519 4.461.783l-.037.211a8.235 8.235 0 0 1-1.392-.281c-.082-.035-.049.113-.078.164-.521 2.646-1.047 5.29-1.57 7.935.484.085.967.171 1.451.255l-.043.245c-.841-.125-1.676-.289-2.514-.435l-4.034-.735c-.455 2.933-.899 5.867-1.393 8.793-.041.216-.066.427-.124.637-1.118-.171-2.234-.36-3.355-.506-.13.69-.253 1.381-.382 2.072-.039.157-.073.373-.26.413-.285.05-.575-.017-.858-.047-.773-.109-1.547-.211-2.321-.316.252-1.301.512-2.6.757-3.904.233-1.28.467-2.559.699-3.839l1.548.323.367-2.132 1.647.299.338-2.203-9.197-1.846c-.008-.059-.085-.134-.048-.182.108-.102.232-.192.329-.3.227-1.141.44-2.287.711-3.42l.189-.749c-.123-.104-.237-.223-.366-.318-2.697-.531-5.4-1.051-8.087-1.613l-1.425-.306-1.519 8.37c1.524.29 3.039.623 4.557.944.25-1.124.432-2.26.635-3.392.164-.047.326-.113.49-.151 1.118.237 2.235.47 3.351.712l-2.843 15.553c.553.138 1.118.222 1.679.33 4.923.903 9.846 1.794 14.771 2.689.15-.686.269-1.378.363-2.074.182-1.264.361-2.53.601-3.785.042-.172.057-.359.161-.508l.884.155-.041.232-.77.056c-.105.909-.23 1.815-.367 2.718-.161 1.08-.332 2.158-.5 3.236l6.573 1.197.022-.119Zm1.236-47.235-1.536-.302-.06-.304c.088-.072.214-.032.318-.036.709.063 1.412.22 2.112.377l.73.169-.07.39-1.494-.294Zm-4.489-1.007-1.433-.252a25.66 25.66 0 0 1 .129-.392c.966.169 1.932.339 2.899.511-.044.13-.086.26-.128.391l-1.467-.258Zm-2.448-4.157c-.082-.005-.153-.02-.142-.119.002-.056-.078-.195.028-.15l.372.066-.135.225-.123-.022Zm-1.236-.264c.025-.055 0-.185.058-.192l.312.055a.513.513 0 0 1-.395.277l.025-.14Z"/><path d="M175.385 424.546c.272-.092.551-.197.846-.179.311.045.623-.032.928-.091.463-.1.913-.262 1.381-.338.208-.015.376-.16.542-.271.055-.052.158-.071.151-.162l2.27-13.445c.08.019.171.019.237.072-.24 1.559-.502 3.117-.753 4.674.321-.006.644-.033.964.004a18.191 18.191 0 0 1 1.092.137c.434.061.869.13 1.308.136l.417-.032c.037-.407.065-.819.186-1.213 1.124.231 2.243.503 3.361.765 1.395.31 2.812.519 4.223.733.621.101 1.238.237 1.863.325a.27.27 0 0 0 .253-.07c.067-.031.104-.082.103-.156.389-2.079.787-4.153 1.159-6.234l.427-2.357a30.548 30.548 0 0 1-.174-.368c-.928-.207-1.853-.422-2.783-.624l-2.122-.383c-.084.794-.171 1.586-.242 2.381-.065-.021-.159-.011-.204-.049-.052-.302-.009-.604.024-.902.073-.642.19-1.294.319-1.932-.101-.088-.194-.198-.334-.22-.755-.2-1.523-.343-2.29-.493-.914-.178-1.83-.348-2.733-.577-.12-.033-.233-.088-.348-.132.009-.147.159-.225.272-.291.12-.06.241-.119.361-.177-.026-.367.002-.742-.098-1.098-.025-.1-.097-.192-.207-.198-.453-.119-.908-.235-1.362-.351l-.259 1.469.411.448c-.083.032-.165.083-.25.101l-1.357-.318c-.177.831-.3 1.672-.447 2.508l-.361 2.138c-.092-.036-.183-.073-.276-.108.45-2.812.9-5.624 1.352-8.435-.26-.087-.52-.184-.792-.226a169.625 169.625 0 0 0-4.638-.81 12.993 12.993 0 0 0-1.025-.133c-.278 1.825-.555 3.651-.834 5.476-1.323-.194-2.64-.417-3.96-.628l-1.761-.285-.353.247c-.184 1.269-.368 2.538-.516 3.812-.377.4-.757.797-1.096 1.231-.281.363-.575.72-.809 1.116-.167.323-.384.618-.559.937-.218.381-.429.77-.63 1.16l-.727 3.564.317.056-.152.855c.241.748.456 1.505.723 2.244.306.86.839 1.609 1.341 2.363.702 1.041 1.565 1.985 2.602 2.702.618.43 1.268.841 1.998 1.053.836.249 1.705.359 2.562.514.147.021.295.06.442.07l.011-.004Zm1.638-5.1c-.037-.077-.097-.149-.121-.227l1.084-7.132a41.578 41.578 0 0 0 2.023.263c-.046.136-.09.273-.135.409-.494-.06-.988-.122-1.482-.177a443.727 443.727 0 0 0-1.09 7.017c-.06-.005-.148.05-.19.005l-.089-.158Zm149.86-16.916v1.467h.325v-.651h7.989v2.607h-7.989v-.651h-.325v35.7h.325v-3.75h3.587v-2.934h4.402v5.38h-5.869v1.467h.326v-1.141h5.543v8.314h-5.543v-5.869h-.326v3.423h-2.12v-3.585h-.325v21.191h.325v-.489h7.989v2.608h-7.989v-.489h-.325v.489h-2.772v-24.941h-.326v4.076h-.814v.325h.814v2.445h-3.748v-2.445h1.629v-.325h-1.956v2.77h-6.031v-5.215h7.825v-1.794h-.327v1.467h-7.498v-3.75h7.498v.978h.327v-2.118h-.327v.815h-7.498v-7.499h7.498v5.379h.327v-1.956h2.281v5.543h.326v-38.309h2.772Zm-2.445 30.158v2.446h2.119v-4.891h-2.119Z"/><path d="M329.654 401.063v.653h-1.63v-1.305h1.63Zm3.26-2.201v1.387h-4.89v-2.772h4.89Zm76.81-10.781-.642 1.589-5.291-2.139-5.289-2.137.641-1.587.641-1.587 5.29 2.137 5.29 2.137Zm1.695-.281-.305.756-.604-.245-.606-.243.306-.757.306-.755.604.244.605.245Zm2.536 1.992-.641 1.587-.681-.275-.679-.274.641-1.588.641-1.587.68.275.681.275Zm-184.734-15.937.034 1.157-.149-.092-.149-.093-.001-1.064-.001-1.065h.233Z"/><path d="M198.403 401.466a232.354 232.354 0 0 1 .871-4.535c.79-3.945 1.587-7.887 2.381-11.832-.8-.115-1.602-.207-2.398-.347-.269-.054-.557-.095-.821-.189-.052-.043-.169-.053-.178-.116.025-.055-.008-.194.088-.146 1.513.27 3.025.54 4.539.812l.482-.193c.727-3.724 1.446-7.452 2.226-11.166.116-.53.221-1.06.362-1.584.579.069 1.158.173 1.741.269 2.197.373 4.389.793 6.584 1.192 4.106.76 8.215 1.519 12.317 2.314.849.167 1.705.328 2.545.52.089.002.011.112.015.165-.13.56-.213 1.129-.317 1.694.727.17 1.465.282 2.199.419.972.174 1.944.342 2.917.515-.065.254-.082.518-.147.774l-.316 1.528a568.317 568.317 0 0 1 6.478 1.225c.421-1.904.846-3.807 1.265-5.711l.956-5.379c-.68-.071-1.354-.141-2.03-.24a866.12 866.12 0 0 1-9.891-1.457l-.666 3.774-.252.271c-8.892-1.644-17.783-3.296-26.678-4.919l-3.906-.712-1.775 9.901-.166.187-2.797-.549c-.348 1.538-.624 3.092-1.021 4.619-.05.225-.14.435-.236.643-.01.059-.103.16-.058.189l3.547.625a9.47 9.47 0 0 1-.043.243c-.913-.151-1.83-.29-2.74-.464-.184-.033-.381-.095-.569-.146-.178.537-.365 1.07-.536 1.608l-2.715 14.643c1.226.234 2.451.476 3.685.669-.032.183-.071.366-.107.548l1.999.4c.035-.179.073-.357.104-.537l3.04.597Zm222.377-86.555v1.711h-3.913v-3.423h3.913Zm-70.26-2.772v1.712h-5.053v-3.424h5.053Zm-21.845-5.298v1.957h-1.467v-1.468h-3.586v-2.445h5.053Z"/><path d="M334.219 299.995v4.564h-1.631v.326h3.423v1.63h-3.259v.652h.162a.164.164 0 0 0 .163-.163v-.163h2.934v7.01h-2.934v-5.543h-.325v1.277l-.205.095-.204.096.204.094.205.095v3.886h-1.467v.326h.978v1.303h-6.522v12.879h-2.119v-14.182h.816v-.326h-.816v-3.424h5.053v3.424h-.814v.326h2.445v-.326h-1.304v-3.913h2.608v-.162a.164.164 0 0 0-.163-.164h-.162v-.652h-.327v.652h-1.956v-2.934h1.956v1.467h.327v-2.119h-.164a.163.163 0 0 0-.163.162v.164h-1.956v-1.467h1.929l.067.202.068.203.272-.273c.149-.15.272-.314.272-.365v-.093h-2.608v-9.129h5.217Z"/><path d="M343.184 298.935v3.505h-3.261v.325h3.424v.489h.326v-.489h13.204v1.794h-7.173v.326h.816v3.913h-1.467v-1.468h-3.586v-2.445h.814v-.326h-2.608v-.489h-.326v.489h-1.467v.326h3.26v8.966h-4.564v-8.966h.163a.164.164 0 0 0 .163-.164v-.162h-4.269l.035-1.019a33.65 33.65 0 0 0 .014-1.631l-.018-.611h-2.12v-5.868h3.75v7.01h-.163a.164.164 0 0 0-.164.163v.162h.978v-.162a.163.163 0 0 0-.162-.163h-.163v-7.01h4.564Zm77.432 1.222v4.728h-1.63v.325h6.031v2.609h-5.053v3.749h-1.467v-1.467h-1.63v-2.282h-2.771v.326h2.445v8.477h-5.217v-8.477h1.631v-.326h-3.75v.326h1.794v8.477h-4.728v-8.477h1.63v-.326h-.815v-2.609h.815v-.325h-1.63v-9.292h4.401v9.292h-1.467v.325h3.586v-.325h-1.792v-9.292h5.053v9.292h-1.794v.325h3.423v-.325h-1.303v-9.455h4.238Zm-13.313 11.648-.011 1.495 1.167.008 1.169.007.012-1.495.011-1.494-1.167-.008-1.169-.007Zm-263.486-49.63v.652h-2.771v-1.304h2.771Zm53.959-.081v2.037h-2.772v-4.075h2.772Zm-9.619-2.854v.653h-1.304v-1.304h1.304Zm8.151 0v.653h-1.304v-1.304h1.304Zm-17.443-20.131v1.385h-1.467v-2.772h1.467Z"/><path d="m138.73 234.827.374.18-.077.202-.079.2.312.283.312.282.098-.256.098-.254 1.495.889c.821.489 1.592.948 1.709 1.02l.215.13-.502 1.096-.502 1.097-.152-.095-.153-.095-.188.352-.189.351.162.102.161.101-.4.816a28.755 28.755 0 0 0-.659 1.442l-.257.627.229.145c.356.226.446.183.717-.34l.253-.489h10.261v-.325h-7.825v-4.566h13.856v4.566h-5.053v.325h19.073v-4.891h3.75v1.305h-1.468v1.793h4.564v5.053h.327v-1.467h5.868v1.467h.326v-2.934h2.445v.978h.326v-.978h9.619v4.402h-.653v.326h.653v9.292h-2.772v-1.305h.489v-7.987h.489v-.326h-7.825v-2.446h-.326v10.759h.326v1.305h-2.771v-4.728h-.326v10.107h.326v-2.282h2.771v5.379h-2.771v-1.956h-.326v1.956h-1.467v-15.649h1.467v1.304h.326v-4.076h-.326v1.305h-5.868v-1.305h-.327v2.934h-10.432v-4.89h-15.487v.326h4.891v4.564h-10.433v-4.564h4.564v-.326h-7.009v.326h2.119v4.564h-1.957v.327h1.141v5.706h-1.141v.325h2.772v3.75h.325v-3.75h5.055v11.412h-5.055v-6.358h-.325v6.358h-6.847v-1.794h1.468v-1.467h1.629v-3.261h-3.097v-4.89h2.771v-.325h-1.141v-5.706h1.141v-.327h-5.691l.414-.825.415-.824-.091-.235-.09-.234h-.494l-.453.895-.452.896-6.927-4.013c-3.809-2.207-7.013-4.096-7.12-4.196l-.194-.184.52-.851c.643-1.052.287-1.112 3.235.544 4.368 2.452 8.842 4.983 9.377 5.305l.518.311.297-.326c.163-.179 1.031-1.684 1.927-3.343l1.63-3.018.224.036.222.037.185-.292.185-.292-.408-.315c-.225-.172-.481-.298-.571-.28-.089.02-.582-.201-1.094-.491l-.93-.526.271-.474.273-.475-.217-.261c-.298-.36-.38-.333-.699.228-.309.545-.428.584-.842.28l-.286-.209.58-.963c.32-.531.581-1.023.581-1.095 0-.17.155-.153.618.069Zm.843 10.242-.386.826.167.265c.092.145.246.291.344.324l.176.058.191-.579.192-.579h3.724v-.326h-3.443l.116-.187.116-.188-.301-.22c-.439-.321-.472-.299-.896.606Z"/><path d="m133.584 231.828 1.893 1.107-.344.544-.345.545.501.423.501.423-.132.35c-.072.193-.204.395-.292.448l-.159.099-.766-.329-.767-.327.221-.284.223-.283-.245.182-.244.182-1.667-.916c-1.955-1.073-1.843-.826-.973-2.18l.702-1.09Zm347.348-95.745v1.549h-.978v-3.098h.978Zm62.597 0v1.549h-.978v-3.098h.978Z"/><path d="M523.152 120.76v3.504h-4.401v1.142h.326v-.815h4.075v2.771h-4.075v-.978h-.326v1.956h.326v-.653h27.877v2.12h-6.847v.326h1.793v2.609h-4.727v-2.609h1.63v-.326h-4.728v6.032h-.489v.326h.49v.489h.325v-1.142h2.609v-.978h3.912v1.467h-1.467v1.794h4.075v.489h-9.129v-.489h-.326v.489h-1.956v-2.119h.49v-.326h-.49v-6.032h-13.04v-.652h-.327v3.587h-.652v.325h.652v5.217h-7.499v-5.217h5.869v-.325h-.652v-.816h-.326v.816h-4.89v-2.609h4.89v.815h.326v-1.141h-9.781v.326h1.304v.815h.326v-.815h2.608v2.609h-2.608v-.816h-.326v.816h-1.63v.325h4.564v5.217h-6.846v-5.217h1.303v-.325h-4.891v.325h3.261v5.217h-5.38v-5.217h.652v-.325h-1.793v.325h.815v5.217h-6.357v-5.217h4.727v-.325h-.652v-.978h-.326v.978h-3.749v-2.609h3.749v.815h.326v-.815h1.63v-.326h-6.031v6.032h-.49v.326h.49v2.119h-1.957v-.489h-.326v.489h-9.128v-.489h4.075v-1.794h-1.467v-1.467h3.912v.978h2.608v1.305h.326v-.652h.489v-.326h-.489v-6.032h-4.727v.326h1.63v2.609h-4.727v-2.609h1.793v-.326h-6.846v-2.12h24.288v2.12h-2.445v.326h7.01v-.326h-1.304v-.652h-.326v.652h-2.609v-2.12h2.609v.653h.326v-.653h4.075v-.325h-2.12v-.815h-.325v.815h-5.543v-10.107h5.543v8.314h.326v-8.314h5.542v10.107h-1.956v.325h6.195v-10.432h7.335Zm-412.915 31.953v-4.076h-.816v-.325h5.133v-15.734h.38v7.823h2.412v-2.117h2.618v-12.553h-2.618v-2.117h-2.412v7.823h-.38v-15.315h-5.133v-.326h.816v-4.238h-4.566v1.793h.772v2.445h1.022v.326h-2.772v4.646l.978 4.005v14.77l-.978 4.002v4.767h2.772v.325h-1.022v2.283h-.772v1.793Zm8.802-14.918h-.978v-2.608h.978Zm0-3.913h-.978v-2.607h.978Zm0-5.216h-.978v-2.608h.978Z"/></g></g></svg>