<?xml version="1.0" encoding="UTF-8"?>
<svg id="Discord.gg-_x40_marazm" xmlns="http://www.w3.org/2000/svg" version="1.1" viewBox="0 0 757.8 954.12">
  <!-- Generator: Adobe Illustrator 29.8.3, SVG Export Plug-In . SVG Version: 2.1.1 Build 3)  -->
  <defs>
    <style>
      .st0 {
        fill: #0b20b5;
        stroke: blue;
      }

      .st0, .st1, .st2, .st3, .st4, .st5, .st6 {
        stroke-miterlimit: 10;
      }

      .st0, .st7 {
        stroke-width: 3px;
      }

      .st8, .st6 {
        fill: #111;
      }

      .st9 {
        stroke-dasharray: 0 0 2 .75;
        stroke-width: 8.5px;
      }

      .st9, .st10, .st7, .st11, .st12, .st13 {
        stroke-miterlimit: 3.39;
      }

      .st9, .st14, .st15, .st1, .st16, .st2, .st3, .st7, .st17, .st11, .st12, .st4 {
        fill: none;
      }

      .st9, .st7, .st11, .st12 {
        stroke: #424242;
      }

      .st10, .st1, .st13 {
        stroke-width: .75px;
      }

      .st10, .st16, .st13, .st4, .st5, .st6 {
        stroke: #000;
      }

      .st10, .st13 {
        fill: #212121;
      }

      .st14, .st15, .st16, .st17 {
        stroke-dashoffset: .5px;
        stroke-miterlimit: 3;
      }

      .st14, .st2 {
        stroke-width: 2px;
      }

      .st14, .st17 {
        stroke: #914833;
        stroke-dasharray: 0 0 .5 .5;
      }

      .st15 {
        stroke: #4a6b96;
        stroke-dasharray: 1 2.5 4.5 1.5;
      }

      .st15, .st16, .st17 {
        stroke-width: 1.5px;
      }

      .st18 {
        fill: #424242;
      }

      .st1 {
        stroke: #987f00;
      }

      .st19 {
        fill: #8d8d8d;
      }

      .st16 {
        stroke-dasharray: 0 0 1.5 2;
      }

      .st2 {
        stroke: #333;
      }

      .st3 {
        stroke: #09b716;
        stroke-width: .25px;
      }

      .st20 {
        fill: #333;
      }

      .st11, .st12 {
        stroke-width: 6px;
      }

      .st12, .st13 {
        isolation: isolate;
        opacity: .4;
      }

      .st4, .st6 {
        stroke-width: 1.25px;
      }

      .st5 {
        fill: #666;
        stroke-width: .5px;
      }
    </style>
  </defs>
  <g>
    <polygon class="st8" points="410.9 277.74 413.44 289.48 445.8 292.04 446.63 280.56 410.9 277.74"/>
    <polygon class="st8" points="448.64 273.67 447.9 283.88 493.45 286.74 500.33 158.77 563.69 161.61 564.1 152.37 491.57 147.94 484.99 275.28 448.64 273.67"/>
  </g>
  <path class="st10" d="M395.85,948.74l54.6-11.8-1.23-5.71,7.91-1.71,17.08-49.73c8.49-6.04,16.96-12.08,25.45-18.12,1.02-.56,2.03-1.1,3.05-1.66,22.5-10.78,45-21.55,67.51-32.33,1.53-.51,3.05-1.03,4.57-1.54,1.42.29,2.84.56,4.27.85l57.2,2.4c1.84-.19,3.68-.4,5.53-.59,1.87-36.84,3.74-73.67,5.6-110.51l105.66,5.14c.28-4.5.54-8.99.82-13.49-35.18-1.68-70.37-3.36-105.55-5.04,1.54-29.1,3.1-58.2,4.65-87.3,34.44,1.65,68.86,3.3,103.3,4.94.39-5.08.76-10.15,1.15-15.23-34.77-1.65-69.54-3.3-104.31-4.96l.28-3.85c-15.4-.99-30.79-1.98-46.2-2.96,7.35-143.88,14.7-287.77,22.06-431.65-21.02-.88-42.05-1.75-63.07-2.63.46-8.54.92-17.07,1.38-25.61,1.57.07,3.14.15,4.71.22.06-2.56.13-5.13.19-7.69l-4.46-.28c.32-6,.64-12.02.95-18.02,1.6.05,3.19.11,4.79.17.06-2.53.1-5.07.16-7.59-1.52-.05-3.06-.1-4.59-.15.33-5.49.66-10.99.99-16.48,1.54.09,3.1.17,4.64.27l.45-7.61c-1.67-.1-3.34-.2-5.02-.3.34-5.11.68-10.23,1.02-15.33l4.64.29c.32-4.62.65-9.24.98-13.86-3.96-.41-7.92-.82-11.88-1.24-.42,4.72-.85,9.43-1.27,14.15l4.77.59-.75,15.26c-1.35-.06-2.69-.11-4.05-.17-.21,2.45-.4,4.9-.61,7.34,1.47.12,2.94.25,4.4.38-.33,5.54-.64,11.09-.97,16.62l-4.42-.15c-.1,2.48-.2,4.94-.3,7.42,1.48.08,2.97.16,4.45.24-.33,5.99-.67,11.97-1,17.96-1.4-.12-2.8-.24-4.2-.36h0c-.26,2.48-.53,4.95-.8,7.43,1.55.25,3.11.5,4.65.75-.52,8.53-1.03,17.07-1.54,25.6-21.06-.86-42.11-1.72-63.18-2.58-2.36,42.58-4.71,85.15-7.07,127.72-14.95-.85-29.89-1.7-44.84-2.56l.87-16.3c-.79-.18-1.58-.35-2.37-.54-.4,8.26-.81,16.51-1.21,24.78-10.71-.87-21.42-1.74-32.13-2.61-20.77-96.18-41.55-192.36-62.32-288.56L.45,76.68l4.51,20.88,8.41-1.82,56.99,263.59,21.94-4.74c-17.17-79.11-34.33-158.21-51.49-237.32l101.71-21.99,116.4,538.35c20.49,6.53,40.97,13.06,61.47,19.58,18.04,82.29,36.09,164.58,54.12,246.87,6.54,7.08,13.1,14.15,19.64,21.23l4.61,21.82c-.96,1.86-1.92,3.73-2.87,5.6h-.03Z"/>
  <g>
    <g>
      <path class="st19" d="M376.27,897.77c.15.33.45.86.99,1.35.75.7,1.57.92,1.97,1.01l13.51-2.92c.25-.08,1.25-.47,1.84-1.55.54-.99.4-1.93.36-2.21l-57.92-267.87c-.06-.29-.3-1.05-1.02-1.64-1.16-.95-2.59-.63-2.76-.59l-11.92,2.58c-.28.06-1.39.33-2.21,1.39-.84,1.09-.78,2.27-.77,2.55l57.62,266.48"/>
      <path class="st19" d="M595.03,528.88c-.22,0-1.8.01-2.92-1.28-.95-1.1-.92-2.38-.91-2.66,5.8-113.25,11.59-226.52,17.39-339.77,0-.26.05-1.43.99-2.38,1.07-1.08,2.45-1.04,2.66-1.03,3.66.28,7.33.57,11,.85.24.02,1.4.13,2.29,1.11.99,1.13.83,2.49.8,2.69-5.81,113.44-11.61,226.88-17.42,340.32.02.18.1,1.28-.72,2.18-.9.99-2.15.94-2.31.93-3.61-.32-7.22-.65-10.84-.98h-.02Z"/>
      <path class="st19" d="M590.15,488.65c1.3-1.3,1.46-2.9,1.5-3.34,4.8-99.97,9.61-199.95,14.42-299.92.02-.17.28-1.84-.97-3.11-1.09-1.1-2.49-1.05-2.71-1.03-5.67-.34-11.33-.67-17-1.01-.32-.01-1.6-.01-2.7.95-1.43,1.25-1.35,3.05-1.33,3.26-5.12,100.15-10.24,200.31-15.37,300.46-.03.17-.31,1.88.92,3.14.89.9,2,1,2.29,1.01,5.56.35,11.13.7,16.69,1.06.31.03,2.57.22,4.26-1.48h0Z"/>
      <path class="st19" d="M369.55,412.37c-.83,1.43-2.25,1.8-2.5,1.86-12.17,2.68-24.32,5.37-36.49,8.06-.32.04-1.81.2-3.18-.83-1.24-.93-1.57-2.2-1.66-2.55l-21.76-100.62c-.05-.24-.31-1.6.57-2.9.85-1.25,2.13-1.54,2.39-1.59,11.75-2.66,23.51-5.33,35.27-8,.26-.08,2.29-.66,4.13.62,1.48,1.03,1.86,2.58,1.93,2.94l21.54,99.65c.08.22.63,1.8-.28,3.36h.02Z"/>
      <path class="st19" d="M345.81,302.11c-.83,1.43-2.25,1.8-2.5,1.86-12.17,2.68-24.32,5.37-36.49,8.06-.32.04-1.81.2-3.18-.83-1.24-.93-1.57-2.2-1.66-2.55l-21.76-100.62c-.05-.24-.31-1.6.57-2.9.85-1.25,2.13-1.54,2.39-1.59,11.75-2.66,23.51-5.33,35.27-8,.26-.08,2.29-.66,4.14.63,1.48,1.03,1.86,2.58,1.93,2.94l21.54,99.65c.08.22.63,1.8-.28,3.36h.02Z"/>
      <path class="st19" d="M321.87,191.39c-.83,1.43-2.25,1.8-2.5,1.86-12.17,2.68-24.32,5.37-36.49,8.05-.32.04-1.81.2-3.18-.84-1.24-.92-1.57-2.2-1.66-2.55l-21.75-100.62c-.05-.24-.31-1.6.57-2.9.85-1.25,2.13-1.54,2.39-1.59,11.75-2.66,23.51-5.34,35.27-8,.26-.08,2.29-.66,4.14.63,1.48,1.03,1.86,2.58,1.93,2.94l21.54,99.65c.08.22.63,1.79-.28,3.36h.02Z"/>
      <path class="st19" d="M284.08,572.3c-1.31,2.04-3.48,2.39-3.81,2.44-8.55,1.87-17.1,3.73-25.65,5.59-.42.09-1.64.28-2.91-.35-2.08-1.03-2.42-3.35-2.46-3.57l-90.51-418.64c-.04-.45-.06-1.66.69-2.9.97-1.61,2.57-2.08,2.92-2.19l26.39-5.71c1.43-.18,2.76,0,3.81.73,0,0,1.34.93,1.92,2.94,1.22,4.21,67.9,313.69,90.12,416.84.1.27.9,2.6-.52,4.82h0Z"/>
      <path class="st19" d="M7.24,94.25c.98.56,1.94.45,2.25.39,62.95-13.63,125.9-27.26,188.84-40.89.3-.03,1.47-.22,2.33-1.24,1.22-1.43.77-3.22.72-3.39l-2.46-11.38c-.06-.27-.29-1.08-1.05-1.68-1.24-.96-2.77-.46-2.89-.41L5.85,76.56c-.35.09-1.22.37-1.91,1.2-1.11,1.32-.79,2.95-.74,3.18l2.33,10.77c.03.21.29,1.74,1.72,2.54h0Z"/>
    </g>
    <path class="st19" d="M287.3,560.87c1.25.87,2.54.9,2.97.89l18.94-4.1c.37-.08,1.63-.37,2.5-1.52,1.4-1.85.51-4.12.47-4.23-8.01-37.06-16.03-74.14-24.04-111.2-.07-.28-.4-1.4-1.5-2.12-1.37-.91-2.83-.51-3.04-.45l-18.82,4.07c-.45.16-1.52.59-2.37,1.71-1.04,1.35-1.06,2.8-1.05,3.23l24.01,111.07c.12.4.58,1.73,1.94,2.67h0v-.02Z"/>
    <path class="st19" d="M322.85,553.18c1.25.87,2.54.9,2.97.89l18.94-4.1c.37-.08,1.63-.37,2.5-1.52,1.4-1.85.51-4.12.47-4.23-8.01-37.06-16.03-74.14-24.04-111.2-.07-.28-.4-1.4-1.5-2.12-1.37-.91-2.83-.51-3.05-.44l-18.82,4.07c-.45.16-1.52.59-2.37,1.71-1.04,1.35-1.06,2.8-1.05,3.23l24.01,111.07c.12.4.58,1.73,1.94,2.67h0v-.02Z"/>
    <path class="st19" d="M261.03,439.34c1.25.87,2.54.9,2.97.89l18.94-4.1c.37-.08,1.63-.37,2.5-1.52,1.4-1.85.51-4.12.47-4.23-8.01-37.06-16.03-74.14-24.04-111.2-.07-.28-.4-1.4-1.5-2.12-1.37-.91-2.83-.51-3.04-.45-6.27,1.35-12.54,2.71-18.82,4.07-.45.16-1.52.59-2.37,1.71-1.04,1.35-1.06,2.8-1.05,3.23l24.01,111.07c.12.4.58,1.73,1.94,2.67h0v-.02Z"/>
    <path class="st19" d="M296.46,431.11c1.25.87,2.54.9,2.97.89l18.94-4.1c.37-.08,1.63-.37,2.5-1.52,1.4-1.85.51-4.12.47-4.23-8.01-37.06-16.03-74.14-24.04-111.2-.07-.28-.4-1.4-1.5-2.12-1.37-.91-2.83-.51-3.05-.44l-18.82,4.07c-.45.16-1.52.59-2.37,1.71-1.04,1.35-1.06,2.8-1.05,3.23l24.01,111.07c.12.4.58,1.73,1.94,2.67h0v-.02Z"/>
    <path class="st19" d="M234.73,317.7c1.25.87,2.54.9,2.97.89l18.94-4.1c.37-.08,1.63-.37,2.5-1.52,1.4-1.85.51-4.12.47-4.23-8.01-37.06-16.03-74.14-24.04-111.2-.07-.28-.4-1.4-1.5-2.13-1.37-.91-2.83-.51-3.05-.46l-18.82,4.07c-.45.16-1.52.59-2.37,1.7-1.04,1.35-1.06,2.8-1.05,3.23l24.01,111.07c.12.4.58,1.73,1.94,2.67h0Z"/>
    <path class="st19" d="M270.28,310.02c1.25.87,2.54.9,2.97.89l18.94-4.1c.37-.08,1.63-.37,2.5-1.52,1.4-1.85.51-4.12.47-4.23-8.01-37.06-16.03-74.14-24.04-111.2-.07-.28-.4-1.4-1.5-2.13-1.37-.91-2.83-.51-3.06-.45l-18.82,4.07c-.45.16-1.52.59-2.37,1.7-1.04,1.35-1.06,2.8-1.05,3.23l24.01,111.07c.12.4.58,1.73,1.94,2.67h.01Z"/>
  </g>
  <g>
    <path class="st14" d="M425.68,953.67c3.27-6.63,5.66-12.34,7.34-16.67,2.76-7.1,3.67-10.62,4.07-12.34.75-3.14,1.62-6.62,1.78-11.21.14-3.83-.25-6.74-.69-9.69-.77-5.1-2.01-12.38-4.04-21.49-4.39-20.69-8.79-41.37-13.21-62.05-10.77-50.33-21.65-100.65-32.63-150.94-.14-.73-.31-1.8-.38-3.09-.16-2.64.14-4.62.24-5.32.42-2.89-.15-.33,1.06-11.77.67-6.31,1.13-9.77,1.06-13.31-.05-2.25-.23-4.48-.23-4.48-.14-1.65-.31-2.88-.45-3.9-.19-1.39-.46-3.18-.86-5.29-3.39-15.11-7.86-35.47-12.9-59.68-2.94-14.13-5.01-24.47-5.37-26.21-5.07-25.22-30.95-145.38-96.1-444.46"/>
    <path class="st14" d="M429.99,903.6l-49.33-228.18c-.14-.55-.31-1.31-.48-2.23-.21-1.16-.77-4.45-.6-8.55.06-1.49.2-2.75,1.55-9.47.78-3.89,2.67-13.11,2.93-16.38,0-.15.11-1.39.26-3.12.09-1.14.16-1.81.18-1.97.25-2.87-.6-6.53-.64-6.66-.77-3.31-48.71-226.73-114.69-534.16"/>
    <path class="st14" d="M354.68,461.84l1.62-6.97,1.08-5.89c.02-.33.03-.68.02-1.06-.02-.96-.16-1.8-.33-2.5l-76.74-354.96"/>
    <path class="st14" d="M347.21,399.37c.6-1.78,1.2-3.56,1.81-5.34.37-1.35.75-2.7,1.12-4.05.04-.2.08-.42.11-.63.24-1.5.09-3.17.09-3.17-.03-.35-.09-.82-.18-1.37l-63.92-295.62"/>
    <path class="st14" d="M421.85,905.36l-38.59-178.48"/>
    <path class="st14" d="M401.05,808.15c.55-2.94,1.1-5.91,1.61-8.91.7-3.96,1.35-7.87,1.97-11.73"/>
    <path class="st14" d="M390.32,760.45l-27.08-28.71"/>
    <path class="st14" d="M369.87,762.39l-29.76-137.65"/>
    <path class="st14" d="M347.08,658.49l-12.58-12.36"/>
    <path class="st14" d="M388.24,895.68l-58.46-270.39"/>
    <path class="st14" d="M324.85,626.36l58.46,270.39"/>
    <path class="st14" d="M375.95,562.31c.18-.25.39-.59.55-1.02.31-.87.23-1.63.15-2.23-.35-2.79-.6-4-.6-4-.42-2.05-.45-2-.68-3.13-.36-1.8-.6-3.03-.69-4.59-.11-1.99.08-3.51.25-4.86.09-.75.34-2.48.92-4.57,1.02-3.72,2.55-6.74,3.69-8.76,2.5-4.44,8.09-12.99,16.1-23.67,9.81-13.68,19.62-27.37,29.42-41.05.21-.29.43-.61.64-.98.16-.27.76-1.36,1.22-3.62.18-.87.36-2.02.41-3.4,2.63-52.96,5.25-105.91,7.87-158.87"/>
    <path class="st14" d="M412.44,481.36c1.64-4.47,3.35-8.95,5.16-13.46.15-.38.31-.75.45-1.13.09-.48.22-1.17.36-2.01.57-3.4.77-5.97.92-8.11.26-3.59.51-7.36.74-11.37l7.93-148.36"/>
    <path class="st14" d="M396.76,503.39c1.21-3.48,2.42-7,3.6-10.54.18-.53.35-1.06.54-1.59l.33-1.58.41-7.37c3.08-58.75,6.17-117.5,9.25-176.26l-.35-1.6c-16.52-76.94-33.03-153.87-49.56-230.81"/>
    <path class="st14" d="M409.81,321.16l-53.3-246.54"/>
    <path class="st17" d="M200.43,50.5L6.12,92.51"/>
    <path class="st17" d="M197.84,38.54L3.53,80.56"/>
    <path class="st17" d="M606.42,526.52c5.71-113.69,11.43-227.38,17.14-341.07"/>
    <path class="st17" d="M611.88,185.11c-5.92,113.21-11.83,226.41-17.75,339.63"/>
  </g>
  <g>
    <path class="st13" d="M572.27,135.99l.24-7.94-11.5-.93c-.33,2.53-.66,5.06-1,7.59l12.25,1.28h0Z"/>
    <polygon class="st13" points="573.49 109.86 562.07 109.24 562.33 102.23 573.66 102.69 573.49 109.86"/>
    <polygon class="st13" points="574.61 85.91 563.35 84.98 564.03 78.03 575.21 78.72 574.61 85.91"/>
    <polygon class="st13" points="575.81 62.88 563.99 61.93 565.29 48.23 576.68 49.51 575.81 62.88"/>
  </g>
  <g>
    <path class="st11" d="M466.68,922.12c-1.84-8.06-3.67-16.13-5.51-24.2-34.41-158.72-68.82-317.45-103.23-476.16l14.93-3.23c56.61,2.6,113.2,5.48,169.78,8.65.62.04,4.07.23,4.68.27-.07,1.26-.15,2.53-.22,3.8-1.55-.1-3.09-.2-4.64-.3-1.47,29.63-2.96,59.25-4.43,88.87"/>
    <path class="st11" d="M434.68,422.14c-2.11,45.74-4.22,91.48-6.33,137.22"/>
    <path class="st11" d="M398.15,556.02l29.17-6.31"/>
    <path class="st11" d="M383.2,537.17c16.44-22.81,32.88-45.62,49.32-68.43"/>
    <path class="st11" d="M567.07,837.62c3.48-74.15,6.95-148.3,10.43-222.45"/>
    <path class="st11" d="M395.46,592.18c36.22,1.92,72.45,3.85,108.67,5.76"/>
    <path class="st11" d="M505.89,570.81c-1.99,38.84-3.97,77.68-5.97,116.52"/>
    <path class="st11" d="M414.85,682.41c53.03,2.77,106.06,5.54,159.09,8.3"/>
    <path class="st11" d="M570.32,768.19c3.09.07,6.18.15,9.27.21"/>
    <path class="st11" d="M376.95,418.55c-27.06-124.76-54.11-249.52-81.17-374.29L26.02,102.58l53.52,247.54"/>
    <path class="st12" d="M302.47,78.45l-53.26,11.52c6.33,29.62,12.68,59.25,19.01,88.87l-60.26,13.03"/>
    <path class="st7" d="M445.94,824.52l30.03-6.49c1.26-4.31,2.52-8.62,3.77-12.93-3.51-15.37-7-30.72-10.51-46.09,1.25-24.16,2.5-48.33,3.76-72.49"/>
    <path class="st7" d="M469.79,739.74c-13.97-.75-27.96-1.5-41.93-2.25"/>
    <path class="st7" d="M559.62,780.63c-13.78-.77-27.57-1.55-41.35-2.32l-41.91,9.06"/>
    <path class="st7" d="M518.27,778.31c1.38-29.67,2.76-59.34,4.14-89.03"/>
    <path class="st18" d="M484.09,403.48l-39.65-1.9c.46-9.91.92-19.81,1.38-29.72,13.24.76,26.49,1.53,39.73,2.29-.48,9.78-.98,19.56-1.46,29.34Z"/>
    <path class="st7" d="M482.63,423.42c0-7.66,0-15.32-.02-22.99"/>
    <path class="st7" d="M447.16,373.68l4.5-83.85c16.05.82,32.1,1.63,48.16,2.45-1.27,29.03-2.55,58.07-3.82,87.1-4.67-.19-9.32-.39-13.99-.58"/>
    <path class="st7" d="M496,379.39c18.5.97,37,1.96,55.49,2.93,3.51-65.6,7-131.2,10.52-196.81-10.32-.45-20.64-.91-30.96-1.36-8.18-.32-16.36-.63-24.54-.93-2.23,36.35-4.46,72.72-6.69,109.07"/>
    <path class="st7" d="M499.29,310.17c18.55,1.09,37.1,2.19,55.66,3.28"/>
  </g>
  <polygon class="st8" points="538.18 838.38 489.81 848.87 481.75 811.6 530.12 801.14 538.18 838.38"/>
  <g>
    <g>
      <path class="st16" d="M419.63,942.15c-.4-.85-.89-2.2-.83-3.86.05-1.71.64-2.99,1.53-4.64,1.05-1.92,2.55-4.46,4.65-7.35,4.77,1.77,9.54,3.53,14.31,5.3,5.49-1.22,10.98-2.45,16.48-3.66-4.17-21.89-8.33-43.8-12.5-65.69,3.09-.21,7.82-.54,13.59-1.01,22.52-1.82,34-2.78,43.87-5.41,6.34-1.69,12.85-4.55,25.87-10.27,13.54-5.95,24.46-11.41,31.92-15.31,1.57-15.66,3.12-31.33,4.69-46.98,3.22.85,5.98,1.12,8.01,1.21,1.84.07,3.38,0,4.4-.09,2.03-.16,3.8-.47,5.22-.79.83-13.18,1.68-26.36,2.51-39.54,20.3,1.22,40.58,2.44,60.88,3.65-1.34,26.69-2.68,53.38-4.02,80.07-22.22-1.06-44.44-2.13-66.66-3.19.69-13.4,1.39-26.81,2.08-40.21"/>
      <path class="st16" d="M651.29,599.57c-27.59-1.23-55.18-2.47-82.77-3.69-.81,14.12-1.64,28.24-2.45,42.37-3.51-.17-7.01-.36-10.52-.53"/>
      <path class="st16" d="M605.97,596.83c1.08-21.05,2.15-42.11,3.23-63.15-27.4-1.47-54.79-2.95-82.19-4.41-.48,9.35-.96,18.71-1.44,28.07-11.92-.61-23.83-1.21-35.76-1.81-.09,3.18-.18,6.35-.27,9.53"/>
      <path class="st16" d="M518.37,647.36c.75-10.87,1.51-21.74,2.26-32.61,9.01.42,18.02.85,27.03,1.28,1.3-28.48,2.6-56.96,3.91-85.45"/>
      <path class="st16" d="M520.7,614.44c.48-8.78.95-17.57,1.42-26.35l-9.81-.58c-.38,4.87-.76,9.74-1.15,14.61,3.17.17,6.34.35,9.51.52"/>
      <path class="st16" d="M547.24,530c6.35-116.98,12.71-233.97,19.07-350.95"/>
      <path class="st16" d="M419.11,665.7l-3.4-15.75c3.19.49,6.39.97,9.6,1.47"/>
      <path class="st16" d="M548.43,379.63c1.18-21.07,2.37-42.13,3.55-63.21l-48.77-2.74c-1.13,20.87-2.25,41.75-3.37,62.62,16.2,1.11,32.4,2.21,48.59,3.33h0Z"/>
      <path class="st16" d="M525.13,440.07l.46-8.64c-25.97-1.41-51.92-2.83-77.89-4.25-.15,3.08-.31,6.17-.47,9.24"/>
      <path class="st16" d="M552.69,422.45c-36.87-1.84-73.74-3.67-110.62-5.51,2.22-44.04,4.45-88.08,6.66-132.12,15.22.89,30.44,1.78,45.66,2.67,2.3-42.59,4.59-85.17,6.89-127.77,22.28,1.16,44.55,2.32,66.83,3.49"/>
      <path class="st15" d="M645.6,825.37c-.19,2.22-.4,4.44-.59,6.67l-70.63-3.71c-23.91,11.44-47.83,22.89-71.75,34.33-8.99,6.11-17.98,12.22-26.98,18.32-6.6,19.07-13.2,38.13-19.79,57.19l-64.89,14.03"/>
    </g>
    <rect class="st16" x="485.12" y="805.74" width="49.73" height="38.54" transform="translate(-162.83 126.41) rotate(-12.2)"/>
  </g>
  <line class="st9" x1="317.84" y1="556.64" x2="239.36" y2="193.67"/>
  <g>
    <g>
      <path class="st20" d="M379.18,887.91c-.89.12-1.48-.48-1.55-.53l-4.65-21.51c.04-.07.42-.76,1.24-.87.76-.1,1.28.37,1.34.44.46,2.05.94,4.09,1.41,6.13.25-.35,1.35-1.83,3.44-2.31,2.08-.48,3.7.36,4.09.57l-1.31-6.07c.09-.11.53-.62,1.3-.7.71-.08,1.22.25,1.35.33l4.73,21.86c-.18.17-.61.55-1.3.7s-1.27-.02-1.49-.1l-1.32-6.12c-.55.46-1.77,1.33-3.57,1.67-1.6.3-2.91.02-3.59-.18l1.25,5.77c-.03.08-.46.82-1.35.94h-.01Z"/>
      <path class="st20" d="M358.74,793.67c-.89.12-1.48-.48-1.55-.53l-4.65-21.51c.04-.07.42-.76,1.24-.87.76-.1,1.28.37,1.34.44.46,2.05.94,4.09,1.41,6.13.25-.35,1.35-1.83,3.44-2.31,2.08-.48,3.7.36,4.09.57l-1.31-6.07c.09-.11.53-.62,1.3-.7.71-.08,1.22.25,1.35.33l4.73,21.86c-.18.17-.61.55-1.3.7s-1.27-.02-1.49-.1l-1.32-6.12c-.55.46-1.77,1.33-3.57,1.67-1.6.3-2.91.02-3.59-.18l1.25,5.77c-.03.08-.46.82-1.35.94h-.01Z"/>
      <path class="st20" d="M337.89,699.29c-.89.12-1.48-.48-1.55-.53l-4.65-21.51c.04-.07.42-.76,1.24-.87.76-.1,1.28.37,1.34.44.46,2.05.94,4.09,1.41,6.13.25-.35,1.35-1.83,3.44-2.31,2.08-.48,3.7.36,4.09.57l-1.31-6.07c.09-.11.53-.62,1.3-.7.71-.08,1.22.25,1.35.33l4.73,21.86c-.18.17-.61.55-1.3.7s-1.27-.02-1.49-.1l-1.32-6.12c-.55.46-1.77,1.33-3.57,1.67-1.6.3-2.91.02-3.59-.18l1.25,5.77c-.03.08-.46.82-1.35.94h-.01Z"/>
      <path class="st20" d="M596.76,499.59c-.89-.11-1.31-.84-1.35-.93l1.08-21.98c.05-.05.6-.62,1.42-.52.76.1,1.14.68,1.19.77-.08,2.09-.15,4.2-.23,6.29.34-.28,1.77-1.42,3.92-1.34,2.14.08,3.48,1.3,3.8,1.6.1-2.07.2-4.13.3-6.19.12-.08.68-.45,1.44-.34.7.1,1.11.56,1.22.67-.36,7.45-.73,14.89-1.09,22.34-.21.12-.73.37-1.43.34-.72-.03-1.22-.35-1.42-.49l.3-6.26c-.65.29-2.05.83-3.88.7-1.62-.13-2.82-.74-3.42-1.1-.1,1.96-.19,3.93-.29,5.89-.06.06-.65.67-1.55.56h-.02Z"/>
      <path class="st20" d="M601.17,412.08c-.89-.11-1.31-.85-1.35-.93l1.08-21.98c.05-.06.6-.62,1.42-.51.76.1,1.14.68,1.19.77-.08,2.09-.15,4.2-.23,6.29.34-.28,1.77-1.42,3.92-1.34,2.13.07,3.48,1.3,3.8,1.6.1-2.07.2-4.13.3-6.19.12-.08.68-.45,1.44-.35.7.1,1.11.55,1.22.67-.36,7.45-.73,14.89-1.09,22.34-.21.12-.73.37-1.43.34-.72-.03-1.22-.35-1.41-.48l.3-6.26c-.65.29-2.05.83-3.88.7-1.62-.13-2.82-.74-3.42-1.1-.1,1.96-.19,3.93-.29,5.89-.06.06-.65.67-1.55.56h-.02Z"/>
      <path class="st20" d="M605.53,322.23c-.89-.11-1.31-.85-1.35-.93l1.08-21.98c.05-.06.6-.62,1.42-.51.76.1,1.14.68,1.19.77-.08,2.09-.15,4.2-.23,6.29.34-.28,1.77-1.42,3.92-1.34,2.13.07,3.48,1.3,3.8,1.6.1-2.07.2-4.13.3-6.19.12-.08.68-.45,1.44-.35.7.1,1.11.55,1.22.67-.36,7.45-.73,14.89-1.09,22.34-.21.12-.73.37-1.43.34-.72-.03-1.22-.35-1.41-.48l.3-6.26c-.65.29-2.05.83-3.88.7-1.62-.13-2.82-.74-3.42-1.1-.1,1.96-.19,3.93-.29,5.89-.06.06-.65.67-1.55.56h-.02Z"/>
      <path class="st20" d="M609.67,238.83c-.89-.11-1.31-.85-1.35-.93l1.08-21.98c.05-.06.6-.62,1.42-.51.76.1,1.14.68,1.19.77-.08,2.09-.15,4.2-.23,6.29.34-.28,1.77-1.42,3.92-1.34,2.13.07,3.48,1.3,3.8,1.6.1-2.07.2-4.13.3-6.19.12-.08.68-.45,1.44-.35.7.1,1.11.55,1.22.67-.36,7.45-.73,14.89-1.09,22.34-.21.12-.73.37-1.43.34-.72-.03-1.22-.35-1.41-.48l.3-6.26c-.65.29-2.05.83-3.88.7-1.62-.13-2.82-.74-3.42-1.1-.1,1.96-.19,3.93-.29,5.89-.06.06-.65.67-1.55.56h-.02Z"/>
      <path class="st20" d="M196.69,50.94c.13.56-.07,1.03-.17,1.23-.14.3-.29.48-.33.51l-21.51,4.65c-.07-.05-.77-.5-.91-1.44-.13-.86.33-1.44.4-1.52,2.48-.51,4.96-1.01,7.44-1.52-.56-.23-1.93-.87-2.83-2.36-.78-1.28-.83-2.52-.85-3.22-.04-1.35.32-2.41.56-3.03-2.11.43-4.23.85-6.33,1.29-.15-.16-.55-.64-.65-1.39-.09-.77.19-1.34.29-1.53l21.86-4.73c.18.2.61.71.74,1.5.12.7-.05,1.26-.15,1.5l-6.22,1.34c.45.32,1.24.98,1.79,2.07.93,1.84.53,3.6.39,4.2-.34,1.38-1.03,2.34-1.5,2.87,2.41-.49,4.81-.99,7.21-1.49.12.08.62.41.78,1.05h0Z"/>
      <path class="st20" d="M30.18,87.12c.13.56-.07,1.03-.17,1.23-.13.29-.29.48-.33.51l-21.51,4.65c-.07-.05-.77-.5-.91-1.44-.13-.86.33-1.44.4-1.52,2.48-.51,4.96-1.01,7.44-1.52-.56-.23-1.93-.87-2.84-2.36-.78-1.28-.83-2.52-.85-3.22-.04-1.35.32-2.41.56-3.03-2.11.43-4.23.85-6.33,1.29-.15-.16-.56-.64-.65-1.39-.09-.77.19-1.34.29-1.53l21.86-4.73c.18.2.6.71.74,1.5.12.7-.05,1.26-.15,1.5l-6.22,1.34c.45.32,1.24.98,1.79,2.07.93,1.84.53,3.6.39,4.2-.34,1.38-1.03,2.34-1.5,2.87,2.41-.49,4.81-.99,7.21-1.49.12.08.62.41.78,1.05h0Z"/>
      <path class="st20" d="M393.93,266.06c-1.07.15-1.76-.47-1.83-.52l-4.92-22.73c.05-.07.52-.82,1.51-.96.91-.13,1.52.36,1.6.42.5,2.16.99,4.32,1.49,6.48.32-.39,1.67-1.99,4.18-2.56,2.51-.57,4.43.27,4.88.48l-1.39-6.41c.12-.12.66-.68,1.58-.79.85-.11,1.45.22,1.6.32l5,23.11c-.2.19-.75.6-1.58.78s-1.52.02-1.79-.06l-1.4-6.47c-.67.5-2.16,1.48-4.32,1.89-1.93.37-3.49.11-4.29-.07l1.32,6.09c-.05.08-.57.88-1.65,1.04h0Z"/>
      <path class="st20" d="M360.96,112.95c-1.07.16-1.75-.43-1.83-.5l-4.71-21.77c.05-.07.53-.79,1.52-.94.91-.14,1.51.33,1.59.39.48,2.07.96,4.14,1.43,6.21.32-.38,1.68-1.92,4.2-2.49,2.51-.57,4.42.22,4.87.41l-1.33-6.14c.12-.12.67-.66,1.58-.77.85-.11,1.44.2,1.6.29l4.78,22.12c-.21.18-.75.58-1.58.76s-1.52.03-1.79-.04l-1.34-6.2c-.67.48-2.16,1.44-4.33,1.85-1.93.37-3.48.14-4.28-.04l1.26,5.84c-.05.08-.57.85-1.65,1.01h.01Z"/>
      <polygon class="st20" points="302.58 510.94 302.04 508.46 296.16 509.73 293.96 499.55 299.84 498.27 299.35 496.02 276.22 501.03 276.74 503.42 285.48 501.53 287.67 511.62 278.92 513.51 279.44 515.94 302.58 510.94"/>
      <polygon class="st20" points="336.01 503.71 335.47 501.23 329.59 502.5 327.38 492.32 333.27 491.05 332.78 488.8 309.65 493.8 310.16 496.19 318.91 494.3 321.09 504.39 312.34 506.28 312.87 508.72 336.01 503.71"/>
      <polygon class="st20" points="277.46 396.77 276.93 394.29 271.04 395.56 268.84 385.37 274.73 384.1 274.24 381.85 251.09 386.86 251.61 389.24 260.36 387.35 262.54 397.45 253.79 399.34 254.32 401.77 277.46 396.77"/>
      <polygon class="st20" points="311.56 389.4 311.02 386.92 305.14 388.19 302.93 378 308.82 376.73 308.33 374.48 285.2 379.48 285.71 381.87 294.46 379.98 296.64 390.08 287.9 391.97 288.42 394.4 311.56 389.4"/>
      <polygon class="st20" points="253.05 283.78 252.51 281.3 246.63 282.57 244.43 272.38 250.31 271.11 249.82 268.86 226.68 273.86 227.2 276.26 235.95 274.37 238.13 284.45 229.38 286.35 229.91 288.78 253.05 283.78"/>
      <polygon class="st20" points="287.27 276.38 286.74 273.89 280.85 275.17 278.65 264.98 284.54 263.71 284.05 261.46 260.9 266.47 261.42 268.86 270.17 266.97 272.35 277.06 263.6 278.95 264.13 281.38 287.27 276.38"/>
      <polyline class="st20" points="359.46 348.83 359.07 347.05 333.33 352.62 331.84 345.77 357.59 340.2 357.16 338.21 307.7 348.91 308.27 351.53 324.34 348.05 325.68 354.27 310.02 357.66 310.41 359.43"/>
      <polyline class="st20" points="339.11 253.61 338.73 251.82 312.97 257.39 311.49 250.54 337.25 244.97 336.82 242.99 287.35 253.69 287.92 256.3 303.98 252.82 305.33 259.04 289.67 262.43 290.06 264.21"/>
      <polyline class="st20" points="314.27 142.89 313.89 141.1 288.13 146.67 286.65 139.81 312.41 134.25 311.98 132.27 262.51 142.97 263.08 145.58 279.15 142.1 280.49 148.32 264.83 151.7 265.22 153.49"/>
      <rect class="st2" x="168.39" y="176.23" width="30.46" height="22.89" transform="translate(-35.51 43.04) rotate(-12.2)"/>
      <path class="st2" d="M166.31,179.71l34.31,15.79"/>
      <path class="st2" d="M171.15,202.08l24.93-28.81"/>
      <rect class="st2" x="193.69" y="293.58" width="30.46" height="22.89" transform="translate(-59.74 51.04) rotate(-12.2)"/>
      <path class="st2" d="M191.61,297.06l34.31,15.79"/>
      <path class="st2" d="M196.45,319.43l24.93-28.81"/>
      <rect class="st2" x="218.98" y="411.12" width="30.46" height="22.89" transform="translate(-84.01 59.04) rotate(-12.2)"/>
      <path class="st2" d="M216.9,414.6l34.31,15.79"/>
      <path class="st2" d="M221.74,436.97l24.93-28.81"/>
      <rect class="st2" x="244.58" y="528.49" width="30.46" height="22.89" transform="translate(-108.23 67.1) rotate(-12.2)"/>
      <path class="st2" d="M242.51,531.97l34.31,15.79"/>
      <path class="st2" d="M247.34,554.34c8.31-9.6,16.62-19.21,24.93-28.81"/>
    </g>
    <polygon class="st20" points="591.89 451.96 591.96 449.42 585.96 449.22 586.28 438.81 592.29 439 592.37 436.7 568.7 435.96 568.63 438.4 577.57 438.69 577.25 449 568.3 448.72 568.23 451.21 591.89 451.96"/>
    <polygon class="st20" points="597.48 342.62 597.55 340.08 591.55 339.89 591.87 329.48 597.88 329.67 597.96 327.36 574.3 326.63 574.22 329.07 583.16 329.36 582.84 339.67 573.89 339.38 573.82 341.87 597.48 342.62"/>
    <polygon class="st20" points="603.19 229.87 603.31 227.32 597.3 227.03 597.81 216.62 603.82 216.92 603.94 214.62 580.29 213.47 580.17 215.91 589.1 216.35 588.6 226.66 579.66 226.22 579.54 228.71 603.19 229.87"/>
  </g>
  <g>
    <rect class="st5" x="397.52" y="923.23" width="15.92" height="10.57" transform="translate(-187.06 106.66) rotate(-12.2)"/>
    <rect class="st5" x="438.47" y="932.41" width="10.24" height="4.94" transform="translate(-187.55 114.86) rotate(-12.2)"/>
    <rect class="st5" x="403.86" y="824.71" width="31.45" height="59.93" transform="translate(-171.14 107.97) rotate(-12.2)"/>
    <rect class="st5" x="488.02" y="792.37" width="25.63" height="15.1" transform="translate(-157.73 123.91) rotate(-12.2)"/>
    <rect class="st5" x="494.19" y="787.32" width="17.32" height="4.39" transform="translate(-155.49 124.1) rotate(-12.2)"/>
    <polygon class="st5" points="473.91 875.33 498.95 858.57 495.26 841.51 477.57 845.33 473.7 827.46 457.78 830.9 461.63 848.73 458 849.51 459.92 858.41 456.96 859.05 459.77 872.05 465.72 875.47 470.87 873.61 473.91 875.33"/>
    <rect class="st5" x="487.91" y="834.66" width="4.3" height="7.24" transform="translate(-166.08 122.49) rotate(-12.2)"/>
    <rect class="st5" x="482.94" y="812.97" width="3.13" height="6" transform="translate(-161.49 120.82) rotate(-12.2)"/>
    <rect class="st5" x="488.49" y="812.69" width="8.97" height="4.47" transform="translate(-161.08 122.58) rotate(-12.2)"/>
    <rect class="st5" x="500.36" y="808.79" width="8.7" height="7.78" transform="translate(-160.34 125.01) rotate(-12.2)"/>
    <rect class="st5" x="513.95" y="810.68" width="9.68" height="1.92" transform="translate(-159.8 127.96) rotate(-12.2)"/>
    <rect class="st5" x="513.44" y="808.39" width="9.68" height="1.79" transform="translate(-159.32 127.8) rotate(-12.2)"/>
    <rect class="st5" x="512.92" y="805.9" width="9.68" height="1.96" transform="translate(-158.82 127.64) rotate(-12.2)"/>
    <rect class="st5" x="526.61" y="803.27" width="2.41" height="9.59" transform="translate(-158.84 129.79) rotate(-12.2)"/>
    <polygon class="st5" points="543.33 818.8 561.55 819.99 563.97 783.67 545.44 782.39 543.33 818.8"/>
    <polygon class="st5" points="575.01 820.78 590.28 821.82 591.93 791.86 576.99 790.79 575.01 820.78"/>
    <polygon class="st5" points="596.27 822.05 611.09 823.32 612.94 793.02 598.07 791.83 596.27 822.05"/>
    <polygon class="st5" points="623.19 823.51 636.9 824.44 638.75 800.82 624.92 799.8 623.19 823.51"/>
    <polygon class="st5" points="515.62 600.88 516.25 592.34 520.18 592.78 519.6 601.39 515.62 600.88"/>
    <polygon class="st5" points="521.51 611.67 522.6 592.92 533.64 593.73 532.87 612.63 521.51 611.67"/>
    <polygon class="st5" points="570.58 662.5 571.11 656.64 568.01 656.37 567.55 662.18 570.58 662.5"/>
    <polygon class="st5" points="565.16 620.46 560.87 620.26 561.81 612.05 565.74 612.6 565.16 620.46"/>
    <polygon class="st5" points="560.21 663.57 561.86 643.13 558.74 642.74 558.85 636.31 547.81 635.56 547.02 647.34 512.02 645.3 511.13 661.59 560.21 663.57"/>
    <polygon class="st5" points="520.93 664.32 521.9 653.04 513.74 652.61 512.91 663.93 520.93 664.32"/>
    <polygon class="st5" points="531.67 673.88 532.41 662.45 558.94 663.52 558.83 668.61 545.66 667.88 545.04 674.87 531.67 673.88"/>
    <polygon class="st5" points="550.99 656.42 551.69 648.87 562.03 649.77 561.64 657.19 550.99 656.42"/>
    <polygon class="st5" points="572.21 581.28 573.52 562.98 556.69 561.94 556.33 566.16 549.21 566.11 547.86 579.83 572.21 581.28"/>
    <polygon class="st5" points="586.19 559.63 587.02 547.25 550.22 544.87 549.27 557.86 586.19 559.63"/>
    <polygon class="st5" points="549.21 398.79 529.67 397.3 530.57 387.6 549.99 388.96 549.21 398.79"/>
    <polygon class="st5" points="516.01 417.59 516.55 414.08 523.16 414.79 524.43 403.51 520.55 402.95 521.58 394.27 511.2 392.81 510.61 394.94 497.22 393.68 496.49 398.6 494.72 399.67 494.2 409.1 497.64 409.94 497.12 416.12 516.01 417.59"/>
    <polygon class="st5" points="477.35 399.01 453.89 397.88 454.83 376.56 478.9 378.33 477.35 399.01"/>
    <polygon class="st5" points="431.18 398.28 421.38 397.77 422.5 366.88 432.48 367.62 431.18 398.28"/>
    <polygon class="st5" points="432.99 364.91 423 364.53 424.57 333.85 434.6 334.39 432.99 364.91"/>
    <polygon class="st5" points="434.79 332.03 424.89 331.42 426.31 300.18 436.02 301.29 434.79 332.03"/>
    <polygon class="st5" points="401.88 402.83 402.78 385.09 386.44 383.62 385.74 388.1 378.43 387.88 377.59 402.21 401.88 402.83"/>
    <polygon class="st5" points="401.7 356.5 376 362.05 358.86 282.75 384.55 277.2 385.84 283.16 393.43 281.52 402.82 324.97 395.3 326.59 401.7 356.5"/>
    <polygon class="st6" points="491.75 365.48 495.25 298.8 455.27 296.74 451.71 362.69 491.75 365.48"/>
    <polygon class="st6" points="506.54 306.57 549.19 308.96 555.42 189.02 512.6 187.26 506.54 306.57"/>
    <line class="st4" x1="550.94" y1="268.6" x2="508.59" y2="266.22"/>
    <line class="st4" x1="553.29" y1="229.97" x2="510.54" y2="227.92"/>
    <rect class="st6" x="157.94" y="79.65" width="40.89" height="34.89" transform="translate(-16.49 39.89) rotate(-12.2)"/>
    <path class="st5" d="M215.18,169.58l42.49-9.19-20.55-95.04-42.49,9.19s20.65,95.52,20.55,95.04h0Z"/>
    <rect class="st5" x="168.49" y="85.48" width="23.82" height="20.84" transform="translate(-16.19 40.29) rotate(-12.2)"/>
    <rect class="st5" x="325.18" y="53.91" width="17.56" height="11.4" transform="translate(-5.05 71.92) rotate(-12.2)"/>
    <rect class="st6" x="305.67" y="20.35" width="44.35" height="28.63" transform="translate(.08 70.07) rotate(-12.2)"/>
    <polyline class="st6" points="355.84 241.04 352.58 225.93 377.19 220.61 380.46 235.72 355.84 241.04"/>
    <rect class="st5" x="347.29" y="245.48" width="39.13" height="14.28" transform="translate(-45.1 83.23) rotate(-12.2)"/>
    <rect class="st5" x="351.15" y="263.07" width="39.13" height="14.82" transform="translate(-48.79 84.45) rotate(-12.2)"/>
    <rect class="st6" x="446.94" y="783.16" width="18.98" height="28.3" transform="translate(-158.18 114.46) rotate(-12.2)"/>
    <rect class="st6" x="440.09" y="747.71" width="23.74" height="35.28" transform="translate(-151.53 112.79) rotate(-12.2)"/>
    <polygon class="st6" points="463.04 734.23 436.4 732.92 438.54 691.03 465.18 692.6 463.04 734.23"/>
    <rect class="st6" x="349.53" y="628.01" width="23.57" height="13.6" transform="translate(-125.99 90.69) rotate(-12.2)"/>
    <polygon class="st6" points="484.01 737.54 486.06 695.52 478.17 694.83 475.94 736.95 484.01 737.54"/>
    <polygon class="st6" points="482.21 773.69 486.06 695.52 510.84 697.21 506.7 774.91 482.21 773.69"/>
    <polygon class="st6" points="533.14 758.98 525.06 758.32 527.57 716.21 535.41 716.98 533.14 758.98"/>
    <polygon class="st6" points="536.78 697.54 560.93 698.92 556.8 777.05 532.49 775.23 536.78 697.54"/>
    <polygon class="st6" points="640.56 764.47 610.77 763.11 611.35 757.45 601.56 756.89 602.06 746.85 641.93 749.24 640.56 764.47"/>
    <polygon class="st6" points="633.61 727.41 599.56 725.47 606.23 619.74 639.99 621.74 633.61 727.41"/>
    <polygon class="st5" points="601.15 700.26 604.59 645.63 608.66 646.05 610.08 628.73 636.48 630.17 631.25 718.21 605.05 716.47 605.94 700.8 601.15 700.26"/>
    <polygon class="st6" points="423.87 664.67 450.7 666.28 453.93 604.24 427.11 602.85 423.87 664.67"/>
    <polygon class="st6" points="463.7 666.67 490.48 668.42 494.03 605.85 467.48 604.83 463.7 666.67"/>
    <polygon class="st6" points="581.58 608.39 582.2 603.12 590.61 603.87 591.33 593 547.78 590.94 546.94 605.87 581.58 608.39"/>
    <polygon class="st6" points="591.62 579.53 604.57 580.47 605.91 556.43 592.99 555.62 591.62 579.53"/>
    <polygon class="st6" points="318.83 641.15 306.93 643.72 305.52 637.22 297.73 638.9 287.28 590.58 346.56 577.76 342.57 559.31 363.42 554.8 365.88 566.18 381.56 562.79 379.1 551.41 400.26 546.84 401.96 554.68 414.39 556 412.22 585.79 400.02 585.83 387.91 588.45 388.46 591.03 363.79 596.36 365.12 602.51 313.09 613.76 318.83 641.15"/>
    <polygon class="st6" points="489.3 587.93 412.22 585.79 414.39 556 436.98 557.49 438.83 534.39 479.06 536.6 477.8 562.09 491.02 562.78 489.3 587.93"/>
    <polygon class="st6" points="398.22 469.27 400.38 425.58 384.59 424.54 382.58 459.45 387.41 460.16 387.27 468.65 398.22 469.27"/>
    <polygon class="st6" points="528.14 531.19 529.46 504.88 443.39 500.26 441.88 527.12 528.14 531.19"/>
    <polygon class="st6" points="529.56 498.55 531.37 472.34 444.98 467.79 443.66 494.11 529.56 498.55"/>
    <polygon class="st6" points="445.55 461.49 446.92 434.91 532.71 439.37 532.1 466.16 445.55 461.49"/>
    <line class="st4" x1="445.62" y1="461.83" x2="445.23" y2="467.74"/>
    <polygon class="st6" points="549.99 179.17 550.69 167.15 504.88 164.65 504.39 176.9 549.99 179.17"/>
    <path class="st5" d="M511.71,368.64c5.64.88,10.76-3.3,11.51-8.49.89-6.18-4.64-11.92-10.68-11.58-4.56.26-8.66,3.96-9.28,8.75-.69,5.24,2.98,10.47,8.45,11.32h0Z"/>
    <path class="st5" d="M536.9,370.54c5.04.32,9.86-3.37,10.7-8.39.99-5.95-3.99-11.69-9.92-11.87-4.8-.15-9.39,3.37-10.29,8.18-1.09,5.82,3.56,11.69,9.52,12.07h0Z"/>
    <path class="st5" d="M538.22,343.46c4.68.17,9.06-3.22,10.2-7.74,1.25-4.99-2.02-8.87-2.2-9.07-.37-.42-2.96-3.3-7.25-3.44-3.51-.12-7.14,1.65-9.07,4.96-2.15,3.71-1.49,8.17.75,11.18.33.46,3.01,3.93,7.56,4.11h0Z"/>
    <path class="st5" d="M524.74,332.64c-.59,5.96-6.88,10.26-12.72,8.76-4.96-1.29-8.57-6.52-7.39-11.92,1.19-5.39,6.68-8.69,11.91-7.67,5.1,1,8.69,5.86,8.19,10.82h0Z"/>
    <path class="st5" d="M527.79,302.77c7.92.13,15.22-5.96,16.12-14.02.99-8.96-6.31-17.18-15.28-17.58-8.16-.36-15.68,5.84-16.59,13.99-1.01,9.17,6.67,17.46,15.75,17.61h0Z"/>
    <path class="st5" d="M528.9,263.42c8.04.56,16.22-5.56,16.88-14.32.67-8.86-6.66-16.13-14.87-16.74-7.36-.55-14.62,4.33-16.45,11.36-2.35,9.01,4.85,19.02,14.44,19.69Z"/>
    <path class="st5" d="M531.1,225.22c5.94.1,13.43-3.23,15.88-10.55,1.86-5.57.31-11.91-4-16.04-5.02-4.79-12.28-5.18-17.69-2.66-.79.37-7.52,3.65-8.91,11.35-.06.34-1.4,8.51,4.63,14.01,3.77,3.45,8.26,3.86,10.1,3.88h0Z"/>
  </g>
  <g>
    <path class="st1" d="M467.81,829.31c-2.49-5.23-2.07-7.64-1.12-8.87,1.65-2.12,4.84-.62,8.16-3.28,2.27-1.81,3.07-4.34,3.74-6.46,1.32-4.14.94-7.69.69-9.76-1.39-11.82-3.01-18.24-3.01-18.24,0,0-2.55-10.13-4.58-21.19-.61-3.34-3.04-17.23-2.52-35.39.23-8.16,1.01-15.36,1.92-21.37,1.22-8.58,2.13-14.89,2.39-17.33.05-.48.17-1.72,1.08-2.43.65-.51,1.38-.5,2.61-.56,2.5-.13,2.72-.37,4.11-.42,5.48-.19,13.01,3.1,19.76,1.12,2.1-.62,3.97-2.02,7.71-4.83,6.4-4.8,6.09-6.79,9.93-8.15,4.79-1.7,8.12.39,10.46-2.26,1.55-1.75.58-3.19,2.11-4.26,2.64-1.85,6.79,1.6,9.68-.49.72-.51,1.12-1.2,1.33-1.69"/>
    <path class="st1" d="M539.43,646.15c-.22-2.56-1.06-7.51-4.9-11.25-1.39-1.35-2.64-2.05-4.84-3.26-4.51-2.49-8.45-3.56-12.62-4.68-4.79-1.28-6.43-1.31-10.84-2.9-1.85-.66-3.34-1.29-4.32-1.74.64-5.57,1.07-10.51,1.36-14.71.23-3.34.34-5.62-1.08-7.78-1.77-2.68-4.86-3.57-6.45-3.9-2.32.57-5.81,1.32-10.12,1.79-9.69,1.05-15.25-.21-26.22-1.21-1-.09-9.23-.41-25.71-1.05-7.86-.31-15.74-1.44-23.58-.88-3.43.25-9.53.86-14.02-2.9-1.39-1.16-2.26-2.45-2.78-3.35"/>
    <path class="st1" d="M385.62,548.36c-.28-1.18-.5-3.07.55-4.38,1.18-1.48,3.37-1.4,6.63-1.43,3.34-.03,6.67-.31,10-.36,5.36-.09,4.24-.7,13.81-1.58,6.01-.55,10.23-.65,12.24-3.12,1.05-1.29,1.68-2.9,1.68-2.9.71-1.82.74-3.38.76-3.9.91-37.22,2.59-50.66,2.59-50.66,2.19-17.59,6.12-18.18,4.36-27.94-.98-5.5-3.29-11.24-1.14-18.8.72-2.51,2.01-6.81,5.87-9.01,2.1-1.19,5.11-1.11,11.14-.95,4.46.13,5.87.61,6.5,1.66.91,1.51-.49,3.06.31,4.52,1.29,2.33,6.72,1.62,7.66,1.5,15.58-1.99,17.23,4.09,53.7,2.54,4.3-.18,9.89-.51,13.48,3.09,2.92,2.93,3.43,7.33,3.82,10.71.59,5.19-.29,9.43-1.02,11.95"/>
    <path class="st1" d="M483.29,431.33c.07-.54.17-1.34.3-2.32.82-5.98,2.11-15.53,5.31-24.8,2.79-8.1,4.19-12.16,7.25-14.74,3.77-3.19,11.31-6.75,19.16-5.71,3,.4,4.98,1.34,7.09.16,3.28-1.8,3.74-6.84,3.94-9.54,1.35-17.56.43-35.54,1.54-45.63.59-5.37.89-8.06,1.75-10.63.58-1.72,1.51-3.97,1.95-7.42.58-4.48-.37-5.55-.77-5.9-1.02-.88-2.27-.49-4.17-.55-3.65-.13-6.33-1.89-8.26-3.15-.95-.62-6.27-4.12-7.75-10.94-1.11-5.11.59-9.17,1.53-11.44,1.26-3.05,2.79-6.71,6.11-7.83,2.37-.8,4.19.21,5.41-1.17,1.02-1.16.92-3.21.23-4.61-1.01-2.03-2.96-1.98-5.26-3.61-2.73-1.93-3.78-4.67-4.9-7.55-.88-2.27-2.55-6.58-1.18-11.86.4-1.58,1.95-7.54,6.46-9.41,1.95-.81,3.56-.47,5.44-2.14.24-.22,2.46-2.22,1.94-3.89-.42-1.35-2.27-1.35-4.31-2.44-3.24-1.72-4.63-4.93-5.72-7.47-.67-1.55-2.82-6.53-1.13-12.17,1.63-5.4,5.93-8.63,7.08-9.44,3.38-2.38,6-2.44,7.24-5.2,1.08-2.39-.32-3.58.72-5.23,1.09-1.73,3.71-2.11,13.49-1.85,8.79.23,11.29.66,12.58-1.08,1.26-1.7.99-4.98-.94-6.81-1.63-1.55-3.84-1.45-4.36-1.41"/>
    <path class="st1" d="M530.68,184.08c-6.39-1.04-12.8-2.07-19.2-3.11-2.34,9.76-3.64,17.77-4.38,22.96-4.16,29.35-6.68,47.15-3.57,69.15,1.12,7.92,2.9,15.9-1.4,19.47-1.69,1.41-3.73,1.63-18.79.09-13.41-1.37-18.54-2.24-22.25,1.11-1.35,1.22-2.15,2.83-3.77,6.05-3.31,6.62-2.38,9.42-5.22,11.66-2.52,1.98-6.7,2.5-9.17.81-2.45-1.69-1.3-4.31-3.78-10.06-1.24-2.88-3.34-7.76-7.34-8.89-2.12-.59-2.61.46-7.27,1.17-2.5.38-7.46,1.08-12.67-.6-1.85-.59-5.6-1.81-8.15-4.99-3.45-4.3-2.9-9.94-2.74-12.69.16-2.98-.25-.75-6.53-30.2-7.01-32.88-4.86-28-7.7-38.07-3.96-14.06-6.73-18.54-11.03-36.22-1.91-7.84-3.06-13.91-3.36-15.55-2.84-15.26-2.38-19.91-4.55-35.85-1.91-14.04-4.17-24.4-5.81-31.86-5.22-23.69-5.41-15.07-7.43-26.93-.9-5.26-1.32-9.6-4.72-11.92-3.82-2.61-8.78-.87-14.88.78-9.31,2.52-21.18,5.76-31.32,5.16-13.55-.79-14.74-7.88-28.45-8.46-9.73-.41-16.21,2.86-22.77,5.32-18.9,7.1-30.77,4.72-53.93,6.09-34.16,2.03-28.39,8.4-75.62,14.55-30.52,3.97-59.88,14.31-90.06,20.3-.56.12-2.33.45-3.56,1.88-2.45,2.79-1.07,7.67-.7,9.09,4.28,16.53,3.94,33.93,6.84,50.76,3.2,18.56,1.29,16.08,4.25,30.91,2.94,14.72,4.72,16.62,9.44,35.19,7.52,29.56,3.61,27.08,9.12,42.17,4.93,13.5,10.01,20.87,11.72,36.33.68,6.12.58,11.25.38,14.73"/>
    <path class="st3" d="M63.73,315.79c1.85-1.23,5.18,0,6.9,2.06,2.07,2.49,1.43,5.73,1.18,7.05-.19.99-.71,3.42-2.8,5.06-.67.53-2.12,1.65-3.29,1.21-1.23-.46-.87-2.13-2.06-6.56-.97-3.61-1.92-5.1-1.14-7.11.18-.48.49-1.23,1.22-1.72h0Z"/>
    <path class="st3" d="M534.14,460.25c1.09-1.11,3.04-1.71,4.41-.95,2.06,1.13,2.28,5.03.36,6.95-1.07,1.07-2.97,1.69-4.33.96-2.06-1.11-2.35-5.02-.44-6.95h0Z"/>
    <circle class="st0" cx="447.82" cy="811.34" r="1.16" transform="translate(-161.34 112.96) rotate(-12.2)"/>
    <circle class="st0" cx="412.7" cy="693.44" r="1.16" transform="translate(-137.22 102.88) rotate(-12.2)"/>
    <circle class="st0" cx="485.02" cy="670.23" r="1.16" transform="translate(-130.68 117.63) rotate(-12.2)"/>
    <circle class="st0" cx="425.39" cy="609.89" r="1.16" transform="translate(-119.28 103.67) rotate(-12.2)"/>
    <circle class="st0" cx="428.46" cy="554.98" r="1.16" transform="translate(-107.61 103.08) rotate(-12.2)"/>
    <circle class="st0" cx="444.18" cy="462.88" r="1.15"/>
    <circle class="st0" cx="532.25" cy="468.97" r="1.16" transform="translate(-87.08 123.07) rotate(-12.2)"/>
    <circle class="st0" cx="517.31" cy="416.86" r="1.15"/>
    <circle class="st0" cx="548.69" cy="286.4" r="1.16" transform="translate(-48.13 122.42) rotate(-12.2)"/>
    <circle class="st0" cx="550.93" cy="178.44" r="1.16" transform="translate(-25.27 120.46) rotate(-12.2)"/>
  </g>
</svg>